<?xml version="1.0" standalone="no"?>
<!DOCTYPE svg PUBLIC "-//W3C//DTD SVG 1.1//EN" "http://www.w3.org/Graphics/SVG/1.1/DTD/svg11.dtd" >
<svg xmlns="http://www.w3.org/2000/svg" xmlns:xlink="http://www.w3.org/1999/xlink" version="1.1">
<metadata>
Created by FontForge 20170731 at Sat Jul 10 11:47:18 2021
 By Aleksey,,,
Alacrity Sans fonts (c) asenbayu 2020. All Rights Reserved
</metadata>
<defs>
<font id="AlacritySansSemibold" horiz-adv-x="619" >
  <font-face 
    font-family="Alacrity Sans Semibold"
    font-weight="600"
    font-stretch="normal"
    units-per-em="1000"
    panose-1="0 0 0 0 0 0 0 0 0 0"
    ascent="800"
    descent="-200"
    x-height="543"
    cap-height="700"
    bbox="-198 -257 1199 873"
    underline-thickness="50"
    underline-position="-175"
    unicode-range="U+000A-F011"
  />
<missing-glyph horiz-adv-x="527" 
d="M477 700v-700h-427v700h427zM263 371l186 309h-371zM71 650v-601l180 301zM79 21h370l-185 308zM457 47v605l-181 -302z" />
    <glyph glyph-name=".notdef" horiz-adv-x="527" 
d="M477 700v-700h-427v700h427zM263 371l186 309h-371zM71 650v-601l180 301zM79 21h370l-185 308zM457 47v605l-181 -302z" />
    <glyph glyph-name=".null" horiz-adv-x="0" 
 />
    <glyph glyph-name=".null" horiz-adv-x="0" 
 />
    <glyph glyph-name="uni000D" unicode="&#xd;" horiz-adv-x="0" 
 />
    <glyph glyph-name="uni000A" unicode="&#xa;" horiz-adv-x="0" 
 />
    <glyph glyph-name="space" unicode=" " horiz-adv-x="399" 
 />
    <glyph glyph-name="exclam" unicode="!" horiz-adv-x="249" 
d="M63 193q-1 74 -2 135t-2.5 118.5t-2.5 118.5t-2 135h141q-1 -74 -2 -135t-2.5 -118.5t-2.5 -118.5t-2 -135h-123zM124 134q28 0 48.5 -19.5t20.5 -48.5q0 -27 -20.5 -46.5t-48.5 -19.5q-27 0 -47.5 19.5t-20.5 46.5q0 29 20.5 48.5t47.5 19.5z" />
    <glyph glyph-name="quotedbl" unicode="&#x22;" horiz-adv-x="352" 
d="M252 700q29 0 48.5 -19.5t19.5 -48.5v-68q0 -11 -3 -24.5t-10 -25.5t-18.5 -20t-29.5 -8h-16v32q8 2 16.5 9.5t8.5 18.5v20q-4 0 -7.5 -1t-8.5 -1q-27 0 -47.5 20t-20.5 48q0 29 20.5 48.5t47.5 19.5zM93 700q29 0 48.5 -19.5t19.5 -48.5v-68q0 -11 -2.5 -24.5t-9 -25.5
t-18.5 -20t-31 -8h-16v32q8 2 17.5 9.5t9.5 18.5v20q-5 0 -9 -1t-9 -1q-27 0 -46.5 20t-19.5 48q0 29 19.5 48.5t46.5 19.5z" />
    <glyph glyph-name="numbersign" unicode="#" horiz-adv-x="888" 
d="M667 420l-32 -152h164l-25 -120h-164l-31 -148h-123l29 148h-175l-29 -148h-125l32 148h-155l25 120h155l31 152h-154l25 123h154l34 157h123l-32 -157h175l34 157h123l-32 -157h162l-25 -123h-164zM544 420h-175l-34 -152h178z" />
    <glyph glyph-name="dollar" unicode="$" horiz-adv-x="717" 
d="M523 395q50 -16 84 -45t51.5 -64t19 -73t-14.5 -74t-48.5 -66t-82.5 -48q-26 -8 -54.5 -13.5t-57.5 -9.5v-95h-120v97q-44 6 -90 20t-83 38.5t-60.5 60t-23.5 84.5v4h125v-4q0 -22 24.5 -38t57 -26t65 -14.5t48.5 -3.5q26 0 58 2.5t58 11.5q39 14 56 33t14.5 39.5
t-23 38.5t-56.5 29q-45 14 -92.5 19t-93.5 13q-31 7 -61 17t-59 22q-30 14 -54 35t-38 47.5t-17 57t9 62.5q15 43 49 71t73 45q56 21 114 27v98h120v-100q33 -5 65.5 -14.5t61 -24t52 -34.5t37.5 -47l-111 -62q-9 19 -31 31t-48 19t-52.5 10t-45.5 4q-28 0 -62.5 -5.5
t-60.5 -17.5q-14 -5 -27.5 -17.5t-13.5 -29.5q0 -12 10.5 -23t21.5 -18q19 -11 41.5 -16.5t42.5 -8.5q57 -12 112.5 -18.5t110.5 -25.5z" />
    <glyph glyph-name="percent" unicode="%" horiz-adv-x="698" 
d="M175 343q-28 0 -53 11t-43.5 29.5t-29 43.5t-10.5 53v84q0 28 10.5 53t29 43.5t43.5 29t53 10.5h16q28 0 53 -10.5t43.5 -29t29.5 -43.5t11 -53v-84q0 -28 -11 -53t-29.5 -44t-43.5 -29.5t-53 -10.5h-16zM119 480q0 -23 16.5 -39t39.5 -16h16q23 0 40 16t17 39v84
q0 22 -17 38t-40 16h-16q-23 0 -39.5 -16t-16.5 -38v-84zM521 355q29 0 54 -11t44 -29.5t29.5 -43.5t10.5 -53v-82q0 -28 -10.5 -53t-29.5 -43.5t-44 -29t-54 -10.5h-16q-28 0 -53 10.5t-43.5 29t-29 43.5t-10.5 53v82q0 28 10.5 53t29 43.5t43.5 29.5t53 11h16zM578 218
q0 24 -16.5 40.5t-40.5 16.5h-16q-23 0 -39 -16.5t-16 -40.5v-82q0 -23 16 -39.5t39 -16.5h16q24 0 40.5 16.5t16.5 39.5v82zM598 700l-404 -700h-96l405 700h95z" />
    <glyph glyph-name="ampersand" unicode="&#x26;" horiz-adv-x="680" 
d="M664 -7h-139l-79 91q-48 -46 -108 -72t-129 -14q-53 8 -96.5 40.5t-62.5 82.5q-8 20 -10.5 40.5t-0.5 40.5q7 65 48.5 106.5t96.5 68.5l-20 24t-21 24q-26 38 -34 84t9 91q23 50 68 71.5t98 21.5q50 0 94.5 -18t67.5 -66q16 -36 13 -77q-2 -31 -14 -59.5t-29 -52.5
q-14 -19 -34 -35t-39 -30l105 -121l111 125l73 -66l-118 -132zM284 605q-29 0 -51.5 -20t-20.5 -51q1 -15 7.5 -30t16.5 -29t22 -27t22 -23q29 15 54 44t27 65q0 32 -22.5 51.5t-54.5 19.5zM266 93q32 5 61 23.5t53 42.5l-132 148q-36 -19 -60.5 -44.5t-28.5 -67.5
q-2 -20 3.5 -39t19.5 -33q17 -19 38.5 -25.5t45.5 -4.5z" />
    <glyph glyph-name="quotesingle" unicode="'" horiz-adv-x="192" 
d="M95 700q27 0 46.5 -19.5t19.5 -48.5v-66q0 -11 -2.5 -25t-9 -26t-18.5 -20.5t-31 -8.5h-16v32q8 4 17.5 10.5t9.5 17.5v20h-16q-29 0 -48.5 19.5t-19.5 46.5q0 29 19.5 48.5t48.5 19.5z" />
    <glyph glyph-name="parenleft" unicode="(" horiz-adv-x="461" 
d="M386 689q-114 -92 -165 -209.5t-51 -259.5t51 -258.5t165 -206.5v-12h-116q-57 43 -99.5 97.5t-70 116.5t-41.5 129.5t-14 136.5q0 68 14 135t41.5 128.5t70 116t99.5 97.5h116v-11z" />
    <glyph glyph-name="parenright" unicode=")" horiz-adv-x="461" 
d="M191 700q57 -43 99.5 -97.5t70 -116t41.5 -128.5t14 -135q0 -69 -14 -136.5t-41.5 -129.5t-70 -116.5t-99.5 -97.5h-116v12q114 90 165 206.5t51 258.5t-51 259.5t-165 209.5v11h116z" />
    <glyph glyph-name="asterisk" unicode="*" horiz-adv-x="442" 
d="M279 511l130 -47l-25 -46h-2l-25 -43l-107 89l23 -139h-103l23 139l-109 -89l-25 45l-25 44l132 50l-132 50l27 43l25 45l109 -91l-22 139h102l-23 -139l107 89l25 -43v-2l25 -44z" />
    <glyph glyph-name="plus" unicode="+" horiz-adv-x="547" 
d="M516 409v-120h-184v-182h-120v182h-182v120h182v184h120v-184h184z" />
    <glyph glyph-name="comma" unicode="," horiz-adv-x="186" 
d="M92 134q29 0 48.5 -19.5t19.5 -48.5v-66q0 -11 -3 -25t-9.5 -26t-18.5 -20.5t-30 -8.5h-16v32q8 4 16.5 10.5t8.5 17.5v20h-16q-27 0 -47.5 19.5t-20.5 46.5q0 29 20.5 48.5t47.5 19.5z" />
    <glyph glyph-name="hyphen" unicode="-" horiz-adv-x="535" 
d="M24 289v120h486v-120h-486z" />
    <glyph glyph-name="period" unicode="." horiz-adv-x="183" 
d="M92 134q28 0 47 -19.5t19 -48.5q0 -27 -19 -46.5t-47 -19.5q-29 0 -48.5 19.5t-19.5 46.5q0 29 19.5 48.5t48.5 19.5z" />
    <glyph glyph-name="slash" unicode="/" horiz-adv-x="373" 
d="M350 700l-200 -700h-127l202 700h125z" />
    <glyph glyph-name="zero" unicode="0" horiz-adv-x="650" 
d="M343 700q53 0 99.5 -20t81.5 -54.5t55.5 -81t20.5 -99.5v-190q0 -52 -20.5 -98.5t-55.5 -81t-81.5 -55t-99.5 -20.5h-36q-53 0 -99.5 20.5t-81.5 55t-55.5 81t-20.5 98.5v190q0 53 20.5 99.5t55.5 81t81.5 54.5t99.5 20h36zM307 577q-27 0 -51.5 -10.5t-43 -28.5t-29 -42
t-10.5 -51v-190q0 -27 10.5 -51t29 -42t43 -28.5t51.5 -10.5h36q27 0 51.5 10.5t43 28.5t29 42t10.5 51v190q0 27 -10.5 51t-29 42t-43 28.5t-51.5 10.5h-36z" />
    <glyph glyph-name="one" unicode="1" horiz-adv-x="339" 
d="M156 559l-102 -27l-32 116l134 36l61 16h62v-700h-123v559z" />
    <glyph glyph-name="two" unicode="2" horiz-adv-x="639" 
d="M590 120v-120h-543v118q0 48 18.5 90t50 73.5t74.5 50t91 18.5h77q23 0 43.5 9t35.5 24t24 35t9 43v7q0 23 -9 43t-24 35t-35.5 24t-43.5 9h-77q-23 0 -43 -9t-35 -24t-24 -35t-9 -43v5h-123q1 47 19.5 88.5t50.5 72t74 48.5t90 18h77q48 0 90.5 -18.5t74 -50t49.5 -73.5
t18 -90v-7q0 -48 -18 -90t-49.5 -73.5t-74 -49.5t-90.5 -18h-77q-23 0 -43 -8.5t-35 -23.5t-23.5 -35t-9.5 -42z" />
    <glyph glyph-name="three" unicode="3" horiz-adv-x="608" 
d="M441 366q29 -6 51.5 -22.5t38.5 -39t24 -48.5t8 -51q0 -42 -16 -79.5t-43.5 -65t-65 -44t-79.5 -16.5h-316v121h316q34 0 59 24.5t25 59.5q0 18 -7 33t-18.5 26.5t-26.5 18t-32 6.5h-234v122h202q36 0 60 24.5t24 59.5t-24 60t-60 25h-284v120h284q43 0 80.5 -16
t65.5 -43.5t44.5 -65t16.5 -80.5q0 -19 -6 -38t-17.5 -36.5t-29 -31.5t-40.5 -23z" />
    <glyph glyph-name="four" unicode="4" horiz-adv-x="605" 
d="M163 273h205v247zM568 164h-80v-164h-120v164h-339v109l345 427h114v-427h80v-109z" />
    <glyph glyph-name="five" unicode="5" horiz-adv-x="620" 
d="M340 120q24 0 45 9t36 25t24 36.5t9 43.5v14q0 24 -9 44.5t-24 35.5t-36 24t-45 9h-57q-26 0 -47.5 -11t-38.5 -30l-148 19l27 361h455v-120h-341l-9 -121q24 14 47.5 19.5t54.5 5.5h57q31 0 59.5 -7.5t54.5 -21.5q54 -31 88 -86t34 -121v-14q0 -66 -34 -120.5t-88 -83.5
q-26 -14 -54.5 -22t-59.5 -8h-57q-31 0 -59 8t-52 22q-48 26 -80 70.5t-41 99.5h125q11 -34 40 -56.5t67 -22.5z" />
    <glyph glyph-name="six" unicode="6" horiz-adv-x="598" 
d="M285 457q13 8 34 11.5t45.5 2t50 -9t47.5 -22.5q45 -31 71.5 -81t26.5 -108v-20q0 -48 -18.5 -90t-50 -73.5t-73 -50t-88.5 -18.5h-61q-48 0 -90 18.5t-73.5 50t-50 73.5t-18.5 90v20q0 38 11 71t30 61l7 9l227 307h152zM185 320q-2 -3 -4.5 -5t-4.5 -6q-9 -12 -12.5 -27
t-3.5 -32v-20q0 -47 31 -78.5t78 -31.5h61q22 0 42 8.5t35 23.5t23.5 35t8.5 43v20q0 23 -8.5 43t-23.5 34.5t-35 23t-42 8.5h-61q-26 0 -47.5 -11t-36.5 -28z" />
    <glyph glyph-name="seven" unicode="7" horiz-adv-x="548" 
d="M378 577h-357v121h498v-121l-271 -579h-136z" />
    <glyph glyph-name="eight" unicode="8" horiz-adv-x="641" 
d="M44 205q0 25 8.5 52.5t24 52t38.5 43t52 24.5q-23 9 -40.5 23t-29 31.5t-17.5 37t-6 38.5q0 42 16.5 77.5t44.5 61t65.5 40t79.5 14.5h78q42 0 79.5 -14.5t65.5 -40t44.5 -61t16.5 -77.5q0 -19 -6 -38.5t-17.5 -37t-29 -31.5t-40.5 -23q29 -6 52.5 -24.5t39.5 -43
t24.5 -52t8.5 -52.5q0 -42 -16.5 -79.5t-44.5 -65t-65.5 -44t-80.5 -16.5h-140q-43 0 -80 16.5t-65 44t-44 65t-16 79.5zM390 121q34 0 59 24.5t25 59.5q0 18 -7 35t-18.5 30.5t-26.5 21.5t-32 8h-141q-17 0 -32.5 -8t-27 -21.5t-18 -30.5t-6.5 -35q0 -35 24.5 -59.5
t59.5 -24.5h141zM358 423q18 0 33 6.5t26.5 18t18 27t6.5 32.5t-6.5 32t-18 26.5t-26.5 18.5t-33 7h-78q-34 0 -59 -25t-25 -59q0 -35 25 -59.5t59 -24.5h78z" />
    <glyph glyph-name="nine" unicode="9" horiz-adv-x="598" 
d="M313 241q-13 -7 -34 -10.5t-45.5 -2.5t-50 8.5t-47.5 22.5q-45 31 -71.5 80.5t-26.5 108.5v22q0 47 18.5 88.5t50 73t73.5 50t90 18.5h59q48 0 90 -18.5t73.5 -50t50 -73t18.5 -88.5v-22q0 -36 -11 -69.5t-30 -62.5l-7 -9l-227 -307h-150zM413 380q5 2 9 9q16 26 16 59
v22q0 23 -8.5 43t-23 35t-34.5 23.5t-43 8.5h-59q-23 0 -43.5 -8.5t-35.5 -23.5t-24 -35t-9 -43v-22q0 -22 9 -42t24 -35t35.5 -23.5t43.5 -8.5h59q26 0 47.5 11t36.5 30z" />
    <glyph glyph-name="colon" unicode=":" horiz-adv-x="203" 
d="M102 411q-29 0 -48.5 20.5t-19.5 48.5q0 27 19.5 47.5t48.5 20.5q28 0 47 -20.5t19 -47.5q0 -28 -19 -48.5t-47 -20.5zM102 134q28 0 47 -19.5t19 -48.5q0 -27 -19 -46.5t-47 -19.5q-29 0 -48.5 19.5t-19.5 46.5q0 29 19.5 48.5t48.5 19.5z" />
    <glyph glyph-name="semicolon" unicode=";" horiz-adv-x="206" 
d="M102 407q-28 0 -48 19.5t-20 48.5t20 48.5t48 19.5q29 0 48.5 -19.5t19.5 -48.5t-19.5 -48.5t-48.5 -19.5zM102 130q29 0 48.5 -19.5t19.5 -46.5v-68q0 -11 -3 -25t-9.5 -26t-18.5 -20.5t-30 -8.5h-16v32q8 3 16.5 11t8.5 16v23q-4 -2 -16 -2q-27 0 -47.5 19.5
t-20.5 48.5q0 27 20.5 46.5t47.5 19.5z" />
    <glyph glyph-name="less" unicode="&#x3c;" horiz-adv-x="460" 
d="M147 350l296 -193h-223l-184 120v146l184 120h223z" />
    <glyph glyph-name="equal" unicode="=" horiz-adv-x="539" 
d="M35 173v120h468v-120h-468zM35 405v120h468v-120h-468z" />
    <glyph glyph-name="greater" unicode="&#x3e;" horiz-adv-x="460" 
d="M424 423v-146l-184 -120h-223l295 193l-295 193h223z" />
    <glyph glyph-name="question" unicode="?" horiz-adv-x="547" 
d="M269 134q28 0 48 -19.5t20 -48.5q0 -27 -20 -46.5t-48 -19.5q-29 0 -48.5 19.5t-19.5 46.5q0 29 19.5 48.5t48.5 19.5zM274 700q58 0 102.5 -17t75 -45.5t46 -65.5t15.5 -77t-16 -79.5t-50 -72.5q-20 -19 -40.5 -31.5t-37.5 -25t-27.5 -27t-10.5 -36.5v-30h-123v7v8v6
q0 33 10.5 60.5t28 49t39 38.5t42.5 29q44 25 57 60t2.5 66.5t-41 52.5t-75.5 19q-53 -4 -88.5 -38t-35.5 -94h-121q0 48 15 91.5t46 77.5t77.5 54t109.5 20z" />
    <glyph glyph-name="at" unicode="@" horiz-adv-x="999" 
d="M675 677q77 -19 132.5 -68.5t90 -115.5t48.5 -140.5t7.5 -144.5t-33 -128.5t-72.5 -90.5q-31 -23 -67 -29t-72 8q-39 14 -62.5 45.5t-28.5 72.5v7l-4 -4q-28 -26 -69 -40.5t-79 -14.5h-21q-23 0 -45 6t-41 17q-51 31 -75 85t-20 112q2 35 15 69t34 62.5t50 50t64 30.5
q12 3 24 5t24 2h35.5t39 -2t38 -6t32.5 -13q16 -8 28.5 -22t24.5 -28q17 -20 24.5 -47.5t11.5 -54.5q5 -35 5 -71v-70q0 -42 11 -65t26.5 -29.5t31.5 2.5t26 31q19 38 27.5 84t6.5 94t-15 95t-38 87t-61.5 69t-85.5 41q-48 12 -99.5 11.5t-102.5 -2.5q-69 0 -121 -31.5
t-86.5 -82t-52.5 -113.5t-20.5 -125.5t11.5 -118.5t42 -92q35 -45 87.5 -69t109.5 -31q28 -2 57.5 -1t58.5 1q26 2 56 5t58 10l13 -86q-22 -11 -50 -17t-57 -8.5t-58 -3t-53 -0.5q-63 0 -124 18.5t-112 53.5q-48 35 -83.5 81t-52.5 103q-19 62 -20.5 132t14.5 139t49 132.5
t82 112.5t114 78t145 29q60 2 116.5 0t110.5 -16zM623 266q2 26 -6.5 48.5t-24.5 39.5t-38.5 27t-49.5 10q-25 0 -48.5 -10t-42 -27t-30 -39.5t-13.5 -48.5l-2 -23q-1 -26 7.5 -49t24.5 -40.5t38.5 -27.5t47.5 -10q26 0 49.5 10t41.5 27t30 40t13 48z" />
    <glyph glyph-name="A" unicode="A" horiz-adv-x="726" 
d="M447 699q71 -180 129 -327q25 -63 49 -125t44.5 -113.5t34.5 -87.5t18 -47h-132l-62 158h-331l-61 -158h-132l277 700h166zM479 279l-117 295l-115 -295h232z" />
    <glyph glyph-name="B" unicode="B" horiz-adv-x="749" 
d="M501 121q34 0 59 24.5t25 59.5q0 34 -25 59t-59 25h-320v-168h320zM181 409h320q34 0 59 25t25 59q0 36 -25 60t-59 24h-320v-168zM708 493q0 -41 -17 -78.5t-45 -64.5q28 -29 45 -66t17 -79q0 -43 -16.5 -80t-44.5 -65t-66 -44t-80 -16h-441v700h441q43 0 80.5 -16.5
t65.5 -44.5t44.5 -65.5t16.5 -80.5z" />
    <glyph glyph-name="C" unicode="C" horiz-adv-x="771" 
d="M610 461q-29 59 -86.5 94.5t-127.5 35.5q-49 0 -93 -19t-77 -52t-52 -76.5t-19 -93.5t19 -94t52 -76.5t77 -51.5t93 -19q70 0 127.5 35.5t86.5 94.5h136q-17 -52 -49 -96t-75.5 -75.5t-96.5 -49.5t-111 -18h-36q-72 0 -136 27.5t-111.5 75t-75 111.5t-27.5 136
t27.5 135.5t75 111t111.5 75.5t136 28h36q58 0 111 -18t96.5 -49.5t76 -75.5t50.5 -96h-138z" />
    <glyph glyph-name="D" unicode="D" horiz-adv-x="765" 
d="M612 377q0 42 -16 78.5t-43 63.5t-63.5 42.5t-77.5 15.5h-229v-457h229q41 0 77.5 16t63.5 43t43 63.5t16 77.5v57zM60 700h352q67 0 125.5 -25.5t102 -69.5t68.5 -102.5t25 -125.5v-57q0 -66 -25 -124.5t-68.5 -102t-102 -68.5t-125.5 -25h-352v577v123z" />
    <glyph glyph-name="E" unicode="E" horiz-adv-x="655" 
d="M621 700v-123h-441v-168h375v-120h-375v-169h441v-120h-561v700h561z" />
    <glyph glyph-name="F" unicode="F" horiz-adv-x="637" 
d="M60 700h561v-123h-441v-168h375v-120h-375v-289h-120v700z" />
    <glyph glyph-name="G" unicode="G" horiz-adv-x="770" 
d="M152 321q0 -41 16 -77.5t43.5 -63.5t64.5 -43t79 -16h241v168h-223v120h343v-409h-361q-67 0 -125.5 25t-102.5 68.5t-69.5 102t-25.5 125.5v56q0 67 25.5 125.5t69.5 102.5t102.5 69.5t125.5 25.5h361v-123h-361q-42 0 -79 -15.5t-64.5 -42.5t-43.5 -63.5t-16 -78.5v-56
z" />
    <glyph glyph-name="H" unicode="H" horiz-adv-x="741" 
d="M60 0v700h120v-291h378v291h123v-700h-123v289h-377v-289h-121z" />
    <glyph glyph-name="I" unicode="I" horiz-adv-x="243" 
d="M60 0v700h123v-700h-123z" />
    <glyph glyph-name="J" unicode="J" horiz-adv-x="610" 
d="M6 0v121h309q25 0 47 9.5t39 26t27 39t10 47.5v457h120v-457q0 -50 -19 -94.5t-52 -77.5t-77.5 -52t-94.5 -19h-309z" />
    <glyph glyph-name="K" unicode="K" horiz-adv-x="708" 
d="M180 348l353 352h170l-350 -352l350 -348h-172zM60 700h120v-700h-120v700z" />
    <glyph glyph-name="L" unicode="L" horiz-adv-x="621" 
d="M60 700h123v-579h432v-121h-555v700z" />
    <glyph glyph-name="M" unicode="M" horiz-adv-x="825" 
d="M183 543v-543h-123v700h168l184 -302l187 302h166v-700h-123v543l-200 -329h-59z" />
    <glyph glyph-name="N" unicode="N" horiz-adv-x="766" 
d="M183 532v-532h-123v700h152l371 -527v527h123v-700h-150z" />
    <glyph glyph-name="O" unicode="O" horiz-adv-x="794" 
d="M417 700q72 0 135.5 -28t111 -75.5t75.5 -111t28 -135.5t-28 -136t-75.5 -111.5t-111 -75t-135.5 -27.5h-39q-72 0 -136 27.5t-111.5 75t-75 111.5t-27.5 136t27.5 135.5t75 111t111.5 75.5t136 28h39zM637 350q0 50 -19 93.5t-51.5 76.5t-76.5 52t-94 19q-49 0 -93 -19
t-77 -52t-52 -76.5t-19 -93.5t19 -94t52 -76.5t77 -51.5t93 -19q50 0 94 19t76.5 51.5t51.5 76.5t19 94z" />
    <glyph glyph-name="P" unicode="P" horiz-adv-x="727" 
d="M60 0v700h409q49 0 92 -18.5t75 -51t50.5 -75.5t18.5 -91q0 -49 -18.5 -92t-50.5 -75t-75 -51t-92 -19h-286v-227h-123zM469 348q23 0 43.5 9t36.5 25t25 37t9 45t-9 44.5t-25 35.5t-36.5 24t-43.5 9h-286v-229h286z" />
    <glyph glyph-name="Q" unicode="Q" horiz-adv-x="799" 
d="M416 700q72 0 135.5 -28t111 -75.5t75.5 -111t28 -135.5q0 -69 -24.5 -128.5t-66.5 -105.5l91 -109h-155l-30 34q-74 -41 -165 -41h-39q-72 0 -135.5 27.5t-111 75t-75.5 111.5t-28 136t28 135.5t75.5 111t111 75.5t135.5 28h39zM434 223l93 75l68 -84q20 29 31.5 63.5
t11.5 72.5q0 50 -19 93.5t-52 76.5t-77.5 52t-94.5 19q-49 0 -93 -19t-77 -52t-52 -76.5t-19 -93.5t19 -94t52 -76.5t77 -51.5t93 -19q31 0 58 6.5t53 18.5z" />
    <glyph glyph-name="R" unicode="R" horiz-adv-x="732" 
d="M700 0h-159l-189 225h-173v-225h-120v698h407q48 0 91 -18.5t75.5 -51t51 -75.5t18.5 -92q0 -66 -33.5 -121t-86.5 -85q-37 -19 -75 -25l193 -230v0zM179 577v-229h287q24 0 45 9t36.5 24t25 35.5t9.5 44.5t-9.5 45t-25 37t-36.5 25t-45 9h-287z" />
    <glyph glyph-name="S" unicode="S" horiz-adv-x="692" 
d="M512 511q-9 19 -30.5 31t-47.5 19t-52.5 10t-44.5 4q-29 0 -63 -5.5t-60 -17.5q-14 -5 -28.5 -17.5t-14.5 -29.5q0 -12 10.5 -23t21.5 -18q19 -11 41.5 -16.5t42.5 -8.5q28 -6 56 -10t56 -8.5t56 -10t55 -15.5q51 -16 85 -45t51.5 -64t18.5 -73t-14.5 -74t-48.5 -66
t-83 -48q-38 -14 -83.5 -19.5t-85.5 -5.5q-46 0 -101.5 10.5t-104 35t-81.5 64t-33 97.5v4h127v-4q0 -22 24 -38t56.5 -26t64.5 -14.5t48 -3.5q28 0 60.5 2.5t58.5 11.5q38 14 54.5 33.5t13.5 39.5t-23.5 38.5t-56.5 29.5q-45 14 -92.5 18.5t-93.5 12.5q-31 7 -61.5 17
t-59.5 22q-30 14 -53 35t-37.5 47.5t-17.5 57t8 62.5q16 43 50 71t75 45q36 14 77 22t80 8q38 0 81 -6t83.5 -20.5t74 -38.5t52.5 -60z" />
    <glyph glyph-name="T" unicode="T" horiz-adv-x="658" 
d="M267 577h-261v121h645v-121h-261v-577h-123v577z" />
    <glyph glyph-name="U" unicode="U" horiz-adv-x="736" 
d="M166 700v-379q0 -41 16 -77.5t43.5 -63.5t64.5 -43t79 -16q41 0 77.5 16t63.5 43t43 63.5t16 77.5v379h120v-379q0 -67 -25 -125.5t-68.5 -102t-102 -68.5t-124.5 -25q-67 0 -125.5 25t-102.5 68.5t-69.5 102t-25.5 125.5v379h120z" />
    <glyph glyph-name="V" unicode="V" horiz-adv-x="720" 
d="M279 0l-277 700h130l229 -577l227 577h130l-275 -700h-164z" />
    <glyph glyph-name="W" unicode="W" horiz-adv-x="1006" 
d="M134 700l168 -570l139 570h125l139 -570l166 570h127l-205 -700h-184l-107 441l-106 -441h-182l-207 700h127z" />
    <glyph glyph-name="X" unicode="X" horiz-adv-x="729" 
d="M723 0h-157l-202 252l-203 -252h-154l279 350l-279 350h154l203 -252l202 252h157l-282 -350z" />
    <glyph glyph-name="Y" unicode="Y" horiz-adv-x="699" 
d="M703 698l-293 -407v-291h-121v291l-293 407h150l205 -284l202 284h150z" />
    <glyph glyph-name="Z" unicode="Z" horiz-adv-x="678" 
d="M170 121h477v-121h-616v161l477 416h-477v123h616v-161z" />
    <glyph glyph-name="bracketleft" unicode="[" horiz-adv-x="328" 
d="M185 614v-784h125v-87h-250v957h250v-86h-125z" />
    <glyph glyph-name="backslash" unicode="\" horiz-adv-x="374" 
d="M349 0h-125l-202 700h127z" />
    <glyph glyph-name="bracketright" unicode="]" horiz-adv-x="326" 
d="M18 700h248v-957h-248v87h125v784h-125v86z" />
    <glyph glyph-name="asciicircum" unicode="^" horiz-adv-x="465" 
d="M427 527v-204l-194 275l-195 -275v204l123 173h145z" />
    <glyph glyph-name="underscore" unicode="_" horiz-adv-x="721" 
d="M60 -123v123h600v-123h-600z" />
    <glyph glyph-name="grave" unicode="`" horiz-adv-x="201" 
d="M178 559h-72l-89 141h107z" />
    <glyph glyph-name="a" unicode="a" horiz-adv-x="663" 
d="M607 543v-544h-124v92q-34 -43 -80.5 -67.5t-100.5 -24.5h-27q-50 0 -94.5 21.5t-77.5 58t-52.5 86t-19.5 106.5q0 56 19.5 105.5t52.5 86.5t77.5 58.5t94.5 21.5h27q54 0 100.5 -25.5t80.5 -68.5v94h124zM470 286q0 31 -12 58t-32.5 47.5t-48 32.5t-57.5 12
q-31 0 -59 -12t-49 -32.5t-33 -47.5t-12 -58v-29q0 -31 12 -58.5t33 -48t49 -32.5t59 -12q30 0 57.5 12t48 32.5t32.5 48t12 58.5v29z" />
    <glyph glyph-name="b" unicode="b" horiz-adv-x="661" 
d="M386 543q50 0 94.5 -21.5t77.5 -58.5t52 -86.5t19 -105.5q0 -57 -19 -106t-52 -86t-77.5 -58t-94.5 -21h-25q-54 0 -102 24t-80 67v-91h-123v786h123v-337q32 43 80 68.5t102 25.5h25zM493 286q0 31 -12 58t-32.5 47.5t-47.5 32.5t-58 12t-58 -12t-47.5 -32.5
t-32.5 -47.5t-12 -58v-29q0 -31 12 -58.5t32.5 -48t47.5 -32.5t58 -12t58 12t47.5 32.5t32.5 48t12 58.5v29z" />
    <glyph glyph-name="c" unicode="c" horiz-adv-x="618" 
d="M591 193q-13 -42 -38 -77t-59 -61t-75.5 -40.5t-86.5 -14.5h-29q-56 0 -106 21.5t-87 58t-58.5 86t-21.5 105.5t21.5 105.5t58.5 86.5t87 58.5t106 21.5h29q45 0 86.5 -14.5t75.5 -40t59 -61t38 -77.5h-138q-17 38 -53.5 62.5t-83.5 24.5q-30 0 -57.5 -12t-48 -32.5
t-32.5 -48t-12 -57.5v-30q0 -31 12 -58t32.5 -47.5t48 -32.5t57.5 -12q47 0 83.5 23.5t53.5 62.5h138z" />
    <glyph glyph-name="d" unicode="d" horiz-adv-x="660" 
d="M603 786v-786h-122v91q-33 -43 -80 -67t-102 -24h-25q-50 0 -94.5 21t-77.5 58t-52 86t-19 106q0 56 19 105.5t52 86.5t77.5 58.5t94.5 21.5h25q55 0 102 -25.5t80 -68.5v337h122zM467 286q0 31 -12 58t-32.5 47.5t-47.5 32.5t-58 12t-58 -12t-47.5 -32.5t-32.5 -47.5
t-12 -58v-29q0 -31 12 -58.5t32.5 -48t47.5 -32.5t58 -12t58 12t47.5 32.5t32.5 48t12 58.5v29z" />
    <glyph glyph-name="e" unicode="e" horiz-adv-x="630" 
d="M602 270q0 -11 -1.5 -22t-3.5 -23h-438q5 -25 20 -47t36 -37.5t47 -24.5t53 -9q36 0 71.5 15.5t56.5 41.5h136q-15 -36 -40.5 -66t-58 -52t-71 -34t-80.5 -12h-27q-56 0 -106 21t-87 57.5t-58.5 86t-21.5 105.5t21.5 106t58.5 87t87 58.5t106 21.5h27q56 0 106 -21.5
t87 -58.5t58.5 -87t21.5 -106zM472 316q-5 26 -20 47.5t-36 38t-47.5 25.5t-53.5 9t-53 -9t-47.5 -25.5t-37 -38t-21.5 -47.5h316z" />
    <glyph glyph-name="f" unicode="f" horiz-adv-x="345" 
d="M285 664q-26 0 -41.5 -6t-23.5 -18t-10 -30t-2 -42v-25h123v-123h-123v-420h-121v420h-61v123h61v62v25q9 51 41 89.5t80 55.5q28 11 61 11h91v-122h-75z" />
    <glyph glyph-name="g" unicode="g" horiz-adv-x="660" 
d="M317 -136q31 0 58 10.5t48.5 28.5t36.5 43t21 54q0 7 1 14t1 16v61q-29 -36 -68.5 -60t-85.5 -31h-82q-48 7 -88 32.5t-68.5 62.5t-44 82.5t-15.5 92.5q0 56 19 106t52 87t77.5 58.5t94.5 21.5h27q54 0 101 -25t81 -68v93h121v-543q-6 -54 -31 -100.5t-64 -81.5
t-88.5 -55t-103.5 -20q-47 0 -90 14.5t-78.5 41t-61.5 62.5t-40 80h132q22 -35 59 -56t79 -21zM317 107q33 0 60.5 11.5t47.5 31.5t31 47.5t11 59.5v29q0 31 -11.5 58.5t-32 47.5t-47.5 32t-59 12q-31 0 -58 -12t-47.5 -32.5t-32.5 -48t-12 -57.5v-29q0 -30 12 -57.5
t32.5 -48t47.5 -32.5t58 -12z" />
    <glyph glyph-name="h" unicode="h" 
d="M452 286q0 31 -11 58t-29.5 47.5t-43.5 32.5t-53 12t-53 -12t-43.5 -32.5t-29 -47.5t-10.5 -58v-286h-123v786h109v-336q31 43 73.5 68t92.5 25h23q45 0 85 -21.5t70 -58.5t47.5 -87t17.5 -106v-270h-123v286h1z" />
    <glyph glyph-name="i" unicode="i" horiz-adv-x="235" 
d="M117 786q33 0 55.5 -22.5t22.5 -54.5t-22.5 -54.5t-55.5 -22.5q-32 0 -54.5 22.5t-22.5 54.5t22.5 54.5t54.5 22.5zM56 543h123v-543h-123v543z" />
    <glyph glyph-name="j" unicode="j" horiz-adv-x="235" 
d="M-21 -136q26 0 41.5 6.5t23.5 18.5t10 30t2 42v582h123v-618q0 -7 -1 -12.5t-1 -12.5q-8 -39 -25 -70q-17 -26 -42 -45.5t-54 -29.5q-14 -5 -29 -8.5t-32 -3.5h-91v121h75zM118 786q32 0 54.5 -22.5t22.5 -54.5t-22.5 -54.5t-54.5 -22.5q-33 0 -55.5 22.5t-22.5 54.5
t22.5 54.5t55.5 22.5z" />
    <glyph glyph-name="k" unicode="k" horiz-adv-x="597" 
d="M56 786h120v-516l246 -270h163l-245 270l245 273h-163l-246 -273v-270h-120v786z" />
    <glyph glyph-name="l" unicode="l" horiz-adv-x="235" 
d="M56 0v786h123v-786h-123z" />
    <glyph glyph-name="m" unicode="m" horiz-adv-x="973" 
d="M518 416q5 8 10.5 17.5t10.5 16.5q31 43 69 68t86 25h25q45 0 83.5 -21.5t66 -58.5t43.5 -87t16 -106v-270h-123v286q0 31 -9.5 58t-26 47.5t-40 32.5t-51.5 12q-27 0 -50 -12t-39.5 -32.5t-26 -47.5t-9.5 -58v-286h-123v286q0 51 -18.5 83.5t-46.5 47.5t-61 13.5
t-61 -19t-46.5 -49t-18.5 -76.5v-286h-121l-2 543h123v-75q40 47 89 65t96.5 9.5t89 -40.5t65.5 -86z" />
    <glyph glyph-name="n" unicode="n" 
d="M56 543h120v-77q31 36 70.5 56.5t84.5 20.5h23q45 0 85 -21.5t70 -58.5t47.5 -87t17.5 -106v-270h-123v286q0 31 -10.5 58t-29 47.5t-43.5 32.5t-53 12t-53 -12t-43.5 -32.5t-29 -47.5t-10.5 -58v-16v-27.5v-52.5v-63.5v-61.5t-1 -46.5t-2 -18.5h-120v543z" />
    <glyph glyph-name="o" unicode="o" horiz-adv-x="631" 
d="M331 543q56 0 105 -21.5t86 -58.5t58.5 -87t21.5 -106t-21.5 -105.5t-58.5 -86t-86 -57.5t-105 -21h-29q-56 0 -106 21t-87 57.5t-58.5 86t-21.5 105.5t21.5 106t58.5 87t87 58.5t106 21.5h29zM486 270q0 37 -13.5 69.5t-36.5 56.5t-53.5 38t-64.5 14q-36 0 -67 -14
t-54.5 -38t-36.5 -56.5t-13 -69.5q0 -36 13 -68t36.5 -56t54.5 -38.5t67 -14.5q34 0 64.5 14.5t53.5 38.5t36.5 56t13.5 68z" />
    <glyph glyph-name="p" unicode="p" horiz-adv-x="660" 
d="M386 543q50 0 94 -21.5t77 -58.5t52 -86.5t19 -105.5q0 -57 -19 -106.5t-52 -86t-77 -58t-94 -21.5h-28q-53 0 -100 24.5t-82 67.5v-348h-120v800h120v-94q35 43 82 68.5t100 25.5h28zM492 286q0 31 -12 58t-32.5 47.5t-47.5 32.5t-58 12t-58.5 -12t-48 -32.5t-32 -47.5
t-11.5 -58v-29q0 -31 11.5 -58.5t32 -48t48 -32.5t58.5 -12t58 12t47.5 32.5t32.5 48t12 58.5v29z" />
    <glyph glyph-name="q" unicode="q" horiz-adv-x="660" 
d="M603 543v-800h-122v348q-32 -43 -79.5 -67.5t-102.5 -24.5h-25q-50 0 -94.5 21.5t-77.5 58t-52 86t-19 106.5q0 56 19 105.5t52 86.5t77.5 58.5t94.5 21.5h25q55 0 102.5 -25.5t79.5 -68.5v94h122zM467 286q0 31 -12 58t-32.5 47.5t-47.5 32.5t-58 12t-58.5 -12
t-48 -32.5t-32 -47.5t-11.5 -58v-29q0 -31 11.5 -58.5t32 -48t48 -32.5t58.5 -12t58 12t47.5 32.5t32.5 48t12 58.5v29z" />
    <glyph glyph-name="r" unicode="r" horiz-adv-x="407" 
d="M56 543h123v-77q29 36 68 56.5t84 20.5h61v-125q-32 10 -69 6.5t-68.5 -20.5t-52.5 -46.5t-21 -71.5v-32.5v-56.5v-66.5t-0.5 -63.5t-0.5 -48t-1 -19h-123v543z" />
    <glyph glyph-name="s" unicode="s" horiz-adv-x="559" 
d="M282 89q50 2 80 12.5t45 32.5q11 17 -1 34t-44 27q-35 11 -70.5 13.5t-70.5 9.5q-24 5 -46.5 12t-44.5 18q-25 11 -44.5 28t-31 38.5t-13.5 46.5t7 50q12 35 40 57.5t60 36.5q27 11 58 16.5t62 5.5q30 0 64 -4.5t65.5 -16t58.5 -31t42 -48.5l2 -4l-102 -55l-2 7
q-7 15 -26.5 25t-35.5 14q-17 4 -41.5 5.5t-49.5 -1.5t-46.5 -10.5t-32.5 -21.5q-2 -3 -3.5 -6.5t-1.5 -6.5q0 -7 6.5 -13t11.5 -8q14 -8 30 -12.5t30 -7.5q42 -9 84.5 -13.5t85.5 -18.5q60 -19 90.5 -60t32 -86.5t-28 -87.5t-89.5 -64q-29 -10 -63.5 -14t-66.5 -4
q-37 0 -80.5 8.5t-81 28t-63 51t-25.5 76.5v7h116v-7q0 -13 12.5 -23.5t32 -18t43.5 -12t46 -5.5z" />
    <glyph glyph-name="t" unicode="t" horiz-adv-x="381" 
d="M108 86q-10 16 -15.5 33t-9.5 36q-2 7 -2 13.5v13.5v261h-59v100h59v157h121v-157h122v-100h-122v-227q0 -23 2 -41t10 -30t23 -18.5t42 -6.5h77v-120h-93q-16 0 -31 2t-30 7q-58 21 -94 77z" />
    <glyph glyph-name="u" unicode="u" 
d="M562 0h-123v77q-29 -35 -68 -56t-84 -21h-25q-45 0 -84.5 21t-69.5 57.5t-47 86t-17 105.5v273h123v-286q0 -31 10.5 -58t29 -47.5t43.5 -32.5t53 -12q27 0 51.5 12t43 32.5t29 47.5t10.5 58v13v29v53v64t0.5 62t0.5 46.5t1 18.5h123v-543z" />
    <glyph glyph-name="v" unicode="v" horiz-adv-x="607" 
d="M8 543h130l165 -418l166 418h130l-214 -543h-163z" />
    <glyph glyph-name="w" unicode="w" horiz-adv-x="845" 
d="M359 543h129l107 -382l109 382h130l-173 -543h-129l-110 382l-109 -382h-129l-173 543h130l109 -382z" />
    <glyph glyph-name="x" unicode="x" horiz-adv-x="595" 
d="M12 543h155l131 -179l130 179h154l-206 -273l206 -270h-154l-130 177l-131 -177h-155l209 270z" />
    <glyph glyph-name="y" unicode="y" horiz-adv-x="607" 
d="M599 543l-216 -543l-100 -257h-132l87 216l-230 584h130l165 -418l166 418h130z" />
    <glyph glyph-name="z" unicode="z" horiz-adv-x="548" 
d="M512 0h-477v123l314 297h-314v123h477v-125l-313 -298h313v-120z" />
    <glyph glyph-name="braceleft" unicode="{" horiz-adv-x="350" 
d="M340 689q-26 -14 -46.5 -28.5t-34.5 -33t-21.5 -41.5t-8.5 -54q-2 -31 -2.5 -56t-0.5 -49t0.5 -49t0.5 -58q0 -12 -6 -27.5t-17.5 -30t-27.5 -26t-36 -16.5q20 -3 36 -14.5t27.5 -26.5t17.5 -31t6 -28q0 -31 -0.5 -56t-0.5 -48.5t0.5 -48.5t2.5 -56q1 -31 8.5 -54.5
t21.5 -42t34.5 -33.5t46.5 -29v-9h-91q-24 12 -47.5 29t-42 38.5t-31 47t-13.5 53.5q-1 33 -1.5 59t-0.5 50.5v51v60.5q0 16 -7.5 27.5t-19.5 20t-27 13t-30 7.5v43q15 3 30 7.5t27 13t19.5 20t7.5 27.5v59.5v51t0.5 51t1.5 59.5q1 28 13.5 53t31 46.5t42 38.5t47.5 30h91
v-11z" />
    <glyph glyph-name="bar" unicode="|" horiz-adv-x="243" 
d="M60 -257v957h123v-957h-123z" />
    <glyph glyph-name="braceright" unicode="}" horiz-adv-x="350" 
d="M236 311q0 -16 7.5 -27.5t19.5 -20t27 -13t30 -7.5v-43q-15 -3 -30 -7.5t-27 -13t-19.5 -20t-7.5 -27.5q0 -34 0.5 -60.5t0.5 -51t-0.5 -50.5t-2.5 -59q-1 -28 -13 -53.5t-31 -47t-42.5 -38.5t-47.5 -29h-91v9q53 28 81 63t30 96q2 32 2.5 57t0.5 48v48v57q0 12 6 27.5
t17.5 30.5t27.5 26.5t35 14.5q-19 5 -35 16.5t-27.5 26.5t-17.5 30t-6 27v58v49t-0.5 49t-2.5 56q-1 31 -8.5 54t-21.5 41.5t-34.5 33t-46.5 28.5v11h91q24 -13 47.5 -30t42.5 -38.5t31 -46.5t13 -53q2 -33 2.5 -59.5t0.5 -51t-0.5 -51t-0.5 -59.5z" />
    <glyph glyph-name="asciitilde" unicode="~" horiz-adv-x="596" 
d="M572 352q-58 -84 -150 -95q-35 -4 -65.5 5.5t-59.5 21.5q-25 12 -49 23t-48.5 15t-49.5 -2t-51 -29l-75 57q53 82 148 93q34 3 65 -5t60 -22q25 -12 49 -23t49 -14.5t50 3t52 29.5z" />
    <glyph glyph-name="uni00A0" unicode="&#xa0;" horiz-adv-x="399" 
 />
    <glyph glyph-name="exclamdown" unicode="&#xa1;" horiz-adv-x="221" 
d="M110 309q-29 0 -48.5 19.5t-19.5 46.5q0 29 19.5 48.5t48.5 19.5q28 0 48.5 -19.5t20.5 -48.5q0 -27 -20.5 -46.5t-48.5 -19.5zM172 250q1 -74 2 -135t2.5 -118.5t2.5 -118.5t2 -135h-141q1 74 2 135t2.5 118.5t2.5 118.5t2 135h123z" />
    <glyph glyph-name="cent" unicode="&#xa2;" horiz-adv-x="633" 
d="M323 98q45 0 81 24t53 62h139q-13 -42 -37.5 -77t-58.5 -61t-75.5 -40.5t-87.5 -14.5h-30h-18l-47 -164h-100l54 189q-35 16 -64 41.5t-50 58t-33 70t-12 78.5q0 56 21.5 105.5t58.5 86t86 57.5t104 21h30h7l47 166h100l-52 -184q57 -24 98.5 -69.5t58.5 -105.5h-139
q-8 19 -21 34t-29 27l-88 -304h4zM314 427q-30 -1 -56 -13.5t-45.5 -33t-30.5 -47t-11 -56.5v-29q0 -35 15.5 -65.5t41.5 -50.5z" />
    <glyph glyph-name="sterling" unicode="&#xa3;" horiz-adv-x="626" 
d="M267 284v-164h320v-120h-545v121h105v163h-105v123h105v48q0 54 14 99.5t41.5 77.5t67 50t90.5 18q50 0 83 -6t58 -17.5t44.5 -27t41.5 -35.5l-59 -100q-17 20 -43.5 37t-56.5 26.5t-60 8.5t-53.5 -17t-37 -49t-10.5 -88v-25h198v-123h-198z" />
    <glyph glyph-name="currency" unicode="&#xa4;" horiz-adv-x="631" 
d="M532 350q0 -36 -11.5 -68t-31.5 -59l111 -146h-156l-55 75q-15 -5 -31 -7t-33 -2h-20q-17 0 -34 2t-32 7l-54 -75h-155l111 146q-20 27 -31.5 59t-11.5 68t11.5 67.5t31.5 57.5l-111 145h155l54 -75q15 5 32 8.5t34 3.5h20q17 0 33 -3.5t31 -8.5l55 75h156l-111 -145
q20 -26 31.5 -57.5t11.5 -67.5zM314 227q26 0 48 9.5t39 26.5t26.5 39.5t9.5 47.5t-9.5 46.5t-26.5 38t-39 26t-48 9.5q-25 0 -46.5 -9.5t-38 -26t-26 -38t-9.5 -46.5t9.5 -47.5t26 -39.5t38 -26.5t46.5 -9.5z" />
    <glyph glyph-name="yen" unicode="&#xa5;" horiz-adv-x="717" 
d="M419 252h172v-66h-172v-63h172v-68h-172v-53h-121v53h-173v68h173v63h-173v66h173v41l-293 407h150l205 -284l202 284h150l-293 -407v-41z" />
    <glyph glyph-name="brokenbar" unicode="&#xa6;" horiz-adv-x="223" 
d="M50 332v368h123v-368h-123zM50 -257v368h123v-368h-123z" />
    <glyph glyph-name="section" unicode="&#xa7;" horiz-adv-x="501" 
d="M398 400q33 -28 47 -59t11 -61.5t-21 -59.5t-50 -54q26 -34 32 -71t-5 -70.5t-39 -60t-70 -39.5q-23 -7 -49 -9t-54 -2q-32 2 -64.5 10t-60.5 22v100q15 -8 36.5 -17t45.5 -16.5t48 -11.5t45 -1q25 3 41 16q21 15 24.5 37t-8.5 45q-12 20 -37.5 34.5t-56 27t-61 25.5
t-52.5 31q-32 27 -46 57.5t-11.5 61t21 59.5t50.5 54q-25 35 -31 72.5t4.5 71t38 60t70.5 39.5q46 11 102 11q32 -2 65 -10t60 -22v-100q-15 8 -36 17t-45 16t-48.5 10.5t-45.5 0.5q-22 0 -41 -14q-20 -16 -24 -37.5t8 -44.5q12 -20 38 -34.5t56.5 -27t61 -25.5t51.5 -31z
M312 218q32 19 40 48t-20 57q-11 13 -29 23t-38.5 18.5t-41 16.5t-36.5 17q-32 -19 -40 -48.5t19 -58.5q12 -12 30.5 -21.5t38.5 -18t40.5 -16.5t36.5 -17z" />
    <glyph glyph-name="dieresis" unicode="&#xa8;" horiz-adv-x="360" 
d="M88 550q-26 0 -45 18.5t-19 45.5q0 26 19 44.5t45 18.5t44.5 -18.5t18.5 -44.5q0 -27 -18.5 -45.5t-44.5 -18.5zM272 550q-26 0 -45 18.5t-19 45.5q0 26 19 44.5t45 18.5t44.5 -18.5t18.5 -44.5q0 -27 -18.5 -45.5t-44.5 -18.5z" />
    <glyph glyph-name="copyright" unicode="&#xa9;" horiz-adv-x="778" 
d="M393 214q39 0 71.5 20t49.5 52h77q-10 -29 -28.5 -53.5t-42.5 -42.5t-53.5 -28t-61.5 -10h-21q-41 0 -77 15.5t-63 42.5t-42.5 63t-15.5 77q0 40 15.5 75.5t42.5 62t63 42t77 15.5h21q32 0 61.5 -10t53.5 -28t42.5 -42.5t28.5 -53.5h-77q-17 33 -49.5 53t-71.5 20
q-27 0 -51.5 -10.5t-43 -29t-29 -43t-10.5 -51.5q0 -28 10.5 -53t29 -43.5t43 -29t51.5 -10.5zM636 595q48 -49 74 -112.5t26 -132.5q0 -70 -26 -134t-74 -114q-49 -48 -113 -74t-134 -26t-133 26t-113 74q-50 50 -76 114t-26 134q0 69 26 132.5t76 112.5q50 50 113 76.5
t133 26.5t134 -26.5t113 -76.5zM589 150q39 39 60.5 91t21.5 109t-21.5 107.5t-60.5 92.5q-40 39 -91.5 60.5t-108.5 21.5t-108 -21.5t-92 -60.5q-40 -42 -61 -92.5t-21 -107.5t21 -109t61 -91q41 -39 92 -60.5t108 -21.5t108.5 21.5t91.5 60.5z" />
    <glyph glyph-name="ordfeminine" unicode="&#xaa;" horiz-adv-x="422" 
d="M381 700v-330h-73v57q-21 -27 -49 -42t-62 -15h-16q-30 0 -56.5 13t-46.5 35t-31.5 52t-11.5 64t11.5 64.5t31.5 53t46.5 35.5t56.5 13h16q34 0 62 -15.5t49 -41.5v57h73zM299 543q0 38 -26.5 64.5t-64.5 26.5t-64.5 -26.5t-26.5 -64.5v-16q0 -38 26.5 -65.5t64.5 -27.5
t64.5 27.5t26.5 65.5v16z" />
    <glyph glyph-name="guillemotleft" unicode="&#xab;" 
d="M191 350l171 -193h-144l-195 193l73 73l122 120h144zM425 350l171 -193h-146l-193 193l73 73l120 120h146z" />
    <glyph glyph-name="uni00AD" unicode="&#xad;" horiz-adv-x="0" 
 />
    <glyph glyph-name="registered" unicode="&#xae;" horiz-adv-x="780" 
d="M586 411q0 -35 -18.5 -66.5t-49.5 -46.5q-16 -13 -41 -16l109 -127h-88l-107 125h-98v-126h-68v391h230q27 0 51 -10.5t41.5 -29t28 -43t10.5 -51.5zM455 348q27 0 45 18.5t18 44.5q0 28 -18 47t-45 19h-162v-129h162zM636 595q48 -49 75.5 -112.5t27.5 -132.5
q0 -70 -27.5 -134t-75.5 -114q-49 -48 -113 -74t-134 -26q-69 0 -132.5 26t-113.5 74q-50 50 -76 114t-26 134q0 69 26 132.5t76 112.5q50 50 113.5 76.5t132.5 26.5q70 0 134 -26.5t113 -76.5zM589 150q41 39 62.5 91t21.5 109t-21.5 107.5t-62.5 92.5q-40 39 -91.5 60.5
t-108.5 21.5t-108 -21.5t-90 -60.5q-42 -42 -63 -92.5t-21 -107.5t21 -109t63 -91q39 -39 90 -60.5t108 -21.5t108.5 21.5t91.5 60.5z" />
    <glyph glyph-name="macron" unicode="&#xaf;" horiz-adv-x="648" 
d="M25 577v123h598v-123h-598z" />
    <glyph glyph-name="degree" unicode="&#xb0;" horiz-adv-x="306" 
d="M240 664q16 -17 25 -39t9 -48q0 -24 -9.5 -46t-24.5 -38q-36 -36 -86 -36q-51 0 -87 36q-17 16 -26.5 38t-9.5 46q0 26 9.5 48t26.5 39t39 26.5t48 9.5t47.5 -9.5t38.5 -26.5zM195 536q8 9 13 19t5 22q0 25 -18 43q-19 16 -41 16q-12 0 -23 -4t-18 -12q-9 -8 -13.5 -19.5
t-4.5 -23.5q0 -23 18 -41q7 -8 18 -12t23 -4q24 0 41 16z" />
    <glyph glyph-name="plusminus" unicode="&#xb1;" horiz-adv-x="549" 
d="M517 409v-120h-184v-182h-120v182h-182v120h182v184h120v-184h184zM31 -123v123h486v-123h-486z" />
    <glyph glyph-name="twosuperior" unicode="&#xb2;" horiz-adv-x="273" 
d="M117 527q-8 0 -16 -6t-11 -14h150v-57h-207v50q0 20 10 39.5t29 30.5q20 14 45 14h39q12 0 19.5 9t7.5 21t-7.5 20.5t-19.5 8.5h-39q-12 0 -19.5 -9t-7.5 -20v-3h-57v3q0 18 7 33.5t18.5 27t26.5 18.5t32 7h39q35 0 59.5 -25.5t24.5 -60.5q0 -23 -10 -42t-29 -31
q-20 -14 -45 -14h-39z" />
    <glyph glyph-name="threesuperior" unicode="&#xb3;" horiz-adv-x="261" 
d="M206 582q10 -11 16 -25t6 -30q0 -32 -22.5 -54.5t-54.5 -22.5h-118v57h118q9 0 15 6t6 14q0 7 -6 12.5t-15 5.5h-93v57h84q8 0 14.5 6t6.5 15q0 8 -6.5 14t-14.5 6h-109v57h109q32 0 54.5 -22.5t22.5 -54.5q0 -11 -4 -22t-9 -19z" />
    <glyph glyph-name="acute" unicode="&#xb4;" horiz-adv-x="201" 
d="M183 700l-88 -141h-73l55 141h106z" />
    <glyph glyph-name="periodcentered" unicode="&#xb7;" horiz-adv-x="290" 
d="M144 464q24 0 45 -9t36.5 -24t25 -36t9.5 -45t-9.5 -45t-25 -37t-36.5 -25t-45 -9t-45 9t-36 25t-24 37t-9 45t9 45t24 36t36 24t45 9z" />
    <glyph glyph-name="cedilla" unicode="&#xb8;" horiz-adv-x="280" 
d="M254 -111q10 -21 2 -44q-6 -24 -25 -38q-20 -16 -45.5 -19t-49.5 1q-14 2 -27.5 4t-27.5 7q-12 4 -23.5 8.5t-23.5 11.5l-14 7l32 52l13 -9q9 -3 17.5 -7t17.5 -6q10 -4 20.5 -5.5t22.5 -3.5q10 -2 25.5 -1.5t26.5 8.5q2 2 3.5 2t1.5 2q0 7 -3 9q-3 11 -12 19t-19 13
q-14 7 -31.5 11t-32.5 7q-4 0 -7.5 1t-8.5 1l-20 5l-3 23v7q0 27 11 47.5t28 40.5h75q-4 -5 -12 -11.5t-13 -13.5q-11 -14 -17 -26t-8 -19q17 -4 33.5 -8t32.5 -13q20 -10 37 -25.5t24 -37.5z" />
    <glyph glyph-name="onesuperior" unicode="&#xb9;" horiz-adv-x="166" 
d="M129 700v-250h-57v186l-29 -9l-16 55l64 18h38z" />
    <glyph glyph-name="ordmasculine" unicode="&#xba;" horiz-adv-x="271" 
d="M142 700q20 0 37 -7.5t30.5 -20.5t21 -30t7.5 -37v-60q0 -19 -7.5 -36.5t-21 -30.5t-30.5 -20.5t-37 -7.5h-11q-21 0 -38.5 7.5t-31 20.5t-21 30.5t-7.5 36.5v60q0 20 7.5 37t21 30t31 20.5t38.5 7.5h11zM181 605q0 15 -11.5 26.5t-27.5 11.5h-11q-17 0 -29 -11.5
t-12 -26.5v-60q0 -15 12 -26.5t29 -11.5h11q16 0 27.5 11.5t11.5 26.5v60z" />
    <glyph glyph-name="guillemotright" unicode="&#xbb;" horiz-adv-x="617" 
d="M362 350l-196 -193h-143l170 193l-170 193h143l123 -120zM593 350l-193 -193h-145l170 193l-170 193h145l121 -120z" />
    <glyph glyph-name="questiondown" unicode="&#xbf;" horiz-adv-x="357" 
d="M254 309q-28 0 -48.5 19.5t-19.5 46.5q0 29 20 48.5t48 19.5q29 0 48.5 -19.5t19.5 -48.5q0 -27 -19.5 -46.5t-48.5 -19.5zM497 -14q0 -48 -15 -91.5t-46 -77.5t-77.5 -54t-109.5 -20q-58 0 -102.5 17t-75 45.5t-46 65.5t-15.5 76.5t16.5 78.5t49.5 72q20 20 40.5 33
t37.5 25.5t27.5 27t10.5 36.5v30h123v-7v-8v-5q0 -33 -11 -60.5t-28.5 -49.5t-39.5 -39t-44 -29q-42 -25 -55 -59.5t-2.5 -66t41.5 -53t75 -18.5q54 3 89.5 37t35.5 94h121z" />
    <glyph glyph-name="Agrave" unicode="&#xc0;" horiz-adv-x="726" 
d="M335 732l-90 141h109l52 -141h-71zM444 700q71 -180 130 -328q25 -63 49.5 -124.5t45 -113t35 -87.5t18.5 -47h-132l-62 157h-332l-61 -157h-131l275 700h165zM479 280l-117 295l-117 -295h234z" />
    <glyph glyph-name="Aacute" unicode="&#xc1;" horiz-adv-x="726" 
d="M390 732h-73l55 141h107zM444 700q71 -180 130 -328q25 -63 49.5 -124.5t45 -113t35 -87.5t18.5 -47h-132l-62 157h-332l-61 -157h-131l275 700h165zM479 280l-117 295l-117 -295h234z" />
    <glyph glyph-name="Acircumflex" unicode="&#xc2;" horiz-adv-x="727" 
d="M311 723h-93l95 150h93l98 -150h-93l-50 80zM445 700q71 -180 130 -328q25 -63 49.5 -124.5t44.5 -113t34.5 -87.5t18.5 -47h-131l-64 157h-330l-61 -157h-132l275 700h166zM479 280l-116 295l-118 -295h234z" />
    <glyph glyph-name="Atilde" unicode="&#xc3;" horiz-adv-x="726" 
d="M447 700q71 -180 129 -328q25 -63 49 -124.5t44.5 -113t34.5 -87.5t18 -47h-132l-62 157h-329l-64 -157h-131l277 700h166zM481 280l-118 295l-116 -295h234zM361 748q-15 8 -28.5 14t-27.5 8.5t-28.5 -1.5t-29.5 -17l-43 32q29 50 84 55q20 2 38 -3.5t35 -12.5
q14 -7 28 -13t28 -8.5t28 1.5t29 17l46 -33q-34 -48 -87 -53q-20 -3 -37.5 1.5t-34.5 12.5z" />
    <glyph glyph-name="Adieresis" unicode="&#xc4;" horiz-adv-x="727" 
d="M451 723q-25 0 -44 18t-19 46q0 25 19 44t44 19q28 0 47 -19t19 -44q0 -28 -19 -46t-47 -18zM268 723q-26 0 -45 18t-19 46q0 25 19 44t45 19q27 0 45 -19t18 -44q0 -28 -18 -46t-45 -18zM445 700q71 -180 130 -328q25 -63 49.5 -124.5t44.5 -113t34.5 -87.5t18.5 -47
h-132l-61 157h-332l-62 -157h-131l277 700h164zM479 280l-116 295l-116 -295h232z" />
    <glyph glyph-name="Aring" unicode="&#xc5;" horiz-adv-x="727" 
d="M456 675q12 -29 34.5 -87t50.5 -129t58 -146.5t55.5 -140.5t44 -112t23.5 -60h-131l-62 157h-332l-61 -157h-132l266 673q-14 16 -21.5 35.5t-7.5 41.5q0 26 9 47.5t25 38.5q17 17 38.5 27t47.5 10t47.5 -10t38.5 -27q36 -34 36 -86q0 -20 -7.5 -39.5t-19.5 -35.5z
M320 793q-18 -18 -18 -43q0 -22 18 -40q15 -16 41 -16q12 0 23 3.5t18 12.5q18 18 18 40q0 25 -18 43q-7 8 -18 12t-23 4q-23 0 -41 -16zM479 280l-116 295l-116 -295h232z" />
    <glyph glyph-name="AE" unicode="&#xc6;" horiz-adv-x="1178" 
d="M706 582v-168h373v-121h-373v-168h439v-123h-569v159h-329l-123 -156h-129l548 697h602v-120h-439zM576 282l-2 293l-229 -293h231z" />
    <glyph glyph-name="Ccedilla" unicode="&#xc7;" horiz-adv-x="770" 
d="M396 109q70 0 127.5 35.5t86.5 94.5h136q-17 -52 -49 -96t-74.5 -75.5t-94.5 -49.5t-109 -18l-11 -21q-5 -8 -7.5 -10.5t-11.5 -9.5q-2 -2 -3 -3.5t-3 -3.5q-2 -3 -3.5 -6.5t-3.5 -6.5q15 -4 31 -9t30 -12q20 -8 36 -24.5t23 -36.5q4 -11 5 -20.5t-3 -20.5
q-6 -22 -25 -36t-43.5 -17.5t-46.5 -1.5q-12 2 -25.5 5t-25.5 7q-24 6 -45 20l-14 7l30 50l14 -9q8 -4 16 -7t15 -7q20 -6 41 -9h26.5t23.5 7q5 3 5 7v7q-4 10 -14 17t-18 12q-12 7 -29 10.5t-32 5.5q-4 2 -7 2.5t-7 2.5l-20 4v21q0 2 -1.5 3.5t-1.5 3.5q2 17 7.5 33
t15.5 30q2 5 9 14l2 2q-67 6 -125.5 35.5t-101.5 76.5t-68 108t-25 130q0 72 27.5 135.5t75 111t111.5 75.5t136 28h36q58 0 111 -18t96.5 -49.5t75.5 -75.5t49 -96h-136q-29 59 -86.5 94.5t-127.5 35.5q-49 0 -93 -19t-77 -52t-52 -76.5t-19 -93.5t19 -94t52 -76.5
t77 -51.5t93 -19z" />
    <glyph glyph-name="Egrave" unicode="&#xc8;" horiz-adv-x="653" 
d="M180 577v-168h373v-120h-373v-169h439v-120h-559v700h559v-123h-439zM349 732l-89 141h107l54 -141h-72z" />
    <glyph glyph-name="Eacute" unicode="&#xc9;" horiz-adv-x="653" 
d="M180 577v-168h373v-120h-373v-169h439v-120h-559v700h559v-123h-439zM333 732h-73l52 141h109z" />
    <glyph glyph-name="Ecircumflex" unicode="&#xca;" horiz-adv-x="653" 
d="M290 723h-94l98 150h93l96 -150h-93l-50 79zM180 577v-168h375v-120h-375v-169h439v-120h-559v700h559v-123h-439z" />
    <glyph glyph-name="Edieresis" unicode="&#xcb;" horiz-adv-x="653" 
d="M433 725q-28 0 -46 19.5t-18 46.5q0 26 18 44.5t46 18.5q26 0 44.5 -18.5t18.5 -44.5q0 -27 -18.5 -46.5t-44.5 -19.5zM180 577v-168h375v-120h-375v-169h439v-120h-559v700h559v-123h-439zM249 725q-28 0 -47 19.5t-19 46.5q0 26 19 44.5t47 18.5q26 0 44.5 -18.5
t18.5 -44.5q0 -27 -18.5 -46.5t-44.5 -19.5z" />
    <glyph glyph-name="Igrave" unicode="&#xcc;" horiz-adv-x="242" 
d="M128 732l-89 141h107l54 -141h-72zM59 2v700h123v-700h-123z" />
    <glyph glyph-name="Iacute" unicode="&#xcd;" horiz-adv-x="240" 
d="M112 732h-73l55 141h106zM59 2v700h121v-700h-121z" />
    <glyph glyph-name="Icircumflex" unicode="&#xce;" horiz-adv-x="241" 
d="M69 723h-93l98 150h93l98 -150h-94l-50 79zM60 2v700h121v-700h-121z" />
    <glyph glyph-name="Idieresis" unicode="&#xcf;" horiz-adv-x="242" 
d="M94 786q0 -27 -19.5 -45t-46.5 -18q-26 0 -45 18t-19 45q0 26 19 45t45 19q27 0 46.5 -19t19.5 -45zM214 850q26 0 45 -19t19 -45q0 -27 -19 -45t-45 -18q-27 0 -46.5 18t-19.5 45q0 26 19.5 45t46.5 19zM59 2v700h123v-700h-123z" />
    <glyph glyph-name="Eth" unicode="&#xd0;" horiz-adv-x="822" 
d="M467 702q66 0 125 -25.5t102.5 -69t69 -102.5t25.5 -125v-57q0 -67 -25.5 -125.5t-69 -102.5t-102.5 -69.5t-125 -25.5h-350v286h-98v123h98v293h350zM669 379q0 41 -16 77.5t-43.5 63.5t-64 43t-78.5 16h-230v-170h91v-123h-91v-163h230q42 0 78.5 16t64 43t43.5 63.5
t16 77.5v56z" />
    <glyph glyph-name="Ntilde" unicode="&#xd1;" horiz-adv-x="764" 
d="M703 700v-700h-148l-375 532v-532h-120v700h152l371 -527v527h120zM385 748q-13 8 -27 14t-28 8t-29 -1.5t-30 -16.5l-43 32q31 50 86 55q19 2 36.5 -3.5t34.5 -12.5q15 -7 29 -13t28.5 -8.5t29 1.5t29.5 17l43 -34q-17 -23 -38.5 -36.5t-47.5 -15.5q-19 -4 -37.5 1.5
t-35.5 12.5z" />
    <glyph glyph-name="Ograve" unicode="&#xd2;" horiz-adv-x="793" 
d="M414 700q73 0 136.5 -28t111 -75.5t75 -111t27.5 -135.5t-27.5 -136t-75 -111.5t-111 -75t-136.5 -27.5h-36q-72 0 -136 27.5t-111.5 75t-75 111.5t-27.5 136t27.5 135.5t75 111t111.5 75.5t136 28h36zM396 109q50 0 93.5 19t76.5 51.5t52 76.5t19 94t-19 93.5t-52 76.5
t-76.5 52t-93.5 19t-94 -19t-76.5 -52t-51.5 -76.5t-19 -93.5t19 -94t51.5 -76.5t76.5 -51.5t94 -19zM403 732l-89 141h107l55 -141h-73z" />
    <glyph glyph-name="Oacute" unicode="&#xd3;" horiz-adv-x="794" 
d="M388 732h-72l54 141h107zM416 700q72 0 136 -28t111.5 -75.5t75 -111t27.5 -135.5t-27.5 -136t-75 -111.5t-111.5 -75t-136 -27.5h-39q-72 0 -135.5 27.5t-111 75t-75.5 111.5t-28 136t28 135.5t75.5 111t111 75.5t135.5 28h39zM397 109q50 0 93.5 19t76.5 51.5t52 76.5
t19 94t-19 93.5t-52 76.5t-76.5 52t-93.5 19t-94.5 -19t-77.5 -52t-52 -76.5t-19 -93.5t19 -94t52 -76.5t77.5 -51.5t94.5 -19z" />
    <glyph glyph-name="Ocircumflex" unicode="&#xd4;" horiz-adv-x="793" 
d="M345 723h-93l98 150h93l98 -150h-94l-52 79zM416 700q72 0 135.5 -28t111 -75.5t75.5 -111t28 -135.5t-28 -136t-75.5 -111.5t-111 -75t-135.5 -27.5h-39q-72 0 -135.5 27.5t-111 75t-75.5 111.5t-28 136t28 135.5t75.5 111t111 75.5t135.5 28h39zM395 109q50 0 94.5 19
t77.5 51.5t52 76.5t19 94t-19 93.5t-52 76.5t-77.5 52t-94.5 19q-49 0 -93 -19t-77 -52t-52 -76.5t-19 -93.5t19 -94t52 -76.5t77 -51.5t93 -19z" />
    <glyph glyph-name="Otilde" unicode="&#xd5;" horiz-adv-x="794" 
d="M396 748q-13 8 -27 14t-28 8t-29 -1.5t-30 -16.5l-43 32q34 51 87 55q19 2 36 -3.5t34 -12.5q15 -7 29 -13t28.5 -8.5t29 1.5t29.5 17l43 -34q-17 -23 -38 -36.5t-48 -15.5q-19 -3 -37.5 2t-35.5 12zM417 700q72 0 135.5 -28t111 -75.5t75.5 -111t28 -135.5t-28 -136
t-76 -111.5t-111.5 -75t-134.5 -27.5h-39q-72 0 -136 27.5t-111.5 75t-75 111.5t-27.5 136t27.5 135.5t75 111t111.5 75.5t136 28h39zM396 109q50 0 94.5 19t77.5 51.5t52 76.5t19 94t-19 93.5t-52 76.5t-77.5 52t-94.5 19q-49 0 -93 -19t-77 -52t-52 -76.5t-19 -93.5
t19 -94t52 -76.5t77 -51.5t93 -19z" />
    <glyph glyph-name="Odieresis" unicode="&#xd6;" horiz-adv-x="794" 
d="M305 723q-26 0 -44.5 18.5t-18.5 44.5q0 27 18.5 45.5t44.5 18.5t45 -18.5t19 -45.5q0 -26 -19 -44.5t-45 -18.5zM489 723q-26 0 -44.5 18.5t-18.5 44.5q0 27 18.5 45.5t44.5 18.5t45 -18.5t19 -45.5q0 -26 -19 -44.5t-45 -18.5zM414 700q73 0 137 -28t112 -75.5t76 -111
t28 -135.5t-28 -136t-76 -111.5t-112 -75t-137 -27.5h-36q-72 0 -136 27.5t-111.5 75t-75 111.5t-27.5 136t27.5 135.5t75 111t111.5 75.5t136 28h36zM396 109q50 0 94 19t76.5 51.5t51.5 76.5t19 94t-19 93.5t-51.5 76.5t-76.5 52t-94 19q-49 0 -93 -19t-77 -52t-52 -76.5
t-19 -93.5t19 -94t52 -76.5t77 -51.5t93 -19z" />
    <glyph glyph-name="multiply" unicode="&#xd7;" horiz-adv-x="498" 
d="M334 350l129 -130l-86 -86l-127 130l-130 -130l-86 86l129 130l-129 127l86 87l130 -128l127 128l86 -87z" />
    <glyph glyph-name="Oslash" unicode="&#xd8;" horiz-adv-x="792" 
d="M556 671q46 -21 84.5 -53.5t66 -74.5t43 -90.5t15.5 -101.5q0 -72 -27.5 -136t-75 -111.5t-111.5 -75t-137 -27.5h-49l-25 -87h-136l33 116q-46 21 -84 53.5t-66 74t-43.5 90.5t-15.5 103q0 72 27.5 135.5t75 111t111.5 75.5t136 28h52l25 86h134zM398 591h-2
q-49 0 -93 -19t-77 -52t-52 -76.5t-19 -92.5q0 -66 31.5 -120.5t85.5 -86.5zM396 110q51 0 95 18.5t76.5 51t51 76.5t18.5 95q0 65 -31 118.5t-83 85.5l-129 -445h2z" />
    <glyph glyph-name="Ugrave" unicode="&#xd9;" horiz-adv-x="735" 
d="M376 732l-89 141h107l54 -141h-72zM689 702v-377q0 -66 -25.5 -125t-69.5 -103t-102.5 -69.5t-125.5 -25.5q-66 0 -124.5 25.5t-102 69.5t-68.5 103t-25 125v377h120v-377q0 -42 16 -78.5t43 -63.5t63.5 -42.5t77.5 -15.5q42 0 79 16t64.5 43t43.5 63.5t16 77.5v377h120z
" />
    <glyph glyph-name="Uacute" unicode="&#xda;" horiz-adv-x="736" 
d="M359 732h-71l53 141h109zM690 702v-377q0 -66 -25.5 -125t-69 -103t-102.5 -69.5t-125 -25.5q-67 0 -125.5 25.5t-102.5 69.5t-69.5 103t-25.5 125v377h123v-377q0 -42 16 -78.5t43 -63.5t63.5 -42.5t77.5 -15.5q42 0 78.5 16t63.5 43t42.5 63.5t15.5 77.5v377h122z" />
    <glyph glyph-name="Ucircumflex" unicode="&#xdb;" horiz-adv-x="734" 
d="M315 723h-93l98 150h93l98 -150h-93l-50 79zM688 702v-377q0 -66 -25.5 -125t-69 -103t-101.5 -69.5t-124 -25.5q-67 0 -125.5 25.5t-102.5 69.5t-69.5 103t-25.5 125v377h120v-377q0 -42 16 -78.5t43.5 -63.5t64.5 -42.5t79 -15.5q41 0 77.5 16t63.5 43t43 63.5t16 77.5
v377h120z" />
    <glyph glyph-name="Udieresis" unicode="&#xdc;" horiz-adv-x="736" 
d="M275 723q-27 0 -45.5 18.5t-18.5 44.5q0 27 18.5 45.5t45.5 18.5q26 0 44.5 -18.5t18.5 -45.5q0 -26 -18.5 -44.5t-44.5 -18.5zM461 723q-27 0 -46.5 18t-19.5 45q0 26 19.5 45t46.5 19q26 0 45 -19t19 -45q0 -27 -19 -45t-45 -18zM690 702v-377q0 -66 -25.5 -125
t-69 -103t-102.5 -69.5t-125 -25.5q-67 0 -125.5 25.5t-102.5 69.5t-69.5 103t-25.5 125v377h123v-377q0 -42 15.5 -78.5t42.5 -63.5t63.5 -42.5t78.5 -15.5q41 0 77.5 16t63.5 43t43 63.5t16 77.5v377h122z" />
    <glyph glyph-name="Yacute" unicode="&#xdd;" horiz-adv-x="697" 
d="M340 732h-72l54 141h107zM702 700l-293 -407v-291h-121v291l-293 407h150l205 -284l202 284h150z" />
    <glyph glyph-name="Thorn" unicode="&#xde;" horiz-adv-x="725" 
d="M467 586q48 0 91 -18.5t75.5 -50t51 -74t18.5 -91.5t-18.5 -92.5t-51 -75t-75.5 -50t-91 -18.5h-287v-116h-120v700h120v-114h287zM467 236q24 0 45 9.5t36.5 25t25 36.5t9.5 45q0 23 -9.5 44t-25 36.5t-36.5 24.5t-45 9h-287v-230h287z" />
    <glyph glyph-name="germandbls" unicode="&#xdf;" horiz-adv-x="678" 
d="M472 373q65 -8 106.5 -38.5t59.5 -72t14.5 -88t-28.5 -85t-70 -64t-109 -25.5h-212v111h212q49 0 73.5 24t24 52.5t-25 52.5t-72.5 24h-212v111h89q17 0 30 12t13 29v73q0 20 -8 38t-21.5 31t-31.5 20.5t-39 7.5h-29q-28 0 -48.5 -19t-20.5 -47v-520h-111v520
q0 37 14 69.5t38.5 57t57.5 39t70 14.5h29q44 0 82.5 -16.5t67 -45.5t45 -67t16.5 -82v-73q0 -11 -1 -21t-3 -22z" />
    <glyph glyph-name="agrave" unicode="&#xe0;" horiz-adv-x="661" 
d="M604 544v-544h-120v91q-35 -43 -82 -67t-102 -24h-25q-50 0 -94.5 21t-77.5 58t-52.5 86t-19.5 106q0 56 19.5 106t52.5 87t77.5 58.5t94.5 21.5h25q55 0 102 -25.5t82 -68.5v94h120zM468 286q0 31 -12 58t-32.5 47.5t-47.5 32.5t-58 12t-58 -12t-47.5 -32.5t-32.5 -47.5
t-12 -58v-29q0 -31 12 -58t32.5 -47.5t47.5 -32.5t58 -12t58 12t47.5 32.5t32.5 47.5t12 58v29zM327 645l-89 142h107l52 -142h-70z" />
    <glyph glyph-name="aacute" unicode="&#xe1;" horiz-adv-x="660" 
d="M603 544v-544h-120v91q-35 -43 -82 -67t-101 -24h-26q-50 0 -94.5 21t-77.5 58t-52 86t-19 106q0 56 19 106t52 87t77.5 58.5t94.5 21.5h26q54 0 101 -25.5t82 -68.5v94h120zM467 286q0 31 -12 58t-32.5 47.5t-47.5 32.5t-58 12t-58 -12t-47.5 -32.5t-32.5 -47.5t-12 -58
v-29q0 -31 12 -58t32.5 -47.5t47.5 -32.5t58 -12t58 12t47.5 32.5t32.5 47.5t12 58v29zM311 645h-73l54 142h107z" />
    <glyph glyph-name="acircumflex" unicode="&#xe2;" horiz-adv-x="661" 
d="M604 544v-544h-122v91q-33 -43 -80 -67t-102 -24h-25q-50 0 -94.5 21t-77.5 58t-52.5 86t-19.5 106q0 56 19.5 106t52.5 87t77.5 58.5t94.5 21.5h25q55 0 102 -25.5t80 -68.5v94h122zM468 286q0 31 -12 58t-32.5 47.5t-47.5 32.5t-58 12t-58.5 -12t-48 -32.5t-32 -47.5
t-11.5 -58v-29q0 -31 11.5 -58t32 -47.5t48 -32.5t58.5 -12t58 12t47.5 32.5t32.5 47.5t12 58v29zM268 637h-93l95 150h93l98 -150h-93l-50 77z" />
    <glyph glyph-name="atilde" unicode="&#xe3;" horiz-adv-x="661" 
d="M317 632q-14 8 -28 14.5t-28.5 8.5t-29 -2t-29.5 -16l-44 32q36 51 87 54q20 2 37.5 -3.5t34.5 -12.5q15 -7 29 -13t27.5 -8t28 2t29.5 17l43 -35q-31 -48 -86 -52q-19 -3 -36.5 2t-34.5 12zM604 544v-544h-123v91q-32 -43 -79.5 -67t-101.5 -24h-26q-50 0 -94.5 21
t-77.5 58t-52 86t-19 106q0 56 19 106t52 87t77.5 58.5t94.5 21.5h26q54 0 101.5 -25.5t79.5 -68.5v94h123zM467 286q0 31 -12 58t-32.5 47.5t-47.5 32.5t-58 12t-58.5 -12t-48 -32.5t-32 -47.5t-11.5 -58v-29q0 -31 11.5 -58t32 -47.5t48 -32.5t58.5 -12t58 12t47.5 32.5
t32.5 47.5t12 58v29z" />
    <glyph glyph-name="adieresis" unicode="&#xe4;" horiz-adv-x="660" 
d="M603 544v-544h-122v91q-33 -43 -80 -67t-102 -24h-25q-50 0 -94.5 21t-77.5 58t-52 86t-19 106q0 56 19 106t52 87t77.5 58.5t94.5 21.5h25q55 0 102 -25.5t80 -68.5v94h122zM467 286q0 31 -12 58t-32.5 47.5t-47.5 32.5t-58 12t-58 -12t-47.5 -32.5t-32.5 -47.5t-12 -58
v-29q0 -31 12 -58t32.5 -47.5t47.5 -32.5t58 -12t58 12t47.5 32.5t32.5 47.5t12 58v29zM408 637q-26 0 -45 18t-19 45q0 26 19 45t45 19q28 0 47 -19t19 -45q0 -27 -19 -45t-47 -18zM224 637q-26 0 -45 18t-19 45q0 26 19 45t45 19q27 0 45.5 -19t18.5 -45q0 -27 -18.5 -45
t-45.5 -18z" />
    <glyph glyph-name="aring" unicode="&#xe5;" horiz-adv-x="660" 
d="M603 544v-544h-120v91q-35 -43 -81 -67t-101 -24h-27q-49 0 -93.5 21t-77.5 58t-52.5 86t-19.5 106q0 56 19.5 106t52.5 87t77.5 58.5t93.5 21.5h27q55 0 101 -25.5t81 -68.5v94h120zM470 286q0 31 -12 58t-33 47.5t-48.5 32.5t-59.5 12q-31 0 -58 -12t-47.5 -32.5
t-32.5 -47.5t-12 -58v-29q0 -31 12 -58t32.5 -47.5t47.5 -32.5t58 -12q32 0 59.5 12t48.5 32.5t33 47.5t12 58v29zM317 544q-24 0 -46.5 9.5t-37.5 26.5q-17 16 -26.5 38t-9.5 46q0 26 9.5 47.5t26.5 38.5q15 17 37.5 27t46.5 10q26 0 47.5 -10t38.5 -27t27 -38.5t10 -47.5
q0 -24 -10 -46t-27 -38q-34 -36 -86 -36zM276 707q-8 -8 -12 -19.5t-4 -23.5q0 -25 16 -41q17 -16 41 -16q25 0 44 16q6 8 10.5 18.5t4.5 22.5t-4.5 23.5t-10.5 19.5q-10 7 -20 11.5t-24 4.5q-12 0 -22 -4.5t-19 -11.5z" />
    <glyph glyph-name="ae" unicode="&#xe6;" horiz-adv-x="1076" 
d="M1048 271q0 -12 -1.5 -23t-3.5 -23h-439q5 -25 20.5 -47t37 -37.5t47.5 -24.5t52 -9q36 0 71.5 15.5t57.5 41.5h134q-15 -36 -40.5 -66t-58 -52t-71 -34t-80.5 -12h-27q-39 0 -75.5 10.5t-67.5 30.5v-41h-122v91q-33 -43 -80 -67t-102 -24h-25q-50 0 -94.5 21t-77.5 58
t-52.5 86t-19.5 106q0 56 19.5 106t52.5 87t77.5 58.5t94.5 21.5h25q55 0 102 -25.5t80 -68.5v94h122v-41q31 19 67.5 30t75.5 11h27q56 0 106 -21.5t87.5 -58.5t59 -87t21.5 -106zM468 286q0 31 -12 58t-32.5 47.5t-47.5 32.5t-58 12t-58.5 -12t-48 -32.5t-32 -47.5
t-11.5 -58v-29q0 -31 11.5 -58t32 -47.5t48 -32.5t58.5 -12t58 12t47.5 32.5t32.5 47.5t12 58v29zM918 316q-5 26 -20 47.5t-36.5 38t-47.5 25.5t-53 9t-53 -9t-47.5 -25.5t-36.5 -38t-20 -47.5h314z" />
    <glyph glyph-name="ccedilla" unicode="&#xe7;" horiz-adv-x="617" 
d="M315 107q47 0 82.5 23.5t54.5 62.5h138q-13 -42 -38 -77t-59 -61t-75.5 -40.5t-86.5 -14.5h-20q-5 -8 -8.5 -16t-5.5 -11l34 -8t32 -13q20 -10 37 -25.5t24 -37.5q5 -11 5.5 -22t-2.5 -22q-7 -24 -25 -38q-21 -16 -46.5 -19t-49.5 0q-14 2 -27 4.5t-27 7.5q-22 6 -48 20
l-14 7l32 52l14 -9q8 -3 16.5 -7t17.5 -6q10 -4 20.5 -5.5t22.5 -3.5q11 -2 26.5 -1.5t25.5 7.5l5 5q0 7 -2 9q-4 11 -13 19t-19 13q-14 7 -31 11t-33 7q-3 0 -7 1t-9 1l-20 5l-2 23v6q0 30 11 50q-46 11 -85.5 35.5t-68.5 59.5t-45.5 79t-16.5 92q0 56 21.5 106t58.5 87
t87 58.5t106 21.5h29q45 0 86.5 -14.5t75.5 -40.5t59 -61t38 -77h-138q-19 38 -54.5 62t-82.5 24q-30 0 -57.5 -12t-48 -32.5t-32.5 -47.5t-12 -58v-29q0 -31 12 -58t32.5 -47.5t47.5 -32.5t58 -12z" />
    <glyph glyph-name="egrave" unicode="&#xe8;" horiz-adv-x="630" 
d="M168 225q5 -25 18.5 -47t33 -37.5t44 -24.5t51.5 -9q36 0 66 15.5t53 41.5h145q-16 -36 -41.5 -66t-58 -52t-70.5 -34t-80 -12h-30q-55 0 -104 21t-86 57.5t-58.5 86t-21.5 105.5t21.5 106t58.5 87t86 58.5t104 21.5h30q56 0 106 -21.5t87 -58.5t58.5 -87t21.5 -106
q0 -11 -1.5 -22t-3.5 -23h-429zM315 436q-27 0 -51.5 -9t-44 -25.5t-33 -38t-18.5 -47.5h295q-6 26 -20 47.5t-33.5 38t-43.5 25.5t-51 9zM322 645l-89 141h107l55 -141h-73z" />
    <glyph glyph-name="eacute" unicode="&#xe9;" horiz-adv-x="630" 
d="M309 645h-73l52 141h109zM168 225q6 -25 20 -47t33.5 -37.5t43.5 -24.5t50 -9q36 0 67 15.5t52 41.5h145q-15 -36 -40.5 -66t-58 -52t-71 -34t-80.5 -12h-27q-56 0 -106 21t-87 57.5t-58.5 86t-21.5 105.5t21.5 106t58.5 87t87 58.5t106 21.5h27q56 0 106 -21.5t87 -58.5
t58.5 -87t21.5 -106q0 -11 -1.5 -22t-3.5 -23h-429zM315 436q-27 0 -51.5 -9t-44 -25.5t-33 -38t-18.5 -47.5h295q-5 26 -18.5 47.5t-33 38t-44.5 25.5t-52 9z" />
    <glyph glyph-name="ecircumflex" unicode="&#xea;" horiz-adv-x="630" 
d="M265 636h-93l98 150h91l97 -150h-93l-50 78zM168 225q6 -25 20 -47t33.5 -37.5t43.5 -24.5t50 -9q36 0 67 15.5t52 41.5h145q-15 -36 -40.5 -66t-58 -52t-71 -34t-80.5 -12h-27q-56 0 -106 21t-87 57.5t-58.5 86t-21.5 105.5t21.5 106t58.5 87t87 58.5t106 21.5h27
q56 0 106 -21.5t87 -58.5t58.5 -87t21.5 -106q0 -11 -1.5 -22t-3.5 -23h-429zM315 436q-27 0 -51.5 -9t-44 -25.5t-33 -38t-18.5 -47.5h295q-5 26 -18.5 47.5t-33 38t-44.5 25.5t-52 9z" />
    <glyph glyph-name="edieresis" unicode="&#xeb;" horiz-adv-x="631" 
d="M409 636q-28 0 -46 18.5t-18 45.5q0 26 18 45t46 19q26 0 44.5 -19t18.5 -45q0 -27 -18.5 -45.5t-44.5 -18.5zM225 636q-28 0 -46 18.5t-18 45.5q0 26 18 45t46 19q26 0 44.5 -19t18.5 -45q0 -27 -18.5 -45.5t-44.5 -18.5zM170 225q11 -51 51.5 -84.5t93.5 -33.5
q36 0 67 15.5t52 41.5h147q-16 -36 -41.5 -66t-57.5 -52t-70.5 -34t-80.5 -12h-29q-56 0 -106 21t-87 57.5t-58.5 86t-21.5 105.5t21.5 106t58.5 87t87 58.5t106 21.5h29q56 0 105 -21.5t86 -58.5t58.5 -87t21.5 -106v-22t-2 -23h-430zM463 316q-5 26 -18.5 47.5t-33 38
t-44.5 25.5t-52 9q-26 0 -50 -9t-43.5 -25.5t-33.5 -38t-20 -47.5h295z" />
    <glyph glyph-name="igrave" unicode="&#xec;" horiz-adv-x="236" 
d="M56 0v543h123v-543h-123zM127 645l-89 141h107l54 -141h-72z" />
    <glyph glyph-name="iacute" unicode="&#xed;" horiz-adv-x="234" 
d="M56 0v543h121v-543h-121zM109 645h-73l55 141h106z" />
    <glyph glyph-name="icircumflex" unicode="&#xee;" horiz-adv-x="233" 
d="M65 636h-93l98 150h93l98 -150h-94l-49 78zM56 0v543h121v-543h-121z" />
    <glyph glyph-name="idieresis" unicode="&#xef;" horiz-adv-x="234" 
d="M88 695q0 -26 -18 -44.5t-45 -18.5q-28 0 -46 18.5t-18 44.5q0 28 18 46t46 18q27 0 45 -18t18 -46zM56 0v543h121v-543h-121zM209 759q27 0 45 -18t18 -46q0 -26 -18 -44.5t-45 -18.5q-26 0 -45 18.5t-19 44.5q0 28 19 46t45 18z" />
    <glyph glyph-name="eth" unicode="&#xf0;" horiz-adv-x="631" 
d="M478 557q15 -17 36 -44.5t39.5 -64t31.5 -81.5t13 -99q0 -55 -21 -104.5t-57.5 -86t-86 -58t-105.5 -21.5h-28q-56 0 -105.5 21.5t-86 58t-57.5 86t-21 104.5q0 56 21 106t57.5 87t86 58.5t105.5 21.5h21l-102 102l-87 -86l-86 86l86 87l-57 54l87 86l57 -54l43 43
l84 -86l-43 -43zM314 109q32 0 61 13t51 34.5t34.5 50.5t12.5 61q0 33 -12.5 62.5t-34.5 51.5t-51 35t-61 13q-33 0 -62 -13t-50.5 -35t-34 -51.5t-12.5 -62.5q0 -32 12.5 -61t34 -50.5t50.5 -34.5t62 -13z" />
    <glyph glyph-name="ntilde" unicode="&#xf1;" horiz-adv-x="616" 
d="M354 543q45 0 84.5 -21.5t69.5 -58.5t47 -87t17 -106v-270h-123v286q0 31 -10.5 58t-29 47.5t-43.5 32.5t-53 12q-27 0 -51.5 -12t-43 -32.5t-29 -47.5t-10.5 -58v-16v-27.5v-52.5t-0.5 -63.5t-0.5 -61.5t-0.5 -46.5t-1.5 -18.5h-120v543h120v-77q29 36 68.5 56.5
t84.5 20.5h25zM313 632q-14 8 -27.5 14t-28 8t-29 -1.5t-29.5 -16.5l-43 32q34 51 86 55q19 2 37 -3.5t34 -12.5q14 -7 28.5 -13t28.5 -8.5t29 1.5t30 17l43 -34q-17 -23 -38 -36.5t-48 -15.5q-19 -3 -37.5 2t-35.5 12z" />
    <glyph glyph-name="ograve" unicode="&#xf2;" horiz-adv-x="630" 
d="M323 645l-88 141h106l55 -141h-73zM330 543q56 0 105 -21.5t86 -58.5t58.5 -87t21.5 -106t-21.5 -105.5t-58.5 -86t-86 -57.5t-105 -21h-30q-56 0 -105.5 21t-86 57.5t-57.5 86t-21 105.5t21 106t57.5 87t86 58.5t105.5 21.5h30zM316 93q34 0 64.5 14.5t54 38.5t37 56
t13.5 68q0 37 -13.5 69.5t-37 56.5t-54 38t-64.5 14q-36 0 -67 -14t-54 -38t-36 -56.5t-13 -69.5q0 -36 13 -68t36 -56t54 -38.5t67 -14.5z" />
    <glyph glyph-name="oacute" unicode="&#xf3;" horiz-adv-x="630" 
d="M307 645h-72l54 141h107zM330 543q56 0 105 -21.5t86 -58.5t58.5 -87t21.5 -106t-21.5 -105.5t-58.5 -86t-86 -57.5t-105 -21h-29q-57 0 -106 21t-86 57.5t-58 86t-21 105.5t21.5 106t58 87t86 58.5t105.5 21.5h29zM316 93q34 0 64.5 14.5t54 38.5t37 56t13.5 68
q0 37 -13.5 69.5t-37 56.5t-54 38t-64.5 14q-36 0 -67 -14t-54 -38t-36 -56.5t-13 -69.5q0 -36 13 -68t36 -56t54 -38.5t67 -14.5z" />
    <glyph glyph-name="ocircumflex" unicode="&#xf4;" horiz-adv-x="631" 
d="M265 636h-93l98 150h93l96 -150h-94l-50 78zM329 543q56 0 106 -21.5t87 -58.5t58.5 -87t21.5 -106t-21.5 -105.5t-58.5 -86t-87 -57.5t-106 -21h-27q-56 0 -106 21t-87 57.5t-58.5 86t-21.5 105.5t21.5 106t58.5 87t87 58.5t106 21.5h27zM315 93q35 0 66.5 14.5
t54.5 38.5t36.5 56t13.5 68q0 37 -13.5 69.5t-36.5 56.5t-54.5 38t-66.5 14t-65.5 -14t-53.5 -38t-36 -56.5t-13 -69.5q0 -36 13 -68t36 -56t53.5 -38.5t65.5 -14.5z" />
    <glyph glyph-name="otilde" unicode="&#xf5;" horiz-adv-x="631" 
d="M315 632q-14 8 -28 14t-28.5 8t-29 -1.5t-29.5 -16.5l-44 32q34 51 87 55q19 2 37 -3.5t35 -12.5q14 -7 27.5 -13t28 -8.5t29 1.5t29.5 17l43 -34q-15 -23 -37 -36.5t-49 -15.5q-19 -3 -36.5 2t-34.5 12zM329 543q56 0 106 -21.5t87 -58.5t58.5 -87t21.5 -106
t-21.5 -105.5t-58.5 -86t-87 -57.5t-106 -21h-27q-56 0 -106 21t-87 57.5t-58.5 86t-21.5 105.5t21.5 106t58.5 87t87 58.5t106 21.5h27zM315 93q35 0 66 14.5t54 38.5t36 56t13 68q0 37 -13 69.5t-36 56.5t-54 38t-66 14t-66 -14t-54 -38t-36.5 -56.5t-13.5 -69.5
q0 -36 13.5 -68t36.5 -56t54 -38.5t66 -14.5z" />
    <glyph glyph-name="odieresis" unicode="&#xf6;" horiz-adv-x="631" 
d="M409 632q-28 0 -46 18.5t-18 44.5q0 28 18 46t46 18q26 0 44.5 -18t18.5 -46q0 -26 -18.5 -44.5t-44.5 -18.5zM329 543q56 0 106 -21.5t87 -58.5t58.5 -87t21.5 -106t-21.5 -105.5t-58.5 -86t-87 -57.5t-106 -21h-27q-56 0 -106 21t-87 57.5t-58.5 86t-21.5 105.5
t21.5 106t58.5 87t87 58.5t106 21.5h27zM315 93q35 0 66.5 14.5t54.5 38.5t36.5 56t13.5 68q0 37 -13.5 69.5t-36.5 56.5t-54.5 38t-66.5 14t-65.5 -14t-53.5 -38t-36 -56.5t-13 -69.5q0 -36 13 -68t36 -56t53.5 -38.5t65.5 -14.5zM222 632q-26 0 -44.5 18.5t-18.5 44.5
q0 28 18.5 46t44.5 18q28 0 47 -18t19 -46q0 -26 -19 -44.5t-47 -18.5z" />
    <glyph glyph-name="divide" unicode="&#xf7;" horiz-adv-x="472" 
d="M235 407q-28 0 -47 20.5t-19 47.5q0 29 19 48.5t47 19.5q29 0 48.5 -19.5t19.5 -48.5q0 -27 -19.5 -47.5t-48.5 -20.5zM235 130q29 0 48.5 -19.5t19.5 -46.5q0 -29 -19.5 -48.5t-48.5 -19.5q-28 0 -47 19.5t-19 48.5q0 27 19 46.5t47 19.5zM21 209v121h429v-121h-429z
" />
    <glyph glyph-name="oslash" unicode="&#xf8;" horiz-adv-x="661" 
d="M457 547q38 -16 70 -43t55 -61t36 -74t13 -84q0 -59 -22.5 -110.5t-61.5 -90t-91 -61t-110 -22.5h-45l-21 -71h-104l27 94q-37 16 -69 42t-55 60t-36 74.5t-13 84.5q0 59 22.5 110.5t61 90t90.5 61t111 22.5h45l20 71h103zM335 480h-4q-41 0 -76.5 -15.5t-62 -42t-42 -62
t-15.5 -75.5q0 -55 26.5 -99t68.5 -69zM331 90q40 0 75 15t61.5 41.5t42 62t15.5 76.5q0 53 -26 97.5t-69 70.5l-104 -363h5z" />
    <glyph glyph-name="ugrave" unicode="&#xf9;" 
d="M312 645l-88 141h106l55 -141h-73zM562 543v-543h-120v77q-31 -36 -69.5 -56.5t-85.5 -20.5h-23q-45 0 -85 21t-70 57.5t-47.5 86t-17.5 105.5v273h123v-286q0 -31 10.5 -58t29 -47.5t43.5 -32.5t53 -12t53 12t43.5 32.5t29 47.5t10.5 58v13v29v53t0.5 64t0.5 62
t0.5 46.5t1.5 18.5h120z" />
    <glyph glyph-name="uacute" unicode="&#xfa;" 
d="M562 543v-543h-123v77q-29 -36 -68 -56.5t-84 -20.5h-25q-45 0 -84.5 21t-69.5 57.5t-47 86t-17 105.5v273h123v-286q0 -31 10.5 -58t29 -47.5t43.5 -32.5t53 -12q27 0 52 12t43.5 32.5t29.5 47.5t11 58v13v29t-0.5 53t-0.5 64v62t0.5 46.5l0.5 18.5h123zM294 645h-73
l55 141h107z" />
    <glyph glyph-name="ucircumflex" unicode="&#xfb;" 
d="M253 636h-93l98 150h93l95 -150h-93l-50 78zM562 543v-543h-120v77q-31 -35 -70.5 -56t-84.5 -21h-23q-45 0 -85 21t-70 57.5t-47.5 86t-17.5 105.5v273h123v-286q0 -31 10.5 -58t29 -47.5t43.5 -32.5t53 -12t53 12t43.5 32.5t29.5 47.5t11 58v13v29v53v64t0.5 62t1 46.5
l0.5 18.5h120z" />
    <glyph glyph-name="udieresis" unicode="&#xfc;" 
d="M396 632q-27 0 -45 18.5t-18 44.5q0 28 18 46t45 18q28 0 46 -18t18 -46q0 -26 -18 -44.5t-46 -18.5zM212 632q-27 0 -45.5 18.5t-18.5 44.5q0 28 18.5 46t45.5 18q26 0 45 -18t19 -46q0 -26 -19 -44.5t-45 -18.5zM562 543v-543h-120v77q-31 -35 -69.5 -56t-85.5 -21h-23
q-45 0 -85 21t-70 57.5t-47.5 86t-17.5 105.5v273h125v-286q0 -31 10.5 -58t29 -47.5t43 -32.5t51.5 -12q28 0 53 12t43.5 32.5t29 47.5t10.5 58v13v29v53t0.5 64t0.5 62t0.5 46.5t1.5 18.5h120z" />
    <glyph glyph-name="yacute" unicode="&#xfd;" horiz-adv-x="607" 
d="M297 645h-73l54 141h107zM599 543l-214 -543l-102 -257h-130l85 216l-230 584h130l165 -418l166 418h130z" />
    <glyph glyph-name="thorn" unicode="&#xfe;" horiz-adv-x="660" 
d="M386 543q50 0 94 -21.5t77 -58.5t52 -86.5t19 -105.5q0 -57 -19 -106t-52 -86t-77 -58t-94 -21h-26q-54 0 -101.5 24t-79.5 67v-348h-123v1043h123v-337q32 43 79.5 68.5t101.5 25.5h26zM495 286q0 31 -12 58t-33 47.5t-48.5 32.5t-59.5 12q-31 0 -58 -12t-47.5 -32.5
t-32.5 -47.5t-12 -58v-29q0 -31 12 -58.5t32.5 -48t47.5 -32.5t58 -12q32 0 59.5 12t48.5 32.5t33 48t12 58.5v29z" />
    <glyph glyph-name="ydieresis" unicode="&#xff;" horiz-adv-x="607" 
d="M394 632q-26 0 -44.5 18.5t-18.5 44.5q0 28 18.5 46t44.5 18q28 0 47 -18t19 -46q0 -26 -19 -44.5t-47 -18.5zM210 632q-26 0 -44.5 18.5t-18.5 44.5q0 28 18.5 46t44.5 18q28 0 46 -18t18 -46q0 -26 -18 -44.5t-46 -18.5zM599 543l-216 -543l-100 -257h-132l87 216
l-230 584h130l165 -418l166 418h130z" />
    <glyph glyph-name="Amacron" unicode="&#x100;" horiz-adv-x="727" 
d="M213 779v94h300v-94h-300zM445 700q71 -180 130 -328q25 -63 49.5 -124.5t44.5 -113t34.5 -87.5t18.5 -47h-132l-63 157h-330l-62 -157h-131l275 700h166zM479 280l-116 295l-118 -295h234z" />
    <glyph glyph-name="amacron" unicode="&#x101;" horiz-adv-x="661" 
d="M604 544v-544h-121v91q-34 -43 -80.5 -67t-100.5 -24h-27q-50 0 -94.5 21t-77.5 58t-52.5 86t-19.5 106q0 56 19.5 106t52.5 87t77.5 58.5t94.5 21.5h27q54 0 100.5 -25.5t80.5 -68.5v94h121zM470 286q0 31 -12 58t-33 47.5t-48.5 32.5t-59.5 12q-31 0 -58 -12
t-47.5 -32.5t-32.5 -47.5t-12 -58v-29q0 -31 12 -58t32.5 -47.5t47.5 -32.5t58 -12q32 0 59.5 12t48.5 32.5t33 47.5t12 58v29zM468 694h-298v93h298v-93z" />
    <glyph glyph-name="Abreve" unicode="&#x102;" horiz-adv-x="727" 
d="M363 734q-29 0 -55.5 11.5t-46.5 33.5q-17 20 -27 44t-10 50h73q0 -28 19 -47t47 -19q27 0 46.5 19t19.5 47h73q0 -26 -10 -50t-27 -44q-19 -22 -46 -33.5t-56 -11.5zM447 700q71 -180 129 -328q25 -63 49 -124.5t44.5 -113t34.5 -87.5t18 -47h-132l-61 157h-332
l-62 -157h-131l277 700h166zM481 280l-118 295l-116 -295h234z" />
    <glyph glyph-name="abreve" unicode="&#x103;" horiz-adv-x="661" 
d="M604 544v-544h-121v91q-34 -43 -81 -67t-102 -24h-25q-51 0 -95.5 21t-77.5 58t-52 86t-19 106q0 56 19 106t52 87t77.5 58.5t95.5 21.5h25q55 0 102 -25.5t81 -68.5v94h121zM468 286q0 31 -12 58t-32.5 47.5t-48 32.5t-58.5 12t-58 -12t-47.5 -32.5t-32.5 -47.5t-12 -58
v-29q0 -31 12 -58t32.5 -47.5t47.5 -32.5t58 -12t58.5 12t48 32.5t32.5 47.5t12 58v29zM317 648q-59 0 -102 46q-17 18 -26.5 42.5t-9.5 50.5h72q0 -28 19.5 -47t46.5 -19q28 0 47.5 19t19.5 47h72q0 -26 -9.5 -50.5t-26.5 -42.5q-19 -23 -46 -34.5t-57 -11.5z" />
    <glyph glyph-name="Aogonek" unicode="&#x104;" horiz-adv-x="727" 
d="M742 -175l-16 -11q-23 -14 -52 -25q-14 -5 -27.5 -8.5t-29.5 -4.5q-26 -4 -54 -0.5t-50 22.5q-11 8 -17.5 21t-9.5 26q-4 14 -3 27.5t4 27.5q9 28 28 49t41 33q9 5 19 10t22 8h-7l-62 157h-331l-62 -157h-131l275 700h166q57 -142 108 -269q22 -54 44.5 -110t43 -108
t37.5 -96t28 -74q5 -12 9.5 -23t7.5 -21.5t2.5 -22t-5.5 -23.5l-51 -12q-6 0 -16 -4q-17 -4 -35.5 -9.5t-34.5 -14.5q-11 -5 -20.5 -14.5t-13.5 -23.5q-4 -4 0 -9q0 -7 5 -7q11 -11 28 -11t29 2l22 4t23 7q8 4 18 8t19 11l15 9zM479 280l-116 295l-116 -295h232z" />
    <glyph glyph-name="aogonek" unicode="&#x105;" horiz-adv-x="661" 
d="M640 -164l-13 -11q-12 -7 -24 -13t-24 -9q-29 -11 -55 -14q-26 -4 -52 0t-46 23q-20 17 -27 43q-7 29 2 52q8 27 26 46.5t39 30.5q6 4 14.5 8.5t18.5 7.5h-18v91q-32 -43 -79.5 -67t-101.5 -24h-25q-51 0 -95.5 21t-77.5 58t-52 86t-19 106q0 56 19 106t52 87t77.5 58.5
t95.5 21.5h25q54 0 101.5 -25.5t79.5 -68.5v94h123v-590q-28 -7 -60 -14t-51 -19q-11 -6 -21 -15.5t-14 -20.5v-10q0 -6 5 -6q11 -9 27 -10.5t28 0.5q10 2 21 4.5t22 7.5q15 5 34 15l13 12zM467 286q0 31 -12 58t-32.5 47.5t-47.5 32.5t-58 12t-58 -12t-47.5 -32.5
t-32.5 -47.5t-12 -58v-29q0 -31 12 -58t32.5 -47.5t47.5 -32.5t58 -12t58 12t47.5 32.5t32.5 47.5t12 58v29z" />
    <glyph glyph-name="Cacute" unicode="&#x106;" horiz-adv-x="772" 
d="M396 111q35 0 67.5 9.5t60 26.5t49.5 41t37 53h138q-18 -52 -50.5 -96t-76 -75.5t-95.5 -49.5t-109 -18h-39q-72 0 -136 28t-111.5 75.5t-75 111t-27.5 135.5t27.5 136t75 111.5t111.5 75t136 27.5h39q57 0 109 -18t95.5 -49.5t76 -75t50.5 -95.5h-138q-29 58 -86.5 93.5
t-127.5 35.5q-49 0 -93 -19t-77 -51.5t-52 -76.5t-19 -94q0 -49 19 -93t52 -77t77 -52t93 -19zM380 732h-73l55 141h107z" />
    <glyph glyph-name="cacute" unicode="&#x107;" horiz-adv-x="617" 
d="M302 645h-73l54 141h107zM315 107q45 0 81.5 23.5t55.5 62.5h138q-13 -42 -38 -77t-59 -61t-76 -40.5t-88 -14.5h-27q-56 0 -106 21t-87 57.5t-58.5 86t-21.5 105.5t21.5 106t58.5 87t87 58.5t106 21.5h27q46 0 88 -14.5t76 -40.5t59 -61t38 -77h-138q-19 38 -55.5 62
t-81.5 24q-30 0 -57.5 -12t-48 -32.5t-32.5 -47.5t-12 -58v-29q0 -31 12 -58t32.5 -47.5t48 -32.5t57.5 -12z" />
    <glyph glyph-name="Ccaron" unicode="&#x10c;" horiz-adv-x="770" 
d="M339 723l-95 150h93l50 -78l50 78h93l-98 -150h-93zM396 111q70 0 126.5 36t87.5 94h136q-17 -52 -49 -96t-75.5 -75.5t-96.5 -49.5t-111 -18h-36q-72 0 -136 28t-111.5 75.5t-75 111t-27.5 135.5t27.5 136t75 111.5t111.5 75t136 27.5h36q58 0 111 -18t96.5 -49.5
t75.5 -75t49 -95.5h-136q-31 58 -87.5 93.5t-126.5 35.5q-49 0 -93 -19t-77 -51.5t-52 -76.5t-19 -94q0 -49 19 -93t52 -77t77 -52t93 -19z" />
    <glyph glyph-name="ccaron" unicode="&#x10d;" horiz-adv-x="617" 
d="M263 650l-98 148h94l52 -78l50 78h93l-98 -148h-93zM315 107q45 0 81.5 23.5t55.5 62.5h138q-13 -42 -38 -77t-59 -61t-76 -40.5t-88 -14.5h-27q-56 0 -106 21t-87 57.5t-58.5 86t-21.5 105.5t21.5 106t58.5 87t87 58.5t106 21.5h27q46 0 88 -14.5t76 -40.5t59 -61
t38 -77h-138q-19 38 -55.5 62t-81.5 24q-30 0 -57.5 -12t-48 -32.5t-32.5 -47.5t-12 -58v-29q0 -31 12 -58t32.5 -47.5t48 -32.5t57.5 -12z" />
    <glyph glyph-name="Dcaron" unicode="&#x10e;" horiz-adv-x="765" 
d="M351 723l-98 150h93l50 -78l50 78h94l-96 -150h-93zM412 700q67 0 125.5 -25.5t102 -69.5t68.5 -103t25 -125v-57q0 -66 -25 -124.5t-68.5 -102t-102 -68.5t-125.5 -25h-352v120v580h352zM612 377q0 42 -16 78.5t-43 63.5t-63.5 42.5t-77.5 15.5h-229v-456h229
q41 0 77.5 16t63.5 43t43 63t16 77v57z" />
    <glyph glyph-name="dcaron" unicode="&#x10f;" horiz-adv-x="660" 
d="M686 787q27 0 46.5 -20t19.5 -49v-68q0 -11 -2.5 -24.5t-9.5 -25t-19 -19.5t-31 -8h-16v32q9 2 18 9t9 18v21q-5 0 -8.5 -1.5t-6.5 -1.5q-29 0 -48.5 20.5t-19.5 47.5q0 29 19.5 49t48.5 20zM482 787h122v-787h-122v91q-33 -43 -80.5 -67t-101.5 -24h-25q-51 0 -95.5 21
t-77.5 58t-52 86t-19 106q0 56 19 106t52 87t77.5 58.5t95.5 21.5h25q54 0 101.5 -25.5t80.5 -68.5v337zM468 286q0 31 -12 58t-32.5 47.5t-48 32.5t-58.5 12t-58 -12t-47.5 -32.5t-32.5 -47.5t-12 -58v-29q0 -31 12 -58t32.5 -47.5t47.5 -32.5t58 -12t58.5 12t48 32.5
t32.5 47.5t12 58v29z" />
    <glyph glyph-name="dcroat" unicode="&#x111;" horiz-adv-x="660" 
d="M708 716v-93h-104v-623h-123v91q-32 -43 -79.5 -67t-102.5 -24h-25q-50 0 -94.5 21t-77.5 57.5t-52 86t-19 105.5t19 106t52 87t77.5 58.5t94.5 21.5h25q55 0 102.5 -25t79.5 -68v173h-73v93h73v70h123v-70h104zM467 286q0 31 -12 58t-32.5 47.5t-47.5 32.5t-58 12
t-58.5 -12t-48 -32.5t-32 -47.5t-11.5 -58v-29q0 -31 11.5 -58t32 -47.5t48 -32.5t58.5 -12t58 12t47.5 32.5t32.5 47.5t12 58v29z" />
    <glyph glyph-name="Emacron" unicode="&#x112;" horiz-adv-x="653" 
d="M180 577v-168h375v-120h-375v-169h439v-120h-559v700h559v-123h-439zM489 775h-299v93h299v-93z" />
    <glyph glyph-name="emacron" unicode="&#x113;" horiz-adv-x="630" 
d="M170 225q11 -51 51.5 -84.5t93.5 -33.5q36 0 67 15.5t51 41.5h146q-15 -36 -40 -66t-57.5 -52t-71 -34t-81.5 -12h-27q-56 0 -106 21t-87 57.5t-58.5 86t-21.5 105.5t21.5 106t58.5 87t87 58.5t106 21.5h27q56 0 106 -21.5t87 -58.5t58.5 -87t21.5 -106q0 -11 -1.5 -22
t-3.5 -23h-427zM463 316q-5 26 -18.5 47.5t-33 38t-44.5 25.5t-52 9t-51.5 -9t-44 -25.5t-33 -38t-18.5 -47.5h295zM465 693h-300v93h300v-93z" />
    <glyph glyph-name="Edotaccent" unicode="&#x116;" horiz-adv-x="655" 
d="M339 727q-26 0 -44.5 19t-18.5 45t18.5 45t44.5 19q27 0 45.5 -19t18.5 -45t-18.5 -45t-45.5 -19zM180 577v-168h375v-120h-375v-169h441v-120h-561v700h561v-123h-441z" />
    <glyph glyph-name="edotaccent" unicode="&#x117;" horiz-adv-x="630" 
d="M315 636q-27 0 -45 18.5t-18 45.5q0 26 18 45t45 19q26 0 45 -19t19 -45q0 -27 -19 -45.5t-45 -18.5zM168 225q12 -51 52.5 -84.5t94.5 -33.5q36 0 67 15.5t51 41.5h146q-15 -36 -40.5 -66t-58 -52t-71 -34t-80.5 -12h-27q-56 0 -106 21t-87 57.5t-58.5 86t-21.5 105.5
t21.5 106t58.5 87t87 58.5t106 21.5h27q56 0 106 -21.5t87 -58.5t58.5 -87t21.5 -106q0 -11 -1.5 -22t-3.5 -23h-429zM315 436q-27 0 -51.5 -9t-44 -25.5t-33 -38t-18.5 -47.5h295q-5 26 -18.5 47.5t-33 38t-44.5 25.5t-52 9z" />
    <glyph glyph-name="Eogonek" unicode="&#x118;" horiz-adv-x="655" 
d="M640 -164l-16 -11q-11 -7 -23.5 -13t-24.5 -10q-25 -10 -55 -13q-23 -4 -50 -0.5t-47 22.5q-21 18 -28 44q-3 14 -2 27t5 25q8 27 25.5 46t37.5 31q7 4 15.5 7.5t16.5 8.5h-434v700h561v-123h-438v-168h372v-120h-372v-169h438v-156q-13 -4 -31.5 -9t-37 -11t-35 -12
t-27.5 -12q-11 -5 -20 -14.5t-12 -21.5q-2 -2 -2.5 -4.5t-0.5 -4.5q4 -7 5 -7q11 -8 27 -9.5t28 0.5q10 2 21 4t22 7q8 4 17.5 7.5t16.5 8.5l16 12z" />
    <glyph glyph-name="eogonek" unicode="&#x119;" horiz-adv-x="630" 
d="M158 225q5 -25 20 -47t36.5 -37.5t47.5 -24.5t53 -9q36 0 71.5 15.5t56.5 41.5h136q-24 -57 -69.5 -97.5t-105.5 -57.5q-10 -3 -25.5 -9.5t-32.5 -15t-34 -19.5t-31 -24q-15 -14 -19 -29t1 -28t18 -20.5t32 -4.5q26 3 43 11q9 4 18 7.5t16 8.5l16 12l32 -62l-16 -11
q-11 -7 -23.5 -13t-24.5 -10q-25 -10 -54 -13q-24 -4 -51 -0.5t-47 22.5q-10 9 -17 19.5t-10 24.5q-4 15 -2.5 31.5t4.5 33.5q7 24 24.5 44.5t41.5 37.5q-49 7 -92 30.5t-74.5 59.5t-49.5 81.5t-18 96.5q0 56 21.5 106t58.5 87t87 58.5t106 21.5h27q56 0 106 -21.5t87 -58.5
t58.5 -87t21.5 -106q0 -11 -1.5 -22t-3.5 -23h-439zM315 436q-27 0 -53 -9t-47.5 -25.5t-36.5 -38t-20 -47.5h314q-5 26 -20 47.5t-36.5 38t-47.5 25.5t-53 9z" />
    <glyph glyph-name="Ecaron" unicode="&#x11a;" horiz-adv-x="655" 
d="M180 577v-168h375v-120h-375v-169h441v-120h-561v700h561v-123h-441zM294 723l-98 150h93l50 -78l53 78h93l-98 -150h-93z" />
    <glyph glyph-name="ecaron" unicode="&#x11b;" horiz-adv-x="630" 
d="M159 225q6 -25 21.5 -47t36.5 -37.5t46.5 -24.5t51.5 -9q36 0 71.5 15.5t58.5 41.5h134q-15 -36 -40 -66t-57.5 -52t-71 -34t-81.5 -12h-27q-56 0 -106 21t-87 57.5t-58.5 86t-21.5 105.5t21.5 106t58.5 87t87 58.5t106 21.5h27q56 0 106 -21.5t87 -58.5t58.5 -87
t21.5 -106q0 -11 -0.5 -22t-4.5 -23h-438zM315 436q-27 0 -53 -9t-47 -25.5t-36 -38t-20 -47.5h315q-6 26 -21 47.5t-36.5 38t-48 25.5t-53.5 9zM270 636l-98 150h93l50 -77l50 77h94l-96 -150h-93z" />
    <glyph glyph-name="Gbreve" unicode="&#x11e;" horiz-adv-x="771" 
d="M355 582q-41 0 -77.5 -16t-63.5 -43t-43 -63.5t-16 -77.5v-57q0 -41 16 -77.5t43 -63.5t63.5 -43t77.5 -16h241v168h-223v121h345v-412h-363q-67 0 -125.5 25.5t-102.5 69.5t-69.5 103t-25.5 125v57q0 66 25.5 124.5t69.5 102t102.5 68.5t125.5 25h363v-120h-363z
M375 734q-29 0 -55.5 11.5t-46.5 34.5q-17 19 -26.5 43t-9.5 50h72q0 -28 19.5 -47t46.5 -19q28 0 47 19t19 47h73q0 -26 -10 -50t-27 -43q-41 -46 -102 -46z" />
    <glyph glyph-name="gbreve" unicode="&#x11f;" horiz-adv-x="660" 
d="M317 648q-29 0 -55.5 11.5t-46.5 33.5q-17 19 -26.5 43t-9.5 50h72q0 -27 19.5 -46.5t46.5 -19.5q28 0 47 19.5t19 46.5h73q0 -26 -9.5 -50t-26.5 -43q-43 -45 -103 -45zM604 543v-513q0 -9 -0.5 -16t-2.5 -14q-9 -92 -68 -157q-39 -46 -94.5 -73t-121.5 -27
q-48 0 -91 14.5t-78.5 41t-62 62.5t-40.5 80h134q22 -35 58.5 -56t79.5 -21q30 0 57 10.5t48.5 28.5t36.5 43t20 54q2 7 2 14v15v62q-29 -36 -68 -60t-84 -31h-82q-26 3 -49.5 12.5t-46.5 23.5q-35 24 -62 59t-42 80q-16 44 -16 95q0 56 19 106t52 87t77.5 58.5t94.5 21.5
h25q55 0 102.5 -25t79.5 -68v93h123zM467 286q0 11 -1.5 22t-5.5 22q-14 46 -53 76t-90 30t-90 -30t-53 -76q-3 -11 -5 -22t-2 -22v-29q0 -39 19 -75q20 -35 54 -55t77 -20q42 0 76.5 20t53.5 55q20 35 20 75v29z" />
    <glyph glyph-name="Imacron" unicode="&#x12a;" horiz-adv-x="243" 
d="M60 2v700h122v-700h-122zM271 873v-93h-300v93h300z" />
    <glyph glyph-name="imacron" unicode="&#x12b;" horiz-adv-x="235" 
d="M267 786v-93h-300v93h300zM56 0v543h122v-543h-122z" />
    <glyph glyph-name="Idotaccent" unicode="&#x130;" horiz-adv-x="242" 
d="M121 723q-26 0 -45 18.5t-19 44.5q0 27 19 45.5t45 18.5t44.5 -18.5t18.5 -45.5q0 -26 -18.5 -44.5t-44.5 -18.5zM59 2v700h123v-700h-123z" />
    <glyph glyph-name="dotlessi" unicode="&#x131;" horiz-adv-x="233" 
d="M56 0v543h120v-543h-120z" />
    <glyph glyph-name="Lslash" unicode="&#x141;" horiz-adv-x="592" 
d="M575 120v-120h-375v100l-75 -100h-127l202 268v432h121v-266l93 123h125l-218 -293v-144h254z" />
    <glyph glyph-name="lslash" unicode="&#x142;" horiz-adv-x="362" 
d="M348 641v-173l-100 -100v-368h-120v245l-100 -100v173l100 100v368h120v-247z" />
    <glyph glyph-name="Nacute" unicode="&#x143;" horiz-adv-x="764" 
d="M374 732h-73l54 141h107zM703 700v-700h-148l-375 532v-532h-120v700h152l371 -527v527h120z" />
    <glyph glyph-name="nacute" unicode="&#x144;" 
d="M306 645h-73l55 141h107zM354 543q45 0 85 -21.5t70 -58.5t47.5 -87t17.5 -106v-270h-123v286q0 31 -10.5 58t-29 47.5t-43.5 32.5t-53 12t-53 -12t-43.5 -32.5t-29 -47.5t-10.5 -58v-16v-27.5v-52.5v-63.5v-61.5t-1 -46.5t-2 -18.5h-120v543h120v-77q31 36 70.5 56.5
t84.5 20.5h23z" />
    <glyph glyph-name="Ncaron" unicode="&#x147;" horiz-adv-x="764" 
d="M340 723l-98 150h93l50 -78l50 78h93l-95 -150h-93zM703 700v-700h-148l-375 532v-532h-120v700h152l371 -527v527h120z" />
    <glyph glyph-name="ncaron" unicode="&#x148;" 
d="M267 650l-95 148h93l50 -78l50 78h93l-97 -148h-94zM354 543q45 0 85 -21.5t70 -58.5t47.5 -87t17.5 -106v-270h-123v286q0 31 -10.5 58t-29 47.5t-43.5 32.5t-53 12t-53 -12t-43.5 -32.5t-29 -47.5t-10.5 -58v-16v-27.5v-52.5t-0.5 -63.5t-0.5 -61.5t-0.5 -46.5
t-1.5 -18.5h-120v543h120v-77q31 36 70.5 56.5t84.5 20.5h23z" />
    <glyph glyph-name="Omacron" unicode="&#x14c;" horiz-adv-x="793" 
d="M414 700q73 0 136.5 -28t111 -75.5t75 -111t27.5 -135.5t-27.5 -136t-75 -111.5t-111 -75t-136.5 -27.5h-36q-72 0 -136 27.5t-111.5 75t-75 111.5t-27.5 136t27.5 135.5t75 111t111.5 75.5t136 28h36zM396 109q50 0 93.5 19t76.5 51.5t52 76.5t19 94t-19 93.5t-52 76.5
t-76.5 52t-93.5 19t-94 -19t-76.5 -52t-51.5 -76.5t-19 -93.5t19 -94t51.5 -76.5t76.5 -51.5t94 -19zM546 780h-300v93h300v-93z" />
    <glyph glyph-name="omacron" unicode="&#x14d;" horiz-adv-x="631" 
d="M329 543q56 0 106 -21.5t87 -58.5t58.5 -87t21.5 -106t-21.5 -105.5t-58.5 -86t-87 -57.5t-106 -21h-27q-56 0 -106 21t-87 57.5t-58.5 86t-21.5 105.5t21.5 106t58.5 87t87 58.5t106 21.5h27zM315 93q35 0 65.5 14.5t53.5 38.5t36.5 56t13.5 68q0 37 -13 69.5t-36 56.5
t-54 38t-66 14t-65.5 -14t-53.5 -38t-36 -56.5t-13 -69.5q0 -36 13 -68t36 -56t53.5 -38.5t65.5 -14.5zM465 693h-300v93h300v-93z" />
    <glyph glyph-name="Ohungarumlaut" unicode="&#x150;" horiz-adv-x="794" 
d="M322 732h-72l54 141h107zM381 732l55 141h107l-89 -141h-73zM416 700q72 0 136 -28t111.5 -75.5t75 -111t27.5 -135.5t-27.5 -136t-75 -111.5t-111.5 -75t-136 -27.5h-39q-72 0 -135.5 27.5t-111 75t-75.5 111.5t-28 136t28 135.5t75.5 111t111 75.5t135.5 28h39z
M397 109q50 0 93.5 19t76.5 51.5t52 76.5t19 94t-19 93.5t-52 76.5t-76.5 52t-93.5 19t-94 -19t-76.5 -52t-51.5 -76.5t-19 -93.5t19 -94t51.5 -76.5t76.5 -51.5t94 -19z" />
    <glyph glyph-name="ohungarumlaut" unicode="&#x151;" horiz-adv-x="630" 
d="M301 645l54 141h107l-89 -141h-72zM330 543q56 0 105 -21.5t86 -58.5t58.5 -87t21.5 -106t-21.5 -105.5t-58.5 -86t-86 -57.5t-105 -21h-29q-57 0 -106 21t-86 57.5t-58 86t-21 105.5t21.5 106t58 87t86 58.5t105.5 21.5h29zM316 93q34 0 64.5 14.5t54 38.5t37 56
t13.5 68q0 37 -13.5 69.5t-37 56.5t-54 38t-64.5 14q-36 0 -67 -14t-54 -38t-36 -56.5t-13 -69.5q0 -36 13 -68t36 -56t54 -38.5t67 -14.5zM241 645h-72l54 141h107z" />
    <glyph glyph-name="OE" unicode="&#x152;" horiz-adv-x="1232" 
d="M760 582v-169h373v-120h-373v-168h439v-123h-562v77q-45 -38 -102 -58.5t-121 -20.5h-36q-72 0 -136 27.5t-111.5 75t-75 111.5t-27.5 136t27.5 135.5t75 111t111.5 75.5t136 28h36q64 0 121 -22t102 -60v84h562v-120h-439zM396 109q50 0 93.5 18.5t76.5 51t52 76.5
t19 95q0 49 -19 92.5t-52 76.5t-76.5 52t-93.5 19q-49 0 -93 -19t-77 -52t-52 -76.5t-19 -92.5q0 -51 19 -95t52 -76.5t77 -51t93 -18.5z" />
    <glyph glyph-name="oe" unicode="&#x153;" horiz-adv-x="1085" 
d="M613 225q6 -25 21.5 -47t37 -37.5t47 -24.5t51.5 -9q36 0 71.5 15.5t58.5 41.5h134q-15 -36 -40.5 -66t-58 -52t-71 -34t-80.5 -12h-28q-65 0 -120 28t-93 74q-38 -46 -93.5 -74t-120.5 -28h-27q-56 0 -106 21t-87 57.5t-58.5 86t-21.5 105.5t21.5 106t58.5 87t87 58.5
t106 21.5h27q65 0 120.5 -28t93.5 -76q38 48 93 76t120 28h28q56 0 105.5 -21.5t86.5 -58.5t58.5 -87t21.5 -106q0 -11 -1 -22t-3 -23h-439zM315 93q35 0 66 14t54 38t36 56.5t13 68.5q0 37 -13 69.5t-36 56.5t-54 38t-66 14t-66 -14t-54 -38t-36.5 -56.5t-13.5 -69.5
q0 -36 13.5 -68t36.5 -56t54 -38.5t66 -14.5zM770 436q-27 0 -53 -9t-47.5 -25.5t-36.5 -38t-20 -47.5h314q-5 26 -20 47.5t-36.5 38t-47.5 25.5t-53 9z" />
    <glyph glyph-name="Racute" unicode="&#x154;" horiz-adv-x="734" 
d="M583 257q-37 -19 -73 -25l193 -230h-159l-191 225h-173v-225h-120v698h407q50 0 93 -18.5t74.5 -51t50 -75.5t18.5 -91q0 -67 -33 -121.5t-87 -85.5zM181 348h286q24 0 45 9t37 25t25 37t9 45t-9 44.5t-25 35.5t-37 24t-45 9h-286v-229zM376 732h-73l55 141h107z" />
    <glyph glyph-name="racute" unicode="&#x155;" horiz-adv-x="407" 
d="M392 543v-125q-32 10 -69.5 6.5t-69.5 -20.5t-53 -46.5t-21 -71.5v-32.5t0.5 -56.5t0.5 -66.5v-63.5v-48t-1 -19h-123v543h123v-77q29 36 68 56.5t84 20.5h61zM217 645h-72l54 141h107z" />
    <glyph glyph-name="Rcaron" unicode="&#x158;" horiz-adv-x="735" 
d="M583 257q-37 -19 -73 -25l193 -230h-159l-191 225h-170v-225h-123v698h409q49 0 92 -18.5t75 -51t50.5 -75.5t18.5 -91q0 -67 -34 -121.5t-88 -85.5zM183 348h286q23 0 43.5 9t36.5 25t25 37t9 45t-9 44.5t-25 35.5t-36.5 24t-43.5 9h-286v-229zM324 723l-98 150h93
l50 -78l52 78h93l-97 -150h-93z" />
    <glyph glyph-name="rcaron" unicode="&#x159;" horiz-adv-x="407" 
d="M392 543v-125q-32 10 -69.5 6.5t-69.5 -20.5t-53 -46.5t-21 -71.5v-32.5v-56.5v-66.5v-63.5t-1 -48t-2 -19h-120v543h120v-77q31 36 70.5 56.5t84.5 20.5h61zM176 636l-97 150h93l52 -77l50 77h93l-97 -150h-94z" />
    <glyph glyph-name="Sacute" unicode="&#x15a;" horiz-adv-x="692" 
d="M339 732h-72l54 141h107zM510 395q51 -16 85 -45t51.5 -64t18.5 -73t-14.5 -74t-48.5 -66t-83 -48q-38 -14 -83.5 -19.5t-85.5 -5.5q-46 0 -101.5 10.5t-104 35t-81.5 64t-33 97.5v4h127v-4q0 -22 24 -38t56.5 -26t64.5 -14.5t48 -3.5q26 0 58 2.5t58 10.5q39 14 56 33.5
t14.5 40t-23 38.5t-56.5 29q-45 14 -92.5 19t-93.5 13q-31 7 -61 17t-59 22q-30 14 -53.5 35t-37.5 47.5t-17 57t8 62.5q15 43 49 71t73 45q38 14 79 22t80 8q38 0 81 -6t83.5 -20.5t74 -38.5t52.5 -60l-111 -62q-9 19 -31 31t-48 19t-52.5 10t-45.5 4q-28 0 -62 -5.5
t-61 -17.5q-14 -5 -27.5 -17.5t-13.5 -29.5q0 -12 10.5 -23t21.5 -18q19 -11 41.5 -16.5t42.5 -8.5q57 -12 112.5 -18.5t110.5 -25.5z" />
    <glyph glyph-name="sacute" unicode="&#x15b;" horiz-adv-x="559" 
d="M405 300q40 -13 67.5 -36t41.5 -51t15 -59t-11.5 -60t-39 -53t-66.5 -39q-29 -10 -63.5 -14t-66.5 -4q-37 0 -80.5 8.5t-81 28t-63 51t-25.5 76.5v7h114v-7q0 -13 13 -23.5t33 -18t44 -12t46 -5.5q50 2 80 12.5t45 32.5q11 17 -2 34t-43 27q-35 11 -71 13.5t-70 9.5
q-24 5 -47.5 12t-43.5 18q-25 11 -44.5 28t-31 38.5t-13.5 46.5t7 50q12 35 38.5 57.5t59.5 36.5q29 11 60 16.5t62 5.5q30 0 64 -4.5t65.5 -16t58.5 -31t42 -48.5l2 -4l-102 -55l-2 7q-9 15 -28 25t-36 14q-16 4 -40 5.5t-49 -1.5t-46.5 -10.5t-32.5 -21.5q-7 -6 -7 -13
t8 -13t13 -8q11 -8 28 -12.5t31 -7.5q42 -9 84 -13.5t84 -18.5zM273 645h-73l55 141h107z" />
    <glyph glyph-name="Scedilla" unicode="&#x15e;" horiz-adv-x="690" 
d="M510 395q50 -16 84 -45t51.5 -64t18.5 -73t-15 -74t-49 -66t-84 -48q-38 -14 -82 -19.5t-84 -5.5h-2q-5 -8 -9.5 -15t-4.5 -12q16 -4 33 -8t31 -13q20 -10 38.5 -25.5t25.5 -37.5q3 -11 3.5 -22t-1.5 -22q-8 -25 -27 -38q-19 -16 -45.5 -19t-50.5 0q-14 2 -27 4.5
t-25 7.5q-12 3 -24.5 8t-23.5 12l-13 7l29 52l16 -9q7 -3 16.5 -7t17.5 -6q11 -4 20.5 -5.5t20.5 -3.5q12 -2 28 -1.5t24 7.5q2 2 3.5 2.5t1.5 2.5q2 4 1 5.5t-1 3.5q-4 11 -14 19t-18 13q-14 7 -32 11t-32 7q-5 0 -8.5 1t-6.5 1l-21 5l-2 23v6q0 30 11 50q-43 6 -88 20.5
t-81.5 39.5t-59.5 60t-23 83v4h125v-4q0 -22 24.5 -38t57 -26t65 -14.5t48.5 -3.5q26 0 58 2.5t58 10.5q39 14 56 33.5t14.5 40t-23 38.5t-56.5 29q-45 14 -92.5 19t-95.5 13q-29 7 -59 17t-59 22q-30 14 -54 35t-38 47.5t-17 57t9 62.5q15 43 49 71t73 45q38 14 79 22t80 8
q38 0 81 -6t83.5 -20.5t74 -38.5t52.5 -60l-111 -62q-9 19 -31 31t-48 19t-52.5 10t-45.5 4q-28 0 -62.5 -5.5t-60.5 -17.5q-14 -5 -27.5 -17.5t-13.5 -29.5q0 -12 10.5 -23t21.5 -18q17 -11 40.5 -16.5t43.5 -8.5q55 -12 111.5 -18.5t111.5 -25.5z" />
    <glyph glyph-name="scedilla" unicode="&#x15f;" horiz-adv-x="559" 
d="M407 300q60 -19 90.5 -60t32 -86.5t-27 -87.5t-88.5 -64q-31 -10 -65 -14t-65 -4h-11q-2 -3 -3.5 -6t-1.5 -5l34 -8t32 -13q21 -10 38 -25.5t24 -37.5q5 -11 5 -22t-3 -22q-8 -24 -25 -38q-20 -16 -46 -19t-50 1q-14 2 -27 4t-27 7q-12 4 -23.5 8.5t-22.5 11.5l-16 7
l32 52l14 -9q8 -3 17 -7t17 -6q11 -4 21 -5.5t22 -3.5q11 -2 26.5 -1.5t26.5 8.5q2 2 3 2t1 2q0 7 -2 9q-4 11 -12.5 19t-19.5 13q-14 7 -31 11t-33 7q-3 0 -7 1t-9 1l-20 5l-2 23v7q0 21 7 36q-33 6 -65 18t-57.5 31.5t-41.5 46t-16 61.5v7h116v-7q0 -13 13 -23.5t33 -18
t44 -12t46 -5.5q97 3 123 45q12 17 -0.5 34t-44.5 27q-35 11 -70 13.5t-69 9.5q-24 5 -47.5 12t-45.5 18q-24 11 -43 28t-30.5 38.5t-13.5 46.5t7 50q12 35 39 57.5t59 36.5q29 11 60.5 16.5t62.5 5.5q30 0 63.5 -4.5t65 -16t57.5 -31t41 -48.5l5 -4l-103 -55l-4 7
q-7 15 -26 25t-36 14q-16 4 -40 5.5t-49 -1.5t-47 -10.5t-34 -21.5q-2 -3 -3.5 -6.5t-1.5 -6.5q0 -7 7 -13t12 -8q14 -8 29.5 -12.5t31.5 -7.5q43 -9 85 -13.5t83 -18.5z" />
    <glyph glyph-name="Scaron" unicode="&#x160;" horiz-adv-x="691" 
d="M301 723l-96 150h93l50 -78l50 78h93l-97 -150h-93zM510 395q51 -16 85 -45t51.5 -64t18.5 -73t-14.5 -74t-48.5 -66t-83 -48q-38 -14 -83.5 -19.5t-85.5 -5.5q-46 0 -101.5 10.5t-104 35t-81.5 64t-33 97.5v4h127v-4q0 -22 24 -38t56.5 -26t64.5 -14.5t48 -3.5
q28 0 60.5 2.5t58.5 10.5q39 14 56 33.5t14.5 40t-23 38.5t-56.5 29q-47 14 -95 19t-94 13q-31 7 -61 17t-57 22q-30 14 -54 35t-38.5 47.5t-18 57t7.5 62.5q16 43 50 71t75 45q36 14 77 22t80 8q38 0 81 -6t83.5 -20.5t75 -38.5t53.5 -60l-113 -62q-9 19 -30 31t-47 19
t-52.5 10t-45.5 4q-29 0 -63 -5.5t-60 -17.5q-7 -3 -14.5 -7.5t-13.5 -10.5t-10 -13.5t-3 -15.5q0 -12 10.5 -23t21.5 -18q17 -11 40 -16.5t42 -8.5q57 -12 113 -18.5t110 -25.5z" />
    <glyph glyph-name="scaron" unicode="&#x161;" horiz-adv-x="559" 
d="M234 636l-98 150h94l50 -77l52 77h91l-96 -150h-93zM405 300q40 -13 67.5 -36t41.5 -51t15 -59t-11.5 -60t-39 -53t-66.5 -39q-29 -10 -63.5 -14t-66.5 -4q-37 0 -80.5 8.5t-81 28t-63 51t-25.5 76.5v7h116v-7q0 -13 12.5 -23.5t32 -18t43.5 -12t46 -5.5q50 2 80 12.5
t45 32.5q11 17 -2 34t-43 27q-35 11 -71 13.5t-70 9.5q-24 5 -46.5 12t-44.5 18q-25 11 -44.5 28t-31 38.5t-13.5 46.5t7 50q12 35 40 57.5t60 36.5q27 11 58 16.5t62 5.5q30 0 64 -4.5t65.5 -16t58.5 -31t42 -48.5l2 -4l-102 -55l-2 7q-8 15 -27 25t-35 14q-17 4 -41.5 5.5
t-49.5 -1.5t-46.5 -10.5t-32.5 -21.5q-7 -6 -7 -13t7.5 -13t12.5 -8q12 -8 28.5 -12.5t30.5 -7.5q43 -9 85 -13.5t84 -18.5z" />
    <glyph glyph-name="Umacron" unicode="&#x16a;" horiz-adv-x="736" 
d="M518 780h-300v93h300v-93zM690 702v-377q0 -66 -25.5 -125t-69 -103t-102.5 -69.5t-125 -25.5q-67 0 -125.5 25.5t-102.5 69.5t-69.5 103t-25.5 125v377h123v-377q0 -42 15.5 -78.5t42.5 -63.5t63.5 -42.5t78.5 -15.5q41 0 77.5 16t63.5 43t43 63.5t16 77.5v377h122z" />
    <glyph glyph-name="umacron" unicode="&#x16b;" 
d="M453 693h-300v93h300v-93zM562 543v-543h-120v77q-31 -36 -70.5 -56.5t-84.5 -20.5h-23q-45 0 -85 21t-70 57.5t-47.5 86t-17.5 105.5v273h123v-286q0 -31 10.5 -58t29 -47.5t43.5 -32.5t53 -12t53 12t43.5 32.5t29.5 47.5t11 58v13v29t-0.5 53t-0.5 64v62t1 46.5t2 18.5
h120z" />
    <glyph glyph-name="Uring" unicode="&#x16e;" horiz-adv-x="736" 
d="M281 666q-7 7 -13.5 15t-11.5 19q-5 12 -8 24t-3 26q0 21 7 36q3 14 11 27t18 23q17 17 39 27t48 10t47.5 -10t38.5 -27q11 -10 18 -23t12 -27q3 -8 3.5 -16.5t0.5 -19.5q0 -14 -2 -26t-9 -24q-4 -11 -10 -19t-13 -15q-17 -17 -38.5 -27t-47.5 -10t-48 10t-39 27z
M320 786q-11 -14 -11 -36q0 -24 18 -41q2 -3 5 -5l6 -4q13 -7 30 -7q7 0 14.5 1.5t12.5 5.5q5 2 7.5 3.5t6.5 5.5q18 18 18 41q0 21 -12 36q-2 3 -6 7q-9 7 -19 11.5t-22 4.5t-23 -4.5t-18 -11.5l-3.5 -3.5zM690 702v-377q0 -66 -25.5 -125t-69 -103t-102.5 -69.5
t-125 -25.5q-67 0 -125.5 25.5t-102.5 69.5t-69.5 103t-25.5 125v377h123v-377q0 -42 15.5 -78.5t42.5 -63.5t63.5 -42.5t78.5 -15.5q41 0 77.5 16t63.5 43t43 63.5t16 77.5v377h122z" />
    <glyph glyph-name="uring" unicode="&#x16f;" 
d="M562 543v-543h-123v77q-29 -36 -68 -56.5t-84 -20.5h-23q-45 0 -85 21t-70 57.5t-47.5 86t-17.5 105.5v273h123v-286q0 -31 10.5 -58t29 -47.5t43.5 -32.5t53 -12t53 12t43.5 32.5t29.5 47.5t11 58v13v29t-0.5 53t-0.5 64v62v46.5t1 18.5h122zM303 543q-26 0 -47.5 10
t-38.5 27q-17 15 -27 37.5t-10 46.5q0 26 10 47.5t27 38.5q36 36 86 36q51 0 87 -36q15 -17 24.5 -38.5t9.5 -47.5q0 -24 -9.5 -46.5t-24.5 -37.5q-17 -17 -39 -27t-48 -10zM262 707q-18 -20 -18 -43t18 -41q7 -9 18 -12.5t23 -3.5t23 3.5t18 12.5q18 18 18 41t-18 43
q-7 7 -18 11.5t-23 4.5t-23 -4.5t-18 -11.5z" />
    <glyph glyph-name="Uhungarumlaut" unicode="&#x170;" horiz-adv-x="736" 
d="M354 732l55 141h107l-89 -141h-73zM295 732h-73l55 141h107zM690 702v-377q0 -66 -25.5 -125t-69 -103t-102.5 -69.5t-125 -25.5q-67 0 -125.5 25.5t-102.5 69.5t-69.5 103t-25.5 125v377h123v-377q0 -42 16 -78.5t43 -63.5t63.5 -42.5t77.5 -15.5q42 0 78.5 16t63.5 43
t42.5 63.5t15.5 77.5v377h122z" />
    <glyph glyph-name="uhungarumlaut" unicode="&#x171;" 
d="M287 645l55 141h107l-89 -141h-73zM228 645h-73l55 141h107zM562 543v-543h-123v77q-29 -36 -68 -56.5t-84 -20.5h-23q-46 0 -86 21t-70 57.5t-47 86t-17 105.5v273h123v-286q0 -31 10.5 -58t29 -47.5t43.5 -32.5t53 -12t53 12t43.5 32.5t29.5 47.5t11 58v13v29t-0.5 53
t-0.5 64v62v46.5t1 18.5h122z" />
    <glyph glyph-name="Uogonek" unicode="&#x172;" horiz-adv-x="738" 
d="M691 700v-380q0 -45 -12.5 -87t-35 -78.5t-53.5 -66t-69 -49.5q-7 -4 -22 -13.5t-34.5 -22t-41.5 -27t-43 -28.5q-5 -5 -17.5 -13.5t-24.5 -19t-21 -21t-7 -19.5q0 -7 4 -7q11 -8 27 -9.5t28 0.5q10 2 21 4t22 7q8 4 17.5 7.5t16.5 8.5l16 12l32 -62l-16 -11
q-11 -7 -23.5 -13t-24.5 -10q-25 -10 -54 -13q-24 -4 -51 -0.5t-47 22.5q-11 9 -17.5 19.5t-9.5 24.5q-4 14 -3 27t5 25q4 13 14.5 27.5t25 27t30 23t30.5 15.5q-64 3 -120 29.5t-97.5 70t-65.5 100t-24 120.5v380h123v-380q0 -41 16 -77.5t43 -63.5t63.5 -43t77.5 -16
t77.5 16t63.5 43t43 63.5t16 77.5v380h122z" />
    <glyph glyph-name="uogonek" unicode="&#x173;" 
d="M587 -164l-16 -11q-10 -7 -23 -13t-24 -10q-27 -10 -55 -13q-24 -4 -50.5 -0.5t-47.5 22.5q-10 9 -16.5 19.5t-10.5 24.5t-2.5 27t4.5 25q9 27 26.5 46t37.5 31q7 4 15 8t19 8h-2v77q-31 -36 -70.5 -56.5t-84.5 -20.5h-23q-45 0 -85 21t-70 57.5t-47.5 86t-17.5 105.5
v273h123v-286q0 -31 10.5 -58t29 -47.5t43.5 -32.5t53 -12t53 12t43.5 32.5t29.5 47.5t11 58v13v29v53v64t0.5 62t1 46.5l0.5 18.5h120v-584q-13 -3 -30 -7t-34.5 -8.5t-33.5 -10.5t-27 -13q-8 -5 -18 -14.5t-14 -21.5q-2 -2 -2 -4.5v-4.5q3 -7 5 -7q10 -8 26 -9.5t28 0.5
l22 4t21 7q9 4 18 7.5t16 8.5l16 12z" />
    <glyph glyph-name="Ydieresis" unicode="&#x178;" horiz-adv-x="697" 
d="M440 723q-26 0 -44.5 18.5t-18.5 44.5q0 27 18.5 45.5t44.5 18.5q27 0 45.5 -18.5t18.5 -45.5q0 -26 -18.5 -44.5t-45.5 -18.5zM256 723q-27 0 -46.5 18t-19.5 45q0 26 19.5 45t46.5 19q26 0 45 -19t19 -45q0 -27 -19 -45t-45 -18zM702 700l-293 -407v-291h-123v291
l-291 407h150l202 -284l205 284h150z" />
    <glyph glyph-name="Zacute" unicode="&#x179;" horiz-adv-x="676" 
d="M330 732h-73l55 141h107zM646 541l-475 -416h475v-123h-616v162l477 418h-477v120h616v-161z" />
    <glyph glyph-name="zacute" unicode="&#x17a;" horiz-adv-x="548" 
d="M264 645h-70l52 141h107zM512 543v-125l-313 -298h313v-120h-477v123l314 297h-314v123h477z" />
    <glyph glyph-name="Zdotaccent" unicode="&#x17b;" horiz-adv-x="674" 
d="M644 541l-475 -416h475v-123h-614v162l475 418h-475v120h614v-161zM337 723q-26 0 -45 18t-19 45q0 26 19 45t45 19q27 0 45 -19t18 -45q0 -27 -18 -45t-45 -18z" />
    <glyph glyph-name="zdotaccent" unicode="&#x17c;" horiz-adv-x="550" 
d="M274 636q-26 0 -45 18.5t-19 45.5q0 26 19 45t45 19q27 0 46.5 -19t19.5 -45q0 -27 -19.5 -45.5t-46.5 -18.5zM515 543v-125l-316 -298h316v-120h-480v123l316 297h-316v123h480z" />
    <glyph glyph-name="zcaron" unicode="&#x17e;" horiz-adv-x="548" 
d="M226 636l-96 150h94l50 -77l50 77h93l-98 -150h-93zM512 543v-125l-313 -298h313v-120h-477v123l314 297h-314v123h477z" />
    <glyph glyph-name="circumflex" unicode="&#x2c6;" horiz-adv-x="327" 
d="M308 550h-94l-52 77l-50 -77h-93l98 150h93z" />
    <glyph glyph-name="caron" unicode="&#x2c7;" horiz-adv-x="323" 
d="M306 700l-98 -150h-93l-98 150h93l53 -77l49 77h94z" />
    <glyph glyph-name="breve" unicode="&#x2d8;" horiz-adv-x="321" 
d="M298 700q0 -26 -8.5 -50t-27.5 -43q-19 -23 -45.5 -34.5t-57.5 -11.5q-29 0 -55 11.5t-45 34.5q-19 19 -27.5 43t-8.5 50h70q0 -27 19.5 -46.5t46.5 -19.5q29 0 49 19.5t20 46.5h70z" />
    <glyph glyph-name="dotaccent" unicode="&#x2d9;" horiz-adv-x="183" 
d="M90 682q29 0 48.5 -20.5t19.5 -47.5q0 -29 -19.5 -48.5t-48.5 -19.5q-27 0 -46.5 19.5t-19.5 48.5q0 27 19.5 47.5t46.5 20.5z" />
    <glyph glyph-name="ogonek" unicode="&#x2db;" horiz-adv-x="286" 
d="M266 -164l-16 -11q-11 -7 -23.5 -13t-24.5 -10q-25 -10 -54 -13q-24 -4 -51 -0.5t-47 22.5q-22 18 -27 43q-4 14 -3 27.5t5 25.5q7 27 25 46t38 31q13 7 33 14.5t41.5 13.5t42.5 11.5t36 8.5v-73q-14 -3 -31 -7t-34.5 -8.5t-33 -10.5t-26.5 -13q-11 -5 -20 -14.5
t-14 -21.5v-9q0 -7 4 -7q11 -8 27 -9.5t28 0.5q10 2 21 4t22 7q8 4 17.5 7.5t16.5 8.5l16 12z" />
    <glyph glyph-name="hungarumlaut" unicode="&#x2dd;" horiz-adv-x="333" 
d="M183 700l-88 -141h-73l55 141h106zM315 700l-88 -141h-73l54 141h107z" />
    <glyph glyph-name="Sigma" unicode="&#x3a3;" horiz-adv-x="574" 
d="M555 607h-393l237 -257l-237 -259h393v-91h-536v68l257 282l-257 280v70h536v-93z" />
    <glyph glyph-name="endash" unicode="&#x2013;" horiz-adv-x="537" 
d="M25 264v120h486v-120h-486z" />
    <glyph glyph-name="emdash" unicode="&#x2014;" horiz-adv-x="910" 
d="M25 264v120h859v-120h-859z" />
    <glyph glyph-name="quoteleft" unicode="&#x2018;" horiz-adv-x="194" 
d="M99 620q27 0 46.5 -19t19.5 -46q0 -29 -19 -49t-47 -20q-29 0 -48.5 20t-19.5 49v65q0 11 2.5 25t9.5 26t18.5 20.5t30.5 8.5h16v-32q-8 -3 -17.5 -9.5t-9.5 -17.5v-21h18z" />
    <glyph glyph-name="quoteright" unicode="&#x2019;" horiz-adv-x="193" 
d="M95 700q28 0 47 -19.5t19 -48.5v-68q0 -11 -2.5 -24.5t-9 -25.5t-18.5 -20t-31 -8h-16v32q8 2 17.5 9.5t9.5 18.5v20q-5 0 -8.5 -1t-7.5 -1q-29 0 -48.5 20t-19.5 48q0 29 19.5 48.5t48.5 19.5z" />
    <glyph glyph-name="quotesinglbase" unicode="&#x201a;" horiz-adv-x="186" 
d="M92 134q28 0 48 -19.5t20 -48.5v-66q0 -11 -3 -25t-10 -26t-19 -20.5t-31 -8.5h-16v32q8 4 17.5 10.5t9.5 17.5v20h-16q-29 0 -48.5 19.5t-19.5 46.5q0 29 19.5 48.5t48.5 19.5z" />
    <glyph glyph-name="quotedblleft" unicode="&#x201c;" horiz-adv-x="352" 
d="M99 620q27 0 46.5 -19t19.5 -46q0 -29 -19 -49t-47 -20q-29 0 -48.5 20t-19.5 49v65q0 11 2.5 25t9.5 26t18.5 20.5t30.5 8.5h16v-32q-8 -3 -16.5 -9.5t-8.5 -17.5v-21h16zM256 620q29 0 48.5 -19t19.5 -46q0 -29 -19.5 -49t-48.5 -20q-27 0 -46.5 20t-19.5 49v65
q0 11 2.5 25t9.5 26t18.5 20.5t30.5 8.5h16v-32q-8 -3 -17.5 -9.5t-9.5 -17.5v-21h16z" />
    <glyph glyph-name="quotedblright" unicode="&#x201d;" horiz-adv-x="353" 
d="M95 700q28 0 47 -19.5t19 -48.5v-68q0 -11 -2.5 -24.5t-9 -25.5t-18.5 -20t-31 -8h-16v32q8 2 17.5 9.5t9.5 18.5v20q-5 0 -8.5 -1t-7.5 -1q-29 0 -48.5 20t-19.5 48q0 29 19.5 48.5t48.5 19.5zM252 700q29 0 48.5 -19.5t19.5 -48.5v-68q0 -11 -2.5 -24.5t-9 -25.5
t-18.5 -20t-31 -8h-16v32q8 2 16.5 9.5t8.5 18.5v20q-4 0 -7.5 -1t-8.5 -1q-27 0 -46.5 20t-19.5 48q0 29 19.5 48.5t46.5 19.5z" />
    <glyph glyph-name="quotedblbase" unicode="&#x201e;" horiz-adv-x="345" 
d="M251 134q28 0 48 -19.5t20 -48.5v-66q0 -11 -3 -25t-10 -26t-19 -20.5t-31 -8.5h-14v32q7 4 16 10.5t9 17.5v20h-16q-29 0 -48.5 19.5t-19.5 46.5q0 29 19.5 48.5t48.5 19.5zM92 134q29 0 48.5 -19.5t19.5 -48.5v-66q0 -11 -2.5 -25t-9 -26t-18.5 -20.5t-31 -8.5h-16v32
q8 4 16.5 10.5t8.5 17.5v20h-16q-27 0 -47.5 19.5t-20.5 46.5q0 29 20.5 48.5t47.5 19.5z" />
    <glyph glyph-name="dagger" unicode="&#x2020;" horiz-adv-x="525" 
d="M499 543v-123h-175v-677h-123v677h-175v123h175v157h123v-157h175z" />
    <glyph glyph-name="bullet" unicode="&#x2022;" horiz-adv-x="436" 
d="M219 532q38 0 71 -14.5t57.5 -39t39 -57.5t14.5 -71t-14.5 -71.5t-39 -58.5t-57.5 -39.5t-71 -14.5t-71.5 14.5t-58.5 39.5t-39.5 58.5t-14.5 71.5t14.5 71t39.5 57.5t58.5 39t71.5 14.5z" />
    <glyph glyph-name="perthousand" unicode="&#x2030;" horiz-adv-x="904" 
d="M175 343q-28 0 -53 11t-43.5 29.5t-29 43.5t-10.5 53v84q0 28 10.5 53t29 43.5t43.5 29t53 10.5h16q28 0 53 -10.5t43.5 -29t29.5 -43.5t11 -53v-84q0 -28 -11 -53t-29.5 -44t-43.5 -29.5t-53 -10.5h-16zM119 480q0 -23 17 -39t39 -16h16q24 0 40.5 16t16.5 39v84
q0 22 -16.5 38t-40.5 16h-16q-22 0 -39 -16t-17 -38v-84zM598 700l-404 -700h-96l405 700h95zM732 355q28 0 53 -11t43.5 -29.5t29 -43.5t10.5 -53v-82q0 -28 -10.5 -53t-29 -43.5t-43.5 -29t-53 -10.5h-18q-27 0 -52 10t-44 29q-39 -39 -95 -39h-18q-28 0 -53 10.5
t-43.5 29t-29.5 43.5t-11 53v82q0 28 11 53t29.5 43.5t43.5 29.5t53 11h18q56 0 95 -39q19 19 44 29t52 10h18zM578 218q0 24 -16 40.5t-39 16.5h-18q-23 0 -39 -16.5t-16 -40.5v-82q0 -23 16 -39.5t39 -16.5h18q23 0 39 16.5t16 39.5v82zM787 218q0 24 -16 40.5t-39 16.5
h-18q-23 0 -39 -16.5t-16 -40.5v-82q0 -23 16 -39.5t39 -16.5h18q23 0 39 16.5t16 39.5v82z" />
    <glyph glyph-name="guilsinglleft" unicode="&#x2039;" horiz-adv-x="385" 
d="M189 350l173 -193h-146l-193 193l193 193h146z" />
    <glyph glyph-name="guilsinglright" unicode="&#x203a;" horiz-adv-x="385" 
d="M362 350l-193 -193h-146l170 193l-170 193h146l120 -120z" />
    <glyph glyph-name="Euro" unicode="&#x20ac;" horiz-adv-x="612" 
d="M344 582q-38 0 -67 -24t-37 -58h193v-120h-198v-62h198v-118h-193q8 -36 37 -59t67 -23h230v-118h-230q-43 0 -82 15t-69 42t-49.5 63.5t-24.5 79.5h-77v118h75v62h-75v120h77q5 42 24.5 78.5t49.5 63.5t69 42.5t82 15.5h230v-118h-230z" />
    <glyph glyph-name="trademark" unicode="&#x2122;" horiz-adv-x="629" 
d="M21 700h250v-45h-102v-228h-46v228h-102v45zM526 700h65v-273h-47v212l-78 -128h-25l-77 128v-212h-48v273h66l71 -118z" />
    <glyph glyph-name="radical" unicode="&#x221a;" horiz-adv-x="536" 
d="M559 873l-275 -996l-156 339h-105v91h132l88 -193l203 759h113z" />
    <glyph glyph-name="notequal" unicode="&#x2260;" horiz-adv-x="559" 
d="M359 405l-32 -112h186v-120h-220l-50 -173h-128l50 173h-120v120h155l31 112h-186v120h223l50 175h125l-50 -175h120v-120h-154z" />
    <glyph glyph-name="lessequal" unicode="&#x2264;" horiz-adv-x="467" 
d="M36 -123v123h409v-123h-409zM147 350l298 -193h-223l-186 120v146l186 120h223z" />
    <glyph glyph-name="greaterequal" unicode="&#x2265;" horiz-adv-x="464" 
d="M21 -123v123h407v-123h-407zM428 423v-146l-184 -120h-223l295 193l-295 193h223z" />
    <glyph glyph-name="uniF000" unicode="&#xf000;" horiz-adv-x="729" 
d="M447 700q71 -180 129 -328q25 -63 49.5 -124.5t45 -113t35 -87.5t18.5 -47h-131q-33 82 -59 146t-51 127t-52.5 134.5t-65.5 167.5q-25 -64 -46 -116.5t-39 -98.5t-34.5 -87.5t-33.5 -84t-35.5 -88.5t-40.5 -100h-132l277 700h166z" />
    <glyph glyph-name="uniF001" unicode="&#xf001;" horiz-adv-x="743" 
d="M701 493q0 -41 -16.5 -78.5t-45.5 -64.5q29 -29 45.5 -66t16.5 -79q0 -43 -16.5 -80t-44.5 -65t-65.5 -44t-80.5 -16h-441v409h441q34 0 59 25t25 59q0 36 -25 60t-59 24h-441v123h441q43 0 80.5 -16.5t65.5 -44.5t44.5 -65.5t16.5 -80.5zM494 120q34 0 59 25t25 60
q0 34 -25 59t-59 25h-318v-169h318z" />
    <glyph glyph-name="uniF002" unicode="&#xf002;" horiz-adv-x="760" 
d="M405 700q66 0 125 -25.5t103 -69.5t69.5 -103t25.5 -125v-57q0 -66 -25.5 -124.5t-69.5 -102t-103 -68.5t-125 -25h-350v436h121v-316h229q42 0 78.5 16t64 43t43.5 63.5t16 77.5v57q0 42 -16 78.5t-43.5 63.5t-64 42.5t-78.5 15.5h-350v123h350z" />
    <glyph glyph-name="uniF003" unicode="&#xf003;" horiz-adv-x="614" 
d="M31 293v121h493v-121h-493zM590 125v-123h-559v123h559zM590 702v-120h-559v120h559z" />
    <glyph glyph-name="uniF004" unicode="&#xf004;" horiz-adv-x="617" 
d="M540 414v-121h-372v-291h-123v412h495zM606 702v-120h-561v120h561z" />
    <glyph glyph-name="uniF005" unicode="&#xf005;" horiz-adv-x="772" 
d="M355 577q-41 0 -77.5 -15.5t-63.5 -42.5t-43 -63.5t-16 -78.5v-57q0 -41 16 -77.5t43 -63.5t63.5 -43t77.5 -16h241v289h122v-409h-363q-67 0 -125.5 25t-102.5 68.5t-69.5 102t-25.5 124.5v57q0 67 25.5 125.5t69.5 102.5t102.5 69.5t125.5 25.5h363v-123h-363z" />
    <glyph glyph-name="uniF006" unicode="&#xf006;" horiz-adv-x="707" 
d="M182 493l-123 -123v330h123v-207zM352 348l350 -348h-173l-88 89l-259 259l350 352h172zM59 325l123 -120v-205h-123v325z" />
    <glyph glyph-name="uniF007" unicode="&#xf007;" horiz-adv-x="819" 
d="M57 609l123 -202v-407h-123v609zM762 609v-609h-123v405zM639 543l-200 -329h-62l-156 259l-134 227h136l186 -302l184 302h139z" />
    <glyph glyph-name="uniF008" unicode="&#xf008;" horiz-adv-x="760" 
d="M57 582l123 -173v-409h-123v582zM532 241l170 -241h-150l-320 457l-170 243h147zM702 700v-580l-122 175v405h122z" />
    <glyph glyph-name="uniF009" unicode="&#xf009;" horiz-adv-x="714" 
d="M456 700q49 0 92 -18.5t75 -51t50.5 -75.5t18.5 -91q0 -49 -18.5 -92t-50.5 -75t-75 -51t-92 -19h-286v-227h-123v348h409q24 0 45 9t36 25t24 37t9 45t-9 44.5t-24 35.5t-36 24t-45 9h-409v123h409z" />
    <glyph glyph-name="uniF00A" unicode="&#xf00a;" horiz-adv-x="793" 
d="M414 700q72 0 136 -28t111.5 -75.5t75 -111t27.5 -135.5q0 -67 -23.5 -127t-65 -106.5t-97 -76.5t-120.5 -38v-132h-123v480h123v-234q38 10 71 32.5t57 53t37.5 68.5t13.5 80q0 50 -19 93.5t-52 76.5t-76.5 52t-93.5 19t-94 -19t-76.5 -52t-51.5 -76.5t-19 -93.5
q0 -63 29.5 -116.5t79.5 -85.5v-130q-52 18 -95 50.5t-74.5 75.5t-49 95.5t-17.5 110.5q0 72 27.5 135.5t75 111t111.5 75.5t136 28h36z" />
    <glyph glyph-name="uniF00B" unicode="&#xf00b;" horiz-adv-x="733" 
d="M583 257q-37 -19 -75 -25l193 -230h-159l-189 225l-104 121h218q24 0 45 9t36.5 25t25 37t9.5 45t-9.5 44.5t-25 35.5t-36.5 24t-45 9h-287v-575h-120v698h407q48 0 91 -18.5t75.5 -51t51 -75.5t18.5 -91q0 -67 -33.5 -121.5t-86.5 -85.5z" />
    <glyph glyph-name="uniF00C" unicode="&#xf00c;" horiz-adv-x="722" 
d="M570 257q-34 -19 -73 -25l193 -230h-159l-189 225h-172v-225h-123v346h409q24 0 45 9t36 25t24 37t9 45t-9 44.5t-24 35.5t-36 24t-45 9h-409v123h409q49 0 92 -18.5t75 -51t50.5 -75.5t18.5 -91q0 -67 -34 -121.5t-88 -85.5z" />
    <glyph glyph-name="uniF00D" unicode="&#xf00d;" horiz-adv-x="650" 
d="M263 0v498h123v-498h-123zM647 698v-121h-645v121h645z" />
    <glyph glyph-name="uniF00E" unicode="&#xf00e;" horiz-adv-x="720" 
d="M325 216l84 -216h-130l-277 700h130zM718 700l-255 -645l-66 163l191 482h130z" />
    <glyph glyph-name="uniF00F" unicode="&#xf00f;" horiz-adv-x="1005" 
d="M291 168l48 -168h-125l-207 700h127zM564 700l177 -700h-132l-107 441l-99 -409l-69 234l105 434h125zM998 700l-196 -659l-56 232l125 427h127z" />
    <glyph glyph-name="uniF010" unicode="&#xf010;" horiz-adv-x="730" 
d="M443 350l279 -350h-154l-205 252l-406 -509h-155l484 607l-279 350h154l202 -252l205 252h154z" />
    <glyph glyph-name="uniF011" unicode="&#xf011;" horiz-adv-x="729" 
d="M927 -257h-154l-409 509l-203 -252h-154l279 350l-279 350h154l203 -252l202 252h157l-282 -350z" />
    </font>
</defs>
</svg>
