<?xml version="1.0" standalone="no"?>
<!DOCTYPE svg PUBLIC "-//W3C//DTD SVG 1.1//EN" "http://www.w3.org/Graphics/SVG/1.1/DTD/svg11.dtd" >
<svg xmlns="http://www.w3.org/2000/svg" xmlns:xlink="http://www.w3.org/1999/xlink" version="1.1">
<metadata>
Created by FontForge 20170731 at Sat Jul 10 11:45:45 2021
 By Aleksey,,,
Alacrity Sans fonts (c) asenbayu 2020. All Rights Reserved
</metadata>
<defs>
<font id="AlacritySansBlack" horiz-adv-x="623" >
  <font-face 
    font-family="Alacrity Sans Black"
    font-weight="900"
    font-stretch="normal"
    units-per-em="1000"
    panose-1="0 0 0 0 0 0 0 0 0 0"
    ascent="800"
    descent="-200"
    x-height="536"
    cap-height="700"
    bbox="-188 -257 1155 873"
    underline-thickness="50"
    underline-position="-175"
    unicode-range="U+000A-F011"
  />
<missing-glyph horiz-adv-x="527" 
d="M477 700v-700h-427v700h427zM263 371l186 309h-371zM71 650v-601l180 301zM79 21h370l-185 308zM457 47v605l-181 -302z" />
    <glyph glyph-name=".notdef" horiz-adv-x="527" 
d="M477 700v-700h-427v700h427zM263 371l186 309h-371zM71 650v-601l180 301zM79 21h370l-185 308zM457 47v605l-181 -302z" />
    <glyph glyph-name=".null" horiz-adv-x="0" 
 />
    <glyph glyph-name=".null" horiz-adv-x="0" 
 />
    <glyph glyph-name="uni000D" unicode="&#xd;" horiz-adv-x="0" 
 />
    <glyph glyph-name="uni000A" unicode="&#xa;" horiz-adv-x="0" 
 />
    <glyph glyph-name="space" unicode=" " horiz-adv-x="390" 
 />
    <glyph glyph-name="exclam" unicode="!" horiz-adv-x="287" 
d="M239 700l-16 -507h-161l-14 507h191zM143 159q33 0 56.5 -23.5t23.5 -55.5q0 -35 -23.5 -57.5t-56.5 -22.5q-32 0 -55.5 22.5t-23.5 57.5q0 32 23.5 55.5t55.5 23.5z" />
    <glyph glyph-name="quotedbl" unicode="&#x22;" horiz-adv-x="413" 
d="M302 700q16 0 30.5 -6.5t25.5 -17t17 -25t6 -31.5v-74q0 -19 -4.5 -37t-14.5 -31.5t-25.5 -21.5t-36.5 -8h-34v54l11 5q17 5 17 12.5t-3 21.5q-29 4 -49 26.5t-20 52.5q0 17 6.5 31.5t17.5 25t25.5 17t30.5 6.5zM107 700q32 0 55.5 -23.5t23.5 -56.5v-74q0 -19 -5 -37
t-15 -31.5t-25.5 -21.5t-36.5 -8h-34v54l12 5q17 5 17 12.5t-4 21.5q-29 4 -48.5 26.5t-19.5 52.5q0 33 23.5 56.5t56.5 23.5z" />
    <glyph glyph-name="numbersign" unicode="#" horiz-adv-x="895" 
d="M691 395l-25 -113h138l-36 -171h-137l-22 -111h-178l25 111h-115l-23 -111h-175l22 111h-136l39 171h132l22 113h-132l37 173h131l28 132h175l-27 -132h115l28 132h175l-28 -132h141l-38 -173h-136zM513 395h-113l-23 -113h113z" />
    <glyph glyph-name="dollar" unicode="$" horiz-adv-x="718" 
d="M520 414q52 -17 87.5 -47.5t53.5 -68t19 -78t-15.5 -78t-51 -69t-86.5 -50.5q-17 -7 -38.5 -11t-43.5 -7v-105h-173v107q-35 7 -70 19t-65.5 30t-54 42.5t-35.5 56.5q-3 14 -6 28.5t-3 30.5v4h177q9 -22 27 -35.5t39.5 -20.5t44.5 -9.5t44 -2.5q27 -2 53.5 3t46.5 15
q26 11 36 24.5t7.5 27t-17 25t-38.5 19.5q-41 12 -87 17t-88 12q-30 7 -60 16t-58 23q-31 14 -56.5 36.5t-40.5 51t-18.5 61.5t8.5 67q16 46 51.5 75.5t78.5 46.5q20 8 41 14t43 9v93h173v-95q24 -5 48.5 -12.5t46.5 -19.5q21 -10 38 -20.5t30.5 -23.5t25 -29.5t22.5 -37.5
l-157 -75q-15 28 -45 44.5t-65 23t-71.5 3.5t-63.5 -14q-14 -5 -23 -13.5t-9 -18.5q0 -23 52 -37q9 -3 17 -5t15 -4q54 -10 107 -15.5t107 -22.5z" />
    <glyph glyph-name="percent" unicode="%" horiz-adv-x="691" 
d="M602 700l-404 -700h-109l404 700h109zM516 361q29 0 54.5 -11t45 -30t30.5 -45t11 -55v-81q0 -29 -11 -54.5t-30.5 -44t-45 -29.5t-54.5 -11h-16q-29 0 -54.5 11t-45 29.5t-30.5 44t-11 54.5v81q0 29 11 55t30.5 45t45 30t54.5 11h16zM566 220q0 21 -15 35.5t-35 14.5
h-16q-20 0 -35 -14.5t-15 -35.5v-81q0 -21 15 -34.5t35 -13.5h16q20 0 35 13.5t15 34.5v81zM175 339q-29 0 -54.5 10.5t-45 29.5t-30.5 44t-11 54v82q0 29 11 54.5t30.5 45t45 30.5t54.5 11h16q29 0 54.5 -11t45 -30.5t30.5 -45t11 -54.5v-82q0 -29 -11 -54t-30.5 -44
t-45 -29.5t-54.5 -10.5h-16zM125 477q0 -19 15 -33.5t35 -13.5h16q20 0 35 14t15 33v82q0 20 -15 35t-35 15h-16q-20 0 -35 -15t-15 -35v-82z" />
    <glyph glyph-name="ampersand" unicode="&#x26;" horiz-adv-x="712" 
d="M706 -2h-209l-61 70q-47 -38 -103 -57t-116 -9q-57 9 -102.5 43t-65.5 89q-8 20 -11.5 43t-1.5 46q7 57 38.5 96.5t76.5 66.5q-3 5 -6.5 9.5t-6.5 9.5q-29 39 -37.5 89.5t10.5 98.5q12 27 30.5 47t42.5 33t51 19t55 6q55 0 103 -21.5t72 -74.5q11 -19 13.5 -40t2.5 -44
q-2 -32 -14 -62t-31 -56q-11 -12 -22.5 -24.5t-25.5 -23.5l52 -59l100 112l111 -103l-111 -120zM290 557q-14 0 -25 -9.5t-11 -24.5q2 -14 13 -31t23 -31q16 11 28.5 26.5t12.5 32.5q0 19 -12 28t-29 9zM270 150q17 2 33.5 10.5t31.5 19.5l-84 95q-19 -12 -30 -27.5
t-15 -38.5q0 -12 2.5 -23.5t11.5 -19.5q10 -11 23 -14.5t27 -1.5z" />
    <glyph glyph-name="quotesingle" unicode="'" horiz-adv-x="218" 
d="M107 700q32 0 55.5 -23.5t23.5 -55.5v-75q0 -19 -5 -36.5t-15.5 -31t-25.5 -22t-36 -8.5h-36v55l14 4q15 5 15 12.5t-2 21.5q-29 4 -48.5 26.5t-19.5 53.5q0 32 22.5 55.5t57.5 23.5z" />
    <glyph glyph-name="parenleft" unicode="(" horiz-adv-x="492" 
d="M425 670q-112 -88 -159.5 -201.5t-47.5 -248.5q0 -133 47.5 -246t159.5 -204l7 -6v-21h-177q-55 45 -95 101t-66.5 118t-39.5 128t-13 133q0 66 13 131.5t39.5 127t66.5 117t95 101.5h177v-23z" />
    <glyph glyph-name="parenright" unicode=")" horiz-adv-x="492" 
d="M237 700q56 -46 96 -101.5t66.5 -117t39 -127t12.5 -131.5q0 -67 -12.5 -133t-38.5 -128t-66 -118t-94 -101h-180v21l9 6q56 45 95.5 96.5t64.5 107.5t36 118t11 128q0 68 -11 130t-36 118.5t-64.5 107t-95.5 94.5l-9 7v23h177z" />
    <glyph glyph-name="asterisk" unicode="*" horiz-adv-x="447" 
d="M315 514l103 -39l-64 -111l-84 70l18 -109h-129l18 109l-84 -70l-64 111l102 39l-102 36l64 111l84 -70l-18 109h129l-18 -109l84 70l64 -111z" />
    <glyph glyph-name="plus" unicode="+" horiz-adv-x="551" 
d="M518 436v-172h-159v-157h-170v157h-157v172h157v157h170v-157h159z" />
    <glyph glyph-name="comma" unicode="," horiz-adv-x="209" 
d="M104 161q32 0 55.5 -23.5t23.5 -55.5v-75q0 -19 -5 -36.5t-15 -31t-25.5 -22t-36.5 -8.5h-34v55l12 4q15 5 15 12.5t-2 21.5q-29 4 -48.5 26.5t-19.5 53.5q0 32 23.5 55.5t56.5 23.5z" />
    <glyph glyph-name="hyphen" unicode="-" horiz-adv-x="541" 
d="M27 264v172h486v-172h-486z" />
    <glyph glyph-name="period" unicode="." horiz-adv-x="208" 
d="M104 161q32 0 55.5 -22.5t23.5 -56.5q0 -16 -6.5 -30.5t-17 -25.5t-25 -17.5t-30.5 -6.5t-31 6.5t-25.5 17.5t-17 25.5t-6.5 30.5q0 34 23.5 56.5t56.5 22.5z" />
    <glyph glyph-name="slash" unicode="/" horiz-adv-x="416" 
d="M400 700l-202 -700h-180l202 700h180z" />
    <glyph glyph-name="zero" unicode="0" horiz-adv-x="640" 
d="M595 255q0 -53 -20.5 -99.5t-55.5 -81t-81.5 -54.5t-99.5 -20h-36q-53 0 -99.5 20t-81.5 54.5t-55.5 81t-20.5 99.5v188q0 53 20.5 99.5t55.5 81.5t81.5 55.5t99.5 20.5h36q53 0 99.5 -20.5t81.5 -55.5t55.5 -81.5t20.5 -99.5v-188zM422 443q0 36 -24.5 60t-59.5 24h-36
q-36 0 -60 -24t-24 -60v-188q0 -35 24 -60t60 -25h36q35 0 59.5 25t24.5 60v188z" />
    <glyph glyph-name="one" unicode="1" horiz-adv-x="380" 
d="M325 700v-700h-173v505l-91 -23l-43 166l193 52h114z" />
    <glyph glyph-name="two" unicode="2" horiz-adv-x="634" 
d="M289 225q-9 0 -19.5 -3.5t-19.5 -10.5t-14.5 -16.5t-5.5 -21.5h357v-173h-543v130q0 73 30.5 136.5t96.5 99.5q26 15 56 23.5t62 8.5h53h13q26 5 41 19t19 31.5t-3 35.5t-25 30q-16 13 -45 13h-53q-26 0 -45.5 -16.5t-24.5 -40.5h-175q3 48 24 90t54 73t76 49t91 18h53
q73 0 132.5 -37.5t89.5 -98.5q29 -60 24 -120t-35.5 -109t-82 -79.5t-115.5 -30.5h-66z" />
    <glyph glyph-name="three" unicode="3" horiz-adv-x="604" 
d="M217 171h129q19 0 32.5 14t13.5 33t-13.5 32.5t-32.5 13.5h-222v172h193q19 0 32 13.5t13 32.5t-13 32t-32 13h-273v173h273q44 0 83.5 -14.5t69.5 -41t47.5 -63.5t17.5 -81q0 -15 -6.5 -34t-17.5 -37.5t-26 -34.5t-32 -24q22 -2 42 -18t35.5 -38.5t24.5 -48t9 -47.5
q0 -45 -17 -84.5t-46.5 -69.5t-69.5 -47t-85 -17h-302v170h173v1z" />
    <glyph glyph-name="four" unicode="4" horiz-adv-x="632" 
d="M32 343l275 357h230v-366h54v-170h-54v-164h-173v164h-332v179zM200 334h164v193z" />
    <glyph glyph-name="five" unicode="5" horiz-adv-x="610" 
d="M336 173q26 0 43.5 17.5t17.5 43.5v14q0 26 -17.5 43.5t-43.5 17.5h-55q-17 0 -30.5 -7.5t-21.5 -19.5l-16 4l-152 39l-16 5l27 370h452v-173h-302l-9 -84q12 13 27 20.5t31 11.5t33 5.5t32 1.5q48 0 91 -18.5t74.5 -50t50 -74.5t18.5 -91v-14q0 -48 -18.5 -91t-50 -74.5
t-74.5 -50t-91 -18.5h-55q-44 0 -83.5 15t-70.5 42t-51 63.5t-26 79.5h179q8 -14 22.5 -20.5t29.5 -6.5h55z" />
    <glyph glyph-name="six" unicode="6" horiz-adv-x="592" 
d="M485 411q32 -29 51.5 -71t19.5 -87v-33q0 -46 -17.5 -86t-47.5 -70t-70.5 -47t-85.5 -17h-82q-45 0 -85 17t-70 47t-47.5 70t-17.5 86v33q0 32 9.5 62t24.5 55q3 4 6.5 8.5t6.5 7.5l230 314h214l-191 -257q20 7 41.5 7.5t42 -4.5t38.5 -14t30 -21zM383 253
q0 18 -13.5 32.5t-34.5 14.5h-82q-10 0 -19.5 -4.5t-14.5 -11.5l-6 -9q-4 -5 -6 -11t-2 -11v-33q0 -20 15 -34.5t33 -14.5h82q21 0 34.5 14.5t13.5 34.5v33z" />
    <glyph glyph-name="seven" unicode="7" horiz-adv-x="553" 
d="M26 700h498v-173h-3l-247 -527h-191l250 527h-307v173z" />
    <glyph glyph-name="eight" unicode="8" horiz-adv-x="640" 
d="M381 275h-118h-5q-20 0 -33.5 -15t-13.5 -37q0 -21 14.5 -37t37.5 -16h114q22 0 37 16t15 37q0 22 -14 37t-34 15zM263 0q-47 0 -88 17.5t-71.5 48t-48 71t-17.5 86.5q0 23 7.5 47t21.5 45.5t33.5 38t42.5 23.5q-33 21 -52 55.5t-19 65.5q0 44 17 81t45.5 64t66.5 42
t80 15h77q43 0 81 -15t66.5 -42t45.5 -64t17 -81q0 -31 -19.5 -65.5t-51.5 -55.5q23 -7 42 -23.5t33 -38t22 -45.5t8 -47q0 -46 -17.5 -86.5t-48 -71t-71.5 -48t-88 -17.5h-114zM281 527q-17 0 -27.5 -12t-10.5 -29q0 -14 7.5 -24.5t21.5 -13.5h86h10q14 3 21.5 13.5
t7.5 24.5q0 17 -11.5 29t-27.5 12h-77z" />
    <glyph glyph-name="nine" unicode="9" horiz-adv-x="592" 
d="M339 700q45 0 85.5 -17.5t70.5 -47.5t47.5 -70.5t17.5 -85.5v-31q0 -32 -9.5 -62t-25.5 -56q-3 -5 -6.5 -9.5t-6.5 -9.5l-230 -311h-213l191 257q-19 -7 -41 -7.5t-43 4t-38.5 13t-29.5 19.5q-33 31 -52 72.5t-19 89.5v31q0 45 17.5 85.5t47.5 70.5t70 47.5t85 17.5h82z
M387 479q0 19 -14.5 34t-33.5 15h-82q-20 0 -34 -15t-14 -34v-31q0 -20 14 -34t34 -14h82q21 0 34 16l7 7q7 10 7 25v31z" />
    <glyph glyph-name="colon" unicode=":" horiz-adv-x="230" 
d="M116 159q32 0 55.5 -23.5t23.5 -55.5q0 -35 -23.5 -57.5t-55.5 -22.5q-35 0 -58.5 22.5t-23.5 57.5q0 16 6.5 30.5t17.5 25t26 17t32 6.5zM116 411q-17 0 -32 6.5t-26 17.5t-17.5 25.5t-6.5 30.5q0 34 23.5 56.5t58.5 22.5q32 0 55.5 -22.5t23.5 -56.5q0 -16 -6.5 -30.5
t-17 -25.5t-25 -17.5t-30.5 -6.5z" />
    <glyph glyph-name="semicolon" unicode=";" horiz-adv-x="229" 
d="M114 411q-33 0 -56.5 23.5t-23.5 56.5t23.5 56t56.5 23q32 0 55.5 -23t23.5 -56t-23.5 -56.5t-55.5 -23.5zM114 159q16 0 30.5 -6.5t25 -17.5t17 -26t6.5 -32v-73q0 -19 -5 -36.5t-15 -31t-25.5 -21.5t-36.5 -8h-34v54l12 5q15 5 15 12.5t-2 21.5q-29 3 -48.5 25.5
t-19.5 51.5q0 35 23.5 58.5t56.5 23.5z" />
    <glyph glyph-name="less" unicode="&#x3c;" horiz-adv-x="572" 
d="M261 350l298 -193h-316l-214 138v107l214 141h316z" />
    <glyph glyph-name="equal" unicode="=" horiz-adv-x="542" 
d="M38 386v173h466v-173h-466zM38 141v173h466v-173h-466z" />
    <glyph glyph-name="greater" unicode="&#x3e;" horiz-adv-x="572" 
d="M543 402v-107l-214 -138h-316l295 193l-295 193h316z" />
    <glyph glyph-name="question" unicode="?" horiz-adv-x="567" 
d="M282 159q32 0 55.5 -23.5t23.5 -55.5q0 -35 -23.5 -57.5t-55.5 -22.5q-35 0 -57.5 22.5t-22.5 57.5q0 32 22.5 55.5t57.5 23.5zM530 534q15 -60 -3 -116t-61 -98q-14 -15 -29 -26t-32 -21q-9 -5 -19.5 -13t-17.5 -19q-2 -5 -2 -16v-25h-168v16q0 65 36 112.5t91 78.5
q31 17 40.5 41t2.5 45.5t-28.5 36t-53.5 11.5q-42 -2 -67.5 -27.5t-25.5 -68.5v-27h-168v27q0 58 19 105t53.5 80.5t82.5 51.5t106 18q41 0 80 -10.5t72 -31t57.5 -51.5t34.5 -73z" />
    <glyph glyph-name="at" unicode="@" horiz-adv-x="1035" 
d="M973 398q15 -51 20.5 -114t-3.5 -125t-35.5 -117t-74.5 -89q-35 -24 -77.5 -31.5t-81.5 8.5q-38 14 -63 41.5t-37 62.5q-29 -19 -65.5 -28.5t-71.5 -9.5h-20q-51 0 -98 25q-29 17 -50 41.5t-34 53t-18.5 60.5t-4.5 63q3 39 17 76.5t37.5 69t56 55t71.5 33.5q25 7 53 7
h39.5t41 -2t40 -7t35.5 -14q19 -11 32 -25.5t27 -31.5q19 -24 28.5 -53t12.5 -58q5 -38 6 -74t1 -72q0 -6 0.5 -18t3 -24.5t7.5 -22t14 -10.5q9 0 16 8t9 15q18 36 26 79t5.5 88.5t-14.5 89.5t-34.5 80.5t-55.5 63.5t-77 38q-48 12 -91 10.5t-91 -1.5q-51 0 -96 -18.5
t-81 -49.5t-60.5 -72.5t-34.5 -87.5q-8 -32 -11 -70.5t1.5 -78.5t18 -79t38.5 -72q32 -41 81.5 -63t100.5 -27q56 -5 111 0l56 4t54 9l25 7l20 -127l-16 -7q-23 -12 -51.5 -19t-59 -10t-60.5 -4t-56 -1q-67 0 -131 20t-119 59q-51 36 -89 85t-57 109q-22 71 -21.5 150.5
t22 155.5t62.5 143.5t99 115.5q106 89 245 89q58 0 117.5 -1t114.5 -15q54 -13 97.5 -40.5t78 -65t59.5 -83.5t40 -97zM619 250q1 21 -6 39.5t-20 32.5t-31 22t-39 8t-40.5 -8t-34.5 -22.5t-24.5 -33.5t-11.5 -40v-23q-2 -21 4.5 -40t19.5 -32.5t30.5 -21.5t38.5 -8t40.5 8
t34.5 22.5t25 33.5t11 40z" />
    <glyph glyph-name="A" unicode="A" horiz-adv-x="725" 
d="M724 0h-184l-53 130h-250l-50 -130h-186l273 700h177zM362 450l-56 -148h113z" />
    <glyph glyph-name="B" unicode="B" horiz-adv-x="736" 
d="M480 170q19 0 33.5 14.5t14.5 33.5t-14.5 32.5t-33.5 13.5h-252v-94h252zM480 436q19 0 33.5 13.5t14.5 32.5t-14.5 32t-33.5 13h-252v-91h252zM698 482q0 -38 -11.5 -71.5t-31.5 -60.5q20 -27 31.5 -61.5t11.5 -70.5q0 -45 -17 -84.5t-47 -69.5t-69.5 -47t-84.5 -17
h-425v700h425q45 0 84.5 -17t69.5 -47t47 -69.5t17 -84.5z" />
    <glyph glyph-name="C" unicode="C" horiz-adv-x="760" 
d="M553 461q-26 38 -68.5 61t-93.5 23q-40 0 -75.5 -15.5t-62 -42t-42 -62t-15.5 -75.5q0 -41 15.5 -77t42 -63t62 -42.5t75.5 -15.5q51 0 93.5 23.5t68.5 63.5h188q-17 -52 -49 -96t-75.5 -75.5t-96.5 -49.5t-111 -18h-36q-72 0 -136 27.5t-111.5 75t-75 111.5t-27.5 136
t27.5 135.5t75 111t111.5 75.5t136 28h36q58 0 111 -18t96.5 -49.5t75.5 -75.5t49 -96h-188z" />
    <glyph glyph-name="D" unicode="D" horiz-adv-x="756" 
d="M407 702q67 0 125.5 -25.5t102 -69t68.5 -102.5t25 -125v-60q0 -66 -25 -125t-68.5 -102.5t-102 -69t-125.5 -25.5h-352v704h352zM407 170q31 0 58 11.5t47 32t31.5 48t11.5 58.5v60q0 30 -11.5 57.5t-31.5 48t-47 32.5t-58 12h-179v-360h179z" />
    <glyph glyph-name="E" unicode="E" horiz-adv-x="651" 
d="M228 436h320v-172h-320v-93h386v-171h-559v700h559v-173h-386v-91z" />
    <glyph glyph-name="F" unicode="F" horiz-adv-x="632" 
d="M228 436h322v-172h-322v-264h-173v700h559v-173h-386v-91z" />
    <glyph glyph-name="G" unicode="G" horiz-adv-x="766" 
d="M712 702v-172h-361q-31 0 -58.5 -12t-48 -32.5t-32 -48t-11.5 -57.5v-59q0 -32 11.5 -59.5t32 -47.5t48 -31.5t58.5 -11.5h188v93h-170v172h343v-438h-361q-67 0 -125.5 25.5t-102.5 69t-69.5 102.5t-25.5 125v60q0 66 25.5 125t69.5 102.5t102.5 69t125.5 25.5h361z" />
    <glyph glyph-name="H" unicode="H" horiz-adv-x="729" 
d="M503 700h170v-700h-170v264h-275v-264h-173v700h173v-264h275v264z" />
    <glyph glyph-name="I" unicode="I" horiz-adv-x="283" 
d="M55 0v700h173v-700h-173z" />
    <glyph glyph-name="J" unicode="J" horiz-adv-x="609" 
d="M181 171h138q15 0 27.5 6t22.5 16t15.5 23t5.5 27v457h172v-457q0 -50 -19 -94.5t-52 -77.5t-77.5 -52t-94.5 -19h-311v170h173v1z" />
    <glyph glyph-name="K" unicode="K" horiz-adv-x="705" 
d="M55 700h173v-350l259 350h216l-262 -352l259 -348h-215l-153 202l-104 144v-346h-173v700z" />
    <glyph glyph-name="L" unicode="L" horiz-adv-x="616" 
d="M55 700h173v-529h379v-171h-552v700z" />
    <glyph glyph-name="M" unicode="M" horiz-adv-x="845" 
d="M789 700v-700h-170v452l-96 -154l-50 -84h-100l-50 84l-95 154v-452h-173v700h225l143 -236l143 236h223z" />
    <glyph glyph-name="N" unicode="N" horiz-adv-x="807" 
d="M269 700l309 -441v441h172v-686l10 -14h-212l-323 459v-459h-170v700h214z" />
    <glyph glyph-name="O" unicode="O" horiz-adv-x="785" 
d="M409 700q73 0 137 -28t112 -75.5t76 -111t28 -135.5t-28 -136t-76 -111.5t-112 -75t-137 -27.5h-36q-72 0 -136 27.5t-111.5 75t-75 111.5t-27.5 136t27.5 135.5t75 111t111.5 75.5t136 28h36zM589 350q0 40 -15.5 75.5t-42.5 62t-63 42t-77 15.5q-40 0 -75.5 -15.5
t-62 -42t-42 -62t-15.5 -75.5q0 -41 15.5 -77t42 -63t62 -42.5t75.5 -15.5q41 0 77 15.5t63 42.5t42.5 63t15.5 77z" />
    <glyph glyph-name="P" unicode="P" horiz-adv-x="718" 
d="M228 232v-232h-173v700h409q49 0 92 -18.5t75 -50.5t50.5 -74.5t18.5 -90.5q0 -49 -18.5 -91.5t-50.5 -74t-75 -50t-92 -18.5h-236zM464 402q26 0 45 19t19 45t-19 43.5t-45 17.5h-236v-125h236z" />
    <glyph glyph-name="Q" unicode="Q" horiz-adv-x="813" 
d="M798 0h-222l-23 30q-32 -16 -67 -23t-73 -7h-39q-73 0 -136.5 27.5t-111 75t-75 111.5t-27.5 136t27.5 135.5t75 111t111 75.5t136.5 28h39q72 0 135.5 -28t111 -75.5t75 -111t27.5 -135.5q0 -61 -19.5 -115t-55.5 -99zM574 275q16 32 16 75q0 40 -15.5 75.5t-42.5 62
t-63 42t-77 15.5q-40 0 -75.5 -15.5t-62.5 -42t-42.5 -62t-15.5 -75.5q0 -41 15.5 -77t42.5 -63t62.5 -42.5t75.5 -15.5q27 0 55 9l-60 71l135 109z" />
    <glyph glyph-name="R" unicode="R" horiz-adv-x="727" 
d="M700 0h-204l-152 232h-116v-232h-173v700h411q48 0 90.5 -18.5t74.5 -50.5t50.5 -74.5t18.5 -90.5q0 -38 -12 -73t-33.5 -64.5t-50.5 -51.5t-63 -34zM466 402q24 0 43 19t19 45t-19 43.5t-43 17.5h-238v-125h238z" />
    <glyph glyph-name="S" unicode="S" horiz-adv-x="695" 
d="M488 473q-15 28 -45 44.5t-65.5 23t-71.5 3.5t-63 -14q-29 -11 -32 -32q0 -23 52 -37q9 -3 17 -5t15 -4q54 -10 108.5 -15.5t105.5 -22.5q52 -17 87.5 -47.5t53.5 -68t19.5 -78t-15 -78t-50.5 -69t-86 -50.5q-38 -14 -83 -18.5t-83 -4.5q-42 0 -90.5 8t-93 26.5t-80 48
t-50.5 72.5q-5 14 -8 28.5t-3 30.5v4h180q8 -22 25 -35.5t38.5 -20.5t45.5 -9.5t45 -2.5q26 -2 52 3t46 15q26 11 37 24.5t8 27t-17.5 25t-39.5 19.5q-41 12 -87 17t-88 12q-30 7 -60 16t-58 23q-31 14 -56.5 36.5t-40.5 51t-18.5 61.5t8.5 67q17 46 52 76t78 47
q36 14 77 21.5t80 7.5q46 0 97.5 -9t97.5 -32q21 -10 38 -20.5t30.5 -23.5t25 -29.5t22.5 -37.5z" />
    <glyph glyph-name="T" unicode="T" horiz-adv-x="662" 
d="M8 700h645v-173h-236v-527h-173v527h-236v173z" />
    <glyph glyph-name="U" unicode="U" horiz-adv-x="723" 
d="M41 700h173v-379q0 -31 12 -58t32 -47.5t47 -32.5t57 -12t57 12t47 32.5t31.5 47.5t11.5 58v379h173v-379q0 -67 -25 -125.5t-68.5 -102t-102 -68.5t-124.5 -25t-124.5 25t-102 68.5t-69 102t-25.5 125.5v379z" />
    <glyph glyph-name="V" unicode="V" horiz-adv-x="769" 
d="M769 700l-274 -700h-221l-275 700h184l200 -511l202 511h184z" />
    <glyph glyph-name="W" unicode="W" horiz-adv-x="1043" 
d="M184 700l134 -461l111 461h184l114 -461l132 461h179l-202 -700h-230l-84 348l-86 -348h-230l-202 700h180z" />
    <glyph glyph-name="X" unicode="X" horiz-adv-x="749" 
d="M220 700l154 -207l157 207h214l-261 -350l261 -350h-214l-157 207l-154 -207h-216l264 350l-264 350h216z" />
    <glyph glyph-name="Y" unicode="Y" horiz-adv-x="698" 
d="M434 0h-173v314l-18 25l-250 361h209l148 -211l145 211h209l-250 -361l-20 -28v-311z" />
    <glyph glyph-name="Z" unicode="Z" horiz-adv-x="684" 
d="M34 700h616v-184l-373 -346h373v-170h-616v182l373 345h-373v173z" />
    <glyph glyph-name="bracketleft" unicode="[" horiz-adv-x="357" 
d="M228 575v-707h104v-125h-277v957h277v-125h-104z" />
    <glyph glyph-name="backslash" unicode="\" horiz-adv-x="415" 
d="M397 0h-180l-200 700h180z" />
    <glyph glyph-name="bracketright" unicode="]" horiz-adv-x="358" 
d="M303 700v-957h-280v125h107v707h-107v125h280z" />
    <glyph glyph-name="asciicircum" unicode="^" horiz-adv-x="461" 
d="M425 541v-234l-194 220l-195 -220v234l141 159h107z" />
    <glyph glyph-name="underscore" unicode="_" horiz-adv-x="710" 
d="M55 -173v173h600v-173h-600z" />
    <glyph glyph-name="grave" unicode="`" horiz-adv-x="215" 
d="M195 559h-94l-86 141h130z" />
    <glyph glyph-name="a" unicode="a" horiz-adv-x="658" 
d="M434 543h173v-543h-173v48q-29 -23 -64 -35.5t-75 -12.5h-25q-50 0 -94.5 21t-77.5 57.5t-52 86t-19 105.5t19 106t52 87t77.5 58.5t94.5 21.5h25q40 0 75 -13t64 -37v50zM204 257q0 -22 8.5 -41.5t23.5 -34t35 -23t42 -8.5q21 0 40.5 8.5t34.5 23t23.5 34t8.5 41.5v29
q0 21 -8.5 40.5t-23.5 34.5t-34.5 23.5t-40.5 8.5q-22 0 -42 -8.5t-35 -23.5t-23.5 -34.5t-8.5 -40.5v-29z" />
    <glyph glyph-name="b" unicode="b" horiz-adv-x="660" 
d="M224 493q31 24 65.5 37t72.5 13h28q50 0 94.5 -21.5t77.5 -58.5t52 -87t19 -106t-19 -105.5t-52 -86t-77.5 -57.5t-94.5 -21h-28q-38 0 -72.5 12.5t-65.5 35.5v-48h-173v786h173v-293zM453 286q0 21 -8.5 40.5t-22.5 34.5t-33.5 23.5t-42.5 8.5q-22 0 -42 -8.5t-35 -23.5
t-23.5 -34.5t-8.5 -40.5v-29q0 -22 8.5 -41.5t23.5 -34t35 -23t42 -8.5q23 0 42.5 8.5t33.5 23t22.5 34t8.5 41.5v29z" />
    <glyph glyph-name="c" unicode="c" horiz-adv-x="612" 
d="M295 543h30q47 0 89.5 -15.5t77.5 -43t60 -64.5t37 -81h-180q-15 26 -41 41t-57 15q-24 0 -45 -8.5t-36.5 -24t-25 -36t-9.5 -44.5v-23q0 -23 9.5 -43.5t25 -36.5t36.5 -25t45 -9q31 0 57 17t41 43h180q-12 -45 -37 -82.5t-60 -64.5t-77.5 -42.5t-89.5 -15.5h-30
q-55 0 -104 21t-86 57.5t-58.5 86t-21.5 105.5t21.5 106t58.5 87t86 58.5t104 21.5z" />
    <glyph glyph-name="d" unicode="d" horiz-adv-x="658" 
d="M436 786h170v-786h-170v48q-31 -23 -66.5 -35.5t-74.5 -12.5h-25q-50 0 -94.5 21t-77.5 57.5t-52 86t-19 105.5t19 106t52 87t77.5 58.5t94.5 21.5h25q39 0 74.5 -13t66.5 -37v293zM207 257q0 -22 8.5 -41.5t22.5 -34t33.5 -23t41.5 -8.5t41.5 8.5t34 23t23 34t8.5 41.5
v29q0 21 -8.5 40.5t-23 34.5t-34 23.5t-41.5 8.5t-41.5 -8.5t-33.5 -23.5t-22.5 -34.5t-8.5 -40.5v-29z" />
    <glyph glyph-name="e" unicode="e" horiz-adv-x="621" 
d="M207 214q12 -29 40.5 -49t63.5 -20q17 0 33.5 6.5t30.5 14.5h200q-15 -37 -40.5 -67.5t-58 -52.5t-71 -34t-80.5 -12h-30q-55 0 -104 21t-86 57.5t-58.5 86t-21.5 105.5t21.5 106t58.5 87t86 58.5t104 21.5h30q56 0 105.5 -21.5t86 -58.5t57.5 -87t21 -106
q0 -14 -0.5 -28t-3.5 -28h-384zM416 327q-14 31 -42 49.5t-63 18.5t-63.5 -18.5t-40.5 -49.5h209z" />
    <glyph glyph-name="f" unicode="f" horiz-adv-x="363" 
d="M75 0v361h-45v173h45v64q0 38 15 72.5t41 60t60.5 40.5t72.5 15h118v-172h-118q-16 0 -16 -16v-64h96v-173h-96v-361h-173z" />
    <glyph glyph-name="g" unicode="g" horiz-adv-x="659" 
d="M608 23q0 -58 -22.5 -109t-61.5 -89t-90 -60t-108 -22h-18q-49 0 -93 15.5t-79.5 43.5t-61 66t-37.5 82h191q16 -16 36 -25t44 -9h18q22 0 42 8.5t35 23t23.5 34t8.5 41.5v25q-29 -23 -65 -35.5t-74 -12.5h-27q-49 0 -93.5 21t-77.5 57.5t-52.5 86t-19.5 105.5t19.5 106
t52.5 87t77.5 58.5t93.5 21.5h27q38 0 74 -13t65 -37v50h173v-520zM206 257q0 -22 8.5 -41.5t23.5 -34t34 -23t40 -8.5q22 0 42 8.5t35 23t23.5 34t8.5 41.5v29q0 21 -8.5 40.5t-23.5 34.5t-35 23.5t-42 8.5q-21 0 -40 -8.5t-34 -23.5t-23.5 -34.5t-8.5 -40.5v-29z" />
    <glyph glyph-name="h" unicode="h" horiz-adv-x="625" 
d="M221 489q35 32 68 43t69 11q45 0 86 -21.5t72.5 -58.5t50 -87t18.5 -106v-270h-173v245q0 20 -6.5 39.5t-19 35.5t-30 25.5t-39.5 9.5q-21 0 -38.5 -9.5t-29.5 -25.5t-18.5 -35.5t-6.5 -39.5v-245h-173v786h170v-297z" />
    <glyph glyph-name="i" unicode="i" horiz-adv-x="275" 
d="M51 543h172v-543h-172v543zM137 786q22 0 42 -8.5t35 -23.5t23.5 -35t8.5 -42q0 -23 -8.5 -43t-23.5 -35t-35 -24t-42 -9q-23 0 -43 9t-34.5 24t-23 35t-8.5 43q0 22 8.5 42t23 35t34.5 23.5t43 8.5z" />
    <glyph glyph-name="j" unicode="j" horiz-adv-x="275" 
d="M51 543h173v-611q0 -38 -15 -72.5t-41 -60.5t-61 -41t-74 -15h-109v173h109q7 0 12.5 4.5t5.5 11.5v611zM138 786q22 0 42 -8.5t35 -23.5t23.5 -35t8.5 -42q0 -23 -8.5 -43t-23.5 -35t-35 -24t-42 -9q-23 0 -43.5 9t-35.5 24t-24 35t-9 43q0 22 9 42t24 35t35.5 23.5
t43.5 8.5z" />
    <glyph glyph-name="k" unicode="k" horiz-adv-x="609" 
d="M51 786h168v-513l100 -153l80 -120h200l-180 273l177 270h-200l-77 -118l-100 -152v-273h-168v786z" />
    <glyph glyph-name="l" unicode="l" horiz-adv-x="275" 
d="M51 0v786h173v-786h-173z" />
    <glyph glyph-name="m" unicode="m" horiz-adv-x="959" 
d="M746 245q0 20 -7 39.5t-19.5 35.5t-30 25.5t-38.5 9.5q-19 0 -34 -8.5t-25.5 -22.5t-16.5 -32t-8 -37v-255h-173v245q0 41 -12.5 65.5t-31.5 35t-41 8t-41 -16.5t-31.5 -37.5t-12.5 -54.5v-245h-173v543h170v-54q38 35 81.5 46t84.5 2.5t76 -35t54 -66.5q13 21 28.5 40.5
t35.5 34.5t47 23.5t62 8.5q46 0 87.5 -21.5t73 -58.5t50 -87t18.5 -106v-270h-173v245z" />
    <glyph glyph-name="n" unicode="n" horiz-adv-x="625" 
d="M221 489q35 32 68 43t69 11q45 0 86 -21.5t72.5 -58.5t50 -87t18.5 -106v-270h-170v245q0 20 -7 39.5t-19.5 35.5t-30.5 25.5t-39 9.5q-22 0 -39.5 -9.5t-30 -25.5t-19 -35.5t-6.5 -39.5v-245h-173v543h170v-54z" />
    <glyph glyph-name="o" unicode="o" 
d="M298 -7q-56 0 -106 21.5t-87 58.5t-58.5 86.5t-21.5 104.5q0 56 21.5 105.5t58.5 86.5t87 58.5t106 21.5h27q56 0 106 -21.5t87 -58.5t58.5 -86.5t21.5 -105.5q0 -55 -21.5 -104.5t-58.5 -86.5t-87 -58.5t-106 -21.5h-27zM311 384q-23 0 -43.5 -9.5t-36 -25.5
t-24.5 -37.5t-9 -45.5q0 -25 9 -47t24.5 -38.5t36 -25.5t43.5 -9q24 0 45 9.5t36 26t24 38t9 46.5q0 24 -9 45.5t-24 37.5t-36 25.5t-45 9.5z" />
    <glyph glyph-name="p" unicode="p" horiz-adv-x="660" 
d="M224 -257h-173v800h173v-50q31 24 65.5 37t72.5 13h28q50 0 94.5 -21.5t77.5 -58.5t52 -87t19 -106t-19 -105.5t-52 -86t-77.5 -57.5t-94.5 -21h-28q-38 0 -72.5 12.5t-65.5 35.5v-305zM453 286q0 21 -8.5 40.5t-22.5 34.5t-33.5 23.5t-42.5 8.5q-22 0 -41.5 -8.5
t-33.5 -23.5t-22.5 -34.5t-8.5 -40.5v-29q0 -22 8.5 -41.5t22.5 -34t33.5 -23t41.5 -8.5q23 0 42.5 8.5t33.5 23t22.5 34t8.5 41.5v29z" />
    <glyph glyph-name="q" unicode="q" horiz-adv-x="659" 
d="M435 48q-29 -23 -64 -35.5t-75 -12.5h-27q-49 0 -93.5 21t-77.5 57.5t-52.5 86t-19.5 105.5t19.5 106t52.5 87t77.5 58.5t93.5 21.5h27q40 0 75 -13t64 -37v50h173v-800h-173v305zM206 257q0 -22 8.5 -41.5t23.5 -34t34 -23t40 -8.5q22 0 42 8.5t35 23t23.5 34t8.5 41.5
v29q0 21 -8.5 40.5t-23.5 34.5t-35 23.5t-42 8.5q-21 0 -40 -8.5t-34 -23.5t-23.5 -34.5t-8.5 -40.5v-29z" />
    <glyph glyph-name="r" unicode="r" horiz-adv-x="445" 
d="M51 543h168v-59q10 11 25.5 22t34 19t38.5 13t39 5h72v-175l-27 9q-26 9 -55.5 7t-55.5 -13t-45.5 -31.5t-25.5 -48.5v-291h-168v543z" />
    <glyph glyph-name="s" unicode="s" horiz-adv-x="556" 
d="M405 320q26 -12 49 -26t40 -32t27.5 -40t10.5 -49q0 -47 -29.5 -89.5t-91.5 -65.5q-31 -12 -63.5 -15t-63.5 -3q-47 0 -89.5 10t-77 29.5t-58.5 48t-34 64.5l157 32q19 -24 48.5 -38t58.5 -14q10 -2 20 -1t18 3q28 8 23 18.5t-27 17.5q-29 9 -64 19.5t-69.5 24
t-64.5 30.5t-50 38q-36 42 -36 95q2 44 32.5 83.5t78.5 59.5q29 11 60 17t60 6q32 0 64.5 -4.5t63.5 -15.5t58.5 -28t48.5 -43l-96 -102q-15 15 -35.5 26.5t-43 19t-45 11t-40.5 2.5q-23 -2 -29 -10.5t23 -16.5q27 -11 73 -25t93 -37z" />
    <glyph glyph-name="t" unicode="t" horiz-adv-x="433" 
d="M20 420v123h55v157h172v-157h132v-123h-132v-202q0 -34 12 -50t47 -16h100v-152h-145q-16 0 -29.5 3t-25.5 8q-32 11 -58.5 32t-43.5 50q-8 14 -14.5 28t-10.5 29q-4 14 -4.5 27.5t-0.5 27.5v215h-54z" />
    <glyph glyph-name="u" unicode="u" horiz-adv-x="625" 
d="M403 52q-35 -31 -68 -41.5t-69 -10.5q-45 0 -86 21t-72.5 57.5t-50 86t-18.5 105.5v273h173v-245q0 -21 6.5 -40.5t19 -34.5t30 -24.5t39.5 -9.5q21 0 38.5 9.5t29.5 24.5t18.5 34.5t6.5 40.5v245h173v-543h-170v52z" />
    <glyph glyph-name="v" unicode="v" horiz-adv-x="631" 
d="M185 543l131 -345l130 345h180l-207 -543h-207l-207 543h180z" />
    <glyph glyph-name="w" unicode="w" horiz-adv-x="844" 
d="M507 543l75 -263l75 263h180l-182 -543h-157l-77 275l-78 -275h-156l-180 543h177l75 -263l75 263h173z" />
    <glyph glyph-name="x" unicode="x" horiz-adv-x="616" 
d="M607 543l-196 -273l196 -270h-207l-91 127l-93 -127h-207l195 270l-195 273h207l93 -129l91 129h207z" />
    <glyph glyph-name="y" unicode="y" horiz-adv-x="631" 
d="M185 543l131 -345l130 345h180l-207 -543l-96 -257h-179l82 218l-221 582h180z" />
    <glyph glyph-name="z" unicode="z" horiz-adv-x="558" 
d="M40 370v173h477v-173l-220 -200h220v-170h-477v170h2l218 200h-220z" />
    <glyph glyph-name="braceleft" unicode="{" horiz-adv-x="361" 
d="M345 670q-22 -13 -39.5 -26t-29.5 -29.5t-18.5 -37.5t-6.5 -48q-2 -32 -2.5 -56.5t-0.5 -47.5v-47.5t-1 -57.5q0 -27 -16.5 -55t-42.5 -45q26 -17 42.5 -43.5t16.5 -53.5q1 -33 1 -57.5v-48t0.5 -48.5t2.5 -58q0 -53 24.5 -83.5t69.5 -54.5v-30h-128q-22 15 -42.5 33
t-36.5 39t-26 45t-11 51q-1 33 -1.5 59t-0.5 50.5v51v60.5q0 26 -15 36t-37 14l-16 2v75l16 2q22 4 37 14t15 36v60v50.5t0.5 50.5t1.5 60q1 27 11 51.5t26 45.5t36.5 38.5t42.5 32.5h128v-30z" />
    <glyph glyph-name="bar" unicode="|" horiz-adv-x="283" 
d="M55 -257v957h173v-957h-173z" />
    <glyph glyph-name="braceright" unicode="}" horiz-adv-x="359" 
d="M327 259v-75l-16 -2q-20 -3 -36 -13.5t-16 -36.5q0 -34 0.5 -60.5t1 -51t0.5 -50t-2 -58.5q-1 -27 -11.5 -51.5t-26 -45.5t-36 -39t-42.5 -33h-127v30q45 24 68 54.5t25 83.5q2 33 2.5 58t0.5 48.5t-0.5 48t-0.5 57.5q2 27 19 54t43 44q-26 17 -43 44.5t-19 55.5
q0 32 0.5 56.5t0.5 47.5t-0.5 47.5t-2.5 57.5q-1 54 -25 84.5t-68 55.5v30h127q22 -15 42.5 -32.5t36 -38.5t26 -45.5t11.5 -51.5q2 -34 2 -60t-0.5 -50.5t-1 -50.5t-0.5 -60q0 -26 16 -36t36 -14z" />
    <glyph glyph-name="asciitilde" unicode="~" horiz-adv-x="638" 
d="M616 359l-11 -18q-29 -43 -69.5 -70t-94.5 -32q-32 -4 -62.5 3t-59.5 19l-3 2h-2q-23 11 -45 21.5t-43.5 14.5t-43 -1t-43.5 -25l-13 -12l-105 80l11 16q29 45 70 71t94 31q32 3 63 -4t60 -19h2l2 -2q23 -11 45 -21t43.5 -14t43 1.5t43.5 24.5l14 11z" />
    <glyph glyph-name="uni00A0" unicode="&#xa0;" horiz-adv-x="390" 
 />
    <glyph glyph-name="exclamdown" unicode="&#xa1;" horiz-adv-x="253" 
d="M223 -257h-191l14 505h161zM127 284q-33 0 -56 23.5t-23 56.5t23 56t56 23t56.5 -23t23.5 -56t-23.5 -56.5t-56.5 -23.5z" />
    <glyph glyph-name="cent" unicode="&#xa2;" horiz-adv-x="627" 
d="M327 139q29 2 52 17.5t37 38.5h180q-11 -43 -36 -80.5t-59.5 -65t-77.5 -43t-91 -15.5h-27h-18l-48 -164h-100l54 189q-36 15 -65.5 40t-50.5 57.5t-33 70.5t-12 80q0 56 21.5 105.5t58.5 86t87 57.5t106 21h27h9l48 166h100l-53 -186q59 -24 101.5 -72.5t58.5 -111.5
h-180q-5 8 -11 16t-14 15zM298 386q-39 -7 -66 -38t-27 -73v-23q0 -46 31 -82z" />
    <glyph glyph-name="sterling" unicode="&#xa3;" horiz-adv-x="655" 
d="M295 239v-69h293v-170h-545v171h80v68h-80v172h77v78q0 8 0.5 15t2.5 14q2 23 9.5 43t19.5 39q19 31 45.5 54t61.5 35q9 2 22.5 4t28 3.5t28 2.5t23.5 1q49 0 86 -7.5t67.5 -22t57 -34.5t53.5 -45l-82 -143q-15 14 -34.5 28t-40.5 25.5t-42.5 19.5t-41.5 9
q-46 3 -67 -22.5t-19 -87.5v-9h168v-172h-171z" />
    <glyph glyph-name="currency" unicode="&#xa4;" horiz-adv-x="651" 
d="M543 350q0 -31 -9 -59.5t-25 -54.5l116 -159h-207l-50 68q-7 -2 -15 -2h-19h-18h-17t-17 2l-50 -68h-207l116 159q-16 26 -25 54.5t-9 59.5t9 59t25 52l-116 159h207l50 -66q8 0 17 1.5t17 1.5h18q11 0 19 -1.5t15 -1.5l50 66h207l-116 -159q16 -24 25 -52t9 -59z
M325 264q36 0 61 25t25 61q0 34 -25 59t-61 25t-61 -25t-25 -59q0 -36 25 -61t61 -25z" />
    <glyph glyph-name="yen" unicode="&#xa5;" horiz-adv-x="831" 
d="M501 295h148v-97h-148v-34h148v-96h-148v-68h-173v68h-145v96h145v34h-145v97h145v19l-18 25l-250 361h209l146 -211l147 211h209l-250 -361l-20 -28v-16z" />
    <glyph glyph-name="brokenbar" unicode="&#xa6;" horiz-adv-x="263" 
d="M45 -257v368h173v-368h-173zM45 332v368h173v-368h-173z" />
    <glyph glyph-name="section" unicode="&#xa7;" horiz-adv-x="527" 
d="M418 414q33 -27 49.5 -57.5t17 -63t-14 -64t-43.5 -59.5q20 -37 21.5 -75.5t-13 -72.5t-43.5 -59.5t-71 -37.5q-26 -7 -52.5 -10t-52.5 -1q-32 2 -66 9t-63 22l-16 10v159l45 -21q14 -7 32.5 -15t38 -13.5t38.5 -8.5t34 -1q7 2 13 3.5t10 5.5q19 12 5 34q-4 8 -16.5 16
t-26.5 15t-28 12.5t-23 8.5q-22 11 -45.5 21.5t-42.5 26.5q-33 27 -49 58t-16 63.5t14.5 64t43.5 59.5q-21 38 -22.5 76.5t13.5 72t44.5 59.5t71.5 38q50 14 102 11q35 -2 68 -9.5t62 -24.5l15 -7v-161l-43 22q-14 8 -32.5 15.5t-38 13.5t-39 9t-35.5 1q-5 -2 -11.5 -4
t-11.5 -5q-15 -13 -4 -34q4 -9 16 -17t26 -15t28 -12.5t23 -10.5q24 -8 46.5 -19t41.5 -28zM316 259q11 8 11 19t-11 22q-7 8 -20.5 15t-29.5 14t-31.5 13t-27.5 12q-8 -10 -9.5 -20t9.5 -20q8 -8 21 -15.5t29 -14.5t31.5 -13.5t27.5 -11.5z" />
    <glyph glyph-name="dieresis" unicode="&#xa8;" horiz-adv-x="392" 
d="M289 709q34 0 56.5 -23.5t22.5 -55.5q0 -33 -22.5 -56.5t-56.5 -23.5q-16 0 -30.5 6.5t-25.5 17t-17.5 25.5t-6.5 31t6.5 30.5t17.5 25t25.5 17t30.5 6.5zM103 709q17 0 31.5 -6.5t25.5 -17t17.5 -25t6.5 -30.5q0 -33 -23.5 -56.5t-57.5 -23.5q-33 0 -56.5 23.5
t-23.5 56.5q0 32 23.5 55.5t56.5 23.5z" />
    <glyph glyph-name="copyright" unicode="&#xa9;" horiz-adv-x="791" 
d="M400 239q29 0 52 13.5t39 33.5h106q-10 -29 -28.5 -53.5t-42.5 -42.5t-53.5 -28t-61.5 -10h-20q-41 0 -77 15.5t-63 42.5t-42.5 63t-15.5 77q0 40 15.5 75.5t42.5 62t63 42t77 15.5h20q32 0 61.5 -10t53.5 -28t42.5 -42.5t28.5 -53.5h-106q-16 23 -39 35.5t-52 12.5
q-22 0 -42 -8.5t-35 -23.5t-24 -35t-9 -42q0 -23 9 -43t24 -35t35 -24t42 -9zM650 602q49 -50 76.5 -115t27.5 -137t-27.5 -137.5t-76.5 -117.5q-52 -49 -117.5 -76.5t-137.5 -27.5t-137 27.5t-115 76.5q-51 52 -79 117.5t-28 137.5t28 137t79 115q50 51 115 78t137 27
t137.5 -27t117.5 -78zM588 157q38 39 59 88.5t21 104.5t-21 104t-59 87q-39 39 -88.5 59t-104.5 20t-104 -20t-87 -59q-39 -38 -59 -87t-20 -104t20 -104.5t59 -88.5q38 -38 87 -59t104 -21t104.5 21t88.5 59z" />
    <glyph glyph-name="ordfeminine" unicode="&#xaa;" horiz-adv-x="422" 
d="M383 700v-330h-104v30q-17 -14 -39 -22t-45 -8h-16q-30 0 -57 13t-47 35t-32 52t-12 64t12 64.5t32 53t47 35.5t57 13h16q48 0 84 -30v30h104zM270 543q0 27 -19 46.5t-45 19.5q-27 0 -46.5 -19.5t-19.5 -46.5v-16q0 -27 19.5 -46.5t46.5 -19.5q26 0 45 19.5t19 46.5v16z
" />
    <glyph glyph-name="guillemotleft" unicode="&#xab;" horiz-adv-x="744" 
d="M246 350l171 -193h-205l-193 193l52 52l141 141h205zM553 350l170 -193h-204l-193 193l52 52l141 141h204z" />
    <glyph glyph-name="uni00AD" unicode="&#xad;" horiz-adv-x="0" 
 />
    <glyph glyph-name="registered" unicode="&#xae;" horiz-adv-x="791" 
d="M650 602q49 -50 76.5 -115t27.5 -137t-27.5 -137.5t-76.5 -117.5q-52 -49 -117.5 -76.5t-137.5 -27.5t-137 27.5t-115 76.5q-51 52 -79 117.5t-28 137.5t28 137t79 115q50 51 115 78t137 27t137.5 -27t117.5 -78zM589 158q38 39 58.5 88.5t20.5 103.5q0 55 -21 104
t-59 87q-39 39 -88.5 59t-104.5 20t-104 -20t-87 -59q-39 -38 -59 -87t-20 -104t20 -104.5t59 -88.5q38 -38 87 -59t104 -21q53 0 101 20t87 55h-104l-86 130h-64v-130h-98v393h230q27 0 51 -10.5t42 -28t28.5 -41.5t10.5 -51q0 -43 -25 -77t-64 -46zM497 414
q0 15 -10.5 25.5t-25.5 10.5h-132v-70h132q15 0 25.5 10t10.5 24z" />
    <glyph glyph-name="macron" unicode="&#xaf;" horiz-adv-x="652" 
d="M27 527v173h598v-173h-598z" />
    <glyph glyph-name="degree" unicode="&#xb0;" horiz-adv-x="300" 
d="M237 670q15 -17 24.5 -38.5t9.5 -47.5q0 -24 -9.5 -46.5t-24.5 -37.5h-2q-16 -17 -38.5 -26.5t-45.5 -9.5q-51 0 -87 36q-17 15 -26.5 37.5t-9.5 46.5q0 26 9.5 47.5t26.5 38.5t39 27t48 10q23 0 46 -10t40 -27zM182 552q12 15 12 32q0 20 -12 32q-14 14 -31 14
q-21 0 -32 -14q-14 -11 -14 -32q0 -18 14 -32q11 -11 32 -11q17 0 31 11z" />
    <glyph glyph-name="plusminus" unicode="&#xb1;" horiz-adv-x="549" 
d="M32 -173v173h484v-173h-484zM516 436v-172h-157v-157h-170v157h-157v172h157v157h170v-157h157z" />
    <glyph glyph-name="twosuperior" unicode="&#xb2;" horiz-adv-x="276" 
d="M98 520h148v-63h-216v52q0 23 11 43t30 32q22 14 48 14h38q9 0 16 7t7 18q0 10 -7 17.5t-16 7.5h-38q-9 0 -16 -7.5t-7 -17.5l-66 -3v3q0 19 7 35t19.5 28t28.5 18.5t34 6.5h38q18 0 34 -6.5t28.5 -18.5t19.5 -28t7 -35q0 -24 -11 -43.5t-30 -31.5q-22 -14 -48 -14h-38
q-12 0 -18 -11z" />
    <glyph glyph-name="threesuperior" unicode="&#xb3;" horiz-adv-x="259" 
d="M210 591q20 -22 20 -55q0 -32 -23.5 -55.5t-56.5 -23.5h-120v63h120q16 0 16 16t-16 16h-97v64h88q16 0 16 16t-16 16h-111v63h111q33 0 56.5 -23.5t23.5 -55.5q0 -11 -3 -20.5t-8 -18.5h-3z" />
    <glyph glyph-name="acute" unicode="&#xb4;" horiz-adv-x="215" 
d="M70 700h130l-87 -141h-93z" />
    <glyph glyph-name="periodcentered" unicode="&#xb7;" horiz-adv-x="340" 
d="M170 491q29 0 54.5 -11t45 -30.5t30.5 -45t11 -54.5t-11 -54.5t-30.5 -45t-45 -30.5t-54.5 -11t-54.5 11t-45 30.5t-30.5 45t-11 54.5t11 54.5t30.5 45t45 30.5t54.5 11z" />
    <glyph glyph-name="cedilla" unicode="&#xb8;" horiz-adv-x="299" 
d="M275 -109q6 -25 0 -50q-4 -14 -11 -25.5t-19 -20.5q-20 -15 -46 -22.5t-52 -4.5q-14 2 -27 4.5t-25 7.5q-14 3 -26 8t-24 12l-25 16l41 70q15 -5 30 -12t29 -10q8 -4 18 -5.5t18 -3.5q7 0 15.5 1.5t12.5 4.5q7 8 -16 21q-12 5 -28.5 9.5t-28.5 6.5q-4 2 -8 2h-8l-32 9
q0 19 0.5 36t4 33t12 33t24.5 37h109l-12.5 -12.5t-16.5 -18t-14.5 -20.5t-6.5 -20q25 -6 43 -16q23 -10 41.5 -28t27.5 -42z" />
    <glyph glyph-name="onesuperior" unicode="&#xb9;" horiz-adv-x="168" 
d="M135 711v-254h-66v182l-27 -7l-18 61l68 18h43z" />
    <glyph glyph-name="ordmasculine" unicode="&#xba;" horiz-adv-x="270" 
d="M139 711q43 0 71.5 -28t28.5 -69v-60q0 -41 -28.5 -69t-71.5 -28h-11q-42 0 -70 28t-28 69v60q0 41 28 69t70 28h11zM175 614q0 14 -10 24t-26 10h-11q-14 0 -24 -10t-10 -24v-60q0 -14 10 -24t24 -10h11q16 0 26 10t10 24v60z" />
    <glyph glyph-name="guillemotright" unicode="&#xbb;" horiz-adv-x="744" 
d="M724 350l-193 -193h-204l170 193l-170 193h204l141 -141zM420 350l-195 -193h-205l170 193l-170 193h205l140 -141z" />
    <glyph glyph-name="questiondown" unicode="&#xbf;" horiz-adv-x="584" 
d="M267 284q-33 0 -56.5 23.5t-23.5 56.5t23.5 56t56.5 23t56 -23t23 -56t-23 -56.5t-56 -23.5zM523 25v-27q0 -58 -19 -105t-53.5 -80.5t-82.5 -51.5t-106 -18q-41 0 -80 10.5t-72 31t-57.5 51.5t-35.5 73q-14 60 4.5 115.5t61.5 98.5q14 14 29 25t32 22q8 5 18.5 13.5
t15.5 16.5q3 5 3.5 9t0.5 9v25h169v-16q0 -33 -10 -61t-27.5 -52t-40.5 -43.5t-50 -34.5q-30 -17 -39.5 -41t-2.5 -46t28.5 -36.5t52.5 -12.5q43 4 68 29.5t25 68.5v27h168z" />
    <glyph glyph-name="Agrave" unicode="&#xc0;" horiz-adv-x="725" 
d="M724 0h-187l-50 130h-250l-52 -130h-184l273 700h175zM419 302l-57 148l-59 -148h116zM417 732h-93l-84 141h127z" />
    <glyph glyph-name="Aacute" unicode="&#xc1;" horiz-adv-x="725" 
d="M403 732h-93l50 141h130zM724 0h-187l-50 130h-250l-52 -130h-184l273 700h175zM419 302l-57 148l-59 -148h116z" />
    <glyph glyph-name="Acircumflex" unicode="&#xc2;" horiz-adv-x="727" 
d="M321 723h-120l107 150h111l107 -150h-120l-41 59zM726 0h-186l-53 130h-247l-53 -130h-186l275 700h175zM422 302l-57 148l-59 -148h116z" />
    <glyph glyph-name="Atilde" unicode="&#xc3;" horiz-adv-x="725" 
d="M724 0h-184l-53 130h-250l-50 -130h-186l275 700h175zM422 302l-60 148l-56 -148h116zM251 736l-59 46l5 9q33 51 95 59q19 2 36.5 -2.5t34.5 -11.5h2q14 -7 26.5 -13t24.5 -8t25 0.5t26 13.5l7 7l59 -45l-5 -9q-34 -53 -95 -59q-19 -2 -36.5 2t-34.5 11h-2q-13 7 -26 13
t-25 8.5t-24.5 -1t-26.5 -15.5z" />
    <glyph glyph-name="Adieresis" unicode="&#xc4;" horiz-adv-x="725" 
d="M440 718q-28 0 -47 20.5t-19 47.5q0 29 19 48.5t47 19.5h2q27 0 46.5 -19.5t19.5 -48.5q0 -27 -19.5 -47.5t-46.5 -20.5h-2zM724 0h-184l-53 130h-250l-50 -130h-186l273 700h177zM419 302l-57 148l-56 -148h113zM283 718q-29 0 -48.5 20t-19.5 48q0 29 19.5 48.5
t48.5 19.5q28 0 48 -19.5t20 -48.5q0 -28 -20 -48t-48 -20z" />
    <glyph glyph-name="Aring" unicode="&#xc5;" horiz-adv-x="725" 
d="M724 0h-184l-53 130h-250l-50 -130h-186l264 677q-11 16 -17 34.5t-6 38.5q0 26 9 47.5t25 38.5q17 17 38.5 27t47.5 10t48 -10t39 -27q17 -15 26.5 -37.5t9.5 -48.5q0 -20 -7 -38.5t-18 -34.5zM330 782q-5 -5 -9 -13t-4 -19q0 -8 4 -16.5t9 -13.5q14 -13 32 -13
q19 0 32 13q5 5 9.5 13.5t4.5 16.5q0 11 -4.5 19t-9.5 13q-13 13 -32 13t-32 -13zM419 302l-57 148l-57 -148h114z" />
    <glyph glyph-name="AE" unicode="&#xc6;" horiz-adv-x="1134" 
d="M718 527v-91h313v-172h-313v-94h379v-170h-566l3 132h-250l-103 -132h-186l539 689l9 11h554v-173h-379zM534 450l-116 -146h116v146z" />
    <glyph glyph-name="Ccedilla" unicode="&#xc7;" horiz-adv-x="760" 
d="M391 152q51 0 93.5 23.5t68.5 63.5h188q-17 -52 -49 -96t-75.5 -75.5t-96.5 -49.5t-111 -18h-6q-2 -7 -4.5 -12.5t-2.5 -10.5q12 -3 23.5 -7t19.5 -9q22 -10 41 -28t27 -42q4 -12 5 -25t-3 -25q-3 -14 -11 -24.5t-18 -18.5q-47 -36 -100 -30q-12 2 -25 5t-27 7
q-12 3 -25 8t-23 12l-27 18l43 68q14 -5 28.5 -11t30.5 -11q8 -2 17 -4.5t19 -2.5q7 -2 15.5 0t11.5 7q2 3 -1 8t-17 10q-12 7 -27.5 10.5t-29.5 7.5h-6.5t-6.5 2l-32 7l-2 34v7q0 14 3 28.5t8 25.5q-60 12 -112 43.5t-90.5 77.5t-60 103.5t-21.5 121.5q0 72 27.5 135.5
t75 111t111.5 75.5t136 28h36q58 0 111 -18t96.5 -49.5t75.5 -75.5t49 -96h-188q-26 38 -68.5 61t-93.5 23q-40 0 -75.5 -15.5t-62 -42t-42 -62t-15.5 -75.5q0 -41 15.5 -77t42 -63t62 -42.5t75.5 -15.5z" />
    <glyph glyph-name="Egrave" unicode="&#xc8;" horiz-adv-x="651" 
d="M225 527v-91h323v-172h-323v-94h389v-170h-559v700h559v-173h-389zM423 732h-91l-86 141h127z" />
    <glyph glyph-name="Eacute" unicode="&#xc9;" horiz-adv-x="651" 
d="M337 732h-91l50 141h127zM228 527v-91h320v-172h-320v-94h386v-170h-559v700h559v-173h-386z" />
    <glyph glyph-name="Ecircumflex" unicode="&#xca;" horiz-adv-x="651" 
d="M294 723h-123l107 150h113l107 -150h-123l-41 59zM228 527v-91h320v-172h-320v-94h386v-170h-559v700h559v-173h-386z" />
    <glyph glyph-name="Edieresis" unicode="&#xcb;" horiz-adv-x="651" 
d="M255 730q-29 0 -50 19.5t-21 48.5t21 48.5t50 19.5q27 0 47.5 -19.5t20.5 -48.5t-20.5 -48.5t-47.5 -19.5zM414 730q-27 0 -47.5 19.5t-20.5 48.5t20.5 48.5t47.5 19.5q29 0 49.5 -19.5t20.5 -48.5t-20.5 -48.5t-49.5 -19.5zM228 527v-91h320v-172h-320v-94h386v-170
h-559v700h559v-173h-386z" />
    <glyph glyph-name="Igrave" unicode="&#xcc;" horiz-adv-x="284" 
d="M230 732h-93l-84 141h127zM55 0v700h173v-700h-173z" />
    <glyph glyph-name="Iacute" unicode="&#xcd;" horiz-adv-x="284" 
d="M146 732h-93l50 141h127zM55 0v700h173v-700h-173z" />
    <glyph glyph-name="Icircumflex" unicode="&#xce;" horiz-adv-x="282" 
d="M98 723h-120l107 150h111l107 -150h-120l-44 59zM55 0v700h171v-700h-171z" />
    <glyph glyph-name="Idieresis" unicode="&#xcf;" horiz-adv-x="283" 
d="M130 798q0 -29 -21 -48.5t-50 -19.5q-27 0 -47.5 19.5t-20.5 48.5t20.5 48.5t47.5 19.5q29 0 50 -19.5t21 -48.5zM55 0v700h172v-700h-172zM221 866q29 0 49.5 -19.5t20.5 -48.5t-20.5 -48.5t-49.5 -19.5q-28 0 -48.5 19.5t-20.5 48.5t20.5 48.5t48.5 19.5z" />
    <glyph glyph-name="Eth" unicode="&#xd0;" horiz-adv-x="801" 
d="M449 705q66 0 125 -25.5t103 -69.5t69.5 -102.5t25.5 -125.5v-59q0 -66 -25.5 -125t-69.5 -103t-103 -69.5t-125 -25.5h-350v264h-75v173h75v268h350zM599 382q0 31 -12 58t-32.5 47.5t-47.5 32.5t-58 12h-180v-95h64v-173h-64v-91h180q31 0 58 11.5t47.5 32t32.5 48
t12 58.5v59z" />
    <glyph glyph-name="Ntilde" unicode="&#xd1;" horiz-adv-x="807" 
d="M300 736l-59 46l7 9q17 26 39.5 40.5t53.5 18.5q19 2 36.5 -2.5t34.5 -11.5h2q14 -7 26.5 -13t24.5 -8t25 0.5t26 13.5l7 7l59 -45l-4 -9q-36 -53 -96 -59q-19 -2 -36 2t-34 11h-2q-14 7 -26.5 13t-25 8.5t-25 -1t-26.5 -15.5zM762 0h-212l-322 459v-459h-173v700h216
l307 -441v441h172v-686z" />
    <glyph glyph-name="Ograve" unicode="&#xd2;" horiz-adv-x="786" 
d="M482 732h-93l-84 141h127zM412 700q72 0 136 -28t111.5 -75.5t75 -111t27.5 -135.5t-27.5 -136t-75 -111.5t-111.5 -75t-136 -27.5h-37q-72 0 -136 27.5t-112 75t-76 111.5t-28 136t28 135.5t76 111t112 75.5t136 28h37zM393 152q40 0 75.5 15.5t62.5 42.5t42.5 63
t15.5 77q0 40 -15.5 75.5t-42.5 62t-62.5 42t-75.5 15.5q-41 0 -77 -15.5t-62.5 -42t-42 -62t-15.5 -75.5q0 -41 15.5 -77t42 -63t62.5 -42.5t77 -15.5z" />
    <glyph glyph-name="Oacute" unicode="&#xd3;" horiz-adv-x="785" 
d="M396 732h-94l51 141h129zM412 700q71 0 134.5 -28t111.5 -75.5t76 -111t28 -135.5t-28 -136t-76 -111.5t-111.5 -75t-134.5 -27.5h-39q-72 0 -135.5 27.5t-111 75t-75.5 111.5t-28 136t28 135.5t75.5 111t111 75.5t135.5 28h39zM391 152q41 0 77 15.5t63 42.5t42.5 63
t15.5 77q0 40 -15.5 75.5t-42.5 62t-63 42t-77 15.5q-40 0 -75.5 -15.5t-62 -42t-42 -62t-15.5 -75.5q0 -41 15.5 -77t42 -63t62 -42.5t75.5 -15.5z" />
    <glyph glyph-name="Ocircumflex" unicode="&#xd4;" horiz-adv-x="786" 
d="M351 723h-120l107 150h111l107 -150h-123l-41 59zM413 700q71 0 134.5 -28t111.5 -75.5t76 -111t28 -135.5t-28 -136t-76 -111.5t-111.5 -75t-134.5 -27.5h-39q-72 0 -136 27.5t-111.5 75t-75 111.5t-27.5 136t27.5 135.5t75 111t111.5 75.5t136 28h39zM392 152
q41 0 77 15.5t63 42.5t42.5 63t15.5 77q0 40 -15.5 75.5t-42.5 62t-63 42t-77 15.5q-40 0 -75.5 -15.5t-62 -42t-42 -62t-15.5 -75.5q0 -41 15.5 -77t42 -63t62 -42.5t75.5 -15.5z" />
    <glyph glyph-name="Otilde" unicode="&#xd5;" horiz-adv-x="786" 
d="M281 736l-59 46l7 9q33 52 93 59q19 2 36 -2.5t34 -11.5h2q14 -7 27 -13t25.5 -8t25 0.5t25.5 13.5l7 7l61 -45l-7 -9q-36 -53 -95 -59q-19 -2 -36.5 2t-34.5 11h-2q-13 7 -26 13t-25 8.5t-24 -1t-25 -15.5zM410 700q72 0 136.5 -28t112.5 -75.5t76 -111t28 -135.5
t-28 -136t-76 -111.5t-112.5 -75t-136.5 -27.5h-36q-72 0 -136 27.5t-111.5 75t-75 111.5t-27.5 136t27.5 135.5t75 111t111.5 75.5t136 28h36zM392 152q41 0 77 15.5t63 42.5t42.5 63t15.5 77q0 40 -15.5 75.5t-42.5 62t-63 42t-77 15.5q-40 0 -75.5 -15.5t-62 -42t-42 -62
t-15.5 -75.5q0 -41 15.5 -77t42 -63t62 -42.5t75.5 -15.5z" />
    <glyph glyph-name="Odieresis" unicode="&#xd6;" horiz-adv-x="785" 
d="M301 711q-31 0 -54 23.5t-23 54.5q0 16 6.5 30t17 24.5t24.5 16.5t29 6q32 0 56 -22.5t24 -54.5q0 -15 -6.5 -29.5t-17.5 -25t-25.5 -17t-30.5 -6.5zM483 711q-16 0 -30 6.5t-24.5 17t-16.5 25t-6 29.5q0 32 22.5 54.5t54.5 22.5t54.5 -22.5t22.5 -54.5q0 -15 -6 -29.5
t-16.5 -25t-24.5 -17t-30 -6.5zM410 700q72 0 136 -28t111.5 -75.5t75 -111t27.5 -135.5t-27.5 -136t-75 -111.5t-111.5 -75t-136 -27.5h-36q-72 0 -136 27.5t-111.5 75t-75 111.5t-27.5 136t27.5 135.5t75 111t111.5 75.5t136 28h36zM392 152q41 0 77 15.5t63 42.5t42.5 63
t15.5 77q0 40 -15.5 75.5t-42.5 62t-63 42t-77 15.5q-40 0 -75.5 -15.5t-62 -42t-42 -62t-15.5 -75.5q0 -41 15.5 -77t42 -63t62 -42.5t75.5 -15.5z" />
    <glyph glyph-name="multiply" unicode="&#xd7;" horiz-adv-x="526" 
d="M385 350l111 -111l-123 -123l-111 111l-109 -111l-123 123l111 111l-111 111l123 121l109 -112l111 112l123 -121z" />
    <glyph glyph-name="Oslash" unicode="&#xd8;" horiz-adv-x="784" 
d="M574 660q42 -22 76 -54.5t58.5 -72t38 -86t13.5 -96.5q0 -72 -27.5 -136t-75 -111.5t-111 -75t-136.5 -27.5h-27l-25 -87h-182l36 125q-42 22 -77 54.5t-59.5 73t-38 87t-13.5 97.5q0 72 27.5 135.5t75 111t111 75.5t136.5 28h27l25 86h184zM356 544q-34 -7 -63.5 -24.5
t-51 -43t-33.5 -57.5t-12 -68q0 -43 16.5 -80.5t45.5 -65.5zM428 158q34 6 63.5 23.5t51 43.5t33.5 58t12 68q0 43 -16.5 79.5t-45.5 63.5z" />
    <glyph glyph-name="Ugrave" unicode="&#xd9;" horiz-adv-x="723" 
d="M450 732h-91l-86 141h127zM682 700v-380q0 -66 -25 -124.5t-68.5 -102t-102 -68.5t-125.5 -25q-66 0 -124 25t-101.5 68.5t-69 102t-25.5 124.5v380h173v-380q0 -30 12 -57.5t32 -48t46.5 -32.5t56.5 -12q31 0 58 12t47 32.5t31.5 48t11.5 57.5v380h173z" />
    <glyph glyph-name="Uacute" unicode="&#xda;" horiz-adv-x="723" 
d="M364 732h-91l50 141h127zM682 700v-380q0 -66 -25.5 -124.5t-69 -102t-102 -68.5t-124.5 -25t-124.5 25t-102 68.5t-68.5 102t-25 124.5v380h173v-380q0 -30 11.5 -57.5t31.5 -48t47 -32.5t57 -12q31 0 58 12t47 32.5t31.5 48t11.5 57.5v380h173z" />
    <glyph glyph-name="Ucircumflex" unicode="&#xdb;" horiz-adv-x="723" 
d="M321 723h-121l107 150h111l107 -150h-120l-44 59zM682 700v-380q0 -66 -25 -124.5t-68.5 -102t-102 -68.5t-125.5 -25q-66 0 -124 25t-101.5 68.5t-69 102t-25.5 124.5v380h173v-380q0 -30 12 -57.5t32 -48t46.5 -32.5t56.5 -12q31 0 58 12t47 32.5t31.5 48t11.5 57.5
v380h173z" />
    <glyph glyph-name="Udieresis" unicode="&#xdc;" horiz-adv-x="723" 
d="M441 730q-27 0 -47.5 19.5t-20.5 48.5t20.5 48.5t47.5 19.5q29 0 50 -19.5t21 -48.5t-21 -48.5t-50 -19.5zM280 730q-28 0 -48 19.5t-20 48.5t20 48.5t48 19.5q29 0 49.5 -19.5t20.5 -48.5t-20.5 -48.5t-49.5 -19.5zM682 700v-380q0 -66 -25.5 -124.5t-69.5 -102
t-102 -68.5t-124 -25t-124.5 25t-102 68.5t-68.5 102t-25 124.5v380h173v-380q0 -30 11.5 -57.5t31.5 -48t47 -32.5t57 -12t57 12t47 32.5t32 48t12 57.5v380h173z" />
    <glyph glyph-name="Yacute" unicode="&#xdd;" horiz-adv-x="698" 
d="M352 732h-93l50 141h129zM704 700l-250 -361l-20 -28v-311h-173v314l-18 25l-250 361h209l148 -211l145 211h209z" />
    <glyph glyph-name="Thorn" unicode="&#xde;" horiz-adv-x="718" 
d="M466 584q49 0 91.5 -18.5t74 -50.5t50 -74.5t18.5 -90.5q0 -49 -18.5 -91.5t-50 -74t-74 -50t-91.5 -18.5h-238v-116h-173v700h173v-116h238zM466 286q26 0 44 19t18 45t-18 43.5t-44 17.5h-238v-125h238z" />
    <glyph glyph-name="germandbls" unicode="&#xdf;" horiz-adv-x="712" 
d="M521 386q65 -15 104.5 -49t55 -77t8.5 -89t-34 -84t-73.5 -62.5t-110.5 -24.5h-204v150h204q36 0 54 14.5t18 32t-18 32t-54 14.5h-204v150h89q18 0 18 18v66q0 29 -21 51t-52 22h-57q-17 0 -30 -13t-13 -30v-507h-150v507q0 40 15 75t41.5 61.5t61.5 41.5t75 15h57
q46 0 86.5 -17.5t71 -48t48 -71t17.5 -86.5v-66q0 -7 -0.5 -12.5t-2.5 -12.5z" />
    <glyph glyph-name="agrave" unicode="&#xe0;" horiz-adv-x="660" 
d="M407 645h-91l-87 141h128zM609 543v-543h-173v48q-31 -23 -66.5 -35.5t-74.5 -12.5h-25q-50 0 -94.5 21t-77.5 58t-52 86t-19 106q0 56 19 105.5t52 86.5t77.5 58.5t94.5 21.5h25q39 0 74.5 -13t66.5 -37v50h173zM420 286q0 21 -8.5 40.5t-23 34.5t-34 23.5t-41.5 8.5
t-41.5 -8.5t-33.5 -23.5t-22.5 -34.5t-8.5 -40.5v-29q0 -22 8.5 -41.5t22.5 -34t33.5 -23t41.5 -8.5t41.5 8.5t34 23t23 34t8.5 41.5v29z" />
    <glyph glyph-name="aacute" unicode="&#xe1;" horiz-adv-x="660" 
d="M320 645h-91l50 141h127zM609 543v-543h-173v48q-29 -23 -65 -35.5t-74 -12.5h-27q-50 0 -94.5 21t-77.5 58t-52 86t-19 106q0 56 19 105.5t52 86.5t77.5 58.5t94.5 21.5h27q38 0 74 -13t65 -37v50h173zM422 286q0 21 -8.5 40.5t-23.5 34.5t-35 23.5t-42 8.5t-41.5 -8.5
t-33.5 -23.5t-22.5 -34.5t-8.5 -40.5v-29q0 -22 8.5 -41.5t22.5 -34t33.5 -23t41.5 -8.5t42 8.5t35 23t23.5 34t8.5 41.5v29z" />
    <glyph glyph-name="acircumflex" unicode="&#xe2;" horiz-adv-x="658" 
d="M275 636h-121l107 150h111l107 -150h-120l-41 59zM607 543v-543h-171v48q-31 -23 -66.5 -35.5t-74.5 -12.5h-25q-50 0 -94.5 21t-77.5 58t-52 86t-19 106q0 56 19 105.5t52 86.5t77.5 58.5t94.5 21.5h25q39 0 74.5 -13t66.5 -37v50h171zM420 286q0 21 -8.5 40.5t-23 34.5
t-34 23.5t-41.5 8.5t-41.5 -8.5t-33.5 -23.5t-22.5 -34.5t-8.5 -40.5v-29q0 -22 8.5 -41.5t22.5 -34t33.5 -23t41.5 -8.5t41.5 8.5t34 23t23 34t8.5 41.5v29z" />
    <glyph glyph-name="atilde" unicode="&#xe3;" horiz-adv-x="658" 
d="M606 543v-543h-170v48q-31 -23 -66.5 -35.5t-74.5 -12.5h-25q-50 0 -94.5 21t-77.5 58t-52 86t-19 106q0 56 19 105.5t52 86.5t77.5 58.5t94.5 21.5h25q39 0 74.5 -13t66.5 -37v50h170zM420 286q0 21 -8.5 40.5t-23 34.5t-34 23.5t-41.5 8.5t-41.5 -8.5t-33.5 -23.5
t-22.5 -34.5t-8.5 -40.5v-29q0 -22 8.5 -41.5t22.5 -34t33.5 -23t41.5 -8.5t41.5 8.5t34 23t23 34t8.5 41.5v29zM207 620l-62 46l7 9q36 53 95 59q19 2 36.5 -2t34.5 -12l2 -2q13 -6 25.5 -11.5t24.5 -7.5t24.5 1t25.5 14l7 6l61 -45l-6 -9q-17 -26 -40 -41t-54 -18
q-19 -2 -36 2t-34 11h-2q-14 7 -27 13t-25.5 8.5t-25 -1t-25.5 -15.5z" />
    <glyph glyph-name="adieresis" unicode="&#xe4;" horiz-adv-x="658" 
d="M397 641q-29 0 -48.5 20.5t-19.5 49.5t19.5 49t48.5 20t50 -20t21 -49t-21 -49.5t-50 -20.5zM607 543v-543h-171v48q-31 -23 -66.5 -35.5t-74.5 -12.5h-25q-50 0 -94.5 21t-77.5 58t-52 86t-19 106q0 56 19 105.5t52 86.5t77.5 58.5t94.5 21.5h25q39 0 74.5 -13t66.5 -37
v50h171zM420 286q0 21 -8.5 40.5t-22.5 34.5t-33.5 23.5t-42.5 8.5q-22 0 -41.5 -8.5t-33.5 -23.5t-22.5 -34.5t-8.5 -40.5v-29q0 -22 8.5 -41.5t22.5 -34t33.5 -23t41.5 -8.5q23 0 42.5 8.5t33.5 23t22.5 34t8.5 41.5v29zM236 641q-27 0 -47.5 20.5t-20.5 49.5t20.5 49
t47.5 20q29 0 50 -20t21 -49t-21 -49.5t-50 -20.5z" />
    <glyph glyph-name="aring" unicode="&#xe5;" horiz-adv-x="658" 
d="M606 543v-543h-172v48q-29 -23 -64.5 -35.5t-74.5 -12.5h-25q-50 0 -94.5 21t-77.5 58t-52 86t-19 106q0 56 19 105.5t52 86.5t77.5 58.5t94.5 21.5h25q39 0 74.5 -13t64.5 -37v50h172zM420 286q0 21 -8.5 40.5t-23.5 34.5t-34.5 23.5t-40.5 8.5q-22 0 -42 -8.5
t-35 -23.5t-23.5 -34.5t-8.5 -40.5v-29q0 -22 8.5 -41.5t23.5 -34t35 -23t42 -8.5q21 0 40.5 8.5t34.5 23t23.5 34t8.5 41.5v29zM316 543q-24 0 -46.5 9.5t-37.5 26.5q-17 16 -27 38.5t-10 46.5q0 26 10 47.5t27 38.5q15 17 37.5 26.5t46.5 9.5q50 0 86 -36
q17 -15 26.5 -37.5t9.5 -48.5q0 -24 -9.5 -46.5t-26.5 -38.5q-17 -17 -38.5 -26.5t-47.5 -9.5zM284 695q-12 -10 -12 -31q0 -18 12 -30q14 -14 32 -14q22 0 31 14q14 10 14 30q0 10 -3 18t-11 13q-9 14 -31 14q-18 0 -32 -14z" />
    <glyph glyph-name="ae" unicode="&#xe6;" horiz-adv-x="1023" 
d="M998 270q0 -13 -1.5 -27.5t-5.5 -28.5h-384q14 -29 42 -48.5t63 -19.5q19 0 35 6t30 14h200q-15 -37 -40.5 -67.5t-58.5 -52.5t-72 -34t-81 -12h-27q-49 0 -91 14v-14h-173v48q-29 -23 -64 -35.5t-74 -12.5h-25q-50 0 -94.5 21t-77.5 57.5t-52.5 86t-19.5 105.5
q0 57 19.5 106.5t52.5 87t77.5 59t94.5 21.5h25q39 0 74 -13.5t64 -37.5v51h173v-16q20 8 43.5 12t47.5 4h27q56 0 106 -21.5t87 -59t58.5 -87t21.5 -106.5zM421 286q0 21 -9 40.5t-23.5 34.5t-34 24t-40.5 9q-22 0 -42 -9t-35 -24t-23.5 -34.5t-8.5 -40.5v-29
q0 -22 8.5 -41.5t23.5 -34t35 -23t42 -8.5q21 0 40.5 8.5t34 23t23.5 34t9 41.5v29zM816 327q-14 31 -42 49.5t-62 18.5q-35 0 -63 -18.5t-42 -49.5h209z" />
    <glyph glyph-name="ccedilla" unicode="&#xe7;" horiz-adv-x="612" 
d="M309 145q32 0 58.5 16.5t41.5 42.5h180q-11 -43 -36 -80.5t-59.5 -65t-77 -43t-89.5 -15.5q-3 -7 -5 -12.5t-2 -10.5q24 -6 44 -16q22 -10 40.5 -28t27.5 -42q6 -25 0 -50q-4 -14 -11 -25.5t-19 -20.5q-22 -15 -46.5 -22.5t-50.5 -4.5q-14 2 -27.5 4.5t-25.5 7.5
q-14 3 -26 8t-24 12l-25 16l41 70q16 -5 30.5 -12t28.5 -10q9 -4 18.5 -5.5t18.5 -3.5q7 0 15 1.5t12 4.5q7 8 -16 21q-12 5 -28.5 9.5t-28.5 6.5q-3 2 -7.5 2h-8.5l-32 9q0 27 1 50.5t13 47.5q-45 10 -83.5 34.5t-66 59.5t-43.5 78t-16 91q0 56 21 106t57.5 87t86 58.5
t105.5 21.5h30q47 0 89.5 -15.5t77.5 -43t60 -64.5t37 -81h-180q-15 26 -41.5 41t-58.5 15q-23 0 -43.5 -9t-36 -24t-24.5 -35.5t-9 -44.5v-23q0 -23 9 -43.5t24.5 -36.5t36 -25t43.5 -9z" />
    <glyph glyph-name="egrave" unicode="&#xe8;" horiz-adv-x="621" 
d="M400 645h-93l-87 141h130zM207 214q12 -29 40 -48.5t62 -19.5q19 0 35.5 6t30.5 14h200q-15 -37 -40.5 -67.5t-58 -52.5t-71 -34t-80.5 -12h-30q-56 0 -105.5 21t-86 58t-57.5 86t-21 106q0 56 21 105.5t57.5 86.5t86 58.5t105.5 21.5h30q56 0 105.5 -21.5t86 -58.5
t57.5 -86.5t21 -105.5q0 -14 -1 -28.5t-3 -28.5h-384zM309 395q-34 0 -62 -18.5t-40 -49.5h207q-12 31 -40.5 49.5t-64.5 18.5z" />
    <glyph glyph-name="eacute" unicode="&#xe9;" 
d="M314 645h-91l50 141h127zM207 214q14 -29 42 -48.5t62 -19.5q19 0 35.5 6t30.5 14h200q-15 -37 -40.5 -67.5t-58 -52.5t-71.5 -34t-82 -12h-27q-56 0 -106 21t-87 58t-58.5 86t-21.5 106q0 56 21.5 105.5t58.5 86.5t87 58.5t106 21.5h27q56 0 106 -21.5t87 -58.5
t58.5 -86.5t21.5 -105.5q0 -14 -1.5 -28.5t-5.5 -28.5h-384zM311 395q-34 0 -62 -18.5t-42 -49.5h209q-14 31 -42 49.5t-63 18.5z" />
    <glyph glyph-name="ecircumflex" unicode="&#xea;" 
d="M270 636h-122l107 150h111l109 -150h-123l-41 59zM207 214q14 -29 41.5 -48.5t62.5 -19.5q19 0 35 6t31 14h200q-16 -37 -41.5 -67.5t-58 -52.5t-71 -34t-81.5 -12h-27q-56 0 -106 21t-87 58t-58.5 86t-21.5 106q0 56 21.5 105.5t58.5 86.5t87 58.5t106 21.5h27
q56 0 106 -21.5t87 -58.5t58.5 -86.5t21.5 -105.5q0 -14 -1.5 -28.5t-5.5 -28.5h-384zM311 395q-35 0 -62.5 -18.5t-41.5 -49.5h209q-14 31 -42 49.5t-63 18.5z" />
    <glyph glyph-name="edieresis" unicode="&#xeb;" 
d="M232 641q-29 0 -50 20.5t-21 49.5t21 49t50 20t48.5 -20t19.5 -49t-19.5 -49.5t-48.5 -20.5zM393 641q-29 0 -49.5 20.5t-20.5 49.5t20.5 49t49.5 20q28 0 48 -20t20 -49t-20 -49.5t-48 -20.5zM207 214q14 -29 42 -48.5t62 -19.5q19 0 35.5 6t30.5 14h200
q-15 -37 -40.5 -67.5t-58 -52.5t-71.5 -34t-82 -12h-27q-56 0 -106 21t-87 58t-58.5 86t-21.5 106q0 56 21.5 105.5t58.5 86.5t87 58.5t106 21.5h27q56 0 106 -21.5t87 -58.5t58.5 -86.5t21.5 -105.5q0 -14 -1.5 -28.5t-3.5 -28.5h-386zM311 395q-34 0 -62 -18.5t-42 -49.5
h209q-14 31 -41.5 49.5t-63.5 18.5z" />
    <glyph glyph-name="igrave" unicode="&#xec;" horiz-adv-x="276" 
d="M226 645h-91l-86 141h127zM51 0v543h173v-543h-173z" />
    <glyph glyph-name="iacute" unicode="&#xed;" horiz-adv-x="276" 
d="M51 0v543h173v-543h-173zM140 645h-91l50 141h127z" />
    <glyph glyph-name="icircumflex" unicode="&#xee;" horiz-adv-x="274" 
d="M95 636h-121l107 150h111l107 -150h-120l-44 59zM51 0v543h171v-543h-171z" />
    <glyph glyph-name="idieresis" unicode="&#xef;" horiz-adv-x="272" 
d="M123 695q0 -32 -23.5 -55.5t-55.5 -23.5q-17 0 -32 6.5t-26 17t-17.5 25t-6.5 30.5q0 35 23.5 58.5t58.5 23.5q16 0 30.5 -6.5t25 -17.5t17 -26t6.5 -32zM228 777q34 0 58 -23.5t24 -58.5q0 -16 -6.5 -30.5t-17.5 -25t-26 -17t-32 -6.5q-16 0 -30.5 6.5t-25.5 17
t-17.5 25t-6.5 30.5q0 17 6.5 32t17.5 26t25.5 17.5t30.5 6.5zM51 0v543h170v-543h-170z" />
    <glyph glyph-name="eth" unicode="&#xf0;" horiz-adv-x="627" 
d="M496 548q37 -36 57 -73t29.5 -73t11.5 -69t2 -62q0 -55 -21.5 -104.5t-58.5 -86.5t-86 -58.5t-104 -21.5h-27q-56 0 -106 21.5t-87 58.5t-58.5 86.5t-21.5 104.5q0 51 18 96.5t49.5 81.5t74.5 60t92 32l-53 52l-68 -68l-102 103l66 68l-55 54l123 123l55 -54l48 44
l102 -101l-45 -48zM312 160q23 0 43.5 8.5t35.5 23.5t24 35.5t9 43.5q0 24 -9 44.5t-24 35.5t-35.5 24t-43.5 9t-44 -9t-36.5 -24t-24.5 -35.5t-9 -44.5q0 -23 9 -43.5t24.5 -35.5t36.5 -23.5t44 -8.5z" />
    <glyph glyph-name="ntilde" unicode="&#xf1;" horiz-adv-x="625" 
d="M356 543q46 0 87.5 -21.5t73 -58.5t50 -87t18.5 -106v-270h-173v245q0 20 -7 39.5t-19.5 35.5t-30 25.5t-38.5 9.5t-39 -9.5t-30.5 -25.5t-19.5 -35.5t-7 -39.5v-245h-170v543h170v-54q33 32 66.5 43t68.5 11zM208 620l-62 46l7 9q17 26 39.5 41t53.5 18q19 2 36.5 -2
t34.5 -12h2v-2q14 -6 26.5 -11.5t25 -7.5t25 1t25.5 14l7 6l61 -45l-6 -9q-36 -53 -96 -59q-19 -2 -36 2t-34 11h-2q-13 7 -25.5 13t-25 8.5t-24.5 -1t-25 -15.5z" />
    <glyph glyph-name="ograve" unicode="&#xf2;" 
d="M400 645h-91l-86 141h127zM325 536q56 0 106 -21.5t87 -58.5t58.5 -86.5t21.5 -105.5q0 -55 -21.5 -104.5t-58.5 -86.5t-87 -58.5t-106 -21.5h-27q-56 0 -106 21.5t-87 58.5t-58.5 86.5t-21.5 104.5q0 56 21.5 105.5t58.5 86.5t87 58.5t106 21.5h27zM311 145q24 0 45 9.5
t36 26t24 38.5t9 47q0 24 -9 45.5t-24 37.5t-36 25.5t-45 9.5q-23 0 -43.5 -9.5t-36 -25.5t-24.5 -37.5t-9 -45.5q0 -25 9 -47t24.5 -38.5t36 -26t43.5 -9.5z" />
    <glyph glyph-name="oacute" unicode="&#xf3;" 
d="M316 645h-93l50 141h127zM325 536q56 0 106 -21.5t87 -58.5t58.5 -86.5t21.5 -105.5q0 -55 -21.5 -104.5t-58.5 -86.5t-87 -58.5t-106 -21.5h-27q-56 0 -106 21.5t-87 58.5t-58.5 86.5t-21.5 104.5q0 56 21.5 105.5t58.5 86.5t87 58.5t106 21.5h27zM311 145q24 0 45 9.5
t36 26t24 38.5t9 47q0 24 -9 45.5t-24 37.5t-36 25.5t-45 9.5q-23 0 -43.5 -9.5t-36 -25.5t-24.5 -37.5t-9 -45.5q0 -25 9 -47t24.5 -38.5t36 -26t43.5 -9.5z" />
    <glyph glyph-name="ocircumflex" unicode="&#xf4;" 
d="M270 636h-122l107 150h113l107 -150h-123l-41 59zM325 536q56 0 106 -21.5t87 -58.5t58.5 -86.5t21.5 -105.5q0 -55 -21.5 -104.5t-58.5 -86.5t-87 -58.5t-106 -21.5h-27q-56 0 -106 21.5t-87 58.5t-58.5 86.5t-21.5 104.5q0 56 21.5 105.5t58.5 86.5t87 58.5t106 21.5
h27zM311 145q23 0 44 9.5t36.5 26t24.5 38.5t9 47q0 24 -9 45.5t-24.5 37.5t-36.5 25.5t-44 9.5q-24 0 -44.5 -9.5t-35.5 -25.5t-24 -37.5t-9 -45.5q0 -25 9 -47t24 -38.5t35.5 -26t44.5 -9.5z" />
    <glyph glyph-name="otilde" unicode="&#xf5;" horiz-adv-x="621" 
d="M200 620l-61 46l7 9q34 53 95 59q19 2 36 -2t34 -12l3 -2q13 -6 25.5 -11.5t24.5 -7.5t24.5 1t25.5 14l6 6l62 -45l-7 -9q-36 -53 -93 -59q-20 -2 -37 2t-34 11h-2q-13 7 -26 13t-25.5 8.5t-25 -1t-25.5 -15.5zM325 536q56 0 105.5 -21.5t86 -58.5t57.5 -86.5t21 -105.5
q0 -55 -21 -104.5t-57.5 -86.5t-86 -58.5t-105.5 -21.5h-30q-55 0 -104 21.5t-86 58.5t-58.5 86.5t-21.5 104.5q0 56 21.5 105.5t58.5 86.5t86 58.5t104 21.5h30zM311 145q23 0 44 9.5t36.5 26t24.5 38.5t9 47q0 24 -9 45.5t-24.5 37.5t-36.5 25.5t-44 9.5q-24 0 -44.5 -9.5
t-35.5 -25.5t-24 -37.5t-9 -45.5q0 -25 9 -47t24 -38.5t35.5 -26t44.5 -9.5z" />
    <glyph glyph-name="odieresis" unicode="&#xf6;" 
d="M218 616q-32 0 -55.5 23.5t-23.5 55.5q0 17 6.5 32t17 26t25 17.5t30.5 6.5t30.5 -6.5t25.5 -17.5t17.5 -26t6.5 -32q0 -16 -6.5 -30.5t-17.5 -25t-25.5 -17t-30.5 -6.5zM405 616q-33 0 -56.5 23.5t-23.5 55.5q0 35 23.5 58.5t56.5 23.5q16 0 30.5 -6.5t25 -17.5t17 -26
t6.5 -32q0 -32 -23.5 -55.5t-55.5 -23.5zM325 536q56 0 106 -21.5t87 -58.5t58.5 -86.5t21.5 -105.5q0 -55 -21.5 -104.5t-58.5 -86.5t-87 -58.5t-106 -21.5h-27q-56 0 -106 21.5t-87 58.5t-58.5 86.5t-21.5 104.5q0 56 21.5 105.5t58.5 86.5t87 58.5t106 21.5h27zM311 145
q24 0 45 9.5t36 26t24 38.5t9 47q0 24 -9 45.5t-24 37.5t-36 25.5t-45 9.5t-44.5 -9.5t-35.5 -25.5t-24 -37.5t-9 -45.5q0 -25 9 -47t24 -38.5t35.5 -26t44.5 -9.5z" />
    <glyph glyph-name="divide" unicode="&#xf7;" horiz-adv-x="470" 
d="M234 411q-33 0 -56.5 23.5t-23.5 56.5t23.5 56t56.5 23t56 -23t23 -56t-23 -56.5t-56 -23.5zM234 159q32 0 55.5 -23.5t23.5 -55.5q0 -35 -23.5 -57.5t-55.5 -22.5t-56 22.5t-24 57.5q0 32 23.5 55.5t56.5 23.5zM20 218v134h429v-134h-429z" />
    <glyph glyph-name="oslash" unicode="&#xf8;" horiz-adv-x="652" 
d="M472 537q34 -18 62 -44t48.5 -59t32 -71t11.5 -79q0 -58 -22.5 -110t-61.5 -90t-91.5 -60.5t-111.5 -22.5h-22l-21 -71h-145l30 103q-34 18 -63 44t-49 58.5t-31.5 70t-11.5 78.5q0 59 22.5 111t61 90.5t90 61t110.5 22.5h25l21 71h145zM299 442q-28 -5 -52 -19.5
t-42 -35.5t-28 -47.5t-10 -55.5q0 -35 13.5 -65t38.5 -52zM353 128q28 5 52 19t42 34.5t28 46.5t10 56q0 36 -14 66t-38 53z" />
    <glyph glyph-name="ugrave" unicode="&#xf9;" horiz-adv-x="627" 
d="M396 645h-91l-86 141h127zM403 543h172v-543h-170v52q-35 -31 -68 -41.5t-68 -10.5q-45 0 -87 21t-73.5 58t-50.5 86t-19 106v272h173v-245q0 -21 7 -40.5t19.5 -34.5t30 -24.5t38.5 -9.5t39 9.5t30.5 24.5t19.5 34.5t7 40.5v245z" />
    <glyph glyph-name="uacute" unicode="&#xfa;" horiz-adv-x="625" 
d="M309 645h-93l50 141h130zM400 543h173v-543h-170v52q-35 -31 -68 -41.5t-69 -10.5q-45 0 -86 21t-72.5 58t-50 86t-18.5 106v272h173v-245q0 -21 6.5 -40.5t19 -34.5t30 -24.5t39.5 -9.5q21 0 39 9.5t30.5 24.5t19.5 34.5t7 40.5z" />
    <glyph glyph-name="ucircumflex" unicode="&#xfb;" horiz-adv-x="627" 
d="M403 543h172v-543h-170v52q-35 -31 -68 -41.5t-68 -10.5q-45 0 -87 21t-73.5 58t-50.5 86t-19 106v272h173v-245q0 -21 7 -40.5t19.5 -34.5t30 -24.5t38.5 -9.5t39 9.5t30.5 24.5t19.5 34.5t7 40.5v245zM266 636h-122l106 150h114l107 -150h-123l-41 59z" />
    <glyph glyph-name="udieresis" unicode="&#xfc;" horiz-adv-x="626" 
d="M402 543h172v-543h-170v52q-35 -31 -68 -41.5t-68 -10.5q-45 0 -87 21t-73.5 58t-50.5 86t-19 106q0 68 1 135.5t1 136.5h171v-245q0 -21 7 -40.5t19.5 -34.5t30 -24.5t38.5 -9.5t39 9.5t30.5 24.5t19.5 34.5t7 40.5v245zM399 616q-32 0 -55.5 23.5t-23.5 55.5
q0 17 6.5 32t17 26t25 17.5t30.5 6.5q35 0 57.5 -23.5t22.5 -58.5q0 -32 -22.5 -55.5t-57.5 -23.5zM213 616q-16 0 -30.5 6.5t-25.5 17t-17.5 25t-6.5 30.5q0 17 6.5 32t17.5 26t25.5 17.5t30.5 6.5q34 0 56.5 -23.5t22.5 -58.5q0 -32 -22.5 -55.5t-56.5 -23.5z" />
    <glyph glyph-name="yacute" unicode="&#xfd;" horiz-adv-x="631" 
d="M316 645h-91l50 141h128zM625 543l-206 -543l-98 -257h-180l82 218l-218 582h177l132 -345l132 345h179z" />
    <glyph glyph-name="thorn" unicode="&#xfe;" horiz-adv-x="660" 
d="M390 543q50 0 94.5 -21.5t77.5 -58.5t52 -87t19 -106t-19 -105.5t-52 -86t-77.5 -57.5t-94.5 -21h-25q-40 0 -75 12.5t-66 35.5v-305h-173v1043h173v-293q31 24 66 37t75 13h25zM453 286q0 21 -8.5 40.5t-22.5 34.5t-33.5 23.5t-42.5 8.5q-22 0 -41.5 -8.5t-33.5 -23.5
t-22.5 -34.5t-8.5 -40.5v-29q0 -22 8.5 -41.5t22.5 -34t33.5 -23t41.5 -8.5q23 0 42.5 8.5t33.5 23t22.5 34t8.5 41.5v29z" />
    <glyph glyph-name="ydieresis" unicode="&#xff;" horiz-adv-x="631" 
d="M625 543l-206 -543l-98 -257h-177l81 218l-220 582h180l131 -345l130 345h179zM410 616q-35 0 -57.5 23.5t-22.5 55.5q0 35 22.5 58.5t57.5 23.5q16 0 30.5 -6.5t25 -17.5t17 -26t6.5 -32q0 -32 -23.5 -55.5t-55.5 -23.5zM223 616q-34 0 -56.5 23.5t-22.5 55.5
q0 35 22.5 58.5t56.5 23.5q16 0 30.5 -6.5t25.5 -17.5t17.5 -26t6.5 -32q0 -16 -6.5 -30.5t-17.5 -25t-25.5 -17t-30.5 -6.5z" />
    <glyph glyph-name="Amacron" unicode="&#x100;" horiz-adv-x="725" 
d="M212 755v118h300v-118h-300zM724 0h-187l-50 130h-250l-52 -130h-184l273 700h175zM419 302l-57 148l-59 -148h116z" />
    <glyph glyph-name="amacron" unicode="&#x101;" horiz-adv-x="658" 
d="M606 543v-543h-172v48q-29 -23 -64.5 -35.5t-74.5 -12.5h-25q-50 0 -94.5 21t-77.5 58t-52 86t-19 106q0 56 19 105.5t52 86.5t77.5 58.5t94.5 21.5h25q39 0 74.5 -13t64.5 -37v50h172zM420 286q0 21 -8.5 40.5t-23.5 34.5t-34.5 23.5t-40.5 8.5q-22 0 -42 -8.5
t-35 -23.5t-23.5 -34.5t-8.5 -40.5v-29q0 -22 8.5 -41.5t23.5 -34t35 -23t42 -8.5q21 0 40.5 8.5t34.5 23t23.5 34t8.5 41.5v29zM466 666h-300v120h300v-120z" />
    <glyph glyph-name="Abreve" unicode="&#x102;" horiz-adv-x="725" 
d="M362 723q-31 0 -59.5 13t-49.5 37q-38 41 -38 100h93q0 -24 16 -40.5t38 -16.5q24 0 40.5 16.5t16.5 40.5h93q0 -29 -10.5 -54.5t-29.5 -45.5q-21 -24 -50 -37t-60 -13zM724 0h-184l-53 130h-250l-50 -130h-186l273 700h177zM419 302l-57 148l-56 -148h113z" />
    <glyph glyph-name="abreve" unicode="&#x103;" horiz-adv-x="660" 
d="M318 636q-31 0 -60 13.5t-49 36.5q-39 44 -39 100h94q0 -23 15.5 -39.5t38.5 -16.5q24 0 40.5 16.5t16.5 39.5h93q0 -29 -11 -54t-30 -46q-20 -23 -49 -36.5t-60 -13.5zM609 543v-543h-173v48q-29 -23 -65 -35.5t-74 -12.5h-27q-50 0 -94.5 21t-77.5 58t-52 86t-19 106
q0 56 19 105.5t52 86.5t77.5 58.5t94.5 21.5h27q38 0 74 -13t65 -37v50h173zM422 286q0 21 -8.5 40.5t-23.5 34.5t-35 23.5t-42 8.5t-41.5 -8.5t-33.5 -23.5t-22.5 -34.5t-8.5 -40.5v-29q0 -22 8.5 -41.5t22.5 -34t33.5 -23t41.5 -8.5t42 8.5t35 23t23.5 34t8.5 41.5v29z
" />
    <glyph glyph-name="Aogonek" unicode="&#x104;" horiz-adv-x="726" 
d="M737 -173l-32 -18q-11 -8 -25.5 -14t-28.5 -11q-16 -5 -31 -8.5t-30 -5.5q-21 -2 -45 4.5t-46 19.5t-39 31t-23 39q-5 14 -3.5 28t6.5 28q8 28 29.5 49t47.5 33q3 2 8 3.5t10 3.5l-48 121h-250l-50 -130h-186l273 700h177l241 -618q12 -29 25 -59.5t11 -61.5
q-23 -5 -43 -8.5t-39 -8t-37.5 -10.5t-39.5 -16q-27 -12 -23 -25t21 -20q14 -5 31 -2.5t34 8.5t33 13.5t27 14.5zM419 302l-57 148l-56 -148h113z" />
    <glyph glyph-name="aogonek" unicode="&#x105;" horiz-adv-x="657" 
d="M668 -173l-32 -18q-19 -13 -45 -21t-53 -11t-53 0.5t-47 13.5q-30 15 -48 41.5t-19.5 56.5t15 60t55.5 51h-5v48q-31 -23 -66.5 -35.5t-74.5 -12.5h-25q-50 0 -94.5 21t-77.5 58t-52 86t-19 106q0 56 19 105.5t52 86.5t77.5 58.5t94.5 21.5h25q39 0 74.5 -13t66.5 -37v50
h170v-591q-29 -7 -52 -12.5t-54 -21.5q-28 -12 -25 -25t22 -20q14 -5 31 -2.5t34.5 8.5t33 13.5t26.5 14.5zM420 286q0 21 -8.5 40.5t-23 34.5t-34 23.5t-41.5 8.5t-41.5 -8.5t-33.5 -23.5t-22.5 -34.5t-8.5 -40.5v-29q0 -22 8.5 -41.5t22.5 -34t33.5 -23t41.5 -8.5
t41.5 8.5t34 23t23 34t8.5 41.5v29z" />
    <glyph glyph-name="Cacute" unicode="&#x106;" horiz-adv-x="762" 
d="M384 732h-91l50 141h128zM391 152q51 0 93 23.5t68 63.5h191q-18 -52 -50.5 -96t-76 -75.5t-96.5 -49.5t-111 -18h-36q-72 0 -136 27.5t-111.5 75t-75 111.5t-27.5 136t27.5 135.5t75 111t111.5 75.5t136 28h36q58 0 111 -18t96.5 -49.5t76 -75.5t50.5 -96h-191
q-26 38 -68 61t-93 23q-40 0 -75.5 -15.5t-62 -42t-42 -62t-15.5 -75.5q0 -41 15.5 -77t42 -63t62 -42.5t75.5 -15.5z" />
    <glyph glyph-name="cacute" unicode="&#x107;" horiz-adv-x="612" 
d="M311 645h-93l50 141h127zM311 145q33 0 59 17t41 43h178q-11 -45 -36 -82.5t-59.5 -64.5t-77.5 -42.5t-91 -15.5h-27q-56 0 -106 21t-87 57.5t-58.5 86t-21.5 105.5t21.5 106t58.5 87t87 58.5t106 21.5h27q48 0 91 -15.5t77.5 -43t59.5 -64.5t36 -81h-178q-15 26 -41 41
t-59 15q-23 0 -43.5 -9t-36 -24t-24.5 -35.5t-9 -44.5v-23q0 -23 9 -43.5t24.5 -36.5t36 -25t43.5 -9z" />
    <glyph glyph-name="Ccaron" unicode="&#x10c;" horiz-adv-x="760" 
d="M391 152q50 0 92 23.5t70 63.5h188q-18 -52 -50.5 -96t-75.5 -75.5t-95.5 -49.5t-110.5 -18h-36q-72 0 -136 27.5t-111.5 75t-75 111.5t-27.5 136t27.5 135.5t75 111t111.5 75.5t136 28h36q58 0 110.5 -18t95.5 -49.5t75.5 -75.5t50.5 -96h-188q-28 38 -70 61t-92 23
q-41 0 -77 -15.5t-63 -42t-42.5 -62t-15.5 -75.5q0 -41 15.5 -77t42.5 -63t63 -42.5t77 -15.5zM325 723l-107 150h123l41 -59l41 59h123l-109 -150h-112z" />
    <glyph glyph-name="ccaron" unicode="&#x10d;" horiz-adv-x="614" 
d="M252 650l-107 148h121l43 -57l41 57h120l-106 -148h-112zM311 145q33 0 59 17t41 43h180q-12 -45 -37 -82.5t-60 -64.5t-77.5 -42.5t-89.5 -15.5h-29q-56 0 -106 21t-87 57.5t-58.5 86t-21.5 105.5t21.5 106t58.5 87t87 58.5t106 21.5h29q47 0 89.5 -15.5t77.5 -43
t60 -64.5t37 -81h-180q-15 26 -41 41t-59 15q-23 0 -43.5 -9t-36 -24t-24.5 -35.5t-9 -44.5v-23q0 -23 9 -43.5t24.5 -36.5t36 -25t43.5 -9z" />
    <glyph glyph-name="Dcaron" unicode="&#x10e;" horiz-adv-x="756" 
d="M405 702q66 0 125 -25.5t103 -69t69.5 -102.5t25.5 -125v-60q0 -66 -25.5 -125t-69.5 -102.5t-103 -69t-125 -25.5h-350v704h350zM555 380q0 30 -11.5 57.5t-32 48t-47.5 32.5t-59 12h-177v-360h177q32 0 59 11.5t47.5 32t32 48t11.5 58.5v60zM334 723l-106 150h122
l41 -59l41 59h123l-107 -150h-114z" />
    <glyph glyph-name="dcaron" unicode="&#x10f;" horiz-adv-x="730" 
d="M702 786q16 0 30.5 -6.5t25.5 -17t17.5 -25t6.5 -30.5v-75q0 -19 -5 -36.5t-15 -31t-25.5 -22t-36.5 -8.5h-34v55l11 4q17 5 17 12.5t-3 21.5q-29 4 -49 26.5t-20 53.5q0 16 6.5 30.5t17.5 25t25.5 17t30.5 6.5zM436 786h171v-786h-171v48q-31 -23 -66.5 -35.5
t-74.5 -12.5h-25q-50 0 -94.5 21t-77.5 58t-52 86t-19 106q0 56 19 105.5t52 86.5t77.5 58.5t94.5 21.5h25q39 0 74.5 -13t66.5 -37v293zM420 286q0 21 -8.5 40.5t-23 34.5t-34 23.5t-41.5 8.5t-41.5 -8.5t-33.5 -23.5t-22.5 -34.5t-8.5 -40.5v-29q0 -22 8.5 -41.5t22.5 -34
t33.5 -23t41.5 -8.5t41.5 8.5t34 23t23 34t8.5 41.5v29z" />
    <glyph glyph-name="dcroat" unicode="&#x111;" horiz-adv-x="658" 
d="M681 716v-118h-75v-598h-172v48q-29 -23 -64.5 -35.5t-74.5 -12.5h-25q-50 0 -94.5 21t-77.5 58t-52 86t-19 106q0 56 19 105.5t52 86.5t77.5 58.5t94.5 21.5h25q39 0 74.5 -13t64.5 -37v105h-52v118h52v70h172v-70h75zM420 286q0 21 -8.5 40.5t-23 34.5t-34 23.5
t-41.5 8.5t-41.5 -8.5t-33.5 -23.5t-22.5 -34.5t-8.5 -40.5v-29q0 -22 8.5 -41.5t22.5 -34t33.5 -23t41.5 -8.5t41.5 8.5t34 23t23 34t8.5 41.5v29z" />
    <glyph glyph-name="Emacron" unicode="&#x112;" horiz-adv-x="651" 
d="M484 755h-300v118h300v-118zM228 527v-91h320v-172h-320v-94h386v-170h-559v700h559v-173h-386z" />
    <glyph glyph-name="emacron" unicode="&#x113;" 
d="M461 666h-300v120h300v-120zM207 214q14 -29 42 -48.5t62 -19.5q19 0 35.5 6t30.5 14h200q-15 -37 -40.5 -67.5t-58 -52.5t-71.5 -34t-82 -12h-27q-56 0 -106 21t-87 58t-58.5 86t-21.5 106q0 56 21.5 105.5t58.5 86.5t87 58.5t106 21.5h27q56 0 106 -21.5t87 -58.5
t58.5 -86.5t21.5 -105.5q0 -14 -1.5 -28.5t-5.5 -28.5h-384zM311 395q-34 0 -62 -18.5t-42 -49.5h209q-14 31 -42 49.5t-63 18.5z" />
    <glyph glyph-name="Edotaccent" unicode="&#x116;" horiz-adv-x="652" 
d="M335 730q-29 0 -49 19.5t-20 48.5t20 48.5t49 19.5t49.5 -19.5t20.5 -48.5t-20.5 -48.5t-49.5 -19.5zM228 527v-91h322v-172h-322v-94h386v-170h-559v700h559v-173h-386z" />
    <glyph glyph-name="edotaccent" unicode="&#x117;" horiz-adv-x="622" 
d="M311 641q-29 0 -49.5 20.5t-20.5 49.5q0 28 20.5 48.5t49.5 20.5q28 0 48.5 -20.5t20.5 -48.5q0 -29 -20.5 -49.5t-48.5 -20.5zM207 214q14 -29 41.5 -48.5t62.5 -19.5q17 0 33.5 6t30.5 14h200q-15 -37 -40 -67.5t-57.5 -52.5t-71 -34t-81.5 -12h-30q-55 0 -104 21
t-86 58t-58.5 86t-21.5 106q0 56 21.5 105.5t58.5 86.5t86 58.5t104 21.5h30q56 0 106 -21.5t87 -58.5t58.5 -86.5t21.5 -105.5q0 -14 -2 -28.5t-5 -28.5h-384zM311 395q-35 0 -62.5 -18.5t-41.5 -49.5h209q-14 31 -42 49.5t-63 18.5z" />
    <glyph glyph-name="Eogonek" unicode="&#x118;" horiz-adv-x="653" 
d="M660 -173l-30 -18q-21 -13 -46.5 -21t-52.5 -11t-53.5 0.5t-47.5 13.5q-29 15 -46.5 41.5t-19.5 56.5t14 60t54 51h-377v700h561v-173h-388v-91h322v-172h-322v-94h388v-215q-18 -4 -33 -7t-29.5 -6.5t-29.5 -9t-33 -14.5q-26 -12 -22.5 -25t20.5 -20q14 -5 31 -2.5
t34.5 8.5t33.5 13.5t28 14.5z" />
    <glyph glyph-name="eogonek" unicode="&#x119;" 
d="M466 214h-259q14 -29 41.5 -48.5t62.5 -19.5q17 0 34 6t32 14h200q-22 -53 -64 -92t-97 -58q0 -3 -16 -12.5t-37.5 -22.5t-44 -28.5t-36.5 -30.5t-14.5 -28t21.5 -21q14 -5 31 -2.5t34 8.5t33.5 13.5t28.5 14.5l43 -80l-30 -18q-20 -13 -46 -21t-53.5 -11t-53.5 0.5
t-46 13.5q-30 16 -48 43.5t-19.5 58t16.5 60t60 49.5l4 3q-47 9 -87 33.5t-69 60t-45.5 79.5t-16.5 93q0 56 21.5 105.5t58.5 86.5t87 58.5t106 21.5h27q56 0 106 -21.5t87 -58.5t58.5 -86.5t21.5 -105.5q0 -14 -2 -28.5t-5 -28.5h-125v0zM311 395q-35 0 -62.5 -18.5
t-41.5 -49.5h209q-14 31 -42 49.5t-63 18.5z" />
    <glyph glyph-name="Ecaron" unicode="&#x11a;" horiz-adv-x="652" 
d="M280 723l-109 150h123l40 -59l41 59h123l-107 -150h-111zM228 527v-91h322v-172h-322v-94h386v-170h-559v700h559v-173h-386z" />
    <glyph glyph-name="ecaron" unicode="&#x11b;" 
d="M255 636l-107 150h123l40 -59l41 59h123l-107 -150h-113zM207 214q14 -29 42 -48.5t62 -19.5q19 0 35.5 6t30.5 14h200q-15 -37 -40.5 -67.5t-58 -52.5t-71.5 -34t-82 -12h-27q-56 0 -106 21t-87 58t-58.5 86t-21.5 106q0 56 21.5 105.5t58.5 86.5t87 58.5t106 21.5h27
q56 0 106 -21.5t87 -58.5t58.5 -86.5t21.5 -105.5q0 -14 -1.5 -28.5t-5.5 -28.5h-384zM311 395q-34 0 -62 -18.5t-42 -49.5h209q-14 31 -41.5 49.5t-63.5 18.5z" />
    <glyph glyph-name="Gbreve" unicode="&#x11e;" horiz-adv-x="768" 
d="M351 532q-31 0 -58 -12t-47.5 -32.5t-32.5 -47.5t-12 -58v-62q0 -30 12 -57.5t32.5 -48t47.5 -32.5t58 -12h191v96h-171v170h343v-436h-363q-67 0 -125.5 25t-102.5 68.5t-69.5 102t-25.5 124.5v62q0 66 25.5 124.5t69.5 102t102.5 68.5t125.5 25h363v-170h-363zM371 723
q-67 0 -109 50q-19 20 -30 45.5t-11 54.5h93q0 -24 16.5 -40.5t40.5 -16.5q23 0 39 16.5t16 40.5h93q0 -58 -39 -100q-20 -24 -49 -37t-60 -13z" />
    <glyph glyph-name="gbreve" unicode="&#x11f;" horiz-adv-x="660" 
d="M318 636q-32 0 -60.5 13.5t-48.5 36.5q-41 43 -41 100h93q0 -23 16.5 -39.5t40.5 -16.5q23 0 39 16.5t16 39.5h93q0 -56 -39 -100q-20 -23 -49 -36.5t-60 -13.5zM609 543v-520q0 -44 -13 -83.5t-36 -73t-54.5 -59.5t-69.5 -41q-49 -23 -109 -23h-20q-48 0 -91.5 15.5
t-79 43.5t-61.5 66t-39 82h193q14 -15 34.5 -24.5t43.5 -9.5h20q22 0 42 8.5t35 23t23.5 34t8.5 41.5v25q-31 -23 -66.5 -35.5t-74.5 -12.5h-25q-50 0 -94.5 21t-77.5 58t-52 86t-19 106q0 56 19 105.5t52 86.5t77.5 58.5t94.5 21.5h25q39 0 74.5 -13t66.5 -37v50h173z
M420 286q0 21 -8.5 40.5t-22.5 34.5t-33.5 23.5t-42.5 8.5q-22 0 -41.5 -8.5t-33.5 -23.5t-22.5 -34.5t-8.5 -40.5v-29q0 -22 8.5 -41.5t22.5 -34t33.5 -23t41.5 -8.5q23 0 42.5 8.5t33.5 23t22.5 34t8.5 41.5v29z" />
    <glyph glyph-name="Imacron" unicode="&#x12a;" horiz-adv-x="283" 
d="M55 0v700h172v-700h-172zM291 873v-118h-300v118h300z" />
    <glyph glyph-name="imacron" unicode="&#x12b;" horiz-adv-x="275" 
d="M51 0v543h172v-543h-172zM287 786v-120h-300v120h300z" />
    <glyph glyph-name="Idotaccent" unicode="&#x130;" horiz-adv-x="283" 
d="M141 730q-29 0 -49.5 19.5t-20.5 48.5t20.5 48.5t49.5 19.5t48.5 -19.5t19.5 -48.5t-19.5 -48.5t-48.5 -19.5zM55 0v700h173v-700h-173z" />
    <glyph glyph-name="dotlessi" unicode="&#x131;" horiz-adv-x="275" 
d="M51 0v543h173v-543h-173z" />
    <glyph glyph-name="Lslash" unicode="&#x141;" horiz-adv-x="629" 
d="M609 164v-164h-400v80l-53 -80h-161l214 298v402h163v-193l46 59h182l-228 -286v-116h237z" />
    <glyph glyph-name="lslash" unicode="&#x142;" horiz-adv-x="423" 
d="M414 707v-243l-107 -107v-357h-172v184l-105 -104v243l105 104v359h172v-186z" />
    <glyph glyph-name="Nacute" unicode="&#x143;" horiz-adv-x="807" 
d="M410 732h-91l50 141h127zM759 0h-209l-322 459v-459h-173v700h216l307 -441v441h172v-686z" />
    <glyph glyph-name="nacute" unicode="&#x144;" horiz-adv-x="626" 
d="M358 543q45 0 86.5 -21.5t73 -58.5t50.5 -87t19 -106q0 -68 -1 -134.5t-1 -135.5h-170v245q0 20 -7 39.5t-19.5 35.5t-30.5 25.5t-39 9.5t-38.5 -9.5t-30 -25.5t-19.5 -35.5t-7 -39.5v-245h-173v543h170v-54q35 32 68 43t69 11zM322 645h-91l50 141h127z" />
    <glyph glyph-name="Ncaron" unicode="&#x147;" horiz-adv-x="807" 
d="M355 723l-107 150h123l41 -59l41 59h122l-106 -150h-114zM762 0h-212l-322 459v-459h-173v700h216l307 -441v441h172v-686z" />
    <glyph glyph-name="ncaron" unicode="&#x148;" horiz-adv-x="625" 
d="M262 636l-106 150h122l41 -59l41 59h121l-107 -150h-112zM358 543q45 0 86 -21.5t72.5 -58.5t50 -87t18.5 -106v-270h-173v245q0 20 -6.5 39.5t-18.5 35.5t-29.5 25.5t-38.5 9.5q-22 0 -39.5 -9.5t-30 -25.5t-19 -35.5t-6.5 -39.5v-245h-173v543h170v-54q35 32 68 43
t69 11z" />
    <glyph glyph-name="Omacron" unicode="&#x14c;" horiz-adv-x="786" 
d="M543 755h-300v118h300v-118zM412 700q72 0 136 -28t111.5 -75.5t75 -111t27.5 -135.5t-27.5 -136t-75 -111.5t-111.5 -75t-136 -27.5h-37q-72 0 -136 27.5t-112 75t-76 111.5t-28 136t28 135.5t76 111t112 75.5t136 28h37zM393 152q40 0 75.5 15.5t62.5 42.5t42.5 63
t15.5 77q0 40 -15.5 75.5t-42.5 62t-62.5 42t-75.5 15.5q-41 0 -77 -15.5t-62.5 -42t-42 -62t-15.5 -75.5q0 -41 15.5 -77t42 -63t62.5 -42.5t77 -15.5z" />
    <glyph glyph-name="omacron" unicode="&#x14d;" 
d="M325 536q56 0 106 -21.5t87 -58.5t58.5 -86.5t21.5 -105.5q0 -55 -21.5 -104.5t-58.5 -86.5t-87 -58.5t-106 -21.5h-27q-56 0 -106 21.5t-87 58.5t-58.5 86.5t-21.5 104.5q0 56 21.5 105.5t58.5 86.5t87 58.5t106 21.5h27zM311 145q23 0 44 9.5t36.5 26t24.5 38.5t9 47
q0 24 -9 45.5t-24.5 37.5t-36.5 25.5t-44 9.5q-24 0 -44.5 -9.5t-35.5 -25.5t-24 -37.5t-9 -45.5q0 -25 9 -47t24 -38.5t35.5 -26t44.5 -9.5zM461 666h-300v120h300v-120z" />
    <glyph glyph-name="Ohungarumlaut" unicode="&#x150;" horiz-adv-x="785" 
d="M314 732h-91l50 141h127zM475 732h-91l50 141h128zM412 700q72 0 135.5 -28t111 -75.5t75.5 -111t28 -135.5t-28 -136t-76 -111.5t-111.5 -75t-134.5 -27.5h-39q-72 0 -135.5 27.5t-111 75t-75.5 111.5t-28 136t28 135.5t75.5 111t111 75.5t135.5 28h39zM393 152
q40 0 75.5 15.5t62.5 42.5t42.5 63t15.5 77q0 40 -15.5 75.5t-42.5 62t-62.5 42t-75.5 15.5q-41 0 -77 -15.5t-62.5 -42t-42 -62t-15.5 -75.5q0 -41 15.5 -77t42 -63t62.5 -42.5t77 -15.5z" />
    <glyph glyph-name="ohungarumlaut" unicode="&#x151;" 
d="M325 536q56 0 106 -21.5t87 -58.5t58.5 -86.5t21.5 -105.5q0 -55 -21.5 -104.5t-58.5 -86.5t-87 -58.5t-106 -21.5h-27q-56 0 -106 21.5t-87 58.5t-58.5 86.5t-21.5 104.5q0 56 21.5 105.5t58.5 86.5t87 58.5t106 21.5h27zM311 145q24 0 45 9.5t36 26t24 38.5t9 47
q0 24 -9 45.5t-24 37.5t-36 25.5t-45 9.5q-23 0 -43.5 -9.5t-36 -25.5t-24.5 -37.5t-9 -45.5q0 -25 9 -47t24.5 -38.5t36 -26t43.5 -9.5zM395 645h-93l50 141h130zM234 645h-91l50 141h128z" />
    <glyph glyph-name="OE" unicode="&#x152;" horiz-adv-x="1192" 
d="M769 528v-92h320v-172h-320v-93h386v-171h-559v52q-83 -52 -187 -52h-36q-72 0 -136 27.5t-111.5 75t-75 111.5t-27.5 136t27.5 135.5t75 111t111.5 75.5t136 28h36q52 0 99 -14.5t88 -40.5v55h559v-172h-386zM392 152q41 0 77 15.5t62.5 42.5t42 63t15.5 77
q0 40 -15.5 75.5t-42 62t-62.5 42t-77 15.5q-40 0 -76 -15.5t-62.5 -42t-42 -62t-15.5 -75.5q0 -41 15.5 -77t42 -63t62.5 -42.5t76 -15.5z" />
    <glyph glyph-name="oe" unicode="&#x153;" horiz-adv-x="1022" 
d="M866 214h-259q14 -29 41.5 -49t62.5 -20q17 0 34 6t32 15h198q-15 -37 -40 -67.5t-57.5 -52.5t-71 -34t-81.5 -12h-27q-54 0 -100 18t-84 52q-36 -35 -85 -56t-104 -21h-27q-56 0 -106 21.5t-87 58.5t-58.5 86.5t-21.5 104.5q0 56 21.5 105.5t58.5 86.5t87 58.5t106 21.5
h27q53 0 99.5 -19t82.5 -51q38 36 86 56.5t105 20.5h27q56 0 106 -21.5t87 -58.5t58.5 -86.5t21.5 -105.5q0 -14 -1.5 -28.5t-5.5 -28.5h-125v0zM311 145q23 0 44 9.5t36.5 26t24.5 38.5t9 47q0 24 -9 45.5t-24.5 37.5t-36.5 25.5t-44 9.5q-24 0 -44.5 -9.5t-35.5 -25.5
t-24 -37.5t-9 -45.5q0 -25 9 -47t24 -38.5t35.5 -26t44.5 -9.5zM711 395q-35 0 -62.5 -18.5t-41.5 -49.5h209q-14 31 -42 49.5t-63 18.5z" />
    <glyph glyph-name="Racute" unicode="&#x154;" horiz-adv-x="728" 
d="M700 466q0 -38 -11.5 -73t-32.5 -64.5t-50.5 -51.5t-64.5 -34l159 -243h-204l-152 232h-116v-232h-173v700h411q48 0 90.5 -18.5t74.5 -50.5t50.5 -74.5t18.5 -90.5zM466 402q26 0 44 19t18 45t-18 43.5t-44 17.5h-238v-125h238zM380 732h-91l50 141h127z" />
    <glyph glyph-name="racute" unicode="&#x155;" horiz-adv-x="445" 
d="M242 645h-91l50 141h127zM428 543v-175l-27 9q-26 9 -55.5 7t-55.5 -13t-45.5 -31.5t-25.5 -48.5v-291h-168v543h168v-59q10 11 25.5 22t34 19t38.5 13t39 5h72z" />
    <glyph glyph-name="Rcaron" unicode="&#x158;" horiz-adv-x="727" 
d="M307 723l-109 150h123l41 -59l41 59h122l-106 -150h-112zM700 0h-206l-150 232h-116v-232h-173v700h409q49 0 91.5 -18.5t74 -50.5t50 -74.5t18.5 -90.5q0 -38 -11.5 -73t-32.5 -64.5t-50 -51.5t-63 -34zM464 402q26 0 43.5 19t17.5 45t-17.5 43.5t-43.5 17.5h-236v-125
h236z" />
    <glyph glyph-name="rcaron" unicode="&#x159;" horiz-adv-x="445" 
d="M428 543v-175l-27 9q-27 9 -56.5 7t-55.5 -13t-45.5 -31.5t-26.5 -48.5v-291h-166v543h166v-59q22 23 60.5 41t78.5 18h72zM183 636l-107 150h120l44 -59l41 59h120l-107 -150h-111z" />
    <glyph glyph-name="Sacute" unicode="&#x15a;" horiz-adv-x="695" 
d="M350 732h-91l50 141h127zM509 414q52 -17 87.5 -47.5t53.5 -68t19 -78t-15.5 -78t-51 -69t-86.5 -50.5q-36 -14 -81.5 -18.5t-84.5 -4.5q-41 0 -89 8t-92.5 26.5t-80.5 48t-52 72.5q-3 14 -6 28.5t-3 30.5v4h177q9 -22 27 -35.5t39.5 -20.5t44.5 -9.5t44 -2.5
q27 -2 53.5 2.5t46.5 15.5q51 23 44.5 51.5t-56.5 44.5q-41 11 -87 16.5t-88 12.5q-30 7 -60 16t-58 23q-31 14 -56.5 36.5t-40.5 51t-18.5 61.5t8.5 67q16 46 51.5 75.5t78.5 46.5q36 14 77 22t80 8q46 0 97.5 -9t97.5 -32q21 -10 38 -20.5t30.5 -23.5t25 -29.5t22.5 -37.5
l-157 -75q-15 28 -45 44.5t-65 23t-71.5 3.5t-63.5 -14q-29 -11 -32 -32q0 -23 52 -37q9 -3 17 -5t15 -4q54 -10 107 -15.5t107 -22.5z" />
    <glyph glyph-name="sacute" unicode="&#x15b;" horiz-adv-x="556" 
d="M323 170q-29 9 -64 19.5t-69.5 24t-64.5 30.5t-50 38q-36 42 -36 95q2 44 32.5 83.5t78.5 59.5q29 11 60 17t60 6q32 0 64.5 -4.5t63.5 -15.5t58.5 -28t48.5 -43l-96 -102q-15 15 -35.5 26.5t-43 19t-45 11t-40.5 2.5q-23 -2 -29 -10.5t23 -16.5q27 -11 73 -25t93 -37
q26 -12 49 -26t40 -32t27.5 -40t10.5 -49q0 -47 -29.5 -89.5t-91.5 -65.5q-31 -12 -63.5 -15t-63.5 -3q-47 0 -89.5 10t-77 29.5t-58.5 48t-34 64.5l157 32q19 -24 48.5 -38t58.5 -14q10 -2 20 -1t18 3q28 8 23 18.5t-27 17.5zM295 645h-93l50 141h130z" />
    <glyph glyph-name="Scedilla" unicode="&#x15e;" horiz-adv-x="695" 
d="M509 414q52 -17 87.5 -47.5t53.5 -68t19 -78t-15.5 -78t-51 -69t-86.5 -50.5q-33 -12 -71.5 -17.5t-74.5 -5.5q-3 -7 -6 -12.5t-3 -10.5q12 -3 23.5 -7t19.5 -9q24 -10 42 -28t26 -42q4 -12 5 -25t-2 -25q-7 -27 -30 -46q-22 -15 -47 -22.5t-53 -4.5q-12 2 -25 4.5
t-27 7.5q-12 3 -24.5 8t-23.5 12l-27 16l43 70q14 -5 29 -12t30 -10q9 -4 17.5 -5.5t19.5 -3.5q7 0 15 1.5t12 4.5q2 4 -1 9t-17 12q-12 5 -27.5 9.5t-29.5 6.5q-5 2 -14 2l-32 9q-2 27 0 49.5t14 46.5q-37 6 -75 17.5t-70.5 30t-57.5 44t-38 58.5q-5 14 -7 28.5t-2 30.5v4
h177q9 -22 27 -35.5t39.5 -20.5t44.5 -9.5t44 -2.5q27 -2 53.5 2.5t46.5 15.5q26 11 36 24.5t7.5 27t-17 25t-38.5 19.5q-41 11 -87.5 16.5t-89.5 12.5q-29 7 -58.5 16t-57.5 23q-31 14 -56.5 36.5t-40.5 51t-18.5 61.5t8.5 67q16 46 51.5 75.5t78.5 46.5q36 14 77 22t80 8
q46 0 97 -9t96 -32q22 -10 39 -20.5t31 -23.5t25.5 -29.5t22.5 -37.5l-157 -75q-15 28 -45 44.5t-65 23t-71.5 3.5t-63.5 -14q-14 -5 -23 -13.5t-9 -18.5q-2 -11 12 -20.5t40 -16.5q9 -3 17 -5t15 -4q54 -10 107 -15.5t107 -22.5z" />
    <glyph glyph-name="scedilla" unicode="&#x15f;" horiz-adv-x="555" 
d="M322 170q-30 8 -65 18.5t-69.5 24t-64 30.5t-49.5 38q-17 20 -27.5 44t-8.5 52q0 46 30.5 84.5t80.5 58.5q29 12 59.5 17.5t61.5 5.5q30 0 62.5 -4.5t63 -14.5t58 -27t47.5 -43l-95 -105q-15 15 -35 27t-42.5 19.5t-44.5 10.5t-40 2q-23 -2 -29 -10t23 -17
q26 -10 72.5 -24.5t93.5 -36.5q26 -12 49 -26.5t40 -32t27.5 -39t10.5 -48.5q0 -48 -30.5 -91t-92.5 -65q-26 -11 -54 -15t-55 -4q-7 -13 -7 -22q11 -4 22 -7.5t21 -8.5q23 -11 40.5 -29t25.5 -42q10 -24 2 -50q-6 -27 -29 -45q-23 -16 -47.5 -23.5t-50.5 -3.5q-14 2 -27 4
t-27 7q-12 4 -24 8.5t-24 11.5l-27 16l43 71q15 -5 29.5 -11.5t29.5 -11.5q8 -4 18 -5.5t18 -3.5q7 0 15.5 1.5t12.5 5.5q2 3 -1 8t-15 12t-28.5 10.5t-30.5 5.5q-4 2 -7 2.5t-7 2.5l-32 7q0 27 1 50t13 47q-69 14 -118 50.5t-64 95.5l157 32q17 -24 47.5 -38.5t59.5 -14.5
q17 -3 38 5q26 7 22 18t-26 16z" />
    <glyph glyph-name="Scaron" unicode="&#x160;" horiz-adv-x="695" 
d="M292 723l-107 150h123l41 -59l41 59h122l-109 -150h-111zM508 414q52 -17 87.5 -47.5t54 -68t19.5 -78t-15 -78t-50.5 -69t-86.5 -50.5q-38 -14 -82.5 -18.5t-83.5 -4.5q-42 0 -90.5 8t-93 26.5t-80 48t-50.5 72.5q-5 14 -8 28.5t-3 30.5v4h180q8 -22 25 -35.5
t38.5 -20.5t45.5 -9.5t45 -2.5q26 -2 51.5 2.5t48.5 15.5q26 11 36 24.5t7 27t-17.5 25t-39.5 19.5q-39 11 -85.5 16.5t-89.5 12.5q-29 7 -59.5 16t-58.5 23q-31 14 -56 36.5t-40 51t-18 61.5t10 67q15 46 50 75.5t77 46.5q38 14 78.5 22t78.5 8q46 0 97.5 -9t97.5 -32
q22 -10 39 -20.5t30.5 -23.5t24.5 -29.5t22 -37.5l-154 -75q-16 28 -47 44.5t-66.5 23t-71.5 3.5t-63 -14q-29 -11 -32 -32q0 -23 52 -37q9 -3 17.5 -5t16.5 -4q54 -10 107.5 -15.5t104.5 -22.5z" />
    <glyph glyph-name="scaron" unicode="&#x161;" horiz-adv-x="556" 
d="M323 170l-65 19.5t-69.5 24t-64 30.5t-49.5 38q-17 20 -27.5 44t-8.5 51q0 45 30.5 84t80.5 59q29 11 59.5 17t60.5 6q31 0 63.5 -4.5t63 -15.5t58 -28t47.5 -43l-95 -102q-15 15 -35.5 26.5t-43 19t-44.5 11t-39 2.5q-23 -2 -29 -10.5t23 -16.5q26 -11 72.5 -25
t93.5 -37q26 -12 49 -26t40 -32t27.5 -40t10.5 -49q0 -47 -30.5 -89.5t-92.5 -65.5q-29 -12 -61.5 -15t-63.5 -3q-47 0 -89.5 10t-77 29.5t-58.5 48t-34 64.5l157 32q17 -24 47.5 -38t59.5 -14q8 -2 18 -1t20 3q26 8 22 18.5t-26 17.5zM318 786h123l-107 -150h-111l-109 150
h122l41 -59z" />
    <glyph glyph-name="Umacron" unicode="&#x16a;" horiz-adv-x="723" 
d="M511 755h-299v118h299v-118zM682 700v-380q0 -66 -25.5 -124.5t-69.5 -102t-102 -68.5t-124 -25t-124.5 25t-102 68.5t-68.5 102t-25 124.5v380h173v-380q0 -30 11.5 -57.5t31.5 -48t47 -32.5t57 -12t57 12t47 32.5t32 48t12 57.5v380h173z" />
    <glyph glyph-name="umacron" unicode="&#x16b;" horiz-adv-x="627" 
d="M403 543h172v-543h-170v52q-35 -31 -68 -41.5t-68 -10.5q-45 0 -87 21t-73.5 58t-50.5 86t-19 106v272h173v-245q0 -21 7 -40.5t19.5 -34.5t30 -24.5t38.5 -9.5t39 9.5t30.5 24.5t19.5 34.5t7 40.5v245zM457 666h-300v120h300v-120z" />
    <glyph glyph-name="Uring" unicode="&#x16e;" horiz-adv-x="723" 
d="M361 630q-50 0 -86 36q-17 15 -26.5 37.5t-9.5 46.5q0 52 36 86q17 17 38.5 27t47.5 10q24 0 47 -10t40 -27q15 -15 24.5 -37.5t9.5 -48.5q0 -24 -9.5 -46.5t-24.5 -37.5h-2q-16 -17 -38.5 -26.5t-46.5 -9.5zM330 782q-14 -11 -14 -32q0 -19 14 -30q9 -13 31 -13
q19 0 32 13q12 12 12 30q0 20 -12 32q-13 13 -32 13q-22 0 -31 -13zM682 700v-380q0 -66 -25.5 -124.5t-69 -102t-102 -68.5t-124.5 -25t-124.5 25t-102 68.5t-68.5 102t-25 124.5v380h173v-380q0 -30 11.5 -57.5t31.5 -48t47 -32.5t57 -12t57 12t47 32.5t32 48t12 57.5v380
h173z" />
    <glyph glyph-name="uring" unicode="&#x16f;" horiz-adv-x="627" 
d="M307 543q-26 0 -47.5 9.5t-38.5 26.5q-17 16 -26.5 38.5t-9.5 46.5q0 50 36 86t86 36q51 0 87 -36q15 -15 24.5 -37.5t9.5 -48.5q0 -24 -9.5 -46.5t-24.5 -38.5q-17 -17 -40 -26.5t-47 -9.5zM275 695q-13 -9 -13 -31q0 -20 13 -30q11 -14 32 -14q18 0 32 14q12 12 12 30
q0 21 -12 31q-14 14 -32 14q-10 0 -17 -3.5t-15 -10.5zM403 543h172v-543h-172v52q-33 -31 -66.5 -41.5t-67.5 -10.5q-46 0 -88 21t-73.5 58t-50 86t-18.5 106v272h173v-245q0 -21 7 -40.5t19.5 -34.5t30 -24.5t38.5 -9.5t39 9.5t30.5 24.5t19.5 34.5t7 40.5v245z" />
    <glyph glyph-name="Uhungarumlaut" unicode="&#x170;" horiz-adv-x="723" 
d="M682 700v-380q0 -66 -25 -124.5t-68.5 -102t-102 -68.5t-125.5 -25q-66 0 -124 25t-101.5 68.5t-69 102t-25.5 124.5v380h173v-380q0 -30 11.5 -57.5t31.5 -48t47 -32.5t57 -12q31 0 58 12t47 32.5t31.5 48t11.5 57.5v380h173zM446 732h-94l50 141h130zM284 732h-91
l50 141h128z" />
    <glyph glyph-name="uhungarumlaut" unicode="&#x171;" horiz-adv-x="625" 
d="M389 645h-91l50 141h127zM403 543h170v-543h-170v52q-33 -31 -66.5 -41.5t-67.5 -10.5q-46 0 -88 21t-73.5 58t-50 86t-18.5 106v272h173v-245q0 -21 7 -40.5t19.5 -34.5t30 -24.5t38.5 -9.5t39 9.5t30.5 24.5t19.5 34.5t7 40.5v245zM230 645h-93l50 141h129z" />
    <glyph glyph-name="Uogonek" unicode="&#x172;" horiz-adv-x="723" 
d="M682 700v-380q0 -91 -46 -164.5t-120 -114.5q-34 -20 -73 -41t-77 -52q-7 -6 -19 -16t-20 -21t-7.5 -21t19.5 -17q14 -5 31 -2.5t34 8.5t33 13.5t27 14.5l45 -80l-32 -18q-19 -13 -45 -21t-53 -11t-53 0.5t-46 13.5q-30 16 -48 43.5t-19.5 58t16.5 60t60 49.5
q2 2 3.5 2.5t3.5 2.5q-55 11 -101.5 39.5t-80.5 70t-53.5 93.5t-19.5 110v380h173v-380q0 -30 11.5 -57.5t31.5 -48t47 -32.5t57 -12t57 12t47 32.5t32 48t12 57.5v380h173z" />
    <glyph glyph-name="uogonek" unicode="&#x173;" horiz-adv-x="627" 
d="M616 -173l-31 -18q-20 -13 -46 -21t-53 -11t-53 0.5t-46 13.5q-30 16 -48 43.5t-19.5 58t16.5 60t60 49.5q2 2 3.5 2.5t5.5 2.5v45q-35 -31 -68 -41.5t-68 -10.5q-45 0 -87 21t-73.5 58t-50.5 86t-19 106v272h173v-245q0 -21 7 -40.5t19.5 -34.5t30 -24.5t38.5 -9.5
t39 9.5t30.5 24.5t19.5 34.5t7 40.5v245h172v-543h-2v-45q-18 -4 -33 -7t-29.5 -6.5t-29.5 -9t-33 -14.5q-27 -12 -23 -25t21 -20q14 -5 31 -2.5t34 8.5t33.5 13.5t28.5 14.5z" />
    <glyph glyph-name="Ydieresis" unicode="&#x178;" horiz-adv-x="700" 
d="M259 711q-31 0 -54 23.5t-23 54.5q0 16 6.5 30t17 24.5t24.5 16.5t29 6q32 0 54.5 -22.5t22.5 -54.5q0 -15 -6 -29.5t-16.5 -25t-24.5 -17t-30 -6.5zM441 711q-33 0 -55.5 23.5t-22.5 54.5q0 32 22.5 54.5t55.5 22.5q15 0 29 -6t24.5 -16.5t17 -24.5t6.5 -30
q0 -31 -23 -54.5t-54 -23.5zM707 700l-253 -361l-20 -28v-311h-171v314l-18 25l-252 361h211l146 -211l145 211h212z" />
    <glyph glyph-name="Zacute" unicode="&#x179;" horiz-adv-x="684" 
d="M345 732h-93l50 141h130zM650 516l-373 -346h373v-170h-616v182l373 345h-373v173h616v-184z" />
    <glyph glyph-name="zacute" unicode="&#x17a;" horiz-adv-x="558" 
d="M281 645h-91l50 141h127zM517 543v-173h-2l-218 -200h220v-170h-477v170l221 200h-221v173h477z" />
    <glyph glyph-name="Zdotaccent" unicode="&#x17b;" horiz-adv-x="682" 
d="M341 730q-29 0 -48.5 19.5t-19.5 48.5t19.5 48.5t48.5 19.5t48.5 -19.5t19.5 -48.5t-19.5 -48.5t-48.5 -19.5zM648 516l-373 -346h373v-170h-614v182l373 345h-373v173h614v-184z" />
    <glyph glyph-name="zdotaccent" unicode="&#x17c;" horiz-adv-x="558" 
d="M279 620q-33 0 -56.5 23.5t-23.5 56.5t23.5 56.5t56.5 23.5t56 -23.5t23 -56.5t-23 -56.5t-56 -23.5zM517 543v-173l-218 -200h218v-170h-477v170h2l218 200h-220v173h477z" />
    <glyph glyph-name="zcaron" unicode="&#x17e;" horiz-adv-x="558" 
d="M222 636l-107 150h123l41 -59l41 59h122l-109 -150h-111zM517 543v-173h-2l-218 -200h220v-170h-477v170l218 200h-218v173h477z" />
    <glyph glyph-name="circumflex" unicode="&#x2c6;" horiz-adv-x="360" 
d="M343 550h-122l-41 59l-41 -59h-123l109 150h111z" />
    <glyph glyph-name="caron" unicode="&#x2c7;" horiz-adv-x="354" 
d="M339 700l-107 -150h-111l-107 150h121l40 -59l44 59h120z" />
    <glyph glyph-name="breve" unicode="&#x2d8;" horiz-adv-x="340" 
d="M319 700q0 -58 -39 -100q-45 -50 -111 -50q-31 0 -60 13t-49 37q-39 42 -39 100h93q0 -24 16 -40.5t39 -16.5q24 0 40.5 16.5t16.5 40.5h93z" />
    <glyph glyph-name="dotaccent" unicode="&#x2d9;" horiz-adv-x="206" 
d="M103 704q34 0 56.5 -23.5t22.5 -55.5t-22.5 -56t-56.5 -24q-16 0 -31 6.5t-25.5 17.5t-17 25.5t-6.5 30.5q0 32 23.5 55.5t56.5 23.5z" />
    <glyph glyph-name="ogonek" unicode="&#x2db;" horiz-adv-x="337" 
d="M317 -173l-32 -18q-19 -13 -45 -21t-53 -11t-53 0.5t-47 13.5q-30 16 -47.5 43.5t-19 58t16 60t59.5 49.5q17 9 36.5 14t38.5 9q26 7 50.5 11t51.5 9v-90q-18 -4 -33 -7t-29.5 -6.5t-29.5 -9t-33 -14.5q-27 -12 -23 -25t21 -20q14 -5 31 -2.5t34.5 8.5t33 13.5t26.5 14.5
z" />
    <glyph glyph-name="hungarumlaut" unicode="&#x2dd;" horiz-adv-x="374" 
d="M70 700h127l-86 -141h-91zM229 700h130l-87 -141h-93z" />
    <glyph glyph-name="Sigma" unicode="&#x3a3;" horiz-adv-x="584" 
d="M555 539h-302l123 -189l-123 -191h302v-159h-536v68l189 282l-189 280v70h536v-161z" />
    <glyph glyph-name="endash" unicode="&#x2013;" horiz-adv-x="541" 
d="M27 211v173h486v-173h-486z" />
    <glyph glyph-name="emdash" unicode="&#x2014;" horiz-adv-x="911" 
d="M27 211v173h857v-173h-857z" />
    <glyph glyph-name="quoteleft" unicode="&#x2018;" horiz-adv-x="220" 
d="M122 607q29 -5 50 -27t20 -53q0 -32 -23.5 -55.5t-55.5 -23.5q-17 0 -32 6.5t-26 17t-17.5 25t-6.5 30.5v75q0 18 5 35.5t15.5 31.5t25.5 22.5t36 8.5h36v-55l-13 -4q-16 -7 -16 -14.5t2 -19.5z" />
    <glyph glyph-name="quoteright" unicode="&#x2019;" horiz-adv-x="220" 
d="M107 700q34 0 57.5 -23.5t23.5 -56.5v-74q0 -19 -5 -37t-15 -31.5t-25.5 -21.5t-35.5 -8h-37v54l14 5q15 5 15 12.5t-2 21.5q-29 4 -49.5 26.5t-20.5 52.5q0 33 23.5 56.5t56.5 23.5z" />
    <glyph glyph-name="quotesinglbase" unicode="&#x201a;" horiz-adv-x="211" 
d="M104 161q17 0 31.5 -6.5t25.5 -17t17.5 -25t6.5 -30.5v-75q0 -19 -5 -36.5t-15 -31t-25.5 -22t-35.5 -8.5h-37v55l14 4q15 5 15 12.5t-2 21.5q-29 4 -49.5 26.5t-20.5 53.5q0 32 23.5 55.5t56.5 23.5z" />
    <glyph glyph-name="quotedblleft" unicode="&#x201c;" horiz-adv-x="415" 
d="M122 607q29 -5 49.5 -27t20.5 -53q0 -16 -6.5 -30.5t-17.5 -25t-25.5 -17t-31.5 -6.5q-33 0 -56.5 23.5t-23.5 55.5v75q0 18 5 35.5t15.5 31.5t25.5 22.5t36 8.5h36v-55l-13 -4q-16 -7 -16 -14.5t2 -19.5zM317 607q29 -5 50 -27t21 -53q0 -32 -23.5 -55.5t-56.5 -23.5
q-17 0 -31.5 6.5t-25.5 17t-17.5 25t-6.5 30.5v75q0 18 5 35.5t15 31.5t25.5 22.5t35.5 8.5h37v-55l-14 -4q-15 -7 -15.5 -14.5t1.5 -19.5z" />
    <glyph glyph-name="quotedblright" unicode="&#x201d;" horiz-adv-x="415" 
d="M107 700q34 0 56.5 -23.5t22.5 -56.5q0 -18 1 -36.5t1 -37.5t-5 -37t-15 -31.5t-25.5 -21.5t-35.5 -8h-37v54l14 5q15 5 15.5 12.5t-1.5 21.5q-31 4 -51 26.5t-20 52.5q0 33 23.5 56.5t56.5 23.5zM382 620q0 -19 1 -37.5t1 -36.5q0 -19 -5 -37t-15.5 -31.5t-25.5 -21.5
t-36 -8h-36v54l13 5q16 5 16 12.5t-2 21.5q-31 4 -50.5 26.5t-19.5 52.5q0 33 23.5 56.5t55.5 23.5q34 0 57 -23.5t23 -56.5z" />
    <glyph glyph-name="quotedblbase" unicode="&#x201e;" horiz-adv-x="404" 
d="M104 161q32 0 55.5 -23.5t23.5 -55.5v-75q0 -19 -5 -36.5t-15 -31t-25.5 -22t-36.5 -8.5h-36v55l14 4q15 5 15 12.5t-2 21.5q-29 4 -48.5 26.5t-19.5 53.5q0 32 23.5 55.5t56.5 23.5zM299 161q16 0 30.5 -6.5t25.5 -17t17.5 -25t6.5 -30.5v-75q0 -19 -5 -36.5t-15 -31
t-25.5 -22t-36.5 -8.5h-37v55l14 4q15 5 15.5 12.5t-1.5 21.5q-29 4 -49 26.5t-20 53.5q0 16 6.5 30.5t17.5 25t25.5 17t30.5 6.5z" />
    <glyph glyph-name="dagger" unicode="&#x2020;" horiz-adv-x="527" 
d="M500 543v-173h-150v-627h-173v627h-150v173h150v157h173v-157h150z" />
    <glyph glyph-name="bullet" unicode="&#x2022;" horiz-adv-x="516" 
d="M259 573q46 0 86.5 -17.5t71 -48t48 -71t17.5 -86.5t-17.5 -86.5t-48 -71t-71 -48t-86.5 -17.5q-47 0 -88 17.5t-71.5 48t-48 71t-17.5 86.5t17.5 86.5t48 71t71.5 48t88 17.5z" />
    <glyph glyph-name="perthousand" unicode="&#x2030;" horiz-adv-x="893" 
d="M175 339q-29 0 -54.5 10.5t-45 29.5t-30.5 44t-11 54v82q0 29 11 54.5t30.5 45t45 30.5t54.5 11h16q29 0 54.5 -11t45 -30.5t30.5 -45t11 -54.5v-82q0 -29 -11 -54t-30.5 -44t-45 -29.5t-54.5 -10.5h-16zM125 477q0 -19 15 -33.5t35 -13.5h16q20 0 35 14t15 33v82
q0 20 -15 35t-35 15h-16q-20 0 -35 -15t-15 -35v-82zM720 361q29 0 55 -11t45 -30t30 -45t11 -55v-81q0 -29 -11 -54.5t-30 -44t-45 -29.5t-55 -11h-16q-52 0 -93 34v2l-2 -2q-19 -17 -43 -25.5t-50 -8.5h-16q-29 0 -54.5 11t-45 29.5t-30.5 44t-11 54.5v81q0 29 11 55
t30.5 45t45 30t54.5 11h16q26 0 50 -9.5t43 -26.5h2q44 36 93 36h16zM566 220q0 21 -15 35.5t-35 14.5h-16q-20 0 -35 -14.5t-15 -35.5v-81q0 -21 15 -34.5t35 -13.5h16q20 0 35 13.5t15 34.5v81zM770 220q0 21 -14.5 35.5t-35.5 14.5h-16q-20 0 -33.5 -14.5t-13.5 -35.5
v-81q0 -21 13.5 -34.5t33.5 -13.5h16q21 0 35.5 13.5t14.5 34.5v81zM602 700l-404 -700h-109l404 700h109z" />
    <glyph glyph-name="guilsinglleft" unicode="&#x2039;" horiz-adv-x="439" 
d="M249 350l170 -193h-207l-193 193l55 52l138 141h207z" />
    <glyph glyph-name="guilsinglright" unicode="&#x203a;" horiz-adv-x="437" 
d="M418 350l-193 -193h-205l170 193l-170 193h205l140 -141z" />
    <glyph glyph-name="Euro" unicode="&#x20ac;" horiz-adv-x="616" 
d="M348 532q-14 0 -25.5 -6t-19.5 -15h127v-145h-143v-21h143v-145h-136q18 -32 54 -32h227v-168h-227q-43 0 -82.5 15t-70 42t-50 63.5t-24.5 79.5h-82v145h80v21h-80v145h84q7 40 27 74.5t50 60t68 40t80 14.5h227v-168h-227z" />
    <glyph glyph-name="trademark" unicode="&#x2122;" horiz-adv-x="633" 
d="M598 700v-273h-68v178l-36 -62l-21 -32h-36l-21 32l-36 62v-178h-68v273h86l57 -91l57 91h86zM21 700h252v-68h-93v-205h-66v205h-93v68z" />
    <glyph glyph-name="radical" unicode="&#x221a;" horiz-adv-x="556" 
d="M586 873l-275 -996l-180 321h-111v109h152l75 -118l189 684h150z" />
    <glyph glyph-name="notequal" unicode="&#x2260;" horiz-adv-x="561" 
d="M380 386l-20 -72h154v-173h-204l-41 -141h-180l41 141h-84v173h134l21 72h-155v173h205l40 141h180l-41 -141h84v-173h-134z" />
    <glyph glyph-name="lessequal" unicode="&#x2264;" horiz-adv-x="572" 
d="M29 -173v173h530v-173h-530zM263 350l296 -193h-314l-216 138v107l216 141h314z" />
    <glyph glyph-name="greaterequal" unicode="&#x2265;" horiz-adv-x="572" 
d="M13 -173v173h530v-173h-530zM543 402v-107l-216 -138h-314l295 193l-295 193h314z" />
    <glyph glyph-name="uniF000" unicode="&#xf000;" horiz-adv-x="727" 
d="M726 0h-186q-20 52 -36 91.5t-29 73t-25 64t-24.5 63t-28 71t-35.5 87.5q-28 -73 -48.5 -125.5t-39 -100.5t-39 -100t-48.5 -124h-186l275 700h175z" />
    <glyph glyph-name="uniF001" unicode="&#xf001;" horiz-adv-x="736" 
d="M698 482q0 -76 -45 -132q23 -27 34 -61.5t11 -70.5q0 -45 -17 -84.5t-46.5 -69.5t-69.5 -47t-85 -17h-427v436h427q19 0 32.5 13.5t13.5 32.5t-13.5 32t-32.5 13h-427v173h427q45 0 85 -17t69.5 -47t46.5 -69.5t17 -84.5zM480 170q19 0 32.5 14.5t13.5 33.5t-13.5 32.5
t-32.5 13.5h-254v-94h254z" />
    <glyph glyph-name="uniF002" unicode="&#xf002;" horiz-adv-x="751" 
d="M400 702q66 0 125 -25.5t103 -69t69.5 -102.5t25.5 -125v-60q0 -66 -25.5 -125t-69.5 -102.5t-103 -69t-125 -25.5h-350v391h170v-219h180q31 0 58 11.5t47.5 32t32.5 48t12 58.5v60q0 30 -12 57.5t-32.5 48t-47.5 32.5t-58 12h-350v172h350z" />
    <glyph glyph-name="uniF003" unicode="&#xf003;" horiz-adv-x="631" 
d="M41 264v172h493v-172h-493zM41 700h559v-173h-559v173zM600 170v-170h-559v170h559z" />
    <glyph glyph-name="uniF004" unicode="&#xf004;" 
d="M544 436v-172h-323v-264h-173v436h496zM609 700v-173h-561v173h561z" />
    <glyph glyph-name="uniF005" unicode="&#xf005;" horiz-adv-x="766" 
d="M351 530q-31 0 -58 -12t-47.5 -32.5t-32.5 -48t-12 -57.5v-60q0 -31 12 -58.5t32.5 -48t47.5 -32t58 -11.5h191v266h170v-438h-361q-67 0 -125.5 25.5t-102.5 69t-69.5 102.5t-25.5 125v60q0 66 25.5 125t69.5 102.5t102.5 69t125.5 25.5h361v-172h-361z" />
    <glyph glyph-name="uniF006" unicode="&#xf006;" horiz-adv-x="705" 
d="M55 700h173v-155l-143 -190l143 -201v-154h-173v700zM441 348l259 -348h-216l-70 95l-184 257l105 139l154 209h214z" />
    <glyph glyph-name="uniF007" unicode="&#xf007;" horiz-adv-x="838" 
d="M613 452l-93 -154l-52 -84h-98l-52 84l-93 154l-148 248h200l143 -236l143 236h200zM52 602l173 -288v-314h-173v602zM786 602v-602h-173v314z" />
    <glyph glyph-name="uniF008" unicode="&#xf008;" horiz-adv-x="801" 
d="M757 0h-209l-216 307l-273 393h209l275 -396zM747 136l-172 248v316h172v-564zM52 584l173 -248v-336h-173v584z" />
    <glyph glyph-name="uniF009" unicode="&#xf009;" horiz-adv-x="713" 
d="M461 700q48 0 90.5 -18.5t74.5 -50.5t50.5 -74.5t18.5 -90.5q0 -49 -18.5 -91.5t-50.5 -74t-74.5 -50t-90.5 -18.5h-238v-232h-173v402h411q26 0 44 19t18 45t-18 43.5t-44 17.5h-411v173h411z" />
    <glyph glyph-name="uniF00A" unicode="&#xf00a;" horiz-adv-x="785" 
d="M412 700q72 0 136 -28t111.5 -75.5t75 -111t27.5 -135.5q0 -64 -21.5 -121.5t-59.5 -103t-89.5 -76.5t-111.5 -42v-137h-173v480h173v-177q48 24 78.5 71.5t30.5 105.5q0 40 -15.5 75.5t-42.5 62t-62.5 42t-75.5 15.5q-41 0 -77 -15.5t-62.5 -42t-42 -62t-15.5 -75.5
q0 -35 11 -64.5t30 -53.5v-205q-47 21 -86 54t-67.5 75t-44.5 91t-16 103q0 72 28 135.5t76 111t112 75.5t136 28h37z" />
    <glyph glyph-name="uniF00B" unicode="&#xf00b;" horiz-adv-x="727" 
d="M700 466q0 -38 -12 -73t-33.5 -64.5t-50.5 -51.5t-63 -34l159 -243h-204l-152 232l-112 170h234q24 0 43 19t19 45t-19 43.5t-43 17.5h-238v-527h-173v700h411q48 0 90.5 -18.5t74.5 -50.5t50.5 -74.5t18.5 -90.5z" />
    <glyph glyph-name="uniF00C" unicode="&#xf00c;" horiz-adv-x="723" 
d="M696 0h-204l-152 232h-116v-232h-173v402h409q26 0 45 19t19 45t-19 43.5t-45 17.5h-409v173h409q49 0 91.5 -18.5t74 -50.5t50 -74.5t18.5 -90.5q0 -38 -11.5 -73t-32.5 -64.5t-50 -51.5t-63 -34z" />
    <glyph glyph-name="uniF00D" unicode="&#xf00d;" horiz-adv-x="656" 
d="M241 0v450h173v-450h-173zM650 700v-173h-645v173h645z" />
    <glyph glyph-name="uniF00E" unicode="&#xf00e;" horiz-adv-x="769" 
d="M383 189l75 -189h-184l-275 700h184l127 -325zM769 700l-254 -650l-93 236l163 414h184z" />
    <glyph glyph-name="uniF00F" unicode="&#xf00f;" horiz-adv-x="1043" 
d="M318 239l68 -239h-180l-202 700h180l84 -286zM1038 700l-186 -643l-87 316l93 327h180zM613 700q23 -93 44 -179t42.5 -171t45 -171t50.5 -179h-186l-87 348l-75 -303l-95 332l79 323h182z" />
    <glyph glyph-name="uniF010" unicode="&#xf010;" horiz-adv-x="748" 
d="M480 350l264 -350h-216l-155 207l-345 -464h-216l455 607l-264 350h216l154 -207l155 207h216z" />
    <glyph glyph-name="uniF011" unicode="&#xf011;" horiz-adv-x="749" 
d="M936 -257h-216l-346 464l-154 -207h-216l264 350l-264 350h216l154 -207l155 207h216l-261 -350z" />
    </font>
</defs>
</svg>
