<?xml version="1.0" standalone="no"?>
<!DOCTYPE svg PUBLIC "-//W3C//DTD SVG 1.1//EN" "http://www.w3.org/Graphics/SVG/1.1/DTD/svg11.dtd" >
<svg xmlns="http://www.w3.org/2000/svg" xmlns:xlink="http://www.w3.org/1999/xlink" version="1.1">
<metadata>
Created by FontForge 20170731 at Sat Jul 10 11:49:40 2021
 By Aleksey,,,
Alacrity Sans fonts (c) asenbayu 2020. All Rights Reserved
</metadata>
<defs>
<font id="AlacritySansLight" horiz-adv-x="655" >
  <font-face 
    font-family="Alacrity Sans Light"
    font-weight="300"
    font-stretch="normal"
    units-per-em="1000"
    panose-1="0 0 0 0 0 0 0 0 0 0"
    ascent="800"
    descent="-200"
    x-height="543"
    cap-height="700"
    bbox="-196 -257.071 1267 873"
    underline-thickness="50"
    underline-position="-175"
    unicode-range="U+000A-F011"
  />
<missing-glyph horiz-adv-x="527" 
d="M477 700v-700h-427v700h427zM263 371l186 309h-371zM71 650v-601l180 301zM79 21h370l-185 308zM457 47v605l-181 -302z" />
    <glyph glyph-name=".notdef" horiz-adv-x="527" 
d="M477 700v-700h-427v700h427zM263 371l186 309h-371zM71 650v-601l180 301zM79 21h370l-185 308zM457 47v605l-181 -302z" />
    <glyph glyph-name=".null" horiz-adv-x="0" 
 />
    <glyph glyph-name=".null" horiz-adv-x="0" 
 />
    <glyph glyph-name="uni000D" unicode="&#xd;" horiz-adv-x="0" 
 />
    <glyph glyph-name="uni000A" unicode="&#xa;" horiz-adv-x="0" 
 />
    <glyph glyph-name="space" unicode=" " horiz-adv-x="381" 
 />
    <glyph glyph-name="exclam" unicode="!" horiz-adv-x="234" 
d="M82 152l-14 548h98l-14 -548h-70zM118 93q19 0 32 -13.5t13 -34.5q0 -19 -13 -32t-32 -13q-20 0 -34 13t-14 32q0 21 14 34.5t34 13.5z" />
    <glyph glyph-name="quotedbl" unicode="&#x22;" horiz-adv-x="290" 
d="M207 700q19 0 33.5 -13.5t14.5 -34.5v-45q0 -24 -12 -46t-41 -22h-4v13q11 5 18 14t7 20v23q-5 -2 -16 -2q-19 0 -32 13t-13 32q0 21 13 34.5t32 13.5zM80 700q19 0 32 -13.5t13 -34.5v-45q0 -24 -11 -46t-39 -22h-7v13q11 5 19.5 14t8.5 20v23q-4 -2 -8.5 -2h-7.5
q-21 0 -34.5 13t-13.5 32q0 21 13.5 34.5t34.5 13.5z" />
    <glyph glyph-name="numbersign" unicode="#" horiz-adv-x="894" 
d="M639 434l-41 -191h197l-13 -70h-200l-37 -173h-72l38 173h-195l-37 -173h-72l38 173h-202l16 70h200l41 191h-202l15 71h203l41 195h72l-43 -195h196l40 195h73l-41 -195h196l-14 -71h-197zM566 434h-193l-41 -191h193z" />
    <glyph glyph-name="dollar" unicode="$" horiz-adv-x="740" 
d="M539 368q48 -16 80.5 -42.5t49.5 -59t18 -68t-14.5 -69t-46.5 -61.5t-78 -45q-27 -9 -64 -15t-79 -8v-86h-70v86q-58 4 -109 19.5t-89 40t-60 58t-22 73.5h71q0 -23 17.5 -44t47 -38t67 -28.5t77.5 -14.5v270q-11 2 -21.5 3.5t-22.5 3.5q-31 5 -63.5 16t-58.5 23
q-27 12 -49 31t-35.5 43t-16.5 51.5t7 56.5q14 38 45.5 63.5t73.5 40.5q34 16 71 23t70 9v86h70v-88q41 -3 78.5 -12.5t69 -24.5t56 -35t37.5 -46l-61 -37q-19 39 -68.5 60.5t-111.5 28.5v-237q36 -5 69.5 -10.5t64.5 -16.5zM335 634q-28 -2 -63 -8.5t-62 -18.5
q-33 -14 -51 -37.5t-18 -49.5q0 -39 53 -75q20 -12 46.5 -19t57.5 -12q9 -2 18.5 -3.5t18.5 -3.5v227zM516 84q52 18 77 48.5t23.5 63.5t-30 63t-83.5 46q-21 7 -46 11.5t-52 8.5v-259q31 2 61 6.5t50 11.5z" />
    <glyph glyph-name="percent" unicode="%" horiz-adv-x="718" 
d="M176 361q-25 0 -48 10t-40 27t-27 40t-10 48v87q0 26 10 49.5t27 40.5t40 27t48 10h18q27 0 50 -10t40 -27t27 -40.5t10 -49.5v-87q0 -25 -10 -48t-27 -40t-40 -27t-50 -10h-18zM101 486q0 -31 22 -53t53 -22h18q32 0 54.5 22t22.5 53v87q0 32 -22.5 54.5t-54.5 22.5h-18
q-31 0 -53 -22.5t-22 -54.5v-87zM542 339q26 0 48.5 -10t39.5 -27.5t27 -40.5t10 -50v-86q0 -25 -10 -48t-27 -40t-39.5 -27t-48.5 -10h-18q-25 0 -48 10t-40 27t-27 40t-10 48v86q0 27 10 50t27 40.5t40 27.5t48 10h18zM617 211q0 33 -22 55.5t-53 22.5h-18
q-31 0 -53 -22.5t-22 -55.5v-86q0 -31 22 -53t53 -22h18q31 0 53 22t22 53v86zM592 700l-405 -700h-61l405 700h61z" />
    <glyph glyph-name="ampersand" unicode="&#x26;" horiz-adv-x="688" 
d="M651 -2h-96l-93 104l-14 -14q-46 -46 -106 -72t-125 -14q-50 7 -93 37.5t-62 80.5q-7 19 -9 38t0 40q3 30 16 55.5t32.5 46t44 37t50.5 29.5l21 11l-16 18q-11 14 -21 25t-20 25q-26 35 -34 78.5t9 85.5q10 25 26.5 42t37.5 27.5t44.5 15t48.5 4.5q23 0 46 -4t43.5 -13
t37.5 -24t27 -37q7 -17 10.5 -35t1.5 -37q-2 -29 -13 -56t-28 -51q-16 -19 -35 -36.5t-38 -29.5l-18 -14l138 -156l119 131l50 -43l-125 -139zM196 548q1 -18 8.5 -36t19 -34.5t24.5 -31.5t25 -28l10 -9l13 7q18 9 35.5 23t31 31t21.5 37t8 41q1 21 -7 38.5t-21.5 30
t-32 19.5t-39.5 7q-20 0 -38 -7t-31.5 -20t-20.5 -30.5t-6 -37.5zM419 152l-161 180l-14 -7q-42 -20 -69.5 -52t-32.5 -80q-2 -26 5 -50t24 -43q19 -23 47 -31.5t55 -4.5q40 5 73 26t59 49z" />
    <glyph glyph-name="quotesingle" unicode="'" horiz-adv-x="161" 
d="M80 700q19 0 32 -13.5t13 -34.5v-45q0 -24 -11 -46t-39 -22h-7v13q11 5 19.5 14t8.5 20v23q-5 -2 -9 -2h-7q-21 0 -34.5 13t-13.5 32q0 21 13.5 34.5t34.5 13.5z" />
    <glyph glyph-name="parenleft" unicode="(" horiz-adv-x="368" 
d="M134 220q0 -127 40 -236t133 -200q10 -11 21.5 -20.5t23.5 -20.5h-50q-14 9 -26 17.5t-24 19.5q-50 42 -86.5 93.5t-60 108t-35 117t-11.5 121.5v3q0 61 11.5 121.5t35 117.5t60 108t86.5 94q12 10 24 19t26 17h50q-12 -11 -23.5 -20.5t-21.5 -20.5q-93 -91 -133 -200.5
t-40 -238.5z" />
    <glyph glyph-name="parenright" unicode=")" horiz-adv-x="368" 
d="M115 664q50 -43 86.5 -94t60 -108t35 -117.5t11.5 -121.5v-3q0 -61 -11.5 -121.5t-35 -117t-60 -108t-86.5 -93.5q-12 -11 -24 -19.5t-26 -17.5h-50q12 11 23.5 20.5t21.5 20.5q93 91 133 200t40 236q0 129 -40 238.5t-133 200.5q-10 11 -21.5 20.5t-23.5 20.5h50
q14 -8 26 -17t24 -19z" />
    <glyph glyph-name="asterisk" unicode="*" horiz-adv-x="447" 
d="M250 514l152 -64l-34 -59l-130 100l19 -166h-66l20 164l-132 -100l-34 59l150 63l-152 66l34 57l132 -98l-21 164h69l-21 -164l132 100l34 -59z" />
    <glyph glyph-name="plus" unicode="+" horiz-adv-x="561" 
d="M523 384v-70h-207v-207h-70v207h-209v70h209v209h70v-209h207z" />
    <glyph glyph-name="comma" unicode="," horiz-adv-x="147" 
d="M74 93q19 0 32 -13.5t13 -34.5v-45q0 -24 -11 -46t-39 -22h-7v13q11 5 19.5 14t8.5 20v23q-4 -2 -8.5 -2h-7.5q-21 0 -34.5 13t-13.5 32q0 21 13.5 34.5t34.5 13.5z" />
    <glyph glyph-name="hyphen" unicode="-" horiz-adv-x="533" 
d="M23 314v70h486v-70h-486z" />
    <glyph glyph-name="period" unicode="." horiz-adv-x="146" 
d="M74 95q19 0 32 -13t13 -32q0 -20 -13 -34t-32 -14q-21 0 -34.5 14t-13.5 34q0 19 13.5 32t34.5 13z" />
    <glyph glyph-name="slash" unicode="/" horiz-adv-x="351" 
d="M313 700l-200 -700h-75l202 700h73z" />
    <glyph glyph-name="zero" unicode="0" horiz-adv-x="676" 
d="M64 443q0 53 20 99.5t54.5 81.5t81 55.5t99.5 20.5h38q53 0 99.5 -20.5t81 -55.5t54.5 -81.5t20 -99.5v-188q0 -53 -20 -99.5t-54.5 -81t-81 -54.5t-99.5 -20h-38q-53 0 -99.5 20t-81 54.5t-54.5 81t-20 99.5v188zM134 255q0 -39 15 -72.5t40 -58.5t59 -39.5t71 -14.5h38
q38 0 71.5 14.5t58.5 39.5t39.5 58.5t14.5 72.5v188q0 38 -14.5 72t-39.5 59.5t-58.5 40.5t-71.5 15h-38q-37 0 -71 -14.5t-59 -40t-40 -59.5t-15 -73v-188z" />
    <glyph glyph-name="one" unicode="1" horiz-adv-x="320" 
d="M174 623l-116 -30l-18 68l143 39h62v-700h-71v623z" />
    <glyph glyph-name="two" unicode="2" horiz-adv-x="664" 
d="M604 70v-70h-543v105q0 58 27.5 106.5t72.5 77.5q26 17 56 26.5t64 9.5h103q31 0 58 11.5t47.5 31.5t32.5 47t12 58v7q0 30 -12 57.5t-32.5 48t-47.5 32.5t-58 12h-103q-31 0 -58.5 -12t-48 -32.5t-32 -48t-11.5 -57.5v-10h-70v3v7q0 45 17 85t47 70t70 47.5t86 17.5h103
q45 0 85 -17.5t70 -47.5t47.5 -70t17.5 -85v-7q0 -59 -28 -107t-74 -77q-26 -17 -56 -27t-62 -10h-103q-30 0 -57.5 -11.5t-48 -31.5t-32.5 -47t-12 -58v-34h473z" />
    <glyph glyph-name="three" unicode="3" horiz-adv-x="629" 
d="M376 70q26 0 48 9.5t39 26t26.5 38.5t9.5 47q0 26 -9.5 48t-26.5 39t-39 26.5t-48 9.5h-247v70h218q25 0 46.5 10t38 27t26 39t9.5 47q0 26 -9.5 48t-26 39t-38 26.5t-46.5 9.5h-298v70h298q39 0 73.5 -15t61 -41.5t41.5 -61.5t15 -75q-1 -31 -11 -56.5t-24.5 -44
t-30 -30.5t-28.5 -17q32 -3 55.5 -19.5t39 -40.5t23 -52.5t7.5 -55.5q0 -39 -15 -74t-41.5 -61t-61.5 -41t-75 -15h-327v70h327z" />
    <glyph glyph-name="four" unicode="4" horiz-adv-x="618" 
d="M502 700v-466h62v-70h-62v-164h-70v164h-391v79l352 457h109zM432 234v400l-309 -400h309z" />
    <glyph glyph-name="five" unicode="5" horiz-adv-x="647" 
d="M91 700h453v-70h-387l-16 -212q31 29 71 46.5t86 17.5h57q49 0 91.5 -18.5t74 -50t50 -74.5t18.5 -91v-14q0 -48 -18.5 -91t-50 -74.5t-74 -50t-91.5 -18.5h-57q-43 0 -82 15t-70 42t-51 63.5t-26 79.5h70q6 -28 21 -52t36 -41t48 -27t57 -10h54q34 0 64 13t52 35t35 52
t13 64v14q0 34 -13 64t-35 52t-52 34.5t-64 12.5h-54q-47 0 -85 -23t-59 -61l-25 3l-50 4l-18 2z" />
    <glyph glyph-name="six" unicode="6" horiz-adv-x="626" 
d="M354 472q45 0 85.5 -17.5t70.5 -47.5t47.5 -70t17.5 -85v-32q0 -46 -17.5 -86t-47.5 -70t-70.5 -47t-85.5 -17h-82q-45 0 -85 17t-70 47t-47.5 70t-17.5 86v32q0 29 6.5 56t20.5 50q5 9 10 16.5t10 18.5l228 307h86l-179 -248q22 8 53 14t67 6zM504 252q0 31 -12 58
t-32.5 47.5t-47.5 32.5t-58 12h-82q-30 0 -57.5 -12t-47.5 -32.5t-32 -47.5t-12 -58v-32q0 -31 12 -58.5t32 -48t47.5 -32t57.5 -11.5h82q31 0 58 11.5t47.5 32t32.5 48t12 58.5v32z" />
    <glyph glyph-name="seven" unicode="7" horiz-adv-x="562" 
d="M523 700v-70l-293 -630h-77l295 630h-420v70h495z" />
    <glyph glyph-name="eight" unicode="8" horiz-adv-x="670" 
d="M258 325q-27 0 -50.5 -10t-41 -27t-28 -40.5t-10.5 -49.5q0 -27 10.5 -50t28 -40t41 -27t50.5 -10h155q26 0 49.5 10t40.5 27t27 40t10 50q0 26 -10 49.5t-27 40.5t-40.5 27t-49.5 10h-155zM335 0h-77q-41 0 -77.5 15.5t-63.5 42.5t-43 63t-16 77q0 27 8.5 54.5t24.5 51
t39 40.5t51 24q-17 8 -33.5 23.5t-29 35.5t-20.5 42.5t-8 44.5q0 38 14.5 72t40 59.5t59.5 40t72 14.5h116q38 0 72 -14.5t59.5 -40t40 -59.5t14.5 -72q0 -22 -7.5 -44.5t-20.5 -42.5t-29.5 -35.5t-33.5 -23.5q29 -7 52 -24t39 -40.5t24 -51t8 -54.5q0 -41 -15.5 -77
t-42 -63t-62.5 -42.5t-77 -15.5h-78v0zM276 630q-24 0 -45 -9.5t-37 -25t-25 -36.5t-9 -45q0 -25 9 -46.5t25 -37.5t37 -25.5t45 -9.5h116q24 0 45 9.5t37 25.5t25 37.5t9 46.5q0 24 -9 45t-25 36.5t-37 25t-45 9.5h-116z" />
    <glyph glyph-name="nine" unicode="9" horiz-adv-x="625" 
d="M351 700q46 0 86.5 -17.5t71 -47.5t48 -70.5t17.5 -85.5v-32q0 -29 -8 -56t-22 -50q-5 -11 -9 -19t-12 -16l-224 -306h-89l179 245q-20 -8 -52 -13t-66 -5q-46 0 -86 17t-70 47t-47 70t-17 86v32q0 45 17 85.5t47 70.5t70 47.5t86 17.5h80zM501 479q0 31 -11.5 58
t-32 47.5t-47.5 32.5t-59 12h-80q-31 0 -58.5 -12t-47.5 -32.5t-31.5 -47.5t-11.5 -58v-32q0 -30 11.5 -57.5t31.5 -48t47.5 -32.5t58.5 -12h80q32 0 59 12t47.5 32.5t32 48t11.5 57.5v32z" />
    <glyph glyph-name="colon" unicode=":" horiz-adv-x="168" 
d="M82 411q-19 0 -32 14t-13 34q0 19 13 32.5t32 13.5q21 0 34.5 -13.5t13.5 -32.5q0 -20 -13.5 -34t-34.5 -14zM82 93q21 0 34.5 -13.5t13.5 -34.5q0 -19 -13.5 -32t-34.5 -13q-19 0 -32 13t-13 32q0 21 13 34.5t32 13.5z" />
    <glyph glyph-name="semicolon" unicode=";" horiz-adv-x="168" 
d="M85 89q19 0 32 -13.5t13 -32.5v-48q0 -12 -2.5 -23.5t-8.5 -21t-15.5 -15.5t-23.5 -6h-7v12q11 5 19.5 14.5t8.5 21.5v21q-4 0 -8.5 -1.5t-7.5 -1.5q-21 0 -34.5 14t-13.5 34q0 19 13.5 32.5t34.5 13.5zM85 411q-21 0 -34.5 14t-13.5 34q0 19 13.5 32.5t34.5 13.5
q19 0 32 -13.5t13 -32.5q0 -20 -13 -34t-32 -14z" />
    <glyph glyph-name="less" unicode="&#x3c;" horiz-adv-x="430" 
d="M106 350l295 -193h-127l-232 150v84l232 152h127z" />
    <glyph glyph-name="equal" unicode="=" horiz-adv-x="534" 
d="M34 207v70h466v-70h-466zM34 420v73h466v-73h-466z" />
    <glyph glyph-name="greater" unicode="&#x3e;" horiz-adv-x="432" 
d="M389 391v-84l-231 -150h-130l295 193l-295 193h130z" />
    <glyph glyph-name="question" unicode="?" horiz-adv-x="565" 
d="M276 93q20 0 33.5 -13.5t13.5 -34.5q0 -19 -13.5 -32t-33.5 -13q-19 0 -32.5 13t-13.5 32q0 21 13.5 34.5t32.5 13.5zM512 550q14 -55 -4 -105t-57 -88q-18 -19 -41.5 -34t-45 -32t-36 -38t-14.5 -53v-52h-77v43q0 30 10 55t26.5 46t38 38.5t45.5 30.5q38 22 58 51.5
t24.5 60.5t-4.5 61t-30.5 53.5t-53.5 36.5t-73 10q-67 -3 -111 -42.5t-53 -102.5h-77q4 49 23.5 88t51.5 66.5t75 42t95 14.5q38 0 74.5 -8.5t68 -27t54.5 -47t33 -67.5z" />
    <glyph glyph-name="at" unicode="@" horiz-adv-x="991" 
d="M911 427q14 -44 19.5 -100.5t-1.5 -113t-29.5 -106t-65.5 -80.5q-26 -19 -57.5 -24t-62.5 6q-35 14 -55 41.5t-25 63.5l-4 31q-20 -27 -53 -44t-70 -23.5t-74.5 -1.5t-66.5 22q-46 27 -68 76.5t-18 102.5q3 50 27 94.5t66 73.5q32 23 70 33.5t77 7.5t74.5 -20.5
t60.5 -49.5q16 -21 24 -50.5t11 -61.5t3 -63.5v-56.5q0 -16 2.5 -36t10 -37.5t20.5 -29.5t33 -13q23 -2 39 12.5t27 33.5q31 63 35 141.5t-18 151.5t-71 129t-125 75q-52 12 -105 10.5t-104 -1.5q-85 0 -153 -50q-53 -39 -89 -98t-52 -122q-7 -37 -9 -81t4 -87.5t20.5 -83.5
t39.5 -71q38 -48 93.5 -74t115.5 -33q59 -3 118 0q24 2 49 4.5t49 7.5l9 -52q-21 -9 -47 -13.5t-52 -6.5t-52 -2.5t-47 -0.5q-62 0 -119.5 18t-107.5 52q-45 31 -79 75.5t-51 97.5q-19 63 -19.5 131.5t16 135t49 127t79.5 106.5t108.5 73t135.5 27q54 0 111.5 -1t110.5 -13
q39 -10 74.5 -30t64.5 -49q38 -36 63.5 -82.5t40.5 -97.5zM639 289q2 30 -8 56t-29 45.5t-44.5 30.5t-55.5 11q-29 0 -55.5 -11t-47.5 -30t-34 -44.5t-15 -55.5l-2 -23q-2 -30 8 -56t28.5 -46t44 -31.5t55.5 -11.5q29 0 55.5 11t47.5 30.5t34.5 45.5t14.5 56z" />
    <glyph glyph-name="A" unicode="A" horiz-adv-x="685" 
d="M398 700q0 -1 10.5 -29.5t28.5 -75t41 -106t48 -122.5t49 -125t44 -112.5t34 -85.5t18 -44h-75l-73 184h-361l-73 -184h-75q4 9 17.5 44t33.5 85.5t44.5 112.5t49.5 125t48 122.5t41 106t28.5 75t10.5 29.5h111zM348 630h-11l-148 -375h307z" />
    <glyph glyph-name="B" unicode="B" horiz-adv-x="734" 
d="M484 70q26 0 48 9.5t39 26t26.5 38.5t9.5 47q0 26 -9.5 48t-26.5 39t-39 26.5t-48 9.5h-339v-244h339zM484 384q26 0 48 10t39 27t26.5 39t9.5 47q0 26 -9.5 48t-26.5 39t-39 26.5t-48 9.5h-339v-246h339zM677 507q0 -50 -22 -90.5t-60 -66.5q38 -27 60 -68t22 -91
q0 -39 -15 -74t-41.5 -61t-61.5 -41t-75 -15h-409v700h409q40 0 75 -15t61.5 -41.5t41.5 -61.5t15 -75z" />
    <glyph glyph-name="C" unicode="C" horiz-adv-x="793" 
d="M110 350q0 -58 23 -108.5t63.5 -88.5t95 -60t116.5 -22q46 0 88 12t77.5 34.5t63 53.5t44.5 68h77q-19 -52 -53 -96t-80 -75.5t-101 -49.5t-116 -18q-76 0 -143.5 27.5t-117 75t-78.5 111.5t-29 136t29 136t78.5 111.5t117 75t143.5 27.5q61 0 116 -18t101 -49.5
t80 -75.5t53 -96h-77q-17 37 -44.5 68t-63 53.5t-77.5 35t-88 12.5q-62 0 -116.5 -22t-95 -60t-63.5 -89t-23 -109z" />
    <glyph glyph-name="D" unicode="D" horiz-adv-x="771" 
d="M145 68h264q52 0 97 20t78 54.5t51.5 80t18.5 97.5v60q0 52 -18.5 97.5t-51.5 80t-78 54.5t-97 20h-264v-564zM409 702q66 0 124 -25.5t100.5 -69t67 -102.5t24.5 -125v-60q0 -66 -24.5 -125t-67 -102.5t-100.5 -69t-124 -25.5h-334v704h334z" />
    <glyph glyph-name="E" unicode="E" horiz-adv-x="669" 
d="M634 71v-71h-559v700h559v-70h-488v-246h422v-70h-422v-243h488z" />
    <glyph glyph-name="F" unicode="F" 
d="M145 0h-70v700h559v-70h-489v-246h423v-70h-423v-314z" />
    <glyph glyph-name="G" unicode="G" horiz-adv-x="766" 
d="M635 314h-250v70h320v-386h-338q-67 0 -125.5 25.5t-102 69t-68.5 102.5t-25 125v60q0 66 25 125t68.5 102.5t102 69t124.5 25.5h339v-70h-339q-52 0 -97.5 -20t-79.5 -54.5t-53.5 -80t-19.5 -97.5v-59q0 -52 19.5 -98t53.5 -80.5t79.5 -54.5t97.5 -20h269v246z" />
    <glyph glyph-name="H" unicode="H" horiz-adv-x="719" 
d="M573 700h70v-700h-70v314h-427v-314h-71v700h71v-316h427v316z" />
    <glyph glyph-name="I" unicode="I" horiz-adv-x="221" 
d="M75 0v700h71v-700h-71z" />
    <glyph glyph-name="J" unicode="J" horiz-adv-x="632" 
d="M493 630v70h72v-457q0 -50 -19.5 -94.5t-52.5 -77.5t-77 -52t-94 -19h-311v70h311q35 0 66.5 13.5t54.5 37t36.5 55t13.5 67.5v387v0z" />
    <glyph glyph-name="K" unicode="K" horiz-adv-x="673" 
d="M146 350l54 45l350 305h109l-407 -350l407 -350h-109l-350 302zM75 0v700h71v-700h-71z" />
    <glyph glyph-name="L" unicode="L" horiz-adv-x="639" 
d="M146 700v-629h481v-71h-552v700h71z" />
    <glyph glyph-name="M" unicode="M" horiz-adv-x="823" 
d="M75 700h98l238 -400l239 400h98v-700h-71v609l-225 -379l-9 -16h-61l-12 16l-225 379v-609h-70v700z" />
    <glyph glyph-name="N" unicode="N" horiz-adv-x="744" 
d="M598 700h70v-700h-100l-423 605v-605h-70v700h89l434 -618v618z" />
    <glyph glyph-name="O" unicode="O" horiz-adv-x="817" 
d="M40 350q0 72 29 136t78.5 111.5t117 75t143.5 27.5q77 0 144 -27.5t117 -75t78.5 -111.5t28.5 -136t-28.5 -136t-78.5 -111.5t-117 -75t-144 -27.5q-76 0 -143.5 27.5t-117 75t-78.5 111.5t-29 136zM706 350q0 58 -23 109t-63.5 89t-95 60t-116.5 22q-61 0 -115 -22
t-94.5 -60t-64 -89t-23.5 -109t23.5 -109t64 -89t94.5 -60t115 -22q62 0 116.5 22t95 60t63.5 89t23 109z" />
    <glyph glyph-name="P" unicode="P" horiz-adv-x="751" 
d="M484 700q49 0 91.5 -18.5t74 -50.5t50 -74.5t18.5 -90.5q0 -49 -18.5 -91.5t-50 -74t-74 -50t-91.5 -18.5h-339v-232h-70v700h409zM484 302q34 0 64 13t52 35t35 52t13 64q0 33 -13 63t-35 52.5t-52 35.5t-64 13h-339v-328h339z" />
    <glyph glyph-name="Q" unicode="Q" horiz-adv-x="823" 
d="M706 350q0 58 -23 109t-63.5 89t-95 60t-116.5 22q-61 0 -115.5 -22t-95 -60t-64 -89t-23.5 -109t23.5 -109t64 -89t95 -60t115.5 -22q50 0 94.5 14.5t82.5 40.5l-38 45l-55 69l55 43l91 -112q32 36 50 82.5t18 97.5zM776 0h-91l-43 55l-13 13q-47 -32 -102.5 -50
t-118.5 -18q-76 0 -143.5 27.5t-117 75t-78.5 111.5t-29 136t29 136t78.5 111.5t117 75t143.5 27.5q77 0 144 -27.5t117 -75t78.5 -111.5t28.5 -136q0 -69 -24 -128.5t-69 -105.5l14 -18z" />
    <glyph glyph-name="R" unicode="R" horiz-adv-x="758" 
d="M484 700q49 0 91.5 -18.5t74 -50.5t50 -74.5t18.5 -90.5t-18 -90t-49 -74t-72.5 -50.5t-89.5 -19.5l200 -232h-94l-197 232h-253v-232h-70v700h409zM484 302q34 0 64 13t52 35t35 52t13 64q0 33 -13 63t-35 52.5t-52 35.5t-64 13h-339v-328h339z" />
    <glyph glyph-name="S" unicode="S" horiz-adv-x="711" 
d="M570 543q-11 24 -33.5 41t-53 28t-66 16t-71.5 6q-15 0 -34 -1.5t-39 -5t-40.5 -8.5t-37.5 -12q-32 -14 -50 -37.5t-18 -49.5q0 -39 53 -75q20 -12 46.5 -19.5t57.5 -12.5q58 -11 122 -19.5t119 -25.5q72 -24 109.5 -71t39 -99t-33 -100.5t-106.5 -74.5
q-32 -11 -79.5 -17t-95.5 -6q-64 0 -121.5 13.5t-101 38.5t-69.5 60.5t-26 78.5h70q0 -25 22 -48.5t57 -41t79.5 -27.5t89.5 -8q38 0 77.5 5t65.5 13q52 18 77.5 48.5t24 63.5t-30 62.5t-84.5 45.5q-21 7 -47 12t-53.5 9.5t-55 8.5t-53.5 9q-33 5 -66 16t-59 23
q-27 12 -49 31t-35.5 43t-16 51.5t7.5 56.5q14 38 45 63.5t73 40.5q39 17 82 24.5t79 7.5q49 0 94.5 -7.5t84 -23t68 -38t44.5 -52.5z" />
    <glyph glyph-name="T" unicode="T" horiz-adv-x="664" 
d="M10 700h643v-70h-286v-632h-71v632h-286v70z" />
    <glyph glyph-name="U" unicode="U" horiz-adv-x="721" 
d="M134 298q0 -47 18 -88.5t48.5 -72t72 -49t88.5 -18.5t88.5 18t72 49t48.5 72.5t18 88.5v402h71v-402q0 -61 -23.5 -115.5t-64 -95t-94.5 -64t-116 -23.5q-61 0 -116 23.5t-95.5 64t-64.5 95t-24 115.5v402h73v-402z" />
    <glyph glyph-name="V" unicode="V" horiz-adv-x="690" 
d="M677 700l-275 -700h-114l-275 700h77l255 -650l254 650h78z" />
    <glyph glyph-name="W" unicode="W" horiz-adv-x="981" 
d="M93 700l180 -618l179 618h77l180 -618l179 618h73l-202 -700h-100l-168 579l-168 -579h-100l-205 700h75z" />
    <glyph glyph-name="X" unicode="X" horiz-adv-x="714" 
d="M108 700l248 -295l250 295h90l-293 -350l293 -350h-90l-250 295l-248 -295h-91l293 350l-293 350h91z" />
    <glyph glyph-name="Y" unicode="Y" horiz-adv-x="670" 
d="M370 0h-71v316l-295 384h89l206 -268l35 -48l36 48l204 268h91l-295 -384v-316z" />
    <glyph glyph-name="Z" unicode="Z" horiz-adv-x="676" 
d="M106 73h539v-71h-609l-5 -4v97l543 537h-543v70h614v-100z" />
    <glyph glyph-name="bracketleft" unicode="[" horiz-adv-x="330" 
d="M145 645v-847h148v-55h-218v957h218v-55h-148z" />
    <glyph glyph-name="backslash" unicode="\" horiz-adv-x="349" 
d="M311 0h-73l-200 700h73z" />
    <glyph glyph-name="bracketright" unicode="]" horiz-adv-x="330" 
d="M254 700v-957h-218v55h148v847h-148v55h218z" />
    <glyph glyph-name="asciicircum" unicode="^" horiz-adv-x="473" 
d="M429 468v-129l-193 295l-193 -295v129l152 232h84z" />
    <glyph glyph-name="underscore" unicode="_" horiz-adv-x="600" 
d="M0 -70v70h600v-70h-600z" />
    <glyph glyph-name="grave" unicode="`" horiz-adv-x="176" 
d="M148 559h-41l-82 141h64z" />
    <glyph glyph-name="a" unicode="a" horiz-adv-x="662" 
d="M594 543v-543h-71v132q-13 -28 -35 -52t-50 -42t-62 -28t-73 -10h-27q-49 0 -91.5 21.5t-74 58t-49 86t-17.5 105.5t17.5 105.5t49 86.5t74 58.5t91.5 21.5h27q81 0 135.5 -35.5t84.5 -95.5v131h71zM510 289q0 39 -15 73.5t-41.5 61t-61 41.5t-73.5 15q-47 0 -84 -18
t-63 -47t-39.5 -66.5t-13.5 -75.5q0 -39 13.5 -77t39 -67t62.5 -47t85 -18q39 0 73.5 15t61 40.5t41.5 59.5t15 73v37z" />
    <glyph glyph-name="b" unicode="b" horiz-adv-x="664" 
d="M386 543q50 0 93 -21.5t74.5 -58.5t49 -86.5t17.5 -105.5t-17.5 -105.5t-49 -86t-74.5 -58t-93 -21.5h-25q-77 0 -137 36t-83 96v-132h-73v786h73v-374q27 61 83.5 96t136.5 35h25zM343 64q48 0 85.5 18t63.5 47t40 66t14 76t-14 76.5t-40 67t-63.5 47.5t-85.5 18
q-38 0 -72.5 -15t-60 -41.5t-40.5 -61t-15 -73.5v-37q0 -39 15 -73t40.5 -59.5t60 -40.5t72.5 -15z" />
    <glyph glyph-name="c" unicode="c" horiz-adv-x="639" 
d="M114 268q0 -39 15.5 -78t43.5 -70t67.5 -50.5t87.5 -19.5q36 0 67 11t56.5 30t44 44.5t29.5 53.5h75q-13 -41 -37.5 -75.5t-58.5 -60t-75.5 -39.5t-87.5 -14h-27q-56 0 -106 21t-87 57.5t-58.5 86t-21.5 105.5t21.5 106t58.5 87t87 58.5t106 21.5h27q46 0 87.5 -14
t75.5 -39t58.5 -59.5t37.5 -75.5h-75q-11 28 -29.5 53t-44 44t-56.5 30t-67 11q-49 0 -88.5 -20t-68 -52.5t-43.5 -72.5t-14 -80z" />
    <glyph glyph-name="d" unicode="d" horiz-adv-x="665" 
d="M596 786v-786h-70v131q-26 -57 -82 -94t-141 -37h-25q-51 0 -93.5 21t-74 57.5t-49 86t-17.5 105.5t17.5 106t49 87t74 58.5t93.5 21.5h25q81 0 139 -37t84 -95v375h70zM510 289q0 39 -15 73.5t-40.5 60.5t-60 41t-73.5 15q-48 0 -85.5 -18t-63.5 -47.5t-39.5 -67
t-13.5 -76.5q1 -39 14.5 -76t39.5 -66.5t63 -47t85 -17.5q39 0 73.5 15t60 40.5t40.5 60t15 73.5v37z" />
    <glyph glyph-name="e" unicode="e" horiz-adv-x="635" 
d="M115 243q2 -38 19 -71.5t45 -58.5t64 -39.5t74 -14.5q31 0 61 9t55.5 25.5t45 39t29.5 49.5h70q-13 -39 -36.5 -72.5t-55 -58t-70.5 -38t-83 -13.5h-30q-56 0 -104 21t-83 57.5t-54.5 86t-19.5 105.5t19.5 106t54.5 87t83 58.5t104 21.5h30q56 0 103.5 -21.5t82.5 -58.5
t55 -87t20 -106v-13.5t-2 -13.5h-477zM522 298q-2 38 -19.5 72t-45.5 59.5t-64.5 40t-75.5 14.5q-38 0 -74 -14.5t-64 -40t-45 -59.5t-19 -72h407z" />
    <glyph glyph-name="f" unicode="f" horiz-adv-x="298" 
d="M104 0v473h-77v70h77v62q0 38 14.5 70.5t39 57.5t57 39t69.5 14h34v-70h-34q-22 0 -42 -9t-35 -24t-23.5 -35t-8.5 -43v-62h104v-70h-104v-473h-71z" />
    <glyph glyph-name="g" unicode="g" horiz-adv-x="660" 
d="M591 543v-520q0 -54 -18 -101.5t-52 -83.5q-36 -43 -88 -68t-110 -27q-45 -1 -88 12t-80 38.5t-66 62.5t-44 85h73q26 -57 77 -92t117 -35q43 0 81 16.5t66.5 45t45 66.5t16.5 81v109q-15 -25 -36 -49t-49 -42.5t-62 -29.5t-74 -11q-66 0 -114 23.5t-80 62t-47.5 87
t-15.5 98.5q0 51 16 100t48 87t80 61.5t113 23.5q41 0 76.5 -10.5t64 -28.5t49.5 -42.5t31 -52.5v134h70zM502 214q5 22 5.5 53t-2.5 53q-8 43 -28 75t-47 52.5t-60 30t-66 6.5q-36 -3 -69.5 -19t-60 -43t-42.5 -64.5t-16 -84.5q0 -49 17 -87.5t44.5 -66t62.5 -43t72 -17.5
q32 -1 62 8t55.5 28.5t44.5 49t28 69.5z" />
    <glyph glyph-name="h" unicode="h" horiz-adv-x="594" 
d="M69 0v786h71v-336q8 15 22.5 31t35.5 30t49 23t63 9h32q46 0 82 -23t60.5 -59t37.5 -80t13 -86v-295h-73v311q0 34 -12 65.5t-33 56t-50.5 39t-65.5 14.5q-35 0 -64.5 -16t-51.5 -42t-34 -59t-12 -67q0 -78 1 -151.5t-1 -150.5h-70z" />
    <glyph glyph-name="i" unicode="i" horiz-adv-x="209" 
d="M69 543h71v-543h-71v543zM105 734q19 0 31.5 -13t12.5 -32t-12.5 -32.5t-31.5 -13.5t-32 13.5t-13 32.5t13 32t32 13z" />
    <glyph glyph-name="j" unicode="j" horiz-adv-x="209" 
d="M69 543h71v-618q0 -38 -14.5 -71t-39 -57.5t-58 -39t-70.5 -14.5h-34v71h34q23 0 43 9t35 24t24 35t9 43v618zM104 734q19 0 32 -13t13 -32t-13 -32.5t-32 -13.5q-20 0 -33 13.5t-13 32.5t13 32t33 13z" />
    <glyph glyph-name="k" unicode="k" horiz-adv-x="572" 
d="M69 0h68v273l53 45l254 225h102l-304 -270l311 -273h-104l-259 227l-53 46v513h-68v-786z" />
    <glyph glyph-name="l" unicode="l" horiz-adv-x="209" 
d="M69 0v786h70v-786h-70z" />
    <glyph glyph-name="m" unicode="m" horiz-adv-x="950" 
d="M139 450q18 33 47.5 54.5t64.5 31t71.5 7.5t70 -15.5t60.5 -39.5t41 -63q27 58 79.5 88t118.5 30q51 0 88 -21t61.5 -56t36 -79.5t11.5 -91.5v-295h-70v311q0 64 -22.5 103.5t-56.5 57t-73.5 13.5t-73.5 -26t-56.5 -62t-22.5 -95v-302h-70v311q0 64 -22.5 103.5t-56 57
t-72.5 13.5t-72.5 -26t-56 -62t-22.5 -95v-302h-73v543h70v-93z" />
    <glyph glyph-name="n" unicode="n" horiz-adv-x="594" 
d="M69 0v543h71v-102q8 19 23.5 37t38 32.5t51.5 23.5t64 9h25q46 0 82 -23t60.5 -59t37.5 -80t13 -86v-295h-73v311q0 34 -12 65.5t-33 56t-50.5 39t-65.5 14.5q-35 0 -64.5 -16t-51.5 -42t-34 -59t-12 -67q0 -78 1 -151.5t-1 -150.5h-70z" />
    <glyph glyph-name="o" unicode="o" 
d="M341 543q56 0 106 -21.5t87 -58.5t58.5 -87t21.5 -106t-21.5 -105.5t-58.5 -86t-87 -57.5t-106 -21h-27q-56 0 -106 21t-87 57.5t-58.5 86t-21.5 105.5t21.5 106t58.5 87t87 58.5t106 21.5h27zM114 268q0 -39 15 -76.5t43 -67t67.5 -47.5t87.5 -18t87.5 18t67.5 47.5
t43.5 67t15.5 76.5q1 40 -14 79t-43.5 69.5t-68 49t-88.5 18.5t-89 -18.5t-67.5 -49t-42.5 -69.5t-14 -79z" />
    <glyph glyph-name="p" unicode="p" horiz-adv-x="663" 
d="M387 543q50 0 92 -21.5t73.5 -58.5t49 -86.5t17.5 -105.5t-17.5 -105.5t-49 -86t-73.5 -58t-92 -21.5h-27q-81 0 -133 28.5t-87 92.5v-378h-71v800h71v-122q32 65 87 93.5t133 28.5h27zM344 64q47 0 84 17.5t63 46.5t39.5 66.5t13.5 76.5t-13.5 76.5t-39 67t-63.5 47.5
t-86 18q-39 0 -73 -15t-60 -41.5t-41 -61t-15 -73.5v-37q0 -39 15 -73t41 -59.5t61 -40.5t74 -15z" />
    <glyph glyph-name="q" unicode="q" horiz-adv-x="663" 
d="M594 543v-800h-71v389q-9 -25 -29.5 -48.5t-49.5 -42t-65 -30t-76 -11.5h-27q-51 0 -93.5 21.5t-73 58t-48 86t-17.5 105.5t17.5 105.5t48 86.5t73 58.5t93.5 21.5h27q77 0 134 -36t86 -98v134h71zM510 289q0 39 -15 73.5t-41.5 61t-61 41.5t-73.5 15q-49 0 -86.5 -18.5
t-63 -49.5t-38.5 -69.5t-12 -79.5q1 -37 14.5 -73t39 -64t62.5 -45t84 -17q39 0 73.5 15t61 40.5t41.5 59.5t15 73v37z" />
    <glyph glyph-name="r" unicode="r" horiz-adv-x="401" 
d="M69 543h70v-100q21 24 44.5 44.5t53 34t65 20t78.5 1.5v-88q-42 12 -84.5 6.5t-77.5 -28t-57 -61t-22 -93.5v-127v-152h-70v543z" />
    <glyph glyph-name="s" unicode="s" horiz-adv-x="575" 
d="M292 68q23 0 51 2.5t51 11.5q38 13 54.5 33.5t14.5 42t-22 41.5t-56 31q-36 10 -77 15t-80 12q-24 5 -47.5 12t-45.5 17q-45 21 -68.5 60.5t-6.5 87.5q11 32 36.5 52t56.5 32q61 25 123 25q29 0 62.5 -4.5t65 -15t58 -29t41.5 -46.5l-61 -37q-11 23 -35 39t-52 23
q-22 5 -53 6t-62 -3.5t-58.5 -15t-42.5 -30.5q-5 -5 -9 -13.5t-2 -16.5q0 -15 10 -28t24 -20q16 -10 36 -15.5t39 -9.5q45 -8 91 -13t91 -21q57 -19 86.5 -56.5t30.5 -79t-26.5 -80t-83.5 -59.5q-29 -10 -66 -14t-68 -4q-34 0 -77 7.5t-81 25t-64 47t-26 72.5v9h70v-9
q0 -23 21 -39t50 -26.5t59 -15t48 -3.5z" />
    <glyph glyph-name="t" unicode="t" horiz-adv-x="376" 
d="M257 0q-12 0 -24 2t-23 7q-61 22 -91 73q-14 25 -21 50q-3 14 -5 25t-2 25v293h-61v61h61v164h73v-164h152v-61h-152v-277q0 -60 27.5 -94t92.5 -34h64v-70h-91z" />
    <glyph glyph-name="u" unicode="u" horiz-adv-x="595" 
d="M526 543v-543h-70v91q-19 -38 -64.5 -64.5t-115.5 -26.5h-23q-47 0 -83.5 22.5t-61 58t-37.5 79t-13 85.5v298h73v-311q0 -34 12 -66t33.5 -56.5t51 -39.5t64.5 -15q36 0 65.5 16.5t51 42.5t33 59.5t11.5 67.5v302h73z" />
    <glyph glyph-name="v" unicode="v" horiz-adv-x="569" 
d="M92 543l191 -468l193 468h75l-223 -543h-88l-223 543h75z" />
    <glyph glyph-name="w" unicode="w" horiz-adv-x="840" 
d="M456 543l141 -438l139 438h84l-182 -543h-82l-136 427l-139 -427h-79l-182 543h82l141 -438l138 438h75z" />
    <glyph glyph-name="x" unicode="x" horiz-adv-x="586" 
d="M564 543l-227 -273l227 -270h-91l-182 218l-181 -218h-89l227 270l-227 273h89l181 -218l182 218h91z" />
    <glyph glyph-name="y" unicode="y" horiz-adv-x="569" 
d="M92 543l191 -468l193 468h75l-223 -543l-104 -257h-75l98 241l-230 559h75z" />
    <glyph glyph-name="z" unicode="z" horiz-adv-x="546" 
d="M132 70h379v-70h-477v70l380 403h-380v70h477v-70z" />
    <glyph glyph-name="braceleft" unicode="{" horiz-adv-x="340" 
d="M221 -91q0 -53 21 -96.5t59 -69.5h-39q-21 11 -42 29.5t-38 41t-28 47.5t-12 50q-2 34 -2.5 60t-0.5 50v49.5v58.5q0 19 -10 33t-25 24.5t-33 17t-34 10.5v13q16 3 34 9.5t33 17t25 24.5t10 33v58.5v49.5t0.5 50t2.5 60q1 25 12 50t28 48t38 41.5t42 29.5h39
q-38 -26 -59 -69.5t-21 -96.5q-3 -33 -4 -58t-1 -48t0.5 -48t0.5 -58q0 -19 -12 -37.5t-29 -30.5q-14 -10 -29.5 -17.5t-32.5 -14.5q17 -7 33.5 -14.5t30.5 -19.5q15 -12 27 -30.5t12 -35.5q0 -32 -0.5 -57t-0.5 -48.5t1 -48.5t4 -57z" />
    <glyph glyph-name="bar" unicode="|" horiz-adv-x="221" 
d="M75 -257v955h70v-955h-70z" />
    <glyph glyph-name="braceright" unicode="}" horiz-adv-x="339" 
d="M199 311q0 -19 10.5 -33t26 -24.5t33.5 -17t33 -9.5v-13q-15 -3 -33 -9.5t-33.5 -17t-26 -24.5t-10.5 -33q0 -33 0.5 -59t0.5 -50t-0.5 -50t-2.5 -60q-1 -24 -12 -49.5t-28 -48t-38 -41t-42 -29.5h-39q39 26 59.5 69.5t22.5 96.5q2 33 2.5 58t0.5 48t-0.5 48t-0.5 58
q0 17 11.5 35.5t27.5 29.5q15 12 30.5 19.5t32.5 14.5q-15 8 -31 15t-30 17q-17 12 -29 30.5t-12 37.5q0 33 0.5 58t0.5 48t-0.5 48t-2.5 58q-2 53 -22.5 96.5t-59.5 69.5h39q21 -11 42 -29.5t38 -41.5t28 -48t12 -50q2 -34 2.5 -59.5t0.5 -49.5t-0.5 -50t-0.5 -59z" />
    <glyph glyph-name="asciitilde" unicode="~" horiz-adv-x="547" 
d="M519 370l-11 -18q-24 -29 -53.5 -46.5t-67.5 -21.5q-31 -3 -58.5 5t-54.5 20q-42 19 -79 29t-76 -4q-19 -7 -28.5 -14.5t-23.5 -21.5l-41 32l14 18q44 58 120 68q29 2 57.5 -7t56.5 -20q39 -19 76.5 -29t75.5 4q19 7 29.5 14.5t22.5 21.5z" />
    <glyph glyph-name="uni00A0" unicode="&#xa0;" horiz-adv-x="381" 
 />
    <glyph glyph-name="exclamdown" unicode="&#xa1;" horiz-adv-x="199" 
d="M148 -257h-98l14 548h70zM100 350q-20 0 -34 13.5t-14 34.5q0 19 14 32t34 13q19 0 32 -13t13 -32q0 -21 -13 -34.5t-32 -13.5z" />
    <glyph glyph-name="cent" unicode="&#xa2;" horiz-adv-x="663" 
d="M337 50q66 0 115.5 38t68.5 96h91q-13 -42 -38 -77t-59 -61t-76 -40.5t-88 -14.5h-27h-17t-15 2l-48 -166h-75l55 184q-37 15 -69 40t-55 58t-36 72.5t-13 82.5q0 56 21.5 105.5t58.5 86t87 57.5t106 21h27h23l47 166h73l-52 -180q62 -22 106.5 -69t63.5 -110h-91
q-12 38 -37.5 67.5t-59.5 46.5l-116 -403q7 0 14.5 -1t14.5 -1zM356 475h-19q-40 0 -75 -15t-61 -41.5t-41.5 -61.5t-15.5 -75v-37q0 -54 26.5 -98t71.5 -70z" />
    <glyph glyph-name="sterling" unicode="&#xa3;" horiz-adv-x="634" 
d="M249 70h343v-70h-543v70h130v237h-130v70h130v105q0 39 2.5 71.5t24.5 66.5q26 38 68.5 59t92.5 21q38 0 66.5 -5t50.5 -13.5t40 -20.5t36 -27l-43 -50q-28 27 -65.5 40.5t-74.5 12t-69 -18.5t-50 -50q-8 -15 -8.5 -38.5t-0.5 -47.5v-105h223v-70h-223v-237z" />
    <glyph glyph-name="currency" unicode="&#xa4;" horiz-adv-x="634" 
d="M534 350q0 -42 -14.5 -78t-40.5 -63l109 -132h-88l-75 89q-43 -23 -98 -23h-21q-26 0 -50.5 5.5t-46.5 17.5l-73 -89h-91l111 132q-56 56 -56 141q0 42 14.5 77t41.5 64l-111 129h91l73 -88q45 25 97 25h21q27 0 51 -6.5t47 -18.5l75 88h88l-109 -129q26 -29 40.5 -64.5
t14.5 -76.5zM318 186q33 0 62.5 13t52 35t35.5 52t13 64q0 33 -13 63t-35.5 52.5t-52 35.5t-62.5 13q-34 0 -64 -13t-52 -35.5t-35 -52.5t-13 -63q0 -34 13 -64t35 -52t52 -35t64 -13z" />
    <glyph glyph-name="yen" unicode="&#xa5;" horiz-adv-x="722" 
d="M396 282h198v-41h-198v-80h198v-41h-198v-120h-71v120h-200v41h200v80h-200v41h200v34l-295 384h89l206 -268l35 -48l36 48l204 268h91l-295 -384v-34z" />
    <glyph glyph-name="brokenbar" unicode="&#xa6;" horiz-adv-x="195" 
d="M62 -257v368h70v-368h-70zM62 332v368h70v-368h-70z" />
    <glyph glyph-name="section" unicode="&#xa7;" horiz-adv-x="511" 
d="M381 150q24 -33 30 -68.5t-4 -66.5t-36 -55t-65 -35q-26 -7 -51 -10t-51 -1q-29 2 -58.5 7.5t-55.5 19.5v66q19 -9 40 -16.5t43 -13t44 -7.5t41 0q14 2 27 7t23 14q28 19 32 48t-11 56q-14 24 -42 40.5t-60.5 30.5t-64.5 27.5t-54 31.5q-31 26 -43.5 54t-9 56.5t21 55.5
t47.5 50l12 9l-10 14q-24 33 -29.5 68t5 66t36.5 55.5t66 35.5q50 14 100 11q29 -2 58.5 -7.5t57.5 -19.5v-66q-40 17 -86 29t-85 7q-14 -2 -26 -6.5t-24 -11.5q-26 -20 -31 -49.5t11 -57.5q14 -24 41.5 -40.5t60 -30t64.5 -27t54 -31.5q32 -26 45 -54t10 -56t-20.5 -55
t-47.5 -51l-14 -9zM329 198q20 12 32.5 28.5t16.5 34.5t-1.5 37t-22.5 36q-14 15 -33.5 25.5t-41 20t-43 18t-39.5 18.5l-9 5l-9 -5q-19 -12 -31.5 -28.5t-16.5 -34.5t1.5 -37t21.5 -36q15 -15 34.5 -25.5t41.5 -20t43.5 -18t39.5 -18.5l7 -5z" />
    <glyph glyph-name="dieresis" unicode="&#xa8;" horiz-adv-x="330" 
d="M256 661q20 0 33.5 -14t13.5 -33t-13.5 -33.5t-33.5 -14.5q-19 0 -32.5 14.5t-13.5 33.5t13.5 33t32.5 14zM74 661q19 0 32 -14t13 -33t-13 -33.5t-32 -14.5q-21 0 -34.5 14.5t-13.5 33.5t13.5 33t34.5 14z" />
    <glyph glyph-name="copyright" unicode="&#xa9;" horiz-adv-x="770" 
d="M389 516q-34 0 -64.5 -13t-53.5 -35.5t-36.5 -53t-13.5 -64.5q0 -35 13.5 -65.5t36.5 -53.5t53.5 -36t64.5 -13q54 0 95 29t60 75h43q-10 -29 -28.5 -53.5t-42.5 -42.5t-53.5 -28t-61.5 -10h-23q-40 0 -75.5 15.5t-62.5 42.5t-42.5 63t-15.5 77q0 40 15.5 75.5t42.5 62
t62.5 42t75.5 15.5h23q32 0 61.5 -10t53.5 -28t42.5 -42.5t28.5 -53.5h-43q-19 47 -60 76t-95 29zM619 582q46 -47 70.5 -107t24.5 -125q0 -67 -24.5 -127.5t-70.5 -106.5q-48 -46 -108.5 -71t-125.5 -25q-67 0 -127.5 25t-107.5 71q-46 46 -70.5 106.5t-24.5 127.5
q0 65 24.5 125t70.5 107q47 48 107.5 73t127.5 25q65 0 125.5 -25t108.5 -73zM596 136q43 43 66 98.5t23 115.5t-23 114.5t-66 96.5q-43 43 -97 66t-114 23t-115.5 -23t-98.5 -66q-42 -42 -64 -96.5t-22 -114.5t22 -115.5t64 -98.5q43 -42 98.5 -64t115.5 -22t114 22t97 64z
" />
    <glyph glyph-name="ordfeminine" unicode="&#xaa;" horiz-adv-x="435" 
d="M383 700v-330h-43v93q-20 -39 -53 -66t-81 -27h-16q-30 0 -56 12.5t-46 35t-31.5 52.5t-11.5 64t11.5 64t31.5 52.5t46 36t56 13.5h16q50 0 80.5 -27t53.5 -67v94h43zM334 545q0 24 -9.5 44.5t-25 36.5t-37 25t-45.5 9t-45 -9t-36.5 -25t-25 -36.5t-9.5 -44.5v-19v-2
q0 -24 9.5 -45t25 -36.5t36.5 -25t45 -9.5t45.5 9.5t37 25t25 36.5t9.5 45v21z" />
    <glyph glyph-name="guillemotleft" unicode="&#xab;" horiz-adv-x="516" 
d="M141 350l173 -193h-87l-150 150l-43 43l193 193h87zM311 350l171 -193h-84l-153 150l-41 43l194 193h84z" />
    <glyph glyph-name="uni00AD" unicode="&#xad;" horiz-adv-x="0" 
 />
    <glyph glyph-name="registered" unicode="&#xae;" horiz-adv-x="770" 
d="M582 414q0 -27 -10 -50.5t-27 -41.5t-41 -28.5t-51 -11.5l111 -130h-52l-111 130h-141v-130h-39v393h229q27 0 51 -10.5t42 -28t28.5 -41.5t10.5 -51zM450 323q19 0 36 7t30 19.5t20.5 29t7.5 35.5q0 20 -7.5 36.5t-20.5 29.5t-30 20t-36 7h-190v-184h190zM619 582
q46 -47 70.5 -107t24.5 -125q0 -67 -24.5 -127.5t-70.5 -106.5q-48 -46 -108 -71t-126 -25q-67 0 -127 25t-108 71q-46 46 -70.5 106.5t-24.5 127.5q0 65 24.5 125t70.5 107q48 48 108 73t127 25q66 0 126 -25t108 -73zM596 136q43 43 66 98.5t23 115.5t-23 114.5t-66 96.5
q-42 43 -96.5 66t-114.5 23t-115 -23t-97 -66q-43 -42 -65.5 -96.5t-22.5 -114.5t22.5 -115.5t65.5 -98.5q42 -42 97 -64t115 -22t114.5 22t96.5 64z" />
    <glyph glyph-name="macron" unicode="&#xaf;" horiz-adv-x="647" 
d="M23 630v70h600v-70h-600z" />
    <glyph glyph-name="degree" unicode="&#xb0;" horiz-adv-x="322" 
d="M246 664q17 -17 26.5 -39t9.5 -48q0 -24 -9.5 -46t-26.5 -38q-16 -17 -38.5 -26.5t-48.5 -9.5q-23 0 -45.5 9.5t-38.5 26.5q-17 16 -26.5 38t-9.5 46q0 26 9.5 48t26.5 39q16 17 38.5 26.5t45.5 9.5q26 0 48.5 -9.5t38.5 -26.5zM216 523q12 10 18.5 24.5t6.5 29.5
q0 35 -25 57q-21 23 -57 23q-15 0 -29.5 -6t-24.5 -17q-25 -22 -25 -57q0 -15 6.5 -29.5t18.5 -24.5q10 -12 24.5 -18.5t29.5 -6.5q37 0 57 25z" />
    <glyph glyph-name="plusminus" unicode="&#xb1;" horiz-adv-x="563" 
d="M38 -70v70h486v-70h-486zM524 384v-70h-206v-207h-71v207h-209v70h209v209h71v-209h206z" />
    <glyph glyph-name="twosuperior" unicode="&#xb2;" horiz-adv-x="293" 
d="M81 491h170v-39h-209v43q0 46 39 71q20 14 45 14h41q19 0 32 13t13 32t-13 32t-32 13h-41q-19 0 -32 -13t-13 -32v-9h-39v9q0 34 25 59t59 25h41q34 0 59 -25t25 -59q0 -23 -11 -41t-28 -30q-19 -13 -45 -13h-41q-19 0 -32 -13.5t-13 -32.5v-4z" />
    <glyph glyph-name="threesuperior" unicode="&#xb3;" horiz-adv-x="274" 
d="M200 586q16 -7 24 -24.5t8 -34.5q0 -31 -21 -53t-52 -22h-120v39h120q16 0 26.5 10.5t10.5 25.5q0 14 -10.5 24t-26.5 10h-90v39h81q14 0 24 10.5t10 25.5q0 14 -10 24t-24 10h-111v39h111q29 0 51 -22t22 -51q0 -14 -6 -27.5t-17 -22.5z" />
    <glyph glyph-name="acute" unicode="&#xb4;" horiz-adv-x="176" 
d="M151 700l-80 -141h-43l61 141h62z" />
    <glyph glyph-name="periodcentered" unicode="&#xb7;" horiz-adv-x="252" 
d="M126 439q38 0 64.5 -25.5t26.5 -63.5t-26.5 -64.5t-64.5 -26.5t-64.5 26.5t-26.5 64.5t26.5 63.5t64.5 25.5z" />
    <glyph glyph-name="cedilla" unicode="&#xb8;" horiz-adv-x="248" 
d="M222 -114q4 -8 5 -18t-2 -18q-2 -11 -8 -19t-13 -13q-19 -14 -42.5 -16.5t-43.5 0.5q-12 0 -25 3t-25 6q-11 4 -22 9t-19 10l-7 4l20 37l7 -5q9 -5 17.5 -8.5t16.5 -7.5q11 -2 21 -4.5t20 -2.5q12 -2 28.5 -1t28.5 8q2 2 3.5 4.5t3.5 4.5q0 9 -2 14q-4 12 -14 20.5
t-20 13.5q-14 5 -31 9.5t-31 6.5q-5 2 -8.5 2t-7.5 2l-13 3l-3 15v7q0 21 8 38t22 33l2 4h55q-12 -17 -26 -31.5t-17 -31.5q17 -4 34.5 -9t33.5 -12q19 -8 34 -23t20 -34z" />
    <glyph glyph-name="onesuperior" unicode="&#xb9;" horiz-adv-x="166" 
d="M121 709v-257h-38v216l-37 -11l-11 36l59 16h27z" />
    <glyph glyph-name="ordmasculine" unicode="&#xba;" horiz-adv-x="289" 
d="M151 709q20 0 37 -7.5t30.5 -20.5t21 -30t7.5 -37v-66q0 -20 -7.5 -37.5t-21 -30.5t-30.5 -20.5t-37 -7.5h-14q-19 0 -36.5 7.5t-30.5 20.5t-20.5 30.5t-7.5 37.5v66q0 20 7.5 37t20.5 30t30.5 20.5t36.5 7.5h14zM208 614q0 23 -16.5 39.5t-40.5 16.5h-14
q-23 0 -39.5 -16.5t-16.5 -39.5v-66q0 -24 16.5 -40.5t39.5 -16.5h14q24 0 40.5 16.5t16.5 40.5v66z" />
    <glyph glyph-name="guillemotright" unicode="&#xbb;" horiz-adv-x="514" 
d="M268 307l-150 -150h-84l170 193l-170 193h84l193 -193zM479 350l-41 -43l-152 -150h-84l171 193l-171 193h84z" />
    <glyph glyph-name="questiondown" unicode="&#xbf;" horiz-adv-x="350" 
d="M258 350q-19 0 -33.5 13.5t-14.5 34.5q0 19 14.5 32t33.5 13t33.5 -13t14.5 -32q0 -21 -14.5 -34.5t-33.5 -13.5zM497 -45q-9 -100 -75 -156t-171 -56q-37 0 -74 9t-67.5 27t-53.5 46.5t-32 67.5q-14 54 3 104.5t56 88.5q19 19 42.5 34t44.5 31.5t35 37.5t14 52v54h78
v-43q0 -30 -9.5 -55t-26 -46.5t-38.5 -39t-47 -31.5q-37 -21 -57 -50t-25 -60.5t5 -61t31 -53t53.5 -36.5t72.5 -10q66 4 110.5 43t52.5 103h78z" />
    <glyph glyph-name="Agrave" unicode="&#xc0;" horiz-adv-x="683" 
d="M327 732l-80 141h61l62 -141h-43zM395 700q0 -1 11 -29.5t29 -75t41.5 -106t48 -122.5t49 -125t44.5 -112.5t34 -85.5t18 -44h-78l-70 184h-361l-73 -184h-75q4 9 17.5 44t33.5 85.5t44.5 112.5t49.5 125t48 122.5t41 106t28.5 75t10.5 29.5h109zM493 255l-146 375h-11
l-148 -375h305z" />
    <glyph glyph-name="Aacute" unicode="&#xc1;" horiz-adv-x="683" 
d="M361 732h-41l59 141h64zM395 700q0 -1 11 -29.5t29 -75t41.5 -106t48 -122.5t49 -125t44.5 -112.5t34 -85.5t18 -44h-78l-70 184h-361l-73 -184h-75q4 9 18 44t34 85.5t44 112.5t49 125t48 122.5t41 106t28.5 75t10.5 29.5h109zM493 255l-146 375h-11l-148 -375h305z" />
    <glyph glyph-name="Acircumflex" unicode="&#xc2;" horiz-adv-x="683" 
d="M272 723h-54l97 150h55l95 -150h-54l-68 109zM395 700q0 -1 11 -29.5t29 -75t41.5 -106t48 -122.5t49 -125t44.5 -112.5t34 -85.5t18 -44h-78l-72 184h-359l-73 -184h-75q4 9 18 44t34 85.5t44 112.5t49 125t48 122.5t41 106t28.5 75t10.5 29.5h109zM493 255l-146 375
h-11l-148 -375h305z" />
    <glyph glyph-name="Atilde" unicode="&#xc3;" horiz-adv-x="683" 
d="M397 700q0 -1 10.5 -29.5t28.5 -75t41 -106t48 -122.5t49 -125t44 -112.5t34 -85.5t18 -44h-75l-73 184h-359l-73 -184h-77q4 9 17.5 44t33.5 85.5t44.5 112.5t49.5 125t48.5 122.5t41.5 106t29 75t11 29.5h109zM495 255l-148 375h-11l-146 -375h305zM254 777
q-11 -3 -17 -8t-13 -12l-25 18l7 9q27 35 71 39q17 2 33.5 -2.5t32.5 -11.5q22 -11 44 -16.5t44 2.5q11 4 16 8t14 13l23 -18l-7 -12q-14 -15 -31 -25t-40 -13q-17 -2 -32.5 3.5t-30.5 12.5q-24 10 -45 16t-44 -3z" />
    <glyph glyph-name="Adieresis" unicode="&#xc4;" horiz-adv-x="683" 
d="M433 741q-20 0 -33.5 13t-13.5 32t13.5 33.5t33.5 14.5q19 0 32.5 -14.5t13.5 -33.5t-13.5 -32t-32.5 -13zM395 700q0 -1 11 -29.5t29 -75t41.5 -106t48 -122.5t49 -125t44.5 -112.5t34 -85.5t18 -44h-77l-71 184h-361l-73 -184h-75q4 9 18 44t34 85.5t44 112.5t49 125
t48 122.5t41 106t28.5 75t10.5 29.5h109zM493 255l-146 375h-11l-148 -375h305zM249 741q-19 0 -32 13t-13 32t13 33.5t32 14.5t33.5 -14.5t14.5 -33.5t-14.5 -32t-33.5 -13z" />
    <glyph glyph-name="Aring" unicode="&#xc5;" horiz-adv-x="685" 
d="M414 652q6 -17 20 -52.5t32 -82t39.5 -100.5t43 -109t42 -106.5t37.5 -93.5t28.5 -71t14.5 -37h-78l-70 184h-361l-73 -184h-75q5 11 23 57t43 110.5t54.5 139t56.5 143.5t48.5 124t31.5 80q-4 2 -7 5l-7 7q-17 15 -26.5 37.5t-9.5 46.5q0 52 36 86q17 17 39 27t48 10
q23 0 46 -10t40 -27q15 -15 24.5 -37.5t9.5 -48.5q0 -24 -9.5 -46.5t-24.5 -37.5h-2zM264 750q0 -32 23 -55q10 -12 24.5 -18.5t31.5 -6.5q16 0 30.5 7t26.5 18h-2q12 11 18.5 25.5t6.5 29.5q0 35 -25 57q-23 23 -54 23q-17 0 -32 -6.5t-25 -16.5q-11 -11 -17 -25.5
t-6 -31.5zM494 255l-146 375h-7h-4l-148 -375h305z" />
    <glyph glyph-name="AE" unicode="&#xc6;" horiz-adv-x="1186" 
d="M661 509v-125h425v-70h-425v-244h491v-70h-566v184h-362l-143 -184h-77l550 700h598v-70h-489zM586 645l-305 -390h305v390z" />
    <glyph glyph-name="Ccedilla" unicode="&#xc7;" horiz-adv-x="793" 
d="M408 70q46 0 88 12.5t77.5 34.5t63 53.5t44.5 68.5h77q-19 -52 -53 -96t-79.5 -75.5t-100.5 -49.5t-117 -18h-9q-2 -2 -3 -2t-1 -2q-6 -4 -10 -9q-3 -5 -6 -10.5t-3 -12.5q16 -4 34.5 -9t34.5 -12q17 -8 32 -23t22 -34q4 -8 4 -18t-2 -18q-6 -22 -22 -32
q-17 -14 -40.5 -16.5t-46.5 0.5q-12 0 -24 3t-23 6q-21 7 -44 19l-6 4l20 37l9 -5q7 -5 15.5 -8.5t16.5 -7.5q11 -2 21 -4.5t22 -2.5q12 -2 28 -1t27 8q3 2 4.5 4.5t1.5 4.5q2 4 1 7t-1 7q-5 12 -14 20.5t-20 13.5q-14 5 -31 9.5t-32 6.5q-4 2 -7 2t-7 2l-16 3v15v7
q0 28 14 53q-66 10 -122 40.5t-97 76.5t-64.5 104t-23.5 124q0 72 29 136t78.5 111.5t117 75t143.5 27.5q62 0 117 -18t100.5 -49.5t79.5 -75.5t53 -96h-77q-17 37 -44.5 68t-63 53.5t-77.5 35t-88 12.5q-61 0 -115.5 -22t-95 -60t-64 -89t-23.5 -109t23.5 -109t64 -89
t95 -60t115.5 -22z" />
    <glyph glyph-name="Egrave" unicode="&#xc8;" horiz-adv-x="671" 
d="M375 732l-80 141h62l61 -141h-43zM145 630v-246h425v-70h-425v-244h491v-70h-561v700h561v-70h-491z" />
    <glyph glyph-name="Eacute" unicode="&#xc9;" horiz-adv-x="671" 
d="M336 732h-41l60 141h63zM145 630v-246h425v-70h-425v-244h491v-70h-561v700h561v-70h-491z" />
    <glyph glyph-name="Ecircumflex" unicode="&#xca;" horiz-adv-x="671" 
d="M286 723h-54l98 150h54l96 -150h-53l-70 109zM148 630v-246h422v-70h-422v-244h488v-70h-561v700h561v-70h-488z" />
    <glyph glyph-name="Edieresis" unicode="&#xcb;" horiz-adv-x="671" 
d="M448 741q-19 0 -33.5 13t-14.5 32t14.5 33.5t33.5 14.5t33 -14.5t14 -33.5t-14 -32t-33 -13zM148 630v-246h422v-70h-422v-244h488v-70h-561v700h561v-70h-488zM264 741q-19 0 -32.5 13t-13.5 32t13.5 33.5t32.5 14.5q20 0 33.5 -14.5t13.5 -33.5t-13.5 -32t-33.5 -13z
" />
    <glyph glyph-name="Igrave" unicode="&#xcc;" horiz-adv-x="219" 
d="M129 732l-82 141h64l61 -141h-43zM74 0v700h71v-700h-71z" />
    <glyph glyph-name="Iacute" unicode="&#xcd;" horiz-adv-x="220" 
d="M90 732h-43l61 141h62zM74 0v700h71v-700h-71z" />
    <glyph glyph-name="Icircumflex" unicode="&#xce;" horiz-adv-x="220" 
d="M75 0v700h70v-700h-70zM234 723h-55l-70 109l-71 -109h-52l95 150h55z" />
    <glyph glyph-name="Idieresis" unicode="&#xcf;" horiz-adv-x="219" 
d="M17 834q21 0 34.5 -14.5t13.5 -33.5t-13.5 -32t-34.5 -13q-19 0 -32 13t-13 32t13 33.5t32 14.5zM202 834q19 0 32 -14.5t13 -33.5t-13 -32t-32 -13t-33.5 13t-14.5 32t14.5 33.5t33.5 14.5zM74 0v700h71v-700h-71z" />
    <glyph glyph-name="Eth" unicode="&#xd0;" horiz-adv-x="834" 
d="M469 700q67 0 125 -25.5t101 -69.5t68 -103t25 -125v-60q0 -66 -25 -125t-68 -102.5t-101 -69t-125 -25.5h-334v316h-113v71h113v318h334zM715 377q0 52 -19 98t-52 80t-78 54t-97 20h-263v-247h122v-71h-122v-245h263q52 0 97 20t78 54t52 80t19 97v60z" />
    <glyph glyph-name="Ntilde" unicode="&#xd1;" horiz-adv-x="744" 
d="M668 700v-700h-98l-424 605v-605h-71v700h91l432 -618v618h70zM284 777q-10 -3 -16 -8t-13 -12l-25 18l9 9q25 36 68 39q17 2 33.5 -2.5t32.5 -11.5q22 -11 44 -16.5t44 2.5q11 4 17 8.5t13 12.5l23 -18l-7 -12q-14 -15 -31 -25t-37 -13q-19 -2 -35 3.5t-31 12.5
q-24 10 -45 16t-44 -3z" />
    <glyph glyph-name="Ograve" unicode="&#xd2;" horiz-adv-x="819" 
d="M429 700q72 0 135.5 -28t111 -76t75 -111.5t27.5 -134.5q0 -73 -27.5 -136.5t-75 -111t-111 -75t-135.5 -27.5h-39q-72 0 -135.5 27.5t-111 75t-75.5 111t-28 136.5q0 71 28 134.5t75.5 111.5t111 76t135.5 28h39zM408 52q62 0 117 23.5t95.5 64t64 95t23.5 115.5
t-23.5 115t-64 94.5t-95.5 64t-117 23.5q-61 0 -115.5 -23.5t-94.5 -64t-63.5 -94.5t-23.5 -115t23.5 -115.5t63.5 -95t94.5 -64t115.5 -23.5zM429 731l-83 141h64l61 -141h-42z" />
    <glyph glyph-name="Oacute" unicode="&#xd3;" horiz-adv-x="816" 
d="M426 700q73 0 136.5 -28t111 -76t75 -111.5t27.5 -134.5q0 -73 -27.5 -136.5t-75 -111t-111 -75t-136.5 -27.5h-36q-73 0 -136.5 27.5t-111 75t-75 111t-27.5 136.5q0 71 27.5 134.5t75 111.5t111 76t136.5 28h36zM408 52q62 0 116 23.5t94 64t63.5 95t23.5 115.5
t-23.5 115t-63.5 94.5t-94 64t-116 23.5q-61 0 -115.5 -23.5t-94.5 -64t-63.5 -94.5t-23.5 -115t23.5 -115.5t63.5 -95t94.5 -64t115.5 -23.5zM390 731h-44l62 141h61z" />
    <glyph glyph-name="Ocircumflex" unicode="&#xd4;" horiz-adv-x="816" 
d="M426 700q72 0 136 -28t111.5 -76t75 -111.5t27.5 -134.5q0 -73 -27.5 -136.5t-75 -111t-111.5 -75t-136 -27.5h-36q-73 0 -136.5 27.5t-111 75t-75 111t-27.5 136.5q0 71 27.5 134.5t75 111.5t111 76t136.5 28h36zM408 52q62 0 116 23.5t94 64t63.5 95t23.5 115.5
t-23.5 115t-63.5 94.5t-94 64t-116 23.5q-61 0 -115.5 -23.5t-95 -64t-64 -94.5t-23.5 -115t23.5 -115.5t64 -95t95 -64t115.5 -23.5zM337 722h-54l98 150h54l98 -150h-54l-71 109z" />
    <glyph glyph-name="Otilde" unicode="&#xd5;" horiz-adv-x="816" 
d="M426 700q73 0 136.5 -28t111 -76t75 -111.5t27.5 -134.5q0 -73 -27.5 -136.5t-75 -111t-111 -75t-136.5 -27.5h-36q-73 0 -136.5 27.5t-111 75t-75 111t-27.5 136.5q0 71 27.5 134.5t75 111.5t111 76t136.5 28h36zM408 52q62 0 116 23.5t94 64t63.5 95t23.5 115.5
t-23.5 115t-63.5 94.5t-94 64t-116 23.5q-61 0 -115.5 -23.5t-94.5 -64t-63.5 -94.5t-23.5 -115t23.5 -115.5t63.5 -95t94.5 -64t115.5 -23.5zM319 777q-11 -4 -16.5 -8.5t-12.5 -11.5l-26 17l10 10q24 34 68 39q17 2 34 -2.5t32 -11.5q24 -11 45 -16.5t44 2.5
q11 3 16.5 7.5t12.5 12.5l26 -17l-10 -12q-25 -32 -68 -39q-17 -2 -33.5 3.5t-32.5 12.5q-24 11 -45 16.5t-44 -2.5z" />
    <glyph glyph-name="Odieresis" unicode="&#xd6;" horiz-adv-x="816" 
d="M426 700q72 0 136 -28t111.5 -76t75 -111.5t27.5 -134.5q0 -73 -27.5 -136.5t-75 -111t-111.5 -75t-136 -27.5h-36q-73 0 -136.5 27.5t-111 75t-75 111t-27.5 136.5q0 71 27.5 134.5t75 111.5t111 76t136.5 28h36zM408 52q62 0 116 23.5t94 64t63.5 95t23.5 115.5
t-23.5 115t-63.5 94.5t-94 64t-116 23.5q-61 0 -115.5 -23.5t-95 -64t-64 -94.5t-23.5 -115t23.5 -115.5t64 -95t95 -64t115.5 -23.5zM499 741q-19 0 -32 13t-13 32t13 33.5t32 14.5q18 0 33 -14.5t15 -33.5t-15 -32t-33 -13zM317 741q-21 0 -34.5 13t-13.5 32t13.5 33.5
t34.5 14.5q19 0 32 -14.5t13 -33.5t-13 -32t-32 -13z" />
    <glyph glyph-name="multiply" unicode="&#xd7;" horiz-adv-x="478" 
d="M287 350l148 -148l-50 -50l-148 148l-145 -148l-50 50l145 148l-145 145l50 50l145 -145l148 145l50 -50z" />
    <glyph glyph-name="Oslash" unicode="&#xd8;" horiz-adv-x="818" 
d="M542 677q52 -19 95.5 -52t74.5 -76t48.5 -93.5t17.5 -105.5q0 -73 -29 -136.5t-79 -111t-117 -75t-143 -27.5q-15 0 -30 0.5t-31 3.5l-25 -91h-77l30 109q-51 19 -94.5 51.5t-75 75t-49.5 94t-18 107.5q0 72 29 136t79.5 111.5t118 75t143.5 27.5q15 0 30.5 -1.5
t29.5 -3.5l27 91h77zM451 627q-10 0 -20 1t-21 1q-62 0 -116.5 -22t-94.5 -60t-63 -88.5t-23 -108.5q0 -44 13.5 -84.5t37.5 -74t58 -59.5t75 -41zM410 70q62 0 116 22t94.5 60t64 89t23.5 109q0 44 -13.5 83.5t-38.5 73t-59 60t-75 42.5l-152 -537q10 -2 20 -2h20z" />
    <glyph glyph-name="Ugrave" unicode="&#xd9;" horiz-adv-x="720" 
d="M378 732l-80 141h62l61 -141h-43zM657 700v-402q0 -61 -23.5 -115.5t-64 -95t-94.5 -64t-115 -23.5t-115.5 23.5t-95 64t-64 95t-23.5 115.5v402h70v-402q0 -47 18 -88.5t49 -72.5t72.5 -49t88.5 -18t88.5 18t72 49t48.5 72.5t18 88.5v402h70z" />
    <glyph glyph-name="Uacute" unicode="&#xda;" horiz-adv-x="722" 
d="M660 700v-402q0 -61 -23.5 -115.5t-64 -95t-94.5 -64t-116 -23.5t-117 23.5t-95.5 64t-64 95t-23.5 115.5v402h70v-402q0 -47 18.5 -88.5t50 -72.5t73 -49t88.5 -18t88.5 18t72 49t48.5 72.5t18 88.5v402h71zM342 732h-41l59 141h63z" />
    <glyph glyph-name="Ucircumflex" unicode="&#xdb;" horiz-adv-x="720" 
d="M289 723h-54l97 150h55l98 -150h-55l-70 109zM657 700v-402q0 -61 -23.5 -115.5t-64 -95t-94.5 -64t-115 -23.5t-115.5 23.5t-95 64t-64 95t-23.5 115.5v402h70v-402q0 -47 18 -88.5t49 -72.5t72.5 -49t88.5 -18t88.5 18t72 49t48.5 72.5t18 88.5v402h70z" />
    <glyph glyph-name="Udieresis" unicode="&#xdc;" horiz-adv-x="722" 
d="M269 741q-19 0 -32.5 13t-13.5 32t13.5 33.5t32.5 14.5q20 0 34 -14.5t14 -33.5t-14 -32t-34 -13zM453 741q-20 0 -34 13t-14 32t14 33.5t34 14.5q19 0 32 -14.5t13 -33.5t-13 -32t-32 -13zM660 700v-402q0 -61 -23.5 -115.5t-64 -95t-94.5 -64t-116 -23.5t-117 23.5
t-95.5 64t-64 95t-23.5 115.5v402h70v-402q0 -47 18 -88.5t49.5 -72.5t73 -49t89.5 -18q47 0 88.5 18t72 49t48.5 72.5t18 88.5v402h71z" />
    <glyph glyph-name="Yacute" unicode="&#xdd;" horiz-adv-x="670" 
d="M315 732h-43l62 141h61zM665 700l-295 -384v-316h-71v316l-295 384h89l206 -268l35 -48l36 48l204 268h91z" />
    <glyph glyph-name="Thorn" unicode="&#xde;" horiz-adv-x="754" 
d="M486 586q48 0 90.5 -18.5t74.5 -50t50.5 -74t18.5 -91.5q0 -48 -18.5 -91t-50.5 -74.5t-74.5 -50t-90.5 -18.5h-341v-118h-70v704h70v-118h341zM486 189q33 0 63 12.5t52.5 34.5t35.5 52t13 64t-13 64t-35.5 52t-52.5 35t-63 13h-341v-327h341z" />
    <glyph glyph-name="germandbls" unicode="&#xdf;" horiz-adv-x="672" 
d="M454 357q61 0 101.5 -26.5t60.5 -66t20 -86t-20 -86t-60.5 -66t-101.5 -26.5h-225v70h225q38 0 63.5 16t38.5 40t13 52t-13 52t-38.5 40t-63.5 16h-225v71h96q29 0 48.5 19.5t19.5 48.5v75q0 26 -10 49.5t-27 41.5t-40.5 28.5t-49.5 10.5h-32q-19 0 -36.5 -7.5t-31 -21
t-21 -30.5t-7.5 -37v-534h-70v534q0 34 13 64.5t35.5 53t52.5 35.5t65 13h32q41 0 77 -15.5t62.5 -42.5t42 -63.5t15.5 -78.5v-75q0 -38 -18 -68h9z" />
    <glyph glyph-name="agrave" unicode="&#xe0;" horiz-adv-x="666" 
d="M596 543v-543h-70v131q-27 -57 -86 -94t-137 -37h-25q-50 0 -93 21t-74.5 57.5t-49 86t-17.5 105.5t17.5 106t49 87t74.5 58.5t93 21.5h25q81 0 136.5 -36t86.5 -96v132h70zM510 289q0 39 -15 73.5t-40.5 60.5t-60 41t-73.5 15q-48 0 -85 -18t-62.5 -47t-38.5 -66
t-13 -75q-1 -39 12 -77t38.5 -67.5t63 -47.5t85.5 -18q39 0 73.5 15t60 40.5t40.5 60t15 73.5v37zM340 645l-82 141h63l62 -141h-43z" />
    <glyph glyph-name="aacute" unicode="&#xe1;" horiz-adv-x="666" 
d="M596 543v-543h-70v131q-28 -57 -86.5 -94t-136.5 -37h-25q-50 0 -93 21t-74.5 57.5t-49 86t-17.5 105.5t17.5 106t49 87t74.5 58.5t93 21.5h25q82 0 137 -36t86 -96v132h70zM512 289q0 39 -15 73.5t-41 60.5t-61 41t-74 15q-48 0 -85 -18t-62.5 -47t-39 -66t-13.5 -75
q0 -39 13.5 -77t39 -67.5t62.5 -47.5t85 -18q39 0 74 15t61 40.5t41 60t15 73.5v37zM301 645h-41l59 141h63z" />
    <glyph glyph-name="acircumflex" unicode="&#xe2;" horiz-adv-x="666" 
d="M596 543v-543h-70v131q-27 -57 -86 -94t-137 -37h-25q-50 0 -93 21t-74.5 57.5t-49 86t-17.5 105.5t17.5 106t49 87t74.5 58.5t93 21.5h25q81 0 136 -36t87 -96v132h70zM510 289q0 39 -15 73.5t-41 60.5t-60 41t-73 15q-48 0 -85.5 -18t-63.5 -47t-39.5 -66t-13.5 -75
q0 -39 13.5 -77t39.5 -67.5t63.5 -47.5t85.5 -18q39 0 73 15t60 40.5t41 60t15 73.5v37zM251 636h-55l96 150h54l98 -150h-54l-71 109z" />
    <glyph glyph-name="atilde" unicode="&#xe3;" horiz-adv-x="666" 
d="M596 543v-543h-70v131q-27 -57 -86 -94t-137 -37h-25q-50 0 -93 21t-74.5 57.5t-49 86t-17.5 105.5t17.5 106t49 87t74.5 58.5t93 21.5h25q81 0 136 -36t87 -96v132h70zM510 289q0 39 -15 73.5t-41 60.5t-60.5 41t-72.5 15q-48 0 -85.5 -18t-63.5 -47t-39.5 -66
t-13.5 -75q0 -39 13.5 -77t39.5 -67.5t63.5 -47.5t85.5 -18q38 0 72.5 15t60.5 40.5t41 60t15 73.5v37zM232 661q-12 -3 -17.5 -8.5t-13.5 -11.5l-23 18l7 9q14 17 31 26.5t40 11.5q17 2 32 -2t31 -11q24 -11 45 -16.5t44 2.5q11 4 16.5 8t12.5 13l26 -19l-8 -11
q-28 -32 -70 -38q-17 -2 -33 3t-33 12q-23 11 -44.5 17t-42.5 -3z" />
    <glyph glyph-name="adieresis" unicode="&#xe4;" horiz-adv-x="666" 
d="M596 543v-543h-70v131q-14 -28 -36 -52t-51 -41.5t-63.5 -27.5t-72.5 -10h-25q-51 0 -93.5 21t-74 57.5t-49 86t-17.5 105.5t17.5 106t49 87t74 58.5t93.5 21.5h25q81 0 136.5 -36t86.5 -96v132h70zM510 289q0 39 -15 73.5t-40.5 60.5t-60 41t-73.5 15q-48 0 -85 -18
t-63 -47t-39.5 -66t-14.5 -75q0 -39 13.5 -77t39.5 -67.5t63.5 -47.5t85.5 -18q39 0 73.5 15t60 40.5t40.5 60t15 73.5v37zM412 652q-20 0 -34 14t-14 34q0 19 14 33t34 14q19 0 32.5 -14t13.5 -33q0 -20 -13.5 -34t-32.5 -14zM228 652q-19 0 -32 14t-13 34q0 19 13 33
t32 14q18 0 33 -14t15 -33q0 -20 -15 -34t-33 -14z" />
    <glyph glyph-name="aring" unicode="&#xe5;" horiz-adv-x="663" 
d="M594 543v-543h-71v131q-27 -57 -84.5 -94t-135.5 -37h-27q-50 0 -92.5 21t-73.5 57.5t-48.5 86t-17.5 105.5t17.5 106t48.5 87t73.5 58.5t92.5 21.5h27q81 0 135.5 -36t84.5 -96v132h71zM510 289q0 39 -15 73.5t-41 60.5t-61 41t-74 15q-47 0 -84 -18t-63 -47t-39.5 -66
t-13.5 -75q0 -39 13.5 -77t39 -67.5t62.5 -47.5t85 -18q39 0 74 15t61 40.5t41 60t15 73.5v37zM319 543q-50 0 -86 36q-16 16 -25 38.5t-9 45.5q0 26 9 48t25 39q17 17 38.5 26.5t47.5 9.5t48 -9.5t39 -26.5q15 -17 24 -39t9 -48q0 -23 -9 -45.5t-24 -38.5q-36 -36 -87 -36z
M262 720q-22 -22 -22 -57q0 -15 5.5 -29.5t16.5 -24.5q24 -25 57 -25t57 25q11 10 16.5 24.5t5.5 29.5q0 35 -22 57q-12 11 -26 17t-31 6q-31 0 -57 -23z" />
    <glyph glyph-name="ae" unicode="&#xe6;" horiz-adv-x="1116" 
d="M1076 270q0 -7 -1.5 -13.5t-1.5 -13.5h-477q2 -39 19 -72.5t45 -58t64 -39t74 -14.5q31 0 61 9t55.5 25.5t45 39t29.5 48.5h71q-14 -39 -37.5 -72t-55.5 -57.5t-71 -38t-84 -13.5h-27q-57 0 -106 21t-83 61v-82h-70v131q-14 -28 -36 -52t-51 -41.5t-63.5 -27.5t-72.5 -10
h-25q-51 0 -93.5 21t-74 57.5t-49 86t-17.5 105.5t17.5 106t49 87t74 58.5t93.5 21.5h25q81 0 136.5 -36t86.5 -96v132h70v-82q34 38 83 60t106 22h27q56 0 104.5 -21.5t84 -58.5t55.5 -87t20 -106zM510 289q0 39 -15 73.5t-40.5 60.5t-60 41t-73.5 15q-48 0 -85 -18
t-62.5 -47t-39 -66t-13.5 -75q-1 -39 12.5 -77t39 -67.5t63 -47.5t85.5 -18q39 0 73.5 15t60 40.5t40.5 60t15 73.5v37zM1003 297q-2 38 -19.5 72t-45.5 59.5t-64.5 40t-75.5 14.5q-38 0 -74 -14.5t-64 -40t-45 -59.5t-19 -72h407z" />
    <glyph glyph-name="ccedilla" unicode="&#xe7;" horiz-adv-x="639" 
d="M327 50q36 0 67.5 11t57 30t44 44.5t29.5 53.5h75q-13 -41 -37.5 -75.5t-58.5 -60t-75.5 -39.5t-87.5 -14h-23q-7 -8 -12.5 -17t-7.5 -19q17 -4 35 -9t33 -12q19 -8 34.5 -23t20.5 -34q3 -8 4 -18t-2 -18q-2 -11 -8 -19t-13 -13q-19 -14 -42.5 -16.5t-43.5 0.5
q-12 0 -25 3t-25 6q-11 4 -22 9t-19 10l-7 4l21 37l7 -5q7 -5 16 -8.5t18 -7.5q10 -2 20 -4.5t20 -2.5q12 -2 28.5 -1t28.5 8q2 2 3.5 4.5t3.5 4.5q0 9 -2 14q-4 12 -14 20.5t-20 13.5q-14 5 -31 9.5t-33 6.5q-3 2 -6.5 2t-6.5 2l-14 3l-2 15v7q0 14 4 26t9 24q-48 9 -89 33
t-72 59.5t-48.5 80.5t-17.5 95q0 56 21.5 106t58.5 87t87 58.5t106 21.5h27q46 0 87.5 -14t75.5 -39t58.5 -59.5t37.5 -75.5h-75q-11 28 -29.5 53t-44 44t-57 30t-67.5 11q-48 0 -88 -20t-68 -52.5t-43 -72.5t-14 -80q0 -39 15.5 -78t43.5 -70t67 -50.5t87 -19.5z" />
    <glyph glyph-name="egrave" unicode="&#xe8;" horiz-adv-x="635" 
d="M337 645l-81 141h63l59 -141h-41zM331 543q56 0 104.5 -21.5t83.5 -58.5t55 -87t20 -106q0 -7 -1 -13.5t-1 -13.5h-477q2 -38 19 -71.5t45 -58.5t64 -39.5t74 -14.5q31 0 61 9t55.5 25.5t45 39t29.5 49.5h70q-13 -39 -36.5 -72.5t-55.5 -58t-71 -38t-84 -13.5h-28
q-56 0 -104 21t-83 57.5t-54.5 86t-19.5 105.5t19.5 106t54.5 87t83 58.5t104 21.5h28zM522 298q-2 38 -19.5 72t-45.5 59.5t-64.5 40t-75.5 14.5q-38 0 -74 -14.5t-64 -40t-45 -59.5t-19 -72h407z" />
    <glyph glyph-name="eacute" unicode="&#xe9;" horiz-adv-x="636" 
d="M299 645h-41l59 141h64zM333 543q56 0 104 -21.5t83 -58.5t54.5 -87t19.5 -106v-13.5t-2 -13.5h-477q2 -38 19 -71.5t45.5 -58.5t64.5 -39.5t75 -14.5q31 0 60.5 9t54.5 25.5t44.5 39t29.5 49.5h73q-15 -39 -39 -72.5t-55.5 -58t-70.5 -38t-83 -13.5h-30q-55 0 -102.5 21
t-83 57.5t-55.5 86t-20 105.5t20 106t55.5 87t83 58.5t102.5 21.5h30zM522 298q-2 38 -19.5 72t-45.5 59.5t-63.5 40t-74.5 14.5t-75 -14.5t-64.5 -40t-45.5 -59.5t-19 -72h407z" />
    <glyph glyph-name="ecircumflex" unicode="&#xea;" horiz-adv-x="635" 
d="M249 636h-55l98 150h52l98 -150h-54l-69 109zM333 543q56 0 104 -21.5t83 -58.5t54.5 -87t19.5 -106v-13.5t-2 -13.5h-477q2 -38 19 -71.5t45.5 -58.5t64.5 -39.5t75 -14.5q30 0 59.5 9t55 25.5t45 39t29.5 49.5h70q-13 -39 -36.5 -72.5t-55 -58t-70.5 -38t-83 -13.5h-30
q-55 0 -102.5 21t-83 57.5t-55.5 86t-20 105.5t20 106t55.5 87t83 58.5t102.5 21.5h30zM522 298q-2 38 -19.5 72t-45.5 59.5t-63.5 40t-74.5 14.5t-75 -14.5t-64.5 -40t-45.5 -59.5t-19 -72h407z" />
    <glyph glyph-name="edieresis" unicode="&#xeb;" horiz-adv-x="633" 
d="M331 543q56 0 104 -21.5t83 -58.5t54.5 -87t19.5 -106v-27h-477q2 -38 19 -71.5t45 -58.5t64 -39.5t74 -14.5q31 0 60.5 9t54.5 25.5t45 39t31 49.5h70q-13 -39 -37 -72.5t-56 -58t-71 -38t-83 -13.5h-28q-56 0 -104 21t-83 57.5t-54.5 86t-19.5 105.5t19.5 106t54.5 87
t83 58.5t104 21.5h28zM519 298q-1 38 -18.5 72t-45.5 59.5t-64 40t-74 14.5t-74 -14.5t-64 -40t-45 -59.5t-19 -72h404zM408 652q-19 0 -32.5 14.5t-13.5 33.5t13.5 33.5t32.5 14.5q20 0 34 -14.5t14 -33.5t-14 -33.5t-34 -14.5zM226 652q-20 0 -34 14.5t-14 33.5t14 33.5
t34 14.5q19 0 32.5 -14.5t13.5 -33.5t-13.5 -33.5t-32.5 -14.5z" />
    <glyph glyph-name="igrave" unicode="&#xec;" horiz-adv-x="207" 
d="M123 645l-80 141h61l62 -141h-43zM68 0v543h70v-543h-70z" />
    <glyph glyph-name="iacute" unicode="&#xed;" horiz-adv-x="207" 
d="M84 645h-41l61 141h62zM68 0v543h70v-543h-70z" />
    <glyph glyph-name="icircumflex" unicode="&#xee;" horiz-adv-x="208" 
d="M69 0v543h70v-543h-70zM228 636h-55l-70 109l-71 -109h-52l95 150h55z" />
    <glyph glyph-name="idieresis" unicode="&#xef;" horiz-adv-x="208" 
d="M12 743q19 0 32 -13.5t13 -34.5q0 -19 -13 -32t-32 -13t-33.5 13t-14.5 32q0 21 14.5 34.5t33.5 13.5zM69 0v543h70v-543h-70zM194 743q20 0 33.5 -13.5t13.5 -34.5q0 -19 -13.5 -32t-33.5 -13q-19 0 -32.5 13t-13.5 32q0 21 13.5 34.5t32.5 13.5z" />
    <glyph glyph-name="eth" unicode="&#xf0;" horiz-adv-x="653" 
d="M514 502q18 -18 35 -47t31 -62t22.5 -66t8.5 -59q0 -55 -21.5 -104.5t-58.5 -86t-86.5 -58t-105.5 -21.5h-25q-56 0 -106 21.5t-87 58t-58.5 86t-21.5 104.5q0 56 21.5 106t58.5 87t87 58.5t106 21.5h25h20t21 -2l-162 161l-82 -82l-50 50l82 82l-72 71l50 50l72 -71
l62 59l50 -50l-62 -59zM327 55q44 0 82.5 17t68 46t46.5 68t17 82q0 44 -17 83.5t-46.5 69t-68 46.5t-82.5 17t-83.5 -17t-69 -46.5t-46.5 -69t-17 -83.5q0 -43 17 -82t46.5 -68t69 -46t83.5 -17z" />
    <glyph glyph-name="ntilde" unicode="&#xf1;" horiz-adv-x="595" 
d="M214 661q-11 -3 -17 -8t-13 -12l-25 18l9 9q14 17 30 27t38 12q17 2 34 -2.5t32 -11.5q24 -10 45 -16t44 3q17 5 29 20l25 -18l-9 -12q-12 -15 -28.5 -25t-39.5 -13q-17 -2 -33.5 3.5t-32.5 12.5q-24 10 -45 16t-43 -3zM341 543q47 0 83.5 -23t61 -59t37.5 -80t13 -86
v-295h-73v311q0 34 -12 65.5t-33.5 56t-51 39t-64.5 14.5t-64.5 -16t-51 -42t-33.5 -59t-12 -67v-302h-73v543h71v-102q8 19 24 37t39 32.5t52 23.5t64 9h23z" />
    <glyph glyph-name="ograve" unicode="&#xf2;" 
d="M348 645l-82 141h61l62 -141h-41zM341 543q56 0 106 -21.5t87 -58.5t58.5 -87t21.5 -106t-21.5 -105.5t-58.5 -86t-87 -57.5t-106 -21h-27q-56 0 -106 21t-87 57.5t-58.5 86t-21.5 105.5t21.5 106t58.5 87t87 58.5t106 21.5h27zM327 50q48 0 87.5 19.5t67.5 50.5t43.5 70
t15.5 78q1 40 -14 80t-43 72.5t-67.5 52.5t-89.5 20q-49 0 -89 -20t-68 -52.5t-42.5 -72.5t-13.5 -80q0 -39 15.5 -78t43.5 -70t67 -50.5t87 -19.5z" />
    <glyph glyph-name="oacute" unicode="&#xf3;" 
d="M341 543q56 0 106 -21.5t87 -58.5t58.5 -87t21.5 -106t-21.5 -105.5t-58.5 -86t-87 -57.5t-106 -21h-27q-56 0 -106 21t-87 57.5t-58.5 86t-21.5 105.5t21.5 106t58.5 87t87 58.5t106 21.5h27zM327 50q48 0 87.5 19.5t67.5 50.5t43.5 70t15.5 78q1 40 -14 80t-43 72.5
t-67.5 52.5t-89.5 20q-49 0 -89 -20t-68 -52.5t-42.5 -72.5t-13.5 -80q0 -39 15.5 -78t43.5 -70t67 -50.5t87 -19.5zM307 645h-41l61 141h62z" />
    <glyph glyph-name="ocircumflex" unicode="&#xf4;" 
d="M257 636h-55l98 150h55l95 -150h-54l-69 109zM341 543q56 0 106 -21.5t87 -58.5t58.5 -87t21.5 -106t-21.5 -105.5t-58.5 -86t-87 -57.5t-106 -21h-30q-55 0 -104 21t-86 57.5t-58.5 86t-21.5 105.5t21.5 106t58.5 87t86 58.5t104 21.5h30zM327 50q48 0 87 19.5t67 50.5
t43.5 70t16.5 78q1 40 -14 80t-43.5 72.5t-68 52.5t-88.5 20t-89 -20t-68.5 -52.5t-43.5 -72.5t-15 -80q1 -39 17 -78t44 -70t67.5 -50.5t87.5 -19.5z" />
    <glyph glyph-name="otilde" unicode="&#xf5;" 
d="M239 661q-11 -3 -16 -8t-14 -12l-23 18l7 9q28 36 68 39q19 2 35 -2.5t31 -11.5q24 -10 45 -16t44 3q11 3 16.5 7.5t12.5 12.5l25 -18l-6 -12q-14 -15 -31 -25t-40 -13q-17 -2 -33.5 3.5t-32.5 12.5q-22 10 -44 16t-44 -3zM343 543q56 0 105 -21.5t86 -58.5t58.5 -87
t21.5 -106t-21.5 -105.5t-58.5 -86t-86 -57.5t-105 -21h-29q-56 0 -106 21t-87 57.5t-58.5 86t-21.5 105.5t21.5 106t58.5 87t87 58.5t106 21.5h29zM327 50q49 0 88.5 19.5t67.5 50.5t43.5 70t16.5 78q0 40 -15 80t-43.5 72.5t-68 52.5t-89.5 20q-48 0 -88 -20t-68 -52.5
t-43 -72.5t-14 -80q0 -39 15.5 -78t43.5 -70t67 -50.5t87 -19.5z" />
    <glyph glyph-name="odieresis" unicode="&#xf6;" 
d="M418 650q-19 0 -33 13t-14 32q0 21 14 34.5t33 13.5t33.5 -13.5t14.5 -34.5q0 -19 -14.5 -32t-33.5 -13zM341 543q56 0 106 -21.5t87 -58.5t58.5 -87t21.5 -106t-21.5 -105.5t-58.5 -86t-87 -57.5t-106 -21h-30q-55 0 -104 21t-86 57.5t-58.5 86t-21.5 105.5t21.5 106
t58.5 87t86 58.5t104 21.5h30zM327 50q48 0 87 19.5t67 50.5t43.5 70t16.5 78q1 40 -14 80t-43.5 72.5t-68 52.5t-88.5 20t-89 -20t-68 -52.5t-43.5 -72.5t-15.5 -80q1 -39 17 -78t44 -70t67.5 -50.5t87.5 -19.5zM234 650q-19 0 -32 13t-13 32q0 21 13 34.5t32 13.5
q20 0 34 -13.5t14 -34.5q0 -19 -14 -32t-34 -13z" />
    <glyph glyph-name="divide" unicode="&#xf7;" horiz-adv-x="478" 
d="M239 93q19 0 32 -13.5t13 -34.5q0 -19 -13 -32t-32 -13t-33.5 13t-14.5 32q0 21 14.5 34.5t33.5 13.5zM239 411q-19 0 -33.5 14t-14.5 34q0 19 14.5 32.5t33.5 13.5t32 -13.5t13 -32.5q0 -20 -13 -34t-32 -14zM23 216v73h432v-73h-432z" />
    <glyph glyph-name="oslash" unicode="&#xf8;" horiz-adv-x="682" 
d="M448 555q42 -14 77 -40.5t60.5 -62t39.5 -78.5t14 -90q0 -58 -22 -110t-60.5 -90t-90.5 -60.5t-111 -22.5h-29h-19.5t-16.5 2l-21 -73h-59l23 87q-42 14 -77 40t-60.5 61t-39.5 77.5t-14 88.5q0 59 22.5 111t61 90.5t90 61t110.5 22.5h29h19.5t17.5 -2l20 73h60zM380 523
q-22 5 -41 5q-49 0 -92.5 -19t-76.5 -52t-52 -77.5t-19 -95.5q0 -37 11 -71.5t30.5 -63.5t46.5 -51t59 -36zM339 41q51 0 95.5 19t77.5 52t52 77.5t19 94.5q0 38 -11 72.5t-30.5 63.5t-47 51.5t-59.5 35.5l-134 -461q11 -2 20.5 -3.5t17.5 -1.5z" />
    <glyph glyph-name="ugrave" unicode="&#xf9;" horiz-adv-x="595" 
d="M310 645l-79 141h61l61 -141h-43zM526 543v-543h-70v91q-19 -38 -64.5 -64.5t-115.5 -26.5h-23q-47 0 -83.5 22.5t-61 58t-37.5 79t-13 85.5v298h73v-311q0 -34 12 -66t33 -56.5t50.5 -39.5t65.5 -15q35 0 64.5 16.5t51 42.5t33.5 59.5t12 67.5v302h73z" />
    <glyph glyph-name="uacute" unicode="&#xfa;" horiz-adv-x="595" 
d="M274 645h-43l61 141h61zM526 543v-543h-70v91q-19 -38 -64.5 -64.5t-115.5 -26.5h-23q-47 0 -83.5 22.5t-61 58t-37.5 79t-13 85.5q0 31 0.5 70t0.5 79.5t0.5 79t0.5 69.5h71v-311q0 -34 12 -66t33.5 -56.5t51 -39.5t64.5 -15q36 0 65.5 16.5t51 42.5t33 59.5t11.5 67.5
v302h73z" />
    <glyph glyph-name="ucircumflex" unicode="&#xfb;" horiz-adv-x="595" 
d="M222 636h-55l98 150h54l96 -150h-52l-71 109zM526 543v-543h-73v91q-17 -38 -62 -64.5t-115 -26.5h-23q-47 0 -83.5 22.5t-61 58t-37.5 79t-13 85.5v298h73v-311q0 -34 12 -66t33 -56.5t50.5 -39.5t65.5 -15q35 0 64.5 16.5t51 42.5t33.5 59.5t12 67.5q0 77 -1 150.5
t1 151.5h73z" />
    <glyph glyph-name="udieresis" unicode="&#xfc;" horiz-adv-x="595" 
d="M383 650q-19 0 -32 13t-13 32q0 21 13 34.5t32 13.5q20 0 34 -13.5t14 -34.5q0 -19 -14 -32t-34 -13zM201 650q-20 0 -34 13t-13 32q0 21 13.5 34.5t33.5 13.5q19 0 32.5 -13.5t13.5 -34.5q0 -19 -13.5 -32t-32.5 -13zM526 543v-543h-70v91q-19 -38 -64.5 -64.5
t-115.5 -26.5h-23q-47 0 -83.5 22.5t-61 58t-37.5 79t-13 85.5v298h73v-311q0 -34 12 -66t33.5 -56.5t51 -39.5t64.5 -15t64.5 16.5t51 42.5t33.5 59.5t12 67.5v302h73z" />
    <glyph glyph-name="yacute" unicode="&#xfd;" horiz-adv-x="566" 
d="M262 645h-40l59 141h63zM549 543l-223 -543l-104 -257h-76l98 241l-227 559h73l193 -468l191 468h75z" />
    <glyph glyph-name="thorn" unicode="&#xfe;" horiz-adv-x="674" 
d="M387 543q50 0 94.5 -21.5t77.5 -58.5t52 -86.5t19 -105.5t-19 -105.5t-52 -86t-77.5 -58t-94.5 -21.5h-25q-38 0 -71.5 11.5t-61.5 32t-50 48.5t-39 61v-410h-71v1043h71v-395q18 32 40 59.5t49 48t60 32.5t73 12h25zM535 252v37q0 39 -15 73.5t-41.5 61t-61 41.5
t-73.5 15t-73 -15t-60 -41.5t-41 -61t-15 -73.5v-37q0 -39 15 -73t41 -59.5t60 -40.5t73 -15t73.5 15t61 40.5t41.5 59.5t15 73z" />
    <glyph glyph-name="ydieresis" unicode="&#xff;" horiz-adv-x="566" 
d="M376 650q-20 0 -34 13t-14 32q0 21 14 34.5t34 13.5q19 0 32.5 -13.5t13.5 -34.5q0 -19 -13.5 -32t-32.5 -13zM192 650q-19 0 -32 13t-13 32q0 21 13 34.5t32 13.5t33.5 -13.5t14.5 -34.5q0 -19 -14.5 -32t-33.5 -13zM549 543l-221 -543l-106 -257h-73l98 241l-230 559
h75l191 -468l193 468h73z" />
    <glyph glyph-name="Amacron" unicode="&#x100;" horiz-adv-x="683" 
d="M395 700q0 -1 11 -29.5t29 -75t41.5 -106t48 -122.5t49 -125t44.5 -112.5t34 -85.5t18 -44h-78l-72 184h-359l-73 -184h-75q4 9 17.5 44t33.5 85.5t44.5 112.5t49.5 125t48 122.5t41 106t28.5 75t10.5 29.5h109zM493 255l-146 375h-11l-148 -375h305zM190 793v64h300v-64
h-300z" />
    <glyph glyph-name="amacron" unicode="&#x101;" horiz-adv-x="663" 
d="M594 543v-543h-71v131q-27 -57 -84.5 -94t-135.5 -37h-27q-50 0 -92.5 21t-73.5 57.5t-48.5 86t-17.5 105.5t17.5 106t48.5 87t73.5 58.5t92.5 21.5h27q81 0 135.5 -36t84.5 -96v132h71zM510 289q0 39 -15 73.5t-41.5 60.5t-61 41t-73.5 15q-47 0 -84 -18t-63 -47
t-39.5 -66t-13.5 -75q0 -39 13.5 -77t39 -67.5t62.5 -47.5t85 -18q39 0 73.5 15t61 40.5t41.5 60t15 73.5v37zM469 706h-300v62h300v-62z" />
    <glyph glyph-name="Abreve" unicode="&#x102;" horiz-adv-x="683" 
d="M343 745q-29 0 -53 11t-43 30q-15 17 -24.5 39t-9.5 48h52q0 -33 22.5 -55.5t55.5 -22.5q30 0 52.5 22.5t22.5 55.5h52q0 -26 -9.5 -48t-24.5 -39q-17 -19 -41.5 -30t-51.5 -11zM397 700q0 -1 10.5 -29.5t28.5 -75t41 -106t48 -122.5t49 -125t44 -112.5t34 -85.5t18 -44
h-75l-73 184h-359l-73 -184h-77q4 9 17.5 44t33.5 85.5t44.5 112.5t49.5 125t48.5 122.5t41.5 106t29 75t11 29.5h109zM495 255l-146 375h-13l-146 -375h305z" />
    <glyph glyph-name="abreve" unicode="&#x103;" horiz-adv-x="663" 
d="M319 659q-29 0 -53 10.5t-42 30.5q-16 17 -25.5 38.5t-9.5 47.5h53q0 -32 22.5 -54.5t54.5 -22.5q31 0 53 22.5t22 54.5h52q0 -26 -9 -47.5t-25 -38.5q-17 -20 -41.5 -30.5t-51.5 -10.5zM594 543v-543h-71v131q-13 -28 -35.5 -52t-51 -41.5t-63 -27.5t-72.5 -10h-25
q-50 0 -92.5 21t-73.5 57.5t-48.5 86t-17.5 105.5t17.5 106t48.5 87t73.5 58.5t92.5 21.5h25q82 0 137 -36t85 -96v132h71zM510 289q0 39 -15 73.5t-41.5 60.5t-61 41t-73.5 15q-48 0 -85 -18t-62.5 -47t-39 -66t-13.5 -75q0 -39 13.5 -77t39 -67.5t62.5 -47.5t85 -18
q39 0 73.5 15t61 40.5t41.5 60t15 73.5v37z" />
    <glyph glyph-name="Aogonek" unicode="&#x104;" horiz-adv-x="684" 
d="M705 -159l-5 -2q-14 -9 -28 -14.5t-28 -10.5q-17 -5 -33 -8.5t-33 -5.5q-28 -4 -58.5 -0.5t-53.5 20.5q-10 9 -17.5 18t-9.5 23q-8 21 0 46q8 26 28.5 44.5t44.5 30.5q19 8 39.5 14t39.5 11l-70 177h-359l-73 -184h-75q4 9 17.5 44t33.5 85.5t44.5 112.5t49.5 125
t48 122.5t41 106t28.5 75t10.5 29.5h109l10.5 -27t27.5 -71.5t39.5 -101.5t46.5 -118.5t48 -122.5t44.5 -112.5t35 -89.5t20.5 -53q2 -5 3.5 -13.5t1.5 -13.5h-5q-15 -4 -33 -7.5t-36.5 -7.5t-35.5 -9t-31 -12q-15 -7 -30 -19t-20 -29q-2 -5 -3 -10t1 -10q4 -12 11 -16
q16 -12 39.5 -14t42.5 0q29 3 57 14q12 3 24 8l24 10l4 5zM494 255l-146 375h-11l-148 -375h305z" />
    <glyph glyph-name="aogonek" unicode="&#x105;" horiz-adv-x="664" 
d="M655 -160l-5 -2q-12 -8 -26.5 -14t-30.5 -11q-15 -5 -32 -8t-34 -5q-28 -4 -57.5 -0.5t-53.5 20.5q-11 9 -17.5 18t-9.5 23q-4 11 -3 22.5t5 22.5q8 26 28.5 45t43.5 31q14 6 29.5 11.5t32.5 8.5v129q-27 -57 -86 -94t-137 -37h-25q-50 0 -93 21t-74.5 57.5t-49 86
t-17.5 105.5t17.5 106t49 87t74.5 58.5t93 21.5h25q81 0 136 -36t87 -96v132h70v-573q-29 -5 -60 -11t-53 -18q-15 -7 -29 -19t-21 -29q-5 -11 0 -20q2 -6 4 -10.5t7 -6.5q15 -12 38.5 -13.5t40.5 0.5q29 3 60 13q12 4 23.5 9t21.5 10l4 4zM509 289q0 39 -15 73.5t-41 60.5
t-60.5 41t-72.5 15q-48 0 -85 -18t-63 -47t-39.5 -66t-14.5 -75q0 -39 13.5 -77t39.5 -67.5t63.5 -47.5t85.5 -18q38 0 72.5 15t60.5 40.5t41 60t15 73.5v37z" />
    <glyph glyph-name="Cacute" unicode="&#x106;" horiz-adv-x="794" 
d="M379 732h-41l61 141h61zM408 52q47 0 90 14t79 38.5t63.5 59t44.5 75.5h73q-17 -52 -49 -96t-75.5 -75.5t-96.5 -49.5t-111 -18h-36q-72 0 -136 27.5t-111.5 75t-75 111.5t-27.5 136t27.5 135.5t75 111t111.5 75.5t136 28h36q58 0 111 -18t96.5 -49.5t75.5 -75.5t49 -96
h-73q-17 41 -44.5 75.5t-63.5 59t-79 38.5t-90 14q-61 0 -115.5 -23.5t-95 -64t-64 -94.5t-23.5 -116q0 -61 23.5 -115.5t64 -95t95 -64t115.5 -23.5z" />
    <glyph glyph-name="cacute" unicode="&#x107;" horiz-adv-x="637" 
d="M302 645h-43l61 141h62zM327 50q36 0 67 11t56.5 30t44.5 44.5t30 53.5h75q-13 -41 -38 -75.5t-59 -60t-75.5 -39.5t-86.5 -14h-27q-56 0 -106 21t-87 57.5t-58.5 86t-21.5 105.5t21.5 106t58.5 87t87 58.5t106 21.5h27q45 0 86.5 -14t75.5 -39t59 -59.5t38 -75.5h-75
q-12 28 -31 53t-44 44t-56 30t-67 11q-49 0 -89 -20t-68 -52.5t-42.5 -72.5t-13.5 -80q0 -39 15.5 -78t43.5 -70t67 -50.5t87 -19.5z" />
    <glyph glyph-name="Ccaron" unicode="&#x10c;" horiz-adv-x="796" 
d="M410 52q46 0 89 14t79 38.5t63.5 59t43.5 75.5h75q-18 -52 -50.5 -96t-76 -75.5t-95.5 -49.5t-109 -18h-39q-72 0 -135.5 27.5t-111 75t-75.5 111.5t-28 136t28 135.5t75.5 111t111 75.5t135.5 28h39q57 0 109 -18t95.5 -49.5t76 -75.5t50.5 -96h-75q-16 41 -43.5 75.5
t-63.5 59t-79 38.5t-89 14q-62 0 -116.5 -23.5t-95.5 -64t-64.5 -94.5t-23.5 -116q0 -61 23.5 -115.5t64.5 -95t95.5 -64t116.5 -23.5zM374 723l-98 150h55l70 -107l69 107h54l-98 -150h-52z" />
    <glyph glyph-name="ccaron" unicode="&#x10d;" horiz-adv-x="638" 
d="M293 650l-95 148h52l71 -107l70 107h55l-98 -148h-55zM327 50q36 0 67.5 11t57 30t44 44.5t29.5 53.5h75q-13 -41 -38 -75.5t-59 -60t-75.5 -39.5t-86.5 -14h-27q-56 0 -106 21t-87 57.5t-58.5 86t-21.5 105.5t21.5 106t58.5 87t87 58.5t106 21.5h27q45 0 86.5 -14
t75.5 -39t59 -59.5t38 -75.5h-75q-11 28 -29.5 53t-44 44t-57 30t-67.5 11q-48 0 -88 -20t-68 -52.5t-43 -72.5t-14 -80q0 -39 15.5 -78t43.5 -70t67 -50.5t87 -19.5z" />
    <glyph glyph-name="Dcaron" unicode="&#x10e;" horiz-adv-x="774" 
d="M386 723l-97 150h54l71 -107l68 107h54l-95 -150h-55zM411 702q67 0 124.5 -25.5t100 -69t67 -102.5t24.5 -125v-60q0 -66 -24.5 -125t-67 -102.5t-100 -69t-124.5 -25.5h-336v704h336zM657 380q0 52 -19 97.5t-52 80t-78 54.5t-97 20h-263v-564h263q52 0 97 20t78 54.5
t52 80t19 97.5v60z" />
    <glyph glyph-name="dcaron" unicode="&#x10f;" horiz-adv-x="666" 
d="M687 786q20 0 34 -13.5t14 -34.5v-45q0 -12 -3 -24t-9 -22t-16 -16t-24 -6h-5v13q11 5 18 14t7 21v22q-5 -2 -16 -2q-19 0 -32 13.5t-13 31.5q0 21 13 34.5t32 13.5zM526 786h70v-786h-70v131q-26 -57 -81.5 -94t-141.5 -37h-25q-50 0 -93 21t-74.5 57.5t-49 86
t-17.5 105.5t17.5 106t49 87t74.5 58.5t93 21.5h25q81 0 139 -37t84 -95v375zM510 289q0 39 -15 73.5t-40.5 60.5t-60 41t-73.5 15q-48 0 -85.5 -18t-63.5 -47.5t-39.5 -67t-13.5 -76.5q1 -39 14.5 -76t39.5 -66.5t63 -47t85 -17.5q39 0 73.5 15t60 40.5t40.5 60t15 73.5v37
z" />
    <glyph glyph-name="dcroat" unicode="&#x111;" horiz-adv-x="666" 
d="M712 700v-64h-116v-636h-73v131q-24 -57 -79 -94t-141 -37h-25q-50 0 -93 21t-74.5 57.5t-49 86t-17.5 105.5t17.5 106t49 87t74.5 58.5t93 21.5h25q81 0 138.5 -37t81.5 -95v225h-111v64h111v86h73v-86h116zM510 289q0 39 -15 73.5t-41 60.5t-60.5 41t-72.5 15
q-48 0 -85.5 -18t-63.5 -47.5t-39.5 -67t-13.5 -76.5q1 -39 14.5 -76t39.5 -66.5t63 -47t85 -17.5q38 0 72.5 15t60.5 40.5t41 60t15 73.5v37z" />
    <glyph glyph-name="Emacron" unicode="&#x112;" horiz-adv-x="671" 
d="M207 793v64h300v-64h-300zM148 630v-246h422v-70h-422v-244h488v-70h-561v700h561v-70h-488z" />
    <glyph glyph-name="emacron" unicode="&#x113;" horiz-adv-x="636" 
d="M169 707v61h300v-61h-300zM333 543q56 0 104 -21.5t83 -58.5t54.5 -87t19.5 -106v-27h-479q2 -38 19 -71.5t45.5 -58.5t64.5 -39.5t75 -14.5q31 0 60.5 9t55 25.5t45 39t30.5 49.5h71q-15 -39 -39 -72.5t-55.5 -58t-70.5 -38t-83 -13.5h-27q-56 0 -104.5 21t-84 57.5
t-55.5 86t-20 105.5t20 106t55.5 87t84 58.5t104.5 21.5h27zM522 298q-2 38 -19.5 72t-45.5 59.5t-63.5 40t-74.5 14.5t-75 -14.5t-64.5 -40t-45.5 -59.5t-19 -72h407z" />
    <glyph glyph-name="Edotaccent" unicode="&#x116;" horiz-adv-x="669" 
d="M145 630v-246h423v-70h-423v-244h489v-70h-559v700h559v-70h-489zM354 741q-19 0 -33 13t-14 32t14 33.5t33 14.5q20 0 33 -14.5t13 -33.5t-13 -32t-33 -13z" />
    <glyph glyph-name="edotaccent" unicode="&#x117;" horiz-adv-x="635" 
d="M317 652q-19 0 -32 14.5t-13 33.5t13 32t32 13q20 0 34 -13t14 -32t-14 -33.5t-34 -14.5zM333 543q56 0 103.5 -21.5t82.5 -58.5t55 -87t20 -106v-13.5t-2 -13.5h-477q2 -38 19 -71.5t45 -58.5t64 -39.5t74 -14.5q31 0 61 9t55.5 25.5t45 39t29.5 49.5h70
q-13 -39 -36.5 -72.5t-55 -58t-70.5 -38t-83 -13.5h-30q-56 0 -104 21t-83 57.5t-54.5 86t-19.5 105.5t19.5 106t54.5 87t83 58.5t104 21.5h30zM522 298q-2 38 -19.5 72t-45.5 59.5t-64.5 40t-75.5 14.5q-38 0 -74 -14.5t-64 -40t-45 -59.5t-19 -72h407z" />
    <glyph glyph-name="Eogonek" unicode="&#x118;" horiz-adv-x="671" 
d="M666 -159l-5 -2q-14 -9 -27.5 -14.5t-28.5 -10.5q-33 -11 -66 -14q-28 -4 -58.5 -0.5t-53.5 20.5q-10 9 -16.5 18t-10.5 23q-8 23 2 46q9 26 29 44.5t44 30.5q11 5 23.5 9.5t26.5 8.5h-450v700h561v-70h-491v-246h425v-70h-425v-244h491v-47v-23v-10t-2 -13h-2
q-31 -8 -71 -15.5t-68 -20.5q-15 -7 -30 -19t-20 -29q-3 -10 0 -20q0 -13 12 -16q15 -12 37.5 -14t41.5 0q29 3 57 14q12 3 24.5 8t23.5 10l4 5z" />
    <glyph glyph-name="eogonek" unicode="&#x119;" horiz-adv-x="635" 
d="M333 543q56 0 104 -21.5t83 -58.5t54.5 -87t19.5 -106v-13.5t-2 -13.5h-477q2 -38 19 -71.5t45.5 -58.5t64.5 -39.5t75 -14.5q30 0 59.5 9t55 25.5t45 39t29.5 49.5h70q-19 -59 -59 -102.5t-97 -63.5v-3l-3 -2q-23 -5 -52 -14.5t-56.5 -24.5t-49.5 -34.5t-30 -44.5
q-5 -13 -3 -20q2 -5 5 -9.5t7 -6.5q15 -12 39 -14t43 0q28 3 56 14q12 3 24.5 8t23.5 10l5 5l22 -39l-4 -2q-14 -9 -28.5 -14.5t-28.5 -10.5q-17 -5 -33 -8.5t-33 -5.5q-27 -4 -58 -0.5t-53 20.5q-28 21 -32.5 46t2.5 45q9 26 32.5 49t54.5 40q-49 6 -91.5 29.5t-73 59.5
t-48 82.5t-17.5 98.5q0 56 20 106t55.5 87t83 58.5t102.5 21.5h30zM522 298q-2 38 -19.5 72t-45.5 59.5t-63.5 40t-74.5 14.5t-75 -14.5t-64.5 -40t-45.5 -59.5t-19 -72h407z" />
    <glyph glyph-name="Ecaron" unicode="&#x11a;" horiz-adv-x="669" 
d="M327 723l-97 150h54l71 -107l70 107h55l-98 -150h-55zM145 630v-246h423v-70h-423v-244h489v-70h-559v700h559v-70h-489z" />
    <glyph glyph-name="ecaron" unicode="&#x11b;" horiz-adv-x="636" 
d="M292 636l-98 150h55l70 -106l71 106h52l-95 -150h-55zM333 543q56 0 104 -21.5t83 -58.5t54.5 -87t19.5 -106v-27h-479q2 -38 19 -71.5t45.5 -58.5t64.5 -39.5t75 -14.5q31 0 60.5 9t55 25.5t45 39t30.5 49.5h71q-14 -39 -38 -72.5t-56 -58t-71 -38t-83 -13.5h-27
q-56 0 -104.5 21t-84 57.5t-55.5 86t-20 105.5t20 106t55.5 87t84 58.5t104.5 21.5h27zM522 298q-2 38 -19.5 72t-45.5 59.5t-63.5 40t-74.5 14.5t-75 -14.5t-64.5 -40t-45.5 -59.5t-19 -72h407z" />
    <glyph glyph-name="Gbreve" unicode="&#x11e;" horiz-adv-x="766" 
d="M376 745q-29 0 -54 11t-42 30q-15 17 -24.5 39t-9.5 48h52q0 -33 22.5 -55.5t55.5 -22.5q30 0 52.5 22.5t22.5 55.5h52q0 -26 -9.5 -48t-24.5 -39q-17 -19 -41.5 -30t-51.5 -11zM366 632q-52 0 -97.5 -20t-79.5 -54.5t-53.5 -80t-19.5 -97.5v-60q0 -52 19.5 -97.5
t53.5 -80t79.5 -54.5t97.5 -20h269v246h-250v70h320v-386h-339q-66 0 -124.5 25.5t-102 69t-68.5 102.5t-25 125v60q0 66 25 125t68.5 102.5t102 69t124.5 25.5h339v-70h-339z" />
    <glyph glyph-name="gbreve" unicode="&#x11f;" horiz-adv-x="661" 
d="M592 543v-520q0 -54 -19 -101t-51 -84q-38 -42 -89.5 -67.5t-111.5 -27.5q-43 -1 -85.5 12t-79.5 38.5t-66 62.5t-44 85h73q24 -57 76 -92t118 -35q42 0 80 16.5t66.5 45t45.5 66.5t17 81v109q-15 -25 -36.5 -49t-49.5 -42.5t-62 -29.5t-75 -11q-65 0 -113 23.5t-79.5 62
t-47 87t-15.5 98.5q0 51 15.5 100t47 87t79.5 61.5t113 23.5q42 0 77.5 -10.5t64 -28.5t49.5 -42.5t32 -52.5v134h70zM503 214q5 22 5.5 53t-2.5 53q-8 43 -28 75t-47.5 52.5t-60.5 30t-67 6.5q-35 -3 -68.5 -19t-59.5 -43t-42 -64.5t-16 -84.5q0 -49 17 -87.5t44.5 -66
t62.5 -43t72 -17.5q32 -1 62.5 8t56 28.5t44.5 49t27 69.5zM319 659q-29 0 -53.5 11t-41.5 30q-15 17 -24.5 38.5t-9.5 47.5h52q0 -32 22.5 -54.5t54.5 -22.5q31 0 53 22.5t22 54.5h52q0 -26 -9 -47.5t-24 -38.5q-17 -19 -41.5 -30t-52.5 -11z" />
    <glyph glyph-name="Imacron" unicode="&#x12a;" horiz-adv-x="220" 
d="M75 0v700h70v-700h-70zM-39 793v64h298v-64h-298z" />
    <glyph glyph-name="imacron" unicode="&#x12b;" horiz-adv-x="209" 
d="M69 0v543h70v-543h-70zM-45 707v61h300v-61h-300z" />
    <glyph glyph-name="Idotaccent" unicode="&#x130;" horiz-adv-x="220" 
d="M108 741q-18 0 -31.5 13t-13.5 32t13 33.5t32 14.5q21 0 34.5 -14.5t13.5 -33.5t-13.5 -32t-34.5 -13zM74 0v700h71v-700h-71z" />
    <glyph glyph-name="dotlessi" unicode="&#x131;" horiz-adv-x="209" 
d="M68 0v543h73v-543h-73z" />
    <glyph glyph-name="Lslash" unicode="&#x141;" horiz-adv-x="557" 
d="M540 70v-70h-347v170l-128 -170h-61l189 252v448h70v-352l146 195h59l-205 -277v-196h277z" />
    <glyph glyph-name="lslash" unicode="&#x142;" horiz-adv-x="328" 
d="M306 580v-100l-102 -103v-377h-70v307l-105 -102v100l105 102v379h70v-309z" />
    <glyph glyph-name="Nacute" unicode="&#x143;" horiz-adv-x="744" 
d="M348 732h-41l61 141h62zM668 700v-700h-98l-425 605v-605h-70v700h91l432 -618v618h70z" />
    <glyph glyph-name="nacute" unicode="&#x144;" horiz-adv-x="592" 
d="M341 543q46 0 82 -23t60.5 -59t37.5 -80t13 -86v-295h-71v311q0 34 -12 65.5t-33.5 56t-51 39t-64.5 14.5q-36 0 -66 -16t-51.5 -42t-34 -59t-12.5 -67q0 -78 1 -151.5t-1 -150.5h-70v543h70v-102q9 19 24.5 37t38 32.5t51.5 23.5t64 9h25zM282 645h-43l61 141h64z" />
    <glyph glyph-name="Ncaron" unicode="&#x147;" horiz-adv-x="744" 
d="M345 723l-97 150h54l71 -107l70 107h52l-95 -150h-55zM668 700v-700h-98l-425 605v-605h-70v700h91l432 -618v618h70z" />
    <glyph glyph-name="ncaron" unicode="&#x148;" horiz-adv-x="592" 
d="M273 636l-96 150h55l68 -106l70 106h55l-98 -150h-54zM341 543q46 0 82 -23t60.5 -59t37.5 -80t13 -86v-295h-73v311q0 34 -12 65.5t-33 56t-50.5 39t-65.5 14.5q-35 0 -64.5 -16t-51.5 -42t-34 -59t-12 -67q0 -78 1 -151.5t-1 -150.5h-70v543h70v-102q9 19 24.5 37
t38 32.5t51.5 23.5t64 9h25z" />
    <glyph glyph-name="Omacron" unicode="&#x14c;" horiz-adv-x="819" 
d="M429 700q72 0 135.5 -28t111 -76t75 -111.5t27.5 -134.5q0 -73 -27.5 -136.5t-75 -111t-111 -75t-135.5 -27.5h-39q-72 0 -136 27.5t-111.5 75t-75 111t-27.5 136.5q0 71 27.5 134.5t75 111.5t111.5 76t136 28h39zM408 52q62 0 117 23.5t95.5 64t64 95t23.5 115.5
t-23.5 115t-64 94.5t-95.5 64t-117 23.5q-61 0 -115.5 -23.5t-94.5 -64t-63.5 -94.5t-23.5 -115t23.5 -115.5t63.5 -95t94.5 -64t115.5 -23.5zM558 793h-298v63h298v-63z" />
    <glyph glyph-name="omacron" unicode="&#x14d;" horiz-adv-x="653" 
d="M177 707v61h298v-61h-298zM341 543q56 0 105.5 -21.5t86 -58.5t57.5 -87t21 -106t-21 -105.5t-57.5 -86t-86 -57.5t-105.5 -21h-30q-55 0 -104 21t-86 57.5t-58.5 86t-21.5 105.5t21.5 106t58.5 87t86 58.5t104 21.5h30zM327 59q48 0 87 18t67 47.5t43.5 67t16.5 76.5
q0 40 -15 79t-43 69.5t-67.5 49t-88.5 18.5t-89 -18.5t-68 -49t-43.5 -69.5t-15.5 -79q1 -39 17 -76.5t44 -67t67.5 -47.5t87.5 -18z" />
    <glyph glyph-name="Ohungarumlaut" unicode="&#x150;" horiz-adv-x="819" 
d="M426 700q73 0 137 -28t112 -76t75.5 -111.5t27.5 -134.5q0 -73 -27.5 -136.5t-75.5 -111t-112 -75t-137 -27.5h-36q-73 0 -136.5 27.5t-111 75t-75 111t-27.5 136.5q0 71 27.5 134.5t75 111.5t111 76t136.5 28h36zM408 52q62 0 116 23.5t94 64t63.5 95t23.5 115.5
t-23.5 115t-63.5 94.5t-94 64t-116 23.5q-61 0 -115.5 -23.5t-94.5 -64t-63.5 -94.5t-23.5 -115t23.5 -115.5t63.5 -95t94.5 -64t115.5 -23.5zM403 731l62 141h61l-82 -141h-41zM333 731h-41l59 141h63z" />
    <glyph glyph-name="ohungarumlaut" unicode="&#x151;" 
d="M252 645h-43l62 141h63zM321 645l61 141h64l-82 -141h-43zM341 543q56 0 106 -21.5t87 -58.5t58.5 -87t21.5 -106t-21.5 -105.5t-58.5 -86t-87 -57.5t-106 -21h-27q-56 0 -106 21t-87 57.5t-58.5 86t-21.5 105.5t21.5 106t58.5 87t87 58.5t106 21.5h27zM327 50
q48 0 87.5 19.5t67.5 50.5t43.5 70t15.5 78q1 40 -14 80t-43.5 72.5t-68 52.5t-88.5 20t-89 -20t-68 -52.5t-42.5 -72.5t-13.5 -80q0 -39 15.5 -78t43.5 -70t67 -50.5t87 -19.5z" />
    <glyph glyph-name="OE" unicode="&#x152;" horiz-adv-x="1302" 
d="M776 630v-246h425v-70h-425v-243h491v-71h-561v139q-48 -63 -121 -101t-159 -38h-36q-72 0 -136 27.5t-111.5 75t-75 111.5t-27.5 136t27.5 135.5t75 111t111.5 75.5t136 28h36q86 0 159 -38t121 -103v141h561v-70h-491zM408 52q62 0 116 23.5t94.5 64t64 95t23.5 115.5
q0 62 -23.5 116t-64 94.5t-94.5 64t-116 23.5q-61 0 -115 -23.5t-94.5 -64t-64 -94.5t-23.5 -116q0 -61 23.5 -115.5t64 -95t94.5 -64t115 -23.5z" />
    <glyph glyph-name="oe" unicode="&#x153;" horiz-adv-x="1135" 
d="M832 543q56 0 104 -21.5t83 -58.5t54.5 -87t19.5 -106v-13.5t-2 -13.5h-477q2 -38 19 -71.5t45.5 -58.5t64.5 -39.5t75 -14.5q30 0 59.5 9t55 25.5t45 39t29.5 49.5h73q-15 -39 -39 -72.5t-55.5 -58t-70.5 -38t-83 -13.5h-30q-73 0 -132.5 37t-94.5 97
q-17 -30 -41.5 -54.5t-55 -42t-65 -27.5t-72.5 -10h-27q-56 0 -106 21t-87 57.5t-58.5 86t-21.5 105.5t21.5 106t58.5 87t87 58.5t106 21.5h27q38 0 72.5 -9.5t65 -27.5t55 -43t41.5 -56q35 62 94.5 99t132.5 37h30zM541 270q0 40 -15 78.5t-43 68.5t-67.5 48.5t-88.5 18.5
t-89 -18.5t-67.5 -49t-42.5 -69.5t-14 -79q0 -39 15 -76.5t43 -67t67.5 -47.5t87.5 -18t87.5 18t67.5 47.5t43.5 67t15.5 76.5v2zM1021 298q-2 38 -19.5 72t-45.5 59.5t-63.5 40t-74.5 14.5t-75 -14.5t-64.5 -40t-45.5 -59.5t-19 -72h407z" />
    <glyph glyph-name="Racute" unicode="&#x154;" horiz-adv-x="760" 
d="M720 466q0 -48 -18 -90t-49.5 -74t-73 -50.5t-88.5 -19.5l198 -232h-94l-197 232h-253v-232h-70v700h409q49 0 92 -18.5t75 -50.5t50.5 -74.5t18.5 -90.5zM484 302q34 0 64.5 13t53 35t35.5 52t13 64q0 33 -13 63t-35.5 52.5t-53 35.5t-64.5 13h-339v-328h339zM377 732
h-41l62 141h61z" />
    <glyph glyph-name="racute" unicode="&#x155;" horiz-adv-x="400" 
d="M204 645h-41l62 141h61zM138 443q21 24 44.5 44t53 34t65 20t78.5 2v-88q-42 12 -84.5 6.5t-77.5 -28t-57 -61t-22 -92.5v-16v-264h-70v543h70v-100z" />
    <glyph glyph-name="Rcaron" unicode="&#x158;" horiz-adv-x="760" 
d="M357 723l-98 150h55l70 -107l71 107h54l-98 -150h-54zM720 466q0 -48 -18 -90t-49 -74t-72.5 -50.5t-89.5 -19.5l198 -232h-94l-197 232h-253v-232h-70v700h411q48 0 90.5 -18.5t74.5 -50.5t50.5 -74.5t18.5 -90.5zM486 302q33 0 63 13t52.5 35t35.5 52t13 64
q0 33 -13 63t-35.5 52.5t-52.5 35.5t-63 13h-341v-328h341z" />
    <glyph glyph-name="rcaron" unicode="&#x159;" horiz-adv-x="400" 
d="M195 636l-95 150h52l71 -106l70 106h55l-98 -150h-55zM136 443q21 24 45 44t53.5 34t65 20t79.5 2v-88q-42 12 -85 6.5t-77.5 -28t-56.5 -61t-22 -92.5v-16v-264h-70v543h68v-100z" />
    <glyph glyph-name="Sacute" unicode="&#x15a;" horiz-adv-x="710" 
d="M337 732h-41l61 141h61zM525 368q48 -16 80.5 -42.5t49.5 -59t18 -68.5t-14.5 -69t-46.5 -61t-78 -46q-32 -10 -79.5 -16t-95.5 -6q-64 0 -121.5 13.5t-101 38.5t-69.5 60.5t-26 78.5h70q0 -25 22 -48.5t57 -41t79.5 -27.5t89.5 -8q38 0 77.5 4.5t65.5 13.5
q52 18 77.5 48.5t24 63.5t-30 62.5t-84.5 45.5q-21 7 -47.5 12t-54 9.5t-56 8.5t-54.5 9q-30 5 -63 16t-59 23q-27 12 -49 30.5t-35.5 42.5t-16 51.5t7.5 56.5q14 38 45 64t73 41q39 17 81 24.5t80 7.5q49 0 94.5 -7.5t84 -23t68 -38t44.5 -52.5l-61 -36q-11 24 -34 41
t-53.5 28t-66.5 16t-74 6q-13 0 -31.5 -1.5t-38.5 -5t-40 -8.5t-37 -12q-33 -14 -51 -37.5t-18 -49.5q0 -39 53 -75q20 -12 46.5 -19t57.5 -12q59 -12 122.5 -20.5t118.5 -25.5z" />
    <glyph glyph-name="sacute" unicode="&#x15b;" horiz-adv-x="577" 
d="M270 645h-41l59 141h64zM420 293q57 -19 86.5 -56.5t30.5 -79t-26.5 -80t-83.5 -59.5q-31 -10 -67 -14t-67 -4q-34 0 -77.5 7.5t-81.5 25t-64.5 47t-26.5 72.5v9h73v-9q0 -23 21 -39t49.5 -26.5t58.5 -15t48 -3.5q24 0 52 3t50 11q38 13 55 33.5t15 42t-22 41.5t-57 31
q-35 10 -77 15t-80 12q-23 5 -47.5 12t-47.5 17q-43 21 -66 60.5t-7 87.5q11 32 37 52t56 32q28 12 60 18.5t63 6.5q29 0 62.5 -4.5t65.5 -15t58.5 -29t40.5 -46.5l-61 -37q-11 23 -35.5 39t-53.5 23q-22 5 -52.5 6t-61 -3.5t-58 -15.5t-44.5 -31q-5 -5 -8 -13t-3 -16
q0 -15 11 -28t25 -20q16 -10 36 -15.5t39 -9.5q45 -8 91 -13t91 -21z" />
    <glyph glyph-name="Scedilla" unicode="&#x15e;" horiz-adv-x="710" 
d="M525 368q48 -16 80.5 -42.5t49.5 -59t18 -68t-14.5 -69t-46.5 -61.5t-78 -45q-32 -11 -79.5 -17t-95.5 -6h-4q-17 -17 -21 -37q17 -3 35 -8t33 -12q17 -8 32.5 -23t22.5 -34q3 -8 3.5 -18t-1.5 -18q-6 -22 -22 -32q-17 -14 -40.5 -17t-44.5 1q-14 0 -26 3l-24 6
q-10 4 -21 8.5t-22 9.5l-7 5l23 36l7 -4q12 -9 32 -16q10 -2 20.5 -4.5t22.5 -2.5q12 -2 28 -1t26 8q4 2 5.5 4.5t1.5 4.5q2 3 1 6.5t-1 7.5q-3 11 -13 20t-21 14q-14 5 -31 9t-32 6q-4 2 -7.5 2.5t-6.5 2.5l-16 2v16v7q0 25 14 50q-55 5 -103.5 20.5t-84 40t-56 57
t-20.5 71.5h71q0 -25 21.5 -48.5t57 -41t79.5 -27.5t89 -8q38 0 76.5 4.5t64.5 13.5q53 18 78.5 48.5t24 63.5t-29.5 62.5t-84 45.5q-21 7 -47.5 12t-54 9.5t-56 8.5t-54.5 9q-31 5 -63.5 16t-58.5 23q-27 12 -49 30.5t-35.5 42.5t-16 51.5t7.5 56.5q14 38 45 64t73 41
q39 17 81 24.5t78 7.5q50 0 96 -7.5t84.5 -23t68 -38t44.5 -52.5l-61 -36q-11 24 -34 41t-53.5 28t-66.5 16t-74 6q-13 0 -31.5 -1.5t-38.5 -5t-40 -8.5t-37 -12q-33 -14 -51 -37.5t-18 -49.5q0 -39 53 -75q20 -12 46.5 -19t57.5 -12q59 -12 122.5 -20.5t118.5 -25.5z" />
    <glyph glyph-name="scedilla" unicode="&#x15f;" horiz-adv-x="575" 
d="M418 293q57 -19 86.5 -56.5t31 -79t-26 -80t-84.5 -59.5q-29 -10 -65.5 -14t-68.5 -4h-5q-7 -8 -12.5 -17t-7.5 -19q17 -4 34.5 -9t33.5 -12q19 -8 34 -23t20 -34q4 -8 5 -18t-2 -18q-2 -11 -8 -19t-13 -13q-19 -14 -42.5 -16.5t-43.5 0.5q-12 0 -24.5 3t-23.5 6
q-26 8 -43 19l-7 4l21 37l6 -5q9 -5 17.5 -8.5t16.5 -7.5q11 -2 21 -4.5t20 -2.5q12 -2 28.5 -1t28.5 8q2 2 3.5 4.5t3.5 4.5q0 9 -2 14q-4 12 -14 20.5t-20 13.5q-14 5 -31 9.5t-31 6.5q-5 2 -8.5 2t-7.5 2l-13 3l-2 15v7q0 14 4 27t11 23q-33 5 -67.5 16t-63 29
t-46.5 43.5t-18 61.5v9h73v-9q0 -23 21 -39t49.5 -26.5t58 -15t46.5 -3.5q24 0 53 3t51 11q38 13 54.5 33.5t14.5 42t-22 41.5t-56 31q-38 10 -78.5 15t-78.5 12q-23 5 -47.5 12t-47.5 17q-21 11 -39 26t-28.5 34.5t-13.5 41.5t6 46q12 32 38 52t55 32q61 25 125 25
q28 0 61.5 -4.5t65.5 -15t59 -29t41 -46.5l-63 -37q-11 23 -35 39t-52 23q-22 5 -52.5 6t-61 -3.5t-58 -15.5t-44.5 -31q-5 -5 -8 -13t-3 -16q0 -15 11 -28t23 -20q17 -10 36.5 -15.5t38.5 -9.5q47 -8 93 -13t89 -21z" />
    <glyph glyph-name="Scaron" unicode="&#x160;" horiz-adv-x="711" 
d="M329 723l-96 150h55l68 -107l70 107h55l-98 -150h-54zM526 368q48 -16 80 -42.5t49 -59t18 -68.5t-14.5 -69t-46.5 -61t-79 -46q-32 -10 -79 -16t-94 -6q-64 0 -122.5 13.5t-102 38.5t-69.5 60.5t-26 78.5h70q0 -25 22 -48.5t58 -41t80.5 -27.5t89.5 -8q38 0 76.5 4.5
t64.5 13.5q52 18 77.5 48.5t24 63.5t-30 62.5t-82.5 45.5q-22 7 -48 12t-54 9.5t-55.5 8.5t-53.5 9q-33 5 -65 16t-58 23q-28 12 -50 30.5t-35 42.5t-15.5 51.5t7.5 56.5q12 38 44 64t72 41q39 17 82 24.5t79 7.5q49 0 94.5 -7.5t84.5 -23t68.5 -38t45.5 -52.5l-63 -36
q-10 24 -32.5 41t-53 28t-66 16t-73.5 6q-15 0 -33.5 -1.5t-39 -5t-40.5 -8.5t-37 -12q-31 -14 -49.5 -37.5t-16.5 -49.5q0 -19 12.5 -38.5t39.5 -36.5q19 -12 45 -19t57 -12q60 -12 123 -20.5t120 -25.5z" />
    <glyph glyph-name="scaron" unicode="&#x161;" horiz-adv-x="577" 
d="M264 636l-98 150h54l71 -106l70 106h53l-96 -150h-54zM420 293q57 -19 86.5 -56.5t30.5 -79t-26.5 -80t-83.5 -59.5q-31 -10 -67 -14t-67 -4q-34 0 -77.5 7.5t-81.5 25t-64.5 47t-26.5 72.5v9h73v-9q0 -23 21 -39t49.5 -26.5t58.5 -15t48 -3.5q24 0 52 3t50 11
q38 13 55 33.5t15 42t-22 41.5t-57 31q-35 10 -76 15t-81 12q-23 5 -47.5 12t-47.5 17q-43 21 -66 60.5t-7 87.5q11 32 37 52t56 32q28 12 60 18.5t63 6.5q29 0 62.5 -4.5t65.5 -15t58.5 -29t40.5 -46.5l-61 -37q-11 23 -35 39t-51 23q-22 5 -53 6t-62 -3.5t-59 -15.5
t-44 -31q-12 -10 -12 -29q0 -15 11.5 -28t25.5 -20q15 -10 35.5 -15.5t39.5 -9.5q45 -8 90.5 -13t90.5 -21z" />
    <glyph glyph-name="Umacron" unicode="&#x16a;" horiz-adv-x="722" 
d="M212 793v64h298v-64h-298zM660 700v-402q0 -61 -23.5 -115.5t-64 -95t-95.5 -64t-117 -23.5q-61 0 -115.5 23.5t-95 64t-64 95t-23.5 115.5v402h70v-402q0 -47 18 -88.5t49 -72.5t72.5 -49t88.5 -18q48 0 89.5 18t72.5 49t49 72.5t18 88.5v402h71z" />
    <glyph glyph-name="umacron" unicode="&#x16b;" horiz-adv-x="595" 
d="M142 707v61h300v-61h-300zM526 543v-543h-73v91q-17 -38 -62 -64.5t-115 -26.5h-22q-47 0 -83.5 22.5t-61.5 58t-38 79t-13 85.5v298h73v-311q0 -34 12 -66t33 -56.5t50.5 -39.5t65.5 -15q35 0 64.5 16.5t51.5 42.5t34 59.5t12 67.5q0 77 -1 150.5t1 151.5h72z" />
    <glyph glyph-name="Uring" unicode="&#x16e;" horiz-adv-x="722" 
d="M360 630q-24 0 -46.5 9.5t-37.5 26.5q-17 15 -27 37.5t-10 46.5q0 26 10 47.5t27 38.5q15 17 37.5 27t46.5 10q26 0 48.5 -10t37.5 -27q17 -15 26.5 -37.5t9.5 -48.5q0 -24 -9.5 -46.5t-26.5 -37.5q-15 -17 -37.5 -26.5t-48.5 -9.5zM305 807q-25 -22 -25 -57
q0 -15 6.5 -29.5t18.5 -25.5q22 -25 55 -25q17 0 31.5 7t25.5 18t16.5 25.5t5.5 29.5q0 36 -22 57q-23 23 -57 23q-16 0 -30 -6.5t-25 -16.5zM660 700v-402q0 -61 -23.5 -115.5t-64 -95t-95.5 -64t-117 -23.5q-61 0 -115.5 23.5t-95 64t-64 95t-23.5 115.5v402h70v-402
q0 -47 18 -88.5t49 -72.5t72.5 -49t88.5 -18q48 0 89.5 18t72.5 49t49 72.5t18 88.5v402h71z" />
    <glyph glyph-name="uring" unicode="&#x16f;" horiz-adv-x="592" 
d="M524 543v-543h-71v91q-19 -38 -63 -64.5t-114 -26.5h-25q-46 0 -81.5 22.5t-60.5 58t-38 79t-13 85.5v298h71v-311q0 -34 12 -66t34 -56.5t51.5 -39.5t65.5 -15q35 0 64.5 16.5t51.5 42.5t34 59.5t12 67.5q0 77 -1 150.5t1 151.5h70zM292 543q-26 0 -48.5 10t-37.5 27
q-17 15 -26.5 37.5t-9.5 46.5q0 50 36 86q15 17 37.5 26.5t48.5 9.5q24 0 46.5 -9.5t37.5 -26.5q17 -17 27 -38.5t10 -47.5q0 -24 -10 -46.5t-27 -37.5q-15 -17 -37.5 -27t-46.5 -10zM235 720q-11 -10 -16.5 -24.5t-5.5 -31.5q0 -34 22 -55q22 -25 57 -25q33 0 55 25
q25 22 25 55q0 17 -6.5 31.5t-18.5 24.5q-23 23 -55 23q-34 0 -57 -23z" />
    <glyph glyph-name="Uhungarumlaut" unicode="&#x170;" horiz-adv-x="722" 
d="M287 732h-43l61 141h62zM355 732l62 141h63l-82 -141h-43zM660 700v-402q0 -61 -23.5 -115.5t-64 -95t-94.5 -64t-116 -23.5q-61 0 -116 23.5t-95.5 64t-64.5 95t-24 115.5v402h73v-402q0 -47 18 -88.5t48.5 -72.5t72 -49t88.5 -18t88.5 18t72 49t48.5 72.5t18 88.5v402
h71z" />
    <glyph glyph-name="uhungarumlaut" unicode="&#x171;" horiz-adv-x="592" 
d="M285 645l62 141h61l-82 -141h-41zM215 645h-41l61 141h62zM524 543v-543h-71v91q-19 -38 -63 -64.5t-116 -26.5h-23q-47 0 -83 22.5t-60.5 58t-37 79t-12.5 85.5v298h71v-311q0 -34 12 -66t33.5 -56.5t51 -39.5t64.5 -15q36 0 65.5 16.5t50.5 42.5t33 59.5t12 67.5v302
h73z" />
    <glyph glyph-name="Uogonek" unicode="&#x172;" horiz-adv-x="720" 
d="M657 700v-402q0 -78 -35.5 -143.5t-95.5 -104.5q-24 -17 -39.5 -31.5t-31.5 -25.5q-19 -14 -48.5 -25.5t-58.5 -26.5q-15 -7 -30 -19t-20 -29q-2 -5 -3 -10t1 -10q4 -12 11 -16q16 -12 39.5 -14t42.5 0q14 2 28.5 5.5t28.5 8.5q12 3 24 8l24 10l2 5l23 -39l-2 -2
q-14 -9 -28.5 -14.5t-28.5 -10.5q-36 -11 -66 -14q-28 -3 -59 0.5t-55 20.5q-8 8 -15.5 17t-11.5 23q-2 11 -1.5 22.5t3.5 23.5q9 26 29 44.5t44 30.5q12 5 26 10t28 8h-22q-61 0 -115.5 23.5t-95 64t-64 95t-23.5 115.5v402h71v-402q0 -47 18 -88.5t48.5 -72.5t72 -49
t88.5 -18t88.5 18t72 49t48.5 72.5t18 88.5v402h70z" />
    <glyph glyph-name="uogonek" unicode="&#x173;" horiz-adv-x="595" 
d="M565 -159l-5 -2q-14 -9 -28.5 -14.5t-28.5 -10.5q-17 -5 -32.5 -8.5t-32.5 -5.5q-28 -4 -58.5 -0.5t-53.5 20.5q-10 9 -18 18t-11 23q-5 23 2 46q8 26 28.5 44.5t44.5 30.5q19 8 39.5 14t39.5 11h5v84q-19 -38 -64.5 -64.5t-115.5 -26.5h-22q-47 0 -83.5 22.5t-61.5 58
t-38 79t-13 85.5v298h73v-311q0 -34 12 -66t33 -56.5t50.5 -39.5t65.5 -15q35 0 64.5 16.5t51 42.5t33.5 59.5t12 67.5q0 77 -1 150.5t1 151.5h73v-568q-16 -3 -34 -6.5l-36 -7t-34.5 -8.5t-29.5 -12q-15 -7 -30 -19t-20 -29q-2 -5 -3 -10t1 -10q4 -12 11 -16
q16 -12 39.5 -14t42.5 0q29 3 57 14q12 3 24 8l24 10l2 5z" />
    <glyph glyph-name="Ydieresis" unicode="&#x178;" horiz-adv-x="670" 
d="M243 741q-19 0 -32.5 13t-13.5 32t13.5 33.5t32.5 14.5q20 0 33.5 -14.5t13.5 -33.5t-13.5 -32t-33.5 -13zM427 741q-19 0 -33.5 13t-14.5 32t14.5 33.5t33.5 14.5t33 -14.5t14 -33.5t-14 -32t-33 -13zM665 700l-295 -384v-316h-71v316l-295 384h89l206 -268l37 -48
l34 48l207 268h88z" />
    <glyph glyph-name="Zacute" unicode="&#x179;" horiz-adv-x="678" 
d="M320 732h-44l62 141h61zM647 602l-539 -529h539v-71h-611l-5 -4v97l543 537h-543v70h616v-100z" />
    <glyph glyph-name="zacute" unicode="&#x17a;" horiz-adv-x="546" 
d="M511 473l-382 -403h382v-70h-477v70l380 403h-380v70h477v-70zM252 645h-43l61 141h64z" />
    <glyph glyph-name="Zdotaccent" unicode="&#x17b;" horiz-adv-x="678" 
d="M340 741q-20 0 -34 13t-14 32t14 33.5t34 14.5q19 0 32.5 -14.5t13.5 -33.5t-13.5 -32t-32.5 -13zM647 602l-539 -529h539v-71h-612l-4 -4v97l543 537h-543v70h616v-100z" />
    <glyph glyph-name="zdotaccent" unicode="&#x17c;" horiz-adv-x="546" 
d="M273 652q-19 0 -33.5 14.5t-14.5 33.5t14.5 33.5t33.5 14.5t33 -14.5t14 -33.5t-14 -33.5t-33 -14.5zM511 473l-379 -403h379v-70h-477v70l380 403h-380v70h477v-70z" />
    <glyph glyph-name="zcaron" unicode="&#x17e;" horiz-adv-x="548" 
d="M248 636l-98 150h54l69 -106l70 106h55l-98 -150h-52zM514 473l-382 -403h382v-70h-480v70l382 403h-382v70h480v-70z" />
    <glyph glyph-name="circumflex" unicode="&#x2c6;" horiz-adv-x="302" 
d="M276 550h-55l-70 109l-70 -109h-55l98 150h54z" />
    <glyph glyph-name="caron" unicode="&#x2c7;" horiz-adv-x="296" 
d="M272 700l-98 -150h-55l-95 150h52l71 -107l70 107h55z" />
    <glyph glyph-name="breve" unicode="&#x2d8;" horiz-adv-x="311" 
d="M283 700q0 -51 -32 -86q-19 -19 -43.5 -30t-52.5 -11q-27 0 -51.5 11t-41.5 30q-34 33 -34 86h50q0 -32 22.5 -54.5t54.5 -22.5q33 0 55.5 22.5t22.5 54.5h50z" />
    <glyph glyph-name="dotaccent" unicode="&#x2d9;" horiz-adv-x="146" 
d="M74 661q19 0 32 -14t13 -33t-13 -33.5t-32 -14.5t-33.5 14.5t-14.5 33.5t14.5 33t33.5 14z" />
    <glyph glyph-name="ogonek" unicode="&#x2db;" horiz-adv-x="308" 
d="M287 -159l-2 -2q-14 -9 -28.5 -14.5t-28.5 -10.5q-35 -11 -66 -14q-27 -4 -58 -0.5t-55 20.5q-9 9 -16.5 18t-10.5 23q-5 23 2 46q8 26 28.5 44.5t43.5 30.5q20 8 40 14t40 11q17 3 33 5.5t33 5.5h5q2 -7 4.5 -11t4.5 -7q0 -4 1 -10t1 -13h-5q-31 -8 -70 -15.5t-66 -20.5
q-16 -7 -30.5 -19t-19.5 -29q-2 -5 -3 -10t1 -10q4 -13 11 -16q15 -12 39 -14t43 0q27 3 57 14q12 3 24 8t23 10l3 5z" />
    <glyph glyph-name="hungarumlaut" unicode="&#x2dd;" horiz-adv-x="290" 
d="M151 700l-80 -141h-43l61 141h62zM264 700l-81 -141h-44l62 141h63z" />
    <glyph glyph-name="Sigma" unicode="&#x3a3;" horiz-adv-x="585" 
d="M562 639h-454l290 -291l-290 -291h454v-59h-534v63l289 287l-289 288v62h534v-59z" />
    <glyph glyph-name="endash" unicode="&#x2013;" horiz-adv-x="533" 
d="M23 314v70h486v-70h-486z" />
    <glyph glyph-name="emdash" unicode="&#x2014;" horiz-adv-x="903" 
d="M23 314v70h857v-70h-857z" />
    <glyph glyph-name="quoteleft" unicode="&#x2018;" horiz-adv-x="161" 
d="M80 632q19 0 33.5 -13.5t14.5 -32.5q0 -20 -14.5 -33.5t-33.5 -13.5t-32 13.5t-13 33.5v46q0 24 11.5 46t38.5 22h5v-14q-9 -5 -17 -14t-8 -20v-22q3 2 7.5 2h7.5z" />
    <glyph glyph-name="quoteright" unicode="&#x2019;" horiz-adv-x="161" 
d="M77 700q19 0 33.5 -13.5t14.5 -34.5v-45q0 -24 -11.5 -46t-40.5 -22h-5v13q11 5 18 14t7 20v23q-4 -2 -16 -2q-19 0 -32 13t-13 32q0 21 13 34.5t32 13.5z" />
    <glyph glyph-name="quotesinglbase" unicode="&#x201a;" horiz-adv-x="147" 
d="M71 93q21 0 34.5 -13.5t13.5 -34.5v-45q0 -24 -11.5 -46t-40.5 -22h-5v13q11 5 18 14t7 20v23q-4 -2 -16 -2q-19 0 -32 13t-13 32q0 21 13 34.5t32 13.5z" />
    <glyph glyph-name="quotedblleft" unicode="&#x201c;" horiz-adv-x="290" 
d="M83 632q19 0 32 -13.5t13 -32.5q0 -20 -13 -33.5t-32 -13.5t-33.5 13.5t-14.5 33.5v46q0 24 12 46t40 22h5v-14q-11 -5 -18 -14t-7 -20v-22q4 2 16 2zM210 632q20 0 34 -13.5t14 -32.5q0 -20 -14 -33.5t-34 -13.5q-19 0 -32.5 13.5t-13.5 33.5v46q0 24 11.5 46t39.5 22h6
v-14q-10 -5 -18.5 -14t-8.5 -20v-22q4 2 8 2h8z" />
    <glyph glyph-name="quotedblright" unicode="&#x201d;" horiz-adv-x="290" 
d="M80 700q19 0 32 -13.5t13 -34.5v-45q0 -24 -11 -46t-39 -22h-4v13q8 5 16.5 14t8.5 20v23q-4 -2 -8.5 -2h-7.5q-19 0 -33.5 13t-14.5 32q0 21 14.5 34.5t33.5 13.5zM207 700q20 0 34 -13.5t14 -34.5v-45q0 -12 -3 -24t-9 -22t-16 -16t-24 -6h-5v13q11 5 19 14t8 20v23
q-5 -2 -9 -2h-9q-19 0 -32 13t-13 32q0 21 13 34.5t32 13.5z" />
    <glyph glyph-name="quotedblbase" unicode="&#x201e;" horiz-adv-x="274" 
d="M71 93q21 0 34.5 -13.5t13.5 -34.5v-45q0 -24 -11.5 -46t-40.5 -22h-5v13q11 5 19.5 14t8.5 20v23q-5 -2 -9.5 -2h-9.5q-19 0 -32 13t-13 32q0 21 13 34.5t32 13.5zM201 93q19 0 32 -13.5t14 -34.5v-45q0 -24 -11.5 -46t-39.5 -22h-4v13q8 5 16.5 14t8.5 20v23
q-4 -2 -8 -2h-8q-19 0 -33.5 13t-14.5 32q0 21 14.5 34.5t33.5 13.5z" />
    <glyph glyph-name="dagger" unicode="&#x2020;" horiz-adv-x="546" 
d="M510 543v-70h-202v-730h-71v730h-202v70h202v157h71v-157h202z" />
    <glyph glyph-name="bullet" unicode="&#x2022;" horiz-adv-x="369" 
d="M183 493q30 0 56 -11.5t45.5 -31t30.5 -45.5t11 -55q0 -30 -11 -56t-30.5 -45.5t-45.5 -30.5t-56 -11q-29 0 -54.5 11t-45 30.5t-30.5 45.5t-11 56q0 29 11 55t30.5 45.5t45 31t54.5 11.5z" />
    <glyph glyph-name="perthousand" unicode="&#x2030;" horiz-adv-x="937" 
d="M760 339q27 0 50 -10t40 -27.5t27 -40.5t10 -50v-86q0 -25 -10 -48t-27 -40t-40 -27t-50 -10h-16q-63 0 -102 50q-17 -24 -44 -37t-56 -13h-18q-25 0 -48 10t-40 27t-27 40t-10 48v86q0 27 10 50t27 40.5t40 27.5t48 10h18q29 0 56 -14.5t44 -38.5q19 24 45 38.5t57 14.5
h16zM617 211q0 33 -22 55.5t-53 22.5h-18q-31 0 -53 -22.5t-22 -55.5v-86q0 -31 22 -53t53 -22h18q31 0 53 22t22 53v86zM837 211q0 33 -22.5 55.5t-54.5 22.5h-16q-32 0 -54.5 -22.5t-22.5 -55.5v-86q0 -31 22.5 -53t54.5 -22h16q32 0 54.5 22t22.5 53v86zM176 361
q-25 0 -48 10t-40 27t-27 40t-10 48v87q0 26 10 49.5t27 40.5t40 27t48 10h18q27 0 50 -10t40 -27t27 -40.5t10 -49.5v-87q0 -25 -10 -48t-27 -40t-40 -27t-50 -10h-18zM101 486q0 -31 22 -53t53 -22h18q32 0 54.5 22t22.5 53v87q0 32 -22.5 54.5t-54.5 22.5h-18
q-31 0 -53 -22.5t-22 -54.5v-87zM592 700l-405 -700h-61l405 700h61z" />
    <glyph glyph-name="guilsinglleft" unicode="&#x2039;" horiz-adv-x="346" 
d="M141 350l170 -193h-84l-152 150l-41 43l193 193h84z" />
    <glyph glyph-name="guilsinglright" unicode="&#x203a;" horiz-adv-x="346" 
d="M311 350l-41 -43l-152 -150h-84l170 193l-170 193h84z" />
    <glyph glyph-name="Euro" unicode="&#x20ac;" horiz-adv-x="649" 
d="M376 630q-32 0 -61 -12.5t-50.5 -34t-34.5 -51t-13 -62.5v-9h246v-70h-246v-86h246v-69h-246v-9q0 -32 13 -61t34.5 -50.5t50.5 -34.5t61 -13h230v-68h-230q-47 0 -88.5 18t-72 48.5t-48.5 72t-18 88.5v9h-100v69h100v86h-100v70h100v9q0 48 18 90t48.5 73t72 49t88.5 18
h230v-70h-230z" />
    <glyph glyph-name="trademark" unicode="&#x2122;" horiz-adv-x="623" 
d="M576 698v-271h-30v237l-86 -148l-4 -7h-23l-5 7l-86 148v-237h-30v271h39l93 -155l93 155h39zM26 700h250v-27h-111v-246h-28v246h-111v27z" />
    <glyph glyph-name="radical" unicode="&#x221a;" horiz-adv-x="561" 
d="M569 873l-273 -996l-170 364h-91v66h123l122 -257l232 823h57z" />
    <glyph glyph-name="notequal" unicode="&#x2260;" horiz-adv-x="575" 
d="M344 420l-41 -143h218v-70h-238l-60 -207h-75l62 207h-157v70h175l43 143h-218v73h239l59 207h72l-59 -207h157v-73h-177z" />
    <glyph glyph-name="lessequal" unicode="&#x2264;" horiz-adv-x="436" 
d="M42 -70v70h361v-70h-361zM106 350l297 -193h-129l-232 150v84l232 152h129z" />
    <glyph glyph-name="greaterequal" unicode="&#x2265;" horiz-adv-x="436" 
d="M32 -70v70h361v-70h-361zM393 391v-84l-231 -150h-130l295 193l-295 193h130z" />
    <glyph glyph-name="uniF000" unicode="&#xf000;" horiz-adv-x="683" 
d="M395 700q0 -1 11 -29.5t29 -75t41.5 -106t48 -122.5t49 -125t44.5 -112.5t34 -85.5t18 -44h-77q-30 76 -49.5 126.5t-34.5 90t-28.5 74t-31 79t-42 106t-60.5 154.5h-14q-29 -74 -51.5 -132.5t-41.5 -107.5t-36 -93t-34.5 -89t-37.5 -95.5t-44 -112.5h-75q3 9 17 44
t33.5 85.5t44 112.5t49.5 125t48.5 122.5t41.5 106t28.5 75t10.5 29.5h109z" />
    <glyph glyph-name="uniF001" unicode="&#xf001;" horiz-adv-x="721" 
d="M583 350q35 -27 58.5 -68t23.5 -91q0 -39 -15.5 -74t-42 -61t-62 -41t-74.5 -15h-411v384h411q25 0 47 10t38.5 27t26 39t9.5 47q0 26 -9.5 48t-26 38.5t-38.5 26t-47 9.5h-411v71h411q39 0 74.5 -15t62 -41.5t42 -61.5t15.5 -75q0 -50 -23.5 -90.5t-58.5 -66.5zM471 70
q25 0 47 9.5t38.5 26t26 38.5t9.5 47q0 26 -9.5 48t-26 39t-38.5 26.5t-47 9.5h-341v-244h341z" />
    <glyph glyph-name="uniF002" unicode="&#xf002;" horiz-adv-x="768" 
d="M405 702q67 0 124.5 -25.5t100 -69t67 -102.5t24.5 -125v-60q0 -66 -24.5 -125t-67 -102.5t-100 -69t-124.5 -25.5h-336v491h70v-421h266q51 0 96 20t78.5 54.5t52.5 80t19 97.5v60q0 52 -19 97.5t-52.5 80t-78.5 54.5t-96 20h-336v70h336z" />
    <glyph glyph-name="uniF003" unicode="&#xf003;" horiz-adv-x="601" 
d="M583 70v-70h-561v70h561zM22 314v70h495v-70h-495zM583 700v-70h-561v70h561z" />
    <glyph glyph-name="uniF004" unicode="&#xf004;" horiz-adv-x="620" 
d="M541 384v-70h-423v-314h-70v384h493zM607 700v-70h-559v70h559z" />
    <glyph glyph-name="uniF005" unicode="&#xf005;" horiz-adv-x="767" 
d="M368 632q-52 0 -97.5 -20t-79.5 -54.5t-53.5 -80t-19.5 -97.5v-60q0 -52 19.5 -97.5t53.5 -80t79.5 -54.5t97.5 -20h266v316h72v-386h-338q-67 0 -125.5 25.5t-102.5 69t-69.5 102.5t-25.5 125v60q0 66 25.5 125t69.5 102.5t102.5 69t125.5 25.5h338v-70h-338z" />
    <glyph glyph-name="uniF006" unicode="&#xf006;" horiz-adv-x="664" 
d="M250 350l404 -350h-109l-105 89l-245 213l-55 48l289 250l116 100h109zM140 475l-70 -61v286h70v-225zM70 286l70 -61v-225h-70v286z" />
    <glyph glyph-name="uniF007" unicode="&#xf007;" horiz-adv-x="815" 
d="M71 589l70 -119v-470h-70v589zM673 609l-88 -148l-137 -231l-11 -16h-61l-10 16l-156 261l-69 118l-54 91h82l238 -400l239 400h82zM744 589v-589h-71v470z" />
    <glyph glyph-name="uniF008" unicode="&#xf008;" horiz-adv-x="736" 
d="M71 582l70 -100v-482h-70v582zM594 82l57 -82h-87l-252 361l-171 244l-65 95h86l275 -393zM664 700v-595l-70 100v495h70z" />
    <glyph glyph-name="uniF009" unicode="&#xf009;" horiz-adv-x="728" 
d="M459 700q49 0 92 -18.5t75 -50.5t50.5 -74.5t18.5 -90.5q0 -49 -18.5 -91.5t-50.5 -74t-75 -50t-92 -18.5h-339v-232h-70v302h409q34 0 64 13t52 35t35 52t13 64q0 33 -13 63t-35 52.5t-52 35.5t-64 13h-409v70h409z" />
    <glyph glyph-name="uniF00A" unicode="&#xf00a;" horiz-adv-x="819" 
d="M408 700q77 0 144.5 -27.5t118 -75t79.5 -111.5t29 -136q0 -68 -26 -129t-71 -107.5t-106 -76.5t-131 -37v-130h-71v480h71v-277q55 6 103 30t83.5 61t56 84.5t20.5 101.5q0 58 -23.5 109t-64 89t-95.5 60t-117 22q-61 0 -115.5 -22t-95 -60t-64 -89t-23.5 -109
q0 -45 14.5 -86.5t40 -75.5t61 -59.5t78.5 -39.5v-75q-57 16 -105.5 48t-84 76.5t-55 98t-19.5 113.5q0 72 29 136t79 111.5t117 75t143 27.5z" />
    <glyph glyph-name="uniF00B" unicode="&#xf00b;" horiz-adv-x="759" 
d="M719 466q0 -48 -18 -90t-49.5 -74t-73 -50.5t-88.5 -19.5l198 -232h-94l-197 232l-62 70h150q33 0 63 13t52.5 35t35.5 52t13 64q0 33 -13 63t-35.5 52.5t-52.5 35.5t-63 13h-341v-630h-70v700h411q48 0 90.5 -18.5t74.5 -50.5t50.5 -74.5t18.5 -90.5z" />
    <glyph glyph-name="uniF00C" unicode="&#xf00c;" horiz-adv-x="733" 
d="M693 466q0 -48 -18 -90t-48.5 -74t-72 -50.5t-88.5 -19.5l198 -232h-94l-197 232h-253v-232h-70v302h409q34 0 64 13t52 35t35 52t13 64q0 33 -13 63t-35 52.5t-52 35.5t-64 13h-409v70h409q49 0 91.5 -18.5t74 -50.5t50 -74.5t18.5 -90.5z" />
    <glyph glyph-name="uniF00D" unicode="&#xf00d;" horiz-adv-x="654" 
d="M291 -2v554h71v-554h-71zM5 700h643v-70h-643v70z" />
    <glyph glyph-name="uniF00E" unicode="&#xf00e;" horiz-adv-x="690" 
d="M345 50l20 -50h-77l-275 700h77l198 -509zM677 700l-257 -650l-37 98l216 552h78z" />
    <glyph glyph-name="uniF00F" unicode="&#xf00f;" horiz-adv-x="982" 
d="M271 82l25 -82h-75l-202 700h75l127 -445zM680 177l53 -177h-73l-171 580l-143 -498l-36 127l141 491h79zM962 700l-179 -618l-37 127l141 491h75z" />
    <glyph glyph-name="uniF010" unicode="&#xf010;" horiz-adv-x="709" 
d="M399 350l296 -350h-93l-248 295l-457 -552h-93l505 607l-296 350h93l248 -295l248 295h93z" />
    <glyph glyph-name="uniF011" unicode="&#xf011;" horiz-adv-x="709" 
d="M905 -257h-93l-457 552l-248 -295h-93l295 350l-295 350h93l248 -295l248 295h93l-296 -350z" />
    </font>
</defs>
</svg>
