<?xml version="1.0" standalone="no"?>
<!DOCTYPE svg PUBLIC "-//W3C//DTD SVG 1.1//EN" "http://www.w3.org/Graphics/SVG/1.1/DTD/svg11.dtd" >
<svg xmlns="http://www.w3.org/2000/svg" xmlns:xlink="http://www.w3.org/1999/xlink" version="1.1">
<metadata>
Created by FontForge 20170731 at Sat Jul 10 11:45:26 2021
 By Aleksey,,,
Alacrity Sans fonts (c) asenbayu 2020. All Rights Reserved
</metadata>
<defs>
<font id="AlacritySansBlackItalic" horiz-adv-x="669" >
  <font-face 
    font-family="Alacrity Sans Black Italic"
    font-weight="400"
    font-style="italic"
    font-stretch="normal"
    units-per-em="1000"
    panose-1="0 0 0 0 0 0 0 0 0 0"
    ascent="800"
    descent="-200"
    x-height="543"
    cap-height="700"
    bbox="-302 -257 1233 873"
    underline-thickness="50"
    underline-position="-175"
    unicode-range="U+000A-F011"
  />
<missing-glyph horiz-adv-x="527" 
d="M477 700v-700h-427v700h427zM263 371l186 309h-371zM71 650v-601l180 301zM79 21h370l-185 308zM457 47v605l-181 -302z" />
    <glyph glyph-name=".notdef" horiz-adv-x="527" 
d="M477 700v-700h-427v700h427zM263 371l186 309h-371zM71 650v-601l180 301zM79 21h370l-185 308zM457 47v605l-181 -302z" />
    <glyph glyph-name=".null" horiz-adv-x="0" 
 />
    <glyph glyph-name=".null" horiz-adv-x="0" 
 />
    <glyph glyph-name="uni000D" unicode="&#xd;" horiz-adv-x="0" 
 />
    <glyph glyph-name="uni000A" unicode="&#xa;" horiz-adv-x="0" 
 />
    <glyph glyph-name="space" unicode=" " horiz-adv-x="430" 
 />
    <glyph glyph-name="exclam" unicode="!" horiz-adv-x="304" 
d="M113 159q32 0 51 -23.5t12 -55.5q-3 -17 -12.5 -32t-22.5 -25.5t-28.5 -16.5t-31.5 -6q-32 0 -51.5 22.5t-12.5 57.5q7 32 35 55.5t61 23.5zM320 700l-119 -507h-161l86 507h194z" />
    <glyph glyph-name="quotedbl" unicode="&#x22;" horiz-adv-x="415" 
d="M180 700q32 0 50 -23.5t13 -56.5q-5 -18 -8.5 -36.5t-7.5 -37.5q-3 -19 -11.5 -37t-21.5 -31.5t-30.5 -21.5t-38.5 -8h-34l9 54l16 5q17 5 18 13t2 21q-29 4 -44 26.5t-10 52.5q7 33 35 56.5t63 23.5zM375 700q32 0 51.5 -23.5t12.5 -56.5q-5 -18 -9 -36.5t-7 -37.5
t-11.5 -37t-21.5 -31.5t-30.5 -21.5t-38.5 -8h-35l10 54l15 5q17 5 18.5 13t2.5 21q-29 4 -44.5 26.5t-10.5 52.5q7 33 35.5 56.5t62.5 23.5z" />
    <glyph glyph-name="numbersign" unicode="#" horiz-adv-x="907" 
d="M705 395l-45 -113h136l-70 -171h-137l-45 -111h-178l46 111h-114l-45 -111h-175l45 111h-136l73 171h134l45 113h-134l73 173h132l52 132h177l-54 -132h113l55 132h177l-55 -132h139l-73 -173h-136zM530 395h-116l-45 -113h113z" />
    <glyph glyph-name="dollar" unicode="$" horiz-adv-x="730" 
d="M540 414q49 -17 78 -47.5t40 -68t3.5 -78t-31.5 -78t-64 -69t-96 -50.5q-21 -7 -42.5 -11t-44.5 -7l-22 -105h-171l21 107q-34 7 -67 19t-60 30t-45.5 42.5t-23.5 56.5q-2 14 -1.5 28.5t3.5 30.5v4h180q4 -22 18.5 -35.5t34.5 -20.5t43.5 -9.5t44.5 -2.5q26 -2 52.5 2.5
t49.5 15.5q28 11 41.5 24.5t13.5 26.5t-12.5 25t-35.5 19q-38 12 -82.5 17.5t-85.5 12.5q-29 7 -57.5 16t-51.5 23q-29 14 -50 36.5t-30 51t-6 61.5t22 67q26 46 67 75.5t87 46.5q21 7 44 13.5t45 9.5l18 93h173l-18 -95q22 -5 44.5 -12.5t41.5 -19.5q21 -10 35.5 -21
t25.5 -24t19 -29t16 -37l-173 -75q-9 28 -36 44.5t-61 23t-70.5 3t-66.5 -14.5q-16 -5 -25.5 -13t-13.5 -18q-3 -23 46 -37q8 -3 15 -5l14 -4q51 -10 104 -15.5t103 -22.5z" />
    <glyph glyph-name="percent" unicode="%" horiz-adv-x="699" 
d="M177 339q-29 0 -52 10.5t-38 29.5t-21 44t0 54l15 82q6 29 22 54.5t39 45t51 30.5t57 11h15q29 0 53 -11t39.5 -30.5t21.5 -45t0 -54.5l-18 -82q-5 -29 -21 -54t-39 -44t-51 -29.5t-57 -10.5h-16zM156 477q-3 -19 8 -33t31 -14h16q20 0 37.5 14t21.5 33l16 82q5 20 -7 35
t-32 15h-16q-20 0 -37 -15t-22 -35zM677 700l-546 -700h-109l548 700h107zM522 361q29 0 52.5 -11t38.5 -30t21 -45t0 -55l-16 -81q-6 -29 -22 -54.5t-39 -44t-50.5 -29.5t-56.5 -11h-16q-29 0 -52.5 11t-38.5 29.5t-21 44t0 54.5l16 81q6 29 22 55t39 45t50.5 30t56.5 11
h16zM543 220q5 21 -7 35.5t-32 15.5h-16q-20 0 -37.5 -15t-21.5 -36l-16 -81q-5 -21 7 -34.5t32 -13.5h16q20 0 37.5 13.5t21.5 34.5z" />
    <glyph glyph-name="ampersand" unicode="&#x26;" horiz-adv-x="725" 
d="M514 182l125 -184h-207l-47 70q-54 -38 -114 -57t-118 -9q-53 9 -93 43t-48 89q-5 20 -4 43t8 46q20 57 59.5 96.5t90.5 66.5q-3 5 -6 9.5t-5 9.5q-20 39 -19 89.5t30 98.5q35 55 89.5 80t111.5 25q27 0 52 -5t46 -16.5t36 -29.5t22 -45q5 -19 4 -40t-6 -44
q-8 -32 -26 -62t-42 -56q-14 -12 -27.5 -24.5t-29.5 -23.5l39 -59l123 112l90 -103zM235 150q19 2 37.5 10.5t35.5 19.5l-66 95q-21 -12 -35.5 -27.5t-21.5 -38.5q-4 -12 -3.5 -23.5t7.5 -19.5q7 -11 19.5 -14.5t26.5 -1.5zM371 520q5 19 -5 28t-27 9q-14 0 -27.5 -9.5
t-15.5 -24.5q-2 -14 6 -31t19 -31q17 11 32 26.5t18 32.5z" />
    <glyph glyph-name="quotesingle" unicode="'" horiz-adv-x="238" 
d="M191 714q34 0 52 -23.5t11 -55.5q-3 -19 -6.5 -37.5t-7.5 -37.5t-13 -36.5t-21.5 -31t-29.5 -22t-38 -8.5h-36l11 55l14 4q17 5 18.5 12.5t1.5 21.5q-27 4 -43 26.5t-9 53.5q7 32 35 55.5t61 23.5z" />
    <glyph glyph-name="parenleft" unicode="(" horiz-adv-x="570" 
d="M509 700l-4 -23l-9 -7q-132 -89 -202 -201.5t-96 -248.5q-27 -133 -3.5 -246t117.5 -204l6 -6l-2 -21h-179q-45 45 -74 101t-43 118t-13.5 128t14.5 133q14 66 39.5 131.5t64.5 127t90.5 117t116.5 101.5h177z" />
    <glyph glyph-name="parenright" unicode=")" horiz-adv-x="621" 
d="M433 700q45 -46 74 -101.5t42.5 -117t13.5 -127t-14 -131.5q-14 -67 -40 -133t-64.5 -128t-89.5 -118t-115 -101h-180l5 21l9 6q131 91 201.5 204t98.5 246q13 68 14 130t-12.5 118.5t-42 107t-75.5 94.5l-7 7l4 23h178z" />
    <glyph glyph-name="asterisk" unicode="*" horiz-adv-x="449" 
d="M348 514l95 -39l-86 -111l-71 70l-2 -109h-127l38 109l-97 -70l-41 111l109 39l-96 36l87 111l70 -70l5 109h127l-41 -109l100 70l41 -111z" />
    <glyph glyph-name="plus" unicode="+" horiz-adv-x="556" 
d="M538 436l-34 -172h-157l-32 -157h-172l31 157h-156l36 172h157l29 157h173l-32 -157h157z" />
    <glyph glyph-name="comma" unicode="," horiz-adv-x="216" 
d="M68 161q35 0 53 -23.5t11 -55.5q-4 -19 -7 -37.5t-7 -37.5q-3 -19 -11.5 -36.5t-21.5 -31t-30.5 -22t-38.5 -8.5h-34l9 55l16 4q15 5 16.5 12.5t1.5 21.5q-27 4 -42 26.5t-10 53.5q3 16 12.5 30.5t22.5 25t28.5 17t31.5 6.5z" />
    <glyph glyph-name="hyphen" unicode="-" horiz-adv-x="550" 
d="M536 436l-36 -172h-484l34 172h486z" />
    <glyph glyph-name="period" unicode="." horiz-adv-x="214" 
d="M69 161q34 0 52 -22.5t11 -56.5q-2 -16 -11 -30.5t-22 -25.5t-29 -17.5t-33 -6.5q-16 0 -29.5 6.5t-22 17.5t-12 25.5t-0.5 30.5q7 34 35 56.5t61 22.5z" />
    <glyph glyph-name="slash" unicode="/" horiz-adv-x="430" 
d="M477 700l-343 -700h-180l343 700h180z" />
    <glyph glyph-name="zero" unicode="0" horiz-adv-x="650" 
d="M579 255q-10 -53 -39.5 -99.5t-71 -81t-92 -54.5t-103.5 -20h-37q-53 0 -95.5 20t-70.5 54.5t-38.5 81t0.5 99.5l38 188q11 53 40 99.5t71 81.5t92.5 55.5t103.5 20.5h39q52 0 94 -20.5t70 -55.5t38.5 -81.5t-0.5 -99.5zM445 443q9 36 -11 60t-55 24h-36q-36 0 -64.5 -24
t-35.5 -60l-39 -188q-7 -35 12.5 -60t53.5 -25h39q17 0 33.5 7t30 18.5t23.5 27t13 32.5z" />
    <glyph glyph-name="one" unicode="1" horiz-adv-x="393" 
d="M401 700l-48 -241l-93 -459h-173l103 505l-96 -23l-9 166l205 52h111z" />
    <glyph glyph-name="two" unicode="2" horiz-adv-x="645" 
d="M5 130q5 22 12 40q12 35 32.5 65t46.5 54q42 39 95 62.5t108 23.5h54h12q27 5 48.5 25t26.5 48l2 7q5 29 -11.5 50.5t-47.5 21.5h-52q-26 0 -49 -16.5t-33 -40.5h-175q13 48 42 90t68.5 73t86 49t94.5 18h54q50 0 91 -19.5t67.5 -53t37 -78t-0.5 -94.5l-2 -7
q-8 -47 -32 -87t-59 -72q-42 -39 -91 -62q-56 -25 -113 -25h-52q-39 0 -66 -32h359l-37 -170h-543z" />
    <glyph glyph-name="three" unicode="3" horiz-adv-x="616" 
d="M188 171h130q19 0 35 14t19 33q4 19 -6.5 32.5t-29.5 13.5h-223l34 172h194q17 0 34 13.5t20 32.5q4 19 -6.5 32t-29.5 13h-273l36 173h271q45 0 82 -14.5t61 -41t33.5 -63.5t0.5 -81q-3 -15 -13 -34t-25 -37.5t-33 -34.5t-36 -24q21 -2 38 -18t28.5 -38.5t15.5 -48
t0 -47.5q-9 -45 -34.5 -84.5t-61.5 -69.5t-79.5 -47t-88.5 -17h-302l37 170h172v1z" />
    <glyph glyph-name="four" unicode="4" horiz-adv-x="648" 
d="M0 164v4l37 175l352 357h230l-73 -366h54l-36 -170h-54l-32 -164h-173l32 164h-337zM246 334h127l32 159z" />
    <glyph glyph-name="five" unicode="5" horiz-adv-x="622" 
d="M253 171h54q26 0 47 18.5t26 44.5l4 14q5 26 -9.5 43.5t-40.5 17.5h-54q-17 0 -32 -7.5t-27 -19.5l-14 2l-145 41l-16 5l104 370h453l-37 -173h-291l-15 -52q25 7 54 7h55q48 0 87 -18.5t64.5 -50t35.5 -74.5t1 -91l-4 -14q-9 -48 -36.5 -91t-65.5 -74.5t-85 -50
t-95 -18.5h-55q-43 0 -79.5 15t-62 42t-38.5 63.5t-11 79.5h180q7 -14 19 -22t29 -8v1z" />
    <glyph glyph-name="six" unicode="6" horiz-adv-x="605" 
d="M360 443q20 7 41.5 7t41 -4.5t36 -13.5t26.5 -21q26 -29 36.5 -71t2.5 -87l-7 -33q-9 -46 -35 -86t-62 -70t-80 -47t-89 -17h-82q-45 0 -81.5 17t-60.5 47t-33 70t0 86l5 33q7 32 23 62t36 55q5 4 8.5 8.5t6.5 7.5l294 314h214zM371 253q4 18 -8 32.5t-31 14.5h-82
q-10 0 -20 -4.5t-18 -11.5l-10 -9q-3 -5 -6 -11t-5 -11l-4 -33q-5 -20 6.5 -34.5t32.5 -14.5h79q20 0 38 14.5t21 34.5z" />
    <glyph glyph-name="seven" unicode="7" horiz-adv-x="564" 
d="M104 700h495l-34 -173h-2l-355 -527h-191l357 527h-307z" />
    <glyph glyph-name="eight" unicode="8" horiz-adv-x="652" 
d="M250 275q-20 0 -37.5 -15t-21.5 -37q-5 -21 7 -37t34 -16h116q20 0 39 16t23 37q5 22 -7 37t-32 15h-121zM198 0q-47 0 -84.5 17.5t-61.5 48t-33 71t0 86.5q4 23 16.5 47t31 45.5t41 38t47.5 23.5q-29 21 -41 55.5t-4 65.5q8 44 32 81t58 64t75.5 42t84.5 15h75
q43 0 78 -15t58.5 -42t32 -64t-0.5 -81q-7 -31 -32.5 -65.5t-63.5 -55.5q22 -7 38 -23.5t26 -38t13 -45.5t-2 -47q-9 -46 -35 -86.5t-62.5 -71t-81 -48t-91.5 -17.5h-114zM323 527q-17 0 -30.5 -12t-17.5 -29q-3 -14 4 -24.5t19 -13.5h87h9q14 3 24.5 13.5t13.5 24.5
q4 17 -5.5 29t-26.5 12h-77z" />
    <glyph glyph-name="nine" unicode="9" horiz-adv-x="603" 
d="M415 700q45 0 81.5 -17.5t60.5 -47.5t34 -70.5t1 -85.5l-7 -32q-7 -32 -21.5 -61.5t-37.5 -55.5q-4 -5 -8 -9.5t-8 -9.5l-293 -311h-214l243 257q-21 -7 -43 -7.5t-41.5 4t-36 13t-26.5 19.5q-26 31 -36.5 72t0.5 89l6 32q9 45 34 85.5t61 70.5t80 47.5t89 17.5h82z
M419 479q4 19 -7.5 34t-30.5 15h-82q-20 0 -37 -15t-22 -34l-5 -32q-5 -20 6.5 -33.5t31.5 -13.5h81q10 0 20.5 4t17.5 12l9 7q4 5 7 11.5t4 12.5z" />
    <glyph glyph-name="colon" unicode=":" horiz-adv-x="243" 
d="M83 159q16 0 29.5 -6.5t22 -17t12 -25t0.5 -30.5q-7 -35 -35 -57.5t-61 -22.5q-34 0 -52 22.5t-13 57.5q7 32 35 55.5t62 23.5zM167 570q33 0 51 -22.5t13 -56.5q-3 -16 -12.5 -30.5t-22.5 -25.5t-29.5 -17.5t-33.5 -6.5q-16 0 -29 6.5t-22 17.5t-12 25.5t0 30.5
q7 34 35 56.5t62 22.5z" />
    <glyph glyph-name="semicolon" unicode=";" horiz-adv-x="242" 
d="M81 159q32 0 51.5 -23.5t12.5 -58.5q-4 -17 -7 -35t-7 -37t-13 -36.5t-22 -31t-30 -22t-37 -8.5h-37l12 54l13 5q17 5 19 12.5t2 21.5q-28 4 -43.5 26t-8.5 51q3 17 12.5 32t22.5 26t28.5 17.5t31.5 6.5zM165 570q32 0 51.5 -22.5t12.5 -56.5q-3 -16 -12.5 -30.5
t-22.5 -25.5t-28.5 -17.5t-32.5 -6.5q-34 0 -52 24t-11 56q3 17 12.5 31.5t22.5 25t28.5 16.5t31.5 6z" />
    <glyph glyph-name="less" unicode="&#x3c;" horiz-adv-x="583" 
d="M265 350l257 -193h-316l-186 138l23 107l243 141h314z" />
    <glyph glyph-name="equal" unicode="=" horiz-adv-x="565" 
d="M559 559l-34 -173h-469l37 173h466zM43 314h466l-34 -173h-469z" />
    <glyph glyph-name="greater" unicode="&#x3e;" horiz-adv-x="585" 
d="M563 402l-20 -107l-244 -138h-315l336 193l-259 193h316z" />
    <glyph glyph-name="question" unicode="?" horiz-adv-x="577" 
d="M247 159q17 0 30 -6.5t22 -17t12 -25t0 -30.5q-3 -17 -12.5 -32t-22.5 -25.5t-28.5 -16.5t-31.5 -6q-35 0 -53 22.5t-11 57.5q3 16 12.5 30.5t22.5 25t28.5 17t31.5 6.5zM175 216q-3 -13 -1.5 -6t3.5 16l-1 -7q-1 -1 -1 -3zM177 227q2 11 2 8.5t-2 -9.5v1zM361 700
q42 0 79 -10.5t65.5 -31t46.5 -51.5t20 -73q4 -60 -25.5 -116t-80.5 -98q-17 -15 -35.5 -26t-37.5 -21q-9 -5 -21.5 -13.5t-19.5 -18.5q-7 -7 -7 -16l-7 -25h-166l4 19q14 64 60 110.5t105 77.5q34 17 48.5 41t12 45.5t-21 36t-51.5 11.5q-43 -2 -73 -27.5t-38 -68.5l-7 -27
h-166l5 27q12 58 40.5 105t69.5 80.5t92.5 51.5t108.5 18z" />
    <glyph glyph-name="at" unicode="@" horiz-adv-x="1046" 
d="M987 398q5 -51 -2 -114t-28.5 -125.5t-58.5 -117t-92 -89.5q-40 -23 -84 -30.5t-80 8.5q-36 14 -55.5 41t-24.5 63q-32 -19 -70 -28.5t-73 -9.5h-23q-51 0 -90 25q-26 17 -42.5 41.5t-24 53t-6 60.5t10.5 63q11 39 32 76.5t51 69t67 55t78 33.5q14 3 27 5t27 2h39.5
t41 -2t39 -7t32.5 -14q16 -11 26.5 -25.5t21.5 -31.5q14 -24 17 -53t1 -58q-3 -38 -9.5 -74t-15.5 -72q-1 -6 -2 -18t-0.5 -24.5t3.5 -22t11 -10.5q8 0 17 8t14 15q25 36 41.5 79t23.5 88.5t3.5 89.5t-18.5 80.5t-43 63.5t-70 38q-45 12 -87.5 10.5t-90.5 -1.5
q-52 0 -101 -18.5t-91.5 -49.5t-76 -72.5t-53.5 -87.5q-14 -32 -24 -70.5t-13.5 -78.5t2 -79t23.5 -72q26 -41 69.5 -63.5t94.5 -27.5q56 -3 111 0q28 2 56 4.5t56 9.5l27 7l-7 -127l-16 -7q-25 -12 -55.5 -19t-61.5 -10t-61 -4t-56 -1q-66 0 -127 20t-107 59
q-45 36 -72.5 84.5t-34.5 108.5q-8 72 9 151.5t54 155.5t92 143.5t123 115.5q61 45 127.5 67t135.5 22q57 0 116 -1t114 -15q50 -13 87.5 -40.5t64 -65t42 -83.5t19.5 -97zM603 250q6 21 3 39.5t-13 32.5t-26 22t-36 8q-21 0 -42.5 -8t-40 -22.5t-32.5 -33.5t-20 -40l-4 -23
q-12 -43 9.5 -72.5t63.5 -29.5q21 0 42.5 8t39.5 22.5t31 33.5t18 40z" />
    <glyph glyph-name="A" unicode="A" horiz-adv-x="729" 
d="M657 0h-184l-25 130h-250l-77 -130h-187l416 700h175zM387 450l-87 -148h116z" />
    <glyph glyph-name="B" unicode="B" horiz-adv-x="749" 
d="M453 170q19 0 35 14.5t19 33.5q4 19 -6.5 32.5t-29.5 13.5h-255l-18 -94h255zM505 436q19 0 35.5 13.5t21.5 32.5q3 19 -8.5 32t-30.5 13h-252l-18 -91h252zM732 482q-14 -76 -70 -132q15 -27 20 -61.5t-2 -70.5q-9 -45 -34.5 -84.5t-61.5 -69.5t-79.5 -47t-88.5 -17
h-425l53 264l36 172l52 264h427q45 0 81.5 -17t60 -47t32 -69.5t-0.5 -84.5z" />
    <glyph glyph-name="C" unicode="C" horiz-adv-x="772" 
d="M581 461q-19 38 -56 61t-87 23q-41 0 -80 -15.5t-71 -42t-54.5 -62t-31.5 -75.5q-8 -41 0 -77t29.5 -63t54 -42.5t73.5 -15.5q50 0 97 23.5t83 63.5h188q-28 -52 -69.5 -96t-91.5 -75.5t-106.5 -49.5t-114.5 -18h-36q-72 0 -130.5 27.5t-96.5 75t-52.5 111.5t-0.5 136
q15 72 55.5 135.5t98 111t126.5 75.5t141 28h39q57 0 105.5 -18t85.5 -49.5t61 -75.5t32 -96h-191z" />
    <glyph glyph-name="D" unicode="D" horiz-adv-x="768" 
d="M483 702q67 0 120.5 -25.5t88.5 -69t48.5 -102.5t-0.5 -125l-11 -60q-14 -66 -51.5 -125t-90.5 -102.5t-117 -69t-130 -25.5h-350l143 704h350zM377 170q30 0 59.5 11.5t54 32t42 48t23.5 58.5l11 60q7 30 1 57.5t-22 48t-41 32.5t-56 12h-179l-73 -360h180z" />
    <glyph glyph-name="E" unicode="E" horiz-adv-x="665" 
d="M271 527l-18 -91h320l-34 -172h-323l-18 -94h389l-37 -170h-559q36 175 70.5 349t70.5 351h562l-37 -173h-386z" />
    <glyph glyph-name="F" unicode="F" horiz-adv-x="644" 
d="M271 527l-18 -91h320l-34 -172h-323l-52 -264h-173q36 175 70.5 349t70.5 351h561l-36 -173h-386v0z" />
    <glyph glyph-name="G" unicode="G" horiz-adv-x="778" 
d="M791 702l-37 -172h-361q-31 0 -60.5 -12t-54 -32.5t-41.5 -48t-23 -57.5l-14 -59q-6 -32 0.5 -59.5t23 -48t41.5 -32t55 -11.5h189l20 94h-170l34 172h343l-88 -438h-364q-66 0 -119.5 25.5t-88 69t-48.5 102.5t-1 125l14 60q13 66 50 125t89.5 102.5t116.5 69t130 25.5
h364z" />
    <glyph glyph-name="H" unicode="H" horiz-adv-x="742" 
d="M580 700h173l-143 -700h-171l52 264h-275l-52 -264h-173l141 700h173l-52 -264h275z" />
    <glyph glyph-name="I" unicode="I" horiz-adv-x="295" 
d="M132 700h173l-141 -700h-173z" />
    <glyph glyph-name="J" unicode="J" horiz-adv-x="619" 
d="M150 171h137q29 0 54 21.5t32 50.5l57 284l34 173h173l-91 -457q-10 -50 -38.5 -94.5t-68 -77.5t-88 -52t-98.5 -19h-312l37 170h172v1z" />
    <glyph glyph-name="K" unicode="K" horiz-adv-x="716" 
d="M132 700h173l-71 -350l332 350h214l-332 -352l189 -348h-216l-187 346l-70 -346h-173z" />
    <glyph glyph-name="L" unicode="L" horiz-adv-x="628" 
d="M132 700h173l-107 -530h382l-36 -170h-553z" />
    <glyph glyph-name="M" unicode="M" horiz-adv-x="857" 
d="M867 700l-143 -700h-170l91 452l-125 -154l-68 -84h-100l-34 84l-62 154l-93 -452h-173l143 700h223l96 -236l193 236h222z" />
    <glyph glyph-name="N" unicode="N" horiz-adv-x="819" 
d="M348 700l218 -441l89 441h173l-139 -686l7 -14h-212l-227 459l-95 -459h-171l141 700h216z" />
    <glyph glyph-name="O" unicode="O" horiz-adv-x="796" 
d="M488 700q72 0 130.5 -28t96 -75.5t52.5 -111t0 -135.5t-55.5 -136t-98 -111.5t-127 -75t-142.5 -27.5h-36q-72 0 -130.5 27.5t-96.5 75t-52.5 111.5t-0.5 136q15 72 55.5 135.5t98 111t126.5 75.5t141 28h39zM594 350q9 40 1 75.5t-29.5 62t-54 42t-73.5 15.5t-80 -15.5
t-71 -42t-54.5 -62t-31.5 -75.5q-8 -41 0 -77t29.5 -63t54 -42.5t73.5 -15.5q40 0 79 15.5t71 42.5t55 63t31 77z" />
    <glyph glyph-name="P" unicode="P" horiz-adv-x="727" 
d="M447 232h-237l-47 -232h-173l48 232l34 170l59 298h411q49 0 88 -18.5t64.5 -50.5t35 -74.5t-0.5 -90.5q-9 -49 -36.5 -91.5t-65.5 -74t-85 -50t-95 -18.5v0zM481 402q26 0 48 19t27 45t-9.5 43.5t-40.5 17.5h-236l-25 -125h236z" />
    <glyph glyph-name="Q" unicode="Q" horiz-adv-x="822" 
d="M488 700q72 0 130.5 -28t96 -75.5t52.5 -111t0 -135.5q-11 -61 -42 -115t-74 -99l82 -136h-223l-18 30q-34 -16 -71 -23t-74 -7h-39q-72 0 -130.5 27.5t-96.5 75t-52.5 111.5t-0.5 136q15 72 55.5 135.5t98 111t127.5 75.5t142 28h37zM594 350q9 40 1 75.5t-29.5 62
t-54.5 42t-74 15.5q-40 0 -78.5 -15.5t-70.5 -42t-55 -62t-31 -75.5q-9 -41 -1 -77t29.5 -63t54.5 -42.5t73 -15.5q29 0 54 9l-43 71l157 109l39 -66q10 17 18 36t11 39z" />
    <glyph glyph-name="R" unicode="R" horiz-adv-x="738" 
d="M635 0h-204l-105 232h-116l-47 -232h-173l48 232l34 170l61 298h409q49 0 88 -18.5t64.5 -50.5t35 -74.5t-0.5 -90.5q-8 -38 -27 -73t-46 -64.5t-60 -51.5t-70 -34zM483 402q24 0 46 19t27 45t-9.5 43.5t-38.5 17.5h-239l-25 -125h239z" />
    <glyph glyph-name="S" unicode="S" horiz-adv-x="704" 
d="M518 473q-9 28 -36 44.5t-61 23t-70.5 3.5t-66.5 -14q-14 -5 -24.5 -13.5t-12.5 -18.5q-3 -11 8.5 -20.5t35.5 -16.5q8 -3 16 -5l16 -4q51 -10 102.5 -15.5t101.5 -22.5q49 -17 78.5 -47.5t40 -68t3 -78t-31.5 -78t-64 -69t-96 -50.5q-40 -14 -86.5 -18.5t-84.5 -4.5
q-42 0 -88.5 8t-87.5 26.5t-70.5 48t-37.5 72.5q-2 14 -1.5 28.5t3.5 30.5l3 4h177q4 -22 18.5 -35.5t34.5 -20.5t43.5 -9.5t44.5 -2.5q26 -2 52.5 3t49.5 15q56 23 54.5 51.5t-47.5 44.5q-38 12 -82.5 17t-85.5 12q-29 7 -57.5 16t-52.5 23q-29 14 -49.5 36.5t-29.5 51
t-6 61.5t22 67q26 46 67 76t87 47q40 14 82 21.5t80 7.5q46 0 96 -9t92 -32q40 -20 60.5 -44t33.5 -67z" />
    <glyph glyph-name="T" unicode="T" 
d="M84 700h644l-35 -173h-236l-107 -527h-172l106 527h-236z" />
    <glyph glyph-name="U" unicode="U" horiz-adv-x="735" 
d="M118 700h173l-37 -173l-40 -206q-6 -31 0 -58.5t22 -48t40.5 -32.5t55.5 -12q30 0 59 12t53 32.5t41.5 48t23.5 58.5l41 206l36 173h173l-77 -379q-14 -67 -51 -125.5t-89.5 -102t-116 -68.5t-130.5 -25q-66 0 -119 25t-87.5 68.5t-48 102t0.5 125.5z" />
    <glyph glyph-name="V" unicode="V" horiz-adv-x="779" 
d="M847 700l-418 -700h-221l-134 700h186l96 -511l304 511h187z" />
    <glyph glyph-name="W" unicode="W" horiz-adv-x="1054" 
d="M259 700l41 -461l207 461h182l20 -461l228 461h179l-345 -700h-230l-13 348l-157 -348h-230l-61 700h179z" />
    <glyph glyph-name="X" unicode="X" horiz-adv-x="757" 
d="M296 700l112 -207l197 207h216l-334 -350l191 -350h-213l-114 207l-198 -207h-216l334 350l-191 350h216z" />
    <glyph glyph-name="Y" unicode="Y" horiz-adv-x="706" 
d="M367 0h-173l25 116l39 198l-11 25l-180 361h211l103 -211l188 211h212l-325 -361l-25 -28l-39 -193z" />
    <glyph glyph-name="Z" unicode="Z" horiz-adv-x="696" 
d="M110 700h616l-36 -184l-443 -346h372l-34 -170h-616l37 182l443 345h-373z" />
    <glyph glyph-name="bracketleft" unicode="[" horiz-adv-x="372" 
d="M413 700l-25 -125h-107l-143 -707h107l-25 -125h-280l193 957h280z" />
    <glyph glyph-name="backslash" unicode="\" horiz-adv-x="431" 
d="M336 0h-180l-59 700h179z" />
    <glyph glyph-name="bracketright" unicode="]" horiz-adv-x="371" 
d="M381 700l-193 -957h-280l25 125h107l143 707h-107l25 125h280z" />
    <glyph glyph-name="asciicircum" unicode="^" horiz-adv-x="469" 
d="M467 541l-48 -234l-148 220l-238 -220l47 234l173 159h104z" />
    <glyph glyph-name="underscore" unicode="_" horiz-adv-x="755" 
d="M694 0l-34 -173h-600l34 173h600z" />
    <glyph glyph-name="grave" unicode="`" horiz-adv-x="242" 
d="M250 559h-93l-57 141h127z" />
    <glyph glyph-name="a" unicode="a" 
d="M496 543h172l-111 -543h-173l12 48q-36 -23 -73.5 -35.5t-76.5 -12.5h-25q-51 0 -91 21t-65.5 57.5t-34.5 86t2 105.5t40 106t69.5 87t89.5 58.5t99 21.5h25q79 0 129 -50zM207 257q-8 -45 16.5 -76t69.5 -31q22 0 43.5 8.5t39 23t30.5 34t17 41.5l4 29q5 21 1 40.5
t-15.5 34.5t-29.5 23.5t-40 8.5t-43.5 -8.5t-39 -23.5t-30 -34.5t-16.5 -40.5z" />
    <glyph glyph-name="b" unicode="b" horiz-adv-x="670" 
d="M275 493q34 24 72 37t78 13h25q50 0 90 -21.5t65.5 -58.5t34.5 -87t-2 -106t-40 -105.5t-69.5 -86t-89 -57.5t-98.5 -21h-28q-38 0 -70.5 12.5t-56.5 35.5l-11 -48h-173l159 786h173zM463 286q5 21 0 40.5t-16.5 34.5t-29.5 23.5t-40 8.5t-43.5 -8.5t-39 -23.5t-30 -34.5
t-16.5 -40.5l-7 -29q-9 -45 16 -76t70 -31q22 0 43.5 8.5t39 23t30.5 34t17 41.5z" />
    <glyph glyph-name="c" unicode="c" horiz-adv-x="622" 
d="M357 543h28q48 0 87.5 -15.5t68.5 -43t46 -65t20 -80.5h-179q-9 26 -31.5 41t-55.5 15q-24 0 -46.5 -9t-41 -24t-31.5 -35.5t-17 -44.5l-5 -23q-5 -23 0 -43.5t17 -36.5t31 -25t43 -9q31 0 60.5 17t48.5 43h180q-21 -45 -53.5 -82.5t-73 -64.5t-86 -42.5t-92.5 -15.5h-29
q-55 0 -100 21t-74.5 57.5t-41 86t-0.5 105.5t42.5 106t76 87t98.5 58.5t110 21.5z" />
    <glyph glyph-name="d" unicode="d" horiz-adv-x="670" 
d="M546 786h172l-161 -786h-171l9 48q-34 -23 -72 -35.5t-78 -12.5h-25q-50 0 -90 21t-65.5 57.5t-34.5 86t2 105.5q12 56 41.5 106t70 87t89 58.5t97.5 21.5h27q76 0 129 -50zM209 257q-5 -22 -0.5 -41.5t16.5 -34t29.5 -23t38.5 -8.5q22 0 43.5 8.5t39.5 23t30.5 34
t16.5 41.5l7 29q4 21 -0.5 40.5t-16.5 34.5t-30 23.5t-40 8.5t-43 -8.5t-38.5 -23.5t-30 -34.5t-17.5 -40.5z" />
    <glyph glyph-name="e" unicode="e" horiz-adv-x="633" 
d="M201 214q7 -29 31 -49t59 -20q17 0 35 6.5t34 14.5h200q-23 -37 -55 -67.5t-69 -52.5t-77.5 -34t-82.5 -12h-30q-55 0 -100 21t-74.5 57.5t-41 86t-0.5 105.5t42.5 106t76 87t98.5 58.5t110 21.5h28q56 0 101.5 -21.5t75 -58.5t41 -87t0.5 -106q-4 -14 -8.5 -28t-9.5 -28
h-384zM432 327q-7 31 -31.5 49.5t-59.5 18.5q-34 0 -66.5 -18.5t-51.5 -49.5h209z" />
    <glyph glyph-name="f" unicode="f" horiz-adv-x="376" 
d="M100 361h-46l34 173h48l12 64q8 38 30.5 72.5t53.5 60t68.5 40.5t76.5 15h116l-34 -172h-118q-16 0 -21 -16l-11 -64h95l-36 -173h-95l-73 -361h-173z" />
    <glyph glyph-name="g" unicode="g" 
d="M562 23q-8 -44 -29 -83.5t-51 -73t-67 -59.5t-78 -41q-27 -12 -55.5 -17.5t-55.5 -5.5h-20q-49 0 -89.5 15.5t-70.5 43.5t-48.5 66t-21.5 82h193q11 -16 29.5 -25t41.5 -9h20q22 0 43.5 8.5t39 23t30.5 34t17 41.5l4 25q-34 -23 -72 -35.5t-76 -12.5h-27q-49 0 -89 21
t-65.5 57.5t-34.5 86t3 105.5q11 56 40 106t69.5 87t89 58.5t99.5 21.5h25q76 0 129 -50l9 50h173zM208 257q-9 -45 16 -76t70 -31q22 0 43 8.5t38.5 23t30.5 34t18 41.5l4 29q5 21 0 40.5t-16.5 34.5t-29.5 23.5t-40 8.5q-21 0 -42 -8.5t-38.5 -23.5t-30 -34.5t-16.5 -40.5
z" />
    <glyph glyph-name="h" unicode="h" horiz-adv-x="637" 
d="M272 489q40 32 75 43t71 11q45 0 82 -21.5t61.5 -58.5t33.5 -87t-2 -106q-14 -68 -28.5 -134.5t-28.5 -135.5h-173l50 245q5 20 2 39.5t-12 35.5t-25 25.5t-37 9.5t-40.5 -9.5t-35.5 -25.5t-27 -35.5t-15 -39.5l-48 -245h-173l159 786h171z" />
    <glyph glyph-name="i" unicode="i" horiz-adv-x="288" 
d="M112 543h173l-109 -543h-173zM249 786q23 0 41 -8.5t30 -23.5t17 -35t0 -42q-5 -23 -18 -43t-31 -35t-40 -24t-45 -9q-22 0 -40 9t-29.5 24t-16 35t-0.5 43q4 22 16.5 42t30.5 35t40 23.5t45 8.5z" />
    <glyph glyph-name="j" unicode="j" horiz-adv-x="292" 
d="M116 543h172l-122 -611q-9 -38 -31 -72.5t-53 -60.5t-69 -41t-77 -15h-109l37 173h109q16 0 20 16zM252 786q22 0 40 -8.5t30 -23.5t16.5 -35t-0.5 -42q-4 -23 -16.5 -43t-30.5 -35t-39.5 -24t-44.5 -9q-22 0 -40 9t-30 24t-17 35t0 43q5 22 17.5 42t30.5 35t39.5 23.5
t44.5 8.5z" />
    <glyph glyph-name="k" unicode="k" horiz-adv-x="619" 
d="M161 786h168l-104 -513l68 -153l57 -120h200l-125 273l234 270h-200l-102 -118l-132 -152l-55 -273h-168z" />
    <glyph glyph-name="l" unicode="l" horiz-adv-x="288" 
d="M161 786h173l-159 -786h-173z" />
    <glyph glyph-name="m" unicode="m" horiz-adv-x="970" 
d="M748 245q4 20 1 39.5t-12 35.5t-25 25.5t-37 9.5t-38 -8.5t-30 -23t-22.5 -32.5t-14.5 -37q-2 -2 -2 -9l-50 -245h-173l50 245q8 41 0.5 65.5t-24.5 35t-39.5 8t-44 -16.5t-39 -37.5t-23.5 -54.5l-50 -245h-173l111 543h171l-11 -54q44 35 89.5 46t84.5 2.5t68.5 -35
t41.5 -66.5q17 21 36.5 40.5t43 34.5t52 23.5t63.5 8.5q45 0 82 -21.5t61.5 -58.5t33 -87t-3.5 -106l-55 -270h-172z" />
    <glyph glyph-name="n" unicode="n" horiz-adv-x="638" 
d="M274 489q39 32 75 43t70 11q46 0 83.5 -21.5t61.5 -58.5t32.5 -87t-2.5 -106q-14 -68 -28.5 -134.5t-28.5 -135.5h-170l47 245q5 20 2 39.5t-12 35.5t-25 25.5t-37 9.5t-40.5 -9.5t-35.5 -25.5t-26.5 -35.5t-13.5 -39.5l-50 -245h-173l109 543h173z" />
    <glyph glyph-name="o" unicode="o" horiz-adv-x="634" 
d="M248 0q-56 0 -101.5 21t-75 57.5t-41 86t-0.5 105.5t42.5 106t76 87t98.5 58.5t110 21.5h28q56 0 101.5 -21.5t75 -58.5t41 -87t0.5 -106t-42.5 -105.5t-76.5 -86t-99 -57.5t-110 -21h-27zM341 391q-24 0 -46.5 -9.5t-41 -26t-32 -38.5t-18.5 -47q-5 -24 -0.5 -45
t16.5 -37.5t30.5 -26t41.5 -9.5q24 0 47 9.5t41.5 26t32 37.5t18.5 45q5 25 0.5 47t-16.5 38.5t-31 26t-42 9.5z" />
    <glyph glyph-name="p" unicode="p" horiz-adv-x="671" 
d="M123 -257h-171l162 800h172l-11 -50q34 24 72.5 37t77.5 13h25q50 0 90 -21.5t65.5 -58.5t35 -87t-1.5 -106t-40 -105.5t-69.5 -86t-89.5 -57.5t-99 -21h-27q-38 0 -71 12.5t-57 35.5zM464 286q4 21 -0.5 40.5t-16.5 34.5t-30 23.5t-40 8.5t-43.5 -8.5t-39 -23.5
t-30 -34.5t-16.5 -40.5l-7 -29q-9 -45 16 -76t70 -31q22 0 43.5 8.5t39 23t30.5 34t17 41.5z" />
    <glyph glyph-name="q" unicode="q" 
d="M396 48q-36 -23 -73.5 -35.5t-76.5 -12.5h-27q-49 0 -89 21t-65.5 57.5t-34.5 86t3 105.5q11 56 40 106t69.5 87t89 58.5t98.5 21.5h25q80 0 130 -50l11 50h171l-162 -800h-172zM208 257q-9 -45 16 -76t70 -31q22 0 43 8.5t38.5 23t30.5 34t18 41.5l4 29q5 21 0.5 40.5
t-16 34.5t-29.5 23.5t-39 8.5q-22 0 -43.5 -8.5t-39 -23.5t-30 -34.5t-17.5 -40.5z" />
    <glyph glyph-name="r" unicode="r" horiz-adv-x="456" 
d="M114 543h166l-12 -59q13 11 30.5 22t37.5 19t41.5 13t40.5 5h73l-37 -175l-25 9q-24 9 -54 7t-58.5 -13t-52 -31.5t-35.5 -48.5l-59 -291h-168z" />
    <glyph glyph-name="s" unicode="s" horiz-adv-x="567" 
d="M306 170q-27 9 -60 19.5t-64.5 24t-58.5 30.5t-42 38q-12 19 -17.5 43.5t1.5 51.5q5 22 18 43.5t31.5 40t42 34t49.5 25.5q31 11 62.5 17t62.5 6t62.5 -4.5t60 -15.5t52.5 -28t39 -43l-116 -102q-11 15 -29 26.5t-39 19t-42.5 11t-39.5 2.5q-13 -1 -21.5 -3.5t-11.5 -6.5
t1.5 -8.5t17.5 -8.5q26 -11 69 -25t86 -37q23 -12 43 -26t34 -32t20 -40t1 -49q-11 -47 -49.5 -89.5t-105.5 -65.5q-31 -12 -65 -15t-64 -3q-47 0 -87.5 10t-71 29.5t-48.5 47.5t-21 65l164 32q12 -24 39 -38t56 -14q9 -2 18.5 -1t20.5 3q29 8 27 18.5t-25 17.5z" />
    <glyph glyph-name="t" unicode="t" horiz-adv-x="444" 
d="M110 420h-54l25 123h54l32 157h173l-32 -157h132l-23 -123h-134l-41 -202q-7 -34 2 -50t44 -16h102l-32 -152h-145q-14 0 -27.5 3t-25.5 8q-29 11 -51.5 32t-34.5 50q-11 28 -11 57q-2 14 -0.5 27.5t4.5 27.5z" />
    <glyph glyph-name="u" unicode="u" horiz-adv-x="611" 
d="M340 52q-41 -31 -74.5 -41.5t-68.5 -10.5q-45 0 -79 21t-54 57.5t-25.5 86t5.5 105.5q16 69 29.5 136.5t27.5 136.5h173l-50 -245q-4 -21 -3.5 -40.5t7 -34.5t20.5 -24.5t35 -9.5t38.5 9.5t31 24.5t22.5 34.5t13 40.5l50 245h172l-111 -543h-171z" />
    <glyph glyph-name="v" unicode="v" horiz-adv-x="639" 
d="M244 543l59 -345l202 345h180l-318 -543h-207l-95 543h179z" />
    <glyph glyph-name="w" unicode="w" horiz-adv-x="852" 
d="M566 543l23 -263l127 263h180l-291 -543h-157l-20 275l-134 -275h-157l-70 543h179l21 -263l129 263h170z" />
    <glyph glyph-name="x" unicode="x" horiz-adv-x="625" 
d="M668 543l-252 -273l141 -270h-207l-66 127l-118 -127h-207l250 270l-141 273h207l68 -129l118 129h207z" />
    <glyph glyph-name="y" unicode="y" horiz-adv-x="639" 
d="M244 543l59 -345l202 345h180l-318 -543l-148 -257h-179l127 218l-102 582h179z" />
    <glyph glyph-name="z" unicode="z" horiz-adv-x="571" 
d="M66 370l36 173h478l-34 -170l-3 -3l-259 -200h221l-37 -170h-477l34 170h2l260 200h-221z" />
    <glyph glyph-name="braceleft" unicode="{" horiz-adv-x="373" 
d="M295 700h125l-7 -30q-24 -13 -43.5 -26t-34.5 -29.5t-25.5 -37.5t-16.5 -48q-9 -32 -14.5 -56.5t-10 -47.5t-9 -47.5t-11.5 -57.5q-5 -27 -29 -55t-51 -45q20 -17 32 -43.5t7 -53.5q-6 -33 -11.5 -57.5t-10 -48t-9 -48.5t-8.5 -58q-10 -53 8.5 -84t57.5 -54l-7 -30h-127
q-38 29 -64 71.5t-18 96.5q5 33 10 59t10 50.5t10.5 51t12.5 60.5q5 26 -7.5 36t-33.5 14l-16 2l16 75l16 2q20 4 38.5 14t23.5 36q7 34 12 60t10 50.5t10.5 50.5t12.5 60q7 27 22 51.5t35.5 45.5t45 38.5t49.5 32.5v0z" />
    <glyph glyph-name="bar" unicode="|" horiz-adv-x="297" 
d="M306 700l-193 -957h-173l193 957h173z" />
    <glyph glyph-name="braceright" unicode="}" horiz-adv-x="374" 
d="M317 259l-14 -75l-15 -2q-23 -3 -41 -13.5t-23 -36.5q-7 -34 -11.5 -60.5t-9.5 -51t-10.5 -50t-14.5 -58.5q-14 -55 -57 -97.5t-93 -71.5h-127l7 30q48 24 78.5 54.5t41.5 83.5q9 33 14.5 58t10.5 48.5t9.5 48t11.5 57.5q7 27 30 54t52 44q-23 17 -34.5 44.5t-6.5 55.5
q6 32 11 56.5t10 47.5t9.5 47.5t8.5 57.5q5 27 3 47.5t-10.5 37t-22.5 29.5t-34 26l7 30h125q39 -29 64.5 -71t16.5 -97q-5 -34 -9.5 -60t-10 -50.5t-11 -50.5t-12.5 -60q-5 -26 9 -36t34 -14z" />
    <glyph glyph-name="asciitilde" unicode="~" horiz-adv-x="636" 
d="M617 359l-14 -18q-39 -43 -85.5 -70t-100.5 -32q-32 -4 -61.5 3.5t-56.5 18.5l-3 3q-21 11 -41 21t-41 14t-43.5 -1t-49.5 -25l-13 -12l-89 80l14 16q38 45 83.5 71t100.5 31q34 3 62 -4t56 -19h2l2 -2q21 -11 40.5 -21t40.5 -14t43.5 1.5t48.5 24.5l16 11z" />
    <glyph glyph-name="uni00A0" unicode="&#xa0;" horiz-adv-x="430" 
 />
    <glyph glyph-name="exclamdown" unicode="&#xa1;" horiz-adv-x="267" 
d="M120 284q-32 0 -51.5 23.5t-12.5 56.5q3 16 12.5 30.5t22.5 25t29.5 17t33.5 6.5q32 0 50.5 -23.5t13.5 -55.5q-8 -33 -36 -56.5t-62 -23.5zM195 248l-89 -505h-191l118 505h162z" />
    <glyph glyph-name="cent" unicode="&#xa2;" horiz-adv-x="640" 
d="M294 139q29 2 55 17.5t45 38.5h177q-19 -43 -51.5 -80.5t-72.5 -65t-86 -43t-94 -15.5h-28h-18l-82 -164h-100l94 189q-66 31 -96.5 97t-15.5 151q12 56 43.5 105.5t76 86t98 57.5t109.5 21h30h9l80 166h100l-89 -186q53 -24 85 -72.5t35 -111.5h-177q-6 17 -20 31z
M314 386q-41 -7 -75 -38t-43 -73l-4 -23q-10 -46 18 -82z" />
    <glyph glyph-name="sterling" unicode="&#xa3;" horiz-adv-x="666" 
d="M426 530q-45 3 -71.5 -22.5t-37.5 -87.5v-9h168l-34 -172h-173l-14 -68h294l-35 -171h-545l36 171h78l13 68h-77l34 172h75l16 78q2 8 3.5 15t5.5 14q7 23 18.5 43t27.5 39q26 31 57.5 54t69.5 35q9 2 23 4t28 3.5t28 2.5t23 1q49 0 84.5 -7.5t63.5 -22t50 -34.5t43 -45
l-109 -143q-12 14 -28 28t-35 25.5t-39.5 19.5t-40.5 9z" />
    <glyph glyph-name="currency" unicode="&#xa4;" horiz-adv-x="665" 
d="M550 350q-7 -31 -22 -59.5t-35 -54.5l84 -159h-206l-37 68q-8 -2 -16.5 -2h-17.5h-20h-17t-15 2l-64 -68h-207l148 159q-10 26 -13 54.5t4 59.5q5 31 19.5 59.5t35.5 51.5l-82 159h207l34 -66q8 0 16.5 1.5t17.5 1.5h20q9 0 17.5 -1.5t16.5 -1.5l62 66h206l-147 -159
q25 -48 11 -111zM316 264q17 0 33.5 6.5t31 18.5t24.5 27.5t13 33.5q7 34 -12.5 59t-55.5 25q-18 0 -35 -7t-31 -18.5t-24 -26.5t-15 -32q-7 -36 14 -61t57 -25z" />
    <glyph glyph-name="yen" unicode="&#xa5;" horiz-adv-x="726" 
d="M435 295h150l-20 -97h-148l-7 -34h148l-20 -96h-148l-14 -68h-172l13 68h-145l18 96h148l6 34h-147l20 97h146l4 19l-11 25l-180 361h209l105 -211l189 211h211l-325 -361l-25 -28z" />
    <glyph glyph-name="brokenbar" unicode="&#xa6;" horiz-adv-x="286" 
d="M8 111h173l-75 -368h-171zM301 700l-75 -368h-173l75 368h173z" />
    <glyph glyph-name="section" unicode="&#xa7;" horiz-adv-x="538" 
d="M313 559q-15 -3 -25 -9q-19 -12 -11 -34q3 -9 13 -17t23 -15t26 -12.5t22 -10.5q20 -8 41 -19t36 -28q27 -27 37 -57.5t4 -62.5t-27 -63.5t-55 -59.5q13 -38 6.5 -76.5t-28 -72.5t-56 -59.5t-79.5 -37.5q-26 -7 -53 -10t-53 -1q-33 2 -64.5 9t-58.5 22l-14 10l32 159
l41 -21q13 -7 29.5 -15t35 -13.5t37 -8.5t34.5 -1q7 2 13.5 3.5t11.5 5.5q11 7 13 15t-1 19q-3 8 -13 16t-23 15t-25.5 12.5t-20.5 8.5q-23 11 -43.5 21.5t-36.5 26.5q-27 27 -37 58.5t-4 63.5t27 63.5t55 59.5q-13 38 -6.5 76.5t28 72t56.5 59.5t79 38q56 14 107 11
q32 -2 63.5 -9.5t59.5 -24.5l13 -7l-32 -161l-40 22q-13 8 -30 15.5t-35.5 13.5t-37 9t-34.5 1zM313 300q-6 8 -18 15t-26 14t-28.5 13.5t-25.5 12.5q-24 -23 -9 -41q6 -8 18 -15.5t26 -14.5t28.5 -13.5t25.5 -11.5q12 8 15 19t-6 22z" />
    <glyph glyph-name="dieresis" unicode="&#xa8;" horiz-adv-x="383" 
d="M172 709q16 0 29.5 -6.5t22 -17t12 -25t0.5 -30.5q-7 -33 -35.5 -56.5t-62.5 -23.5q-32 0 -50.5 23.5t-13.5 56.5q3 16 12.5 30.5t22.5 25t29.5 17t33.5 6.5zM358 709q16 0 29.5 -6.5t22 -17t12 -25t0.5 -30.5q-7 -33 -35 -56.5t-63 -23.5q-16 0 -29.5 6.5t-22 17
t-12 25.5t0.5 31q7 32 35 55.5t62 23.5z" />
    <glyph glyph-name="copyright" unicode="&#xa9;" horiz-adv-x="800" 
d="M456 545q66 0 108.5 -37.5t51.5 -96.5h-107q-11 23 -32 35.5t-50 12.5q-22 0 -44 -8.5t-40 -23.5t-30.5 -35t-17.5 -42q-4 -23 1 -43t17 -35t30 -24t41 -9q27 0 54 13.5t46 33.5h107q-16 -29 -39.5 -53.5t-51.5 -42.5t-59.5 -28t-63.5 -10h-23q-40 0 -72.5 15.5
t-53.5 42.5t-29 63t1 77q8 40 30 75.5t54 62t71 42t79 15.5h22zM704 602q42 -50 56 -115t-1 -137q-14 -72 -54.5 -137.5t-102.5 -117.5q-60 -49 -131.5 -76.5t-143.5 -27.5t-131 27.5t-101 76.5q-39 52 -53.5 117.5t1.5 137.5q14 72 54 137t100 115q62 51 132.5 78t142.5 27
t132.5 -27t99.5 -78zM672 350q11 55 0.5 104t-41.5 87q-30 39 -75.5 59t-99.5 20t-108 -20t-101 -59q-46 -38 -76.5 -87t-41.5 -104q-12 -55 -1 -104.5t42 -88.5q31 -38 75.5 -59t99.5 -21t109 21t100 59q47 39 77 88.5t41 104.5z" />
    <glyph glyph-name="ordfeminine" unicode="&#xaa;" horiz-adv-x="425" 
d="M455 700l-68 -330h-105l7 30q-20 -14 -43.5 -22t-47.5 -8h-16q-30 0 -54 13t-39.5 35t-21 52t1.5 64t24.5 64.5t42 53t54 35.5t60.5 13h14q47 0 80 -30l6 30h105zM310 543q5 27 -10 46.5t-43 19.5q-27 0 -49.5 -19.5t-27.5 -46.5l-5 -16q-5 -27 10 -46.5t43 -19.5
q27 0 49.5 19.5t27.5 46.5z" />
    <glyph glyph-name="guillemotleft" unicode="&#xab;" horiz-adv-x="754" 
d="M248 350l132 -193h-205l-154 193l63 52l168 141h207zM555 350l132 -193h-205l-155 193l64 52l168 141h207z" />
    <glyph glyph-name="uni00AD" unicode="&#xad;" horiz-adv-x="0" 
 />
    <glyph glyph-name="registered" unicode="&#xae;" horiz-adv-x="801" 
d="M706 602q40 -50 54 -115t-1 -137q-14 -72 -54.5 -137.5t-102.5 -117.5q-60 -49 -131.5 -76.5t-141.5 -27.5q-72 0 -132 27.5t-102 76.5q-39 52 -53.5 117.5t1.5 137.5q14 72 54.5 137t102.5 115q60 51 130 78t142 27t132.5 -27t101.5 -78zM672 350q11 55 0.5 104
t-41.5 87q-31 39 -76 59t-99 20t-108 -20t-101 -59q-46 -38 -76.5 -87t-41.5 -104q-12 -55 -1 -104.5t42 -88.5q31 -38 75.5 -59t99.5 -21q53 0 105 20t98 55h-105l-57 130h-66l-27 -130h-96l25 130l21 98l34 165h229q27 0 49.5 -10.5t36.5 -28t19.5 -41.5t-0.5 -51
q-8 -43 -40.5 -77t-73.5 -46l59 -132q45 39 75.5 88t40.5 103zM472 380q14 0 27 10t17 24q2 15 -6.5 25.5t-23.5 10.5h-132l-13 -70h131z" />
    <glyph glyph-name="macron" unicode="&#xaf;" horiz-adv-x="653" 
d="M697 700l-36 -173h-598l34 173h600z" />
    <glyph glyph-name="degree" unicode="&#xb0;" horiz-adv-x="300" 
d="M300 670q14 -17 18.5 -38.5t-0.5 -47.5q-5 -24 -18.5 -46.5t-33.5 -37.5q-42 -36 -93 -36q-52 0 -77 36q-14 15 -19 37.5t-2 46.5q5 26 19.5 47.5t35.5 38.5q19 17 43 27t50 10t45.5 -10t31.5 -27zM223 552q7 7 12.5 15.5t7.5 16.5q2 11 -0.5 19t-5.5 13q-11 14 -30 14
q-8 0 -17.5 -3.5t-16.5 -10.5q-7 -5 -12.5 -13t-7.5 -19q-4 -16 6 -32q11 -11 30 -11q8 0 17.5 3t16.5 8z" />
    <glyph glyph-name="plusminus" unicode="&#xb1;" horiz-adv-x="568" 
d="M-27 0h484l-34 -173h-487zM545 436l-34 -172h-157l-31 -157h-173l32 157h-157l34 172h157l32 157h172l-32 -157h157z" />
    <glyph glyph-name="twosuperior" unicode="&#xb2;" horiz-adv-x="282" 
d="M160 534q-12 0 -23 -11l-2 -3h148l-14 -63h-214l12 52q5 23 19.5 43t34.5 32q25 14 52 14h37q10 0 18.5 7t10.5 18q2 10 -3.5 17.5t-14.5 7.5h-39q-10 0 -17.5 -7.5t-11.5 -17.5l-64 -3v3q7 38 38 63t69 25h37q38 0 58 -25t12 -63q-11 -50 -55 -75q-23 -14 -52 -14h-36z
" />
    <glyph glyph-name="threesuperior" unicode="&#xb3;" horiz-adv-x="269" 
d="M284 632q-4 -19 -19 -39h-2l2 -2q9 -11 11 -25t-2 -30q-3 -16 -12.5 -30.5t-22.5 -25t-28.5 -17t-31.5 -6.5h-123l14 63h120q16 0 21 16q0 16 -14 16h-95l11 64h89q14 0 18 16q2 7 -2.5 11.5t-9.5 4.5h-111l12 63h111q34 0 52.5 -23.5t11.5 -55.5z" />
    <glyph glyph-name="acute" unicode="&#xb4;" horiz-adv-x="225" 
d="M149 700h127l-113 -141h-94z" />
    <glyph glyph-name="periodcentered" unicode="&#xb7;" horiz-adv-x="345" 
d="M201 491q29 0 52 -11t38 -30.5t21 -45t0 -54.5q-5 -29 -21 -54.5t-39 -45t-51 -30.5t-57 -11t-52 11t-38.5 30.5t-21.5 45t0 54.5q5 29 21 54.5t39.5 45t51.5 30.5t57 11z" />
    <glyph glyph-name="cedilla" unicode="&#xb8;" horiz-adv-x="313" 
d="M238 -39q19 -10 34 -28t19 -42q2 -12 0 -25t-9 -25q-14 -28 -39 -45q-26 -16 -52.5 -23.5t-52.5 -4.5q-11 2 -24.5 4.5t-25.5 7.5q-25 7 -43 20l-25 16l57 70q14 -5 27.5 -12t27.5 -10q8 -4 16.5 -5.5t19.5 -3.5q7 0 15.5 1.5t11.5 4.5q8 8 -13 21q-11 5 -26 9.5t-27 6.5
q-4 2 -16 2l-29 9q3 19 7 36t11 33t19.5 33t32.5 37h107q-5 -4 -15 -12.5t-20 -18t-18.5 -20.5t-10.5 -20q11 -3 21 -7t20 -9z" />
    <glyph glyph-name="onesuperior" unicode="&#xb9;" horiz-adv-x="198" 
d="M222 711l-50 -254h-66l37 182l-30 -7l-4 61l70 18h43z" />
    <glyph glyph-name="ordmasculine" unicode="&#xba;" horiz-adv-x="278" 
d="M218 711q41 0 64.5 -28t14.5 -69l-11 -60q-4 -20 -15.5 -38t-28 -31t-36.5 -20.5t-40 -7.5h-12q-41 0 -63.5 28t-15.5 69l13 60q3 20 14.5 38t27.5 31t36 20.5t40 7.5h12zM232 614q3 14 -4.5 24t-23.5 10h-11q-14 0 -25.5 -10t-15.5 -24l-11 -59q-4 -14 4.5 -24.5
t22.5 -10.5h11q14 0 26.5 10.5t14.5 24.5z" />
    <glyph glyph-name="guillemotright" unicode="&#xbb;" horiz-adv-x="755" 
d="M428 350l-234 -193h-204l209 193l-132 193h207l111 -141zM735 350l-234 -193h-205l209 193l-131 193h206l112 -141z" />
    <glyph glyph-name="questiondown" unicode="&#xbf;" horiz-adv-x="534" 
d="M256 284q-32 0 -50 23.5t-13 56.5q7 32 35 55.5t62 23.5q17 0 30 -6.5t22 -17t12 -25t0 -30.5t-12.5 -31t-22.5 -25.5t-28.5 -17t-31.5 -6.5h-3zM328 219q-2 -8 -2.5 -11.5t1.5 8.5zM461 25l-7 -27q-11 -58 -39.5 -105t-69.5 -80.5t-92.5 -51.5t-109.5 -18
q-41 0 -78 10.5t-66 31t-47 51.5t-21 73q-2 60 28 115.5t81 98.5q17 14 34.5 25t36.5 22q11 5 22.5 13.5t18.5 16.5q3 5 5 9t4 9l4 25h169l-6 -24q2 9 3 15t-2 -7q-14 -66 -60 -113t-106 -78q-34 -17 -48.5 -41t-12 -46t21 -36.5t51.5 -12.5q45 4 75 29.5t38 68.5l5 27h168z
" />
    <glyph glyph-name="Agrave" unicode="&#xc0;" horiz-adv-x="729" 
d="M498 732h-91l-59 141h129zM657 0h-186l-25 130h-250l-78 -130h-184l414 700h177zM414 302l-28 148l-86 -148h114z" />
    <glyph glyph-name="Aacute" unicode="&#xc1;" horiz-adv-x="729" 
d="M484 732h-91l78 141h127zM657 0h-186l-25 130h-250l-78 -130h-184l414 700h177zM414 302l-28 148l-86 -148h114z" />
    <glyph glyph-name="Acircumflex" unicode="&#xc2;" horiz-adv-x="732" 
d="M659 0h-186l-25 130h-250l-77 -130h-187l416 700h177zM416 302l-27 148l-89 -148h116zM402 723h-122l138 150h112l77 -150h-123l-29 59z" />
    <glyph glyph-name="Atilde" unicode="&#xc3;" horiz-adv-x="729" 
d="M334 736l-52 46l9 9q45 51 107 59q19 2 35 -2.5t33 -11.5h2q12 -7 23.5 -13t23.5 -8t25 0.5t28 13.5l7 7l52 -45l-9 -9q-22 -26 -48 -41t-59 -18q-19 -2 -34.5 2t-30.5 11h-3q-13 7 -24.5 13t-23 8.5t-24.5 -1t-28 -15.5zM657 0h-184l-25 130h-250l-77 -130h-187l416 700
h177zM416 302l-27 148l-89 -148h116z" />
    <glyph glyph-name="Adieresis" unicode="&#xc4;" horiz-adv-x="729" 
d="M362 718q-28 0 -44 20.5t-11 47.5q3 15 11 27.5t19 21.5t25 14t27 5q29 0 44 -19.5t10 -48.5q-2 -13 -10 -25.5t-19 -22t-24.5 -15t-27.5 -5.5zM521 718q-29 0 -45.5 20.5t-9.5 47.5q5 29 29 48.5t53 19.5q27 0 43 -19.5t11 -48.5q-7 -27 -30.5 -47.5t-50.5 -20.5zM657 0
h-184l-25 130h-250l-77 -130h-187l416 700h175zM414 302l-27 148l-87 -148h114z" />
    <glyph glyph-name="Aring" unicode="&#xc5;" horiz-adv-x="729" 
d="M657 0h-184l-25 130h-250l-77 -130h-187l402 677q-8 16 -11 34.5t2 38.5q11 53 53 86q20 17 43.5 27t49.5 10t45.5 -10t31.5 -27q14 -15 19 -37.5t1 -48.5q-9 -40 -40 -73zM414 302l-28 148l-86 -148h114zM493 750q3 22 -7 32q-5 7 -13 10t-16 3t-17.5 -3t-16.5 -10
q-7 -5 -13 -13t-8 -19q-2 -8 1 -16.5t6 -13.5q10 -13 30 -13q8 0 17.5 3t16.5 10q7 5 12.5 13.5t7.5 16.5z" />
    <glyph glyph-name="AE" unicode="&#xc6;" horiz-adv-x="1142" 
d="M1134 527h-379l-19 -91h314l-34 -172h-314l-20 -94h382l-37 -170h-563l25 132h-248l-130 -132h-184l675 689l14 11h554l-36 -173v0zM555 450l-144 -145h114z" />
    <glyph glyph-name="Ccedilla" unicode="&#xc7;" horiz-adv-x="772" 
d="M358 152q50 0 97 23.5t82 63.5h189q-28 -52 -69.5 -96t-91.5 -75.5t-106.5 -49.5t-114.5 -18h-7q-3 -7 -6 -12.5t-3 -10.5q11 -3 21 -7t18 -9q20 -10 34.5 -28t17.5 -42q2 -12 0.5 -25t-6.5 -25q-15 -26 -39 -43q-53 -36 -105 -30q-14 2 -26 5t-26 7q-11 3 -22 8t-21 12
l-23 18l57 68q14 -5 27 -11t27 -11q9 -2 17.5 -4.5t17.5 -2.5q7 -2 15 0t12 7q3 3 1.5 8t-13.5 10q-10 7 -25 10.5t-29 7.5q-9 0 -14 2l-29 7l4 34v7q4 14 10.5 28.5t14.5 25.5q-58 12 -104 43.5t-75 77.5t-39.5 103.5t2.5 121.5q15 72 55.5 135.5t98 111t126.5 75.5t141 28
h38q57 0 106 -18t86 -49.5t61 -75.5t32 -96h-191q-19 38 -56.5 61t-87.5 23q-41 0 -79.5 -15.5t-70.5 -42t-54.5 -62t-31.5 -75.5q-9 -41 -0.5 -77t29.5 -63t54 -42.5t74 -15.5z" />
    <glyph glyph-name="Egrave" unicode="&#xc8;" horiz-adv-x="665" 
d="M507 732h-91l-57 141h128zM657 527h-386l-21 -91h323l-34 -172h-323l-18 -94h389l-37 -170h-559q35 175 70 349t71 351h561l-36 -173v0z" />
    <glyph glyph-name="Eacute" unicode="&#xc9;" horiz-adv-x="665" 
d="M657 527h-386l-21 -91h323l-34 -172h-323l-18 -94h389l-37 -170h-559q35 175 70 349t71 351h561l-36 -173v0zM423 732h-93l79 141h128z" />
    <glyph glyph-name="Ecircumflex" unicode="&#xca;" horiz-adv-x="665" 
d="M657 527h-386l-21 -91h323l-34 -172h-323l-18 -94h389l-37 -170h-559q35 175 70 349t71 351h561l-36 -173v0zM375 723h-120l136 150h112l77 -150h-121l-29 59z" />
    <glyph glyph-name="Edieresis" unicode="&#xcb;" horiz-adv-x="665" 
d="M498 730q-27 0 -43.5 19.5t-11.5 48.5q8 29 32 48.5t53 19.5t44 -19.5t10 -48.5t-30 -48.5t-54 -19.5zM657 527h-386l-21 -91h323l-34 -172h-323l-18 -94h389l-37 -170h-559q36 175 70.5 349t70.5 351h561l-36 -173v0zM339 730q-29 0 -45.5 19.5t-11.5 48.5q7 29 31 48.5
t53 19.5t45.5 -19.5t9.5 -48.5q-3 -15 -11 -27.5t-19 -21.5t-24.5 -14t-27.5 -5z" />
    <glyph glyph-name="Igrave" unicode="&#xcc;" horiz-adv-x="296" 
d="M132 700h173l-141 -700h-173zM314 732h-91l-59 141h129z" />
    <glyph glyph-name="Iacute" unicode="&#xcd;" horiz-adv-x="297" 
d="M229 732h-91l77 141h128zM133 700h173l-143 -700h-173z" />
    <glyph glyph-name="Icircumflex" unicode="&#xce;" horiz-adv-x="296" 
d="M182 723h-123l139 150h111l78 -150h-123l-30 59zM132 700h173l-143 -700h-171z" />
    <glyph glyph-name="Idieresis" unicode="&#xcf;" horiz-adv-x="298" 
d="M143 730q-27 0 -43 19.5t-11 48.5q7 29 31 48.5t53 19.5q27 0 43.5 -19.5t11.5 -48.5t-30.5 -48.5t-54.5 -19.5zM132 700h173l-141 -700h-173zM334 866q28 0 44 -19.5t11 -48.5q-3 -15 -11 -27.5t-19.5 -21.5t-25.5 -14t-28 -5q-28 0 -44 19.5t-11 48.5t30 48.5t54 19.5z
" />
    <glyph glyph-name="Eth" unicode="&#xd0;" horiz-adv-x="810" 
d="M527 705q66 0 119.5 -25.5t88 -69.5t48.5 -102.5t1 -125.5l-14 -59q-13 -66 -50 -125t-89.5 -103t-116.5 -69.5t-130 -25.5h-353l55 264h-72l33 172h73l55 269h352zM611 382q6 30 -0.5 57.5t-23 48t-41.5 32.5t-55 12h-178l-20 -96h61l-34 -172h-61l-18 -91h177
q30 0 59.5 11.5t54 32t42 48t23.5 58.5z" />
    <glyph glyph-name="Ntilde" unicode="&#xd1;" horiz-adv-x="819" 
d="M386 736l-53 46l10 9q44 51 106 59q19 2 36 -2.5t32 -11.5h3q12 -7 23.5 -13t23.5 -8t25 0.5t28 13.5l9 7l50 -45l-9 -9q-23 -26 -48.5 -41t-56.5 -18q-20 -2 -36.5 2t-31.5 11h-2q-12 7 -23.5 13t-23.5 8.5t-25 -1t-28 -15.5zM688 14l9 -14h-211l-230 459l-93 -459h-173
l143 700h214l220 -441l89 441h173z" />
    <glyph glyph-name="Ograve" unicode="&#xd2;" horiz-adv-x="794" 
d="M563 732h-91l-59 141h129zM485 700q73 0 131 -28t96 -75.5t53 -111t0 -135.5t-55 -136t-97 -111.5t-126.5 -75t-141.5 -27.5h-37q-72 0 -130.5 27.5t-96.5 75t-52.5 111.5t0.5 136q14 72 54.5 135.5t97.5 111t126.5 75.5t141.5 28h36zM592 350q9 40 1 75.5t-29.5 62
t-54 42t-73.5 15.5q-40 0 -79 -15.5t-71 -42t-55 -62t-32 -75.5q-7 -41 1.5 -77t29.5 -63t53.5 -42.5t72.5 -15.5q41 0 80 15.5t71.5 42.5t55 63t29.5 77z" />
    <glyph glyph-name="Oacute" unicode="&#xd3;" horiz-adv-x="795" 
d="M478 732h-91l78 141h127zM487 700q73 0 131 -28t96 -75.5t53 -111t0 -135.5t-55.5 -136t-98 -111.5t-126.5 -75t-140 -27.5h-39q-72 0 -130 27.5t-96 75t-53 111.5t-1 136q15 72 56 135.5t98.5 111t127 75.5t141.5 28h36zM594 350q9 40 1 75.5t-29.5 62t-54.5 42
t-74 15.5q-40 0 -78.5 -15.5t-70.5 -42t-55 -62t-32 -75.5q-7 -41 1.5 -77t29.5 -63t53.5 -42.5t72.5 -15.5q41 0 80 15.5t71 42.5t54.5 63t30.5 77z" />
    <glyph glyph-name="Ocircumflex" unicode="&#xd4;" horiz-adv-x="795" 
d="M488 700q72 0 130.5 -28t96 -75.5t52.5 -111t0 -135.5t-55.5 -136t-97.5 -111.5t-126 -75t-141 -27.5h-39q-72 0 -130.5 27.5t-96.5 75t-52.5 111.5t-0.5 136q15 72 55.5 135.5t98 111t127.5 75.5t142 28h37zM594 350q9 40 1 75.5t-29.5 62t-54.5 42t-74 15.5
q-40 0 -78.5 -15.5t-70.5 -42t-55 -62t-32 -75.5q-9 -41 -0.5 -77t30 -63t54.5 -42.5t73 -15.5q41 0 80 15.5t71 42.5t54.5 63t30.5 77zM433 723h-123l139 150h111l77 -150h-122l-30 59z" />
    <glyph glyph-name="Otilde" unicode="&#xd5;" horiz-adv-x="795" 
d="M487 700q73 0 131 -28t96 -75.5t53 -111t0 -135.5q-14 -72 -54.5 -136t-98.5 -111.5t-127.5 -75t-142.5 -27.5h-36q-72 0 -130.5 27.5t-96.5 75t-52.5 111.5t-0.5 136q15 72 55.5 135.5t98 111t127.5 75.5t142 28h36zM594 350q9 40 1 75.5t-29.5 62t-54.5 42t-74 15.5
t-79.5 -15.5t-70.5 -42t-54.5 -62t-31.5 -75.5q-9 -41 -0.5 -77t29.5 -63t54 -42.5t74 -15.5t80 15.5t71 42.5t54.5 63t30.5 77zM365 736l-50 46l7 9q44 51 106 59q19 2 36 -2.5t32 -11.5h3q12 -7 23 -13t23 -8t25.5 0.5t28.5 13.5l9 7l50 -45l-7 -9q-23 -26 -49.5 -41
t-57.5 -18q-20 -2 -36.5 2t-31.5 11h-2q-12 7 -23.5 13t-23.5 8.5t-25 -1t-28 -15.5z" />
    <glyph glyph-name="Odieresis" unicode="&#xd6;" horiz-adv-x="795" 
d="M488 700q72 0 130.5 -28t96 -75.5t52.5 -111t0 -135.5t-55.5 -136t-98 -111.5t-127.5 -75t-142 -27.5h-36q-72 0 -130.5 27.5t-96.5 75t-52.5 111.5t-0.5 136q15 72 55.5 135.5t98 111t126.5 75.5t141 28h39zM594 350q8 40 -0.5 75.5t-30 62t-53.5 42t-72 15.5
q-41 0 -80 -15.5t-71 -42t-54.5 -62t-31.5 -75.5q-8 -41 0 -77t29.5 -63t54 -42.5t73.5 -15.5q40 0 79 15.5t71 42.5t55 63t31 77zM560 711q-31 0 -49.5 23.5t-11.5 54.5q7 32 34 54.5t59 22.5t50 -22.5t11 -54.5q-3 -15 -12 -29.5t-21.5 -25t-28 -17t-31.5 -6.5zM381 711
q-32 0 -50.5 23.5t-11.5 54.5q7 32 34 54.5t60 22.5q32 0 50 -22.5t11 -54.5q-3 -15 -12 -29.5t-21.5 -25t-28 -17t-31.5 -6.5z" />
    <glyph glyph-name="multiply" unicode="&#xd7;" horiz-adv-x="536" 
d="M389 350l89 -111l-146 -123l-88 111l-134 -111l-98 123l134 111l-89 111l148 121l89 -112l132 112l97 -121z" />
    <glyph glyph-name="Oslash" unicode="&#xd8;" horiz-adv-x="796" 
d="M643 674q38 -22 66 -54.5t45.5 -72t22 -86t-5.5 -96.5q-15 -72 -56 -136t-99 -111.5t-127.5 -75t-141.5 -27.5h-27l-41 -87h-184l61 125q-37 22 -65 54.5t-44.5 73t-21 87t5.5 97.5q15 72 56 135.5t98 111t126 75.5t141 28h28l43 86h183zM402 558q-35 -7 -67.5 -24.5
t-59.5 -43t-45.5 -57.5t-24.5 -68q-9 -43 0.5 -80.5t32.5 -65.5zM597 365q9 42 -0.5 79t-32.5 64l-166 -336q36 6 68.5 23.5t59 43t45.5 58t26 68.5z" />
    <glyph glyph-name="Ugrave" unicode="&#xd9;" horiz-adv-x="735" 
d="M534 732h-93l-57 141h127zM759 700l-77 -380q-14 -66 -51 -124.5t-89.5 -102t-116.5 -68.5t-130 -25t-119 25t-87.5 68.5t-48 102t0.5 124.5l77 380h173l-37 -173l-41 -206q-7 -31 -0.5 -58t22.5 -47.5t41 -32.5t56 -12q30 0 59 12t53 32.5t41.5 47.5t23.5 58l41 206
l36 173h173z" />
    <glyph glyph-name="Uacute" unicode="&#xda;" horiz-adv-x="734" 
d="M449 732h-93l79 141h127zM758 700l-77 -380q-13 -66 -50 -124.5t-89.5 -102t-116 -68.5t-129.5 -25t-119 25t-87.5 68.5t-47.5 102t0 124.5l75 380h173l-34 -173l-44 -206q-6 -31 0.5 -58t23 -47.5t40.5 -32.5t54 -12q31 0 60.5 12t53.5 32.5t41.5 47.5t24.5 58l41 206
l34 173h173z" />
    <glyph glyph-name="Ucircumflex" unicode="&#xdb;" horiz-adv-x="735" 
d="M402 723h-123l139 150h111l78 -150h-123l-30 59zM759 700l-77 -380q-14 -66 -51 -124.5t-89.5 -102t-116.5 -68.5t-130 -25t-119 25t-87.5 68.5t-48 102t0.5 124.5l77 380h173l-37 -173l-41 -206q-6 -31 0.5 -58t22.5 -47.5t40.5 -32.5t55.5 -12q30 0 59 12t53 32.5
t41.5 47.5t23.5 58l43 206l34 173h173z" />
    <glyph glyph-name="Udieresis" unicode="&#xdc;" horiz-adv-x="736" 
d="M364 730q-27 0 -43.5 19.5t-11.5 48.5t30.5 48.5t54.5 19.5q27 0 43 -19.5t11 -48.5t-30 -48.5t-54 -19.5zM525 730q-27 0 -43 19.5t-11 48.5t30 48.5t54 19.5q27 0 43 -19.5t11 -48.5q-7 -29 -31 -48.5t-53 -19.5zM759 700l-77 -380q-13 -66 -50 -124.5t-89.5 -102
t-115.5 -68.5t-129 -25t-119.5 25t-88 68.5t-48.5 102t-1 124.5l78 380h172l-34 -173l-43 -206q-6 -31 0.5 -58t23 -47.5t40.5 -32.5t54 -12q31 0 60 12t53 32.5t41 47.5t23 58l44 206l34 173h172z" />
    <glyph glyph-name="Yacute" unicode="&#xdd;" horiz-adv-x="706" 
d="M781 700l-325 -361l-25 -28l-39 -193l-25 -118h-173l23 116l41 198l-11 25l-180 361h211l103 -211l188 211h212zM433 732h-91l77 141h127z" />
    <glyph glyph-name="Thorn" unicode="&#xde;" horiz-adv-x="728" 
d="M520 584q48 0 87 -18.5t64.5 -50.5t35 -74.5t-0.5 -90.5q-9 -49 -36 -91.5t-65.5 -74t-85 -50t-95.5 -18.5h-236l-25 -116h-173q18 87 30.5 148.5t22.5 110.5t19 91t19 91t22.5 110.5t29.5 148.5h173l-25 -116h239zM461 286q12 0 23.5 5t21.5 14t17.5 20.5t9.5 24.5
q5 26 -9.5 43.5t-37.5 17.5h-239l-25 -125h239z" />
    <glyph glyph-name="germandbls" unicode="&#xdf;" horiz-adv-x="722" 
d="M553 386q61 -15 93 -49t39 -77t-9.5 -89t-51 -84t-86 -62.5t-115.5 -24.5h-204l32 150h204q35 0 55.5 14.5t24 32t-11.5 32t-50 14.5h-204l32 150h86q8 0 14.5 5t8.5 13l13 66q5 29 -11.5 51t-47.5 22h-57q-17 0 -31.5 -13t-18.5 -30l-104 -507h-150l102 507
q9 40 31.5 75t54.5 61.5t70 41.5t78 15h57q46 0 83 -17.5t61 -48t33 -71t0 -86.5l-13 -66q-2 -7 -3.5 -12.5t-3.5 -12.5z" />
    <glyph glyph-name="agrave" unicode="&#xe0;" horiz-adv-x="671" 
d="M489 645h-93l-57 141h127zM495 543h173l-109 -543h-173l9 48q-34 -23 -72 -35.5t-78 -12.5h-25q-50 0 -90 21.5t-65.5 58t-34.5 86t2 105.5q12 56 41.5 105.5t70 86.5t89.5 58.5t99 21.5h25q76 0 129 -50l9 50v0zM430 286q4 21 -0.5 40.5t-16.5 34.5t-30 23.5t-40 8.5
t-43 -8.5t-38.5 -23.5t-30 -34.5t-17.5 -40.5l-5 -29q-4 -22 0.5 -41.5t16.5 -34t30 -23t40 -8.5q21 0 42 8.5t38 23t30 34t17 41.5z" />
    <glyph glyph-name="aacute" unicode="&#xe1;" 
d="M400 645h-91l78 141h127zM493 543h173l-109 -543h-173l9 48q-34 -23 -71.5 -35.5t-75.5 -12.5h-28q-50 0 -90 21.5t-65.5 58t-34 86t3.5 105.5q11 56 40.5 105.5t70 86.5t89 58.5t98.5 21.5h25q76 0 129 -50l9 50v0zM428 286q4 21 -0.5 40.5t-16.5 34.5t-30 23.5t-40 8.5
q-21 0 -42 -8.5t-38.5 -23.5t-30 -34.5t-16.5 -40.5l-7 -29q-8 -45 16.5 -76t69.5 -31q23 0 44 8.5t38.5 23t30 34t17.5 41.5z" />
    <glyph glyph-name="acircumflex" unicode="&#xe2;" 
d="M495 543h173l-111 -543h-171l10 48q-35 -23 -73 -35.5t-77 -12.5h-26q-50 0 -90 21.5t-65.5 58t-34.5 86t2 105.5t40.5 105.5t70 86.5t89.5 58.5t98 21.5h27q76 0 129 -50l9 50v0zM430 286q4 21 -0.5 40.5t-16.5 34.5t-30 23.5t-40 8.5t-43.5 -8.5t-39 -23.5t-30 -34.5
t-16.5 -40.5l-5 -29q-5 -22 -1 -41.5t15.5 -34t29.5 -23t40 -8.5t43.5 8.5t39 23t30.5 34t17 41.5zM355 636h-121l137 150h111l77 -150h-120l-30 59z" />
    <glyph glyph-name="atilde" unicode="&#xe3;" 
d="M495 543h173l-111 -543h-171l9 48q-34 -23 -72 -35.5t-78 -12.5h-25q-50 0 -90 21.5t-65.5 58t-34.5 86t2 105.5t40.5 105.5t70 86.5t89.5 58.5t98 21.5h27q76 0 129 -50l9 50v0zM430 286q4 21 -0.5 40.5t-16.5 34.5t-30 23.5t-40 8.5t-43.5 -8.5t-39 -23.5t-30 -34.5
t-16.5 -40.5l-5 -29q-5 -22 -1 -41.5t15.5 -34t29.5 -23t40 -8.5t43.5 8.5t39 23t30.5 34t17 41.5zM282 620l-50 46l7 9q45 53 106 59q19 2 36 -2t33 -12h2v-2q12 -6 23.5 -11.5t23.5 -7.5t25 1t28 14l9 6l50 -45l-7 -9q-45 -53 -107 -59q-20 -2 -36 2t-32 11h-2
q-12 7 -23.5 13t-23.5 8.5t-25 -1t-28 -15.5z" />
    <glyph glyph-name="adieresis" unicode="&#xe4;" 
d="M477 641q-27 0 -43 20.5t-11 49.5q7 29 31 49t53 20t44 -20t10 -49q-2 -14 -10 -27t-19.5 -22.5t-25.5 -15t-29 -5.5zM318 641q-29 0 -45.5 20.5t-11.5 49.5q8 29 32 49t53 20t45 -20t9 -49q-5 -29 -29.5 -49.5t-52.5 -20.5zM495 543h173l-111 -543h-171l9 48
q-34 -23 -72 -35.5t-78 -12.5h-25q-50 0 -90 21.5t-65.5 58t-34.5 86t2 105.5q12 56 41.5 105.5t70 86.5t89 58.5t97.5 21.5h27q76 0 129 -50l9 50v0zM430 286q4 21 -0.5 40.5t-16.5 34.5t-30 23.5t-40 8.5t-43 -8.5t-38.5 -23.5t-30 -34.5t-17.5 -40.5l-5 -29
q-5 -22 -0.5 -41.5t16 -34t29.5 -23t39 -8.5q22 0 43.5 8.5t39 23t30.5 34t17 41.5z" />
    <glyph glyph-name="aring" unicode="&#xe5;" horiz-adv-x="670" 
d="M496 543h173l-111 -543h-173l11 48q-35 -23 -73 -35.5t-77 -12.5h-25q-50 0 -90.5 21.5t-66 58t-34.5 86t3 105.5q11 56 40 105.5t69.5 86.5t89 58.5t98.5 21.5h25q80 0 130 -50l11 50v0zM428 286q5 21 1 40.5t-15.5 34.5t-29.5 23.5t-40 8.5t-43.5 -8.5t-39 -23.5
t-30 -34.5t-17.5 -40.5l-6 -29q-9 -45 16 -76t70 -31q22 0 43.5 8.5t39 23t30 34t16.5 41.5zM378 543q-26 0 -46 10t-34 27q-14 15 -18.5 37.5t0.5 46.5q5 26 19.5 47.5t33.5 38.5q20 17 44.5 26.5t48.5 9.5q51 0 79 -36q14 -15 18.5 -37.5t-0.5 -48.5q-5 -24 -19 -46.5
t-33 -37.5q-20 -17 -44.5 -27t-48.5 -10zM378 695q-17 -9 -20 -31q-4 -18 6 -30q11 -14 30 -14q17 0 34 14q15 12 18 30q3 22 -7 31q-9 14 -27 14q-20 0 -34 -14z" />
    <glyph glyph-name="ae" unicode="&#xe6;" horiz-adv-x="1033" 
d="M787 544q56 0 101 -21.5t74 -59t40.5 -87.5t0.5 -106q-3 -13 -7 -27.5t-11 -28.5h-384q7 -29 31.5 -49t59.5 -20q19 0 36 6.5t34 14.5h200q-23 -37 -54.5 -67.5t-69 -52.5t-79 -34t-83.5 -12h-28q-46 0 -88 14l-2 -14h-173l12 48q-36 -23 -73.5 -35.5t-76.5 -12.5h-26
q-50 0 -90.5 21t-66 57.5t-34.5 86t3 105.5q11 56 40 106t69.5 87.5t89 59t98.5 21.5h26q39 0 72 -13.5t57 -37.5l11 51h173l-5 -16q44 16 93 16h30zM428 286q5 21 1 40.5t-15.5 34.5t-29.5 23.5t-40 8.5t-43.5 -8.5t-39 -23.5t-30 -34.5t-16.5 -40.5l-8 -29q-8 -45 17 -76
t70 -31q22 0 43.5 8.5t39 23t30.5 34t17 41.5zM833 327q-7 31 -31.5 49.5t-60.5 18.5q-34 0 -65.5 -18.5t-51.5 -49.5h209z" />
    <glyph glyph-name="ccedilla" unicode="&#xe7;" horiz-adv-x="623" 
d="M292 145q31 0 60.5 17t48.5 43h180q-21 -43 -53 -80.5t-71.5 -65.5t-85 -43.5t-92.5 -15.5q-12 -15 -12 -23q21 -6 41 -16q19 -10 34 -28t18 -42q5 -26 -9 -50q-7 -14 -17 -25.5t-21 -20.5q-26 -15 -52.5 -22.5t-52.5 -4.5q-12 2 -25 4.5t-25 7.5q-12 3 -23.5 8t-19.5 12
l-25 16l57 70q14 -5 27 -12t27 -10q8 -4 17 -5.5t19 -3.5q8 0 16 1.5t12 4.5q3 4 0.5 9t-14.5 12q-11 5 -25.5 9.5t-26.5 6.5q-4 2 -8 2h-8l-30 9q5 27 11.5 50.5t23.5 47.5q-43 10 -77 34.5t-55.5 59.5t-28 78t3.5 91q11 56 42.5 106t76 87t98.5 58.5t110 21.5h27
q48 0 88 -15.5t69 -43.5t46 -65t20 -81h-180q-8 26 -31.5 41.5t-54.5 15.5q-24 0 -46.5 -9t-41 -24t-32 -35.5t-18.5 -44.5l-3 -23q-5 -23 0 -43.5t17 -36.5t31 -25t43 -9z" />
    <glyph glyph-name="egrave" unicode="&#xe8;" horiz-adv-x="633" 
d="M480 645h-91l-57 141h128zM385 543q56 0 101.5 -21.5t75 -58.5t41 -86.5t0.5 -105.5q-4 -14 -8.5 -28.5t-9.5 -28.5h-385q8 -29 32 -48.5t59 -19.5q17 0 35 6t34 14h200q-23 -37 -55 -67.5t-69 -52.5t-77.5 -34t-82.5 -12h-30q-56 0 -101 21.5t-74 58t-40.5 86
t-0.5 105.5t42.5 105.5t76 86.5t98.5 58.5t110 21.5h28zM432 327q-7 31 -31.5 49.5t-59.5 18.5t-67 -18.5t-51 -49.5h209z" />
    <glyph glyph-name="eacute" unicode="&#xe9;" horiz-adv-x="633" 
d="M396 645h-93l79 141h128zM387 543q56 0 100.5 -21.5t74 -58.5t41 -86.5t0.5 -105.5q-4 -14 -7.5 -28.5t-10.5 -28.5h-385q8 -29 32.5 -48.5t58.5 -19.5q19 0 36.5 6t34.5 14h200q-23 -37 -55 -67.5t-69 -52.5t-78.5 -34t-84.5 -12h-27q-56 0 -101.5 21.5t-75 58t-41 86
t-0.5 105.5q12 56 43.5 105.5t76 86.5t98 58.5t109.5 21.5h30zM432 327q-7 31 -31 49.5t-60 18.5q-34 0 -66 -18.5t-52 -49.5h209z" />
    <glyph glyph-name="ecircumflex" unicode="&#xea;" horiz-adv-x="633" 
d="M387 543q55 0 100 -21.5t74 -58.5t41 -86.5t1 -105.5q-4 -14 -7.5 -28.5t-10.5 -28.5h-385q7 -29 32 -48.5t59 -19.5q19 0 36.5 6t34.5 14h200q-23 -37 -55 -67.5t-69 -52.5t-78.5 -34t-84.5 -12h-27q-56 0 -101.5 21.5t-75 58t-41 86t-0.5 105.5q12 56 43.5 105.5
t76 86.5t98 58.5t109.5 21.5h30zM432 327q-7 31 -31 49.5t-60 18.5q-34 0 -66 -18.5t-52 -49.5h209zM350 636h-122l136 150h114l77 -150h-123l-29 59z" />
    <glyph glyph-name="edieresis" unicode="&#xeb;" horiz-adv-x="632" 
d="M310 641q-29 0 -45 20.5t-9 49.5q3 15 11 27.5t19 21.5t24.5 14.5t27.5 5.5q29 0 45 -20t11 -49q-7 -29 -31 -49.5t-53 -20.5zM472 641q-29 0 -45.5 20.5t-9.5 49.5q3 15 11 27.5t19 21.5t25 14.5t27 5.5q29 0 45.5 -20t11.5 -49q-7 -29 -31 -49.5t-53 -20.5zM385 543
q56 0 101.5 -21.5t75 -58.5t40.5 -86.5t-1 -105.5q-2 -14 -6.5 -28.5t-9.5 -28.5h-386q8 -29 32 -48.5t59 -19.5q19 0 37 6t33 14h200q-23 -37 -54.5 -67.5t-68.5 -52.5t-78.5 -34t-84.5 -12h-27q-56 0 -101.5 21.5t-75 58t-40.5 86t1 105.5q11 56 42.5 105.5t75.5 86.5
t98 58.5t109 21.5h29zM431 327q-7 31 -30.5 49.5t-58.5 18.5q-36 0 -67.5 -18.5t-50.5 -49.5h207z" />
    <glyph glyph-name="igrave" unicode="&#xec;" horiz-adv-x="287" 
d="M113 543h171l-109 -543h-173zM309 645h-93l-57 141h127z" />
    <glyph glyph-name="iacute" unicode="&#xed;" horiz-adv-x="289" 
d="M223 645h-91l77 141h127zM113 543h173l-111 -543h-173z" />
    <glyph glyph-name="icircumflex" unicode="&#xee;" horiz-adv-x="288" 
d="M176 636h-121l137 150h111l77 -150h-120l-30 59zM112 543h173l-111 -543h-171z" />
    <glyph glyph-name="idieresis" unicode="&#xef;" horiz-adv-x="288" 
d="M121 616q-34 0 -52 23.5t-11 55.5q5 35 33 58.5t62 23.5q32 0 51.5 -23.5t12.5 -58.5q-7 -32 -35 -55.5t-61 -23.5zM112 543h173l-111 -543h-171zM340 777q32 0 51 -23.5t12 -58.5q-3 -16 -12.5 -30.5t-22.5 -25t-29.5 -17t-33.5 -6.5q-32 0 -50 23.5t-13 55.5
q7 35 35 58.5t63 23.5z" />
    <glyph glyph-name="eth" unicode="&#xf0;" horiz-adv-x="637" 
d="M558 548q29 -37 41.5 -74t15 -72.5t-2.5 -68.5t-11 -62q-11 -55 -42.5 -104.5t-76 -86.5t-98.5 -58.5t-110 -21.5h-25q-56 0 -101.5 21.5t-75 58.5t-41 86.5t-0.5 104.5q11 51 38 96.5t65.5 81.5t86 60t98.5 32l-41 52l-81 -68l-85 103l82 68l-42 54l145 123l46 -54
l54 44l84 -101l-57 -48zM428 271q5 24 0.5 44.5t-16.5 35.5t-30.5 24t-41.5 9t-45.5 -9t-41 -24t-31.5 -35.5t-18 -44.5q-4 -23 1 -43.5t17 -35.5t30.5 -23.5t41.5 -8.5t45.5 8.5t40.5 23.5t31 35.5t17 43.5z" />
    <glyph glyph-name="ntilde" unicode="&#xf1;" horiz-adv-x="637" 
d="M285 620l-52 46l9 9q44 51 106 59q20 2 36 -2.5t33 -11.5l2 -2q12 -6 23.5 -11.5t23.5 -7.5t25 1t28 14l7 6l52 -45l-9 -9q-23 -26 -49 -41t-58 -18q-19 -2 -34.5 2t-31.5 11h-2q-12 7 -23.5 13t-23.5 8.5t-25 -1t-28 -15.5zM419 543q45 0 82 -21.5t61.5 -58.5t33 -87
t-3.5 -106q-14 -68 -27.5 -134.5t-27.5 -135.5h-173l50 245q5 20 2 39.5t-12 35.5t-25 25.5t-37 9.5t-40.5 -9.5t-35.5 -25.5t-27 -35.5t-15 -39.5l-50 -245h-171l109 543h171l-12 -54q42 32 77 43t71 11z" />
    <glyph glyph-name="ograve" unicode="&#xf2;" horiz-adv-x="633" 
d="M481 645h-90l-60 141h130zM384 536q56 0 101.5 -21.5t75 -58.5t41 -86.5t0.5 -105.5q-12 -55 -43.5 -104.5t-75.5 -86.5t-98 -58.5t-110 -21.5h-30q-55 0 -100 21.5t-74.5 58.5t-41 86.5t-0.5 104.5q11 56 42.5 105.5t76 86.5t98.5 58.5t110 21.5h28zM429 266
q5 24 0.5 45.5t-16.5 37.5t-31 25.5t-42 9.5q-24 0 -46.5 -9.5t-41 -25.5t-32 -37.5t-18.5 -45.5q-5 -25 -0.5 -47t16.5 -38.5t30.5 -26t41.5 -9.5q24 0 47 9.5t41.5 26t32 38.5t18.5 47z" />
    <glyph glyph-name="oacute" unicode="&#xf3;" horiz-adv-x="634" 
d="M395 645h-91l77 141h130zM384 536q56 0 101.5 -21.5t75 -58.5t41 -86.5t0.5 -105.5q-12 -55 -43.5 -104.5t-75.5 -86.5t-98 -58.5t-110 -21.5h-28q-56 0 -101.5 21.5t-75 58.5t-41 86.5t-0.5 104.5q11 56 42.5 105.5t76 86.5t98.5 58.5t110 21.5h28zM429 266
q5 24 0.5 45.5t-16.5 37.5t-30.5 25.5t-41.5 9.5q-24 0 -46.5 -9.5t-41.5 -25.5t-32.5 -37.5t-18.5 -45.5q-5 -25 -0.5 -47t16.5 -38.5t31 -26t42 -9.5q24 0 46.5 9.5t41.5 26t32 38.5t18 47z" />
    <glyph glyph-name="ocircumflex" unicode="&#xf4;" horiz-adv-x="632" 
d="M384 536q56 0 101.5 -21.5t74.5 -58.5t40.5 -86.5t-0.5 -105.5q-11 -55 -42.5 -104.5t-76 -86.5t-98 -58.5t-108.5 -21.5h-30q-56 0 -101.5 21.5t-75 58.5t-40.5 86.5t1 104.5q11 56 42.5 105.5t76 86.5t98.5 58.5t110 21.5h28zM429 266q4 24 -0.5 45.5t-16.5 37.5
t-31 25.5t-43 9.5q-23 0 -45.5 -9.5t-41 -25.5t-32 -37.5t-17.5 -45.5q-5 -25 -1 -47t16 -38.5t30.5 -26t42.5 -9.5t47 9.5t41.5 26t32 38.5t18.5 47zM350 636h-123l136 150h114l77 -150h-123l-29 59z" />
    <glyph glyph-name="otilde" unicode="&#xf5;" horiz-adv-x="634" 
d="M277 620l-50 46l7 9q45 53 106 59q19 2 36 -2t33 -12h2v-2q12 -6 23.5 -11.5t23.5 -7.5t25 1t28 14l9 6l50 -45l-7 -9q-45 -53 -107 -59q-20 -2 -36 2t-32 11h-2q-12 7 -23.5 13t-23.5 8.5t-25 -1t-28 -15.5zM386 536q56 0 101 -21.5t74 -58.5t40.5 -86.5t0.5 -105.5
q-11 -55 -42.5 -104.5t-76 -86.5t-98.5 -58.5t-110 -21.5h-28q-56 0 -101.5 21.5t-75 58.5t-41 86.5t-0.5 104.5q12 56 43.5 105.5t76 86.5t98 58.5t109.5 21.5h30zM429 266q5 24 0.5 45.5t-16.5 37.5t-30.5 25.5t-41.5 9.5q-24 0 -46.5 -9.5t-41.5 -25.5t-32.5 -37.5
t-18.5 -45.5q-5 -25 -0.5 -47t17 -38.5t31.5 -26t43 -9.5q23 0 45 9.5t41 26t32 38.5t18 47z" />
    <glyph glyph-name="odieresis" unicode="&#xf6;" horiz-adv-x="632" 
d="M479 616q-16 0 -29.5 6.5t-22 17t-12 25t-0.5 30.5q4 17 13.5 32t22.5 26t28.5 17.5t31.5 6.5q32 0 51.5 -23.5t12.5 -58.5q-3 -16 -12.5 -30.5t-22.5 -25t-29 -17t-32 -6.5zM384 536q56 0 101.5 -21.5t74.5 -58.5t40 -86.5t-1 -105.5q-11 -55 -42 -104.5t-75.5 -86.5
t-98 -58.5t-108.5 -21.5h-30q-56 0 -101.5 21.5t-75 58.5t-40.5 86.5t1 104.5q11 56 42.5 105.5t76 86.5t98.5 58.5t110 21.5h28zM429 266q5 24 0 45.5t-17 37.5t-31 25.5t-43 9.5q-23 0 -45.5 -9.5t-41 -25.5t-32 -37.5t-17.5 -45.5q-5 -25 -1 -47t16 -38.5t31 -26t43 -9.5
t46.5 9.5t41 26t32 38.5t18.5 47zM293 616q-16 0 -29.5 6.5t-22 17t-12 25t-0.5 30.5q3 17 12.5 32t22.5 26t29 17.5t32 6.5q34 0 52 -23.5t11 -58.5q-3 -16 -12.5 -30.5t-22.5 -25t-28.5 -17t-31.5 -6.5z" />
    <glyph glyph-name="divide" unicode="&#xf7;" horiz-adv-x="494" 
d="M260 411q-16 0 -29.5 6.5t-22 17.5t-12 25.5t0.5 30.5q3 17 12.5 31.5t22.5 25t28.5 16.5t31.5 6q32 0 51.5 -22.5t12.5 -56.5q-3 -16 -12.5 -30.5t-22.5 -25.5t-29 -17.5t-32 -6.5zM208 159q34 0 52.5 -23.5t11.5 -55.5q-4 -17 -13.5 -32t-22.5 -25.5t-28.5 -16.5
t-31.5 -6q-32 0 -51.5 22.5t-12.5 57.5q4 16 13.5 30.5t22.5 25t28.5 17t31.5 6.5zM462 352l-27 -134h-429l27 134h429z" />
    <glyph glyph-name="oslash" unicode="&#xf8;" horiz-adv-x="661" 
d="M530 535q31 -18 54 -44.5t36.5 -59t17 -70.5t-4.5 -79q-12 -58 -45 -110t-80 -90t-103 -60.5t-115 -22.5h-22l-35 -71h-145l50 103q-31 18 -54.5 44t-37.5 58.5t-18 70t5 78.5q12 59 45 111t79.5 90.5t103.5 61t116 22.5h22l36 71h146zM337 440q-29 -5 -56 -19.5
t-48.5 -35.5t-37 -47.5t-21.5 -55.5q-7 -35 1 -65t28 -52zM492 282q8 36 0 66t-27 53l-137 -275q29 5 56 19t49 34.5t37.5 46.5t21.5 56z" />
    <glyph glyph-name="ugrave" unicode="&#xf9;" horiz-adv-x="637" 
d="M477 645h-91l-59 141h127zM463 543h171l-110 -543h-170l11 52q-41 -31 -76.5 -41.5t-70.5 -10.5q-45 0 -82.5 21.5t-61.5 58t-32.5 86t3.5 105.5q14 68 27 135.5t27 136.5h173l-50 -245q-4 -21 -1 -40.5t12 -34.5t25 -24.5t37 -9.5t41 9.5t35.5 24.5t26.5 34.5t15 40.5z
" />
    <glyph glyph-name="uacute" unicode="&#xfa;" horiz-adv-x="636" 
d="M390 645h-91l77 141h130zM462 543h173l-111 -543h-171l12 52q-42 -31 -77 -41.5t-71 -10.5q-45 0 -82 21.5t-61 58t-32.5 86t2.5 105.5q14 68 27.5 135.5t27.5 136.5h172l-50 -245q-3 -21 0 -40.5t12 -34.5t24.5 -24.5t36.5 -9.5q22 0 41.5 9.5t35.5 24.5t26.5 34.5
t14.5 40.5z" />
    <glyph glyph-name="ucircumflex" unicode="&#xfb;" horiz-adv-x="637" 
d="M461 543h173l-110 -543h-170l11 52q-41 -31 -76.5 -41.5t-70.5 -10.5q-45 0 -82.5 21.5t-61.5 58t-32.5 86t3.5 105.5q14 68 27 135.5t27 136.5h173l-50 -245q-4 -21 -1 -40.5t12 -34.5t25 -24.5t37 -9.5t41 9.5t35.5 24.5t26.5 34.5t15 40.5zM345 636h-123l139 150h111
l77 -150h-122l-30 59z" />
    <glyph glyph-name="udieresis" unicode="&#xfc;" horiz-adv-x="637" 
d="M288 616q-16 0 -29.5 6.5t-22 17t-12 25t-0.5 30.5q8 35 36 58.5t62 23.5q32 0 51.5 -23.5t12.5 -58.5q-3 -16 -12.5 -30.5t-22.5 -25t-29.5 -17t-33.5 -6.5zM474 616q-32 0 -51 23.5t-12 55.5q3 17 12.5 32t22.5 26t28.5 17.5t31.5 6.5q35 0 53 -23.5t11 -58.5
q-3 -16 -11.5 -30.5t-21.5 -25t-29.5 -17t-33.5 -6.5zM463 543h171l-110 -543h-170l11 52q-41 -31 -76.5 -41.5t-70.5 -10.5q-45 0 -82.5 21.5t-61.5 58t-32.5 86t3.5 105.5q14 68 27 135.5t27 136.5h173l-50 -245q-4 -21 -1 -40.5t12 -34.5t25 -24.5t37 -9.5t41 9.5
t35.5 24.5t26.5 34.5t15 40.5z" />
    <glyph glyph-name="yacute" unicode="&#xfd;" horiz-adv-x="639" 
d="M399 645h-91l77 141h127zM685 543l-316 -543l-150 -257h-180l128 218l-103 582h180l61 -345l200 345h180z" />
    <glyph glyph-name="thorn" unicode="&#xfe;" horiz-adv-x="670" 
d="M449 543q50 0 90 -21.5t65.5 -58.5t34.5 -87t-2 -106t-40 -105.5t-69.5 -86t-89 -57.5t-98.5 -21h-25q-40 0 -73 12.5t-57 35.5l-63 -305h-171l211 1043h171l-59 -293q36 24 73.5 37t76.5 13h25zM462 286q5 21 0 40.5t-16.5 34.5t-29.5 23.5t-40 8.5t-43.5 -8.5
t-39 -23.5t-30 -34.5t-16.5 -40.5l-5 -29q-5 -22 -1 -41.5t15.5 -34t29.5 -23t40 -8.5t43.5 8.5t39 23t30.5 34t17 41.5z" />
    <glyph glyph-name="ydieresis" unicode="&#xff;" horiz-adv-x="639" 
d="M483 616q-35 0 -53 23.5t-11 55.5q3 17 12.5 32t22.5 26t29 17.5t32 6.5q32 0 51 -23.5t12 -58.5q-3 -16 -12.5 -30.5t-22.5 -25t-28.5 -17t-31.5 -6.5zM296 616q-34 0 -52 23.5t-11 55.5q3 17 12.5 32t22.5 26t28.5 17.5t31.5 6.5q32 0 51.5 -23.5t12.5 -58.5
q-3 -16 -12.5 -30.5t-22.5 -25t-29 -17t-32 -6.5zM685 543l-318 -543l-148 -257h-180l128 218l-103 582h178l61 -345l202 345h180z" />
    <glyph glyph-name="Amacron" unicode="&#x100;" horiz-adv-x="729" 
d="M598 755h-300l25 118h298zM657 0h-186l-25 130h-250l-78 -130h-184l414 700h177zM414 302l-27 148l-87 -148h114z" />
    <glyph glyph-name="amacron" unicode="&#x101;" horiz-adv-x="670" 
d="M553 666h-300l7 34l18 86h298l-16 -86zM496 543h171l-109 -543h-173l11 48q-35 -23 -73 -35.5t-77 -12.5h-25q-50 0 -90.5 21.5t-66 58t-34.5 86t3 105.5q11 56 40 105.5t69.5 86.5t89 58.5t98.5 21.5h25q80 0 130 -50l11 50v0zM428 286q5 21 0.5 40.5t-16 34.5
t-29.5 23.5t-39 8.5q-22 0 -43.5 -8.5t-39 -23.5t-30 -34.5t-17.5 -40.5l-6 -29q-9 -45 16 -76t70 -31q22 0 43.5 8.5t39 23t30 34t16.5 41.5z" />
    <glyph glyph-name="Abreve" unicode="&#x102;" horiz-adv-x="729" 
d="M443 723q-67 0 -100 50q-31 41 -20 100h93q-3 -24 9.5 -40.5t36.5 -16.5q22 0 42 16.5t24 40.5h93q-5 -29 -20.5 -54.5t-38.5 -45.5q-26 -24 -57 -37t-62 -13zM657 0h-184l-25 130h-250l-77 -130h-187l416 700h175zM414 302l-27 148l-87 -148h114z" />
    <glyph glyph-name="abreve" unicode="&#x103;" 
d="M396 636q-33 0 -58 13.5t-42 36.5q-32 43 -19 100h94q-5 -23 7.5 -39.5t35.5 -16.5q24 0 43.5 16.5t24.5 39.5h93q-14 -58 -59 -100q-27 -23 -58 -36.5t-62 -13.5zM493 543h173l-109 -543h-173l9 48q-34 -23 -71.5 -35.5t-75.5 -12.5h-28q-50 0 -90 21.5t-65.5 58t-34 86
t3.5 105.5q11 56 40.5 105.5t70 86.5t89 58.5t98.5 21.5h25q76 0 129 -50l9 50v0zM428 286q4 21 -0.5 40.5t-16.5 34.5t-30 23.5t-40 8.5q-21 0 -42 -8.5t-38.5 -23.5t-30 -34.5t-16.5 -40.5l-7 -29q-8 -45 16.5 -76t69.5 -31q22 0 43 8.5t38.5 23t30.5 34t18 41.5z" />
    <glyph glyph-name="Aogonek" unicode="&#x104;" horiz-adv-x="730" 
d="M486 -82q-29 -12 -28.5 -25t17.5 -20q13 -5 30.5 -2.5t35.5 8.5t35.5 13.5t30.5 14.5l29 -80l-36 -18q-14 -8 -29 -14t-30 -11t-31.5 -8.5t-32.5 -5.5q-21 -2 -44 4.5t-42.5 19.5t-33 31t-14.5 39q-3 28 14 56q15 28 40.5 49t52.5 33q5 2 10.5 3.5t10.5 3.5l-23 120h-250
l-77 -129h-187l416 700h175l116 -618q5 -29 13 -59.5t1 -61.5q-24 -5 -44.5 -8.5t-40.5 -8t-40.5 -10.5t-43.5 -16zM414 302l-28 148l-86 -148h114z" />
    <glyph glyph-name="aogonek" unicode="&#x105;" 
d="M423 -127q12 -5 29 -2.5t35.5 8.5t36.5 13.5t31 14.5l27 -80l-34 -18q-22 -13 -49.5 -21t-55 -11t-53 0.5t-44.5 13.5q-27 15 -39.5 41.5t-8 56.5t27 60t65.5 51h-5l9 48q-34 -23 -72 -35.5t-78 -12.5h-25q-50 0 -90 21.5t-65.5 58t-34.5 86t2 105.5q12 56 41.5 105.5
t70 86.5t89 58.5t97.5 21.5h27q76 0 129 -50l9 50h173l-102 -500l-9 -43l-9 -48q-15 -3 -28.5 -6t-26.5 -6.5t-27.5 -8.5t-31.5 -13q-31 -12 -29.5 -25t18.5 -20zM293 150q22 0 43.5 8.5t39 23t30.5 34t17 41.5l6 29q5 21 0 40.5t-16.5 34.5t-29.5 23.5t-40 8.5t-43.5 -8.5
t-39 -23.5t-30 -34.5t-16.5 -40.5l-5 -29q-5 -22 -1 -41.5t15.5 -34t29.5 -23t40 -8.5z" />
    <glyph glyph-name="Cacute" unicode="&#x106;" horiz-adv-x="772" 
d="M469 732h-93l80 141h127zM358 152q50 0 97 23.5t82 63.5h189q-28 -52 -69.5 -96t-91.5 -75.5t-106.5 -49.5t-114.5 -18h-36q-72 0 -130.5 27.5t-96.5 75t-52.5 111.5t-0.5 136q15 72 55.5 135.5t98 111t127.5 75.5t142 28h37q58 0 106.5 -18t85.5 -49.5t60.5 -75.5
t31.5 -96h-189q-20 38 -58 61t-88 23q-41 0 -79.5 -15.5t-70.5 -42t-54.5 -62t-31.5 -75.5q-9 -41 -0.5 -77t29.5 -63t54 -42.5t74 -15.5z" />
    <glyph glyph-name="cacute" unicode="&#x107;" horiz-adv-x="622" 
d="M390 645h-91l77 141h130zM290 145q32 0 61.5 16.5t49.5 42.5h180q-21 -44 -53.5 -81.5t-73 -64.5t-86.5 -42.5t-94 -15.5h-27q-56 0 -101.5 21t-75 57.5t-40.5 86t1 105.5q11 56 42.5 106t75.5 87t98 58.5t109 21.5h29q48 0 87.5 -15.5t69 -43.5t46.5 -65t20 -81h-180
q-10 26 -32.5 41.5t-53.5 15.5q-24 0 -46.5 -9t-41.5 -24t-32.5 -35.5t-18.5 -44.5l-4 -23q-4 -23 0.5 -43.5t17 -36.5t31.5 -25t42 -9z" />
    <glyph glyph-name="Ccaron" unicode="&#x10c;" horiz-adv-x="770" 
d="M358 152q50 0 96.5 23.5t80.5 63.5h189q-28 -52 -69 -96t-91 -75.5t-106 -49.5t-114 -18h-36q-72 0 -130.5 27.5t-96.5 75t-52.5 111.5t-0.5 136q15 72 55.5 135.5t97.5 111t126.5 75.5t141.5 28h36q58 0 107 -18t86 -49.5t60.5 -75.5t30.5 -96h-188q-19 38 -56.5 61
t-87.5 23q-41 0 -80 -15.5t-71 -42t-54.5 -62t-30.5 -75.5q-9 -41 -0.5 -77t29.5 -63t54 -42.5t74 -15.5zM408 723l-77 150h120l30 -59l54 59h121l-137 -150h-111z" />
    <glyph glyph-name="ccaron" unicode="&#x10d;" horiz-adv-x="623" 
d="M290 145q32 0 61.5 16.5t49.5 42.5h180q-21 -44 -53.5 -81.5t-73 -64.5t-86 -42.5t-92.5 -15.5h-29q-56 0 -101.5 21t-75 57.5t-40.5 86t1 105.5q11 56 42.5 106t76 87t98.5 58.5t110 21.5h27q48 0 88 -15.5t69 -43.5t46 -65t20 -81h-180q-8 26 -31.5 41.5t-54.5 15.5
q-24 0 -46.5 -9t-41 -24t-32 -35.5t-18.5 -44.5l-5 -23q-4 -23 1 -43.5t17.5 -36.5t31 -25t41.5 -9zM333 650l-77 148h123l29 -57l52 57h123l-139 -148h-111z" />
    <glyph glyph-name="Dcaron" unicode="&#x10e;" horiz-adv-x="768" 
d="M417 723l-77 150h123l29 -59l53 59h122l-138 -150h-112zM483 702q67 0 120.5 -25.5t88.5 -69t48.5 -102.5t-0.5 -125l-11 -60q-14 -66 -51.5 -125t-90.5 -102.5t-117 -69t-130 -25.5h-350l143 704h350zM567 380q7 30 1 57.5t-22 48t-41 32.5t-56 12h-179l-73 -360h180
q30 0 59.5 11.5t54 32t42 48t23.5 58.5z" />
    <glyph glyph-name="dcaron" unicode="&#x10f;" horiz-adv-x="739" 
d="M545 786h173l-161 -786h-171l9 48q-34 -23 -72 -35.5t-78 -12.5h-25q-50 0 -90 21.5t-65.5 58t-34.5 86t2 105.5q12 56 41.5 105.5t70 86.5t89 58.5t97.5 21.5h27q76 0 129 -50l59 293v0zM429 286q5 21 0 40.5t-16.5 34.5t-29.5 23.5t-40 8.5t-43 -8.5t-38.5 -23.5
t-30 -34.5t-17.5 -40.5l-5 -29q-5 -22 -0.5 -41.5t16 -34t29.5 -23t39 -8.5q22 0 43.5 8.5t39 23t30.5 34t17 41.5zM811 786q35 0 53 -23.5t11 -55.5q-4 -19 -7 -37.5t-7 -37.5t-13 -36.5t-22 -31t-30 -22t-37 -8.5h-36l11 55l14 4q17 5 18.5 12.5t1.5 21.5q-27 4 -43 26.5
t-9 53.5q3 16 12.5 30.5t22.5 25t28.5 17t31.5 6.5z" />
    <glyph glyph-name="dcroat" unicode="&#x111;" horiz-adv-x="672" 
d="M702 716h75l-18 -86l-7 -32h-72l-123 -598h-173l11 48q-34 -23 -72 -35.5t-78 -12.5h-25q-50 0 -90 21.5t-65.5 58t-34.5 86t2 105.5t40 105.5t69.5 86.5t89 58.5t99.5 21.5h27q76 0 129 -50l21 105h-52l4 32l18 86h53l15 70h171l-14 -70v0zM430 286q4 21 -0.5 40.5
t-16.5 34.5t-30 23.5t-40 8.5t-43.5 -8.5t-39 -23.5t-30 -34.5t-16.5 -40.5l-5 -29q-5 -22 -1 -41.5t15.5 -34t29.5 -23t40 -8.5t43.5 8.5t39 23t30.5 34t17 41.5z" />
    <glyph glyph-name="Emacron" unicode="&#x112;" horiz-adv-x="665" 
d="M573 755h-300l7 31l18 87h300l-18 -87zM657 527h-386l-18 -91h320l-34 -172h-323l-18 -94h389l-37 -170h-559q36 175 70.5 349t70.5 351h561l-36 -173v0z" />
    <glyph glyph-name="emacron" unicode="&#x113;" horiz-adv-x="633" 
d="M387 543q56 0 101.5 -21.5t74.5 -58.5t40.5 -86.5t-0.5 -105.5q-4 -14 -7.5 -28.5t-8.5 -28.5h-387q9 -29 33 -48.5t58 -19.5q19 0 36.5 6t34.5 14h200q-23 -37 -55 -67.5t-69 -52.5t-78.5 -34t-84.5 -12h-27q-56 0 -101.5 21.5t-75 58t-41 86t-0.5 105.5q12 56 44 105.5
t76 86.5t98 58.5t109 21.5h30zM432 327q-7 31 -31 49.5t-60 18.5q-34 0 -66 -18.5t-52 -49.5h209zM546 666h-298l7 34l16 86h300l-18 -86z" />
    <glyph glyph-name="Edotaccent" unicode="&#x116;" horiz-adv-x="665" 
d="M418 730q-29 0 -45 19.5t-9 48.5q5 29 29.5 48.5t52.5 19.5q29 0 45.5 -19.5t11.5 -48.5q-7 -29 -31.5 -48.5t-53.5 -19.5zM657 527h-386l-18 -91h320l-34 -172h-323l-18 -94h389l-37 -170h-559q36 175 70.5 349t70.5 351h561l-36 -173v0z" />
    <glyph glyph-name="edotaccent" unicode="&#x117;" horiz-adv-x="633" 
d="M391 641q-29 0 -45 20.5t-9 49.5q5 28 29.5 48.5t52.5 20.5q29 0 45 -20.5t11 -48.5q-7 -29 -31 -49.5t-53 -20.5zM385 543q56 0 101.5 -21.5t75 -58.5t41 -86.5t0.5 -105.5q-4 -14 -7.5 -28.5t-10.5 -28.5h-385q7 -29 31.5 -48.5t59.5 -19.5q17 0 35 6t34 14h199
q-22 -37 -53 -67.5t-68 -52.5t-78.5 -34t-84.5 -12h-27q-56 0 -101.5 21.5t-75 58t-41 86t-0.5 105.5t42.5 105.5t76 86.5t98.5 58.5t110 21.5h28zM432 327q-7 31 -31 49.5t-60 18.5q-34 0 -66.5 -18.5t-51.5 -49.5h209z" />
    <glyph glyph-name="Eogonek" unicode="&#x118;" horiz-adv-x="664" 
d="M657 527h-388l-18 -91h322l-34 -172h-323l-18 -94h387l-25 -125l-10 -45l-9 -43v-3q-19 -3 -34.5 -6t-30.5 -7t-30.5 -9t-35.5 -14q-29 -12 -28 -25t16 -20q13 -5 30.5 -2.5t36 8.5t36 13.5t29.5 14.5l30 -80l-34 -18q-23 -13 -50.5 -21t-55.5 -11t-53 0.5t-44 13.5
q-26 15 -38.5 41.5t-8.5 56.5t26 60t64 51h-377q36 175 72 349t71 351h559l-34 -173v0z" />
    <glyph glyph-name="eogonek" unicode="&#x119;" horiz-adv-x="633" 
d="M387 543q56 0 100.5 -21.5t74 -58.5t41 -86.5t0.5 -105.5q-4 -14 -7.5 -28.5t-10.5 -28.5h-384q7 -29 31.5 -48.5t59.5 -19.5q19 0 36 6t34 14h200q-34 -53 -83.5 -92t-109.5 -58q-1 -3 -19 -12.5t-42 -22.5t-49.5 -28.5t-42.5 -30.5t-20 -28t18 -21q13 -5 30.5 -2.5
t36 8.5t35.5 13.5t30 14.5l30 -80l-34 -18q-23 -13 -51 -21t-55.5 -11t-53 0.5t-43.5 13.5q-27 16 -39.5 43.5t-7.5 58t28.5 60t68.5 49.5l7 3q-45 9 -80 33.5t-57.5 60t-30 79.5t1.5 93q12 56 43.5 105.5t76 86.5t98.5 58.5t110 21.5h29zM433 327q-7 31 -31.5 49.5
t-59.5 18.5t-66.5 -18.5t-51.5 -49.5h209z" />
    <glyph glyph-name="Ecaron" unicode="&#x11a;" horiz-adv-x="665" 
d="M362 723l-78 150h123l30 -59l52 59h123l-139 -150h-111zM659 527h-388l-18 -91h320l-34 -172h-323l-18 -94h389l-37 -170h-559q36 175 70.5 349t70.5 351h561l-34 -173v0z" />
    <glyph glyph-name="ecaron" unicode="&#x11b;" horiz-adv-x="633" 
d="M335 636l-78 150h123l30 -59l52 59h123l-137 -150h-113zM387 543q56 0 101.5 -21.5t75 -58.5t40.5 -86.5t-1 -105.5q-4 -14 -7.5 -28.5t-8.5 -28.5h-387q9 -29 33 -48.5t58 -19.5q19 0 36.5 6t34.5 14h200q-23 -37 -55 -67.5t-69 -52.5t-78.5 -34t-84.5 -12h-27
q-56 0 -101.5 21.5t-75 58t-41 86t-0.5 105.5q12 56 44 105.5t76.5 86.5t98 58.5t108.5 21.5h30zM432 327q-7 31 -31 49.5t-60 18.5q-34 0 -66 -18.5t-52 -49.5h209z" />
    <glyph glyph-name="Gbreve" unicode="&#x11e;" horiz-adv-x="778" 
d="M450 723q-64 0 -100 50q-28 42 -18 100h93q-5 -24 8.5 -40.5t37.5 -16.5q22 0 41.5 16.5t24.5 40.5h93q-11 -59 -59 -100q-26 -24 -57 -37t-64 -13zM200 320q-7 -30 -0.5 -57.5t22.5 -48t41 -32.5t56 -12h191l18 96h-168l34 170h343l-37 -170l-52 -266h-364
q-66 0 -119.5 25t-88.5 68.5t-48.5 102t0.5 124.5l11 62q14 66 51 124.5t90 102t117 68.5t131 25h361l-34 -170h-364q-31 0 -60.5 -12t-54 -32.5t-41.5 -47.5t-23 -58z" />
    <glyph glyph-name="gbreve" unicode="&#x11f;" horiz-adv-x="672" 
d="M398 636q-32 0 -58 13.5t-42 36.5q-31 43 -20 100h93q-3 -23 9.5 -39.5t36.5 -16.5q23 0 42.5 16.5t23.5 39.5h93q-5 -29 -20.5 -54t-38.5 -46q-26 -23 -57 -36.5t-62 -13.5zM669 543l-105 -520q-9 -44 -30 -83.5t-51 -73t-66.5 -59.5t-77.5 -41q-27 -12 -55.5 -17.5
t-57.5 -5.5h-19q-48 0 -88.5 15.5t-70.5 43.5t-48.5 66t-21.5 82h191q12 -15 30.5 -24.5t42.5 -9.5h20q22 0 43.5 8.5t39 23t30.5 34t17 41.5l4 25q-34 -23 -72.5 -35.5t-77.5 -12.5h-25q-50 0 -90 21.5t-65.5 58t-35 86t1.5 105.5q12 56 41.5 105.5t70 86.5t89.5 58.5
t99 21.5h25q77 0 130 -50l9 50h173zM430 286q5 21 0 40.5t-16.5 34.5t-29.5 23.5t-40 8.5t-43 -8.5t-38.5 -23.5t-30.5 -34.5t-18 -40.5l-4 -29q-4 -22 0.5 -41.5t16 -34t29 -23t38.5 -8.5q22 0 43.5 8.5t39 23t30 34t16.5 41.5z" />
    <glyph glyph-name="Imacron" unicode="&#x12a;" horiz-adv-x="298" 
d="M403 873l-16 -87l-7 -31h-300l7 31l18 87h298zM132 700h173l-141 -700h-173z" />
    <glyph glyph-name="imacron" unicode="&#x12b;" horiz-adv-x="288" 
d="M113 543h171l-109 -543h-173zM398 786l-19 -86l-6 -34h-298l7 34l16 86h300z" />
    <glyph glyph-name="Idotaccent" unicode="&#x130;" horiz-adv-x="296" 
d="M132 700h173l-141 -700h-173zM253 866q29 0 45 -19.5t9 -48.5q-5 -29 -29 -48.5t-53 -19.5t-45 19.5t-11 48.5h2q5 29 29 48.5t53 19.5z" />
    <glyph glyph-name="dotlessi" unicode="&#x131;" horiz-adv-x="287" 
d="M286 543l-111 -543h-173l111 543h173z" />
    <glyph glyph-name="Lslash" unicode="&#x141;" horiz-adv-x="639" 
d="M340 164h236l-34 -164h-400l16 80l-68 -80h-162l273 298l82 402h166l-39 -193l57 59h182l-287 -286z" />
    <glyph glyph-name="lslash" unicode="&#x142;" horiz-adv-x="433" 
d="M509 707l-50 -243l-128 -107l-72 -357h-173l39 184l-128 -104l50 243l128 104l72 359h171l-37 -186z" />
    <glyph glyph-name="Nacute" unicode="&#x143;" horiz-adv-x="819" 
d="M496 732h-93l79 141h127zM689 14l7 -14h-209l-230 459l-93 -459h-173l141 700h216l218 -441l89 441h173z" />
    <glyph glyph-name="nacute" unicode="&#x144;" horiz-adv-x="637" 
d="M404 645h-93l80 141h127zM418 543q46 0 83.5 -21.5t61.5 -58.5t32.5 -87t-2.5 -106q-14 -68 -27.5 -134.5t-29.5 -135.5h-170l50 245q3 20 0 39.5t-12 35.5t-25 25.5t-38 9.5q-21 0 -40.5 -9.5t-35.5 -25.5t-26.5 -35.5t-13.5 -39.5l-50 -245h-173l111 543h171l-11 -54
q39 32 75 43t70 11z" />
    <glyph glyph-name="Ncaron" unicode="&#x147;" horiz-adv-x="819" 
d="M438 723l-77 150h122l30 -59l52 59h123l-139 -150h-111zM688 14l9 -14h-211l-230 459l-93 -459h-173l143 700h214l218 -441l91 441h173z" />
    <glyph glyph-name="ncaron" unicode="&#x148;" horiz-adv-x="638" 
d="M344 636l-77 150h122l30 -59l52 59h123l-139 -150h-111zM419 543q45 0 82 -21.5t61.5 -58.5t33.5 -87t-2 -106q-14 -68 -28.5 -134.5t-28.5 -135.5h-173l50 245q5 20 2 39.5t-12 35.5t-25 25.5t-37 9.5t-40.5 -9.5t-35.5 -25.5t-26.5 -35.5t-13.5 -39.5l-50 -245h-173
l109 543h171l-9 -54q39 32 75 43t70 11z" />
    <glyph glyph-name="Omacron" unicode="&#x14c;" horiz-adv-x="794" 
d="M629 755h-300l6 31l19 87h297l-16 -87zM485 700q73 0 131 -28t96 -75.5t53 -111t0 -135.5t-55 -136t-97 -111.5t-126.5 -75t-141.5 -27.5h-37q-72 0 -130.5 27.5t-96.5 75t-52.5 111.5t0.5 136q14 72 54.5 135.5t97.5 111t126.5 75.5t141.5 28h36zM592 350q9 40 1 75.5
t-29.5 62t-54.5 42t-74 15.5q-40 0 -78.5 -15.5t-70.5 -42t-55 -62t-32 -75.5q-7 -41 1.5 -77t29.5 -63t53.5 -42.5t72.5 -15.5q41 0 80 15.5t71.5 42.5t55 63t29.5 77z" />
    <glyph glyph-name="omacron" unicode="&#x14d;" horiz-adv-x="632" 
d="M545 666h-298l5 34l18 86h300l-18 -86zM384 536q56 0 101.5 -21.5t74.5 -58.5t40 -86.5t-1 -105.5q-11 -55 -42 -104.5t-75.5 -86.5t-98 -58.5t-108.5 -21.5h-30q-56 0 -101.5 21.5t-75 58.5t-40.5 86.5t1 104.5q11 56 42.5 105.5t76 86.5t98.5 58.5t110 21.5h28z
M429 266q5 24 0 45.5t-17 37.5t-31 25.5t-43 9.5q-23 0 -45.5 -9.5t-41 -25.5t-32 -37.5t-17.5 -45.5q-5 -25 -1 -47t16 -38.5t31 -26t43 -9.5q23 0 45.5 9.5t41 26t32.5 38.5t19 47z" />
    <glyph glyph-name="Ohungarumlaut" unicode="&#x150;" horiz-adv-x="795" 
d="M487 700q72 0 130.5 -28t96.5 -75.5t52.5 -111t0.5 -135.5q-15 -72 -55.5 -136t-98 -111.5t-126.5 -75t-140 -27.5h-39q-72 0 -130 27.5t-96 75t-53 111.5t-1 136q15 72 56 135.5t98.5 111t127 75.5t141.5 28h36zM594 350q9 40 0.5 75.5t-29.5 62t-54 42t-74 15.5
q-40 0 -78.5 -15.5t-70.5 -42t-55 -62t-32 -75.5q-7 -41 1.5 -77t29.5 -63t53.5 -42.5t72.5 -15.5q41 0 80 15.5t71.5 42.5t55 63t29.5 77zM558 732h-91l79 141h128zM399 732h-93l79 141h127z" />
    <glyph glyph-name="ohungarumlaut" unicode="&#x151;" horiz-adv-x="634" 
d="M475 645h-91l79 141h128zM384 536q56 0 101.5 -21.5t75 -58.5t41 -86.5t0.5 -105.5q-12 -55 -43.5 -104.5t-75.5 -86.5t-98 -58.5t-110 -21.5h-30q-55 0 -100 21.5t-74.5 58.5t-41 86.5t-0.5 104.5q11 56 42.5 105.5t76 86.5t98.5 58.5t110 21.5h28zM429 266
q5 24 0.5 45.5t-16.5 37.5t-30.5 25.5t-41.5 9.5q-24 0 -46.5 -9.5t-41.5 -25.5t-32.5 -37.5t-18.5 -45.5q-5 -25 -0.5 -47t16.5 -38.5t31 -26t42 -9.5q24 0 46.5 9.5t41.5 26t32 38.5t18 47zM316 645h-94l80 141h127z" />
    <glyph glyph-name="OE" unicode="&#x152;" horiz-adv-x="1204" 
d="M810 528l-21 -92h323l-34 -172h-322l-19 -93h389l-36 -171h-560l10 52q-45 -26 -95 -39t-101 -13h-37q-72 0 -130 27.5t-96 75t-52.5 111.5t-0.5 136q15 72 55.5 135.5t98 111t126.5 75.5t141 28h38q51 0 94.5 -14.5t78.5 -40.5l11 55h562l-36 -172h-387zM594 350
q8 40 -1 75.5t-30 62t-53.5 42t-72.5 15.5q-41 0 -79.5 -15.5t-70.5 -42t-54.5 -62t-31.5 -75.5q-9 -41 -0.5 -77t29.5 -63t54 -42.5t74 -15.5q40 0 78.5 15.5t71 42.5t55 63t31.5 77z" />
    <glyph glyph-name="oe" unicode="&#x153;" horiz-adv-x="1032" 
d="M784 543q56 0 101.5 -21.5t75 -58.5t41 -87t0.5 -106q-4 -14 -7.5 -28t-10.5 -28h-385q8 -29 32 -49t59 -20q19 0 36 6t33 15h200q-22 -37 -53.5 -67.5t-68.5 -52.5t-78.5 -34t-83.5 -12h-28q-53 0 -96 18t-72 52q-45 -35 -97.5 -56t-109.5 -21h-27q-56 0 -101.5 21.5
t-75 58.5t-40.5 86.5t1 104.5q11 56 42.5 105.5t76 86.5t98.5 58.5t110 21.5h28q53 0 96 -19t72 -51q45 36 97.5 56.5t106.5 20.5h28zM429 266q5 24 0 45.5t-17 37.5t-31 25.5t-43 9.5q-23 0 -45.5 -9.5t-41 -25.5t-32 -37.5t-17.5 -45.5q-5 -25 -1 -47t16 -38.5t31 -26
t43 -9.5q23 0 45.5 9.5t41 26t32.5 38.5t19 47zM831 327q-7 31 -31 49.5t-60 18.5q-34 0 -66.5 -18.5t-51.5 -49.5h209z" />
    <glyph glyph-name="Racute" unicode="&#x154;" horiz-adv-x="738" 
d="M465 732h-93l79 141h128zM542 700q49 0 88 -18.5t64.5 -50.5t35 -74.5t-0.5 -90.5q-8 -38 -27 -73t-46 -64.5t-60 -51.5t-70 -34l110 -243h-205l-105 232h-115l-48 -232h-173l48 232l34 170l61 298h409zM483 402q26 0 48 19t27 45t-9.5 43.5t-40.5 17.5h-239l-25 -125
h239z" />
    <glyph glyph-name="racute" unicode="&#x155;" horiz-adv-x="456" 
d="M325 645h-91l77 141h127zM491 543l-37 -175l-25 9q-25 9 -54.5 7t-58 -13t-52 -31.5t-35.5 -48.5l-59 -291h-168l111 543h166l-11 -59q13 11 30.5 22t37.5 19t41.5 13t40.5 5h73z" />
    <glyph glyph-name="Rcaron" unicode="&#x158;" horiz-adv-x="738" 
d="M389 723l-77 150h122l30 -59l52 59h123l-139 -150h-111zM541 700q49 0 88 -18.5t64.5 -50.5t35.5 -74.5t1 -90.5q-8 -38 -27 -73t-46 -64.5t-60.5 -51.5t-71.5 -34l112 -243h-207l-105 232h-116l-45 -232h-173l46 232l36 170l59 298h409zM482 402q26 0 48 19t27 45
t-9.5 43.5t-40.5 17.5h-236l-25 -125h236z" />
    <glyph glyph-name="rcaron" unicode="&#x159;" horiz-adv-x="457" 
d="M265 636l-78 150h123l30 -59l52 59h123l-139 -150h-111zM267 484q14 11 32 22t38 19t40.5 13t39.5 5h72l-34 -175l-27 9q-25 9 -54.5 7t-57.5 -13t-51.5 -31.5t-36.5 -48.5l-59 -291h-166l109 543h168z" />
    <glyph glyph-name="Sacute" unicode="&#x15a;" horiz-adv-x="704" 
d="M434 732h-93l79 141h127zM527 414q49 -17 78 -47.5t40 -68t3.5 -78t-31.5 -78t-64 -69t-96 -50.5q-42 -14 -88 -18.5t-85 -4.5q-41 0 -87 8t-87 26.5t-70.5 48t-37.5 72.5q-2 14 -1.5 28.5t3.5 30.5v4h180q4 -22 18.5 -35.5t34.5 -20.5t43.5 -9.5t44.5 -2.5q26 -2 53 2.5
t49 15.5q28 11 41.5 24.5t13.5 26.5t-12.5 25t-35.5 19q-38 12 -82.5 17.5t-85.5 12.5q-29 7 -57.5 16t-51.5 23q-29 14 -50 36.5t-30 51t-6 61.5t22 67q26 46 67 75.5t87 46.5q40 14 81.5 22t80.5 8q46 0 95.5 -9.5t90.5 -31.5q41 -20 61.5 -44.5t34.5 -66.5l-173 -75
q-9 28 -36 44.5t-61 23t-70.5 3t-66.5 -14.5q-16 -5 -25.5 -13t-13.5 -18q-3 -23 46 -37q8 -3 15.5 -5t15.5 -4q50 -10 102.5 -15.5t102.5 -22.5z" />
    <glyph glyph-name="sacute" unicode="&#x15b;" horiz-adv-x="565" 
d="M363 645h-91l79 141h127zM419 332q59 -21 82.5 -64t14.5 -91.5t-48 -92.5t-106 -66q-32 -10 -65.5 -14t-65.5 -4q-39 0 -81 9t-75 29.5t-51 53.5t-9 81h148q-2 -8 10.5 -15t29.5 -12.5t33.5 -8.5t21.5 -3q9 1 25.5 2.5t33 5.5t29.5 11.5t14 19.5q2 7 -4.5 12t-17.5 8
q-29 11 -60.5 13.5t-62.5 9.5q-23 3 -43.5 11t-40.5 16q-24 12 -40.5 31t-24 43t-4 51t18.5 55q20 35 53.5 59t68.5 38q31 11 63 17t62 6q31 0 64 -5t62 -17t51.5 -32t31.5 -50l-145 -69q-3 9 -16.5 17.5t-24.5 10.5q-15 5 -35.5 5.5t-37.5 -1.5q-9 -1 -24 -4t-24.5 -7.5
t-8.5 -10.5t23 -12q5 -2 11.5 -3.5t11.5 -3.5q39 -7 78 -11t74 -18z" />
    <glyph glyph-name="Scedilla" unicode="&#x15e;" horiz-adv-x="704" 
d="M527 414q49 -17 78 -47.5t39.5 -68t3.5 -78t-31.5 -78t-65.5 -69t-97 -50.5q-34 -12 -74 -17.5t-76 -5.5q-5 -7 -8 -12.5t-5 -10.5q22 -6 41 -15q20 -11 34 -29t18 -42q3 -26 -7 -50q-14 -28 -39 -45q-26 -16 -52 -23.5t-52 -4.5q-14 2 -26 4.5t-26 7.5q-23 7 -44 20
l-22 16l57 70q14 -5 27 -12t27 -10q7 -4 16.5 -5.5t17.5 -3.5q7 0 15.5 1.5t11.5 4.5q4 4 2.5 9t-13.5 12q-11 5 -26 9.5t-29 6.5q-3 2 -6.5 2h-6.5l-30 9q5 27 11 49.5t21 46.5q-36 6 -70.5 17.5t-63.5 30t-49 44t-26 58.5q-2 14 -1.5 28.5t3.5 30.5v4h180
q4 -22 18.5 -35.5t34.5 -20.5t43.5 -9.5t44.5 -2.5q26 -2 53 2.5t49 15.5q28 11 41.5 24.5t13.5 26.5t-12.5 25t-35.5 19q-38 12 -83.5 17.5t-84.5 12.5q-29 7 -57.5 16t-54.5 23q-28 14 -48 36.5t-29 51t-6 61.5t22 67q26 46 67 75.5t87 46.5q40 14 81.5 22t80.5 8
q46 0 95.5 -9.5t90.5 -31.5q39 -20 59.5 -44.5t36.5 -66.5l-173 -75q-9 28 -36 44.5t-61 23t-70.5 3t-66.5 -14.5q-16 -5 -25.5 -13t-13.5 -18q-2 -11 9 -20.5t37 -16.5q8 -3 15 -5l14 -4q51 -10 104 -15.5t103 -22.5z" />
    <glyph glyph-name="scedilla" unicode="&#x15f;" horiz-adv-x="565" 
d="M419 332q59 -21 82.5 -64t15 -91.5t-48 -92.5t-106.5 -66q-27 -10 -55.5 -14t-55.5 -4q-4 -7 -7 -12.5t-5 -10.5q22 -6 41 -15q19 -11 34 -29t19 -42q2 -12 0 -25t-10 -25q-5 -14 -15.5 -25.5t-22.5 -19.5q-26 -16 -52.5 -23.5t-52.5 -4.5q-12 2 -25 4.5t-25 7.5
q-12 3 -23.5 8t-19.5 12l-25 16l57 71q14 -5 27 -12.5t27 -10.5q9 -4 17.5 -5.5t19.5 -3.5q7 0 15 1.5t12 5.5q9 7 -14 20q-10 5 -25 9.5t-27 6.5q-5 2 -14 2l-31 9q5 28 11 51t23 47q-33 6 -62.5 18.5t-50.5 33t-30.5 49t-2.5 65.5h148q-1 -8 12 -15t30 -12.5t33.5 -8.5
t22.5 -3q8 1 23.5 2.5t32 5.5t29.5 11.5t15 19.5q3 14 -23 20q-29 11 -60.5 13.5t-62.5 9.5q-22 3 -43 11t-41 16q-24 12 -40.5 31t-24 43t-4 51t18.5 55q20 35 53.5 59t69.5 38q31 11 63.5 17t61.5 6q32 0 65 -5t62 -17t51 -32t31 -50l-145 -69q-4 9 -17.5 17.5t-23.5 10.5
q-16 5 -35 5.5t-36 -1.5q-10 -1 -25 -4t-25 -7.5t-9 -10.5t23 -12q5 -2 11.5 -3.5t11.5 -3.5q39 -7 77.5 -11t74.5 -18z" />
    <glyph glyph-name="Scaron" unicode="&#x160;" horiz-adv-x="702" 
d="M525 414q49 -17 78.5 -47.5t40 -68t3.5 -78t-31 -78t-64.5 -69t-96.5 -50.5q-39 -14 -85 -18.5t-85 -4.5q-42 0 -89 8t-87.5 26.5t-69.5 48t-36 72.5q-4 14 -3 28.5t5 30.5v4h177q5 -22 20 -35.5t35 -20.5t43 -9.5t43 -2.5q27 -2 54 2.5t51 15.5q28 11 41 24.5t13 26.5
t-12.5 25t-35.5 19q-38 12 -83 17.5t-87 12.5q-27 7 -55 16t-54 23q-29 14 -49.5 36.5t-29.5 51t-5.5 61.5t23.5 67q23 46 64 75.5t88 46.5q39 14 81.5 22t81.5 8q47 0 96 -9.5t91 -31.5q39 -20 59.5 -44.5t33.5 -66.5l-171 -75q-10 28 -37 44.5t-61 23t-70.5 3t-65.5 -14.5
q-31 -9 -38 -31q-4 -11 7.5 -20.5t35.5 -16.5q8 -3 16.5 -5t15.5 -4q51 -10 103.5 -15.5t100.5 -22.5zM373 723l-77 150h120l30 -59l54 59h121l-137 -150h-111z" />
    <glyph glyph-name="scaron" unicode="&#x161;" horiz-adv-x="566" 
d="M281 402q-10 -1 -25.5 -4t-25.5 -7.5t-9 -10.5t23 -12q5 -2 11.5 -3.5t11.5 -3.5q39 -7 78 -11t74 -18q59 -21 82.5 -64t15 -91.5t-47.5 -92.5t-107 -66q-32 -10 -65 -14t-64 -4q-39 0 -81.5 9t-76 29.5t-51.5 53.5t-9 81h147q-1 -8 12 -15t30 -12.5t33.5 -8.5t22.5 -3
q8 1 24 2.5t32.5 5.5t29.5 11.5t14 19.5q3 13 -22 20q-29 11 -60.5 13.5t-62.5 9.5q-23 3 -43.5 11t-40.5 16q-24 12 -40.5 31t-24 43t-4 51t18.5 55q20 35 53.5 59t68.5 38q31 11 63.5 17t61.5 6q32 0 65 -5t62 -17t51 -32t31 -50l-145 -69q-4 9 -17 17.5t-24 10.5
q-15 5 -34 5.5t-36 -1.5zM303 636l-77 150h123l29 -59l53 59h122l-138 -150h-112z" />
    <glyph glyph-name="Umacron" unicode="&#x16a;" horiz-adv-x="736" 
d="M600 755h-300l7 31l18 87h298l-16 -87zM759 700l-77 -380q-13 -66 -50 -124.5t-89.5 -102t-115.5 -68.5t-129 -25t-119.5 25t-88 68.5t-48.5 102t-1 124.5l78 380h172l-34 -173l-43 -206q-6 -31 0 -58t22 -47.5t40.5 -32.5t55.5 -12t60 12t53 32.5t41 47.5t23 58l44 206
l34 173h172z" />
    <glyph glyph-name="umacron" unicode="&#x16b;" horiz-adv-x="638" 
d="M542 666h-298l7 34l16 86h300l-19 -86zM462 543h173l-109 -543h-171l12 52q-42 -31 -77 -41.5t-71 -10.5q-45 0 -82.5 21.5t-61.5 58t-33 86t2 105.5q15 68 29 135.5t28 136.5h172l-50 -245q-4 -21 -1 -40.5t12 -34.5t25 -24.5t37 -9.5t41 9.5t35.5 24.5t26.5 34.5
t15 40.5z" />
    <glyph glyph-name="Uring" unicode="&#x16e;" horiz-adv-x="736" 
d="M425 630q-51 0 -79 36q-12 15 -17.5 37.5t-0.5 46.5q5 26 19.5 47.5t34.5 38.5q19 17 43 27t50 10q24 0 43.5 -10t33.5 -27q14 -15 19 -37.5t0 -48.5q-5 -24 -18.5 -46.5t-34.5 -37.5q-42 -36 -93 -36zM405 750q-4 -19 7 -30q9 -13 29 -13q9 0 18 3t16 10q15 11 18 30
q4 20 -6 32q-4 7 -11.5 10t-16.5 3q-21 0 -34 -13q-17 -11 -20 -32zM759 700l-77 -380q-13 -66 -50 -124.5t-89.5 -102t-115.5 -68.5t-129 -25t-119.5 25t-88 68.5t-48.5 102t-1 124.5l78 380h172l-34 -173l-43 -206q-6 -31 0 -58t22 -47.5t40.5 -32.5t55.5 -12t60 12
t53 32.5t41 47.5t23 58l44 206l34 173h172z" />
    <glyph glyph-name="uring" unicode="&#x16f;" horiz-adv-x="638" 
d="M367 543q-24 0 -44.5 10t-32.5 27q-14 15 -19 37.5t0 46.5q11 51 53 86q42 36 93 36t79 -36q12 -15 18 -37.5t1 -48.5q-5 -24 -20 -46.5t-35 -37.5q-19 -17 -43 -27t-50 -10zM367 695q-7 -5 -12 -13t-9 -18q-2 -9 1 -17t6 -13q11 -14 30 -14q20 0 34 14q7 5 12.5 13
t7.5 17q2 10 0.5 18t-6.5 13q-11 14 -30 14q-8 0 -17.5 -3.5t-16.5 -10.5zM462 543h173l-109 -543h-173l12 52q-40 -31 -75.5 -41.5t-70.5 -10.5q-46 0 -83 21.5t-61 58t-33 86t2 105.5q14 68 28.5 135.5t28.5 136.5h170l-47 -245q-4 -21 -1.5 -40.5t12 -34.5t25 -24.5
t36.5 -9.5t40.5 9.5t35.5 24.5t26.5 34.5t13.5 40.5z" />
    <glyph glyph-name="Uhungarumlaut" unicode="&#x170;" horiz-adv-x="734" 
d="M527 732h-91l77 141h128zM366 732h-91l77 141h130zM757 700l-75 -380q-14 -66 -51 -124.5t-89.5 -102t-116.5 -68.5t-130 -25t-119 25t-87.5 68.5t-48 102t0.5 124.5l77 380h170l-34 -173l-41 -206q-7 -31 -0.5 -58t22.5 -47.5t40 -32.5t54 -12q31 0 60.5 12t53.5 32.5
t41.5 47.5t24.5 58l41 206l36 173h171z" />
    <glyph glyph-name="uhungarumlaut" unicode="&#x171;" horiz-adv-x="636" 
d="M310 645h-91l77 141h130zM471 645h-90l77 141h127zM462 543h173l-111 -543h-171l12 52q-40 -31 -75.5 -41.5t-70.5 -10.5q-46 0 -83 21.5t-61 58t-33 86t2 105.5q14 68 28 135.5t29 136.5h170l-50 -245q-3 -21 0 -40.5t12 -34.5t25 -24.5t38 -9.5q21 0 40.5 9.5
t35.5 24.5t26.5 34.5t13.5 40.5z" />
    <glyph glyph-name="Uogonek" unicode="&#x172;" horiz-adv-x="736" 
d="M759 700l-77 -380q-9 -45 -29.5 -86.5t-49 -77.5t-64.5 -65.5t-77 -49.5q-38 -20 -82 -41t-89 -52q-7 -6 -21 -16t-24 -21t-11.5 -21t15.5 -17q13 -5 30.5 -2.5t35.5 8.5t35.5 13.5t30.5 14.5l30 -80l-37 -18q-22 -13 -49.5 -21t-55 -11t-52.5 0.5t-43 13.5
q-27 16 -39.5 43.5t-8 58t28 60t69.5 49.5q2 2 4 2.5t5 2.5q-53 11 -94 39.5t-66.5 70t-34.5 93.5t2 110l77 380h173l-34 -173l-43 -206q-6 -31 0 -58t22 -47.5t40.5 -32.5t55.5 -12t60 12t53 32.5t41 47.5t23 58l44 206l34 173h172z" />
    <glyph glyph-name="uogonek" unicode="&#x173;" horiz-adv-x="636" 
d="M370 -127q13 -5 30.5 -2.5t35.5 8.5t35.5 13.5t30.5 14.5l29 -80l-36 -18q-22 -13 -49.5 -21t-55 -11t-52.5 0.5t-43 13.5q-27 16 -40 43.5t-8 58t29 60t69 49.5q3 2 5 2.5t4 2.5l11 45q-41 -31 -76.5 -41.5t-70.5 -10.5q-45 0 -82.5 21.5t-61.5 58t-32.5 86t3.5 105.5
q14 68 27 135.5t27 136.5h173l-50 -245q-4 -21 -1 -40.5t12 -34.5t25 -24.5t37 -9.5t41 9.5t35.5 24.5t26.5 34.5t15 40.5l48 245h173l-110 -543h-2l-9 -43v-2q-19 -4 -34.5 -7t-30.5 -6.5t-31 -9t-36 -14.5q-29 -12 -28.5 -25t17.5 -20z" />
    <glyph glyph-name="Ydieresis" unicode="&#x178;" horiz-adv-x="706" 
d="M517 711q-32 0 -50.5 23.5t-10.5 54.5q7 32 34 54.5t59 22.5t50 -22.5t11 -54.5q-3 -15 -12 -29.5t-21.5 -25t-28 -17t-31.5 -6.5zM781 700l-323 -361l-27 -28l-39 -193l-25 -118h-170l22 116l41 198l-14 25l-179 361h211l105 -211l188 211h210zM337 711q-32 0 -50 23.5
t-11 54.5q3 16 11.5 30t21.5 24.5t28.5 16.5t31.5 6q15 0 28 -6t21.5 -16.5t12 -24.5t0.5 -30q-4 -15 -13 -29.5t-21.5 -25t-27.5 -17t-32 -6.5z" />
    <glyph glyph-name="Zacute" unicode="&#x179;" horiz-adv-x="695" 
d="M427 732h-91l78 141h129zM689 516l-443 -346h372l-34 -170h-616l39 182l441 345h-373l36 173h614z" />
    <glyph glyph-name="zacute" unicode="&#x17a;" horiz-adv-x="571" 
d="M365 645h-93l79 141h127zM578 543l-34 -170v-3h-2l-259 -200h220l-34 -170h-477l34 170h2l260 200h-221l34 173h477z" />
    <glyph glyph-name="Zdotaccent" unicode="&#x17b;" horiz-adv-x="695" 
d="M424 730q-29 0 -45.5 19.5t-9.5 48.5q5 29 30 48.5t52 19.5q29 0 45.5 -19.5t11.5 -48.5q-7 -29 -31 -48.5t-53 -19.5zM687 516l-441 -346h373l-36 -170h-614l37 182l443 345h-373l34 173h616z" />
    <glyph glyph-name="zdotaccent" unicode="&#x17c;" horiz-adv-x="571" 
d="M357 620q-17 0 -30.5 6.5t-22 17.5t-11.5 25.5t0 30.5q3 17 12.5 31.5t22.5 25.5t29 17t32 6q32 0 51.5 -23t11.5 -57q-3 -16 -12.5 -30.5t-22.5 -25.5t-28.5 -17.5t-31.5 -6.5zM580 543l-34 -170v-3h-3l-259 -200h221l-37 -170h-477l36 170l260 200h-221l36 173h478z
" />
    <glyph glyph-name="zcaron" unicode="&#x17e;" horiz-adv-x="571" 
d="M303 636l-77 150h123l29 -59l53 59h122l-138 -150h-112zM578 543l-34 -170v-3h-2l-259 -200h220l-34 -170h-477l34 170h2l260 200h-221l34 173h477z" />
    <glyph glyph-name="circumflex" unicode="&#x2c6;" horiz-adv-x="349" 
d="M378 550h-121l-29 59l-55 -59h-120l136 150h112z" />
    <glyph glyph-name="caron" unicode="&#x2c7;" horiz-adv-x="447" 
d="M387 700l-138 -150h-112l-77 150h123l29 -59l53 59h122z" />
    <glyph glyph-name="breve" unicode="&#x2d8;" horiz-adv-x="317" 
d="M377 700q-11 -59 -59 -100q-26 -24 -57 -37t-63 -13q-31 0 -57 13t-41 37q-30 39 -21 100h94q-4 -24 8.5 -40.5t36.5 -16.5q23 0 42.5 16.5t23.5 40.5h93z" />
    <glyph glyph-name="dotaccent" unicode="&#x2d9;" horiz-adv-x="229" 
d="M186 704q32 0 51 -23.5t12 -55.5q-3 -16 -12.5 -30.5t-22.5 -25.5t-28.5 -17.5t-31.5 -6.5t-29.5 6.5t-22 17.5t-12 25.5t-0.5 30.5q7 32 35 55.5t61 23.5z" />
    <glyph glyph-name="ogonek" unicode="&#x2db;" horiz-adv-x="327" 
d="M145 -127q13 -5 30 -2.5t35.5 8.5t36 13.5t30.5 14.5l29 -80l-36 -18q-22 -13 -49.5 -21t-55 -11t-52.5 0.5t-43 13.5q-27 16 -40 43.5t-8.5 58t28.5 60t70 49.5q19 9 39.5 14t39.5 9q28 7 54 11t53 9l-18 -88v-2q-19 -4 -34.5 -7t-30.5 -6.5t-31 -9t-36 -14.5
q-29 -12 -28.5 -25t17.5 -20z" />
    <glyph glyph-name="hungarumlaut" unicode="&#x2dd;" horiz-adv-x="486" 
d="M298 700h127l-113 -141h-93zM137 700h127l-114 -141h-91z" />
    <glyph glyph-name="Sigma" unicode="&#x3a3;" horiz-adv-x="595" 
d="M600 539h-303l84 -189l-161 -191h302l-31 -159h-537l14 68l245 282l-132 280l14 70h536z" />
    <glyph glyph-name="endash" unicode="&#x2013;" horiz-adv-x="552" 
d="M526 384l-35 -173h-486l34 173h487z" />
    <glyph glyph-name="emdash" unicode="&#x2014;" horiz-adv-x="924" 
d="M898 384l-36 -173h-857l36 173h857z" />
    <glyph glyph-name="quoteleft" unicode="&#x2018;" horiz-adv-x="239" 
d="M183 607q29 -5 44.5 -27t10.5 -53q-3 -16 -12.5 -30.5t-23 -25t-29.5 -17t-33 -6.5q-32 0 -50.5 23.5t-13.5 55.5q5 19 8.5 37.5t7.5 37.5q3 18 11.5 35.5t21.5 31.5t30.5 22.5t38.5 8.5h34l-9 -55l-16 -4q-17 -7 -17.5 -14.5t-2.5 -19.5z" />
    <glyph glyph-name="quoteright" unicode="&#x2019;" horiz-adv-x="237" 
d="M191 714q32 0 51 -23.5t12 -56.5q-3 -18 -7 -36.5t-9 -37.5q-3 -19 -11.5 -37t-21 -31.5t-29.5 -21.5t-38 -8h-36l11 54l14 5q17 5 18.5 12.5t1.5 21.5q-29 4 -44 26.5t-8 52.5q3 17 11.5 31.5t21.5 25t29.5 17t33.5 6.5z" />
    <glyph glyph-name="quotesinglbase" unicode="&#x201a;" horiz-adv-x="216" 
d="M69 161q16 0 29.5 -6.5t22 -17t12 -25t0.5 -30.5q-4 -19 -7.5 -37.5t-8.5 -37.5q-3 -19 -11.5 -36.5t-21.5 -31t-30 -22t-37 -8.5h-37l12 55l13 4q17 5 19 12.5t2 21.5q-29 4 -44.5 26.5t-7.5 53.5q3 16 12.5 30.5t22.5 25t28.5 17t31.5 6.5z" />
    <glyph glyph-name="quotedblleft" unicode="&#x201c;" horiz-adv-x="413" 
d="M173 607q29 -5 44.5 -27t10.5 -53q-3 -16 -12.5 -30.5t-23 -25t-29.5 -17t-33 -6.5q-32 0 -50.5 23.5t-13.5 55.5q5 19 8.5 37.5t7.5 37.5q3 18 11.5 35.5t21.5 31.5t30.5 22.5t38.5 8.5h34l-9 -55l-16 -4q-17 -7 -17.5 -14.5t-2.5 -19.5zM369 607q29 -5 44 -27t10 -53
q-3 -16 -12.5 -30.5t-22.5 -25t-29.5 -17t-33.5 -6.5q-32 0 -50 23.5t-13 55.5q5 19 8.5 37.5t7.5 37.5q3 18 11.5 35.5t21.5 31.5t30.5 22.5t38.5 8.5h34l-9 -55l-16 -4q-9 -3 -12.5 -6.5t-5 -7.5t-1.5 -9t-1 -11z" />
    <glyph glyph-name="quotedblright" unicode="&#x201d;" horiz-adv-x="415" 
d="M180 700q32 0 51 -23.5t12 -56.5q-3 -18 -7.5 -36.5t-8.5 -37.5q-3 -19 -11.5 -37t-21 -31.5t-29.5 -21.5t-38 -8h-36l11 54l14 5q17 5 18 13t2 21q-29 4 -44 26.5t-10 52.5q7 33 35 56.5t63 23.5zM375 700q32 0 51.5 -23.5t12.5 -56.5q-4 -18 -8.5 -36.5t-7.5 -37.5
t-11.5 -37t-21.5 -31.5t-30 -21.5t-37 -8h-37l12 54l13 5q17 5 19 12.5t2 21.5q-29 4 -44 26.5t-8 52.5q5 33 33 56.5t62 23.5z" />
    <glyph glyph-name="quotedblbase" unicode="&#x201e;" horiz-adv-x="412" 
d="M69 161q34 0 52.5 -23.5t11.5 -55.5q-4 -19 -7 -37.5t-7 -37.5t-12.5 -36.5t-21.5 -31t-30 -22t-38 -8.5h-37l12 55l13 4q17 5 19 12.5t2 21.5q-28 4 -44 26.5t-9 53.5q4 16 13.5 30.5t22.5 25t28.5 17t31.5 6.5zM264 161q35 0 53 -23.5t11 -55.5q-4 -19 -7 -37.5
t-7 -37.5t-12.5 -36.5t-21 -31t-30 -22t-38.5 -8.5h-36l11 55l14 4q17 5 18.5 12.5t1.5 21.5q-27 4 -42 26.5t-10 53.5q3 16 12.5 30.5t22.5 25t28.5 17t31.5 6.5z" />
    <glyph glyph-name="dagger" unicode="&#x2020;" horiz-adv-x="540" 
d="M545 543l-34 -173h-150l-127 -627h-173l127 627h-150l35 173h150l31 157h173l-32 -157h150z" />
    <glyph glyph-name="bullet" unicode="&#x2022;" horiz-adv-x="520" 
d="M306 573q46 0 83 -17.5t61 -48t33 -71t0 -86.5t-35 -86.5t-62.5 -71t-80.5 -48t-90 -17.5t-83 17.5t-61.5 48t-33.5 71t0 86.5t35 86.5t62 71t80.5 48t91.5 17.5z" />
    <glyph glyph-name="perthousand" unicode="&#x2030;" horiz-adv-x="904" 
d="M177 339q-29 0 -52 10.5t-38.5 29.5t-21.5 44t0 54l16 82q6 29 22 54.5t39 45t51 30.5t57 11h18q28 0 51 -11t38.5 -30.5t21.5 -45t0 -54.5l-18 -82q-5 -29 -21 -54t-39 -44t-51 -29.5t-57 -10.5h-16zM156 477q-3 -19 8 -33t31 -14h16q20 0 37.5 14t21.5 33l18 82
q4 20 -8.5 35t-32.5 15h-16q-20 0 -37 -15t-22 -35zM677 700l-546 -700h-109l548 700h107zM729 361q29 0 52 -11t38 -30t21 -45t0 -55l-16 -81q-6 -29 -22 -54.5t-39.5 -44t-51.5 -29.5t-57 -11h-16q-26 0 -47.5 8.5t-36.5 25.5l-2 2l-2 -2q-23 -17 -48.5 -25.5t-51.5 -8.5
h-16q-29 0 -52.5 11t-38.5 29.5t-21 44t0 54.5l16 81q6 29 22 55t39 45t50.5 30t56.5 11h16q26 0 48.5 -9.5t38.5 -26.5h2q50 36 102 36h16zM543 220q5 21 -7 35.5t-32 15.5h-16q-20 0 -37 -15t-22 -36l-16 -81q-5 -21 7 -34.5t32 -13.5h16q20 0 37.5 13.5t21.5 34.5z
M750 220q3 21 -8.5 36t-30.5 15h-18q-19 0 -36.5 -15t-20.5 -36l-18 -81q-4 -21 7.5 -34.5t30.5 -13.5h19q19 0 36 13.5t20 34.5z" />
    <glyph glyph-name="guilsinglleft" unicode="&#x2039;" horiz-adv-x="448" 
d="M250 350l132 -193h-207l-154 193l63 52l171 141h204z" />
    <glyph glyph-name="guilsinglright" unicode="&#x203a;" horiz-adv-x="448" 
d="M428 350l-234 -193h-204l209 193l-132 193h207l111 -141z" />
    <glyph glyph-name="Euro" unicode="&#x20ac;" horiz-adv-x="632" 
d="M421 532h-29q-14 0 -27 -6t-23 -15h127l-29 -145h-141l-5 -20h141l-30 -146h-134q11 -32 48 -32h230l-37 -168h-227q-43 0 -79 15t-61 42t-37.5 63.5t-8.5 79.5h-85l30 145h82l4 21h-81l29 145h84q15 40 43 74.5t63 60t75.5 40t82.5 14.5h229l-34 -168h-200v0z" />
    <glyph glyph-name="trademark" unicode="&#x2122;" horiz-adv-x="629" 
d="M324 632h-91l-43 -205h-66l41 205h-91l14 68h250zM663 700l-55 -273h-66l34 178l-47 -62l-28 -32h-38l-14 32l-25 62l-34 -178h-68l57 273h86l36 -91l75 91h87z" />
    <glyph glyph-name="radical" unicode="&#x221a;" horiz-adv-x="573" 
d="M700 873l-477 -996l-114 321h-113l22 109h153l52 -118l327 684h150z" />
    <glyph glyph-name="notequal" unicode="&#x2260;" horiz-adv-x="573" 
d="M395 386l-36 -72h155l-37 -173h-202l-70 -141h-180l70 141h-84l34 173h135l36 72h-155l34 173h205l68 141h180l-68 -141h84l-37 -173h-132z" />
    <glyph glyph-name="lessequal" unicode="&#x2264;" horiz-adv-x="598" 
d="M-33 0h530l-34 -173h-530zM272 350l257 -193h-314l-186 138l20 107l243 141h316z" />
    <glyph glyph-name="greaterequal" unicode="&#x2265;" horiz-adv-x="598" 
d="M-39 0h529l-34 -173h-532zM572 402l-23 -107l-243 -138h-314l334 193l-256 193h316z" />
    <glyph glyph-name="uniF000" unicode="&#xf000;" horiz-adv-x="732" 
d="M659 0h-186q-10 52 -17.5 91.5t-13.5 73t-12 64t-12 63t-13 71t-16 87.5q-29 -49 -52.5 -88t-43.5 -72.5t-39 -65t-39 -65.5t-43 -72.5t-51 -86.5h-187l416 700h177z" />
    <glyph glyph-name="uniF001" unicode="&#xf001;" horiz-adv-x="746" 
d="M555 700q45 0 81.5 -17t60.5 -47t33 -69.5t0 -84.5q-7 -38 -25.5 -71.5t-44.5 -60.5q15 -27 19.5 -61.5t-3.5 -70.5q-9 -45 -34 -84.5t-60.5 -69.5t-79 -47t-88.5 -17h-427l55 264l34 172h427q19 0 35 13.5t19 32.5q4 19 -6.5 32t-29.5 13h-425l34 173h425zM448 170
q19 0 35.5 14.5t21.5 33.5q4 19 -7.5 32.5t-28.5 13.5h-255l-18 -94h252z" />
    <glyph glyph-name="uniF002" unicode="&#xf002;" horiz-adv-x="763" 
d="M480 702q66 0 119.5 -25.5t88.5 -69t49 -102.5t0 -125l-14 -60q-13 -66 -50 -125t-89.5 -102.5t-116.5 -69t-130 -25.5h-353l80 391h173l-44 -219h178q30 0 59.5 11.5t54.5 32t42.5 48t24.5 58.5l12 60q6 30 -0.5 57.5t-23 48t-41.5 32.5t-56 12h-350l35 172h352z" />
    <glyph glyph-name="uniF003" unicode="&#xf003;" horiz-adv-x="660" 
d="M39 264l36 172h493l-34 -172h-495zM582 170l-37 -170h-559l34 170h562zM127 700h561l-36 -173h-559z" />
    <glyph glyph-name="uniF004" unicode="&#xf004;" horiz-adv-x="642" 
d="M572 436l-36 -172h-323l-52 -264h-173l89 436h495zM690 700l-34 -173h-561l34 173h561z" />
    <glyph glyph-name="uniF005" unicode="&#xf005;" horiz-adv-x="777" 
d="M201 320q-7 -31 -1 -58.5t22 -48t41 -32t56 -11.5h191l18 94l34 172h173l-35 -172l-54 -266h-361q-67 0 -120.5 25.5t-88.5 69t-48.5 102.5t0.5 125l11 60q14 66 51 125t89.5 102.5t116 69t130.5 25.5h363l-34 -172h-364q-30 0 -59.5 -12t-54 -32.5t-42 -48t-23.5 -57.5z
" />
    <glyph glyph-name="uniF006" unicode="&#xf006;" horiz-adv-x="716" 
d="M90 355l105 -200l-32 -155h-173l143 700h173l-32 -155zM447 348l189 -348h-216l-50 95l-134 257l134 139l195 209h216z" />
    <glyph glyph-name="uniF007" unicode="&#xf007;" horiz-adv-x="851" 
d="M110 602l114 -288l-64 -314h-173zM642 452l-125 -154l-71 -84h-97l-34 84l-64 154l-98 248h200l96 -236l191 236h199zM844 602l-123 -602h-172l63 314z" />
    <glyph glyph-name="uniF008" unicode="&#xf008;" horiz-adv-x="813" 
d="M105 584l123 -248l-68 -336h-173zM824 700l-114 -564l-123 248l66 316h171zM539 304l153 -304h-209l-153 307l-195 393h209z" />
    <glyph glyph-name="uniF009" unicode="&#xf009;" horiz-adv-x="723" 
d="M538 700q49 0 88 -18.5t64.5 -50.5t35 -74.5t-0.5 -90.5q-9 -49 -36.5 -91.5t-65.5 -74t-85 -50t-95 -18.5h-237l-47 -232h-173l48 232l34 170h411q26 0 47 19t26 45t-8.5 43.5t-39.5 17.5h-411l36 173h409z" />
    <glyph glyph-name="uniF00A" unicode="&#xf00a;" horiz-adv-x="794" 
d="M485 700q72 0 130.5 -28t96.5 -75.5t52.5 -111t0.5 -135.5q-13 -64 -46 -121.5t-80 -103t-105.5 -76.5t-121.5 -42l-27 -136h-172l27 136l34 166l36 177h173l-36 -177q54 24 93.5 71.5t51.5 105.5q9 40 0.5 75.5t-29.5 62.5t-54 42.5t-74 15.5q-40 0 -78.5 -15.5
t-71 -42.5t-55 -62.5t-31.5 -75.5q-11 -70 16 -118l-41 -205q-43 21 -75 54t-51.5 75t-25 91t5.5 103q15 72 55.5 135.5t97.5 111t126.5 75.5t141.5 28h36z" />
    <glyph glyph-name="uniF00B" unicode="&#xf00b;" horiz-adv-x="737" 
d="M542 700q49 0 88 -18.5t64.5 -50.5t35 -74.5t-0.5 -90.5q-8 -38 -27 -73t-46 -64.5t-60 -51.5t-70 -34l109 -243h-204l-105 232l-77 170h234q24 0 46 19t27 45t-9.5 43.5t-38.5 17.5h-238l-25 -125l-35 -170l-47 -232h-173l48 232l34 170l61 298h409z" />
    <glyph glyph-name="uniF00C" unicode="&#xf00c;" horiz-adv-x="733" 
d="M538 700q48 0 86.5 -18.5t64 -50.5t35.5 -74.5t1 -90.5q-8 -38 -27 -73t-46 -64.5t-60 -51.5t-70 -34l109 -243h-204l-105 232h-118l-45 -232h-173l48 232l34 170h409q26 0 48 19t27 45t-9.5 43.5t-40.5 17.5h-409l34 173h411z" />
    <glyph glyph-name="uniF00D" unicode="&#xf00d;" 
d="M268 450h173l-91 -450h-173zM727 700l-34 -173h-645l36 173h643z" />
    <glyph glyph-name="uniF00E" unicode="&#xf00e;" horiz-adv-x="779" 
d="M356 189l36 -189h-184l-134 700h186l62 -325zM847 700l-389 -650l-43 236l245 414h187z" />
    <glyph glyph-name="uniF00F" unicode="&#xf00f;" horiz-adv-x="1052" 
d="M687 700q4 -93 8 -179t8.5 -171t10.5 -171t14 -179h-187l-16 348l-136 -303l-29 332l145 323h182zM298 239l21 -239h-180l-59 700h177l25 -286zM1114 700l-318 -643l-23 316l162 327h179z" />
    <glyph glyph-name="uniF010" unicode="&#xf010;" horiz-adv-x="761" 
d="M491 350l191 -350h-216l-113 207l-439 -464h-216l577 607l-190 350h213l114 -207l198 207h215z" />
    <glyph glyph-name="uniF011" unicode="&#xf011;" horiz-adv-x="757" 
d="M487 350l330 -607h-216l-250 464l-198 -207h-216l334 350l-191 350h216l112 -207l197 207h216z" />
    </font>
</defs>
</svg>
