<?xml version="1.0" standalone="no"?>
<!DOCTYPE svg PUBLIC "-//W3C//DTD SVG 1.1//EN" "http://www.w3.org/Graphics/SVG/1.1/DTD/svg11.dtd" >
<svg xmlns="http://www.w3.org/2000/svg" xmlns:xlink="http://www.w3.org/1999/xlink" version="1.1">
<metadata>
Created by FontForge 20170731 at Sat Jul 10 11:46:59 2021
 By Aleksey,,,
Alacrity Sans fonts (c) asenbayu 2020. All Rights Reserved
</metadata>
<defs>
<font id="AlacritySansSemiboldItalic" horiz-adv-x="731" >
  <font-face 
    font-family="Alacrity Sans Semibold Italic"
    font-weight="400"
    font-style="italic"
    font-stretch="normal"
    units-per-em="1000"
    panose-1="0 0 0 0 0 0 0 0 0 0"
    ascent="800"
    descent="-200"
    x-height="543"
    cap-height="700"
    bbox="-312 -257 1276 873"
    underline-thickness="50"
    underline-position="-175"
    unicode-range="U+000A-F011"
  />
<missing-glyph horiz-adv-x="527" 
d="M477 700v-700h-427v700h427zM263 371l186 309h-371zM71 650v-601l180 301zM79 21h370l-185 308zM457 47v605l-181 -302z" />
    <glyph glyph-name=".notdef" horiz-adv-x="527" 
d="M477 700v-700h-427v700h427zM263 371l186 309h-371zM71 650v-601l180 301zM79 21h370l-185 308zM457 47v605l-181 -302z" />
    <glyph glyph-name=".null" horiz-adv-x="0" 
 />
    <glyph glyph-name=".null" horiz-adv-x="0" 
 />
    <glyph glyph-name="uni000D" unicode="&#xd;" horiz-adv-x="0" 
 />
    <glyph glyph-name="uni000A" unicode="&#xa;" horiz-adv-x="0" 
 />
    <glyph glyph-name="space" unicode=" " horiz-adv-x="424" 
 />
    <glyph glyph-name="exclam" unicode="!" horiz-adv-x="268" 
d="M90 134q27 0 43.5 -19.5t11.5 -48.5q-8 -28 -31.5 -47t-50.5 -19q-28 0 -44 19t-11 47q7 29 31 48.5t51 19.5zM276 700q-16 -74 -29.5 -135t-27 -118.5t-27 -118.5t-29.5 -135h-121q14 74 25 135t21 118.5t21 118.5t24 135h143z" />
    <glyph glyph-name="quotedbl" unicode="&#x22;" horiz-adv-x="354" 
d="M166 700q27 0 43 -19.5t11 -48.5l-13 -68q-3 -11 -8.5 -24.5t-15.5 -25.5t-23.5 -20t-32.5 -8h-16l7 32q11 2 20.5 9.5t11.5 17.5l4 21q-3 0 -7.5 -1t-7.5 -1q-29 0 -44.5 20t-10.5 48q5 29 29 48.5t53 19.5zM325 700q27 0 43 -19.5t9 -48.5l-14 -68q-1 -11 -6.5 -24.5
t-15 -25.5t-23 -20t-32.5 -8h-16l7 32q8 2 19 9.5t13 17.5l5 21q-5 0 -9 -1t-7 -1q-29 0 -44.5 20t-10.5 48q5 29 29 48.5t53 19.5z" />
    <glyph glyph-name="numbersign" unicode="#" horiz-adv-x="902" 
d="M689 420l-63 -152h163l-50 -120h-163l-62 -148h-122l61 148h-177l-60 -148h-125l62 148h-155l50 120h155l64 152h-155l50 123h155l63 157h125l-66 -157h178l63 157h125l-66 -157h164l-50 -123h-164zM564 420h-175l-63 -152h177z" />
    <glyph glyph-name="dollar" unicode="$" horiz-adv-x="728" 
d="M538 395q47 -16 75.5 -45t39 -64t4 -73t-29.5 -74t-62 -66t-93 -48q-28 -8 -57.5 -13.5t-58.5 -9.5l-18 -95h-123l20 97q-42 6 -84.5 20t-75 38.5t-49 60t-7.5 84.5l3 4h125v-4q-3 -15 6 -27t25 -21t37 -16t41.5 -11t38.5 -6t29 -1q27 0 60 2.5t60 10.5q42 14 62.5 33.5
t22 40t-15.5 38.5t-50 29q-43 14 -89.5 19t-92.5 13q-29 7 -57.5 17t-54.5 22q-26 14 -45 35t-28 47.5t-6.5 57t20.5 62.5q24 43 63.5 71t84.5 45q27 11 57 17.5t61 9.5l18 98h123l-20 -100q32 -5 62.5 -14.5t56 -24t44.5 -34.5t28 -47l-123 -62q-5 19 -24.5 31t-44.5 19
t-51 10t-44 4q-29 0 -64.5 -5.5t-62.5 -17.5q-16 -5 -32.5 -17.5t-19.5 -29.5q-2 -12 6 -23t19 -18q15 -11 36.5 -16.5t40.5 -8.5q53 -12 108.5 -18.5t105.5 -25.5z" />
    <glyph glyph-name="percent" unicode="%" horiz-adv-x="708" 
d="M179 343q-28 0 -50.5 11t-37.5 29.5t-20.5 43.5t-0.5 53l18 84q6 28 22 53t38 43.5t49 29t55 10.5h16q28 0 51 -10.5t38 -29t20.5 -43.5t-0.5 -53l-16 -84q-6 -28 -22 -53t-38 -44t-49 -29.5t-55 -10.5h-18zM152 480q-5 -23 8 -39t37 -16h16q22 0 42 16t24 39l18 84
q5 22 -8.5 38t-37.5 16h-15q-24 0 -44 -16t-25 -38zM677 700l-548 -700h-96l546 700h98zM529 355q28 0 51 -11t38 -29.5t20.5 -43.5t-0.5 -53l-16 -82q-6 -28 -22 -53t-38.5 -43.5t-49.5 -29t-56 -10.5h-16q-28 0 -51 10.5t-38 29t-20.5 43.5t0.5 53l18 82q5 28 21 53
t38.5 43.5t49.5 29.5t55 11h16zM558 218q4 24 -9.5 40.5t-35.5 16.5h-16q-24 0 -43.5 -16.5t-24.5 -40.5l-16 -82q-5 -23 8 -39.5t35 -16.5h18q23 0 42 16.5t24 39.5z" />
    <glyph glyph-name="ampersand" unicode="&#x26;" horiz-adv-x="694" 
d="M482 161l118 -168h-138l-64 91q-57 -46 -122 -72t-130 -14q-51 8 -88.5 40.5t-45.5 81.5q-4 21 -3.5 41.5t7.5 40.5q10 33 28.5 59t42.5 47.5t52.5 38.5t58.5 30q-8 12 -16.5 24t-15.5 24q-19 38 -17.5 84t29.5 91q30 50 80.5 71.5t103.5 21.5q50 0 90.5 -18t54.5 -66
q4 -19 2.5 -38t-4.5 -39q-9 -31 -26 -59.5t-40 -52.5q-19 -19 -42 -35t-47 -30l82 -121l137 125l61 -66zM343 605q-29 0 -55.5 -20t-30.5 -51q-3 -15 1 -30t11 -29t16 -27t17 -23q17 8 33.5 19t31 25t25 30.5t13.5 34.5q8 32 -10.5 51.5t-51.5 19.5zM221 93q34 5 67 23.5
t60 42.5l-102 148q-37 -19 -67.5 -45t-41.5 -67q-7 -20 -5.5 -39t11.5 -33q12 -19 33 -25.5t45 -4.5z" />
    <glyph glyph-name="quotesingle" unicode="'" horiz-adv-x="224" 
d="M182 700q27 0 43 -19.5t9 -48.5l-14 -66q-1 -11 -6.5 -25t-15 -26t-23 -20.5t-32.5 -8.5h-16l7 32q8 4 19 10.5t13 17.5l4 20h-15q-29 0 -44.5 19t-10.5 47q5 29 29 48.5t53 19.5z" />
    <glyph glyph-name="parenleft" unicode="(" horiz-adv-x="524" 
d="M464 700l-3 -11q-133 -92 -206.5 -209.5t-102.5 -259.5q-28 -142 -1 -258.5t122 -206.5l-2 -12h-116q-49 43 -80.5 97.5t-47 116.5t-15.5 129.5t13 136.5q15 68 42.5 135t68 128.5t93.5 116t119 97.5h116z" />
    <glyph glyph-name="parenright" unicode=")" horiz-adv-x="575" 
d="M369 700q49 -43 80.5 -97.5t47.5 -116t16 -128.5t-14 -135q-14 -69 -41 -136.5t-67.5 -129.5t-94.5 -116.5t-120 -97.5h-116l2 12q134 90 208.5 206.5t103.5 258.5t1.5 259.5t-122.5 209.5l2 11h114z" />
    <glyph glyph-name="asterisk" unicode="*" horiz-adv-x="446" 
d="M313 511l120 -47l-34 -46l-34 -43l-91 89l-4 -139h-103l50 139l-125 -89l-16 45l-18 44l143 50l-120 50l34 43l34 45l91 -91l5 139h102l-50 -139l125 89l16 -43v-2l16 -44z" />
    <glyph glyph-name="plus" unicode="+" horiz-adv-x="554" 
d="M532 409l-25 -120h-181l-37 -182h-120l36 182h-182l23 120h184l36 184h121l-36 -184h181z" />
    <glyph glyph-name="comma" unicode="," horiz-adv-x="192" 
d="M52 134q29 0 44.5 -19.5t10.5 -48.5l-14 -66q-3 -11 -8.5 -25t-15 -26t-22.5 -20.5t-31 -8.5h-16l7 32q8 4 17.5 10.5t11.5 17.5l5 20h-16q-28 0 -44 19t-11 47q7 29 31 48.5t51 19.5z" />
    <glyph glyph-name="hyphen" unicode="-" horiz-adv-x="546" 
d="M529 409l-25 -120h-487l25 120h487z" />
    <glyph glyph-name="period" unicode="." horiz-adv-x="189" 
d="M52 134q27 0 43 -19.5t9 -48.5q-5 -28 -28.5 -47t-51.5 -19q-29 0 -45 19t-9 47q5 29 29 48.5t53 19.5z" />
    <glyph glyph-name="slash" unicode="/" horiz-adv-x="389" 
d="M430 700l-343 -700h-128l344 700h127z" />
    <glyph glyph-name="zero" unicode="0" horiz-adv-x="662" 
d="M421 700q53 0 95.5 -20t70 -54.5t38.5 -81t1 -99.5l-39 -190q-10 -52 -39.5 -98.5t-71.5 -81t-92.5 -55t-103.5 -20.5h-38q-53 0 -95.5 20.5t-70 55t-38.5 81t-1 98.5l39 190q11 53 41 99.5t72 81t92.5 54.5t103.5 20h36zM360 577q-27 0 -53.5 -10.5t-48.5 -28.5t-37 -42
t-20 -51l-39 -190q-6 -27 -0.5 -51t19.5 -42t36.5 -28.5t49.5 -10.5h38q27 0 53.5 10.5t48 28.5t36.5 42t21 51l39 190q5 27 -0.5 51t-20 42t-37 28.5t-49.5 10.5h-36z" />
    <glyph glyph-name="one" unicode="1" horiz-adv-x="350" 
d="M204 559l-107 -27l-9 116l143 36l63 16h60l-141 -700h-121z" />
    <glyph glyph-name="two" unicode="2" horiz-adv-x="653" 
d="M296 120h257l-25 -120h-544l23 118q10 48 37 90t65 73.5t84 50t94 18.5h77q23 0 45 9t40.5 24t31.5 35t17 43l2 7q8 46 -17 78.5t-72 32.5h-77q-23 0 -45 -9t-40.5 -24t-31 -35t-17.5 -43v5h-120q10 47 37 88.5t65 72t83.5 48.5t93.5 18h78q48 0 86.5 -18.5t63.5 -50
t34.5 -73.5t-0.5 -90v-7q-9 -48 -36 -90t-65.5 -73.5t-84.5 -49.5t-94 -18h-77q-23 0 -45 -8.5t-40 -23.5t-31 -35t-18 -42h166v-1z" />
    <glyph glyph-name="three" unicode="3" horiz-adv-x="618" 
d="M449 366q28 -6 47.5 -23t31 -39.5t14.5 -48.5t-2 -50q-9 -42 -32.5 -79.5t-57 -65t-74 -44t-82.5 -16.5h-316l25 120h314q18 0 35 7t30.5 18.5t23.5 27t13 32.5q7 35 -12.5 59.5t-55.5 24.5h-234l25 122h202q36 0 65.5 24.5t37.5 59.5q7 35 -13 60t-56 25h-281l22 120
h284q43 0 77 -16t56.5 -43.5t31 -65t-0.5 -80.5q-3 -19 -13 -38t-25 -36.5t-35 -31.5t-45 -23z" />
    <glyph glyph-name="four" unicode="4" horiz-adv-x="616" 
d="M154 273h205l50 247zM536 164h-77l-34 -164h-123l34 164h-339l23 109l430 427h116l-87 -427h80z" />
    <glyph glyph-name="five" unicode="5" horiz-adv-x="630" 
d="M301 121q23 0 45 9t40.5 24.5t31.5 36t17 43.5l5 14q4 24 -1 44.5t-17.5 35.5t-31 24t-41.5 9h-57q-26 0 -50 -11t-43 -30l-146 19l100 361h453l-23 -120h-341l-34 -121q27 14 52.5 19.5t56.5 5.5h57q31 0 57.5 -7.5t49.5 -21.5q47 -31 70 -86t9 -121l-2 -14
q-14 -66 -58 -120.5t-106 -83.5q-27 -14 -57 -22t-61 -8h-57q-60 0 -107 30q-42 26 -65 70.5t-21 99.5h125q5 -34 30 -56.5t63 -22.5h57z" />
    <glyph glyph-name="six" unicode="6" horiz-adv-x="609" 
d="M312 457q14 8 36 11.5t46 2t47.5 -9t42.5 -22.5q40 -31 57 -81t5 -108l-5 -20q-9 -48 -36 -90t-64.5 -73.5t-83 -50t-93.5 -18.5h-61q-48 0 -86.5 18.5t-63 50t-34 73.5t-0.5 90l4 20q7 38 24.5 71t43.5 61l9 9l289 307h150zM185 320q-4 -3 -6 -5l-6 -6q-10 -12 -18 -27
t-11 -32l-3 -20q-10 -47 15 -78.5t72 -31.5h61q22 0 43.5 8.5t39.5 23.5t31 35t18 43l4 20q9 46 -16.5 77.5t-71.5 31.5h-62q-23 0 -47 -11t-43 -28z" />
    <glyph glyph-name="seven" unicode="7" horiz-adv-x="558" 
d="M429 577h-357l25 121h495l-23 -121l-388 -579h-137z" />
    <glyph glyph-name="eight" unicode="8" horiz-adv-x="652" 
d="M21 205q5 25 19.5 52.5t35.5 52t47.5 43t56.5 24.5q-20 9 -34 23t-22.5 31.5t-10.5 37t1 38.5q9 42 32.5 77.5t56.5 61t73.5 40t83.5 14.5h77q43 0 77.5 -14.5t57 -40t31.5 -61t0 -77.5q-3 -19 -13 -38.5t-25 -37t-35 -31.5t-45 -23q28 -6 47.5 -24.5t30 -43t13 -52
t-2.5 -52.5q-8 -42 -32 -79.5t-57.5 -65t-73.5 -44t-82 -16.5h-141q-43 0 -77.5 16.5t-57 44t-31.5 65t0 79.5zM351 121q18 0 34.5 6.5t30.5 18t24 27t13 32.5q3 18 0 35t-11.5 30.5t-22.5 21.5t-32 8h-141q-17 0 -33.5 -8t-31 -21.5t-24.5 -30.5t-13 -35q-7 -35 12 -59.5
t54 -24.5h141zM380 423q18 0 35 6.5t30.5 18t23.5 27t13 32.5q8 34 -12 59t-56 25h-77q-17 0 -33.5 -7t-30 -18.5t-23.5 -26.5t-13 -32q-8 -35 11.5 -59.5t54.5 -24.5h77z" />
    <glyph glyph-name="nine" unicode="9" horiz-adv-x="609" 
d="M297 241q-15 -7 -36.5 -10.5t-45.5 -2.5t-48 8.5t-43 22.5q-38 31 -55.5 80.5t-5.5 108.5l5 22q10 47 37 88.5t64.5 73t83 50t92.5 18.5h61q48 0 86.5 -18.5t63.5 -50t34.5 -73t-0.5 -88.5l-4 -22q-7 -36 -25 -69.5t-44 -62.5l-6 -9l-291 -307h-150zM427 380l9 9
q10 14 18 28.5t11 30.5l5 23q4 22 -0.5 42t-16.5 35t-30.5 23.5t-41.5 8.5h-59q-23 0 -44.5 -8.5t-39.5 -23.5t-30.5 -35t-17.5 -42l-4 -23q-4 -22 0.5 -42t16 -35t29.5 -23.5t40 -8.5h61q26 0 50.5 11t43.5 30z" />
    <glyph glyph-name="colon" unicode=":" horiz-adv-x="222" 
d="M68 134q27 0 43 -19.5t9 -48.5q-5 -28 -28.5 -47t-50.5 -19q-29 0 -44.5 19t-10.5 47q5 29 29 48.5t53 19.5zM150 548q29 0 45.5 -20.5t9.5 -47.5q-5 -28 -29 -48.5t-53 -20.5q-28 0 -44 20.5t-9 48.5q3 14 10.5 26t18.5 21.5t24.5 15t26.5 5.5z" />
    <glyph glyph-name="semicolon" unicode=";" horiz-adv-x="223" 
d="M67 130q28 0 44 -19.5t11 -46.5v-3l-14 -65q-3 -11 -8.5 -25t-15 -26t-23 -20.5t-32.5 -8.5h-16l6 32q9 3 19.5 11t12.5 16l5 23q-4 -2 -8 -2h-8q-29 0 -44.5 19.5t-10.5 48.5q3 14 10.5 26t19 21t25 14t27.5 5zM151 543q28 0 44 -19.5t9 -48.5q-3 -13 -10.5 -25.5
t-18.5 -22t-24 -15t-27 -5.5q-29 0 -44 20.5t-10 47.5q5 29 28.5 48.5t52.5 19.5z" />
    <glyph glyph-name="less" unicode="&#x3c;" horiz-adv-x="476" 
d="M152 350l257 -193h-223l-161 120l29 146l212 120h222z" />
    <glyph glyph-name="equal" unicode="=" horiz-adv-x="563" 
d="M36 293h468l-25 -120h-468zM552 525l-25 -120h-468l25 120h468z" />
    <glyph glyph-name="greater" unicode="&#x3e;" horiz-adv-x="472" 
d="M448 423l-30 -146l-209 -120h-222l336 193l-257 193h221z" />
    <glyph glyph-name="question" unicode="?" horiz-adv-x="556" 
d="M230 134q28 0 44 -19.5t11 -48.5q-7 -28 -30.5 -47t-51.5 -19q-29 0 -44 19t-10 47q5 29 28.5 48.5t52.5 19.5zM351 700q57 0 98 -17t65.5 -45.5t32.5 -65.5t0 -77t-32.5 -79.5t-65.5 -72.5q-22 -19 -45 -31.5t-42.5 -25t-33.5 -27t-18 -36.5l-7 -30h-123q3 9 3 12l1 3
q0 2 0.5 3t0.5 3q7 33 23.5 60.5t38 49t46.5 38.5t49 29q48 25 68.5 60t16.5 66.5t-30.5 52.5t-70.5 19q-55 -4 -97.5 -38t-54.5 -94h-121q9 48 33 91.5t61.5 77.5t88.5 54t115 20z" />
    <glyph glyph-name="at" unicode="@" horiz-adv-x="1009" 
d="M748 677q73 -19 118 -68.5t66 -115.5t19.5 -140.5t-22 -144.5t-59 -128.5t-90.5 -90.5q-34 -23 -72.5 -29t-70.5 8q-36 14 -53 45.5t-13 72.5v7l-5 -4q-16 -13 -36 -23.5t-41 -17.5t-42 -10.5t-40 -3.5h-20q-24 0 -44.5 6t-37.5 17q-45 31 -57.5 85t3.5 112q9 35 29 69
t47 62.5t60.5 50t69.5 30.5q12 3 25.5 5t24.5 2h36t38 -2t36.5 -6t30.5 -13q12 -8 22.5 -22t18.5 -28q12 -20 15 -47.5t1 -54.5q-3 -35 -9.5 -71t-13.5 -70q-8 -42 -2 -65t19.5 -29.5t31.5 2.5t33 31q26 38 44 84t26 94t4.5 95t-20 87t-47.5 69t-77 41q-47 12 -98 11.5
t-105 -2.5q-69 0 -126.5 -31.5t-102.5 -82t-76 -113.5t-46 -125.5t-12.5 -118.5t23.5 -92q27 -45 74.5 -69t104.5 -31q26 -2 56 -1t58 1q27 2 57.5 5t58.5 10l-3 -86q-24 -11 -53 -17t-59 -8.5t-58.5 -3t-51.5 -0.5q-133 0 -223 72q-42 35 -68.5 81t-31.5 103q-6 62 7 132
t43.5 139t76.5 132.5t104.5 112.5t129.5 78t150 29q60 2 117 0t108 -16zM612 266q7 26 3 48.5t-16.5 39.5t-33 27t-46.5 10q-25 0 -50.5 -10t-47.5 -27t-38 -39.5t-23 -48.5l-7 -23q-7 -26 -3 -49t16.5 -40.5t32.5 -27.5t45 -10q26 0 52 10t48 27t38 40t23 48z" />
    <glyph glyph-name="A" unicode="A" 
d="M522 700q35 -180 63 -328q12 -63 24 -124.5t21.5 -113t16.5 -87.5t9 -47h-132l-29 157h-332l-93 -157h-133l419 700h166zM470 280l-57 295l-176 -295h233z" />
    <glyph glyph-name="B" unicode="B" horiz-adv-x="762" 
d="M460 121q18 0 35 6.5t30.5 18t23.5 27t13 32.5q7 34 -12.5 59t-55.5 25h-318l-34 -168h318zM519 409q18 0 35 7t30.5 18.5t23.5 26.5t13 32q8 36 -12 60t-56 24h-318l-34 -168h318zM744 493q-8 -41 -32 -78.5t-59 -64.5q23 -29 31.5 -66t0.5 -79q-9 -43 -32.5 -80
t-57.5 -65t-74.5 -44t-83.5 -16h-441l57 289l25 120l59 291h441q43 0 77.5 -16.5t57 -44.5t31.5 -65.5t0 -80.5z" />
    <glyph glyph-name="C" unicode="C" horiz-adv-x="780" 
d="M637 461q-17 59 -66.5 94.5t-119.5 35.5q-49 0 -97 -19t-88 -52t-68 -76.5t-38 -93.5q-9 -50 1 -94t36.5 -76.5t66.5 -51.5t89 -19q70 0 134 35.5t107 94.5h136q-28 -52 -69.5 -96t-91.5 -75.5t-106.5 -49.5t-114.5 -18h-36q-72 0 -130.5 27.5t-96 75t-52.5 111.5t0 136
q14 72 54.5 135.5t98 111t127.5 75.5t142 28h37q58 0 106.5 -18t85.5 -49.5t60.5 -75.5t31.5 -96h-139z" />
    <glyph glyph-name="D" unicode="D" horiz-adv-x="776" 
d="M624 377q9 42 0.5 78.5t-30.5 63.5t-55.5 42.5t-75.5 15.5h-230q-23 -115 -45.5 -228.5t-45.5 -228.5h230q41 0 80.5 16t72.5 43t56 63.5t32 77.5zM138 700h350q66 0 119.5 -25.5t88.5 -69.5t48.5 -102.5t-0.5 -125.5l-11 -57q-13 -66 -50.5 -124.5t-90 -102t-116 -68.5
t-129.5 -25h-353l25 120q24 115 47 228.5t47 228.5z" />
    <glyph glyph-name="E" unicode="E" horiz-adv-x="665" 
d="M698 700l-25 -123h-439l-34 -168h373l-25 -120h-373l-34 -169h438l-22 -120h-562q36 175 71.5 349t69.5 351h562z" />
    <glyph glyph-name="F" unicode="F" horiz-adv-x="648" 
d="M137 700h562l-25 -123h-439l-34 -168h373l-25 -120h-373l-59 -289h-121z" />
    <glyph glyph-name="G" unicode="G" horiz-adv-x="781" 
d="M152 320q-8 -41 0.5 -77.5t30.5 -63.5t55.5 -43t75.5 -16h241l34 169h-223l23 120h345l-84 -409h-361q-67 0 -120.5 25t-88.5 68.5t-48.5 102t0.5 125.5l11 56q13 67 50 125.5t89.5 102.5t116.5 69.5t131 25.5h363l-25 -123h-363q-41 0 -81 -15.5t-72.5 -42.5t-56 -63.5
t-31.5 -78.5z" />
    <glyph glyph-name="H" unicode="H" horiz-adv-x="752" 
d="M-5 0q36 175 71.5 349t69.5 351h123l-59 -291h377l59 291h121q-36 -177 -71.5 -351t-69.5 -349h-123l59 289h-377l-59 -289h-121z" />
    <glyph glyph-name="I" unicode="I" horiz-adv-x="254" 
d="M138 700h120l-141 -700h-123z" />
    <glyph glyph-name="J" unicode="J" horiz-adv-x="622" 
d="M-59 0l23 120h311q25 0 49 9.5t43.5 26.5t34 39.5t19.5 47.5l93 457h121l-91 -457q-10 -50 -38.5 -94.5t-68.5 -77.5t-88 -52t-99 -19h-309z" />
    <glyph glyph-name="K" unicode="K" horiz-adv-x="718" 
d="M137 700h123l-72 -352l422 352h173l-423 -352l280 -348h-173l-279 347l-71 -347h-121z" />
    <glyph glyph-name="L" unicode="L" horiz-adv-x="630" 
d="M138 700h120q-29 -146 -58 -290t-60 -290h432l-23 -120h-555z" />
    <glyph glyph-name="M" unicode="M" horiz-adv-x="836" 
d="M226 543l-109 -543h-123l144 700h165l126 -302l245 302h166l-141 -700h-123l112 543l-266 -329h-62z" />
    <glyph glyph-name="N" unicode="N" horiz-adv-x="777" 
d="M224 532q-27 -134 -53 -266t-54 -266h-123l144 700h152l264 -527q26 132 52.5 262.5t53.5 264.5h121l-141 -700h-150z" />
    <glyph glyph-name="O" unicode="O" horiz-adv-x="804" 
d="M492 700q72 0 130.5 -28t96 -75.5t52.5 -111t0 -135.5q-14 -72 -54.5 -136t-98 -111.5t-126.5 -75t-141 -27.5h-39q-72 0 -130.5 27.5t-96 75t-52.5 111.5t0 136q14 72 54.5 135.5t98 111t127.5 75.5t142 28h37zM644 350q10 50 -0.5 93.5t-36.5 76.5t-66 52t-90 19
q-49 0 -97 -19t-88 -52t-68 -76.5t-38 -93.5q-9 -50 1 -94t36.5 -76.5t66.5 -51.5t89 -19q50 0 97.5 19t87.5 51.5t68 76.5t38 94z" />
    <glyph glyph-name="P" unicode="P" horiz-adv-x="735" 
d="M138 700h406q49 0 88.5 -18.5t65 -51t35.5 -75.5t0 -91q-10 -49 -37.5 -92t-66 -75t-85 -51t-95.5 -19h-286l-46 -227h-123zM474 348q24 0 47 9t41.5 25t32 37t18.5 45q4 24 -1 44.5t-18 35.5t-32 24t-43 9h-286l-45 -229h286z" />
    <glyph glyph-name="Q" unicode="Q" horiz-adv-x="810" 
d="M491 700q73 0 131 -28t96 -75.5t53 -111t0 -135.5q-14 -69 -49.5 -128.5t-86.5 -105.5l66 -109h-153l-22 34q-84 -41 -175 -41h-39q-72 0 -130 27.5t-96 75t-53 111.5t-1 136q15 72 56 135.5t98.5 111t127 75.5t141.5 28h36zM414 223l109 75l50 -84q52 59 71 136
q10 50 0 93.5t-36 76.5t-66.5 52t-91.5 19q-49 0 -96.5 -19t-87 -52t-67.5 -76.5t-37 -93.5q-10 -50 0 -94t36 -76.5t66 -51.5t89 -19q31 0 59.5 6.5t56.5 18.5z" />
    <glyph glyph-name="R" unicode="R" horiz-adv-x="744" 
d="M638 0h-161l-143 225h-173l-45 -225h-121l141 698h407q50 0 89.5 -18.5t65 -51t35 -75.5t-0.5 -92q-14 -66 -58 -121t-106 -85q-19 -9 -38 -15.5t-39 -9.5l147 -230v0zM232 577q-7 -36 -12.5 -63t-11 -52.5t-10.5 -52.5t-12 -61h286q24 0 47 9t41.5 24t32 35.5t18.5 44.5
q4 24 -1 45t-17 37t-31 25t-42 9h-288z" />
    <glyph glyph-name="S" unicode="S" horiz-adv-x="702" 
d="M552 511q-5 19 -24.5 31t-44.5 19t-51 10t-44 4q-29 0 -64.5 -5.5t-62.5 -17.5q-16 -5 -32.5 -17.5t-19.5 -29.5q-2 -12 6 -23t19 -18q15 -11 36.5 -16.5t40.5 -8.5q27 -6 55 -10t55 -8.5t53 -10t51 -15.5q47 -16 75.5 -45t39 -64t4 -73t-29.5 -74t-62 -66t-93 -48
q-42 -14 -88 -19.5t-85 -5.5q-46 0 -99.5 10.5t-97.5 35t-69 64t-14 97.5l3 4h127l-2 -4q-3 -15 6 -27t25 -21t37 -16t41.5 -11t38.5 -6t29 -1q27 0 60 2.5t60 11.5q42 14 63 33.5t22.5 39.5t-15.5 38.5t-51 29.5q-43 14 -89 18.5t-91 12.5q-29 8 -57 17.5t-54 21.5
q-27 14 -47 35t-29 47.5t-6.5 57t20.5 62.5q24 43 64.5 71t83.5 45q39 14 81.5 22t82.5 8q38 0 80 -6t79.5 -20.5t67 -38.5t41.5 -60z" />
    <glyph glyph-name="T" unicode="T" horiz-adv-x="662" 
d="M317 577h-262l25 121h644l-25 -121h-262l-116 -577h-120z" />
    <glyph glyph-name="U" unicode="U" horiz-adv-x="748" 
d="M244 700q-19 -96 -38.5 -189.5t-38.5 -189.5q-8 -41 0.5 -77.5t30 -63.5t54.5 -43t74 -16q42 0 82 16t73 43t56.5 63.5t32.5 77.5q18 96 36.5 189.5t37.5 189.5h123l-77 -379q-13 -67 -50.5 -125.5t-90 -102t-116 -68.5t-129.5 -25q-67 0 -120.5 25t-88.5 68.5t-48.5 102
t0.5 125.5l75 379h122z" />
    <glyph glyph-name="V" unicode="V" 
d="M213 0l-136 700h132l111 -577l343 577h132l-418 -700h-164z" />
    <glyph glyph-name="W" unicode="W" horiz-adv-x="1015" 
d="M210 700l52 -570l253 570h125l22 -570l284 570h128l-348 -700h-184l-16 441l-198 -441h-182l-63 700h127z" />
    <glyph glyph-name="X" unicode="X" horiz-adv-x="738" 
d="M656 0h-157l-150 252l-254 -252h-155l350 350l-209 350h155l152 -252l255 252h154l-350 -350z" />
    <glyph glyph-name="Y" unicode="Y" horiz-adv-x="704" 
d="M774 698l-375 -407l-56 -291h-123l59 291l-209 407h148l147 -284l262 284h147z" />
    <glyph glyph-name="Z" unicode="Z" horiz-adv-x="687" 
d="M128 121h238.5t238.5 -1l-25 -120h-616l34 161l560 416h-475l25 123h613l-32 -161z" />
    <glyph glyph-name="bracketleft" unicode="[" horiz-adv-x="342" 
d="M389 700l-19 -86h-127l-41 -205t-37.5 -187t-37.5 -187l-41 -205h125l-18 -87h-248q27 131 50.5 247.5t46.5 230t46.5 230.5t50.5 249h250z" />
    <glyph glyph-name="backslash" unicode="\" horiz-adv-x="396" 
d="M291 0h-125l-59 700h125z" />
    <glyph glyph-name="bracketright" unicode="]" horiz-adv-x="345" 
d="M350 700q-27 -132 -51 -249t-46.5 -230.5t-46 -230t-49.5 -247.5h-250l18 87h125q22 110 41.5 205t38 187t38 187t41.5 205h-127l18 86h250z" />
    <glyph glyph-name="asciicircum" unicode="^" horiz-adv-x="477" 
d="M468 527l-41 -204l-138 275l-250 -275l43 204l154 173h146z" />
    <glyph glyph-name="underscore" unicode="_" horiz-adv-x="753" 
d="M688 0l-25 -123h-598l23 123h600z" />
    <glyph glyph-name="grave" unicode="`" horiz-adv-x="239" 
d="M240 559h-73l-59 141h107z" />
    <glyph glyph-name="a" unicode="a" horiz-adv-x="669" 
d="M663 544l-109 -544h-123l18 92q-41 -43 -93 -67.5t-107 -24.5h-27q-49 0 -89 21.5t-65.5 58t-34.5 86t3 105.5q11 56 40 106t69.5 87t89 58.5t98.5 21.5h25q55 0 97.5 -25.5t66.5 -67.5l20 93h121zM474 286q7 31 1 58.5t-22.5 48t-41.5 32.5t-57 12q-31 0 -60.5 -12
t-54 -32.5t-42 -48t-23.5 -58.5l-7 -28q-6 -31 1 -58t23.5 -47.5t41 -32.5t55.5 -12t60.5 12t54.5 32.5t42.5 47.5t23.5 58z" />
    <glyph glyph-name="b" unicode="b" horiz-adv-x="669" 
d="M447 544q50 0 89.5 -21.5t65 -58.5t35 -87t-2.5 -106q-11 -56 -40.5 -105.5t-70 -86t-89 -58t-98.5 -21.5h-25q-55 0 -97.5 24.5t-66.5 67.5l-18 -92h-123l160 787h122l-68 -336q43 42 94 67.5t106 25.5h27zM501 286q6 31 0 58.5t-22.5 48t-41.5 32.5t-56 12t-60.5 -12
t-54 -32.5t-42.5 -48t-25 -58.5l-5 -29q-6 -30 0.5 -57.5t23 -47.5t41.5 -32t56 -12t60.5 12t54 32t42 47.5t23.5 57.5z" />
    <glyph glyph-name="c" unicode="c" horiz-adv-x="624" 
d="M577 193q-21 -42 -53 -77t-71.5 -61t-84 -40.5t-89.5 -14.5h-29q-56 0 -101.5 21.5t-75 58t-40.5 86t1 105.5q11 56 42.5 105.5t76 86.5t98.5 58.5t110 21.5h27q46 0 84.5 -14.5t67.5 -40t47 -61t22 -77.5h-139q-10 38 -41 62.5t-77 24.5q-31 0 -60.5 -12t-54 -32.5
t-41.5 -48t-23 -57.5l-7 -30q-6 -31 0.5 -58t23 -47.5t41 -32.5t55.5 -12q45 0 85.5 23.5t66.5 62.5h139z" />
    <glyph glyph-name="d" unicode="d" horiz-adv-x="671" 
d="M713 787l-158 -787h-123l20 92q-43 -43 -95 -67.5t-107 -24.5h-25q-50 0 -90 21.5t-65.5 58t-35 86t1.5 105.5t40.5 106t70 87t89 58.5t98.5 21.5h27q55 0 96.5 -25.5t67.5 -67.5l68 336h120zM477 286q6 31 -0.5 58.5t-23 48t-41.5 32.5t-55 12q-32 0 -62 -12
t-54.5 -32.5t-41.5 -48t-24 -58.5l-4 -29q-7 -30 -1 -57.5t22 -47.5t41 -32t55 -12q32 0 62 12t55 32t42 47.5t23 57.5z" />
    <glyph glyph-name="e" unicode="e" horiz-adv-x="640" 
d="M607 270l-14 -45h-439q0 -25 11 -47t29 -37.5t42 -24.5t50 -9q36 0 75.5 15.5t65.5 41.5h137q-23 -36 -55 -66t-69 -52t-77.5 -34t-82.5 -12h-28q-56 0 -101.5 21t-75 57.5t-41 86t-0.5 105.5t42.5 106t76 87t98.5 58.5t110 21.5h28q56 0 101.5 -21.5t75 -58.5t41 -87
t0.5 -106zM486 316q0 26 -10.5 47.5t-28.5 38t-42 25.5t-51 9t-55 -9t-52.5 -25.5t-44 -38t-29.5 -47.5h313z" />
    <glyph glyph-name="f" unicode="f" horiz-adv-x="352" 
d="M368 664q-26 0 -42.5 -6t-27 -18t-16 -30t-9.5 -42l-5 -25h120l-25 -123h-120l-86 -420h-121l84 420h-59l23 123h61l14 62q0 11 7 25q17 51 57.5 89.5t89.5 55.5q33 11 64 11h91l-25 -122h-75z" />
    <glyph glyph-name="g" unicode="g" horiz-adv-x="672" 
d="M241 -136q31 0 60 10.5t54 28.5t45 43t32 54q2 7 4.5 14t1.5 16l14 61q-38 -36 -81.5 -60t-91.5 -31h-81q-34 5 -62 20.5t-49.5 38.5t-35 52.5t-17.5 63.5q-4 23 -3.5 46t5.5 49q12 56 41.5 106t70 87t89.5 58.5t99 21.5h25q55 0 96.5 -25t67.5 -68l18 93h123l-105 -513
q-10 -58 -43.5 -110t-81 -91.5t-105 -62.5t-115.5 -23q-47 0 -87 14.5t-70 41t-49.5 62.5t-25.5 80h134q16 -35 48 -56t75 -21zM291 107q41 0 80 20t65 55q28 34 34 75l7 29q2 11 3 22t-1 22q-5 46 -38 76t-84 30q-30 0 -60 -12t-55.5 -32.5t-42.5 -48t-22 -57.5l-7 -29
q-6 -39 5 -75q14 -34 43.5 -54.5t72.5 -20.5z" />
    <glyph glyph-name="h" unicode="h" horiz-adv-x="629" 
d="M459 286q6 31 0.5 58t-19.5 47.5t-36 32.5t-49 12q-28 0 -55.5 -12t-50 -32.5t-39 -47.5t-23.5 -58l-3 -15q-14 -69 -27 -135.5t-27 -135.5h-123l159 786h109l-68 -336q39 43 86.5 68t97.5 25h23q46 0 82 -21.5t58 -58.5t29.5 -87t-3.5 -106q-14 -68 -27.5 -134.5
t-27.5 -135.5h-123z" />
    <glyph glyph-name="i" unicode="i" horiz-adv-x="246" 
d="M227 786q32 0 50 -22.5t11 -54.5t-34 -54.5t-59 -22.5q-31 0 -48.5 22.5t-12.5 54.5q7 32 34 54.5t59 22.5zM118 543h120l-109 -543h-123z" />
    <glyph glyph-name="j" unicode="j" horiz-adv-x="248" 
d="M-95 -136q26 0 42.5 6.5t27 18.5t17 30t11.5 42q29 143 59 290.5t59 291.5h120l-125 -618q-3 -12 -7 -25q-7 -19 -16.5 -37t-23.5 -33q-21 -26 -49 -45.5t-61 -29.5q-15 -5 -30 -8.5t-31 -3.5h-91l23 121h75zM230 786q32 0 50 -22.5t11 -54.5t-34 -54.5t-59 -22.5
q-15 0 -28 6t-21.5 16.5t-11.5 24.5t0 30q7 32 34 54.5t59 22.5z" />
    <glyph glyph-name="k" unicode="k" horiz-adv-x="605" 
d="M165 786h121l-102 -516l188 -270h164l-189 270l300 273h-163l-300 -273l-57 -270h-121z" />
    <glyph glyph-name="l" unicode="l" horiz-adv-x="246" 
d="M165 786h123l-159 -786h-123z" />
    <glyph glyph-name="m" unicode="m" horiz-adv-x="983" 
d="M554 416q7 8 14.5 17.5t14.5 16.5q38 43 80.5 68t92.5 25h23q45 0 79 -21.5t55 -58.5t26.5 -87t-6.5 -106q-14 -68 -27 -134.5t-27 -135.5h-123l57 286q7 31 3.5 58t-16.5 47.5t-34 32.5t-49 12q-27 0 -52 -12t-46 -32.5t-35.5 -47.5t-20.5 -58q-16 -72 -30.5 -143
t-28.5 -143h-123l57 286q11 51 -1 83.5t-36.5 47.5t-57.5 13.5t-64.5 -19t-56.5 -49t-34 -76.5l-59 -286h-121l107 543h125l-16 -75q50 47 102.5 65t98.5 9.5t80.5 -40.5t48.5 -86z" />
    <glyph glyph-name="n" unicode="n" horiz-adv-x="629" 
d="M116 543h123l-16 -77q38 36 80.5 56.5t87.5 20.5h25q45 0 80.5 -21.5t57.5 -58.5t29.5 -87t-3.5 -106q-14 -68 -27.5 -134.5t-27.5 -135.5h-122l56 286q7 31 2.5 58t-19 47.5t-37 32.5t-50.5 12t-55.5 -12t-50 -32.5t-38.5 -47.5t-22 -58l-4 -16l-5.5 -27.5l-10.5 -52.5
t-13 -63.5t-12.5 -61.5t-10 -46.5t-5.5 -18.5h-121z" />
    <glyph glyph-name="o" unicode="o" horiz-adv-x="639" 
d="M388 543q56 0 101.5 -21.5t75 -58.5t40.5 -87t-1 -106q-11 -56 -42.5 -105.5t-75.5 -86t-97.5 -57.5t-109.5 -21h-29q-56 0 -101.5 21t-75 57.5t-40.5 86t1 105.5q11 56 42.5 106t76 87t98.5 58.5t110 21.5h27zM488 270q8 37 1 69.5t-25 56.5t-45.5 38t-61.5 14
q-36 0 -70 -14t-62 -38t-47.5 -56.5t-27.5 -69.5q-8 -36 -1 -68t25.5 -56t46.5 -38.5t63 -14.5t68.5 14.5t61 38.5t47.5 56t27 68z" />
    <glyph glyph-name="p" unicode="p" horiz-adv-x="671" 
d="M447 543q50 0 90 -21.5t65.5 -58.5t34.5 -87t-2 -106t-40 -105.5t-69.5 -86t-89 -58t-98.5 -21.5h-27q-54 0 -96 24.5t-68 67.5l-70 -348h-121l161 800h123l-21 -93q43 42 95.5 67.5t107.5 25.5h25zM501 285q7 31 1 58.5t-22 48t-41 32.5t-56 12t-61 -12t-55 -32.5
t-42 -48t-23 -58.5l-8 -28q-6 -31 0.5 -58t23 -47.5t41.5 -32.5t56 -12q32 0 62 12t54.5 32.5t42 47.5t23.5 58z" />
    <glyph glyph-name="q" unicode="q" horiz-adv-x="669" 
d="M663 543l-161 -800h-123l72 348q-42 -43 -94.5 -67.5t-107.5 -24.5h-25q-50 0 -90 21.5t-65.5 58t-34.5 86t2 105.5t40 106t69.5 87t89 58.5t98.5 21.5h25q55 0 98 -25.5t66 -67.5l21 93h120zM474 285q7 31 1 58.5t-22.5 48t-41 32.5t-55.5 12t-61.5 -12t-55 -32.5
t-41.5 -48t-23 -58.5l-8 -28q-6 -31 0.5 -58t23 -47.5t41.5 -32.5t56 -12q32 0 62 12t54.5 32.5t42 47.5t23.5 58z" />
    <glyph glyph-name="r" unicode="r" horiz-adv-x="416" 
d="M118 543h120l-16 -77q38 36 82 56.5t89 20.5h61l-27 -125q-30 10 -68 6.5t-73 -20.5t-62 -46.5t-36 -71.5q-2 -8 -7 -32.5t-11 -56.5t-13 -66.5t-13 -63.5t-10.5 -48l-4.5 -19h-123z" />
    <glyph glyph-name="s" unicode="s" horiz-adv-x="567" 
d="M250 89q98 3 134 45q14 17 5.5 34t-39.5 27q-32 11 -67 13.5t-67 9.5q-24 5 -45 12t-42 18q-22 11 -37.5 28t-22.5 38.5t-4.5 46.5t17.5 50q19 35 50.5 57.5t67.5 36.5q31 11 62.5 16.5t62.5 5.5q30 0 62.5 -4.5t62 -16t52.5 -31t32 -48.5l2 -4l-113 -55l-3 7
q-3 15 -19.5 25t-32.5 14t-40 5.5t-49.5 -1.5t-49 -10.5t-38.5 -21.5q-2 -3 -4.5 -6.5t-2.5 -6.5q-2 -7 4 -13t10 -8q12 -8 27.5 -12.5t29.5 -7.5q41 -9 82 -13.5t79 -18.5q56 -19 79 -60t15 -86.5t-45 -87.5t-101 -64q-33 -10 -67.5 -14t-66.5 -4q-37 0 -79 8.5t-76.5 28
t-53.5 51t-10 76.5l3 7h113v-7q-3 -13 8 -23.5t29.5 -18t41.5 -12t44 -5.5z" />
    <glyph glyph-name="t" unicode="t" horiz-adv-x="389" 
d="M77 86q-7 16 -10.5 33t-1.5 36q0 7 0.5 13.5t2.5 13.5l15 73l39 188h-61l20 100h62l29 157h123l-32 -157h120l-20 -100h-120l-39 -188l-7 -39q-5 -23 -7 -40.5t3.5 -29.5t19.5 -18.5t41 -6.5h75l-23 -121h-93q-15 0 -30 2t-29 7q-26 11 -46.5 30.5t-30.5 46.5z" />
    <glyph glyph-name="u" unicode="u" horiz-adv-x="628" 
d="M512 0h-122l16 77q-38 -35 -81 -56t-88 -21h-25q-45 0 -80.5 21t-58 57.5t-29.5 86t5 105.5l54 273h123l-57 -286q-7 -31 -2 -58t19.5 -47.5t37 -32.5t50.5 -12t55.5 12t50 32.5t38.5 47.5t22 58l4 13q1 6 5.5 29t10.5 53t12.5 64t12.5 62t10.5 46.5t5.5 18.5h120z" />
    <glyph glyph-name="v" unicode="v" horiz-adv-x="617" 
d="M66 543h132l80 -418l250 418h132l-325 -543h-164z" />
    <glyph glyph-name="w" unicode="w" horiz-adv-x="851" 
d="M416 543h129l32 -382l186 382h128l-282 -543h-130l-31 382l-187 -382h-129l-62 543h130l29 -382z" />
    <glyph glyph-name="x" unicode="x" horiz-adv-x="602" 
d="M73 543h154l93 -179l166 179h157l-264 -273l153 -270h-155l-93 177l-168 -177h-155l264 270z" />
    <glyph glyph-name="y" unicode="y" horiz-adv-x="617" 
d="M659 543l-327 -543l-152 -257h-130l130 216l-114 584h132l80 -418l250 418h131z" />
    <glyph glyph-name="z" unicode="z" horiz-adv-x="557" 
d="M461 0h-477l25 120v3l375 297h-313l25 123h477l-25 -123v-2l-375 -298h313z" />
    <glyph glyph-name="braceleft" unicode="{" horiz-adv-x="367" 
d="M328 700h90l-2 -12q-29 -13 -52.5 -28t-41 -33t-29.5 -41.5t-18 -53.5q-8 -31 -14 -56t-11 -49t-10 -49t-12 -58q-3 -12 -12 -27.5t-23 -30t-32 -26t-38 -16.5q19 -3 32 -14.5t21 -26.5t11.5 -31t1.5 -28q-7 -31 -12.5 -56t-10.5 -48.5t-9.5 -48.5t-8.5 -56
q-5 -31 -2 -54.5t13.5 -42t28 -33.5t40.5 -29l-3 -9h-91q-21 12 -41 29t-34.5 38.5t-21.5 47t-3 53.5q5 33 10 59t10 50.5t11 51t13 60.5q3 16 -2 27.5t-15.5 20t-25.5 13t-30 7.5l4 20l5 23q16 3 32.5 7.5t30.5 13t24 20t13 27.5q7 33 12 59.5t10 51t10.5 51t12.5 59.5
q7 28 24.5 53t41 46.5t50.5 38.5t53 30v0z" />
    <glyph glyph-name="bar" unicode="|" horiz-adv-x="255" 
d="M259 700l-193 -957h-121l194 957h120z" />
    <glyph glyph-name="braceright" unicode="}" horiz-adv-x="368" 
d="M239 311q-3 -16 1.5 -27.5t15 -20t25 -13t29.5 -7.5l-4 -22l-5 -21q-16 -3 -32 -7.5t-29.5 -13t-23.5 -20t-13 -27.5q-7 -34 -12.5 -60.5t-10.5 -51t-10.5 -50.5t-13.5 -59q-7 -28 -24.5 -53.5t-40.5 -47t-50 -38.5t-54 -29h-91l3 9q58 28 93.5 63t49.5 96q9 32 14.5 57
t10 48t9 48t11.5 56q3 12 12.5 28t23.5 31t32.5 26.5t38.5 14.5q-19 5 -32.5 16.5t-22 26.5t-11.5 30t0 27q6 33 11 58t10 49t9.5 49t8.5 56q6 31 3.5 54t-13 41.5t-27.5 33t-40 28.5l2 11h91q20 -13 40 -30t34.5 -38.5t22 -46.5t3.5 -53q-6 -33 -11.5 -59.5t-10.5 -51
t-10.5 -51t-11.5 -59.5z" />
    <glyph glyph-name="asciitilde" unicode="~" horiz-adv-x="596" 
d="M571 352q-74 -85 -168 -95q-34 -4 -63 5.5t-55 21.5q-23 12 -45 23t-46 15t-50 -2t-57 -29l-63 57q35 42 77 65t88 28q36 3 64.5 -5t56.5 -22q22 -12 44 -23t46 -14.5t50.5 3t57.5 29.5z" />
    <glyph glyph-name="uni00A0" unicode="&#xa0;" horiz-adv-x="424" 
 />
    <glyph glyph-name="exclamdown" unicode="&#xa1;" horiz-adv-x="236" 
d="M-75 -257q16 74 30 135t26.5 118.5t26 118.5t29.5 135h122q-13 -74 -24 -135t-21.5 -118.5t-21.5 -118.5t-26 -135h-141zM139 443q27 0 43 -19.5t9 -48.5q-5 -27 -29 -46.5t-53 -19.5q-27 0 -43 19.5t-9 46.5q5 29 29 48.5t53 19.5z" />
    <glyph glyph-name="cent" unicode="&#xa2;" horiz-adv-x="647" 
d="M278 98q46 0 87 24t67 62h139q-21 -42 -53.5 -77t-72 -61t-84 -40.5t-90.5 -14.5h-27h-21l-82 -164h-100l93 189q-31 16 -55.5 41.5t-39 58t-18.5 70t4 78.5q12 56 43.5 105.5t76 86t98.5 57.5t110 21h29h7l82 166h100l-91 -184q51 -24 83 -69.5t40 -105.5h-139
q-10 36 -41 61l-148 -304h3zM337 427q-30 -1 -58.5 -13.5t-52 -33t-40 -47t-22.5 -56.5l-5 -29q-8 -35 1 -65.5t31 -50.5z" />
    <glyph glyph-name="sterling" unicode="&#xa3;" horiz-adv-x="638" 
d="M436 700q50 0 82.5 -6t55 -17.5t39.5 -27t35 -35.5l-80 -100q-13 21 -36.5 38t-51.5 26t-58 8t-56.5 -17t-46.5 -49t-28 -88l-5 -25h196l-23 -123h-198l-34 -164h321l-25 -120h-546l25 120h105l32 164h-103l25 123h103l11 48q10 54 33 99.5t56.5 77.5t77 50t94.5 18z" />
    <glyph glyph-name="currency" unicode="&#xa4;" horiz-adv-x="649" 
d="M541 350q-7 -36 -24.5 -68t-43.5 -59l82 -146h-157l-38 75q-17 -5 -34.5 -7t-34.5 -2h-18q-17 0 -33 2t-30 7l-71 -75h-154l140 146q-31 56 -18 127q7 36 24.5 67.5t43.5 57.5l-82 145h155l41 -75q15 5 32 8.5t34 3.5h20q17 0 33.5 -3.5t30.5 -8.5l70 75h155l-141 -145
q32 -51 18 -125zM446 350q5 25 0 46.5t-18.5 38t-33.5 26t-46 9.5q-25 0 -49 -9.5t-43.5 -26t-33.5 -38t-19 -46.5t0 -47.5t18 -39.5t33.5 -26.5t45.5 -9.5t49 9.5t43.5 26.5t34 39.5t19.5 47.5z" />
    <glyph glyph-name="yen" unicode="&#xa5;" horiz-adv-x="733" 
d="M407 252h173l-14 -66h-173l-13 -63h172l-13 -68h-173l-9 -53h-123l11 53h-172l13 68h173l14 63h-175l13 66h175l7 41l-209 407h148l148 -284l261 284h148l-375 -407z" />
    <glyph glyph-name="brokenbar" unicode="&#xa6;" horiz-adv-x="244" 
d="M13 111h123l-75 -368h-121zM254 700l-75 -368h-120l75 368h120z" />
    <glyph glyph-name="section" unicode="&#xa7;" horiz-adv-x="513" 
d="M263 600q-24 -16 -31 -37.5t1 -44.5q7 -20 30 -34.5t50.5 -27t55.5 -25.5t46 -31q27 -28 35 -59t-1 -61.5t-33.5 -59.5t-61.5 -54q18 -34 16.5 -71t-19.5 -70.5t-51 -60t-78 -39.5q-24 -7 -50 -9t-52 -2q-71 3 -121 31l21 100q14 -7 33.5 -16t42 -16.5t46.5 -11.5t46 -1
q24 3 43 16q24 15 31.5 37t0.5 45q-7 20 -30 34.5t-51 27t-56 25.5t-47 31q-27 27 -34.5 57.5t1.5 61t33.5 59.5t60.5 54q-18 35 -16.5 72.5t19.5 71t51 60t78 39.5q50 11 102 11q35 -2 66 -10t55 -22l-21 -100q-13 8 -33 17t-42 16t-45.5 10.5t-44.5 0.5q-24 0 -46 -14z
M334 323q-9 13 -25 23t-35 18.5t-38 16.5t-34 17q-35 -19 -48 -48.5t7 -58.5q9 -12 25 -21.5t35 -18t38 -16.5t34 -17q17 9 29.5 21.5t18.5 26.5t5 28.5t-12 28.5z" />
    <glyph glyph-name="dieresis" unicode="&#xa8;" horiz-adv-x="356" 
d="M151 677q27 0 42 -18.5t10 -44.5q-5 -28 -28 -46t-49 -18q-28 0 -42.5 18t-7.5 46q5 26 27 44.5t48 18.5zM337 677q26 0 40.5 -18.5t9.5 -44.5q-5 -28 -27.5 -46t-49.5 -18q-26 0 -40.5 18t-9.5 46q5 26 27.5 44.5t49.5 18.5z" />
    <glyph glyph-name="copyright" unicode="&#xa9;" horiz-adv-x="791" 
d="M452 545q65 0 107.5 -37.5t51.5 -96.5h-78q-10 33 -37.5 53t-66.5 20q-28 0 -55 -10.5t-49 -29t-38 -43t-22 -51.5q-5 -28 1 -53t20.5 -43.5t37 -29t50.5 -10.5q38 0 74.5 20t59.5 52h78q-16 -29 -39.5 -53.5t-51.5 -42.5t-59.5 -28t-63.5 -10h-20q-41 0 -74 15.5
t-54.5 42.5t-29.5 63t1 77q8 40 30 75.5t54.5 62t71.5 42t80 15.5h21zM692 595q40 -49 53.5 -112.5t-0.5 -132.5q-16 -70 -55 -134t-98 -114q-60 -48 -129 -74t-139 -26q-69 0 -127.5 26t-97.5 74q-39 50 -52.5 114t0.5 134q15 69 53.5 132.5t98.5 112.5q60 50 128.5 76.5
t137.5 26.5q70 0 129 -26.5t98 -76.5zM679 350q10 57 -0.5 107.5t-42.5 92.5q-33 39 -79 60.5t-103 21.5t-113 -21.5t-105 -60.5q-48 -42 -79.5 -92.5t-43.5 -107.5q-11 -57 0 -109t43 -91q31 -39 78 -60.5t104 -21.5t112.5 21.5t103.5 60.5q50 39 81.5 91t43.5 109z" />
    <glyph glyph-name="ordfeminine" unicode="&#xaa;" horiz-adv-x="431" 
d="M455 700l-68 -330h-72l11 57q-26 -27 -57 -42t-66 -15h-16q-30 0 -53.5 13t-39.5 35t-21.5 52t0.5 64q7 34 25 64.5t42.5 53t54 35.5t60.5 13h16q33 0 57.5 -15.5t40.5 -41.5l11 57h75zM339 543q9 38 -11.5 64.5t-58.5 26.5q-19 0 -37 -7t-33 -19.5t-26 -29t-16 -35.5
l-2 -16q-8 -38 13.5 -65.5t59.5 -27.5q19 0 36.5 7.5t32.5 20.5t25.5 29.5t14.5 35.5z" />
    <glyph glyph-name="guillemotleft" unicode="&#xab;" horiz-adv-x="628" 
d="M194 350l129 -193h-143l-154 193l86 73l145 120h146zM426 350l131 -193h-145l-155 193l87 73l145 120h146z" />
    <glyph glyph-name="uni00AD" unicode="&#xad;" horiz-adv-x="0" 
 />
    <glyph glyph-name="registered" unicode="&#xae;" horiz-adv-x="791" 
d="M501 545q27 0 49.5 -10.5t36.5 -29t19.5 -43t-0.5 -51.5q-7 -35 -31.5 -66.5t-59.5 -46.5q-11 -7 -22 -10.5t-21 -5.5l82 -128h-91l-80 125h-97l-25 -125h-69l80 391h229zM461 348q27 0 49.5 18.5t27.5 44.5q5 28 -9.5 47t-40.5 19h-162q-4 -19 -7 -34.5t-6 -30t-6 -29.5
t-8 -35h162zM692 595q40 -49 53.5 -112.5t-0.5 -132.5q-16 -70 -54.5 -134t-98.5 -114q-60 -48 -128.5 -74t-137.5 -26q-70 0 -129 26t-98 74q-39 50 -52.5 114t0.5 134q15 69 54.5 132.5t97.5 112.5q60 50 129 76.5t139 26.5q69 0 127.5 -26.5t97.5 -76.5zM679 350
q10 57 -0.5 107.5t-43.5 92.5q-30 39 -77 60.5t-104 21.5t-112.5 -21.5t-103.5 -60.5q-50 -42 -81.5 -92.5t-43.5 -107.5q-11 -57 0 -109t43 -91t78.5 -60.5t103.5 -21.5t113.5 21.5t104.5 60.5t79.5 91t43.5 109z" />
    <glyph glyph-name="macron" unicode="&#xaf;" horiz-adv-x="651" 
d="M696 700l-25 -123h-600l25 123h600z" />
    <glyph glyph-name="degree" unicode="&#xb0;" horiz-adv-x="311" 
d="M304 664q30 -36 19 -87q-5 -24 -19.5 -46t-33.5 -38q-20 -17 -44.5 -26.5t-48.5 -9.5q-51 0 -79 36q-14 16 -18.5 38t0.5 46q5 26 19 48t33 39q20 17 44.5 26.5t48.5 9.5q26 0 45.5 -9.5t33.5 -26.5zM259 577q4 12 1 23.5t-8 19.5h-2q-11 16 -36 16q-24 0 -46 -16
q-20 -17 -25 -43q-5 -22 9 -41q5 -8 15 -12t22 -4q25 0 45 16q22 19 25 41z" />
    <glyph glyph-name="plusminus" unicode="&#xb1;" horiz-adv-x="556" 
d="M-34 0h487l-25 -123h-487zM534 409l-25 -120h-181l-37 -182h-122l38 182h-184l25 120h184l37 184h120l-36 -184h181z" />
    <glyph glyph-name="twosuperior" unicode="&#xb2;" horiz-adv-x="289" 
d="M161 527q-9 0 -18 -6t-14 -14h152l-11 -57h-209l9 50q5 20 19.5 39.5t34.5 30.5q25 14 48 14h39q11 0 21.5 9t12.5 21q3 11 -4 20t-19 9h-36q-12 0 -22 -9t-12 -20l-3 -3h-56l2 3q3 18 13 33.5t23.5 27t30.5 18.5t35 7h36q18 0 32.5 -7t23.5 -18.5t12.5 -27t0.5 -33.5
q-4 -23 -18 -42t-35 -31q-25 -14 -50 -14h-38z" />
    <glyph glyph-name="threesuperior" unicode="&#xb3;" horiz-adv-x="275" 
d="M220 700q32 0 50 -22.5t11 -54.5q-3 -23 -23 -41q21 -21 14 -55q-7 -32 -34 -54.5t-59 -22.5h-118l11 57h118q9 0 16 6t9 14q2 7 -2.5 12.5t-13.5 5.5h-93l11 57h85q8 0 14 6t8 15q2 8 -2.5 14t-13.5 6h-106l11 57h107z" />
    <glyph glyph-name="acute" unicode="&#xb4;" horiz-adv-x="224" 
d="M266 700l-116 -141h-73l82 141h107z" />
    <glyph glyph-name="periodcentered" unicode="&#xb7;" horiz-adv-x="300" 
d="M174 464q24 0 43 -9t31.5 -24t17 -36t-0.5 -45q-4 -24 -17.5 -45t-32 -37t-41.5 -25t-47 -9t-43 9t-31.5 25t-17 37t0.5 45t18.5 45t32 36t41 24t46.5 9z" />
    <glyph glyph-name="cedilla" unicode="&#xb8;" horiz-adv-x="289" 
d="M218 -48q19 -10 33 -25.5t17 -37.5q0 -11 -2 -22t-7 -22t-13 -21t-19 -17q-24 -16 -50 -19t-50 1q-14 2 -27 4t-25 7q-11 4 -22 8.5t-19 11.5l-14 7l41 52l14 -9q7 -3 14.5 -7t15.5 -6q10 -4 20 -5.5t20 -3.5q11 -2 27.5 -1.5t27.5 8.5q2 2 3 2t1 2q2 4 2.5 5.5t0.5 3.5
q-2 11 -10.5 19t-17.5 13q-11 7 -28 11t-31 7q-3 0 -7.5 1t-7.5 1l-21 5l5 23v7q7 27 20.5 47.5t33.5 40.5h77q-5 -5 -13.5 -11.5t-15.5 -13.5q-14 -14 -22.5 -26t-11.5 -19q15 -4 31 -8t30 -13z" />
    <glyph glyph-name="onesuperior" unicode="&#xb9;" horiz-adv-x="200" 
d="M219 700l-53 -250h-56l38 186l-32 -9l-4 55l68 18h39z" />
    <glyph glyph-name="ordmasculine" unicode="&#xba;" horiz-adv-x="283" 
d="M218 700q20 0 35.5 -7.5t26 -20.5t14.5 -30t1 -37l-11 -60q-4 -19 -15.5 -36.5t-27 -30.5t-34.5 -20.5t-39 -7.5h-11q-42 0 -64 28t-14 67l12 60q4 20 15.5 37t27 30t34.5 20.5t39 7.5h11zM239 605q3 15 -7 26.5t-25 11.5h-12q-17 0 -30.5 -11.5t-16.5 -26.5l-12 -60
q-3 -15 6 -26.5t26 -11.5h11q16 0 30.5 11.5t17.5 26.5z" />
    <glyph glyph-name="guillemotright" unicode="&#xbb;" horiz-adv-x="628" 
d="M371 350l-234 -193h-143l209 193l-132 193h145l96 -120zM603 350l-232 -193h-146l210 193l-132 193h145l98 -120z" />
    <glyph glyph-name="questiondown" unicode="&#xbf;" horiz-adv-x="369" 
d="M250 309q-29 0 -44.5 19.5t-10.5 46.5q5 29 29 48.5t53 19.5q27 0 43 -19.5t9 -48.5q-5 -27 -28.5 -46.5t-50.5 -19.5zM397 -14h30q-9 -48 -33.5 -91.5t-62 -77.5t-88.5 -54t-114 -20q-57 0 -98 17t-65.5 45.5t-32.5 65.5t-0.5 76.5t32 78.5t64.5 72q23 20 46.5 33
t43 25.5t33.5 27t18 36.5l7 30h120q0 -2 -0.5 -4t-0.5 -4l-3 -12q-7 -33 -23 -60.5t-37.5 -49.5t-46.5 -39t-50 -29q-48 -25 -68 -59.5t-16 -66t30.5 -53t71.5 -18.5q53 3 95.5 37t56.5 94h91v0zM296 242q0 2 0 -0.5t-0.5 -4.5t-0.5 -1.5t1 6.5z" />
    <glyph glyph-name="Agrave" unicode="&#xc0;" 
d="M417 732l-61 141h107l27 -141h-73zM522 700q35 -180 63 -328q12 -63 24 -124.5t21.5 -113t16.5 -87.5t9 -47h-132l-29 157h-332l-93 -157h-133l419 700h166zM470 280l-57 295l-177 -295h234z" />
    <glyph glyph-name="Aacute" unicode="&#xc1;" 
d="M474 732h-72l81 141h107zM522 700q35 -180 63 -328q12 -63 24 -124.5t21.5 -113t16.5 -87.5t9 -47h-132l-29 157h-332l-93 -157h-133l419 700h166zM470 280l-57 295l-177 -295h234z" />
    <glyph glyph-name="Acircumflex" unicode="&#xc2;" 
d="M390 723h-93l127 150h93l68 -150h-93l-37 80zM521 700q0 -1 5.5 -29.5t14 -74.5t20 -105t24 -121.5t24 -124t21.5 -112.5t17 -86.5t9 -46.5h-133l-31 157h-329l-94 -157h-132l419 700h165zM469 280l-57 295l-177 -295h234z" />
    <glyph glyph-name="Atilde" unicode="&#xc3;" 
d="M447 748q-13 8 -25.5 14.5t-26 8.5t-29 -1.5t-33.5 -16.5l-36 31q20 26 44 39.5t51 15.5q20 2 37 -3.5t34 -12.5q13 -7 25.5 -13t26 -8.5t28.5 1.5t33 18l36 -34q-43 -49 -97 -53q-19 -3 -36 2t-32 12zM522 700q35 -180 63 -328q12 -63 24 -124.5t21.5 -113t16.5 -87.5
t9 -47h-132l-29 157h-330l-95 -157h-133l419 700h166zM472 280l-57 295l-177 -295h234z" />
    <glyph glyph-name="Adieresis" unicode="&#xc4;" 
d="M349 723q-28 0 -43 18t-10 46q5 26 28.5 44.5t49.5 18.5q27 0 42 -18.5t7 -44.5q-5 -28 -27 -46t-47 -18zM532 723q-27 0 -42 18t-10 46q7 26 29 44.5t48 18.5q28 0 43 -18.5t10 -44.5q-8 -28 -30 -46t-48 -18zM521 700q35 -180 63 -328q12 -63 24 -124.5t21.5 -113
t16.5 -87.5t9 -47h-132l-29 157h-332l-93 -157h-132l418 700h166zM469 280l-57 295l-175 -295h232z" />
    <glyph glyph-name="Aring" unicode="&#xc5;" 
d="M526 675q6 -29 17 -87t24.5 -128.5t28 -146t27 -141t22 -112.5t11.5 -60h-133l-29 157h-331l-94 -157h-132l403 673q-25 32 -14 77q11 52 52 86q21 17 44.5 27t48.5 10q26 0 46 -10t34 -27q21 -27 21 -64q0 -10 -3 -22q-11 -43 -43 -75zM469 280l-57 295l-175 -295h232z
M506 750q0 3 0.5 6t0.5 6q0 16 -11 32q-7 7 -15.5 11t-22.5 4q-24 0 -44 -15q-20 -18 -27 -44q-1 -4 -1 -11q0 -16 10 -29q13 -16 39 -16q12 0 23.5 3.5t21.5 12.5q9 8 16.5 18t9.5 22z" />
    <glyph glyph-name="AE" unicode="&#xc6;" horiz-adv-x="1190" 
d="M730 439l-5 -25h373l-25 -121h-373l-31 -168h436l-24 -123h-569v3l32 157h-327l-155 -157h-132l691 697h602l-25 -120h-438zM628 575l-291 -293h232z" />
    <glyph glyph-name="Ccedilla" unicode="&#xc7;" horiz-adv-x="780" 
d="M353 109q70 0 134 35.5t107 94.5h136q-28 -52 -69 -96t-90.5 -75.5t-105 -49.5t-112.5 -18l-16 -21q-7 -8 -9.5 -10.5t-13.5 -9.5l-3.5 -3.5l-3.5 -3.5q-3 -3 -5 -6.5t-6 -6.5q15 -4 31 -9t28 -12q17 -8 30.5 -24.5t17.5 -36.5q0 -11 -1 -20.5t-6 -20.5q-11 -23 -32 -36
q-22 -14 -47.5 -17.5t-47.5 -1.5q-24 4 -48 12q-11 3 -22 8t-19 12l-11 7l38 50l12 -9q7 -4 14.5 -7t14.5 -7q18 -6 39 -9h26.5t25.5 7q2 2 2.5 3.5t2.5 3.5v7q0 10 -8 17t-15 12q-12 7 -28.5 10.5t-30.5 5.5q-4 2 -7 2.5t-7 2.5l-18 4l2 21v7q5 17 14 33t20 30l16 16
q-66 6 -118 35.5t-86 76.5t-46.5 108t0.5 130q15 72 55.5 135.5t98 111t127.5 75.5t142 28h36q57 0 106 -18t86 -49.5t61 -75.5t31 -96h-138q-17 59 -66.5 94.5t-119.5 35.5q-49 0 -97 -19t-88 -52t-68 -76.5t-38 -93.5q-9 -50 1 -94t36.5 -76.5t66.5 -51.5t89 -19z" />
    <glyph glyph-name="Egrave" unicode="&#xc8;" horiz-adv-x="666" 
d="M235 577l-34 -168h373l-25 -120h-373l-34 -169h438l-25 -120h-559q36 175 71 349t70 351h562l-25 -123h-439zM433 732l-62 141h107l28 -141h-73z" />
    <glyph glyph-name="Eacute" unicode="&#xc9;" horiz-adv-x="666" 
d="M417 732h-73l82 141h107zM235 577l-34 -168h373l-25 -120h-373l-34 -169h438l-25 -120h-559q36 175 71 349t70 351h562l-25 -123h-439z" />
    <glyph glyph-name="Ecircumflex" unicode="&#xca;" horiz-adv-x="666" 
d="M371 723h-93l127 150h94l68 -150h-93l-34 79zM235 577l-34 -168h373l-25 -120h-373l-34 -169h438l-25 -120h-559q36 175 71 349t70 351h562l-25 -123h-439z" />
    <glyph glyph-name="Edieresis" unicode="&#xcb;" horiz-adv-x="666" 
d="M331 725q-26 0 -40.5 19.5t-9.5 46.5q5 26 27.5 44.5t49.5 18.5q26 0 40.5 -18.5t9.5 -44.5q-5 -27 -27.5 -46.5t-49.5 -19.5zM517 725q-27 0 -42 19.5t-10 46.5q5 26 27 44.5t50 18.5q26 0 40.5 -18.5t9.5 -44.5q-5 -27 -27 -46.5t-48 -19.5zM235 577l-34 -168h373
l-25 -120h-373l-34 -169h438l-25 -120h-559q36 175 71 349t70 351h562l-25 -123h-439z" />
    <glyph glyph-name="Igrave" unicode="&#xcc;" horiz-adv-x="255" 
d="M213 732l-61 141h107l27 -141h-73zM138 702h121l-141 -700h-123z" />
    <glyph glyph-name="Iacute" unicode="&#xcd;" horiz-adv-x="255" 
d="M138 702h121l-141 -700h-123zM195 732h-73l85 141h106z" />
    <glyph glyph-name="Icircumflex" unicode="&#xce;" horiz-adv-x="256" 
d="M138 702h121l-141 -700h-123zM152 723h-93l127 150h93l66 -150h-93l-34 79z" />
    <glyph glyph-name="Idieresis" unicode="&#xcf;" horiz-adv-x="255" 
d="M110 723q-28 0 -42.5 18t-9.5 45q7 26 29 45t48 19q27 0 42 -19t10 -45q-7 -27 -29 -45t-48 -18zM319 850q27 0 42 -19t10 -45q-5 -27 -27.5 -45t-49.5 -18q-26 0 -41.5 18t-8.5 45q5 26 27 45t48 19zM137 702h121l-141 -700h-121z" />
    <glyph glyph-name="Eth" unicode="&#xd0;" horiz-adv-x="832" 
d="M543 702q67 0 120.5 -25.5t88.5 -69.5t48.5 -102.5t-0.5 -125.5l-11 -56q-14 -67 -51.5 -125.5t-90 -102.5t-116 -69.5t-129.5 -25.5h-352l25 123l34 163h-97l25 123h95l36 170l23 123h352zM680 380q8 41 -1 77t-30.5 63t-55 43t-75.5 16h-229l-34 -170h88l-25 -123h-88
l-34 -163h229q42 0 82 16t73 43t56.5 63.5t31.5 77.5z" />
    <glyph glyph-name="Ntilde" unicode="&#xd1;" horiz-adv-x="778" 
d="M474 748q-13 8 -25.5 14t-26 8t-29 -1.5t-33.5 -16.5l-36 32q20 26 44.5 39.5t50.5 15.5q20 2 37.5 -3.5t32.5 -12.5q13 -7 26 -13t26.5 -8.5t28.5 1.5t33 17l36 -34q-22 -23 -46 -36.5t-51 -15.5q-19 -4 -36 1.5t-32 12.5zM783 700l-143 -700h-148l-266 532
q-27 -134 -54.5 -266t-54.5 -266h-121l141 700h153l263 -527q28 132 54.5 262.5t52.5 264.5h123z" />
    <glyph glyph-name="Ograve" unicode="&#xd2;" horiz-adv-x="801" 
d="M489 700q72 0 131 -28t97 -75.5t52.5 -111t-0.5 -135.5t-55 -136t-97 -111.5t-126.5 -75t-142.5 -27.5h-36q-72 0 -130.5 27.5t-96.5 75t-52.5 111.5t-0.5 136q15 72 55.5 135.5t97.5 111t126.5 75.5t141.5 28h36zM642 350q10 50 0 93.5t-36 76.5t-66 52t-89 19
q-50 0 -98 -19t-87.5 -52t-67.5 -76.5t-38 -93.5t0 -94t36 -76.5t66.5 -51.5t90.5 -19t97 19t86.5 51.5t67.5 76.5t38 94zM487 732l-61 141h106l28 -141h-73z" />
    <glyph glyph-name="Oacute" unicode="&#xd3;" horiz-adv-x="802" 
d="M469 732h-73l84 141h107zM489 700q73 0 131 -28t96 -75.5t53 -111t0 -135.5t-55 -136t-97 -111.5t-126.5 -75t-141.5 -27.5h-39q-72 0 -130 27.5t-95.5 75t-52 111.5t0.5 136q14 72 54.5 135.5t97.5 111t126.5 75.5t141.5 28h36zM642 350q10 50 0 93.5t-36 76.5t-66.5 52
t-90.5 19q-49 0 -97 -19t-87 -52t-67 -76.5t-38 -93.5t0 -94t36 -76.5t66 -51.5t89 -19q50 0 98 19t87.5 51.5t67.5 76.5t38 94z" />
    <glyph glyph-name="Ocircumflex" unicode="&#xd4;" horiz-adv-x="804" 
d="M491 700q73 0 131 -28t96 -75.5t53 -111t0 -135.5t-55.5 -136t-97.5 -111.5t-126 -75t-141 -27.5h-39q-72 0 -130 27.5t-96 75t-53 111.5t-1 136q15 72 56 135.5t98.5 111t127 75.5t141.5 28h36zM644 350q10 50 0 93.5t-36 76.5t-66.5 52t-90.5 19q-49 0 -97 -19
t-87.5 -52t-67.5 -76.5t-37 -93.5q-10 -50 0 -94t36 -76.5t66 -51.5t89 -19q50 0 98 19t87.5 51.5t67.5 76.5t38 94zM428 723h-93l127 150h93l66 -150h-93l-34 79z" />
    <glyph glyph-name="Otilde" unicode="&#xd5;" horiz-adv-x="804" 
d="M492 700q72 0 130.5 -28t96 -75.5t52.5 -111t0 -135.5t-55.5 -136t-97.5 -111.5t-126 -75t-141 -27.5h-39q-72 0 -130.5 27.5t-96.5 75t-52.5 111.5t-0.5 136q15 72 55.5 135.5t98 111t127.5 75.5t142 28h37zM644 350q10 50 -0.5 93.5t-36.5 76.5t-66 52t-90 19
q-49 0 -97 -19t-87.5 -52t-67.5 -76.5t-37 -93.5q-10 -50 0 -94t36 -76.5t66 -51.5t89 -19q50 0 97.5 19t87.5 51.5t68 76.5t38 94zM482 748q-13 8 -25.5 14t-26 8t-28.5 -1.5t-33 -16.5l-36 32q20 26 45 39.5t52 15.5q19 2 36 -3.5t32 -12.5q13 -7 26 -13t26.5 -8.5
t28.5 1.5t33 17l36 -34q-20 -23 -44.5 -36.5t-50.5 -15.5q-20 -4 -37.5 1.5t-33.5 12.5z" />
    <glyph glyph-name="Odieresis" unicode="&#xd6;" horiz-adv-x="804" 
d="M385 723q-26 0 -40.5 18t-9.5 45q5 26 27.5 45t49.5 19q26 0 40.5 -19t9.5 -45q-5 -27 -27.5 -45t-49.5 -18zM569 723q-26 0 -40.5 18t-9.5 45q5 26 27.5 45t49.5 19q26 0 40.5 -19t9.5 -45q-5 -27 -27.5 -45t-49.5 -18zM491 700q73 0 131 -28t96 -75.5t53 -111t0 -135.5
q-14 -72 -54.5 -136t-98.5 -111.5t-127.5 -75t-142.5 -27.5h-36q-72 0 -130.5 27.5t-96.5 75t-52.5 111.5t-0.5 136q15 72 55.5 135.5t98 111t127.5 75.5t142 28h36zM644 350q9 50 -1.5 93.5t-36.5 76.5t-66 52t-89 19t-97 -19t-88 -52t-68 -76.5t-38 -93.5q-9 -50 1 -94
t36.5 -76.5t66.5 -51.5t89 -19q50 0 97.5 19t87.5 51.5t68 76.5t38 94z" />
    <glyph glyph-name="multiply" unicode="&#xd7;" horiz-adv-x="509" 
d="M341 350l102 -130l-104 -86l-102 130l-155 -130l-68 86l154 130l-102 127l102 87l103 -128l156 128l69 -87z" />
    <glyph glyph-name="Oslash" unicode="&#xd8;" horiz-adv-x="803" 
d="M626 671q42 -21 73.5 -53.5t51 -74.5t25 -91t-4.5 -102q-14 -72 -54.5 -136t-98 -111.5t-127.5 -75t-142 -27.5h-51l-42 -86h-135l57 115q-42 21 -74.5 53.5t-52 74t-24.5 90.5t6 103q14 72 54.5 135.5t98 111t126.5 75.5t141 28h52l43 86h135zM453 591h-3
q-49 0 -96.5 -19t-87.5 -52t-68 -76.5t-38 -93.5q-12 -65 8.5 -119.5t66.5 -87.5zM644 350q12 66 -8.5 119t-66.5 86l-218 -446h2q50 0 97.5 19t87 51.5t68 76.5t38.5 94z" />
    <glyph glyph-name="Ugrave" unicode="&#xd9;" horiz-adv-x="747" 
d="M458 732l-59 141h107l25 -141h-73zM767 702l-77 -377q-14 -66 -51 -125t-89.5 -103t-116 -69.5t-129.5 -25.5q-67 0 -120.5 25.5t-88.5 69.5t-48.5 103t0.5 125l75 377h122q-19 -94 -38.5 -188.5t-38.5 -188.5q-9 -42 -0.5 -78.5t30.5 -63.5t56 -42.5t76 -15.5
q41 0 80.5 16t72 43t56 63.5t31.5 77.5q19 94 37.5 188.5t37.5 188.5h123z" />
    <glyph glyph-name="Uacute" unicode="&#xda;" horiz-adv-x="749" 
d="M769 702l-77 -377q-14 -66 -51.5 -125t-90.5 -103t-117 -69.5t-130 -25.5t-119.5 25.5t-88 69.5t-48.5 103t-1 125l78 377h122q-20 -94 -39 -188.5t-38 -188.5q-9 -42 -0.5 -78.5t30.5 -63.5t55 -42.5t74 -15.5q42 0 82 16t73 43t56 63.5t30 77.5q20 94 39 188.5
t38 188.5h123zM444 732h-73l82 141h107z" />
    <glyph glyph-name="Ucircumflex" unicode="&#xdb;" horiz-adv-x="746" 
d="M398 723h-93l127 150h93l66 -150h-93l-34 79zM766 702l-77 -377q-13 -66 -50 -125t-89.5 -103t-116.5 -69.5t-130 -25.5q-67 0 -120.5 25.5t-88.5 69.5t-48.5 103t0.5 125l77 377h120q-19 -94 -38 -188.5t-39 -188.5q-9 -42 -0.5 -78.5t30.5 -63.5t56 -42.5t76 -15.5
q41 0 80.5 16t72 43t56 63.5t31.5 77.5q19 94 38 188.5t40 188.5h120z" />
    <glyph glyph-name="Udieresis" unicode="&#xdc;" horiz-adv-x="748" 
d="M542 723q-27 0 -42 18t-8 45q5 26 27 45t48 19q27 0 42 -19t10 -45q-5 -27 -27.5 -45t-49.5 -18zM358 723q-28 0 -43 18t-10 45q8 26 30 45t48 19q27 0 42 -19t10 -45q-7 -27 -29 -45t-48 -18zM767 702l-75 -377q-13 -66 -50.5 -125t-90.5 -103t-117 -69.5t-131 -25.5
q-66 0 -119.5 25.5t-88.5 69.5t-48.5 103t0.5 125l77 377h120q-19 -94 -37.5 -188.5t-37.5 -188.5q-9 -42 -0.5 -78.5t30.5 -63.5t55 -42.5t74 -15.5q42 0 81.5 16t72 43t55.5 63.5t32 77.5q19 94 38.5 188.5t38.5 188.5h121z" />
    <glyph glyph-name="Yacute" unicode="&#xdd;" horiz-adv-x="703" 
d="M774 700l-372 -407l-60 -291h-122l59 291l-209 407h150l145 -284l262 284h147zM420 732h-71l82 141h107z" />
    <glyph glyph-name="Thorn" unicode="&#xde;" horiz-adv-x="737" 
d="M524 586q48 0 87 -18.5t64.5 -50t35.5 -74t1 -91.5q-10 -49 -37.5 -92.5t-66 -75t-85 -50t-95.5 -18.5h-288l-23 -116h-121q18 87 30.5 148.5t22 110.5t18 91t18.5 91t22.5 110.5t29.5 148.5h123l-23 -114h287zM590 352q5 23 0 44t-17.5 36.5t-31.5 24.5t-42 9h-287
l-47 -230h286q24 0 47 9.5t41.5 25t32 36.5t18.5 45z" />
    <glyph glyph-name="germandbls" unicode="&#xdf;" horiz-adv-x="687" 
d="M498 373q64 -8 99 -38.5t45 -72t-3 -88t-45.5 -85t-83 -64t-114.5 -25.5h-212l23 111h211q33 0 57 11.5t38 28.5t18 36.5t-3.5 36.5t-26.5 28.5t-51 11.5h-211l23 111h88q17 0 32 12t18 29l14 73q8 41 -14 69t-63 28h-32q-28 0 -51.5 -19t-30.5 -47l-105 -520h-111
l105 520q8 37 28.5 69.5t50 57t65 39t71.5 14.5h32q44 0 78.5 -16.5t57.5 -45.5t32 -67t1 -82l-14 -73q-4 -11 -7.5 -21t-8.5 -22z" />
    <glyph glyph-name="agrave" unicode="&#xe0;" horiz-adv-x="671" 
d="M478 645h-73l-58 142h106zM664 544l-110 -544h-121l18 91q-43 -43 -95.5 -67t-106.5 -24h-26q-50 0 -90 21.5t-65.5 58t-34.5 86t2 105.5q12 56 41.5 106t70 87t89 58.5t97.5 21.5h27q55 0 96.5 -25.5t67.5 -67.5l18 93h122zM476 286q6 31 -0.5 58.5t-23 48t-41.5 32.5
t-55 12q-31 0 -60.5 -12t-54.5 -32.5t-42.5 -48t-24.5 -58.5l-5 -29q-7 -30 -0.5 -57.5t23 -48t42 -32.5t56.5 -12t60.5 12t54 32.5t41.5 48t23 57.5z" />
    <glyph glyph-name="aacute" unicode="&#xe1;" horiz-adv-x="670" 
d="M507 787l-118 -142h-73l85 142h106zM664 544l-111 -544h-120l18 91q-43 -43 -95.5 -67t-107.5 -24h-25q-50 0 -90 21.5t-65.5 58t-34.5 86t2 105.5q12 56 41.5 106t70 87t89.5 58.5t99 21.5h25q55 0 96 -25.5t67 -67.5l19 93h122zM476 286q6 31 -0.5 58.5t-23 48
t-41.5 32.5t-56 12t-60.5 -12t-54 -32.5t-41.5 -48t-23 -58.5l-7 -29q-6 -30 0 -57.5t22.5 -48t41.5 -32.5t56 -12t60.5 12t54 32.5t42 48t23.5 57.5z" />
    <glyph glyph-name="acircumflex" unicode="&#xe2;" horiz-adv-x="670" 
d="M540 637h-93l-33 77l-69 -77h-93l127 150h93zM664 544l-110 -544h-123l21 91q-43 -43 -95.5 -67t-106.5 -24h-26q-50 0 -90 21.5t-65.5 58t-34.5 86t2 105.5t40 106t69.5 87t89 58.5t99.5 21.5h27q53 0 95.5 -25.5t68.5 -67.5l18 93h121zM477 286q6 31 -0.5 58.5t-23 48
t-41.5 32.5t-55 12q-32 0 -62 -12t-55 -32.5t-42 -48t-23 -58.5l-5 -29q-7 -30 -0.5 -57.5t22.5 -48t41 -32.5t55 -12q32 0 62 12t55 32.5t42 48t23 57.5z" />
    <glyph glyph-name="atilde" unicode="&#xe3;" horiz-adv-x="669" 
d="M561 671q-20 -24 -45 -37.5t-50 -15.5q-21 -3 -38.5 2t-32.5 12q-13 8 -25.5 14.5t-26 8.5t-29 -1.5t-33.5 -16.5l-36 32q23 25 46.5 38.5t51.5 15.5q19 2 35.5 -3.5t32.5 -12.5q13 -7 25.5 -13t26 -8t28.5 2t33 17zM663 544l-109 -544h-123l21 91q-43 -43 -95.5 -67
t-107.5 -24h-25q-50 0 -90 21.5t-65.5 58t-34.5 86t2 105.5t40 106t69.5 87t89 58.5t98.5 21.5h28q53 0 95 -25.5t68 -67.5l19 93h120zM477 286q6 31 -0.5 58.5t-23 48t-41.5 32.5t-55 12q-32 0 -62 -12t-55 -32.5t-42 -48t-23 -58.5l-5 -29q-7 -30 -1 -57.5t22.5 -48
t41.5 -32.5t55 -12q32 0 62 12t54.5 32.5t42 48t23.5 57.5z" />
    <glyph glyph-name="adieresis" unicode="&#xe4;" horiz-adv-x="669" 
d="M515 764q26 0 40.5 -19t9.5 -45q-5 -27 -27.5 -45t-49.5 -18q-26 0 -40.5 18t-9.5 45q5 26 27 45t50 19zM329 764q27 0 42 -19t10 -45q-5 -27 -27.5 -45t-49.5 -18t-42.5 18t-7.5 45q5 26 27 45t48 19zM663 544l-109 -544h-123l20 91q-43 -43 -95 -67t-107 -24h-25
q-50 0 -90 21.5t-65.5 58t-34.5 86t2 105.5t40 106t69.5 87t89 58.5t98.5 21.5h28q55 0 96 -25.5t67 -67.5l19 93h120zM477 286q6 31 -1 58.5t-23.5 48t-41 32.5t-55.5 12t-60.5 -12t-54.5 -32.5t-42.5 -48t-23.5 -58.5l-5 -29q-7 -30 -1 -57.5t22 -48t41 -32.5t56 -12
q32 0 62 12t54.5 32.5t42 48t23.5 57.5z" />
    <glyph glyph-name="aring" unicode="&#xe5;" horiz-adv-x="669" 
d="M663 544l-111 -544h-121l18 91q-41 -43 -93 -67t-106 -24h-28q-49 0 -89 21.5t-65.5 58t-34.5 86t3 105.5q11 56 40 106t69.5 87t89 58.5t99.5 21.5h25q54 0 96.5 -25.5t66.5 -67.5l18 93h123zM474 286q7 31 1 58.5t-22.5 48t-41.5 32.5t-57 12q-31 0 -60.5 -12
t-54 -32.5t-42 -48t-23.5 -58.5l-6 -29q-6 -30 0.5 -57.5t23 -48t41 -32.5t55.5 -12t60.5 12t54.5 32.5t42.5 48t24.5 57.5zM504 750q21 -25 21 -61q0 -11 -3 -25q-5 -24 -18.5 -46t-33.5 -38q-42 -36 -94 -36q-51 0 -79 36q-21 26 -21 62q0 12 3 22q5 26 19.5 47.5
t35.5 38.5q19 17 43 27t50 10q23 0 43 -10t34 -27zM461 664v9q0 9 -2.5 18t-6.5 16q-7 7 -17 11.5t-22 4.5t-23.5 -4.5t-21.5 -11.5q-9 -8 -16 -19.5t-9 -23.5q-2 -3 -2 -6.5v-6.5q0 -15 11 -28q13 -16 38 -16q12 0 23.5 4t19.5 12q22 17 28 41z" />
    <glyph glyph-name="ae" unicode="&#xe6;" horiz-adv-x="1085" 
d="M836 544q56 0 101.5 -21.5t75 -58.5t40.5 -87t-1 -106q-5 -24 -14 -46h-438q1 -25 11.5 -47t28.5 -37.5t42 -24.5t51 -9q37 0 75 15.5t64 41.5h136q-23 -36 -54.5 -66t-68.5 -52t-77.5 -34t-82.5 -12h-28q-39 0 -74 10.5t-62 30.5l-6 -41h-124l21 91q-43 -43 -95.5 -67
t-106.5 -24h-26q-50 0 -90 21.5t-65.5 58t-34.5 86t2 105.5t40 106t69.5 87t89 58.5t99.5 21.5h27q53 0 95.5 -25.5t68.5 -67.5l18 93h121l-8 -41q35 19 73 30t77 11h30zM474 286q7 31 1 58.5t-22 48t-41 32.5t-55 12q-32 0 -62 -12t-55 -32.5t-42 -48t-23 -58.5l-5 -29
q-7 -30 -0.5 -57.5t22.5 -48t41 -32.5t55 -12q32 0 62 12t55 32.5t42 48t23 57.5zM934 316q0 26 -11 48t-29 38t-42.5 25.5t-51.5 9.5t-55 -9.5t-53 -25.5t-44.5 -38t-29.5 -48h316z" />
    <glyph glyph-name="ccedilla" unicode="&#xe7;" horiz-adv-x="624" 
d="M287 107q45 0 85.5 23.5t66.5 62.5h139q-21 -42 -53.5 -77t-71.5 -61t-83.5 -40.5t-89.5 -14.5h-20q-7 -8 -11.5 -16t-6.5 -11q15 -4 31 -8t30 -13q19 -10 32.5 -25.5t15.5 -37.5q3 -23 -7 -44q-11 -24 -32 -38q-24 -16 -50.5 -19t-49.5 0q-14 2 -27 4.5t-25 7.5
q-23 7 -44 20l-11 7l41 52l14 -9q7 -3 14.5 -7t14.5 -6q11 -4 20.5 -5.5t20.5 -3.5t27.5 -1.5t27.5 7.5q2 2 3 2.5t1 2.5q2 5 2 9q-2 11 -10 19t-17 13q-12 7 -28.5 11t-30.5 7q-4 0 -8 1t-8 1l-20 5l4 23v6q8 32 23 50q-44 11 -78.5 35.5t-56.5 59.5t-29 79t3 92
q11 56 42.5 106t76 87t98.5 58.5t110 21.5h27q46 0 84.5 -14.5t67.5 -40.5t47 -61t22 -77h-139q-11 38 -42 62t-76 24q-31 0 -60.5 -12t-54 -32.5t-42 -47.5t-23.5 -58l-6 -29q-6 -31 0.5 -58t23 -47.5t41 -32.5t55.5 -12z" />
    <glyph glyph-name="egrave" unicode="&#xe8;" horiz-adv-x="640" 
d="M404 645l-61 141h107l27 -141h-73zM389 543q56 0 101.5 -21.5t75 -58.5t41 -87t0.5 -106q-4 -11 -7 -22t-7 -23h-429q2 -51 35.5 -84.5t86.5 -33.5q36 0 70 15.5t60 41.5h145q-23 -36 -54 -66t-68 -52t-77.5 -34t-82.5 -12h-29q-55 0 -100 21t-74.5 57.5t-41 86
t-0.5 105.5t42.5 106t76 87t98.5 58.5t110 21.5h28zM477 316q0 26 -9 47.5t-25.5 38t-39 25.5t-49.5 9t-53.5 -9t-49.5 -25.5t-41 -38t-28 -47.5h295z" />
    <glyph glyph-name="eacute" unicode="&#xe9;" horiz-adv-x="640" 
d="M391 543q56 0 101.5 -21.5t75 -58.5t40.5 -87t-1 -106q-2 -11 -5.5 -22t-8.5 -23h-427q0 -51 34 -84.5t89 -33.5q35 0 68.5 15.5t60.5 41.5h146q-23 -36 -55 -66t-69 -52t-78 -34t-83 -12h-27q-56 0 -101.5 21t-75 57.5t-41 86t-0.5 105.5q12 56 44 106t76.5 87t98 58.5
t108.5 21.5h30zM477 316q0 26 -9 47.5t-25 38t-38.5 25.5t-49.5 9t-53.5 -9t-49.5 -25.5t-41 -38t-29 -47.5h295zM389 645h-73l84 141h107z" />
    <glyph glyph-name="ecircumflex" unicode="&#xea;" horiz-adv-x="640" 
d="M345 636h-93l127 150h94l66 -150h-94l-34 78zM391 543q56 0 101 -21.5t74 -58.5t40.5 -87t0.5 -106q-2 -11 -5.5 -22t-8.5 -23h-429q2 -51 36 -84.5t89 -33.5q35 0 68.5 15.5t60.5 41.5h146q-23 -36 -55 -66t-69 -52t-78 -34t-83 -12h-27q-56 0 -101.5 21t-75 57.5
t-41 86t-0.5 105.5q12 56 43.5 106t76 87t98 58.5t109.5 21.5h30zM477 316q0 26 -9 47.5t-25 38t-38.5 25.5t-49.5 9t-53.5 -9t-49.5 -25.5t-41 -38t-29 -47.5h295z" />
    <glyph glyph-name="edieresis" unicode="&#xeb;" horiz-adv-x="638" 
d="M486 636q-27 0 -42 18.5t-10 45.5q5 26 28 45t49 19q27 0 42 -19t10 -45q-7 -27 -29 -45.5t-48 -18.5zM388 543q56 0 101.5 -21.5t75 -58.5t40.5 -87t-1 -106q-2 -11 -5 -22t-6 -23h-430q0 -51 34 -84.5t89 -33.5q36 0 70 15.5t60 41.5h145q-23 -36 -54 -66t-68 -52
t-77.5 -34t-82.5 -12h-29q-56 0 -101.5 21t-75 57.5t-40.5 86t1 105.5q11 56 42.5 106t76 87t98.5 58.5t110 21.5h27zM475 316q0 26 -9 47.5t-25 38t-39 25.5t-50 9t-53.5 -9t-49 -25.5t-40 -38t-27.5 -47.5h293zM302 636q-27 0 -42 18.5t-10 45.5q5 26 27.5 45t49.5 19
q26 0 40.5 -19t9.5 -45q-5 -27 -27 -45.5t-48 -18.5z" />
    <glyph glyph-name="igrave" unicode="&#xec;" horiz-adv-x="245" 
d="M206 645l-59 141h107l25 -141h-73zM118 543h120l-109 -543h-123z" />
    <glyph glyph-name="iacute" unicode="&#xed;" horiz-adv-x="247" 
d="M189 645h-70l81 141h107zM116 543h123l-111 -543h-121z" />
    <glyph glyph-name="icircumflex" unicode="&#xee;" horiz-adv-x="246" 
d="M116 543h123l-111 -543h-121zM341 636h-93l-36 78l-66 -78h-93l127 150h93z" />
    <glyph glyph-name="idieresis" unicode="&#xef;" horiz-adv-x="247" 
d="M103 632q-26 0 -40.5 18.5t-9.5 44.5q5 28 27.5 46t49.5 18q26 0 40.5 -18t9.5 -46q-5 -26 -27.5 -44.5t-49.5 -18.5zM116 543h123l-111 -543h-121zM314 759q27 0 42 -18t8 -46q-5 -26 -27 -44.5t-48 -18.5q-27 0 -42 18.5t-10 44.5q5 28 27.5 46t49.5 18z" />
    <glyph glyph-name="eth" unicode="&#xf0;" horiz-adv-x="639" 
d="M538 557q13 -17 29 -44.5t27.5 -64t15 -81.5t-7.5 -99q-11 -55 -42.5 -104.5t-75.5 -86t-97.5 -58t-109.5 -21.5h-27q-56 0 -101.5 21.5t-75 58t-40.5 86t1 104.5q11 56 42.5 106t76 87t98 58.5t108.5 21.5h20l-81 102l-103 -86l-70 86l104 86l-45 55l105 86l43 -54
l52 43l68 -86l-52 -44zM477 268q7 33 0.5 62.5t-24 51.5t-44 35t-59.5 13q-32 0 -63.5 -13t-57.5 -35t-44.5 -51.5t-25.5 -62.5q-7 -32 0 -61t24 -50.5t43.5 -34.5t59.5 -13t64 13t57 34.5t44.5 50.5t25.5 61z" />
    <glyph glyph-name="ntilde" unicode="&#xf1;" horiz-adv-x="628" 
d="M394 632q-13 8 -26 14t-26.5 8t-28.5 -1.5t-33 -16.5l-36 32q40 50 95 55q20 2 37 -3.5t34 -12.5q13 -7 25.5 -13t26 -8.5t28.5 1.5t33 17l36 -34q-22 -23 -46 -36.5t-51 -15.5q-19 -3 -36 2t-32 12zM414 543q45 0 81 -21.5t58.5 -58.5t30 -87t-3.5 -106
q-14 -69 -28.5 -135t-28.5 -135h-123l59 286q6 31 0.5 58t-19.5 47.5t-36.5 32.5t-50.5 12q-27 0 -54.5 -12t-50 -32.5t-39 -47.5t-22.5 -58l-2 -16l-5.5 -27.5t-11 -52.5t-13.5 -63.5t-12.5 -61.5t-9.5 -46.5t-5 -18.5h-121l109 543h121l-14 -77q36 36 79.5 56.5t88.5 20.5
h23z" />
    <glyph glyph-name="ograve" unicode="&#xf2;" horiz-adv-x="640" 
d="M404 645l-61 141h107l27 -141h-73zM388 543q56 0 101.5 -21.5t75 -58.5t41.5 -87t1 -106q-12 -56 -44 -105.5t-76.5 -86t-98 -57.5t-109.5 -21h-29q-56 0 -101.5 21t-75 57.5t-40.5 86t1 105.5q11 56 42.5 106t76 87t98.5 58.5t110 21.5h27zM488 270q8 37 1.5 69.5
t-24.5 56.5t-46 38t-63 14q-36 0 -69.5 -14t-61.5 -38t-47.5 -56.5t-27.5 -69.5q-7 -36 0 -68t25 -56t46 -38.5t63 -14.5t68.5 14.5t61 38.5t47.5 56t27 68z" />
    <glyph glyph-name="oacute" unicode="&#xf3;" horiz-adv-x="640" 
d="M388 645h-72l81 141h107zM388 543q56 0 101.5 -21.5t75 -58.5t41.5 -87t1 -106q-12 -56 -44 -105.5t-76.5 -86t-98 -57.5t-109.5 -21h-29q-56 0 -101.5 21t-75 57.5t-40.5 86t1 105.5q11 56 42.5 106t76 87t98.5 58.5t110 21.5h27zM488 270q8 37 1.5 69.5t-24.5 56.5
t-45.5 38t-62.5 14q-36 0 -70 -14t-62 -38t-47.5 -56.5t-27.5 -69.5q-7 -36 0 -68t25 -56t46 -38.5t63 -14.5t68.5 14.5t61 38.5t47.5 56t27 68z" />
    <glyph glyph-name="ocircumflex" unicode="&#xf4;" horiz-adv-x="642" 
d="M345 636h-93l128 150h93l66 -150h-94l-34 78zM391 543q56 0 101.5 -21.5t75 -58.5t40.5 -87t-1 -106q-11 -56 -42.5 -105.5t-76.5 -86t-99 -57.5t-110 -21h-27q-56 0 -101.5 21t-75 57.5t-41 86t-0.5 105.5q12 56 43.5 106t76 87t98 58.5t109.5 21.5h30zM491 270
q7 37 0 69.5t-25 56.5t-46 38t-63 14t-68.5 -14t-61 -38t-47.5 -56.5t-28 -69.5q-7 -36 -0.5 -68t24.5 -56t46 -38.5t64 -14.5q35 0 68.5 14.5t61.5 38.5t47.5 56t27.5 68z" />
    <glyph glyph-name="otilde" unicode="&#xf5;" horiz-adv-x="641" 
d="M393 632q-13 8 -25.5 14t-26 8t-28.5 -1.5t-33 -16.5l-37 32q40 50 98 55q19 2 36 -3.5t32 -12.5q13 -7 25.5 -13t26 -8.5t29 1.5t33.5 17l36 -34q-20 -23 -45 -36.5t-53 -15.5q-19 -3 -35.5 2t-32.5 12zM389 543q56 0 101.5 -21.5t75 -58.5t41 -87t0.5 -106
q-12 -56 -43.5 -105.5t-76 -86t-98.5 -57.5t-110 -21h-27q-56 0 -101.5 21t-75 57.5t-41 86t-0.5 105.5t42.5 106t76 87t98.5 58.5t110 21.5h28zM489 270q8 37 1 69.5t-25 56.5t-45.5 38t-62.5 14t-69 -14t-62 -38t-47.5 -56.5t-26.5 -69.5q-7 -36 -0.5 -68t24.5 -56
t45.5 -38.5t62.5 -14.5t68.5 14.5t61.5 38.5t48 56t27 68z" />
    <glyph glyph-name="odieresis" unicode="&#xf6;" horiz-adv-x="642" 
d="M302 632q-27 0 -42 18.5t-10 44.5q7 28 29 46t48 18q28 0 42.5 -18t9.5 -46q-5 -26 -28 -44.5t-49 -18.5zM486 632q-26 0 -41.5 18.5t-8.5 44.5q5 28 27 46t48 18q28 0 42.5 -18t9.5 -46q-5 -26 -27 -44.5t-50 -18.5zM391 543q56 0 101.5 -21.5t74.5 -58.5t40.5 -87
t-0.5 -106q-11 -56 -42.5 -105.5t-76.5 -86t-99 -57.5t-110 -21h-27q-56 0 -101.5 21t-75 57.5t-41 86t-0.5 105.5q12 56 43.5 106t76 87t98 58.5t109.5 21.5h30zM491 270q7 37 0 69.5t-25 56.5t-46 38t-63 14t-68.5 -14t-61 -38t-47.5 -56.5t-28 -69.5q-7 -36 -0.5 -68
t24.5 -56t46 -38.5t64 -14.5q35 0 68.5 14.5t61 38.5t47.5 56t28 68z" />
    <glyph glyph-name="divide" unicode="&#xf7;" horiz-adv-x="501" 
d="M263 407q-29 0 -44.5 20.5t-10.5 47.5q5 29 29.5 48.5t52.5 19.5t44 -19.5t8 -48.5q-2 -13 -9.5 -25.5t-18.5 -22t-24 -15t-27 -5.5zM206 130q28 0 44 -19.5t11 -46.5q-7 -29 -31 -48.5t-51 -19.5q-29 0 -44.5 19.5t-10.5 48.5q7 27 31 46.5t51 19.5zM461 330l-23 -121
h-432l25 121h430z" />
    <glyph glyph-name="oslash" unicode="&#xf8;" horiz-adv-x="669" 
d="M517 547q35 -16 61.5 -43t43 -61t21 -74t-5.5 -84q-12 -59 -44.5 -110.5t-79 -90t-103 -61t-114.5 -22.5h-45l-36 -71h-102l45 94q-35 16 -61.5 42.5t-42.5 60t-20.5 74t3.5 84.5q12 59 45 110.5t79.5 90t103 61t115.5 22.5h46l34 71h102zM383 480h-5q-41 0 -79.5 -15.5
t-70.5 -42t-54.5 -62t-31.5 -75.5q-11 -55 6.5 -99t54.5 -69zM535 285q11 54 -7.5 98t-56.5 70l-177 -363h5q40 0 78.5 15t70.5 41.5t55 62t32 76.5z" />
    <glyph glyph-name="ugrave" unicode="&#xf9;" horiz-adv-x="627" 
d="M392 645l-62 141h107l25 -141h-70zM621 543l-111 -543h-120l15 77q-38 -36 -81 -56.5t-89 -20.5h-23q-45 0 -80.5 21t-58 57.5t-29.5 86t5 105.5l54 273h123l-59 -286q-6 -31 -0.5 -58t20 -47.5t37 -32.5t50.5 -12t55.5 12t50 32.5t38.5 47.5t22 58l2 13q2 6 6.5 29
t10.5 53t13 64t12.5 62t9.5 46.5t5 18.5h122z" />
    <glyph glyph-name="uacute" unicode="&#xfa;" horiz-adv-x="628" 
d="M376 645h-73l82 141h107zM622 543l-109 -543h-123l16 77q-38 -36 -80.5 -56.5t-87.5 -20.5h-25q-45 0 -80.5 21t-58 57.5t-29.5 86t4 105.5q14 69 27.5 136.5t27.5 136.5h122l-57 -286q-7 -31 -2 -58t19.5 -47.5t37 -32.5t50.5 -12t55.5 12t50 32.5t38.5 47.5t22 58l4 13
q1 6 5.5 29t10.5 53t13 64t12.5 62t10 46.5t5.5 18.5h121z" />
    <glyph glyph-name="ucircumflex" unicode="&#xfb;" horiz-adv-x="628" 
d="M332 636h-93l127 150h93l66 -150h-93l-34 78zM623 543l-112 -543h-120l16 77q-38 -36 -82 -56.5t-89 -20.5h-22q-45 0 -81 21t-58.5 57.5t-30 86t3.5 105.5q15 69 29 136.5t28 136.5h122l-59 -286q-6 -31 -0.5 -58t20 -47.5t37 -32.5t50.5 -12t55.5 12t50 32.5t38.5 47.5
t22 58l2 13q1 6 5.5 29t11 53t13.5 64t12.5 62t10 46.5l4.5 18.5h123z" />
    <glyph glyph-name="udieresis" unicode="&#xfc;" horiz-adv-x="627" 
d="M471 632q-26 0 -40.5 18.5t-9.5 44.5q5 28 27.5 46t50.5 18q26 0 40.5 -18t9.5 -46q-5 -26 -27.5 -44.5t-50.5 -18.5zM621 543l-111 -543h-120l16 77q-38 -36 -81.5 -56.5t-89.5 -20.5h-23q-45 0 -80.5 21t-58 57.5t-29.5 86t5 105.5l54 273h123l-59 -286
q-6 -31 -0.5 -58t20 -47.5t37 -32.5t50.5 -12t55.5 12t50 32.5t38.5 47.5t22 58l4 13q1 6 5.5 29t10.5 53t12.5 64t12 62t9.5 46.5t5 18.5h122zM287 632q-26 0 -40.5 18.5t-9.5 44.5q5 28 27.5 46t50.5 18q26 0 40.5 -18t9.5 -46q-5 -26 -27.5 -44.5t-50.5 -18.5z" />
    <glyph glyph-name="yacute" unicode="&#xfd;" horiz-adv-x="618" 
d="M376 645h-72l84 141h107zM660 543l-325 -543l-154 -257h-130l130 216l-114 584h132l80 -418l250 418h131z" />
    <glyph glyph-name="thorn" unicode="&#xfe;" horiz-adv-x="672" 
d="M448 543q50 0 90 -21.5t65.5 -58.5t35.5 -86.5t-1 -105.5q-12 -56 -42 -105.5t-70.5 -86t-89 -58t-99.5 -21.5h-25q-55 0 -96.5 24t-67.5 67l-70 -348h-123l212 1043h123l-69 -336q43 42 94.5 67.5t105.5 25.5h27zM503 286q6 31 0 58.5t-22.5 48t-41 32.5t-56.5 12
q-31 0 -60.5 -12t-54 -32.5t-42 -48t-23.5 -58.5l-6 -29q-6 -31 0.5 -58t23 -47.5t41 -32.5t55.5 -12t60.5 12t54 32.5t41.5 47.5t23 58z" />
    <glyph glyph-name="ydieresis" unicode="&#xff;" horiz-adv-x="618" 
d="M474 632q-27 0 -42 18.5t-10 44.5q7 28 29 46t48 18q27 0 42 -18t10 -46q-7 -26 -29 -44.5t-48 -18.5zM660 543l-327 -543l-152 -257h-130l130 216l-114 584h132l80 -418l250 418h131zM290 632q-27 0 -42 18.5t-10 44.5q5 28 27.5 46t49.5 18t42 -18t8 -46
q-5 -26 -27 -44.5t-48 -18.5z" />
    <glyph glyph-name="Amacron" unicode="&#x100;" 
d="M603 780h-300l21 93h297zM521 700q0 -2 5.5 -31t14 -75t20 -105t23.5 -121.5t24 -123.5t21.5 -111.5t16.5 -86t9 -46.5h-132l-29 157h-332l-93 -157h-132l418 700h166zM469 280l-57 295l-177 -295h234z" />
    <glyph glyph-name="amacron" unicode="&#x101;" horiz-adv-x="668" 
d="M663 544l-112 -544h-120l18 91q-41 -43 -93 -67t-107 -24h-27q-49 0 -89 21.5t-65.5 58t-34.5 86t3 105.5q11 56 40 106t69.5 87t89 58.5t98.5 21.5h25q55 0 97.5 -25.5t66.5 -67.5l18 93h123zM474 286q6 31 0 58.5t-22.5 48t-41 32.5t-56.5 12q-31 0 -60.5 -12
t-54 -32.5t-42 -48t-23.5 -58.5l-7 -29q-6 -30 0.5 -57.5t23 -48t41.5 -32.5t56 -12t60.5 12t54.5 32.5t42.5 48t23.5 57.5zM556 694h-300l3 6l17 87h298l-16 -87z" />
    <glyph glyph-name="Abreve" unicode="&#x102;" 
d="M447 734q-62 0 -94 46q-14 19 -18.5 43t0.5 50h72q-5 -28 10 -47t43 -19q27 0 50.5 19t29.5 47h72q-5 -26 -20 -50t-35 -43q-52 -46 -110 -46zM521 700q35 -180 63 -328q12 -63 24 -124.5t21.5 -113t16.5 -87.5t9 -47h-132l-29 157h-332l-93 -157h-132l418 700h166z
M471 280l-59 295l-175 -295h234z" />
    <glyph glyph-name="abreve" unicode="&#x103;" horiz-adv-x="670" 
d="M565 787q-5 -26 -19.5 -50.5t-35.5 -42.5q-24 -23 -53 -34.5t-58 -11.5t-53.5 11.5t-40.5 34.5q-14 18 -18.5 42.5t0.5 50.5h73q-5 -28 10 -47t43 -19q27 0 50.5 19t28.5 47h73zM664 544l-111 -544h-120l18 91q-43 -43 -95.5 -67t-106.5 -24h-26q-50 0 -90 21.5t-65.5 58
t-34.5 86t2 105.5q12 56 41.5 106t70 87t89.5 58.5t99 21.5h25q55 0 96.5 -25.5t67.5 -67.5l18 93h122zM476 286q6 31 -0.5 58.5t-23 48t-41.5 32.5t-55 12q-31 0 -60.5 -12t-54 -32.5t-42 -48t-23.5 -58.5l-7 -29q-6 -30 0.5 -57.5t22.5 -48t41.5 -32.5t56.5 -12t60.5 12
t54 32.5t41.5 48t23 57.5z" />
    <glyph glyph-name="Aogonek" unicode="&#x104;" horiz-adv-x="732" 
d="M501 -86q-11 -5 -23.5 -15t-18.5 -24q-3 -2 -3 -9q0 -6 3 -6q4 -5 11 -7.5t14.5 -3.5t15 -0.5t13.5 1.5q11 2 24.5 4t25.5 7q8 4 19 8t19 11l19 9l20 -64l-18 -11q-14 -7 -27.5 -13.5t-26.5 -11.5q-30 -10 -62 -13q-27 -4 -54.5 -0.5t-45.5 22.5q-7 8 -11.5 21t-6.5 27
q0 28 14 55q13 27 36.5 48t47.5 33q10 5 21.5 10t23.5 8h-7l-29 157h-332l-93 -157h-133l419 700h166q28 -142 53 -268q11 -54 22 -110.5t21 -108.5t18 -96t13 -74q2 -12 4 -23t2.5 -21.5t-2 -22t-11.5 -23.5l-50 -12q-5 0 -9 -1t-9 -3q-17 -4 -37 -9.5t-36 -13.5zM470 280
l-57 295l-175 -295h232z" />
    <glyph glyph-name="aogonek" unicode="&#x105;" horiz-adv-x="669" 
d="M427 -79q-12 -5 -23 -14.5t-18 -21.5q-2 -2 -2 -5v-5q0 -6 2 -6q8 -9 24 -10t28 1q12 1 23.5 3.5t21.5 7.5q11 3 21 7t19 9l15 11l21 -62l-19 -11q-12 -7 -25 -13t-27 -9q-14 -5 -28.5 -8.5t-28.5 -5.5q-26 -4 -51 0t-42 23q-8 8 -13 18.5t-5 24.5t3 27t8 25
q14 27 35.5 46.5t44.5 30.5q8 4 18 8.5t21 7.5h-19l21 91q-43 -43 -95.5 -67t-107.5 -24h-25q-50 0 -90 21.5t-65.5 58t-34.5 86t2 105.5t40 106t69.5 87t89 58.5t98.5 21.5h28q53 0 95 -25.5t68 -67.5l19 93h120l-104 -517l-5 -27l-9 -45q-29 -8 -62.5 -15t-55.5 -19z
M288 107q32 0 62 12t55 32.5t42 48t23 57.5l7 29q6 31 -0.5 58.5t-23 48t-41.5 32.5t-55 12q-32 0 -62 -12t-55 -32.5t-42 -48t-23 -58.5l-5 -29q-7 -30 -0.5 -57.5t22.5 -48t41 -32.5t55 -12z" />
    <glyph glyph-name="Cacute" unicode="&#x106;" horiz-adv-x="780" 
d="M352 111q70 0 134 36t107 94h137q-28 -52 -69 -96t-91 -75.5t-106 -49.5t-114 -18h-36q-73 0 -131.5 28t-96.5 75.5t-52.5 111t0.5 135.5t55 136t97 111.5t126.5 75t142.5 27.5h36q58 0 107 -18t86 -49.5t60.5 -75t30.5 -95.5h-136q-19 58 -69 93.5t-120 35.5
q-49 0 -96.5 -19t-87 -51.5t-67 -76.5t-38.5 -94q-10 -49 0 -93t36 -77t66 -52t89 -19zM461 732h-73l85 141h106z" />
    <glyph glyph-name="cacute" unicode="&#x107;" horiz-adv-x="626" 
d="M384 645h-73l82 141h107zM289 107q45 0 85.5 23.5t66.5 62.5h139q-21 -42 -53.5 -77t-72 -61t-84 -40.5t-90.5 -14.5h-28q-56 0 -101.5 21t-75 57.5t-41 86t-0.5 105.5q12 56 43.5 106t76 87t98 58.5t109.5 21.5h30q46 0 84.5 -14.5t67.5 -40.5t46.5 -61t21.5 -77h-138
q-11 38 -42 62t-76 24q-31 0 -60.5 -12t-54.5 -32.5t-42.5 -47.5t-24.5 -58l-5 -29q-7 -31 -1 -58t22.5 -47.5t42 -32.5t57.5 -12z" />
    <glyph glyph-name="Ccaron" unicode="&#x10c;" horiz-adv-x="781" 
d="M353 111q70 0 134 36t107 94h137q-28 -52 -69.5 -96t-92 -75.5t-106.5 -49.5t-114 -18h-37q-72 0 -130.5 28t-96 75.5t-52.5 111t0 135.5q14 72 54.5 136t98.5 111.5t127.5 75t142.5 27.5h36q58 0 106.5 -18t85.5 -49.5t61 -75t31 -95.5h-139q-17 58 -66.5 93.5
t-119.5 35.5q-49 0 -97 -19t-88 -51.5t-68 -76.5t-38 -94q-9 -49 1.5 -93t36.5 -77t66 -52t89 -19zM421 723l-65 150h93l34 -78l66 78h93l-127 -150h-94z" />
    <glyph glyph-name="ccaron" unicode="&#x10d;" horiz-adv-x="624" 
d="M343 650l-66 148h93l34 -78l66 78h93l-127 -148h-93zM286 107q45 0 85.5 23.5t66.5 62.5h139q-21 -42 -53.5 -77t-72 -61t-84 -40.5t-90.5 -14.5h-27q-56 0 -101.5 21t-75 57.5t-40.5 86t1 105.5q11 56 42.5 106t75.5 87t98 58.5t109 21.5h29q46 0 84.5 -14.5t67.5 -40.5
t47 -61t22 -77h-139q-10 38 -41.5 62t-76.5 24q-31 0 -60.5 -12t-54 -32.5t-41.5 -47.5t-23 -58l-7 -29q-6 -31 0 -58t22.5 -47.5t41.5 -32.5t56 -12z" />
    <glyph glyph-name="Dcaron" unicode="&#x10e;" horiz-adv-x="776" 
d="M431 723l-66 150h93l34 -78l66 78h93l-127 -150h-93zM488 700q66 0 119.5 -25.5t88.5 -69.5t48.5 -103t-0.5 -125l-11 -57q-13 -66 -50.5 -124.5t-90 -102t-116 -68.5t-129.5 -25h-353l25 120q24 115 47 228.5t47 228.5l25 123h350zM624 377q8 42 -1 78.5t-30.5 63.5
t-55 42.5t-75.5 15.5h-229q-23 -115 -46 -228.5t-47 -228.5h229q42 0 82 16t73 43t56.5 63.5t31.5 77.5z" />
    <glyph glyph-name="dcaron" unicode="&#x10f;" horiz-adv-x="674" 
d="M795 787q23 0 39 -15t16 -38q0 -7 -3 -16l-13 -68q-1 -11 -6.5 -24.5t-15 -25t-23.5 -19.5t-32 -8h-16l6 32q9 2 19.5 9t12.5 18l5 21q-4 0 -8 -1.5t-8 -1.5q-29 0 -44.5 20.5t-10.5 47.5q5 29 29.5 49t52.5 20zM713 787l-158 -787h-124l21 91q-43 -43 -95.5 -67
t-106.5 -24h-25q-51 0 -91 21.5t-65.5 58t-34.5 86t2 105.5t40 106t69.5 87t89 58.5t99.5 21.5h27q55 0 96.5 -25.5t67.5 -67.5l68 336h120zM477 286q6 31 -0.5 58.5t-23 48t-41.5 32.5t-55 12q-31 0 -60.5 -12t-54.5 -32.5t-42.5 -48t-24.5 -58.5l-5 -29q-7 -30 -0.5 -57.5
t22.5 -48t41 -32.5t55 -12q32 0 62 12t55 32.5t42 48t23 57.5z" />
    <glyph glyph-name="dcroat" unicode="&#x111;" horiz-adv-x="672" 
d="M804 716l-18 -86v-7h-107l-125 -623h-123l21 91q-43 -43 -95.5 -67t-106.5 -24h-25q-51 0 -91 21t-65.5 57.5t-34.5 86t2 105.5t40 106t69.5 87t89 58.5t99.5 21.5h27q53 0 95 -25t68 -68l35 173h-73v7l18 86h73l13 70h123l-14 -70h105zM474 286q7 31 1 58t-22 47.5
t-41 32.5t-56 12t-61.5 -12t-55 -32.5t-42 -47.5t-23.5 -58l-4 -29q-7 -31 -1 -58t22.5 -47.5t41 -32.5t55.5 -12q32 0 62 12t54.5 32.5t42 47.5t23.5 58z" />
    <glyph glyph-name="Emacron" unicode="&#x112;" horiz-adv-x="665" 
d="M582 775h-300l2 7l18 86h300l-18 -86zM234 577l-34 -168h373l-25 -120h-373l-34 -169h438l-25 -120h-559q36 175 71.5 349t69.5 351h562l-25 -123h-439z" />
    <glyph glyph-name="emacron" unicode="&#x113;" horiz-adv-x="637" 
d="M388 543q56 0 101.5 -21.5t75 -58.5t40.5 -87t-1 -106q-2 -11 -5 -22t-8 -23h-428q0 -51 34 -84.5t89 -33.5q36 0 70 15.5t60 41.5h145q-23 -36 -54 -66t-68 -52t-78 -34t-84 -12h-27q-56 0 -101.5 21t-75 57.5t-40.5 86t1 105.5q11 56 42.5 106t75.5 87t98 58.5
t109 21.5h29zM475 316q0 26 -9 47.5t-25 38t-39 25.5t-50 9t-53.5 -9t-49 -25.5t-40 -38t-27.5 -47.5h293zM554 693h-300l3 7l15 86h300l-16 -86z" />
    <glyph glyph-name="Edotaccent" unicode="&#x116;" horiz-adv-x="665" 
d="M423 727q-26 0 -40.5 18.5t-9.5 45.5q5 26 27 45t48 19q27 0 42 -19t10 -45q-5 -27 -27.5 -45.5t-49.5 -18.5zM234 577l-34 -168h373l-25 -120h-373l-34 -169h438l-22 -120h-562q36 175 71.5 349t69.5 351h562l-25 -123h-439z" />
    <glyph glyph-name="edotaccent" unicode="&#x117;" horiz-adv-x="640" 
d="M395 636q-27 0 -42 18.5t-10 45.5q5 26 27.5 45t49.5 19q26 0 40.5 -19t9.5 -45q-5 -27 -27 -45.5t-48 -18.5zM391 543q56 0 100.5 -21.5t74 -58.5t41 -87t0.5 -106q-2 -11 -5.5 -22t-8.5 -23h-429q2 -51 35.5 -84.5t86.5 -33.5q36 0 70.5 15.5t61.5 41.5h146
q-23 -36 -55 -66t-69 -52t-78 -34t-83 -12h-27q-56 0 -101.5 21t-75 57.5t-41 86t-0.5 105.5q12 56 43.5 106t76 87t98 58.5t109.5 21.5h30zM477 316q0 26 -9 47.5t-25 38t-38.5 25.5t-49.5 9t-54 -9t-50 -25.5t-41 -38t-28 -47.5h295z" />
    <glyph glyph-name="Eogonek" unicode="&#x118;" horiz-adv-x="666" 
d="M233 577l-32 -168h373l-25 -120h-373l-34 -169h439l-18 -81l-14 -75q-15 -4 -34 -9t-38.5 -11t-37.5 -12t-31 -12q-11 -5 -22.5 -14.5t-18.5 -21.5q0 -2 -1 -4.5t-1 -4.5t0.5 -3t0.5 -2t1 -2q8 -8 25.5 -9.5t29.5 0.5q10 2 21 4t22 7q10 4 20 7.5t19 8.5l18 12l18 -62
l-16 -11q-14 -7 -27 -13t-27 -10q-27 -10 -57 -13q-24 -4 -50 -0.5t-43 22.5q-9 9 -13 19.5t-6 24.5q0 27 14 52q12 27 34 46t45 31q8 4 16 7.5t19 8.5h-435q36 175 72 349t72 351h559l-23 -123h-441z" />
    <glyph glyph-name="eogonek" unicode="&#x119;" horiz-adv-x="640" 
d="M391 543q56 0 100.5 -21.5t74 -58.5t41 -87t0.5 -106q-2 -11 -5.5 -22t-8.5 -23h-439q0 -25 11 -47t29.5 -37.5t43 -24.5t51.5 -9q18 0 37 4t37 11.5t34.5 18t29.5 23.5h137q-36 -57 -90 -97.5t-117 -57.5q-11 -3 -28 -9.5t-35.5 -15t-38 -19.5t-35.5 -24
q-18 -14 -25 -29t-4.5 -28t14.5 -20.5t31 -4.5q11 2 22.5 4t23.5 7q8 4 18 7.5t18 8.5l18 12l18 -62l-15 -11q-12 -7 -26.5 -13t-26.5 -10q-29 -10 -59 -13q-24 -4 -50 -0.5t-43 22.5q-7 9 -11.5 19.5t-4.5 24.5q-2 15 2.5 31.5t11.5 33.5q12 24 34 44.5t48 37.5
q-48 7 -86 30.5t-62 59.5t-33 81.5t1 96.5q12 56 43.5 106t76 87t98 58.5t109.5 21.5h30zM486 316q0 26 -10.5 47.5t-28 38t-41.5 25.5t-51 9t-55 -9t-53 -25.5t-44.5 -38t-29.5 -47.5h313z" />
    <glyph glyph-name="Ecaron" unicode="&#x11a;" horiz-adv-x="665" 
d="M234 577l-34 -168h373l-25 -120h-373l-34 -169h438l-22 -120h-562q36 175 71.5 349t69.5 351h562l-25 -123h-439zM375 723l-66 150h93l34 -78l66 78h93l-127 -150h-93z" />
    <glyph glyph-name="ecaron" unicode="&#x11b;" horiz-adv-x="637" 
d="M347 636l-68 150h93l35 -77l68 77h93l-127 -150h-94zM388 543q56 0 101.5 -21.5t75 -58.5t40.5 -87t-1 -106q-2 -11 -5 -22t-8 -23h-439q1 -25 11.5 -47t28.5 -37.5t42.5 -24.5t51.5 -9q36 0 74.5 15.5t64.5 41.5h136q-23 -36 -54 -66t-68 -52t-78 -34t-84 -12h-27
q-56 0 -101.5 21t-75 57.5t-40.5 86t1 105.5q11 56 42.5 106t75.5 87t98 58.5t109 21.5h29zM486 316q0 26 -10.5 47.5t-29 38t-43 25.5t-51.5 9t-55 -9t-53 -25.5t-44.5 -38t-29.5 -47.5h316z" />
    <glyph glyph-name="Gbreve" unicode="&#x11e;" horiz-adv-x="782" 
d="M155 325q-9 -41 -0.5 -77.5t30.5 -63.5t55 -43t74 -16h241l34 168h-223l25 121h346l-84 -412h-364q-66 0 -119.5 25.5t-88 69.5t-48.5 103t-1 125l12 57q14 66 51 124.5t90 102t117 68.5t130 25h362l-23 -120h-364q-41 0 -80.5 -16t-72.5 -43t-56 -63.5t-32 -77.5z
M460 734q-62 0 -94 46q-14 19 -18.5 43t0.5 50h73q-5 -28 10 -47t42 -19q28 0 51.5 19t28.5 47h72q-5 -26 -19.5 -50t-36.5 -43q-24 -23 -52 -34.5t-57 -11.5z" />
    <glyph glyph-name="gbreve" unicode="&#x11f;" horiz-adv-x="671" 
d="M400 648q-29 0 -53.5 11.5t-39.5 33.5q-14 19 -19 43t0 50h73q-5 -27 10 -46.5t42 -19.5q28 0 51.5 19.5t28.5 46.5h73q-5 -26 -20 -50t-35 -43q-24 -22 -53 -33.5t-58 -11.5zM543 543h120l-102 -514q-2 -8 -3.5 -15t-5.5 -14q-14 -46 -40 -85.5t-60 -71.5
q-48 -46 -109.5 -73t-126.5 -27q-47 0 -87 14.5t-71 41t-50 62.5t-24 80h134q15 -35 47.5 -56t75.5 -21q30 0 59 10.5t54 28.5t44.5 43t30.5 54q4 7 5.5 14t3.5 15l12 53l2 9q-38 -36 -82 -60t-91 -31h-82q-26 3 -47.5 12.5t-38.5 23.5q-66 49 -77 139q-4 23 -3.5 46t5.5 49
q12 56 41.5 106t70 87t89 58.5t97.5 21.5h27q55 0 96.5 -25t67.5 -68l18 93v0zM477 286q2 11 2 22v22q-5 46 -39 76t-83 30q-52 0 -97 -30t-69 -76q-5 -11 -9 -22t-7 -22l-5 -29q-5 -20 -3.5 -39t8.5 -36q12 -35 42 -55t71 -20q43 0 82 20t66 55q12 17 21.5 36t12.5 39z" />
    <glyph glyph-name="Imacron" unicode="&#x12a;" horiz-adv-x="257" 
d="M138 702h121l-141 -700h-123zM384 873l-18 -87l-3 -6h-300l3 6l18 87h300z" />
    <glyph glyph-name="imacron" unicode="&#x12b;" horiz-adv-x="247" 
d="M118 543h120l-109 -543h-123zM377 786l-19 -86v-7h-299l2 7l16 86h300z" />
    <glyph glyph-name="Idotaccent" unicode="&#x130;" horiz-adv-x="255" 
d="M202 723q-26 0 -40.5 18t-9.5 45q5 26 27.5 45t49.5 19q26 0 40.5 -19t9.5 -45q-5 -27 -27.5 -45t-49.5 -18zM138 702h121l-141 -700h-123z" />
    <glyph glyph-name="dotlessi" unicode="&#x131;" horiz-adv-x="244" 
d="M239 543l-111 -543h-121l109 543h123z" />
    <glyph glyph-name="Lslash" unicode="&#x141;" horiz-adv-x="601" 
d="M279 120h255l-25 -120h-375l20 100l-95 -100h-128l257 268l87 432h122l-54 -266l116 123h127l-277 -293z" />
    <glyph glyph-name="lslash" unicode="&#x142;" horiz-adv-x="371" 
d="M430 641l-37 -173l-120 -100l-75 -368h-120l50 245l-121 -100l34 173l121 100l75 368h120l-50 -247z" />
    <glyph glyph-name="Nacute" unicode="&#x143;" horiz-adv-x="778" 
d="M783 700l-143 -700h-148l-266 532q-27 -134 -54.5 -266t-54.5 -266h-121l141 700h153l263 -527q28 132 54 262.5t53 264.5h123zM458 732h-73l84 141h107z" />
    <glyph glyph-name="nacute" unicode="&#x144;" horiz-adv-x="629" 
d="M416 543q45 0 81 -21.5t58.5 -58.5t29.5 -87t-5 -106q-14 -69 -27.5 -135t-27.5 -135h-122l56 286q7 31 2.5 58t-19 47.5t-37 32.5t-50.5 12t-55.5 -12t-50 -32.5t-38.5 -47.5t-22 -58l-5 -16l-5.5 -27.5t-10 -52.5t-12.5 -63.5t-12.5 -61.5t-10 -46.5t-5.5 -18.5h-121
l109 543h123l-16 -77q38 36 80.5 56.5t87.5 20.5h25zM389 645h-73l82 141h109z" />
    <glyph glyph-name="Ncaron" unicode="&#x147;" horiz-adv-x="778" 
d="M421 723l-65 150h93l34 -78l66 78h93l-127 -150h-94zM783 700l-143 -700h-148l-266 532q-27 -134 -54.5 -266t-54.5 -266h-121l141 700h153l263 -527q28 132 54.5 262.5t52.5 264.5h123z" />
    <glyph glyph-name="ncaron" unicode="&#x148;" horiz-adv-x="629" 
d="M350 650l-65 148h93l34 -78l66 78h93l-127 -148h-94zM416 543q45 0 80.5 -21.5t58 -58.5t29.5 -87t-4 -106q-14 -69 -27.5 -135t-27.5 -135h-122l56 286q7 31 2.5 58t-19 47.5t-37 32.5t-50.5 12t-55.5 -12t-50 -32.5t-39 -47.5t-23.5 -58l-3 -16l-5.5 -27.5l-10.5 -52.5
t-13 -63.5t-12.5 -61.5t-9.5 -46.5t-5 -18.5h-121l109 543h123l-16 -77q38 36 80.5 56.5t87.5 20.5h25z" />
    <glyph glyph-name="Omacron" unicode="&#x14c;" horiz-adv-x="801" 
d="M489 700q72 0 131 -28t97 -75.5t52.5 -111t-0.5 -135.5t-55 -136t-97 -111.5t-126.5 -75t-142.5 -27.5h-36q-72 0 -130.5 27.5t-96.5 75t-52.5 111.5t-0.5 136q15 72 55.5 135.5t97.5 111t126.5 75.5t141.5 28h36zM641 350q11 50 1 93.5t-36 76.5t-66 52t-89 19
q-50 0 -98 -19t-87.5 -52t-67.5 -76.5t-38 -93.5t0 -94t36 -76.5t66.5 -51.5t90.5 -19t97 19t86 51.5t67 76.5t38 94zM637 780h-300l2 6l18 87h300l-18 -87z" />
    <glyph glyph-name="omacron" unicode="&#x14d;" horiz-adv-x="641" 
d="M557 693h-300l2 7l16 86h300l-18 -86v-7zM391 543q56 0 101 -21.5t74 -58.5t40.5 -87t0.5 -106t-42.5 -105.5t-76 -86t-98.5 -57.5t-110 -21h-28q-56 0 -101.5 21t-75 57.5t-41 86t-0.5 105.5q12 56 43.5 106t76 87t98 58.5t109.5 21.5h30zM491 270q7 37 0 69.5t-25 56.5
t-46 38t-63 14t-68.5 -14t-61 -38t-47.5 -56.5t-28 -69.5q-7 -36 -0.5 -68t24.5 -56t46 -38.5t64 -14.5q34 0 67.5 14.5t61.5 38.5t48 56t28 68z" />
    <glyph glyph-name="Ohungarumlaut" unicode="&#x150;" horiz-adv-x="802" 
d="M464 732l82 141h107l-118 -141h-71zM489 700q73 0 131 -28t96 -75.5t53 -111t0 -135.5t-55 -136t-97 -111.5t-126.5 -75t-141.5 -27.5h-39q-72 0 -130 27.5t-95.5 75t-52 111.5t0.5 136q14 72 54.5 135.5t97.5 111t126.5 75.5t141.5 28h36zM642 350q10 50 0 93.5
t-36 76.5t-66.5 52t-90.5 19q-49 0 -97 -19t-87 -52t-67 -76.5t-38 -93.5t0 -94t36 -76.5t66 -51.5t89 -19q50 0 98 19t87.5 51.5t67.5 76.5t38 94zM403 732h-70l81 141h107z" />
    <glyph glyph-name="ohungarumlaut" unicode="&#x151;" horiz-adv-x="639" 
d="M382 645l81 141h107l-118 -141h-70zM388 543q56 0 101.5 -21.5t75 -58.5t40.5 -87t-1 -106q-11 -56 -42.5 -105.5t-75.5 -86t-97.5 -57.5t-109.5 -21h-29q-56 0 -101.5 21t-75 57.5t-40.5 86t1 105.5q11 56 42.5 106t76 87t98.5 58.5t110 21.5h27zM488 270q8 37 1.5 69.5
t-24.5 56.5t-45.5 38t-62.5 14q-36 0 -70 -14t-62 -38t-47.5 -56.5t-27.5 -69.5q-7 -36 0 -68t25 -56t46 -38.5t63 -14.5t68.5 14.5t61 38.5t47.5 56t27 68zM320 645h-70l82 141h106z" />
    <glyph glyph-name="OE" unicode="&#x152;" horiz-adv-x="1243" 
d="M813 582l-35 -169h373l-25 -120h-373l-2 -7l-31 -161h438l-25 -123h-559l13 78q-53 -38 -114 -59t-124 -21h-37q-72 0 -130.5 27.5t-96 75t-52.5 111.5t0 136t55 135.5t97 111t126.5 75.5t141.5 28h39q63 0 115 -22t89 -60l19 84h561l-25 -120h-438zM642 350
q10 50 0 93.5t-36 76.5t-65.5 52t-89.5 19t-98 -19t-87.5 -52t-67.5 -76.5t-38 -93.5t0 -94t36 -76.5t66.5 -51.5t90.5 -19t97.5 19t86.5 51.5t67 76.5t38 94z" />
    <glyph glyph-name="oe" unicode="&#x153;" horiz-adv-x="1094" 
d="M845 543q56 0 101.5 -21.5t75 -58.5t40.5 -87t-1 -106q-2 -11 -5 -22t-8 -23h-439q1 -25 11.5 -47t28.5 -37.5t42.5 -24.5t51.5 -9q36 0 74.5 15.5t64.5 41.5h136q-23 -36 -54.5 -66t-68.5 -52t-78 -34t-83 -12h-27q-66 0 -115.5 28t-78.5 74q-46 -46 -107 -74t-127 -28
h-27q-56 0 -101.5 21t-75 57.5t-41 86t-0.5 105.5t42.5 106t76 87t98.5 58.5t110 21.5h28q65 0 115 -28t78 -76q48 48 108.5 76t125.5 28h29zM491 270q7 37 0 69.5t-25 56.5t-46 38t-63 14t-68.5 -14t-61.5 -38t-48 -56.5t-27 -69.5q-7 -36 -0.5 -68t24.5 -56t45.5 -38.5
t62.5 -14.5t68.5 14t61.5 38t48 56.5t27 68.5h2zM943 316q0 26 -10.5 47.5t-29 38t-43 25.5t-51.5 9t-55 -9t-53 -25.5t-44 -38t-30 -47.5h316z" />
    <glyph glyph-name="Racute" unicode="&#x154;" horiz-adv-x="746" 
d="M460 732h-73l84 141h107zM735 464q-14 -67 -59 -121.5t-105 -85.5q-40 -19 -79 -25l147 -230h-159l-145 225h-171l-45 -225h-123l141 698h409q49 0 88 -18.5t64.5 -51t35.5 -75.5t1 -91zM476 348q23 0 45.5 9t41.5 25t32 37t17 45q5 24 0.5 44.5t-17 35.5t-31.5 24t-43 9
h-286q-7 -35 -12.5 -62t-11 -52.5t-11 -52.5t-13.5 -62h289z" />
    <glyph glyph-name="racute" unicode="&#x155;" horiz-adv-x="416" 
d="M454 543l-27 -125q-30 10 -68 6.5t-73 -20.5t-62 -46.5t-36 -71.5q-2 -8 -7 -32.5t-11 -56.5t-13 -66.5t-13 -63.5t-10.5 -48l-4.5 -19h-123l112 543h120l-16 -77q38 36 82 56.5t89 20.5h61zM297 645h-73l84 141h107z" />
    <glyph glyph-name="Rcaron" unicode="&#x158;" horiz-adv-x="746" 
d="M404 723l-66 150h94l34 -78l66 78h93l-127 -150h-94zM734 464q-14 -67 -58 -121.5t-106 -85.5q-40 -19 -77 -25l145 -230h-159l-143 225h-173l-45 -225h-123l143 698h407q49 0 88.5 -18.5t65 -51t35.5 -75.5t0 -91zM475 348q23 0 45.5 9t41.5 25t32 37t17 45
q5 24 0.5 44.5t-17 35.5t-31.5 24t-43 9h-286q-7 -35 -12 -62t-10.5 -52.5t-11 -52.5t-12.5 -62h287z" />
    <glyph glyph-name="rcaron" unicode="&#x159;" horiz-adv-x="416" 
d="M257 636l-66 150h93l35 -77l65 77h94l-128 -150h-93zM223 466q38 36 80.5 56.5t87.5 20.5h62l-25 -125q-31 10 -69 6.5t-73.5 -20.5t-62.5 -46.5t-36 -71.5q-1 -8 -5.5 -32.5t-11 -56.5t-13.5 -66.5t-13 -63.5t-10.5 -48t-5.5 -19h-121l109 543h123z" />
    <glyph glyph-name="Sacute" unicode="&#x15a;" horiz-adv-x="702" 
d="M423 732h-73l84 141h107zM525 395q47 -16 75.5 -45t39.5 -64t4 -73t-30 -74t-62 -66t-93 -48q-42 -14 -88 -19.5t-85 -5.5q-31 0 -65.5 4.5t-68.5 14.5t-63.5 26t-50.5 39t-30 53.5t-1 69.5l2 4h127l-2 -4q-4 -22 17 -38t51 -26t61.5 -14.5t47.5 -3.5q27 0 60 2.5
t61 10.5q42 14 62.5 33.5t22 40t-15.5 38.5t-51 29q-43 14 -89.5 19t-92.5 13q-29 7 -57 17t-52 22q-27 14 -47 35t-29 47.5t-6.5 57t20.5 62.5q24 43 63.5 71t84.5 45q40 14 82.5 22t81.5 8q38 0 79.5 -6t79 -20.5t66.5 -38.5t41 -60l-123 -62q-5 19 -24.5 31t-44.5 19
t-51 10t-44 4q-29 0 -64 -5.5t-63 -17.5q-15 -5 -31.5 -17.5t-20.5 -29.5q-2 -12 6 -23t19 -18q15 -11 36.5 -16.5t40.5 -8.5q54 -12 109 -18.5t105 -25.5z" />
    <glyph glyph-name="sacute" unicode="&#x15b;" horiz-adv-x="568" 
d="M353 645h-72l84 141h107zM417 300q56 -19 79 -60t15 -86.5t-45 -87.5t-101 -64q-32 -10 -67.5 -14t-66.5 -4q-37 0 -79 8.5t-76 28t-53 51t-10 76.5l2 7h113v-7q-2 -13 8.5 -23.5t28.5 -18t41 -12t45 -5.5q50 2 82 12.5t52 32.5q14 17 5.5 34t-39.5 27q-32 11 -67 13.5
t-69 9.5q-23 5 -44 12t-40 18q-22 11 -38 28t-23 38.5t-4.5 46.5t17.5 50q19 35 50.5 57.5t67.5 36.5q31 11 62.5 16.5t62.5 5.5q30 0 63 -4.5t62 -16t52 -31t32 -48.5l2 -4l-113 -55l-2 7q-4 15 -22 25t-33 14t-39 5.5t-49.5 -1.5t-48.5 -10.5t-38 -21.5q-7 -6 -7 -13
q-2 -7 4 -13t10 -8q12 -8 27.5 -12.5t29.5 -7.5q41 -9 82 -13.5t79 -18.5z" />
    <glyph glyph-name="Scedilla" unicode="&#x15e;" horiz-adv-x="702" 
d="M525 395q47 -16 75.5 -45t39.5 -64t4 -73t-30 -74t-62 -66t-93 -48q-41 -14 -87 -19.5t-85 -5.5h-3q-7 -8 -11.5 -15t-8.5 -12q17 -4 32 -8t29 -13q19 -10 33 -25.5t17 -37.5q5 -21 -7 -44q-9 -24 -34 -38q-22 -16 -49 -19t-51 0q-12 2 -25 4.5t-25 7.5q-12 3 -22 8
t-21 12l-11 7l41 52l11 -9q7 -3 15.5 -7t16.5 -6q8 -4 18.5 -5.5t22.5 -3.5q10 -2 26 -1.5t28 7.5q0 2 1.5 2.5t3.5 2.5v9q0 11 -8.5 19t-16.5 13q-12 7 -29 11t-33 7q-3 0 -6.5 1t-6.5 1l-21 5l3 23q0 2 1 3t1 3q6 32 23 50q-43 6 -85 20.5t-74 39.5t-48 60t-7 83v4h127v-4
q-4 -22 17 -38t51 -26t61.5 -14.5t47.5 -3.5q28 0 60.5 2.5t60.5 10.5q42 14 62.5 33.5t21.5 40t-16 38.5t-50 29q-43 14 -89 19t-93 13q-29 7 -57 17t-54 22q-27 14 -46 35t-28 47.5t-6 57t21 62.5q24 43 63.5 71t84.5 45q39 14 81.5 22t81.5 8q38 0 79.5 -6t79 -20.5
t66.5 -38.5t41 -60l-125 -62q-4 19 -23 31t-44 19t-50.5 10t-43.5 4q-29 0 -64.5 -5.5t-63.5 -17.5q-15 -5 -31.5 -17.5t-20.5 -29.5q-2 -12 6.5 -23t18.5 -18q16 -11 37 -16.5t40 -8.5q54 -12 109 -18.5t105 -25.5z" />
    <glyph glyph-name="scedilla" unicode="&#x15f;" horiz-adv-x="567" 
d="M422 368v7q-5 15 -22 25t-33 14q-15 4 -39 5.5t-49.5 -1.5t-48.5 -10.5t-38 -21.5q-5 -5 -9 -13q0 -7 5.5 -13t10.5 -8q11 -8 25.5 -12.5t28.5 -7.5q42 -9 83.5 -13.5t80.5 -18.5q56 -19 79 -60t15 -86.5t-45.5 -87.5t-102.5 -64q-33 -10 -67.5 -14t-66.5 -4h-10
q-6 -6 -6 -11q15 -4 31 -8t30 -13q19 -10 32.5 -25.5t17.5 -37.5q0 -11 -2 -22t-7 -22t-13 -21t-19 -17q-24 -16 -50 -19t-50 1q-14 2 -27 4t-25 7q-11 4 -22 8.5t-19 11.5l-14 7l41 52l14 -9q7 -3 14.5 -7t14.5 -6q11 -4 21 -5.5t20 -3.5q11 -2 27.5 -1.5t27.5 8.5q2 2 3 2
t1 2q2 4 2.5 5.5t0.5 3.5q-2 11 -10.5 19t-17.5 13q-11 7 -28 11t-31 7q-3 0 -7 1t-9 1l-20 5l5 23v7q3 10 6.5 19t6.5 17q-31 6 -61 18t-51 31.5t-31 46t-2 61.5v7h116l-3 -7q-2 -13 9 -23.5t29.5 -18t41.5 -12t45 -5.5q96 3 132 45q16 17 6.5 34t-38.5 27
q-32 11 -66.5 13.5t-69.5 9.5q-22 5 -44 12t-42 18q-21 11 -37 28t-23 38.5t-5 46.5t17 50q19 35 51.5 57.5t66.5 36.5q31 11 64 16.5t63 5.5t63 -4.5t62.5 -16t52.5 -31t32 -48.5v-4z" />
    <glyph glyph-name="Scaron" unicode="&#x160;" horiz-adv-x="701" 
d="M383 723l-69 150h94l36 -78l66 78h93l-127 -150h-93zM526 395q47 -16 74.5 -45t38 -64t3.5 -73t-30 -74t-62 -66t-93 -48q-39 -14 -85 -19.5t-87 -5.5q-46 0 -99.5 10.5t-97 35t-68.5 64t-13 97.5v4h128l-3 -4q-4 -22 17 -38t51.5 -26t62 -14.5t47.5 -3.5q27 0 60 2.5
t60 10.5q42 14 63 33.5t22.5 40t-15 38.5t-49.5 29q-43 14 -90 19t-92 13q-29 7 -57.5 17t-54.5 22q-27 14 -46 35t-28 47.5t-6 57t21 62.5q24 43 63.5 71t84.5 45q39 14 80.5 22t80.5 8t81 -6t80 -20.5t67 -38.5t41 -60l-125 -62q-5 19 -24.5 31t-44 19t-50.5 10t-45 4
q-27 0 -62.5 -5.5t-64.5 -17.5q-14 -5 -31 -17.5t-19 -29.5q-4 -12 5 -23t18 -18q15 -11 37 -16.5t42 -8.5q54 -12 108 -18.5t106 -25.5z" />
    <glyph glyph-name="scaron" unicode="&#x161;" horiz-adv-x="567" 
d="M416 300q56 -19 79 -60t15 -86.5t-45 -87.5t-101 -64q-32 -10 -67.5 -14t-66.5 -4q-37 0 -79 8.5t-76.5 28t-53.5 51t-10 76.5l3 7h113v-7q-2 -13 8.5 -23.5t28.5 -18t41 -12t45 -5.5q98 3 134 45q14 17 5.5 34t-39.5 27q-32 11 -67 13.5t-67 9.5q-24 5 -45 12t-41 18
q-22 11 -38 28t-23 38.5t-4.5 46.5t17.5 50q19 35 50.5 57.5t67.5 36.5q31 11 62.5 16.5t62.5 5.5q30 0 63 -4.5t62 -16t52 -31t32 -48.5l2 -4l-113 -55l-2 7q-4 15 -20.5 25t-32.5 14t-40 5.5t-49.5 -1.5t-49 -10.5t-38.5 -21.5q-2 -3 -4.5 -6.5t-2.5 -6.5q-2 -7 4 -13
t10 -8q12 -8 27.5 -12.5t29.5 -7.5q41 -9 82 -13.5t79 -18.5zM314 636l-68 150h93l34 -77l68 77h93l-127 -150h-93z" />
    <glyph glyph-name="Umacron" unicode="&#x16a;" horiz-adv-x="748" 
d="M766 702l-75 -377q-13 -66 -50.5 -125t-90.5 -103t-117 -69.5t-130 -25.5q-67 0 -120.5 25.5t-88.5 69.5t-48.5 103t0.5 125l77 377h120q-19 -94 -37.5 -188.5t-37.5 -188.5q-8 -42 0.5 -78.5t30 -63.5t55 -42.5t74.5 -15.5t80.5 16t72 43t56 63.5t31.5 77.5
q19 94 39 188.5t39 188.5h120zM609 780h-300l3 6l18 87h300l-18 -87z" />
    <glyph glyph-name="umacron" unicode="&#x16b;" horiz-adv-x="628" 
d="M543 693h-300l2 7l16 86h300l-18 -86v-7zM623 543l-112 -543h-120l16 77q-38 -36 -82 -56.5t-89 -20.5h-22q-45 0 -81 21t-58.5 57.5t-30 86t3.5 105.5q14 69 28.5 136.5t28.5 136.5h122l-59 -286q-6 -31 -0.5 -58t20 -47.5t37 -32.5t50.5 -12t55.5 12t50 32.5t38.5 47.5
t22 58l2 13q1 6 5.5 29t11 53t13.5 64t12.5 62t10 46.5l4.5 18.5h123z" />
    <glyph glyph-name="Uring" unicode="&#x16e;" horiz-adv-x="747" 
d="M766 702v-2l-32 -157l-43 -218q-13 -66 -50.5 -125t-90.5 -103t-117 -69.5t-130 -25.5q-67 0 -120.5 25.5t-88.5 69.5t-48.5 103t0.5 125l45 218l32 157v2h120v-2l-31 -157l-44 -218q-8 -42 0.5 -78.5t30 -63.5t54.5 -42.5t74 -15.5q42 0 82 16t72.5 43t55.5 63.5
t31 77.5l46 218l32 157v2h120zM352 666q-14 14 -18 34q-3 12 -3.5 24t1.5 26q4 11 6.5 19.5t7.5 16.5q7 14 17 27t24 23q19 17 43 27t50 10q24 0 44.5 -10t32.5 -27q17 -20 20 -50q2 -8 1 -16.5t-3 -19.5q-2 -14 -7.5 -26t-12.5 -24q-7 -11 -15.5 -19t-16.5 -15
q-20 -17 -43.5 -27t-49.5 -10t-46 10t-32 27zM414 786q-15 -15 -18 -36q-5 -24 9 -41q2 -3 5 -5l6 -4q10 -7 27 -7t30 7q8 3 14 9q19 16 27 41q3 21 -5 36q-2 2 -2 3.5t-2 3.5q-7 7 -17 11.5t-22 4.5t-23.5 -4.5t-21.5 -11.5q-4 -3 -7 -7z" />
    <glyph glyph-name="uring" unicode="&#x16f;" horiz-adv-x="629" 
d="M621 543l-109 -543h-122l16 77q-36 -36 -80 -56.5t-89 -20.5h-22q-45 0 -81 21t-58.5 57.5t-30 86t3.5 105.5q14 69 27.5 136.5t29.5 136.5h122l-59 -286q-6 -31 -0.5 -58t19.5 -47.5t36.5 -32.5t49.5 -12q28 0 55.5 12t50 32.5t39 47.5t23.5 58l2 13q1 6 5.5 29t11 53
t13.5 64t12.5 62t9.5 46.5t5 18.5h120zM362 543q-23 0 -43 10t-34 27q-14 15 -18.5 37.5t0.5 46.5q10 51 52 86q42 36 93 36q52 0 80 -36q12 -17 17.5 -38.5t0.5 -47.5q-5 -24 -19.5 -46.5t-34.5 -37.5q-19 -17 -43.5 -27t-50.5 -10zM356 707q-20 -17 -28 -43
q-2 -12 1 -22.5t8 -18.5q7 -9 17 -12.5t22 -3.5t23.5 3.5t21.5 12.5q9 8 16 18.5t9 22.5q4 12 1 23t-10 20q-7 7 -15.5 11.5t-22.5 4.5q-12 0 -23.5 -4.5t-19.5 -11.5z" />
    <glyph glyph-name="Uhungarumlaut" unicode="&#x170;" horiz-adv-x="748" 
d="M768 702l-77 -377q-13 -66 -50.5 -125t-90 -103t-116 -69.5t-129.5 -25.5t-119.5 25.5t-89 69.5t-49.5 103t-1 125l77 377h123q-20 -94 -39 -188.5t-38 -188.5q-9 -42 -0.5 -78.5t30 -63.5t55 -42.5t74.5 -15.5q42 0 82 16t73 43t56 63.5t32 77.5q19 94 37.5 188.5
t37.5 188.5h122zM437 732l81 141h110l-119 -141h-72zM378 732h-73l82 141h106z" />
    <glyph glyph-name="uhungarumlaut" unicode="&#x171;" horiz-adv-x="629" 
d="M369 645l82 141h107l-116 -141h-73zM310 645h-72l81 141h107zM622 543l-109 -543h-123l16 77q-36 -36 -79.5 -56.5t-88.5 -20.5h-23q-46 0 -82 21t-58.5 57.5t-29.5 86t4 105.5l54 273h123l-57 -286q-6 -31 -0.5 -58t20 -47.5t36.5 -32.5t49 -12q28 0 55.5 12t50 32.5
t39 47.5t23.5 58l2 13q1 6 5.5 29t11 53t13.5 64t12.5 62t9.5 46.5t5 18.5h121z" />
    <glyph glyph-name="Uogonek" unicode="&#x172;" horiz-adv-x="747" 
d="M646 700h120l-77 -380q-9 -45 -29.5 -87t-50.5 -78.5t-67.5 -66t-79.5 -49.5q-7 -4 -24 -13.5t-39 -22t-46.5 -27t-47.5 -28.5q-6 -5 -20.5 -13.5t-29 -19t-26 -21t-11.5 -19.5q0 -3 2 -5q0 -1 1 -2q8 -8 24.5 -9.5t27.5 0.5q12 2 23.5 4t21.5 7q11 4 21 7.5t18 8.5
l16 12l20 -62l-16 -11q-14 -7 -27 -13t-27 -10q-26 -10 -57 -13q-26 -4 -51 -0.5t-42 22.5q-15 16 -18 44q0 29 13 52q7 13 21 27.5t30.5 27t34.5 23t33 15.5q-63 3 -113.5 29.5t-83 70t-45 100t0.5 120.5l77 380h120q-19 -96 -38 -189.5t-39 -190.5q-7 -41 1.5 -77.5
t30 -63.5t54.5 -43t75 -16q41 0 80.5 16t72.5 43t56.5 63.5t31.5 77.5q19 97 38 190.5t40 189.5v0z" />
    <glyph glyph-name="uogonek" unicode="&#x173;" horiz-adv-x="628" 
d="M500 543h123l-105 -511l-7 -32l-7 -41q-14 -3 -32 -7t-36.5 -8.5t-35.5 -10.5t-30 -13q-10 -5 -21.5 -14.5t-19.5 -21.5q0 -2 -1 -4.5t-1 -4.5t0.5 -3t0.5 -2t1 -2q9 -8 26 -9.5t29 0.5q11 2 22.5 4t22.5 7q9 4 19 7.5t18 8.5l18 12l18 -62l-16 -11q-14 -7 -27 -13
t-25 -10q-29 -10 -59 -13q-24 -4 -50 -0.5t-43 22.5q-15 16 -18 44q0 29 13 52q14 27 35 46t45 31q7 4 16.5 8t19.5 8h-2l16 77q-38 -36 -82 -56.5t-89 -20.5h-22q-45 0 -81 21t-58.5 57.5t-30 86t3.5 105.5q15 69 29 136.5t28 136.5h122l-59 -286q-6 -31 -0.5 -58t20 -47.5
t37 -32.5t50.5 -12t55.5 12t50 32.5t38.5 47.5t22 58l2 13q1 6 5.5 29t11 53t13.5 64t12.5 62t10 46.5l4.5 18.5v0z" />
    <glyph glyph-name="Ydieresis" unicode="&#x178;" horiz-adv-x="705" 
d="M336 723q-28 0 -42.5 18t-7.5 45q5 26 27 45t48 19q27 0 42 -19t10 -45q-5 -27 -28 -45t-49 -18zM520 723q-26 0 -40.5 18t-9.5 45q5 26 27.5 45t49.5 19q26 0 40.5 -19t9.5 -45q-5 -27 -27.5 -45t-49.5 -18zM777 700l-375 -407l-60 -291h-120l59 291l-211 407h150
l145 -284l262 284h150z" />
    <glyph glyph-name="Zacute" unicode="&#x179;" horiz-adv-x="688" 
d="M414 732h-73l82 141h107zM689 541l-559 -416h475l-25 -123h-614l32 162l561 418h-477l25 120h616z" />
    <glyph glyph-name="zacute" unicode="&#x17a;" horiz-adv-x="557" 
d="M346 645h-73l84 141h107zM573 543l-25 -123v-2l-375 -298h313l-24 -120h-478l25 120v3l375 297h-313l22 123h480z" />
    <glyph glyph-name="Zdotaccent" unicode="&#x17b;" horiz-adv-x="689" 
d="M421 723q-27 0 -42.5 18t-10.5 45q5 26 27.5 45t50.5 19q26 0 40.5 -19t9.5 -45q-5 -27 -27 -45t-48 -18zM691 541l-561 -416h477l-25 -123h-616l32 162l561 418h-475l25 120h614z" />
    <glyph glyph-name="zdotaccent" unicode="&#x17c;" horiz-adv-x="558" 
d="M352 636q-26 0 -40 18.5t-9 45.5q5 26 27 45t50 19q26 0 40.5 -19t9.5 -45q-5 -27 -27.5 -45.5t-50.5 -18.5zM573 543l-25 -123v-2l-375 -298h314l-23 -120h-480l25 120v3l375 297h-313l25 123h477z" />
    <glyph glyph-name="zcaron" unicode="&#x17e;" horiz-adv-x="558" 
d="M306 636l-66 150h93l34 -77l66 77h93l-127 -150h-93zM572 543l-23 -123l-2 -2l-373 -298h313l-25 -120h-477l25 120v3l375 297h-316l25 123h478z" />
    <glyph glyph-name="circumflex" unicode="&#x2c6;" horiz-adv-x="327" 
d="M348 550h-93l-36 77l-66 -77h-93l127 150h93z" />
    <glyph glyph-name="caron" unicode="&#x2c7;" horiz-adv-x="305" 
d="M366 700l-127 -150h-93l-66 150h93l34 -77l66 77h93z" />
    <glyph glyph-name="breve" unicode="&#x2d8;" horiz-adv-x="310" 
d="M364 700q-5 -26 -19.5 -50t-36.5 -43q-49 -46 -110 -46t-93 46q-14 19 -18.5 43t0.5 50h73q-5 -27 10 -46.5t42 -19.5t51 19.5t29 46.5h72z" />
    <glyph glyph-name="dotaccent" unicode="&#x2d9;" horiz-adv-x="221" 
d="M178 682q29 0 44 -20.5t10 -47.5q-7 -29 -30.5 -49t-51.5 -20q-27 0 -43 20t-11 49q7 27 30.5 47.5t51.5 20.5z" />
    <glyph glyph-name="ogonek" unicode="&#x2db;" horiz-adv-x="296" 
d="M127 -80q-10 -5 -22 -14.5t-19 -21.5q0 -2 -1 -4.5t-1 -4.5t0.5 -3t0.5 -2t1 -2q9 -8 25.5 -9.5t27.5 0.5t22.5 4t22.5 7q11 4 20.5 7.5t18.5 8.5l16 12l20 -62l-16 -11q-14 -7 -27 -13t-27 -10q-27 -10 -57 -13q-26 -4 -51 -0.5t-42 22.5q-9 9 -13 19.5t-6 24.5
q0 27 14 52q12 27 34 46t46 31q14 8 35 15t44 13.5t45 11.5t37 8l-16 -73q-15 -3 -32.5 -7t-35.5 -8.5t-34.5 -10.5t-29.5 -13z" />
    <glyph glyph-name="hungarumlaut" unicode="&#x2dd;" horiz-adv-x="324" 
d="M253 700l-116 -141h-73l82 141h107zM385 700l-116 -141h-73l82 141h107z" />
    <glyph glyph-name="Sigma" unicode="&#x3a3;" horiz-adv-x="583" 
d="M612 607h-393l184 -257l-288 -259h393l-18 -91h-537l14 68l316 282l-202 280l13 70h537z" />
    <glyph glyph-name="endash" unicode="&#x2013;" horiz-adv-x="548" 
d="M524 384l-23 -120h-486l22 120h487z" />
    <glyph glyph-name="emdash" unicode="&#x2014;" horiz-adv-x="919" 
d="M895 384l-25 -120h-856l25 120h856z" />
    <glyph glyph-name="quoteleft" unicode="&#x2018;" horiz-adv-x="226" 
d="M169 620q28 0 44 -19t11 -46q-7 -29 -31 -49t-51 -20t-43 20t-11 49l13 65q3 11 8.5 25t15 26t23 20.5t31.5 8.5h15l-4 -32q-11 -3 -20.5 -9.5t-11.5 -17.5l-5 -21h16z" />
    <glyph glyph-name="quoteright" unicode="&#x2019;" horiz-adv-x="226" 
d="M182 700q27 0 43 -19.5t11 -48.5l-13 -68q-3 -11 -8.5 -24.5t-15 -25.5t-23 -20t-31.5 -8h-16l5 32q11 2 20.5 9.5t11.5 17.5l4 21q-3 0 -7.5 -1t-8.5 -1q-27 0 -43 20t-11 48q7 29 30.5 48.5t51.5 19.5z" />
    <glyph glyph-name="quotesinglbase" unicode="&#x201a;" horiz-adv-x="192" 
d="M52 134q27 0 43.5 -19.5t11.5 -48.5l-14 -66q-3 -11 -8.5 -25t-15.5 -26t-23.5 -20.5t-32.5 -8.5h-13l4 32q11 4 20.5 10.5t11.5 17.5l5 20h-16q-29 0 -44.5 19t-10.5 47q3 15 11 27.5t19 21.5t25 14t27 5z" />
    <glyph glyph-name="quotedblleft" unicode="&#x201c;" horiz-adv-x="356" 
d="M314 620q28 0 44 -19t11 -46q-7 -29 -30.5 -49t-51.5 -20q-29 0 -44 20t-10 49l13 65q3 11 8.5 25t15 26t23 20.5t31.5 8.5h15l-4 -32q-11 -3 -20.5 -9.5t-11.5 -17.5l-4 -21h15zM155 620q29 0 44.5 -19t10.5 -46q-5 -29 -29 -49t-53 -20q-27 0 -43 20t-11 49l13 65
q3 11 8.5 25t15.5 26t23.5 20.5t32.5 8.5h16l-7 -32q-9 -3 -19.5 -9.5t-12.5 -17.5l-5 -21h16z" />
    <glyph glyph-name="quotedblright" unicode="&#x201d;" horiz-adv-x="356" 
d="M166 700q29 0 44 -19.5t10 -48.5l-13 -68q-3 -11 -8.5 -24.5t-15 -25.5t-23 -20t-31.5 -8h-16l5 32q11 2 20.5 9.5t11.5 17.5l4 21q-3 0 -7.5 -1t-8.5 -1q-27 0 -43 20t-11 48q7 29 30.5 48.5t51.5 19.5zM325 700q27 0 43 -19.5t11 -48.5h-2l-11 -68q-3 -11 -8.5 -24.5
t-15.5 -25.5t-23.5 -20t-32.5 -8h-16l7 32q8 2 19 9.5t13 17.5l5 21q-4 0 -8.5 -1t-7.5 -1q-29 0 -44.5 20t-10.5 48q5 29 29 48.5t53 19.5z" />
    <glyph glyph-name="quotedblbase" unicode="&#x201e;" horiz-adv-x="351" 
d="M52 134q29 0 44.5 -19.5t10.5 -48.5l-14 -66q-3 -11 -8 -25t-14 -26t-22.5 -20.5t-32.5 -8.5h-16l7 32q8 4 18 10.5t13 17.5l3 20h-16q-28 0 -44 19t-11 47q7 29 31 48.5t51 19.5zM211 134q27 0 43 -19.5t11 -48.5l-13 -66q-3 -11 -8.5 -25t-15 -26t-22.5 -20.5t-31 -8.5
h-16l4 32q11 4 20.5 10.5t11.5 17.5l5 20h-16q-29 0 -44.5 19t-10.5 47q7 29 31 48.5t51 19.5z" />
    <glyph glyph-name="dagger" unicode="&#x2020;" horiz-adv-x="540" 
d="M547 543l-25 -123h-178l-136 -677h-123l139 677h-175l23 123h177l32 157h120l-32 -157h178z" />
    <glyph glyph-name="bullet" unicode="&#x2022;" horiz-adv-x="445" 
d="M260 532q38 0 68.5 -14.5t50 -39t27 -57.5t-0.5 -71q-7 -38 -28 -71.5t-51 -58.5t-65.5 -39.5t-73.5 -14.5t-69 14.5t-51 39.5t-27.5 58.5t-0.5 71.5q8 38 29.5 71t51.5 57.5t66.5 39t73.5 14.5z" />
    <glyph glyph-name="perthousand" unicode="&#x2030;" horiz-adv-x="914" 
d="M180 343q-28 0 -51 11t-38 29.5t-20.5 43.5t0.5 53l16 84q6 28 22 53t38 43.5t49 29t55 10.5h18q28 0 50.5 -10.5t37.5 -29t20.5 -43.5t0.5 -53l-18 -84q-5 -28 -21 -53t-38.5 -44t-49.5 -29.5t-55 -10.5h-16zM151 480q-4 -23 8.5 -39t36.5 -16h16q24 0 43.5 16t24.5 39
l16 84q5 22 -8.5 38t-36.5 16h-16q-23 0 -43 -16t-23 -38zM737 355q28 0 51 -11t38 -29.5t20.5 -43.5t-0.5 -53l-16 -82q-6 -28 -21.5 -53t-37.5 -43.5t-49 -29t-55 -10.5h-19q-27 0 -49.5 10t-36.5 29q-50 -39 -105 -39h-18q-28 0 -50.5 10.5t-37 29t-20.5 43.5t-1 53
l18 82q6 28 22 53t38 43.5t49 29.5t55 11h16q56 0 89 -39q48 39 104 39h16zM557 218q5 24 -8 40.5t-37 16.5h-16q-24 0 -43.5 -16.5t-24.5 -40.5l-16 -82q-5 -23 8.5 -39.5t36.5 -16.5h16q23 0 43 16.5t23 39.5zM766 218q4 24 -8.5 40.5t-36.5 16.5h-16q-24 0 -43.5 -16.5
t-24.5 -40.5l-16 -82q-5 -23 8.5 -39.5t37.5 -16.5h15q23 0 43 16.5t23 39.5zM676 700l-548 -700h-96l548 700h96z" />
    <glyph glyph-name="guilsinglleft" unicode="&#x2039;" horiz-adv-x="396" 
d="M194 350l132 -193h-146l-154 193l86 73l145 120h146z" />
    <glyph glyph-name="guilsinglright" unicode="&#x203a;" horiz-adv-x="395" 
d="M370 350l-232 -193h-145l211 193l-132 193h146l95 -120z" />
    <glyph glyph-name="Euro" unicode="&#x20ac;" horiz-adv-x="625" 
d="M398 582q-38 0 -72 -24t-51 -58h193l-22 -120h-198l-14 -62h198l-23 -118h-193q2 -36 26.5 -59t62.5 -23h229l-25 -118h-229q-43 0 -78.5 15t-60.5 42t-37.5 63.5t-9.5 79.5h-75l25 118h72l14 62h-75l25 120h75q14 42 41 78.5t63 63.5t78.5 42.5t85.5 15.5h230l-25 -118
h-230z" />
    <glyph glyph-name="trademark" unicode="&#x2122;" horiz-adv-x="630" 
d="M331 655h-102l-46 -228h-47l45 228h-102l9 45h252zM595 700h63l-54 -273h-48l43 212l-104 -128h-23l-52 128l-44 -212h-47l57 273h63l48 -118z" />
    <glyph glyph-name="radical" unicode="&#x221a;" horiz-adv-x="550" 
d="M672 873l-477 -996l-88 339h-105l18 91h134l50 -193l355 759h113z" />
    <glyph glyph-name="notequal" unicode="&#x2260;" horiz-adv-x="572" 
d="M376 405l-55 -112h187l-25 -120h-221l-84 -173h-127l84 173h-118l25 120h154l53 112h-187l25 120h223l84 175h127l-86 -175h121l-25 -120h-155z" />
    <glyph glyph-name="lessequal" unicode="&#x2264;" horiz-adv-x="475" 
d="M-30 0h409l-25 -123h-409zM152 350l259 -193h-223l-161 120l29 146l209 120h223z" />
    <glyph glyph-name="greaterequal" unicode="&#x2265;" horiz-adv-x="474" 
d="M-43 0h406l-25 -123h-406zM450 423l-30 -146l-209 -120h-222l334 193l-257 193h222z" />
    <glyph glyph-name="uniF000" unicode="&#xf000;" horiz-adv-x="734" 
d="M521 700q35 -180 64 -328q12 -63 24.5 -124.5t22.5 -113t17 -87.5t9 -47h-132q-16 82 -28.5 146t-24.5 127t-25.5 134.5t-32.5 167.5q-39 -64 -70.5 -116.5t-59 -98.5t-52.5 -87.5t-50.5 -84t-53 -88.5t-60.5 -100h-132l421 700h163z" />
    <glyph glyph-name="uniF001" unicode="&#xf001;" horiz-adv-x="754" 
d="M736 493q-8 -41 -32 -78.5t-57 -64.5q23 -29 30.5 -66t-0.5 -79q-9 -43 -32.5 -80t-57.5 -65t-74.5 -44t-83.5 -16h-441l59 289l26 120h440q35 0 64 25t36 59q4 18 0.5 33.5t-12.5 26.5t-23 17.5t-31 6.5h-443l25 123h441q43 0 77.5 -16.5t57 -44.5t31.5 -65.5t0 -80.5z
M554 205q9 34 -11 59t-55 25h-320l-34 -169h320q35 0 64 25t36 60z" />
    <glyph glyph-name="uniF002" unicode="&#xf002;" horiz-adv-x="772" 
d="M484 700q66 0 119.5 -25.5t88.5 -69.5t48.5 -103t-0.5 -125l-11 -57q-13 -66 -50.5 -124.5t-90.5 -102t-117 -68.5t-131 -25h-350l25 120l64 316h120l-63 -316h229q42 0 81.5 16t72 43t55.5 63.5t32 77.5l12 57q8 42 -0.5 78.5t-30 63.5t-54.5 42.5t-74 15.5h-353l25 123
h353z" />
    <glyph glyph-name="uniF003" unicode="&#xf003;" horiz-adv-x="651" 
d="M568 125l-25 -123h-562l25 123h562zM40 293l25 121h494l-23 -121h-496zM684 702l-25 -120h-560l25 120h560z" />
    <glyph glyph-name="uniF004" unicode="&#xf004;" horiz-adv-x="640" 
d="M568 414l-25 -121h-373l-59 -291h-123l84 412h496zM691 702l-23 -120h-562l25 120h560z" />
    <glyph glyph-name="uniF005" unicode="&#xf005;" horiz-adv-x="782" 
d="M152 320q-7 -41 1.5 -77.5t30 -63.5t55 -43t75.5 -16h241l34 169l25 120h120l-82 -409h-363q-67 0 -120.5 25t-88.5 68.5t-48.5 102t0.5 124.5l11 57q14 67 51 125.5t89.5 102.5t116 69.5t129.5 25.5h364l-25 -123h-361q-42 0 -82 -15.5t-73 -42.5t-56.5 -63.5
t-31.5 -78.5z" />
    <glyph glyph-name="uniF006" unicode="&#xf006;" horiz-adv-x="716" 
d="M217 493l-148 -123l69 330h120zM358 348l280 -348h-173l-71 89l-206 259l420 352h173zM60 325l98 -120l-41 -205h-123z" />
    <glyph glyph-name="uniF007" unicode="&#xf007;" horiz-adv-x="831" 
d="M117 609l80 -202l-82 -407h-123zM820 609l-123 -609h-123l82 405zM686 543l-269 -329h-59l-104 259l-91 227h138l123 -302l248 302h138z" />
    <glyph glyph-name="uniF008" unicode="&#xf008;" horiz-adv-x="772" 
d="M111 582l86 -173l-82 -409h-123zM779 700l-116 -580l-86 175l81 405h121zM517 241l121 -241h-150l-227 457l-121 243h148z" />
    <glyph glyph-name="uniF009" unicode="&#xf009;" horiz-adv-x="722" 
d="M531 700q50 0 89.5 -18.5t65 -51t35 -75.5t-0.5 -91q-9 -49 -36.5 -92t-66 -75t-85.5 -51t-96 -19h-286l-46 -227h-123l73 348h407q24 0 46.5 9t41.5 25t32.5 37t18.5 45q4 24 -1 44.5t-17.5 35.5t-31 24t-41.5 9h-409l25 123h406z" />
    <glyph glyph-name="uniF00A" unicode="&#xf00a;" horiz-adv-x="803" 
d="M490 700q73 0 131 -28t96 -75.5t53 -111t0 -135.5q-14 -67 -49.5 -127t-86.5 -106.5t-113 -76.5t-128 -38l-28 -131h-120l95 479h123l-48 -234q41 10 78.5 32.5t68 53t51.5 68.5t30 80q10 50 0 93.5t-36 76.5t-66 52t-89 19q-50 0 -98 -19t-87.5 -52t-67.5 -76.5
t-38 -93.5q-14 -63 5.5 -116.5t62.5 -85.5l-25 -130q-49 18 -86 50.5t-59.5 75.5t-29.5 95.5t5 110.5q14 72 54.5 135.5t97.5 111t126.5 75.5t141.5 28h36z" />
    <glyph glyph-name="uniF00B" unicode="&#xf00b;" horiz-adv-x="745" 
d="M546 700q49 0 88 -18.5t64.5 -51t35 -75.5t-0.5 -91q-12 -67 -57 -121.5t-105 -85.5q-40 -19 -79 -25l147 -230h-159l-145 225l-80 121h218q24 0 47 9t41.5 25t32 37t18.5 45t0.5 44.5t-17.5 35.5t-32 24t-42 9h-286q-8 -35 -14 -62t-11 -52.5t-10.5 -52.5t-12.5 -62
l-25 -121l-45 -225h-121l141 698h409z" />
    <glyph glyph-name="uniF00C" unicode="&#xf00c;" horiz-adv-x="732" 
d="M720 464q-14 -67 -58 -121.5t-106 -85.5q-19 -9 -38 -15.5t-39 -9.5l147 -230h-161l-143 225h-173l-45 -225h-121l71 346h406q24 0 47 9t41.5 25t32 37t18.5 45q4 24 -1 44.5t-17 35.5t-31 24t-42 9h-409l25 123h407q50 0 89.5 -18.5t65 -51t35 -75.5t-0.5 -91z" />
    <glyph glyph-name="uniF00D" unicode="&#xf00d;" horiz-adv-x="663" 
d="M301 498h120l-100 -498h-120zM724 698l-25 -121h-644l25 121h644z" />
    <glyph glyph-name="uniF00E" unicode="&#xf00e;" 
d="M302 216l41 -216h-130l-136 700h132zM795 700l-386 -645l-32 163l286 482h132z" />
    <glyph glyph-name="uniF00F" unicode="&#xf00f;" horiz-adv-x="1015" 
d="M260 168l14 -168h-125l-66 700h127zM1074 700l-328 -659l-11 232l214 427h125zM642 700l34 -700h-132l-18 441l-182 -409l-20 234l193 434h125z" />
    <glyph glyph-name="uniF010" unicode="&#xf010;" horiz-adv-x="743" 
d="M452 350l209 -350h-154l-153 252l-511 -509h-155l607 607l-209 350h157l150 -252l255 252h154z" />
    <glyph glyph-name="uniF011" unicode="&#xf011;" horiz-adv-x="737" 
d="M809 -257h-155l-305 509l-254 -252h-155l350 350l-209 350h157l150 -252l255 252h154l-350 -350z" />
    </font>
</defs>
</svg>
